<svg xmlns="http://www.w3.org/2000/svg" viewBox="0 0 58.63 76.86"><title>xxiv-zero-normal</title><g id="Layer_2" data-name="Layer 2"><g id="Layer_3" data-name="Layer 3"><path d="M39.18,76.19l.18-.35c-.22,0-.55-.22-.65-.13s-.17.46-.26.74a2,2,0,0,1-.18-.61c0-.25-.08-.36-.3-.33s-.12.19-.17.29-.07.21-.11.31l-.33-.21-.27-.1c-.11.24-.21.31-.31,0a3.88,3.88,0,0,0-.23.33c0,.09-.07.19-.11.28l-.22-.17h0l-.08-.34-.27.18h0l-.05-.34-.23.14c-.22,0-.48-.09-.64,0s-.25.37-.37.56l-.33.5c-.07,0-.17-.09-.2-.17a3.36,3.36,0,0,1-.13-.48h-.11a1.32,1.32,0,0,0,0,.33c0,.29-.11.39-.33.46s-.35,0-.42-.24-.14-.29-.31,0-.39.15-.65.23c.24-.2.38-.34.54-.46a.5.5,0,0,1,.25-.09,3.73,3.73,0,0,1,.43,0c-.42-.53-.79-.54-1.15-.11a1.14,1.14,0,0,1-.25.18.63.63,0,0,0,0-.23.83.83,0,0,0-.17-.21l-.34.32.18-.14-.5-.25s0,0,0,0,0,0,0,.07h0c-.3.36-.61.17-.77-.1s-.38-.1-.55-.09a1.7,1.7,0,0,0-.46.24.58.58,0,0,1,0,.26c0,.08-.15.14-.23.21l-.17-.28a1.33,1.33,0,0,1-.05-.19s-.08.12-.12.12c-.27,0-.71.09-.79,0s-.28,0-.4-.06h0L27.46,76l-.24.24v0L26.87,76l-.26.26a2.83,2.83,0,0,1-.36.16,2,2,0,0,1-.35.07,1.89,1.89,0,0,0,.11-.25l.06-.17-.35,0c.09-.26.09-.26-.19-.3,0,0-.05-.09-.07-.14-.12-.48-.8-.29-1-.76a2.81,2.81,0,0,0-.67.07c.49.13-.26.73.44.76a1,1,0,0,0-.3.07c-.06,0-.09.15-.14.22a1.7,1.7,0,0,1-.11-.43c0-.27-.34-.64-.59-.58-.06,0-.1.09-.18.18.13-.69.09-.76-.65-1,0,.21.32.5-.14.62H22l-.26-.63-.46.39-.59-.29.07.3h0c-.13,0-.32.08-.37.17-.14.25-.3.19-.45.07s-.09-.24.09-.34.07-.24.1-.37l.36-.1-.33-.06-.29,0-.47-.3,0,0a2.38,2.38,0,0,0-.32-.38,1.11,1.11,0,0,0-.43-.19.37.37,0,0,1-.25-.63.91.91,0,0,0,.15-.27.74.74,0,0,0,0-.29l-.19.16a2,2,0,0,1-.26.25c-.3.16-.56.3-.09.58,0,0,0,.19,0,.32-.19-.08-.29-.54-.49-.09,0,0-.07,0-.1,0a.66.66,0,0,1,0-.14,6,6,0,0,1,.2-.86c.12-.32-.07-.29-.26-.34s-.34,0-.35.23c0,0-.26.11-.29.07s-.15-.34-.28-.43a1,1,0,0,0-.55-.1,1.49,1.49,0,0,0-.37.13l.05-.43.63-.19.23.37.24-.36h-.48c-.12-.15-.22-.32-.35-.46a.82.82,0,0,0-.28-.14,2.44,2.44,0,0,1,0,.27l0,.48c.11-.14-.53.12-.12-.22,0,0,0-.25-.06-.4a3.52,3.52,0,0,1-.38.25.93.93,0,0,1-.24,0l.12-.22,0,0,.16-.08c-.16-.33.08-.8-.36-1h0l-.12-.19-.17.19,0,0c-.56.31-.72.28-1-.18.67.07.68.07.6-.46,0,0-.13,0-.19,0l-.18-.33-.34.59.09.06.37-.27-.34.43c-.35-.16-.34-.67.06-.93.25-.16.25-.29.1-.47l-.48.18c0-.17,0-.28-.06-.39s0,0-.05-.08.44-.1.1-.3c-.08,0-.24,0-.37.09h0l0-.93a1.49,1.49,0,0,1-.36,0c-.16,0-.26-.06,0-.16,0,0,0-.15-.06-.16-.3-.12-.38-.29-.18-.55a3.33,3.33,0,0,1,.39-.35c.07-.06.18-.12.18-.16a.78.78,0,0,0-.14-.27l-.18.19-.05,0a2.17,2.17,0,0,1,.12-.36c.13-.27.08-.44-.23-.51A.39.39,0,0,1,12,64a1,1,0,0,0,.16-.12c.07-.12.14-.25.2-.38s0-.15,0-.15c.29-.08.57-.14.85-.2a1,1,0,0,0-1.46.18c-.07.07-.21.08-.33.13l0-.11a3.55,3.55,0,0,0-.08.47c0,.08,0,.22,0,.25a.4.4,0,0,1,.07.67l-.21.27c0-.1,0-.24,0-.29s-.32-.33-.5-.35-.39,0-.27-.34.06-.41-.28-.34a2.54,2.54,0,0,1-.49.05c.06-.17.51-.34,0-.52-.13,0-.18-.33-.26-.51,0,0,0,0,0,0C9,62.62,9,62.25,8.8,62h0a.77.77,0,0,0-.31-.62c-.11-.12-.05-.38-.1-.57s.1-.45-.27-.27c0,0-.17-.18-.26-.28s0-.15,0-.23l-.18,0,.16.21c-.44,0-.27-.51-.51-.68a.63.63,0,0,0-.31-.15A3.85,3.85,0,0,0,7.13,59c0-.23,0-.23-.23-.21,0,0-.06,0-.06,0-.17-.32-.34-.64-.49-1,0-.06.05-.16.08-.24-.14,0-.27,0-.4.08s-.08.09-.12.13h0c-.18-.21.19-.29.11-.59a2.39,2.39,0,0,0-.75-1.41s-.12-.15-.1-.19c.19-.34-.13-.52-.22-.77H4.88L5,53.54l-.31.27s-.07-.06-.06-.07c.19-.37-.21-.49-.32-.73a8.65,8.65,0,0,1-.44-1c0-.17-.11-.53.32-.43l.1.17.1-.06-.17-.13c0-.21,0-.34-.29-.22a.42.42,0,0,1,0-.16l0-.74L4,50.06l-.11,0-.08.36c-.14.26-.25.58-.65.35h0c0-.18,0-.35,0-.53s-.24-.41-.51-.27c-.06,0-.14,0-.22,0s0-.22,0-.22c.47,0,.35-.4.46-.63l-.5,0c.06-.12.14-.23.19-.35a.46.46,0,0,0,0-.2c-.24-.95-.46-1.9-.72-2.84-.18-.64-.44-1.25-.6-1.89a8.77,8.77,0,0,1-.06-1c-.08-.47-.2-.94-.32-1.41s-.52-.74-.09-1.19c.05,0-.08-.26-.09-.39a2,2,0,0,1,.05-.49s.19,0,.28,0l.68-.1v-.11c-.06,0-.14,0-.17,0-.19.15-.26.16-.39-.09a1.17,1.17,0,0,0-.59-.57C.3,38.29.41,38.12.4,38s.24-.41-.08-.57a.64.64,0,0,1,.08-.19c.12-.17.06-.14,0-.37a1.88,1.88,0,0,1,0-.75c0-.1.09-.28.06-.29-.34-.19-.1-.42-.07-.64a9.24,9.24,0,0,0,.06-1,12.67,12.67,0,0,0,0-1.63c-.08-.66,0-1.33-.07-2a1.61,1.61,0,0,1,.13-.58s0-.1,0-.12c-.3-.47,0-1-.07-1.41-.11-.66.32-1.24.11-1.87,0,0,.06-.12.1-.18s.22-.33.34-.49l-.11-.09L.54,26c.07-.14.09-.29.17-.33.34-.17.32-.49.4-.79S1,24.29,1,24s.23-.38.39-.55.2-.07.27-.13A3.7,3.7,0,0,0,2,23l-.06.46s0,.05.05.08a.6.6,0,0,1,.13.79.64.64,0,0,0,0,.2c.08,0,.18,0,.23-.07s.32-.39.5-.56.17,0,.3,0c.06-.31.06-.29-.37-.41a.32.32,0,0,1-.21-.27c0-.16.16-.28-.12-.38a.54.54,0,0,0-.63.05,9.54,9.54,0,0,1-1.06.6,4.4,4.4,0,0,1,.16-.94c0-.09.31-.13.47-.11.39.07.32-.1.25-.35,0-.09,0-.21,0-.32l.06.12.21.31a2.43,2.43,0,0,0,.44-.47c.07-.12,0-.31,0-.47-.06,0-.14,0-.18,0s-.36.32-.54.48l-.35.17v-.38l-.09-.27c.23-.13.32-.28.08-.44-.06-.2.49.17.16-.24,0,0,.08-.1.1-.16a.26.26,0,0,0,.05-.17.58.58,0,0,0-.1-.19l.18,0a.06.06,0,0,0,.05,0c0-.19,0-.38,0-.58.32,0-.05-.61.42-.43,0,0,.06,0,.07-.08.11-.28.21-.56.33-.84a1.21,1.21,0,0,1,.14-.2c0,.09.07.18.09.26a.39.39,0,0,0,.12.2c0-.35,0-.71,0-1.06s.3-.24.39-.42c.19.35.32-.07.49-.06s.14-.22.22,0a.72.72,0,0,0,.11-.19c0-.1,0-.27,0-.29s.27-.06.33,0c.24.22.29,0,.32-.14.06-.3.09-.61.14-1l-.51.4a6.6,6.6,0,0,1-.11-.85,2.23,2.23,0,0,1,.18-.59,2.88,2.88,0,0,0,.06.48c0,.07.13.12.2.18a.5.5,0,0,0,0-.21c0-.17-.16-.35-.12-.49.13-.44.33-.86.5-1.29l.2.12.29-.1,0-.12L5.3,13c.14-.29.31-.58.43-.88s.17-.53.28-.79c0-.07.15-.09.27-.15s.17-.32.29-.51a2.7,2.7,0,0,1,.25-.34s.08,0,.12,0,.2-.06.24-.12a4.9,4.9,0,0,1,.89-1c.24-.27.42-.58.66-.86s.19-.48.54-.38c.05,0,.14,0,.19-.09.28-.29.54-.59.81-.89.05-.05.11-.13.18-.13.65-.1.53-.75.82-1.07l.58.17.3-.39.28-.11.36-.46h0l.25,0c0-.52.47-.47.71-.71a2.2,2.2,0,0,0,.3-.31c.1-.15.07-.46.4-.26a.65.65,0,0,1,.11-.15c.14-.13.29-.36.44-.37a2.79,2.79,0,0,0,1.34-.58c.09-.05.22-.42.37,0,0,0,.06,0,.07,0,.19-.14.36-.3.55-.43a.43.43,0,0,1,.24,0c0,.4.18.33.43.19a.49.49,0,0,1,.27,0c.41,0,.64-.12.65-.56l.19,0a.58.58,0,0,1,.77-.28c.14,0,.34,0,.52-.08l1.09-.23c.09,0,.2,0,.3.06.38.09.69-.15,1-.21a3.07,3.07,0,0,1,.68,0s.09.07.11.06A2.47,2.47,0,0,1,25.25.74c.22,0,.46-.14.69-.16a6,6,0,0,1,.73.06c.15,0,.38.11.45,0,.23-.25.59.08.78-.21.2.41.58.16.82.15a15.28,15.28,0,0,1,2,0c.48,0,1-.07,1.46-.07a11.37,11.37,0,0,1,1.16.11l.17,0c.05-.38.36-.11.53-.21s.36-.08.35.22c0,.05.08.11.12.16s.14-.09.13-.14c0-.29.11-.17.24-.1.37.21.35-.09.36-.35l.15.06c-.06.2-.14.39-.18.58a2.3,2.3,0,0,0,0,.37.86.86,0,0,1,.28-.1,5,5,0,0,1,.87.1c.31.08.59.21.76-.23.1-.24.67-.09.63-.06-.28.25.07.19.11.27s.07,0,.08,0c.53-.48.85.22,1.3.24.26,0,.5.25.75.38a.2.2,0,0,1,.08.08c0,.07,0,.16.05.21a.26.26,0,0,0,.2,0,1.17,1.17,0,0,0,.25-.07c.07,0,.19,0,.2,0,.14.25.26.5.39.77l.89-.17c0,.13-.06.29-.09.46s0,.11,0,.12c.26.09.51.18.77.25,0,0,.11-.16.16-.24h0s0,.09,0,.13a.59.59,0,0,0,.42.87s0,.1,0,.16,0,.35-.05.52A2.84,2.84,0,0,1,43.64,5l.24,0-.13.11c0,.13,0,.26-.07.4-.12,0-.27-.16-.31-.13a3.78,3.78,0,0,0-.48.5s0,.16,0,.2.13,0,.19,0,.12-.07.16,0a1.3,1.3,0,0,1,.22.19l.1.26a2.65,2.65,0,0,1,.5.27c.22.18.59.24.55.66s.21.35.44.34c.08,0,.16-.12.24-.18l.12.3-.13.1.59.66,0-.18c.07-.41-.4-.34-.5-.6.17-.26.12-.4-.19-.53-.16-.24-.58-.3-.47-.72,0,0-.15-.08-.21-.14a4.63,4.63,0,0,1-.71-.69c-.12-.16-.09-.42-.13-.64.26,0,.47,0,.51.37s.27.34.54.24c0,0,.16.08.17.13.07.56.48.72.94.84a1.88,1.88,0,0,1,.44.24l-.19.15L46,7.15l.16.18V7.06l.5,0h0a1,1,0,0,0-.14.27c0,.11,0,.24,0,.36l.21-.06.4-.13,0,.4-.26,0,0,.47.31-.17.25.06s-.13.07-.15.12a4,4,0,0,0-.12.46l.73-.21h0a1.16,1.16,0,0,0,.1.28,1.18,1.18,0,0,0,.18.21h-.28v.08c.18.06.37.1.55.18s.08.13.12.2a.61.61,0,0,0-.18-.05c-.1,0-.21,0-.31,0a2.3,2.3,0,0,0,0,.26c.06.36.12.73.2,1.09a3,3,0,0,0,.2.49l-.17.15c-.14-.28-.27-.56-.42-.84,0,0-.08,0-.11,0a.81.81,0,0,0-.14.12c.29.19.2.73.69.73.13.3.25.6.39.89a.2.2,0,0,0,.14.06c.06,0,.14-.13.13-.16-.14-.32-.29-.63-.44-.93h-.09c0-.25-.12-.52.44-.37.36.09.75,0,1.05.35h0c-.14.14,0,.61-.47.37l.16-.18a1.82,1.82,0,0,0-.33,0s-.06.06-.09.09l.28.08a1.37,1.37,0,0,1,.06.44c-.09.43.18.44.47.5s.25.17.37.26c-.08,0-.18.07-.26.12a.22.22,0,0,0-.08.15c0,.13,0,.26,0,.39l.21-.15.16-.13a.89.89,0,0,0-.06.2c0,.05,0,.1.08.15s.12-.08.12-.12c0-.24,0-.48,0-.72a1.6,1.6,0,0,1,0-.23,1.22,1.22,0,0,1,.12.19,2.25,2.25,0,0,1,.28.47,1.8,1.8,0,0,1,.05.52,4.17,4.17,0,0,1-.05.53l-.23,0a4,4,0,0,1,.17.36c0,.13.07.27.11.41l.11.09c.08.42.33.59.71.38.1-.05.07-.32.1-.49h0c.09.12.19.22.27.34.24.32.48.64.69,1,.06.1,0,.27.05.39a1,1,0,0,0,.22.24h0a.54.54,0,0,1-.41.74.43.43,0,0,0,0-.21.38.38,0,0,0-.18-.15s-.12.09-.11.12a.42.42,0,0,0,.13.21s.14,0,.22,0l-.06.33c.1,0,.21,0,.31-.09l.64-.29a7.24,7.24,0,0,1,.1,1,.75.75,0,0,0,.32.64.34.34,0,0,1-.07.18.26.26,0,0,1-.15-.05,1.71,1.71,0,0,1-.2-.18v.23l-.14,0L53.46,19a2.17,2.17,0,0,1,0-.25c-.1,0-.23,0-.28.11s-.13.26-.09.32a2,2,0,0,0,.4.37c-.09.16-.23.3-.24.47a1.33,1.33,0,0,0,.07.69c.08.14.1.51.45.35,0,0,.07.08.06.09-.17.36.05.45.33.55.07,0,.1.38,0,.52-.23.46.09.47.38.5,0,.06,0,.11,0,.11l-.39.09a1.93,1.93,0,0,1,.22.28,3.24,3.24,0,0,0,.16.47c.1.14-.08.49.3.44,0,.11,0,.22,0,.33,0,.33-.08.65-.11,1l.19.05.5.09c-.2.31-.38.6-.58.88s-.13.54.19.72a1.39,1.39,0,0,1,.43.37c.12.15.11.28-.15.28-.07,0-.21.13-.2.17a1.52,1.52,0,0,0,.18.33,1.17,1.17,0,0,1,.1-.26.2.2,0,0,1,.13-.09.2.2,0,0,1,.1.12c0,.16,0,.33,0,.49s.07.07.11.1.05,0,.07,0c.07.49.65.67.68,1.21a1.85,1.85,0,0,0,.48.9c.17.21.24.28,0,.36s-.46.37-.32.66l.41-.36.1.24h0c0,.18-.16.46-.1.51.41.3.12.75.27,1.2l.07-.33.25.4h0c0,.17-.06.48,0,.48.35.07.12.22.08.36s0,.12.07.18,0,.26.07.39l.21-.19-.3-.18.49-.86h0c.06.09.1.2.18.25s.18,0,.26,0a1.79,1.79,0,0,0-.2.26c-.06.13-.16.31-.12.42a1.12,1.12,0,0,1-.4,1.41.24.24,0,0,0-.07.23.34.34,0,0,0,.23.16s.12-.11.17-.18a1.22,1.22,0,0,1,.25-.31c-.19.43.37.93-.16,1.33l0-.51c-.3-.36-.35.83-.76,0,0,.22,0,.44,0,.66a.68.68,0,0,0,.12.22c.32-.16.27.13.37.27s.2.11.32.17a2.55,2.55,0,0,1,0-.54c0-.09.16-.16.24-.24,0,.1.12.18.12.28s0,.39,0,.59l-.26.13.06.1.22-.2c0,.34.16.66,0,1-.1.19.06.53.15.79a2,2,0,0,1,0,1.43,2.63,2.63,0,0,0-.06.75.28.28,0,0,1-.12.16.39.39,0,0,0-.23.6.5.5,0,0,1,0,.4c-.21.37-.09.58.27.71h0c-.52.13,0,.53-.2.75h.46c0,.51-.1,1.06-.09,1.6,0,1,.07,2.05.06,3.07a3.18,3.18,0,0,1-.26.81c-.08.28-.35.59.09.81-.2.11.33.36-.09.46,0,0,0,.3,0,.45-.06.36-.13.71-.19,1.07a1.24,1.24,0,0,0,0,.27c0,.4.34.79.09,1.23,0,0,.05.14.05.21,0,.33,0,.66-.07,1-.07.56-.1,1.13-.22,1.67a2.6,2.6,0,0,1-.44.77,1.31,1.31,0,0,1-.2.21c.08,0,.2,0,.22,0a1.14,1.14,0,0,1,.19.53,1.39,1.39,0,0,1-.25.52,1.63,1.63,0,0,0-.32,1,4,4,0,0,1-.26,1.21c0,.07-.19.17-.24.15a1.5,1.5,0,0,1-.31-.31,3.25,3.25,0,0,0-.25.45c0,.09,0,.21.05.32a.59.59,0,0,1,.2-.12.58.58,0,0,1,.21,0c-.16.24.13.66-.33.81-.09,0-.14.19-.19.31-.1.28-.2.54-.59.46,0,0-.14,0-.19.09s-.18.41-.46.23a1.63,1.63,0,0,0-.19.34,4,4,0,0,1-.13.77,1.25,1.25,0,0,1-.43.58,1.39,1.39,0,0,0-.53,1,3.24,3.24,0,0,1-.45.71c-.2.31-.49.58-.4,1s0,.47-.43.39c-.09,0-.25,0-.29.06a3.28,3.28,0,0,0-.34.64s.13.18.11.19a2.78,2.78,0,0,1-.53.5c-.45.32-.91.6-1.31.86-.1,0-.27,0-.35-.14a2.09,2.09,0,0,1-.28-.51c0-.07.1-.14.14-.21l-.1,0,0,.27c-.27-.26-.47,0-.59.16a3,3,0,0,0-.36.74s0,0,.05.09a1.33,1.33,0,0,1,0,.34c0,.19,0,.44-.14.53s-.42,0-.56.06a14.44,14.44,0,0,1-1.22.88,7.88,7.88,0,0,1-1.6.52c-.25.06-.74.45-.74.68-.2-.09-.41-.27-.6-.25s-.35.25-.52.4l.07.11h0a1.33,1.33,0,0,1-.21-.09c-.08,0-.17-.19-.22-.18a1,1,0,0,0-.35.22,1.28,1.28,0,0,0-.2.26.64.64,0,0,0,0-.24c0-.07-.12-.12-.18-.18l-.2.26-.23.08c-.22,0-.4.12-.35.4h0c-.24-.09-.5-.31-.68.09,0,0-.11.11-.13.09-.4-.21-.45.26-.69.34l-.12,0c-.09,0-.27.11-.26.13.09.39-.23.24-.39.31Zm10-46v.38l.16,0-.16-.36-.4,0a.67.67,0,0,0,0,.16l.34-.13S49.14,30.22,49.17,30.21ZM17.8,51.73l-.09.47.14,0-.05-.49-.05-.39C17.51,51.65,17.51,51.65,17.8,51.73ZM16.28,50l.08.38.37.26,0,.43.12,0,.21-.59c-.17-.2-.42-.13-.63-.19l-.11-.36a.55.55,0,0,0,0-.18c0-.07,0-.14,0-.21s-.16,0-.18.07,0,.13.05.19A1.06,1.06,0,0,0,16.28,50ZM29.52,13.15h-.08l-.3-.34,0-.32c-.11,0-.27,0-.3.09s0,.23,0,.35l.28-.07c0,.22,0,.5.36.28l-.21.28c.38.05.38.05.27-.29l.21-.12-.07-.08Zm2.06,1.27-.25-.08,0,.2.24-.07-.1.32.42.21Zm-4.67-2.51.28.4c0-.07.11-.15.09-.19s-.17-.23-.25-.35l-.12.14c-.06,0-.12-.06-.17-.05a3.4,3.4,0,0,0-.34.16s.07.1.08.09a2.72,2.72,0,0,0,.35-.16ZM36.75,15a1,1,0,0,0,0-.3.8.8,0,0,0-.12-.27s-.07,0-.11,0a1.28,1.28,0,0,0,.07.28,2.39,2.39,0,0,0,.13.28l.4.55a1.45,1.45,0,0,0-.09.22c0,.13,0,.26-.07.39-.07-.1-.19-.19-.22-.3-.09-.38-.32-.39-.62-.31l-.1,0c-.07-.53-.38,0-.54-.13s-.35-.34-.52-.33c-.32,0-.45,0-.47-.29a1.09,1.09,0,0,1,0-.18.51.51,0,0,0-.22.11,1.6,1.6,0,0,0-.16.27l-.08-.28c-.29.15-.57.39-.89,0-.27.26-.18-.07-.22-.15a1.3,1.3,0,0,1-.08-.34l.24.28h.06l-.1-.35-.2.1-.21.31-.29.42L32,14.91l0,.13h.43c0,.06.07.16.13.18a1.45,1.45,0,0,0,.3,0l0,.12-.7-.14c-.25,0-.5-.32-.7,0-.12-.14-.32-.27-.36-.43s.08-.38.15-.64l-.35.17a.82.82,0,0,0,0-.27,1.51,1.51,0,0,0-.15-.28c-.06,0-.17.08-.17.12a.41.41,0,0,0,.11.24,1.16,1.16,0,0,0,.2.18l-.24.68H30.5l-.14-.84-.39.22-.11-.46.39-.44c-.53-.21-.4.18-.41.45l-.56-.07,0,.29a3.65,3.65,0,0,1-.24-.31,1,1,0,0,1-.09-.24h0l-.5-.24L27.79,13c-.32-.15-.19-.45-.2-.72-.35.14-.67.52-1,0,0-.06-.22,0-.33,0s-.21,0-.23-.06c-.22-.46-.49-.12-.74-.07h0l.07-.5-1,.54a4.56,4.56,0,0,1,.25-.43l.13-.17c-.09,0-.19-.08-.27-.06s-.41.17-.59.14a.48.48,0,0,0-.62.39,3.74,3.74,0,0,1-.23-.44.75.75,0,0,1,0-.26,2.75,2.75,0,0,1-.26.22c-.11.07-.25.18-.35.16-.39-.08-.52.25-.75.42-.08.06-.13.18-.22.21a2,2,0,0,0-1.15.71,5.09,5.09,0,0,1-.69.62c-.17.17-.3.55-.53.05,0,0-.13,0-.19-.06a.47.47,0,0,1,.06.15A.24.24,0,0,1,19,14c-.21.24-.88,0-.68.7l-.23.08,0,0,.21-.13.36-.12c-.16.21-.27.47-.4.48-.29,0-.4.48-.75.33,0,.09,0,.22,0,.26.22.24.06.38-.12.51l-.41.26a.74.74,0,0,1-.12-.13c-.13-.22-.22-.56-.53-.15,0,0-.13,0-.17,0a1.85,1.85,0,0,0-.37.37c0,.05.09.19.16.28s.16,0,.17-.06c.13-.54.49-.47.87-.36,0,.12.16.31-.15.28-.06,0-.19.08-.18.12,0,.37-.23.38-.48.41h0l0-.15-.27,0-.27.11.18,0c-.11.13-.21.27-.31.4s-.16.12-.18.2-.08.45-.11.67a2.51,2.51,0,0,1-.19-.67.17.17,0,0,0-.11-.11s-.07.05-.09.08a6.16,6.16,0,0,0-.68,1.39C14,20,13,20.4,13.22,21.33a.08.08,0,0,1,0,0,1.51,1.51,0,0,0-.44.93c-.22.9-.54,1.78-.81,2.67a2,2,0,0,0-.19.73c.09.59-.23,1.12-.1,1.74.16.83-.06,1.74.12,2.57s-.17,1.63.15,2.41c0,.06-.12.18-.19.28v.08a.59.59,0,0,0,0,.13l0-.22c.17.16.3,1.09.15,1.11-.53.06.06.29-.07.39-.24-.2-.34-.09-.46.2l.46-.2.39-.45a4,4,0,0,1,.15.53.71.71,0,0,1,0,.32c-.14.42-.3.85-.45,1.27v.29l.05.33a2.07,2.07,0,0,0,.25-.15l.48-.36.08.09-.19.24c-.08.09-.38.17,0,.26a.2.2,0,0,1,.05.13c0,.58,0,1.15,0,1.73,0,.11.14.21.22.32l.07,0c0-.07,0-.17.07-.21a1.45,1.45,0,0,1,.34-.2c-.06.25,0,.52-.14.57-.63.3,0,.63,0,.82s.22.22-.11.37c.21.09.67,0,.42.39s0,.34.17.46,0,.13.06.2l-.13.32.2,0,0-.32.29,0c0,.14-.14.39-.11.41.23.12.13.16,0,.23s-.14.16-.12.2.17.24.2.23c.28-.14.19.06.19.19a2.73,2.73,0,0,0,0,.76c.13.37.35.7.49,1.07.05.12,0,.28,0,.42a.88.88,0,0,0,.08.34,5.34,5.34,0,0,0,.62-.07c-.31.48,0,.92.2,1.39l.37,1c-.35-.16-.84,0-.58-.51,0,0-.12-.13-.15-.12a.25.25,0,0,0-.16.16c0,.09.07.21,0,.28-.12.28.27.44.15.7a1.06,1.06,0,0,0,.21-.16c.06-.07.08-.19.15-.25a3.31,3.31,0,0,1,.94.54c.1.33.1.33.5.32-.07.16-.12.31-.19.45a3.19,3.19,0,0,1-.23.32l.1.08.57-.3c0,.19.06.43,0,.5-.26.23,0,.43,0,.62a3.51,3.51,0,0,0,.19.63c.07.17.15.33.22.49a1,1,0,0,1,.24-.23,2.87,2.87,0,0,1,.44-.14c-.05.29-.49.31-.27.68.12.2.08.48.19.7s.35.45.47.71a.82.82,0,0,1,0,.52c-.56.1-.45.41-.25.77.17-.12.41-.39.41.12,0,0,.09.1.12.09.26,0,.52-.11.77-.16l.26-.05c0,.08-.09.15-.12.22a1.42,1.42,0,0,0-.15.57c0,.16.23.28.34.42s.12.19.18.28l.12-.3.29.84.09,0,.2-.57c.21.16-.23.56.27.53,0,0-.05.11-.09.13a3.84,3.84,0,0,1-.35.18l.27.42h0l.29.8.11,0v-.55h.08L22,58.68l.72,0-.12.68c.15.09.29.18.43.25s.41.44.77.31c.05,0,.39,0,.12.24,0,0,0,.13.06.18a1.48,1.48,0,0,0,.51.11.56.56,0,0,1,.19.1l-.66.72.54.11a1.12,1.12,0,0,1,.07-.41s.26,0,.29,0a1.3,1.3,0,0,1,0,.35c0,.26-.19.49.11.78s.34-.19.5,0a1.21,1.21,0,0,0-.28.21.25.25,0,0,0,0,.25c.05,0,.17,0,.25,0a.51.51,0,0,0,0-.16v-.32l0-.09h0c.1.22.47.42.05.7a.35.35,0,0,0,0,.33,9.74,9.74,0,0,0,1,.72c.12.09.36.25.27-.15,0-.06.12-.16.23-.31,0,.26,0,.42,0,.57s-.05.1-.07.15v.25l.14-.1s.12.08.13.13c.06.31.07.63.16.93a1.23,1.23,0,0,0,.35.52s.25-.16.39-.23a.89.89,0,0,1,.28-.07l.29,0-.22-.27s-.11-.09-.1-.1a.58.58,0,0,1,.12-.2l.68.32c.11.06.3-.35.43.16,0,0,.15.11.17.09.26-.19.17.15.29.18l-.29.36s-.11-.11-.1-.12c.22-.33-.23-.23-.25-.39a1.67,1.67,0,0,0-.23.23,2.35,2.35,0,0,0-.17.44.24.24,0,0,0,.07.19c.29,0,.6.2.89,0s.41-.23.6-.36.35-.34.58,0c0,.07.25,0,.38,0a1.64,1.64,0,0,1,.23,0l.55.22.42.14a1.26,1.26,0,0,0-.24.22,2.84,2.84,0,0,0-.21.4,2.12,2.12,0,0,1,.48-.24c.52-.09.52-.08.27-.52.14.11.53-.06.37.36,0,0,.11.07.17.11a.44.44,0,0,0,.08-.15c0-.13,0-.27,0-.45.36.3.66.52,1.11.34.18-.07.44,0,.6,0s.28.16.41.15a9.52,9.52,0,0,0,1-.16c.53-.1,1.07-.19,1.58-.34s.73,0,1.09-.25c.17-.14.62,0,.88-.26,0,0,.09,0,.13,0,.29.23.39,0,.47-.21,0-.09.08-.24.15-.25.48-.11,1-.18,1.46-.26v0l.11.28a1.15,1.15,0,0,1,.19-.14c.59-.28.56-1.13,1.24-1.31a.22.22,0,0,0,.11-.19,2.73,2.73,0,0,1,.95-1.52,1.48,1.48,0,0,0,.45-1.05.54.54,0,0,1,0-.22,5.66,5.66,0,0,0,.56-1.34.89.89,0,0,1,.27-.4c.26-.29.55-.55.81-.84,0-.06,0-.19,0-.28h-.16l-.33,0,.15-.24a.6.6,0,0,0,.06-.11c.08-.62.16-1.24.26-1.87,0-.1.15-.17.22-.27s.18-.3.27-.45l-.41-.08c.09-.81.24-1.66.25-2.5,0-1-.12-2-.18-3.07a1.88,1.88,0,0,1,0-.58c0-.12.16-.22.25-.34l-.31-.11s0-.05,0-.07a6.18,6.18,0,0,0,.1-1.65c-.07-.36.24-.86-.27-1.13,0,0,.06-.22.08-.34a.5.5,0,0,0,0-.21s-.1-.08-.09-.11a2.79,2.79,0,0,0,.12-.67,4.41,4.41,0,0,0-.21-.77c0-.08,0-.2,0-.26a.84.84,0,0,0,0-1l.14.16.12-1c.1,0,.19.09.29.12a.38.38,0,0,0,.21,0,.24.24,0,0,0,0-.15c-.11,0-.22-.13-.32-.12s-.14.12-.21.18a1.28,1.28,0,0,1-.23-.29c0-.07,0-.24,0-.25-.35-.08-.26-.41-.27-.59s-.06-.63.29-.8l.35-.15L47.2,39l-.36,0h0c0-.39.06-.79,0-1.18,0-.1-.17-.3-.21-.29-.57.15-.37-.39-.32-.46.23-.27,0-.41-.15-.57h.32a2.16,2.16,0,0,0-.21-.29s-.14,0-.21,0a.13.13,0,0,1-.11-.08A.12.12,0,0,1,46,36a.17.17,0,0,1,.14,0c.3.09.47-.07.41-.4,0-.11-.09-.22-.13-.34a1.52,1.52,0,0,1-.09-.28,1.3,1.3,0,0,0-.29.22,1.27,1.27,0,0,0-.13.32c.15-.28-.35-.67.15-.93,0,0-.09-.41-.14-.64h0c0-.14-.05-.27-.08-.4l-.24-1-.1-.2-.09-.23a2.28,2.28,0,0,0,0-.52c-.11-.49,0-1.06-.49-1.4a.22.22,0,0,1-.1-.17,3.46,3.46,0,0,0-.3-1.49h0a4.7,4.7,0,0,1-.29-.7c-.06-.2,0-.44-.08-.64s-.3-.53-.4-.82-.12-.6-.21-.89c-.29-.88-.59-1.75-.9-2.63,0-.13-.21-.21-.27-.34-.14-.35-.23-.72-.38-1.07a7.58,7.58,0,0,0-.49-.88h0a1.82,1.82,0,0,0-.14-.52c0-.08-.18-.16-.2-.28a1.46,1.46,0,0,0-.17-.29,1,1,0,0,1-.17-.3c-.07-.37-.52-.53-.53-1,0-.11-.15-.22-.22-.34s-.21-.61-.36-.63c-.44-.06-.24-.33-.31-.54s-.32-.26-.5-.39a.15.15,0,0,1,0,0c-.24-.31-.21-.81-.68-1-.12-.16-.25-.32-.38-.47s-.12,0-.12.06a2.93,2.93,0,0,0,.06.67c0,.06.27,0,.42.05-.11.27-.32.2-.44.06-.32-.35-.39,0-.49.17a.79.79,0,0,0-.05.24c0-.16-.1-.34-.15-.52C37.25,15.14,37.15,15,36.75,15Zm4.92,53,.08.22L42,68c0,.13.08.26.13.39a3.49,3.49,0,0,0,.15.34c.07-.1.18-.18.21-.29a7.05,7.05,0,0,0,.15-.8c0-.06-.08-.12-.12-.18L42,68l-.31,0a.81.81,0,0,0,.08-.25,1.84,1.84,0,0,0,0-.33c-.05,0-.14,0-.15.07a.85.85,0,0,0,0,.35C41.5,67.91,41.61,68,41.67,68Zm1.1-63.2-.13-.37-.12.06.26.3c-.09.08-.25.16-.25.24s.13.2.22.28.18-.07.18-.08S42.82,4.94,42.77,4.8ZM27.15,66.06,27.3,66c-.11-.28,0-.69-.51-.7a.76.76,0,0,1,0-.21c.18-.44.18-.44-.26-.48h-.25c0,.15-.07.35,0,.42a1.89,1.89,0,0,0,.53.27l.32.74-.08.25h.45v-.11ZM40,2.57c-.13.1-.44.15-.1.37l0,.28c.1,0,.26-.06.28-.12a2.45,2.45,0,0,0,0-.55ZM52.51,16.94h.23s0-.07,0-.11l-.23.06v-.37l-.28.12-.33.15.42.09A.76.76,0,0,1,52.51,16.94ZM40.6,16.31l.06.43a.84.84,0,0,0,.3.81s.14,0,.21.06.07-.14,0-.18c-.15-.26-.31-.52-.47-.78l-.15-.34a1.82,1.82,0,0,1-.27-.41c-.1-.32-.25-.29-.46-.14a3.22,3.22,0,0,0,.33.38A2,2,0,0,0,40.6,16.31Zm6.31-6.65c.09-.43-.41-.51-.51-.82a.28.28,0,0,0-.16,0,.14.14,0,0,0,0,.11l.71.68c-.17.5.32.61.55.89,0,0,.09,0,.1,0s.06-.13,0-.14C47.31,10.21,47.39,9.66,46.91,9.66ZM9,59.61l-.1-.12a1.76,1.76,0,0,0-.16-.4c0-.05-.21-.05-.29,0s-.16.19-.13.24a4.38,4.38,0,0,0,.45.75.62.62,0,0,0,.37.14S9.3,60,9.28,60A2.26,2.26,0,0,0,9,59.61Zm3-21.88c.05-.23.1-.45.14-.68a.66.66,0,0,0,0-.23L12,37a.56.56,0,0,0,.05.73,6.46,6.46,0,0,0,0,.88c.07.53.18,1,.27,1.57,0-.2.86,0,.21-.43v0a4.27,4.27,0,0,1-.11-1.36C12.51,37.91,12.22,37.89,12,37.73ZM52.22,66.48a1.88,1.88,0,0,1-.2.67c-.33.44-.71.85-1.07,1.28,0,0,0,.08,0,.13l.64-.47c.14.18.26.4.3.39a4.1,4.1,0,0,0,.54-.3l-.57-.46c0-.08.09-.34.23-.4C52.7,67.08,52.5,66.79,52.22,66.48ZM6,53.72,6,53.63a2.07,2.07,0,0,1-.3-.29c-.15-.25-.26-.53-.41-.78s-.19-.15-.28-.22a1.09,1.09,0,0,0,0,.31,4.55,4.55,0,0,0,.57,1.25,4.48,4.48,0,0,0,.29.58c0,.07.19.06.3.09a.56.56,0,0,1-.07-.18C6.06,54.17,6,53.94,6,53.72Zm8.82,14a3.11,3.11,0,0,0,0,.43,2,2,0,0,0,.19.39c.14-.1.34-.18.41-.32s0-.43-.08-.45c-.4-.12-.26-.43-.27-.69-.22.16-.65,0-.6.44,0,.11,0,.23,0,.34ZM49.24,39c0-.28,0-.55-.37-.42a.8.8,0,0,0-.48.49c0,.22.19.47.32.69a.42.42,0,0,0,.24-.09C49.06,39.43,49.14,39.2,49.24,39ZM3.79,18.15a2.44,2.44,0,0,0-.76.13,1,1,0,0,0-.42.53,2.73,2.73,0,0,0,0,.82ZM29,76.12c.45-.76.45-.92,0-1.49C28.76,75.13,28.17,75.64,29,76.12Zm-15.65-10,.59-.53.21-.2c-.12,0-.25-.06-.34,0-.25.12-.42.14-.52-.18,0,0-.17-.09-.24-.07a4.1,4.1,0,0,0-.41.22s.05.07.08.08C13.06,65.55,13.14,65.9,13.31,66.16Zm18.6,4.27,0,.18a1.13,1.13,0,0,0,.42-.11c.06,0,0-.22,0-.32s-.2-.42.21-.3c0,0,.18-.26.16-.28a4.25,4.25,0,0,0-.47-.37c-.05.14-.11.28-.16.43s0,.1,0,.13c-.32.29-.1.43.28.6ZM6,51c-.15.27-.3.55-.46.82s0,.38.2.36S6,52,6.06,51.9l.06.17c0-.06.13-.11.14-.18C6.35,51.55,6,51.31,6,51ZM54.42,63.44s0-.1-.07-.1-.12,0-.14.07c-.23.39-.47.77-.67,1.18,0,.09,0,.26.05.39a2.5,2.5,0,0,0,.22-.24,1.27,1.27,0,0,0,.24-.33C54.19,64.1,54.3,63.77,54.42,63.44Zm-5,1.77-.07,0-.12.09-.34.27a2.49,2.49,0,0,0,.2-.4c.07-.22.11-.45.16-.68l-.15,0a8.35,8.35,0,0,0-.42,1,1.4,1.4,0,0,0,.06.6s.19.06.21,0C49.1,65.76,49.24,65.48,49.4,65.21ZM16.18,67.89s-.08-.09-.1-.08-.28.12-.34.23c-.16.28-.25.59-.66.59,0,0-.11.13-.13.21s.09.11.14.12C15.44,69,16.19,68.27,16.18,67.89Zm-5.44-5.65-.18-.09c-.06.12-.13.24-.18.37s0,.1.1.12a.89.89,0,0,1,.38.77.74.74,0,0,0,0,.25c.08,0,.18-.08.23-.15a.65.65,0,0,0,0-.81Zm41.89,4.23a2.15,2.15,0,0,0,.46-.3,1.46,1.46,0,0,0,.35-.5,1.28,1.28,0,0,0,0-.48s-.07-.08-.1-.12c-.06.13-.1.26-.16.38s-.14.35-.27.42C52.63,66,52.55,66.22,52.63,66.47ZM8.11,58.75l.41-.18a2.83,2.83,0,0,1-.2-.28c-.08-.14-.14-.29-.22-.43L8,57.65c-.09.06-.26.12-.25.16.06.31.15.61.24.92C8,58.75,8.07,58.74,8.11,58.75Zm-2-5.7.14.19.67-.65s-.09-.15-.16-.17S6.08,52.73,6.07,53.05Zm2.75,8,0,.36c.05,0,.14-.09.14-.13,0-.34.13-.43.44-.45.08,0,.14-.25.21-.39-.12,0-.26-.08-.36,0A.71.71,0,0,0,8.82,61.08Zm-6-12.92.21.28.18-.3a1.17,1.17,0,0,0,0-.11c0-.1.11-.29.08-.3a4.31,4.31,0,0,0-.49-.22c0,.13,0,.27.05.4A1,1,0,0,1,2.83,48.16ZM44,15.42l-.17.05a7,7,0,0,0,.14.8c0,.08.17.13.25.19.06-.13.18-.29.15-.39A3.86,3.86,0,0,0,44,15.42Zm4,16.71-.23-.46c-.11.09-.26.16-.33.28a1.43,1.43,0,0,0-.11.43l.31-.06s.09,0,.1,0C48.11,32.69,48,32.34,48.07,32.13ZM53.48,18.4c-.2-.15-.3-.29-.42-.3a1.07,1.07,0,0,0-.42.15l.26.49ZM49.25,31.92l.34-.24a3.07,3.07,0,0,0-.51-.38s-.2.18-.3.28ZM2.58,47.37c.16,0,.33.05.42,0a.74.74,0,0,0,.26-.4c0-.05-.1-.14-.15-.21C2.92,47,2.5,47,2.58,47.37ZM28.73,74.72a5.25,5.25,0,0,0-.75.1s0,.25,0,.38.07.12.12.18c.13-.11.28-.2.4-.31A2.93,2.93,0,0,0,28.73,74.72ZM33,70.58c.35-.12.49-.41.32-.65s-.23-.12-.35-.17a2.83,2.83,0,0,1,0,.29C33,70.22,33,70.38,33,70.58ZM13,41l.09,0a3.43,3.43,0,0,0-.16-.45s-.16,0-.24,0a1.15,1.15,0,0,1,.06.17c0,.24,0,.49,0,.73a.43.43,0,0,0,0,.23s.13,0,.16,0a.42.42,0,0,0,.11-.22A3,3,0,0,0,13,41Zm30.1-19.79c-.05.08-.12.14-.11.18.08.3.17.59.27.89,0,0,.09.06.1,0s.1-.09.1-.13c-.06-.29-.12-.58-.2-.86C43.21,21.29,43.13,21.27,43.06,21.21ZM14.11,45.49c.16.1.31.25.37.22s.17-.23.26-.35a1.12,1.12,0,0,0-.37-.17C14.31,45.19,14.23,45.35,14.11,45.49ZM4.59,51.76c.45-.18.47-.23.19-.6,0-.08-.17-.11-.26-.16a1.82,1.82,0,0,0,0,.32C4.51,51.47,4.56,51.61,4.59,51.76ZM48.15,70.43c.45-.31.45-.31,0-.61ZM47,36.58c.08-.25.18-.37.16-.48a2.22,2.22,0,0,0-.2-.48c-.06.11-.17.22-.16.33A3.05,3.05,0,0,0,47,36.58ZM14.52,44.66a2.09,2.09,0,0,0-.44-.21s-.18.16-.17.21a1.72,1.72,0,0,0,.22.33ZM49.4,27.37a1.58,1.58,0,0,0-.19.32s.15.19.17.18.24-.18.36-.27Zm-45.26-10s-.07-.11-.09-.1-.33.07-.39.17a1.12,1.12,0,0,0-.06.49s.13.05.15,0ZM34.19,70.88l-.31-.34a1.54,1.54,0,0,0-.17.34c0,.06.13.21.15.2A1.27,1.27,0,0,0,34.19,70.88ZM16.58,15.7l.22.16.41-.62-.16-.11Zm24.77,2.19c0,.21,0,.35.06.48a1.43,1.43,0,0,0,.08.22c.06,0,.16-.07.17-.12a.55.55,0,0,0,0-.36A1.16,1.16,0,0,0,41.35,17.89ZM26.9,3.65c.12-.21.22-.31.23-.42S27,3,26.93,3s-.24.11-.24.18S26.78,3.43,26.9,3.65ZM17.8,53.17a4.35,4.35,0,0,0,.55.07c.06,0,.18-.11.17-.13a2.53,2.53,0,0,0-.2-.36l-.09,0C18.37,53.19,18,53,17.8,53.17ZM2.66,38.46c-.11-.12-.17-.23-.25-.26s-.21.14-.2.16a2.08,2.08,0,0,0,.24.34Zm28.57,28c-.14-.12-.23-.23-.34-.26s-.16.08-.25.13a1.92,1.92,0,0,0,.32.26S31.1,66.54,31.23,66.47ZM18.69,56c0-.18,0-.28,0-.34a2.11,2.11,0,0,0-.32-.35s-.07,0-.11,0,.11.25.18.37A3.05,3.05,0,0,0,18.69,56ZM13.45,41.76c-.06,0-.11-.09-.14-.08l-.5.17.18.3ZM6,14.44l-.55.42.49.1ZM45.68,29.75l-.4-.4s-.07.1-.05.12l.32.48ZM7.53,42.81c-.16-.07-.32-.19-.4-.15-.31.17,0,.28.07.43ZM24.31,74.5l-.19-.31a1.44,1.44,0,0,0-.19.37c0,.07.08.16.13.24ZM2.57,20.26c-.06,0-.15-.1-.16-.09a.75.75,0,0,0-.21.26s.07.12.11.19Zm42.78-4.38a4,4,0,0,0-.39.36.23.23,0,0,0,0,.18c.09,0,.27.06.27,0A3.43,3.43,0,0,0,45.35,15.88ZM28.34,68l.13.07.32-.57C28.18,67.34,28.56,67.87,28.34,68Zm19.25,4.46.11,0,.2-.75-.12,0c0,.12-.08.24-.11.37S47.62,72.32,47.59,72.45ZM28.24,12.93l.27-.51-.15-.07c-.1.16-.18.34-.27.51ZM38.15,2.05l.16.12c.09-.13.19-.25.27-.39s-.06-.08-.09-.12Zm-35,42L3,43.79c-.06.15-.13.3-.18.46s.06.09.09.13Zm1.31,7.83-.15,0c.06.22.11.44.18.65h.11L4.47,52A.68.68,0,0,1,4.45,51.85Zm-2-26.19c-.16-.08-.25-.17-.32-.16s-.14.12-.21.19.12.16.17.15A1.3,1.3,0,0,0,2.47,25.66Zm31.2,42.15.06-.14-.42-.17s-.06.09-.1.13Zm8.84,3.5-.17-.19c-.06.07-.16.14-.17.21s.08.16.12.25ZM39.63,14.86l-.2.6C39.82,15.28,39.82,15.28,39.63,14.86Zm-20,41.22.09,0,0-.47-.25.09Zm-3.79-8.2c-.52.14-.53.15-.3.52ZM47.37,34.11h.13l.11-.45c-.06,0-.17,0-.17,0S47.39,34,47.37,34.11ZM5.21,50.63l.41-.3c-.06,0-.13-.08-.17-.07a2.14,2.14,0,0,0-.32.2ZM47.26,61.38l.06.16.4-.18s0-.11,0-.11ZM33.49,68.66l-.15-.1-.23.37.11.08ZM2.41,46.79l.18.05c0-.14.07-.28.09-.43s-.08,0-.12-.07ZM41.92,4V3.87a1.17,1.17,0,0,0-.2-.06,1.53,1.53,0,0,0-.37,0,.88.88,0,0,0,0,.14l.29,0Zm8.52,24.58c.05-.09.11-.16.1-.2a1.38,1.38,0,0,0-.17-.25s-.14.1-.14.12S50.36,28.4,50.44,28.53Zm-36,36.81c0,.12-.08.18-.07.24s.08.1.13.15.09-.13.09-.19S14.56,65.44,14.48,65.34Zm2.15-15.53-.09.09.28.32s.09-.12.08-.13A3.57,3.57,0,0,0,16.63,49.81ZM25.32,11c-.08-.1-.13-.2-.16-.2a.71.71,0,0,0-.22.13s.08.12.12.13A.78.78,0,0,0,25.32,11Zm12.34,4.14a1.38,1.38,0,0,0-.31-.15s-.1.13-.09.14a.5.5,0,0,0,.2.15S37.54,15.19,37.66,15.11Zm3.63,1,.12,0-.17-.46-.13,0Zm-.5-12.46.14,0L41,3.36a1,1,0,0,0-.15,0C40.85,3.46,40.82,3.57,40.79,3.68ZM14.29,66.94l-.09-.1a1.66,1.66,0,0,0-.3.22s.07.15.11.23Zm9.45-6.42.09-.12-.27-.23s-.07.08-.11.12ZM11.31,61c-.12-.09-.19-.17-.27-.19s-.1.08-.15.12a.76.76,0,0,0,.18.21S11.19,61.11,11.31,61ZM26.12,74.77l.11-.11-.39-.35-.06.06ZM3.39,48.71l-.28-.14s-.09.09-.08.11.12.13.18.2Zm52.24,14.2,0-.1c-.07,0-.14-.1-.2-.09s-.12.09-.17.14ZM27.78,69a1.34,1.34,0,0,0-.22-.18s-.1.08-.15.13a1,1,0,0,0,.19.17S27.7,69.08,27.78,69ZM11.72,35.75l0-.17-.5-.13,0,.12Zm29.6,32.61-.15,0-.13.36c.05,0,.14,0,.15,0A1.79,1.79,0,0,0,41.32,68.36ZM49,66.65l-.11-.13a.69.69,0,0,0-.17.17s.06.1.09.16Zm-10.21,2-.14-.19s-.12.09-.12.14a.48.48,0,0,0,.08.18Zm1.71-.08c-.11-.07-.19-.16-.21-.14a1,1,0,0,0-.18.18s.09.09.12.08A1.41,1.41,0,0,0,40.45,68.6ZM13.85,44.48c.1-.17.17-.26.22-.36S14,44,14,44s-.17.15-.24.23S13.76,44.31,13.85,44.48ZM3.28,46.06l-.06-.15-.4.14,0,.06ZM54.17,25.33h.13l0-.39s-.11,0-.11.05S54.16,25.22,54.17,25.33Zm-30.46-14,.11.05.17-.31a.43.43,0,0,0-.14,0A2,2,0,0,0,23.71,11.35ZM49.32,46.6a1.08,1.08,0,0,0,.15-.22s-.09-.12-.11-.11-.13.1-.2.15Zm-16.25,30,.13.32.18-.18ZM1.6,23.88l.13,0,.05-.39-.1,0Zm42.24-.68-.1,0,.09.33.12,0ZM7.27,50.12A.58.58,0,0,0,7,50s-.09.06-.13.09.09.13.15.14S7.16,50.19,7.27,50.12ZM18.84,12.6l0,.12.3.11s0-.11,0-.12ZM33.6,14.44l.11-.11-.28-.27-.12.12ZM1.49,42.63h.1l0-.33H1.49Zm11.94.95,0,.08.34-.22,0-.07ZM37.51,1.24c0,.13-.07.18-.06.22a.57.57,0,0,0,.11.16s.08-.09.07-.12A1,1,0,0,0,37.51,1.24ZM49,44.36l.23.25.22-.32s0,0-.07,0A2.36,2.36,0,0,0,49,44.36ZM18.22,70.64v-.11H17.9s0,0,0,.1Zm-1-.93,0-.14-.35.14,0,.08Zm10.6-.47v.09s.08,0,.11,0,.08,0,.12-.07Zm7.12-.72a.92.92,0,0,0-.13.19s.09.09.1.08a.84.84,0,0,0,.18-.15Zm.69-54.41v.17l.41-.14v-.07ZM52.75,65.53l.07.06s.09,0,.1-.08a.59.59,0,0,0,0-.19ZM41.65,19.17l.09.08s0-.08,0-.12,0-.11,0-.16Zm.76,1.23.18-.18L42.33,20s-.06.05,0,.07S42.37,20.29,42.41,20.4ZM13.82,64.89c-.05.08-.1.14-.09.15a.46.46,0,0,0,.16.18s.09,0,.14,0ZM42.72,21.7l-.15,0,.11.35.11,0Zm.33.63-.16-.19s-.11.07-.11.11.06.1.1.12S43,22.35,43.05,22.33ZM4.48,23.2l-.31-.14a.88.88,0,0,0,0,.15.19.19,0,0,0,.06.11ZM8.26,59.71s-.06.07,0,.07a.91.91,0,0,0,.11.16s.07,0,.1,0Zm13-2h-.12c0,.1,0,.21,0,.32h.08ZM51.1,28.4l-.23-.25s-.11.09-.1.11a.53.53,0,0,0,.13.2S51,28.43,51.1,28.4Zm-3,27.81.25-.28-.15-.1a.66.66,0,0,0-.12.17S48.13,56.12,48.14,56.21ZM18.75,54.52l-.11,0,.15.33.11,0ZM49.35,32.1l-.09,0a3.4,3.4,0,0,0,.12.34l.11,0ZM7.19,50.92l-.13,0L7,51.22l.13,0ZM43.88,24.66l-.05-.1s-.08,0-.09.07,0,.06,0,.09ZM29.2,68.57a.76.76,0,0,0-.16-.13s-.08,0-.11.08l.14.19Zm15.36-54s-.08-.07-.11-.07-.06,0-.09.08a.54.54,0,0,0,.12.09S44.53,14.61,44.56,14.56ZM58.66,46l-.1-.14s-.11.08-.11.11a.61.61,0,0,0,.09.18ZM19.32,54.61c0-.07-.06-.13-.1-.14s-.1,0-.16,0a1.74,1.74,0,0,0,.1.19ZM38.54,13.94l.19.21a.51.51,0,0,0,.09-.16.2.2,0,0,0-.06-.13A1.19,1.19,0,0,0,38.54,13.94ZM3.63,45.52c-.08-.09-.11-.16-.14-.16a.53.53,0,0,0-.17.08s0,.09.06.09A1.16,1.16,0,0,0,3.63,45.52ZM40.54,2.87l-.12,0,.08.33.07,0Zm-15.45.65.11,0a2.6,2.6,0,0,0,0-.26s-.05,0-.08-.07ZM15,3.41c-.07-.06-.12-.12-.16-.11a.15.15,0,0,0-.11.11s.07.1.11.11S14.92,3.46,15,3.41ZM32.66,70.72l-.12-.13s-.08.08-.07.08a.64.64,0,0,0,.1.13Zm-6.32,2.51c0,.06-.06.12-.05.15a1.12,1.12,0,0,0,.16.13l.1-.13Zm-.23.81L26,74.1l.17.24.1-.06Zm16-69.71c-.06,0-.1-.11-.13-.1s-.11.06-.11.1.06.08.09.12ZM10.09,62l.11,0a2.76,2.76,0,0,0,.08-.27l-.12,0ZM1.58,26.19l0-.09-.34.14,0,.09Zm52.93-.41-.16-.11-.07.07a.6.6,0,0,0,.12.11S54.46,25.81,54.51,25.78Zm1.35,35-.16-.2a.44.44,0,0,0-.08.15s0,.08.07.08A.47.47,0,0,0,55.86,60.8ZM11.53,6.12A.57.57,0,0,0,11.41,6s-.09.07-.08.08a.6.6,0,0,0,.09.13Zm37.7,36.11-.06,0s-.07.07-.07.1a1.15,1.15,0,0,0,.06.17Zm-37.44-8a.82.82,0,0,0,0,.22.12.12,0,0,0,.07.07l.15-.08Zm13.8,39.95-.14-.12a.58.58,0,0,0-.06.17s.06.06.1.09ZM49.31,43.39l-.08,0-.12.25.07,0ZM39,75.4s-.07-.09-.08-.08-.08,0-.09.08,0,.08,0,.12ZM55.08,27.55l.12.07.07,0s0-.1-.05-.1A.39.39,0,0,0,55.08,27.55ZM26.17,4.05l.15-.18c-.05,0-.11-.08-.15-.07s-.07.08-.08.13S26.13,4,26.17,4.05Zm-.58,7.37a1.2,1.2,0,0,0,.06-.17s0,0,0,0l-.12.11Zm-17.81,11c0,.06-.07.1-.06.12s.07.11.1.16.09-.07.08-.08A.75.75,0,0,0,7.78,22.43ZM25.94,11.62l.14-.07a.66.66,0,0,0-.15-.14s-.08,0-.12.05ZM20.62,57h-.06s0,.07,0,.1a1.51,1.51,0,0,0,.1.17Zm-.14-.35-.1-.06-.16.29.09,0ZM47.75,39.34h-.09l0,.28h.11A2.26,2.26,0,0,0,47.75,39.34Zm1.59,30.83.09-.11-.25-.22-.07.08ZM49.08,40l0-.07a.88.88,0,0,0-.12.15s0,.07.06.1ZM33.79,69.91c.07,0,.1.08.14.08s.09,0,.08-.06a.55.55,0,0,0-.08-.15Zm12.06-39.1-.19.12s.09.09.12.08.09-.07.13-.12S45.87,30.84,45.85,30.81ZM1.5,41.31a.39.39,0,0,0-.06.17s0,0,.07.07.08-.09.09-.13S1.55,41.36,1.5,41.31ZM15.43,17.22c-.07-.07-.1-.12-.14-.13s-.1.05-.1.07a.16.16,0,0,0,.07.13S15.34,17.26,15.43,17.22Zm-.51,28.85S15,46,15,46a.31.31,0,0,0-.05-.12s-.08.07-.1.12S14.88,46,14.92,46.07ZM5.83,17c0-.08.08-.13.11-.19s-.06-.05-.07,0l-.14.11ZM16,67.34c-.06,0-.11-.09-.14-.08a.18.18,0,0,0-.09.12s.06.07.1.11ZM3.17,41.74l0-.1-.3-.11,0,.06ZM5.72,16.13c0,.08-.08.13-.07.16a.67.67,0,0,0,.11.14s.12-.09.11-.12S5.8,16.22,5.72,16.13ZM47.35,67.66l.1-.12s-.08-.08-.1-.07a1.31,1.31,0,0,0-.11.12ZM34.1,2.33a1.18,1.18,0,0,0-.07.21s.06.08.09.11.07-.08.07-.12S34.15,2.44,34.1,2.33ZM46.91,35.05l-.09,0-.12.27.09,0ZM17.64,52.22c-.08,0-.13-.08-.16-.07s-.08.07-.12.11.08.08.12.08S17.56,52.29,17.64,52.22ZM28.75,68.38l.13-.15s-.06-.06-.09-.06-.07,0-.09.07S28.72,68.3,28.75,68.38Zm-23.27-53v.08l.21,0s0,0,0-.07ZM44.94,16l0-.08a.27.27,0,0,0-.08.07s0,.05,0,.07Zm7,.12L51.8,16s-.08.05-.08.08a.17.17,0,0,0,.06.11S51.85,16.16,51.92,16.15ZM13.6,66.59l0,.11.06,0a.41.41,0,0,0,.07-.11ZM5.55,14c-.07,0-.11-.08-.13-.07a.13.13,0,0,0-.07.09s.05.07.07.07S5.49,14,5.55,14ZM49.46,45.74l-.11-.13s-.09.09-.09.13.06.08.09.12Zm-.33-32.06a.65.65,0,0,1,0,.1l.12,0s0-.06,0-.07S49.17,13.68,49.13,13.68ZM3.68,46.09a.51.51,0,0,0-.09.12.32.32,0,0,0,0,.13s.07-.07.08-.11A.37.37,0,0,0,3.68,46.09ZM49.25,41.3l0-.12s-.06,0-.07,0a.53.53,0,0,0,0,.13Zm-43.14-28L6,13.36l.07.06.1-.12S6.12,13.26,6.11,13.25ZM42,19.35l.06.08.2-.09s0-.08,0-.08Zm.67,1.48a.51.51,0,0,0,.09-.12.21.21,0,0,0,0-.07s-.09,0-.1.05S42.64,20.76,42.66,20.83ZM2.82,39.2c-.12-.08-.16-.13-.19-.12a.32.32,0,0,0-.15.06ZM50.35,63.27c0,.08-.07.12-.09.17s.06.05.09.07.06-.06.06-.1S50.39,63.34,50.35,63.27ZM55,63.08,55,63s0,.07,0,.11,0,.06,0,.09ZM20.5,12.15l0-.08-.07,0,.05.09Zm6.34-.61.25.13s0-.09,0-.11a.22.22,0,0,0-.13-.08S26.9,11.5,26.84,11.54Zm31.84,37.6-.07.1.07,0,.07-.11Zm-42,22.23c0,.07-.07.1-.06.12a.51.51,0,0,0,.07.15s.07,0,.07-.07A.91.91,0,0,0,16.63,71.37ZM3.35,23c0-.05-.06-.1-.09-.1s-.08,0-.12,0a.54.54,0,0,0,.09.12S3.3,23,3.35,23ZM4.17,45.3s-.08-.06-.11-.06,0,0-.07,0,0,.07.08.08S4.12,45.34,4.17,45.3Zm16.5,27.22.11-.09-.19-.09s0,.06-.06.09ZM23,73l-.08.14s.09.06.1,0a.5.5,0,0,0,.12-.13Zm-6.1-23.44H17a.34.34,0,0,0,.05-.11.75.75,0,0,0-.05-.16Zm-5,13.08.11-.15s-.1-.07-.14-.06-.06.08-.09.12Zm2.43-.46c0-.08,0-.12.05-.18s-.08-.05-.1,0a.2.2,0,0,0-.06.12S14.27,62.15,14.33,62.2Zm30.47-54,0,.06s0,0,.06,0,0,0,0-.06ZM23.9,60.83l-.08-.09a.14.14,0,0,0,0,.06l.07.11ZM48.37,38.56l.17-.08s-.06-.11-.08-.11a.24.24,0,0,0-.13.09S48.35,38.52,48.37,38.56Zm-26,20.72c0,.1-.07.12-.07.15a.28.28,0,0,0,0,.12s.07,0,.07,0A.92.92,0,0,0,22.4,59.28Zm-9.19,0c-.09,0-.13-.06-.16,0s-.07,0-.11.06a.56.56,0,0,0,.12,0ZM2.32,27.46c-.07,0-.12-.08-.13-.07l-.14.15s.07.07.09.06ZM38.64,75.51s-.07-.08-.09-.08-.08,0-.08.08,0,.08.06.08S38.59,75.55,38.64,75.51Zm2.65-72.1a.18.18,0,0,0-.1,0s0,0,0,.06l.1.07ZM53.36,57.17s.1.07.12.06a.34.34,0,0,0,.09-.12L53.49,57A.8.8,0,0,0,53.36,57.17Zm-33.82-.08L19.39,57s0,.08,0,.13a.54.54,0,0,0,0,.1ZM51.6,28.86h-.08a2.36,2.36,0,0,0,0,.28s0,0,.08,0ZM6.47,50.65l-.08-.12a.63.63,0,0,0-.12.11s.05.1.06.1A.55.55,0,0,0,6.47,50.65ZM46.94,31.33s-.09.07-.1.1,0,.07.06.1.09-.05.11-.09S47,31.38,46.94,31.33Zm-8.29-29-.15-.09s0,.06,0,.07a.67.67,0,0,0,.14.09ZM13.09,42.63a.82.82,0,0,0,.05-.17.56.56,0,0,0,0-.12s-.09,0-.09.07S13.05,42.51,13.09,42.63Z" transform="translate(-0.23 -0.27)"/><path d="M19.78,73.87c0,.09,0,.19,0,.26s.13.05.2.07a.84.84,0,0,1-.34.08,3.41,3.41,0,0,1-.62-.19l.13-.22.09.54,0,0c-.19-.18-.36-.41-.68-.27a.93.93,0,0,1-.1-.17l.17,0,.35,0c-.13-.33-.13-.33-.85-.34l.33-.11.27-.08-.28-.42a3.37,3.37,0,0,1,.42.14l.57.26,0,0Z" transform="translate(-0.23 -0.27)"/><path d="M57.72,31.67a3.73,3.73,0,0,0,.16.35.46.46,0,0,0,.18.11s0,0,.07,0a1,1,0,0,1,0,.38,1,1,0,0,1-.25.33.21.21,0,0,1-.2,0,.3.3,0,0,1,0-.18v-.85Z" transform="translate(-0.23 -0.27)"/><path d="M12.8,68.31c-.12,0-.3.08-.34,0a2.45,2.45,0,0,1-.3-.58s.08-.11.13-.17l.53.53Z" transform="translate(-0.23 -0.27)"/><path d="M3.11,50.74c0,.31.07.65-.28.81-.06-.22-.14-.44-.18-.67a1.24,1.24,0,0,1,.1-.35l.14.25.09.14.14-.17Z" transform="translate(-0.23 -0.27)"/><path d="M35.87,76.07c-.08.14-.15.28-.24.41s-.28.34-.42.51c-.05-.18-.11-.36-.16-.54a.3.3,0,0,1,.18-.07c.23,0,.41,0,.38-.28l.27,0Z" transform="translate(-0.23 -0.27)"/><path d="M22,74.7h.17c.28.47-.05.8-.35,1.28Z" transform="translate(-0.23 -0.27)"/><path d="M5.91,57.8c-.3.29,0,.32.17.4a.58.58,0,0,1,.17.14s0,.12-.06.12a.69.69,0,0,1-.29-.07,1.31,1.31,0,0,1-.23-.24l-.2-.24.45-.1Z" transform="translate(-0.23 -0.27)"/><path d="M37,.87l-.13.32a1,1,0,0,0-.08-.25.22.22,0,0,0-.15-.1,1.14,1.14,0,0,0-.32,0c0-.07,0-.19,0-.2a1.26,1.26,0,0,1,.47,0C36.89.63,36.93.78,37,.87Z" transform="translate(-0.23 -0.27)"/><path d="M56.35,24.87l-.46.39c-.07-.1-.22-.25-.19-.28a3.11,3.11,0,0,1,.41-.4Z" transform="translate(-0.23 -0.27)"/><path d="M26.61,76.25l.26-.26a.77.77,0,0,0,0,.3c.14.37-.28.27-.36.45,0,0-.07-.1-.06-.12A2.48,2.48,0,0,1,26.61,76.25Z" transform="translate(-0.23 -0.27)"/><path d="M50.07,71.05c-.26.25-.44.44-.63.6,0,0-.2-.06-.2-.08s0-.28.1-.31A4,4,0,0,1,50.07,71.05Z" transform="translate(-0.23 -0.27)"/><path d="M57.59,33.4l.58-.51,0,.69h0l-.57-.18Z" transform="translate(-0.23 -0.27)"/><path d="M51.76,14.08a1.2,1.2,0,0,1-.24.15,2,2,0,0,1-.27-.4s.09-.12.15-.18Z" transform="translate(-0.23 -0.27)"/><path d="M55,23.06c0-.17,0-.34,0-.51s.06-.13.09-.19.19.14.17.19a3.35,3.35,0,0,1-.19.53Z" transform="translate(-0.23 -0.27)"/><path d="M51.17,15.1,51.06,15a3.91,3.91,0,0,1,.59-.34c.33-.13.2.24.33.33h0C51.68,14.75,51.44,15,51.17,15.1Z" transform="translate(-0.23 -0.27)"/><path d="M5.22,56.16c-.18.06-.28.13-.37.12a.72.72,0,0,1-.28-.16c.09-.08.18-.22.26-.22S5,56,5.22,56.16Z" transform="translate(-0.23 -0.27)"/><path d="M8.8,62c-.07.14-.13.29-.21.42s-.12.08-.17.11a.76.76,0,0,1-.1-.22c.15-.11.32-.21.49-.31Z" transform="translate(-0.23 -0.27)"/><path d="M54.44,21.58l.41-.45.1.35c-.17,0-.29.36-.51.09Z" transform="translate(-0.23 -0.27)"/><path d="M25.85,76.67l-.51.17s0,0,0,0C25.36,76.62,25.37,76.62,25.85,76.67Z" transform="translate(-0.23 -0.27)"/><path d="M7.22,61.24a1.8,1.8,0,0,1-.16-.5c0-.05.14-.11.23-.14s.15,0,.15.06C7.39,60.82,7.33,61,7.22,61.24Z" transform="translate(-0.23 -0.27)"/><path d="M5.52,57.49c-.09,0-.25,0-.25,0,0-.2,0-.41,0-.62a1.51,1.51,0,0,1,.09.18l.17.42Z" transform="translate(-0.23 -0.27)"/><path d="M39.17,76.17l-.4.22.06-.5.35.3Z" transform="translate(-0.23 -0.27)"/><path d="M20.75,74.47l.16.72s-.17,0-.19,0a.54.54,0,0,1,0-.68Z" transform="translate(-0.23 -0.27)"/><path d="M14.84,70.55c-.5.14-.24-.4-.49-.53.46,0,.32.37.47.55Z" transform="translate(-0.23 -0.27)"/><path d="M.44,24.94c.08-.13.12-.29.24-.38s.2,0,0,.17S.62,24.9.56,25Z" transform="translate(-0.23 -0.27)"/><path d="M29.77,76.79c.07-.15.14-.3.22-.44s.1,0,.15.06l-.25.45Z" transform="translate(-0.23 -0.27)"/><path d="M41.8,75.22l.3-.07-.09.34-.21-.27Z" transform="translate(-0.23 -0.27)"/><path d="M54.36,19.62l-.29.47s-.07,0-.1,0l.23-.53Z" transform="translate(-0.23 -0.27)"/><path d="M7.75,61.54a1,1,0,0,0-.1.24c0,.13,0,.26,0,.39H7.59c0-.17,0-.34,0-.51S7.66,61.6,7.75,61.54Z" transform="translate(-0.23 -0.27)"/><path d="M58.59,44l.27,0,0,.47h-.1L58.6,44Z" transform="translate(-0.23 -0.27)"/><path d="M55.13,26.42l-.15.44-.1,0a3.6,3.6,0,0,1,.12-.44Z" transform="translate(-0.23 -0.27)"/><path d="M9,63.49c.07.07.17.14.16.16a1.73,1.73,0,0,1-.19.28c-.06-.06-.19-.14-.18-.18S8.91,63.58,9,63.49Z" transform="translate(-0.23 -0.27)"/><path d="M12.79,4.87l-.13-.41.21,0c0,.14-.06.29-.1.44Z" transform="translate(-0.23 -0.27)"/><path d="M37.36,75.9l.33.21H37.3Z" transform="translate(-0.23 -0.27)"/><path d="M40.75,1.88c-.11.07-.18.14-.2.12a1.37,1.37,0,0,1-.22-.2s.09-.1.12-.09A2.06,2.06,0,0,1,40.75,1.88Z" transform="translate(-0.23 -0.27)"/><path d="M27.5,76.26v.34l-.28-.35v0h.28Z" transform="translate(-0.23 -0.27)"/><path d="M21.59,76.05c-.06,0-.11.1-.16.1a.2.2,0,0,1-.13-.1.75.75,0,0,1,.13-.18Z" transform="translate(-0.23 -0.27)"/><path d="M4.41,55.29c0-.07-.08-.13-.07-.14A1.19,1.19,0,0,1,4.57,55s.08,0,.12.07Z" transform="translate(-0.23 -0.27)"/><path d="M8.63,62.76c.11.33,0,.45-.36.31l.36-.3Z" transform="translate(-0.23 -0.27)"/><path d="M35.93.7s0,0,0-.06,0-.19,0-.28l.15.07-.2.27Z" transform="translate(-0.23 -0.27)"/><path d="M37.27,76.47a.6.6,0,0,1,0,.23s-.1,0-.16.06l0-.3Z" transform="translate(-0.23 -0.27)"/><path d="M1,44.3,1.11,44l.12,0a3,3,0,0,1-.07.32Z" transform="translate(-0.23 -0.27)"/><path d="M14.62,69.45l-.13.24-.13-.25,0,0h.28Z" transform="translate(-0.23 -0.27)"/><path d="M41.78,74.79l.23-.08.07.24Z" transform="translate(-0.23 -0.27)"/><path d="M8.63,62.77c.37-.09.31.1.17.33-.06-.11-.11-.22-.17-.34Z" transform="translate(-0.23 -0.27)"/><path d="M47.9,8.62l.22-.29.11.11-.34.17Z" transform="translate(-0.23 -0.27)"/><path d="M21.46,74.83l-.29.15-.06-.16.3-.09Z" transform="translate(-0.23 -0.27)"/><path d="M57.09,31.62l.33.26-.15.13c-.06-.13-.12-.26-.17-.39Z" transform="translate(-0.23 -0.27)"/><path d="M37.27,76.47h-.11l-.11-.27C37.35,76.34,37.35,76.34,37.27,76.47Z" transform="translate(-0.23 -0.27)"/><path d="M13.67,70.26l-.1-.34.11,0,.13.34Z" transform="translate(-0.23 -0.27)"/><path d="M53.21,16.94h0l.36,0,0,.13-.38-.11Z" transform="translate(-0.23 -0.27)"/><path d="M12.43,5.33l-.28.11C12.29,5.15,12.29,5.15,12.43,5.33Z" transform="translate(-0.23 -0.27)"/><path d="M19.24,74.41l.14.18-.26,0,.1-.19Z" transform="translate(-0.23 -0.27)"/><path d="M50,11.31v-.26l.1.06L50,11.3Z" transform="translate(-0.23 -0.27)"/><path d="M12.47,68.69c-.07,0-.12.09-.14.08s-.1-.1-.16-.14.09-.1.12-.09S12.39,68.62,12.47,68.69Z" transform="translate(-0.23 -0.27)"/><path d="M54.11,18.11l-.15.07s-.06,0-.09,0L54,18Z" transform="translate(-0.23 -0.27)"/><path d="M55.32,65l-.16.27-.06,0,.14-.3Z" transform="translate(-0.23 -0.27)"/><path d="M54.44,21.57l0-.44h.08l-.1.44Z" transform="translate(-0.23 -0.27)"/><path d="M55.74,24c.08.05.15.09.15.12s-.06.09-.1.14-.1-.07-.12-.12S55.71,24,55.74,24Z" transform="translate(-0.23 -0.27)"/><path d="M19.09,1.64l-.19,0L19,1.47Z" transform="translate(-0.23 -0.27)"/><path d="M36.22,76.23l-.09.34-.12,0,.21-.3Z" transform="translate(-0.23 -0.27)"/><path d="M1.2,21.25l.09.27Z" transform="translate(-0.23 -0.27)"/><path d="M5.53,56.88l.16.23a.51.51,0,0,1-.16.09s-.07-.08-.07-.12S5.49,57,5.53,56.88Z" transform="translate(-0.23 -0.27)"/><path d="M17.32,73.39l.39-.09-.34.2Z" transform="translate(-0.23 -0.27)"/><path d="M49.43,10.44v-.29h0l.08.28Z" transform="translate(-0.23 -0.27)"/><path d="M7.72,8.82A.94.94,0,0,1,7.79,9a1,1,0,0,1,0,.16s-.12-.05-.12-.09S7.65,9,7.72,8.82Z" transform="translate(-0.23 -0.27)"/><path d="M6.26,59l-.34-.12a.59.59,0,0,1,.19,0S6.16,58.87,6.26,59Z" transform="translate(-0.23 -0.27)"/><path d="M46.64,7.09l.2-.23.08.12-.29.1Z" transform="translate(-0.23 -0.27)"/><path d="M25.23,75.78a.42.42,0,0,1,.08.17s-.06,0-.09.08a1.1,1.1,0,0,1-.09-.14S25.18,75.84,25.23,75.78Z" transform="translate(-0.23 -0.27)"/><path d="M35.92.7V.92l-.12,0L35.93.7Z" transform="translate(-0.23 -0.27)"/><path d="M54.24,18.81l-.05,0-.09-.09,0-.05Z" transform="translate(-0.23 -0.27)"/><path d="M1,43.42l-.12,0s-.05-.09,0-.13,0-.05.07-.08Z" transform="translate(-0.23 -0.27)"/><path d="M12.64,67.37l-.26,0s0-.07,0-.07l.23,0Z" transform="translate(-0.23 -0.27)"/><path d="M12.8,69.35l0,.06,0-.06a.11.11,0,0,1,0-.08Z" transform="translate(-0.23 -0.27)"/><path d="M13,69.72l.24-.11s-.06.11-.1.15-.08,0-.12,0Z" transform="translate(-0.23 -0.27)"/><path d="M9.72,64c-.05,0-.09.06-.12.05a.94.94,0,0,1-.12-.09s.06,0,.08,0A.59.59,0,0,1,9.72,64Z" transform="translate(-0.23 -0.27)"/><path d="M14.21,70.93l-.06,0s-.05,0-.05-.06a.56.56,0,0,1,0-.12Z" transform="translate(-0.23 -0.27)"/><path d="M8,8.47c.05.09.08.13.07.14A.31.31,0,0,1,8,8.68s0,0,0-.07A.6.6,0,0,1,8,8.47Z" transform="translate(-0.23 -0.27)"/><path d="M47.39,7.4l0,.35-.06-.36Z" transform="translate(-0.23 -0.27)"/><path d="M42.91,74.64s0,.06,0,.08,0,0,0,0a.06.06,0,0,1,0,0A.25.25,0,0,1,42.91,74.64Z" transform="translate(-0.23 -0.27)"/><path d="M43.37,74.67V75l-.09,0,.11-.27Z" transform="translate(-0.23 -0.27)"/><path d="M41.8,75.22l-.36,0h0l.36,0Z" transform="translate(-0.23 -0.27)"/><path d="M43.43,3.92a.31.31,0,0,1-.12.05s0,0-.06-.06a.28.28,0,0,1,.12,0S43.41,3.9,43.43,3.92Z" transform="translate(-0.23 -0.27)"/><path d="M41.51,75.49l-.08.06-.06-.12s.05,0,.06,0A.73.73,0,0,1,41.51,75.49Z" transform="translate(-0.23 -0.27)"/><path d="M40.69,75.68l-.1.08a.22.22,0,0,1-.09-.1s.06-.07.08-.07S40.64,75.64,40.69,75.68Z" transform="translate(-0.23 -0.27)"/><path d="M24.62,75.88l-.14.09,0-.07.14-.1Z" transform="translate(-0.23 -0.27)"/><path d="M5.52,57.49v-.06l.25,0,0,.08Z" transform="translate(-0.23 -0.27)"/><path d="M42.92,3.35l.2-.09v.18l-.19-.09Z" transform="translate(-0.23 -0.27)"/><path d="M57.6,31.41l-.12.2a.43.43,0,0,1,0-.16s.05-.06.08-.1Z" transform="translate(-0.23 -0.27)"/><path d="M31,76.19l.22.27-.08,0c-.05-.1-.09-.21-.14-.31Z" transform="translate(-0.23 -0.27)"/><path d="M45.44,32.66l-.35-.13.36-.42.09.23Z" transform="translate(-0.23 -0.27)"/><path d="M11.87,35.86l.29.16-.3.13Z" transform="translate(-0.23 -0.27)"/><path d="M43.51,6.19l.25.14-.15.12Z" transform="translate(-0.23 -0.27)"/><path d="M9,59.61l-.15.14.05-.26Z" transform="translate(-0.23 -0.27)"/><path d="M15,19.76s0-.08-.06-.09c-.47-.21-.12-.49-.07-.74s.2-.23.39-.12.16.08,0,.3S15.12,19.52,15,19.76Z" transform="translate(-0.23 -0.27)"/><path d="M40.46,19.39a1.62,1.62,0,0,1,.15.55c0,.14-.31.08-.3-.07s0-.31,0-.46Z" transform="translate(-0.23 -0.27)"/><path d="M22.06,57.65c.1.2.1.58.52.28-.06.08-.15.24-.18.23a2.92,2.92,0,0,1-.47-.23l.14-.26Z" transform="translate(-0.23 -0.27)"/><path d="M42.69,64.82c0-.06,0-.13,0-.16l.28-.25.1.14-.29.14a.69.69,0,0,0-.13.11Z" transform="translate(-0.23 -0.27)"/><path d="M27.79,65.08v-.37l.2,0,0,.36Z" transform="translate(-0.23 -0.27)"/><path d="M16.15,17.17a.33.33,0,0,1,0,.17,2.45,2.45,0,0,1-.08.37s-.12,0-.11,0a2.7,2.7,0,0,1,.06-.41s.07-.06.1-.09Z" transform="translate(-0.23 -0.27)"/><path d="M44.23,29.17l.19-.13c0,.07,0,.18,0,.2a1,1,0,0,1-.26.09v-.16Z" transform="translate(-0.23 -0.27)"/><path d="M44.57,28.53c.09.41-.18.27-.38.23h0l.13-.1.24-.14Z" transform="translate(-0.23 -0.27)"/><path d="M16,46.06l-.21.33-.12-.08.2-.31Z" transform="translate(-0.23 -0.27)"/><path d="M22.07,57.67l.23-.37,0,.42-.27-.07Z" transform="translate(-0.23 -0.27)"/><path d="M44.65,29.89l-.28-.15c.05,0,.12-.1.13-.08a.86.86,0,0,1,.2.18Z" transform="translate(-0.23 -0.27)"/><path d="M41.55,20.56c0,.32-.14.42-.52.44l.53-.44Z" transform="translate(-0.23 -0.27)"/><path d="M40,18.56a1.36,1.36,0,0,1-.2.11s-.08,0-.07,0a1.51,1.51,0,0,1,.09-.18Z" transform="translate(-0.23 -0.27)"/><path d="M41.75,22a1.11,1.11,0,0,1,.1.21s0,.07,0,.11-.11-.05-.13-.09S41.71,22.08,41.75,22Z" transform="translate(-0.23 -0.27)"/><path d="M14.86,43.35l.07.33h-.08l0-.33Z" transform="translate(-0.23 -0.27)"/><path d="M45.29,33.15l.1-.29h.07l0,.31Z" transform="translate(-0.23 -0.27)"/><path d="M34.45,15.08l-.14.27-.07,0,.11-.3Z" transform="translate(-0.23 -0.27)"/><path d="M44.87,31.32l.17-.26.07,0c0,.1-.09.2-.14.29Z" transform="translate(-0.23 -0.27)"/><path d="M21.36,56.78l-.32,0h0c0-.09,0-.18,0-.3l.29.25Z" transform="translate(-0.23 -0.27)"/><path d="M43.39,26.81l.16-.25.07,0-.16.25Z" transform="translate(-0.23 -0.27)"/><path d="M44.2,28.77h0c0,.14,0,.27,0,.41h0Z" transform="translate(-0.23 -0.27)"/><path d="M46.61,39.36l.09-.12.14.15s0,0,0,0Z" transform="translate(-0.23 -0.27)"/><path d="M27.17,13.16l-.08-.26c.05,0,.11.06.14.1s0,.09,0,.13Z" transform="translate(-0.23 -0.27)"/><path d="M16.5,47.13c-.15.07-.21.12-.23.11s-.09-.1-.14-.15h.1Z" transform="translate(-0.23 -0.27)"/><path d="M12.09,35.67l.1-.18s.09.09.09.14,0,.09-.09.11S12.13,35.7,12.09,35.67Z" transform="translate(-0.23 -0.27)"/><path d="M19.74,53.26a1,1,0,0,1,0,.21s-.05.06-.08.09-.07-.08-.07-.1A1.23,1.23,0,0,1,19.74,53.26Z" transform="translate(-0.23 -0.27)"/><path d="M36.5,16l.1.1s-.05.08-.09.09-.08,0-.08-.08S36.47,16,36.5,16Z" transform="translate(-0.23 -0.27)"/><path d="M31.73,16.37l-.07.1a.28.28,0,0,1-.07-.09s0-.06.05-.06Z" transform="translate(-0.23 -0.27)"/><path d="M15.64,18.47l-.1-.07s.08-.08.13-.08.08,0,.12.07Z" transform="translate(-0.23 -0.27)"/><path d="M29,13.57l-.26.13,0-.06.28-.08Z" transform="translate(-0.23 -0.27)"/><path d="M47.56,47.33l-.07.13s-.08-.05-.08-.08,0-.07.06-.11Z" transform="translate(-0.23 -0.27)"/><path d="M24.9,12.62s0-.08,0-.09a.41.41,0,0,1,.11-.07s0,0,0,0Z" transform="translate(-0.23 -0.27)"/><path d="M25.33,12.11l.08.25-.08,0v-.27Z" transform="translate(-0.23 -0.27)"/><path d="M42.32,23.51l-.06.09a.29.29,0,0,1,0-.09.56.56,0,0,1,0-.12Z" transform="translate(-0.23 -0.27)"/><path d="M46.84,38.92l-.08.15-.07,0,.17-.09Z" transform="translate(-0.23 -0.27)"/><path d="M42.53,24.24l-.14.11a.24.24,0,0,1,0-.1s0-.08,0-.08A.9.9,0,0,1,42.53,24.24Z" transform="translate(-0.23 -0.27)"/><path d="M43.13,25.44l.15.1s-.06.06-.1.06a.14.14,0,0,1-.1-.07S43.11,25.48,43.13,25.44Z" transform="translate(-0.23 -0.27)"/><path d="M43.9,27.38l0,.12a.55.55,0,0,1-.08-.15s0-.05.08-.08Z" transform="translate(-0.23 -0.27)"/><path d="M22.89,59.23s.08,0,.11,0a.08.08,0,0,1,.06.08.18.18,0,0,1-.06.1Z" transform="translate(-0.23 -0.27)"/><path d="M21.37,56.79l0-.18.09.09-.14.08Z" transform="translate(-0.23 -0.27)"/><path d="M46,33.88l-.17.16-.05-.11.22,0Z" transform="translate(-0.23 -0.27)"/><path d="M39.92,3,40,2.56C40,2.69,40.32,2.91,39.92,3Z" transform="translate(-0.23 -0.27)"/></g></g></svg>