<svg xmlns="http://www.w3.org/2000/svg" viewBox="0 0 49.37 76.6"><defs><style>.cls-1{fill:#e50074}</style></defs><title>xxiv-nine-gala</title><g id="Layer_2" data-name="Layer 2"><g id="Layer_3" data-name="Layer 3"><path d="M8.76,42.11l-.42,0-.11.05c-.26-.35-.25,0-.31.13-.17.31-.31-.11-.47,0l-.07-.06a2.2,2.2,0,0,0,.25-.17.76.76,0,0,0,.21-.18,1.13,1.13,0,0,0,0-.32,2.68,2.68,0,0,1-.3.12,1.68,1.68,0,0,1-.24.06h0l-.29-.3h0v-.19c-.35,0-.53-.18-.69-.43,0,0-.12,0-.18,0h0a6.32,6.32,0,0,0-.64-.72c-.09-.08-.29,0-.44-.06l0-.24.2-.21a1,1,0,0,1-.37-.05c-.09,0-.13-.15-.19-.23l-.09.12c-.09-.19-.15-.5-.31-.57s-.39.16-.63.27l.24-.58-.56.18,0-.05.22-.21c.13-.13.06-.47-.13-.5s-.3-.13-.36-.36A2.48,2.48,0,0,0,2.72,37c-.1-.18-.17-.38-.43-.39,0,0-.07-.27,0-.35s.14-.31-.08-.42c0,0-.05-.09,0-.1a3.83,3.83,0,0,1,.29-.28c0,.07,0,.15,0,.2a.33.33,0,0,0,.16.17c.23,0,.53-.06.37.41-.1.3.29.51.57.36l-.07.58c.13-.15.23-.21.26-.29a1.61,1.61,0,0,0,0-.38l-.21.1c.05-.17.11-.35.15-.52s0-.23,0-.35.09-.24.1-.36a.41.41,0,0,0-.08-.27.27.27,0,0,0-.26,0c-.26.12-.31,0-.29-.22h0c.32-.14.36-.43.09-.74a2.09,2.09,0,0,0-.2-.22c.07-.48.07-.48-.39-.44a2.25,2.25,0,0,0,0-.26c0-.12,0-.23-.05-.35a1.38,1.38,0,0,0-.38.21.49.49,0,0,0-.11.38c0,.07.23.1.35.11s.13-.07.2-.1l.29.54c.1.29-.14.42-.28.59,0,0-.1-.05-.13-.09s-.16-.25-.25-.37l-.44-.52-.32.49h0c0-.17.06-.56-.13-.41-.51.4-.43-.12-.6-.27s-.24.12-.42.22l.12-.33c0-.09.13-.17.13-.26a5.38,5.38,0,0,0-.07-.69c0-.08,0-.17-.05-.26l.3.09c0-.06,0-.13-.05-.14-.54-.09-.5-.49-.5-.88A.58.58,0,0,0,.19,31L0,31.13C0,31,0,31,.08,30.85a.44.44,0,0,0,.06-.25,5.72,5.72,0,0,1,0-1.6,6.88,6.88,0,0,0-.07-.77c0-.14,0-.27,0-.41,0-.41,0-.82,0-1.23,0-.17.08-.33.08-.49,0-.42-.08-.83-.1-1.25a2.49,2.49,0,0,1,.08-1c.13-.25,0-.44.05-.65a2.14,2.14,0,0,1,.2-.4.33.33,0,0,0-.08-.43c-.06-.06,0-.21,0-.37l.35.15,0-.06c-.48-.34-.12-.79-.14-1.19,0-.1.14-.2.17-.32s.11-.34.36-.29A.92.92,0,0,0,1.16,20H1A1.41,1.41,0,0,1,.74,20c.05,0,.13-.06.15-.11A1.71,1.71,0,0,0,1,19.35c0-.16-.09-.35.15-.45,0,0,0-.14-.05-.22s0-.18,0-.26l.17.19.06-.07-.21-.15c.11-.26.15-.6.34-.74s.1-.5.22-.61,0-.62.44-.52a.26.26,0,0,0,0-.09,1.48,1.48,0,0,1,.34-1.16c.24-.37.49-.73.71-1.11,0-.07,0-.18,0-.28s0-.12,0-.13a1.16,1.16,0,0,0,.61-.87s0-.09.05-.1c.49-.12.46-.63.7-.94s.4-.91,1-.94l.06,0c-.13-.42.28-.5.45-.74,0-.06,0-.2,0-.3h0c.07,0,.17,0,.21,0,.29-.23.46-.19.65.14,0,.07.17.16.2.15a1.57,1.57,0,0,0,.4-.32c.1-.11.13-.27.22-.38s.17,0,.26,0h.28a2.11,2.11,0,0,0,0-.25,1.31,1.31,0,0,0,0-.34s-.12,0-.19,0H8a2.24,2.24,0,0,1,.13-.27,1.58,1.58,0,0,1,.22-.23c.1-.09,0-.4.29-.31a.57.57,0,0,0,.12-.28c0-.28.06-.41.34-.51.11,0,.27,0,.18-.21,0,0,.08-.09.11-.09s.18,0,.22-.15L9.77,7c.13-.19.27-.36.39-.54.22-.34.29-.38.74-.54a.36.36,0,0,0,.16-.31c-.14-.24.11-.31.18-.42a2.49,2.49,0,0,1,.53-.43c.14-.09.29-.17.14-.37a1.42,1.42,0,0,1,.2-.12c.18.22.31,0,.41-.08a2.27,2.27,0,0,1,.61-.34c.07,0,.06-.33.1-.54l.18.24-.16-.16a3.52,3.52,0,0,1,.59-.28c.06,0,.17.13.3.24S14,2.72,14.49,3l-.06-.42.08,0,.07.29c.05,0,.1,0,.11-.07.11-.26.11-.26.35-.17a.11.11,0,0,0,.1,0A7.17,7.17,0,0,1,15.66,2c.08-.07.24-.07.36-.11a3.58,3.58,0,0,1,.65-.14c.14.06-.2-.31.16-.12.05,0,.25-.14.32-.25.16-.27.2,0,.21,0l.76-.31.77-.25s.07,0,.1,0c.49.2.61.17,1-.2l.18.26c.13-.16.44.11.52-.23,0-.1.28-.18.44-.2a18,18,0,0,0,1.8-.2,5.32,5.32,0,0,1,1.38,0s.1-.06.15-.09a.32.32,0,0,1,.4-.09c.27.08.7.39,1,0,0,0,.16-.06.23,0,.25,0,.49.21.75,0,0,0,.05.06.08.09L27,.26c.22-.31.35-.08.51.07s.09,0,.14,0-.09-.06-.09-.08.06-.17.09-.17a1.08,1.08,0,0,1,.4.06c.13,0,.25.25.29-.07,0,0,.17,0,.18,0,.14.47.44.23.7.15A1.36,1.36,0,0,0,29.5.13l.11.32c.14-.46.57,0,.82-.23V.45h.16L30.43.23c.21.08.53-.11.63.25.2-.09.44.17.63-.08.07-.09.23-.26.17.07,0,0,0,.06,0,.06a2,2,0,0,1,.49.08c.14.07.22.31.42.08.07-.08.5,0,.61.14s.11.05.11,0c.16-.3.35,0,.46,0s.34.29.43,0c.07,0,.18,0,.19.07.11.36.23.11.41,0l-.06.42c.6-.39,1.06.12,1.59.23l-.11.18.1,0V1.49l.27.19c.08.06.19.16.25.14.39-.11.55.14.72.41.05.08.19.19.25.17.57-.19.71.31.91.61a2.58,2.58,0,0,0,1.29,1c.06,0,.11.18.1.27a2.85,2.85,0,0,1-.11.39c0,.08,0,.22,0,.23a1,1,0,0,0,.38.09,2.11,2.11,0,0,0,.35,0v.09l-.36.18c.12,0,.23.06.26.12a1.61,1.61,0,0,1,.08.38l-.34,0a2.25,2.25,0,0,0-.26,0c-.08,0-.16.29-.23,0a1.48,1.48,0,0,0-.28.08c0,.18-.36.37,0,.54a.08.08,0,0,1,0,.09c-.08.45.23.45.59.46l-.32.53A.78.78,0,0,0,40,7.22s-.15,0-.23,0L40,7.4l.13.06.61-.23.28.32-.2.06,0,.06L41,7.54c.12-.31.25-.61.68-.46h0l.1.36.64-.36s0-.09,0-.14c-.05-.31.09-.4.41-.37s.54,0,.51.39c0,0,.09.08.12.07.2-.06.38-.14.58-.19a1.36,1.36,0,0,1,.35,0,.42.42,0,0,0,.2-.05,1.78,1.78,0,0,0,.27-.21c0,.15,0,.31,0,.46s-.08,0-.07.11.28-.09.39,0,.17.2.27.33c.12,0,.42-.3.24.23,0,.1.21.26.24.4.06.36.23-.13.3.07s-.39.4.15.36c.09,0,.2.43.3.65l.1.18c.08-.06.21-.11.22-.18a2.41,2.41,0,0,0-.07-.35,1.22,1.22,0,0,1,0-.27l.18.12c.09.06.2.09.26.17a2.39,2.39,0,0,1,.15.37,2,2,0,0,0-.22.09c-.17.08-.46.07-.37.41l.22-.14c.24.38.35.09.49-.09a.42.42,0,0,1,.21-.18,4.34,4.34,0,0,1-.14.48c-.07.17-.08.17.13.22s-.1.36.18.16c.09-.06.16-.15.25-.2s.11,0,.08,0c0,.2,0,.39-.07.58s0,.14-.07.14c-.56-.09-.1.24-.17.35l.5-.16.09.09a.64.64,0,0,0-.32.52,1.71,1.71,0,0,1-.13.38c.39,0,.29.35.39.63a1.8,1.8,0,0,1,.08-.39,2.69,2.69,0,0,1,.22-.36A10.6,10.6,0,0,1,49,12.82c0,.23.08.52-.2.67h0l-.12-.11,0,.11h0c0,.06-.06.16,0,.18.21.23.41.43.3.8,0,.06.14.15-.08.16,0,0-.08.2,0,.33l.07-.2a2.09,2.09,0,0,0,.14.17l.06.12a2.36,2.36,0,0,1,.12.28c0,.06,0,.15,0,.19.26.32.06.68.1,1a6.48,6.48,0,0,1-.06.76,1.36,1.36,0,0,0,.14.43l-.26-.13v.13h.26a.76.76,0,0,1-.53,1,3.54,3.54,0,0,0,.14-.33.31.31,0,0,0,0-.19.45.45,0,0,0-.11-.13c0,.06-.11.12-.11.18,0,.36,0,.73,0,1.1s-.06.47-.09.7,0,.5-.06.75c-.12.59-.26,1.17-.38,1.76a11.44,11.44,0,0,1-.36,1.27c-.12.37-.12.77-.21,1.15,0,.13-.18.23-.23.37-.14.38-.25.76-.37,1.14a.54.54,0,0,1-.11.18s-.13,0-.13.06c.06.3-.14.47-.28.67a3.19,3.19,0,0,0-.2.57,3.47,3.47,0,0,1-.33.67c-.06.09-.21.13-.33.21.17.14.16.26,0,.48s-.09.53-.22.75,0,.53,0,.8,0,.65,0,1c0,.08-.11.15-.16.24s-.16.2.07.19c0,0,.07.06.07.1,0,.79,0,1.58,0,2.37,0,.23-.2.48.11.66-.2.23-.14.46,0,.73s0,.34,0,.5c0,.6,0,1.19,0,1.78,0,.29-.05.58-.05.87a1.09,1.09,0,0,0,.13.37c.06.12.19.25-.08.27,0,0-.05.11,0,.17l.18,1.17a.38.38,0,0,1,0,.15,7.32,7.32,0,0,0,0,1.62,4.34,4.34,0,0,1-.11,1.48s0,.13,0,.2l.08-.13a1.36,1.36,0,0,1,0,.17c0,.92,0,1.83,0,2.75,0,.68,0,1.36,0,2,0,.21-.06.43-.06.64s0,.42.05.63a2.92,2.92,0,0,1,0,.83,3.05,3.05,0,0,0,.1,1.53,3.39,3.39,0,0,1-.11,1c0,.2-.08.43,0,.58.18.32-.21.75.19,1a.11.11,0,0,1,0,.11c-.31.37-.07.76-.07,1.15s0,.36-.23.35a1,1,0,0,0,.12-.43,1.33,1.33,0,0,0-.23-.44s-.08,0-.1,0a.11.11,0,0,0,0,.1c.2.29-.08.53-.06.8a.32.32,0,0,0,.12.22s.13,0,.19,0-.13.12-.16.2-.09.3-.06.32c.36.18.25.54.32.83a3.37,3.37,0,0,0-.21-.31.18.18,0,0,0-.11-.08s-.07,0-.06.07c0,.2,0,.4,0,.6.12-.07.24-.14.37-.2s0,0,0,0c.15.17.35.32.07.56,0,0,0,.21,0,.3a.81.81,0,0,1-.17.91c0,.05-.07.21,0,.22.36.2.26.5.18.79a.17.17,0,0,0,0,.07c0,.41,0,.82.05,1.23-.05,0-.11-.09-.15-.08s-.09.08-.1.13,0,.08.07.11l.18-.16c0,.71,0,1.42,0,2.13,0,.21.21.51-.18.62,0,0,0,.09,0,.1.31.11.15.34.13.53,0-.1,0-.21-.05-.31l-.15.06.21.24c0,.12-.23.2,0,.37s0,.24,0,.37c0,.6-.09,1.21-.16,1.82a10.36,10.36,0,0,1-.25,1.76,3.69,3.69,0,0,0,0,.74,6.24,6.24,0,0,1-.16.82.56.56,0,0,0,0,.25v.47c0,.31,0,.61-.09.91s-.12.62-.2.93-.24.25-.46.12a1.13,1.13,0,0,1-.59-.69s-.11,0-.15-.1-.21-.28-.34-.46a.24.24,0,0,1-.14,0c-.12,0-.29,0-.35-.11s.08-.14.16-.18A1.31,1.31,0,0,0,43,73.5c-.19-.1-.4-.3-.55-.27s-.07.28,0,.43v0a3.73,3.73,0,0,1-.56.12,1.43,1.43,0,0,1-.45-.12s0-.14,0-.21l.15.12.07-.11-.18,0-.27-.14-.17.52c-.1,0-.27,0-.31,0a.6.6,0,0,0,0,.38.68.68,0,0,0,.12.22h0l-.09.07-.19.18-.08-.28-.3.46h0c-.15-.07-.16-.43-.44-.22,0,0-.08,0-.08-.05-.06-.25-.1-.49-.15-.75l-.3,0,0-.07.22-.11-.07-.21c.23-.26-.17-.39-.18-.62a2.35,2.35,0,0,1-.17.82c-.19.26-.31.45,0,.7,0,0,0,.1-.07.16l-.19-.1h0s0-.08,0-.1l-.23-.27-.06.4a.44.44,0,0,1-.06.23,4.4,4.4,0,0,1-.46.4s-.11,0-.16,0,0-.09,0-.14,0-.12,0-.18h0a1.06,1.06,0,0,0,0-.35c0-.06-.16-.09-.24-.13s.08-.12.12-.13c.27,0,.34-.2.19-.37s-.15-.53-.18-.81-.33-.37-.12-.65a.84.84,0,0,0,.07-.33,1.34,1.34,0,0,0-.28,1.12c0,.11.28.44-.17.31l0,.27h0c-.13,0-.49-.21-.31.24h0l-.18-.49a.62.62,0,0,1-.11-.17.71.71,0,0,1,0-.21s-.08,0-.08,0-.07.21,0,.27.17,0,.26.07c-.07.12-.15.24-.21.37l-.18.37-.1,0c0-.32-.06-.65-.1-1,0-.07-.08-.13-.12-.2l.12-.31-.09,0,0,.34c-.08-.08-.21-.15-.23-.24a6,6,0,0,1-.07-1c0-.22.06-.44.08-.66s-.06-.14-.09-.21a.88.88,0,0,1-.08-.79c0-.09-.13-.28-.16-.43s0-.53-.08-.8-.08-.28-.11-.43,0-.34-.07-.51l.15,0-.14-.25a.75.75,0,0,1,.1-.2c.17-.19.27-.35-.11-.37l-.07,0c.09-.31-.1-.61.08-1a1.63,1.63,0,0,0-.12-1.51,1.61,1.61,0,0,1-.31-1.25l.31.26c0-.21-.05-.34-.06-.47s.05-.1.06-.15a1.92,1.92,0,0,0,0-.24.65.65,0,0,1-.19,0s-.13,0-.13-.07a5,5,0,0,0,0-.77.91.91,0,0,1,0-.82c.09-.14-.12-.44-.1-.66s-.19-.73.08-1.08c0-.06-.08-.22-.08-.33,0-.63,0-1.25,0-1.88,0-.48-.11-.95-.13-1.43s0-1,0-1.48a2.72,2.72,0,0,1,0-.28c0-.17.09-.32.13-.49s.08-.27,0-.33c-.26-.27-.14-.55-.12-.86s0-.9,0-1.35a3.59,3.59,0,0,1,0-1,2.59,2.59,0,0,0,0-1c0-1,0-2,0-3s0-1.77.09-2.66c0-.41.17-.8.2-1.21a10.36,10.36,0,0,0,0-1.11,1.51,1.51,0,0,0,0-.3c0-.11-.06-.21-.08-.31a4.93,4.93,0,0,0-.54.19c-.15.07-.29.19-.44.28s-.59.32-.9.44-.54.35-.75.41c-.48.13-.77.51-1.16.65a1.3,1.3,0,0,0-.62.47L30,42.84l.14.18c-.23-.07-.42-.11-.56.19-.05.13-.31.16-.47.24l0-.34h-.1l.07.32a1.67,1.67,0,0,1-.12.23,1.31,1.31,0,0,1-.12.11c0-.05,0-.11,0-.16a1.8,1.8,0,0,0-.08-.21l-.17.12a6.31,6.31,0,0,1-.61.55c-.06,0-.21,0-.32-.06l.11-.1a.82.82,0,0,0-.26-.06s-.07.1-.11.15l-.17.42,0-.32-.33.27c-.05,0-.13,0-.19,0a.47.47,0,0,0,0-.16,2.58,2.58,0,0,0,0-.39l-.3.08c0,.11-.24.27.06.34,0,0,.07.16.06.17a3.75,3.75,0,0,1-.44.24c0-.09,0-.19,0-.29a2.47,2.47,0,0,0-.1-.29,1.21,1.21,0,0,0-.38.18c-.06,0-.06.18-.06.27a.82.82,0,0,0,.09.19c-.1,0-.22.11-.29.07a2.36,2.36,0,0,1-.42-.28.27.27,0,0,0-.14-.07.35.35,0,0,0-.13,0,.69.69,0,0,1,.11.13.46.46,0,0,1,.07.07c-.32-.05,0,.3-.2.32l-.16-.14c-.05,0-.1-.12-.15-.12a.26.26,0,0,0-.18.11.21.21,0,0,0,0,.19,2,2,0,0,0,.35.11,3.78,3.78,0,0,1-.65.14s-.09-.29-.14-.47c0,.54-.62.31-.8.66a.1.1,0,0,1-.09,0c-.25-.24-.45-.17-.63.12,0-.18-.07-.37.15-.49,0,0,0-.25-.07-.38l.26,0-.12,0s-.08,0-.13.07c-.25,0-.24.26-.29.45a.79.79,0,0,1-.18.28c0-.09,0-.17,0-.26s-.28-.45-.45-.43-.08,0-.08.06a.14.14,0,0,0,.05.11c.08.06.25.13.25.15-.07.17-.16.34-.25.51-.11-.08-.26-.14-.32-.25a2.37,2.37,0,0,1-.1-.54.76.76,0,0,0-.11.16c-.08.2-.09.48-.23.6s-.21-.21-.39-.26-.18-.24-.29-.33-.24-.18-.27.09c0,0-.23.07-.44.13a1.15,1.15,0,0,1,.2-.24c.22-.13.3-.26.1-.46a.18.18,0,0,1-.06-.1c0-.14.14-.32-.14-.27-.05,0-.06.21-.1.35-.5-.26-.45.42-.77.53.26.19.26.19-.12.61l.07-.21.09-.25h-.07v.27l-.14,0-.33,0c.18-.07-.28-.52.23-.38v-.14l0-.19-.13.06a2.56,2.56,0,0,1-.87,0c-.2-.09-.28,0-.43,0a.31.31,0,0,1-.23,0,1.66,1.66,0,0,1-.21-.16l-.21.31a1.45,1.45,0,0,0-.09.22c0-.09-.12-.17-.12-.26a.79.79,0,0,0-.89-.65s-.1.07-.1.1a.29.29,0,0,0,.08.14l.24.14h0c-.09,0-.24.1-.26.07s-.19-.32-.31-.46-.16-.1-.24-.15l-.22-.18c-.12.07-.32.41-.4-.1a.19.19,0,0,0-.18-.07c-.31.09-.34.07-.46-.25,0-.1-.18-.14-.23-.23s-.18-.43-.3-.71c-.23.36-.22.87-.66,1l.12-.9H12c0,.05-.08.14-.14.15-.22.06-.32.15-.26.4,0,.06-.16.17-.26.23s-.1,0-.15-.07a.33.33,0,0,0,.07-.13c0-.14.08-.28.11-.42a1.25,1.25,0,0,0-.41.15,7.35,7.35,0,0,0-.59.68v-.45c-.36.18-.42,0-.36-.25a.26.26,0,0,0-.07-.13,1.23,1.23,0,0,0-.26.12l.06.13.07.13s-.08.07-.12.06l-.62-.11A.2.2,0,0,1,9,43c0-.15,0-.14.15-.1s.31-.15.44-.22a1.39,1.39,0,0,0-.34-.27,1.7,1.7,0,0,0-.39-.09ZM26.82,7,27,6.82l-.09-.05a2.17,2.17,0,0,1-.07.24l-.2.06,0,.06Zm-6.45.37.3.07,0-.07-.23-.18-.09.19-.15.2.09,0Zm-9.88,25a2.39,2.39,0,0,1-.23.22l.07.07c.05-.06.11-.12.16-.19a.08.08,0,0,0,0-.07l.13,0,0-.06Zm-.74-.49.26.06,0-.12-.27,0a.86.86,0,0,1-.07-.21.74.74,0,0,1,0-.14c-.05,0-.12,0-.14,0a.19.19,0,0,0-.06.15C9.6,31.71,9.68,31.78,9.75,31.86ZM5.13,38.71h.45c-.28-.25-.28-.25-.43,0H5l0,.13ZM24.59,9v.08l-.48.14h0C24,9.16,24,9,23.77,9c0,0-.12-.15-.18-.23l.18-.09L24,8.56a2.36,2.36,0,0,0-.55,0,2,2,0,0,0-.38.16v.42l-.21-.07.2-.13s-.1-.07-.11-.06a.7.7,0,0,0-.13.16h-.14c0-.14-.06-.29-.12-.54a3,3,0,0,0-.11.43c0,.34-.39.17-.52.34,0-.14-.1-.28-.14-.42s0-.18,0-.25-.12,0-.18,0a.89.89,0,0,0,0,.32.41.41,0,0,1-.2.57l-.07-.65h-.14l0,.51-.41.16c-.11-.31-.19,0-.28,0-.37.24-.84.19-1.23.41-.21.13-.53.09-.7.24a8.38,8.38,0,0,1-.91.69,5.31,5.31,0,0,0-.66.48c-.19.18-.35.3-.59.07,0,0-.14,0-.19,0-.28.17,0,.67-.48.74.21.42-.2.32-.34.35s-.37.08-.34.35a.31.31,0,0,1-.09.22c-.23.23-.48.45-.7.69s-.22.34-.35.49-.55.46-.66.74a2.28,2.28,0,0,1-1,1.23c-.14.09-.28.1-.06.26,0,0-.05.31-.07.31-.29,0-.27.22-.35.39s-.29.48-.39.74-.47.26-.37.62c0,.07-.37.13-.1.35l-.16.15s-.12.08-.12.11c.09.39-.19.61-.39.87-.07.08-.16.15-.18.24a1.68,1.68,0,0,1-.47,1.19.6.6,0,0,0-.17.44c.18.56-.24,1-.3,1.51s-.2,1-.25,1.52-.16,1.33-.22,2c0,.07.11.15.18.22a1.3,1.3,0,0,0,.17.08h0c-.13.05-.27.09-.39.15s0,.08,0,.13.08,0,.09,0c.22-.29.18.22.33.11,0,.22.1.44.14.66a2.21,2.21,0,0,0,.14.65,4.25,4.25,0,0,0,.61.67h0l-.23.35-.15.3a1.75,1.75,0,0,0,.46,0c.1,0,.17-.17.25-.26l.14,1.59h.11v-.34c.16.12.4.21.41.33.05.35.24.3.47.23v0c-.18.28-.1.49.21.59a.46.46,0,0,1,.22.72.33.33,0,0,0,0,.22c0,.06.1.1.15.14s0-.15,0-.17a3.11,3.11,0,0,1,.41-.2c0,.17,0,.29.18.09,0,0,.13,0,.13,0a1.51,1.51,0,0,1,0,.47s-.14.09-.21.15-.16.15-.24.22l.55.15a1.84,1.84,0,0,0,0-.33c0-.39.45-.1.48-.39.07,0,.16,0,.19,0a.26.26,0,0,1,0,.2,2.09,2.09,0,0,1,0,.34l-.17.2.05,0,.11-.26c.19,0,.48.29.46-.23,0,.07.07.1.08.13,0,.23-.12.53.28.56l0,.2,0,.29.11,0-.16-.25c.55-.16.67-.07.69.5a.78.78,0,0,0,0,.22,1.15,1.15,0,0,0,.1.23l.18-.25.06.54c.16,0,.31-.09.46-.15s.34-.1.35-.16c0-.41.32-.27.55-.32-.14.14-.34.24-.36.36a2,2,0,0,0,.1.64,1.61,1.61,0,0,0,.18-.52.16.16,0,0,1,.1-.08s.06,0,.08.07l.08.17c.07-.06.18-.11.19-.18a1.31,1.31,0,0,0,0-.39l.3.09c.13,0,.32,0,.36.11.12.27.31.17.5.16s.48.19.7-.06c0,0,0,0,0,.07.06.36.43.3.62.34.35.09.4,0,.54.29l.12-.35c.13.08.25.21.36.2.33,0,.66-.1,1-.15.05,0,.1,0,.16.06a2,2,0,0,0,.61.2c.17,0,.43.1.52-.2.1.07,0,.51.26.12,0,0,.14-.06.16-.05.17.21.28,0,.44,0a1.44,1.44,0,0,1,.54-.08c.12.36.19.08.29,0s.2-.1.22-.08c.23.3.19,0,.25-.1s.14-.11.18-.09.27.12.26-.13c0,0,.09-.06.14-.08s.18-.12.27-.12a.36.36,0,0,0,.44-.32s.05,0,.06,0c.28.26.45-.19.7-.1,0-.28.31-.18.46-.27s.19-.06.27-.11c.44-.3.88-.61,1.33-.9a2.62,2.62,0,0,1,.59-.27c.08,0,.19,0,.29,0h0v.06l0,0c.16-.16.17-.46.45-.54.08,0,.15-.11.19-.18a1.6,1.6,0,0,0,.08-.32l.13.31A.77.77,0,0,0,31,32.7l.12-.15c.17-.21.21-.19.33.15a2.45,2.45,0,0,0,.26-.48s.11-.08.11-.07c.2.24.4-.1.59,0l.06-.3a.18.18,0,0,1,.06-.08c.16,0,.17,0,.23-.17a4.49,4.49,0,0,1,.44-.69s.09-.05.13-.07c.22-.11.54-.15.62-.32s.46-.3.34-.62h0a1,1,0,0,0,.74-.9h.29v-.13l-.27,0c.06-.08.11-.2.18-.21a.45.45,0,0,0,.42-.39s.07,0,.11-.07.15,0,.16,0c.12-.3.23-.6.32-.91.24-.8,0-1.7.49-2.45,0,0,0-.06,0-.07-.34-.22-.07-.5-.05-.74.06-.51.17-1,.26-1.54l.26-.14-.12-.15c0-.32-.15-.68.17-.95,0,0,0-.11-.06-.17s-.08-.1-.08-.15c0-.22.08-.44.12-.67a6.31,6.31,0,0,1,.5-1.69c0-.07,0-.19,0-.28,0-.26,0-.73.12-.74.36-.06.12-.48.4-.54-.15-.37.28-.76,0-1.14,0,0,.05-.11.09-.15A1,1,0,0,0,38.7,15a11.51,11.51,0,0,1,.19-1.33c0-.18-.13-.44.15-.55,0,0,0-.11,0-.13a.51.51,0,0,0-.2,0c-.22.4-.42,0-.63,0l.14-.16-.29.09c-.17,0-.4.05-.11.29,0,0,0,.15,0,.23a.9.9,0,0,1-.08.23,1,1,0,0,0-.07.15.75.75,0,0,1,0-.16c0-.21.18-.57-.32-.51,0-.07.08-.17.11-.17.26,0,.1-.44.4-.36l-.16-.44a.23.23,0,0,0-.07.13c-.09.19-.45.24-.29.55-.1,0-.23.15-.3.13s-.13-.18-.19-.28,0-.05,0-.07c.26-.25.23-.51-.09-.75l.13-.2-.09,0,0,.23-.09.05-.25.21c0-.12,0-.24,0-.37s.05-.08.08-.11a.72.72,0,0,0-.31.12.16.16,0,0,1-.11,0c-.15-.29-.47-.44-.61-.76s-.32-.3-.5-.43a.24.24,0,0,0-.17,0c-.1.33-.39.31-.58.3l.22.74a2.27,2.27,0,0,1-.34-.19.73.73,0,0,1-.19-.27c.31-.25-.06-.29-.13-.42a3.55,3.55,0,0,0-.23-.31l.13.05v-.14l-.2,0c-.08,0-.22,0-.23,0-.12-.32-.27-.09-.35-.06l-.4-.31a1,1,0,0,0-.14.35c0,.38.33-.05.41.17a.92.92,0,0,1-.91,0l.32-.16c-.15-.06-.34,0-.39,0-.25-.28-.4-.11-.56.09,0,0-.14,0-.21,0a.71.71,0,0,0,.07-.16c0-.18.07-.36.11-.56l.22,0a1.16,1.16,0,0,0-.69-.27,3.26,3.26,0,0,0-.78.31l-.08-.64L29.78,9l-.08.06.14.16-.29.27v0c-.21-.08-.39-.17-.38-.45,0-.08-.14-.21-.24-.23s-.28.07-.28.12c0,.56-.53.59-.78.74a4.12,4.12,0,0,0-.32-.26.88.88,0,0,0-.29-.07l.27,0V9.25l-.47-.16.22.29c-.21-.08-.42-.17-.64-.24,0,0-.09.06-.11.1-.09.23-.33.11-.47.2s-.07,0-.07-.07c0-.4-.18-.15-.3-.15l.18.29-.14.06-.27-.73-.41.29c0-.26-.06-.36-.31-.19ZM5,14.56a3.38,3.38,0,0,1,.42-.13s0,.07.08.11l.1-.14-.25-.07a.78.78,0,0,0-.21,0,1.17,1.17,0,0,0-.2.06c0,.07,0,.14.07.22l-.22.18.13.06ZM44.43,7.27c0-.23,0-.51-.43-.15l.44.14c0,.22,0,.44.08.66,0,0,.21,0,.21,0a3.14,3.14,0,0,0,.05-.61A2,2,0,0,0,44.43,7.27ZM4,14.37l0-.17-.1,0,.15.15s0,.1,0,.12a3.48,3.48,0,0,0-.26.3.57.57,0,0,0,.15.16,1.38,1.38,0,0,0,.3-.24,2.83,2.83,0,0,0,.25-.24c.06-.06.18-.13.17-.17A.87.87,0,0,0,4.41,14c-.06.05-.11.11-.18.16A1.84,1.84,0,0,1,4,14.37ZM9.14,29.26c.25-.2,0-.33-.11-.34-.35-.09.2-.3-.07-.37l0,0c0-.09,0-.18,0-.27V27.7l-.17,0a2.22,2.22,0,0,0-.11.56,3.37,3.37,0,0,0,.14.77c0,.07.1.11.16.17l.18.27ZM36.76,60l-.1-.23c-.1,0-.28.1-.28.15a1,1,0,0,1-.28.81.22.22,0,0,0,.06.13c.41.29.22.65.11,1-.05.16-.21.35.14.37a.24.24,0,0,1,.07.16,4.14,4.14,0,0,0-.21.59c0,.08.1.2.18.27s.3.19.15.42a.63.63,0,0,0-.14.44c0,.12.2.32.28.31.29-.06.44-.65.25-.89-.05-.07-.14-.15-.13-.21,0-.46.1-.91.15-1.36,0,0,0-.1,0-.15-.38,0-.22-.29-.23-.44C36.74,60.92,36.76,60.5,36.76,60ZM2.19,32.8a1.55,1.55,0,0,1-.06-.31.43.43,0,0,1,.1-.22s.07-.07.11-.11l-.13-.09c-.09,0-.24-.06-.27-.13-.15-.29-.27-.22-.44,0s-.18.06-.27.07S1.06,32,1,32s-.07.14-.1.21a.7.7,0,0,0,.27.08A1.76,1.76,0,0,1,2.19,32.8Zm42,40.72-.07-.12c-.08-.09-.15-.26-.24-.27a1.06,1.06,0,0,0-.55.1.36.36,0,0,0-.13.33c0,.11.21.19.33.26s.24.16.28.13A3.89,3.89,0,0,0,44.16,73.52ZM36.69,57c0-.15,0-.29,0-.42a1,1,0,0,0-.08-.23c-.05.06-.14.11-.15.17-.06.44-.11.88-.16,1.32,0,0,.06.07.09.11s.06-.07.1-.09C36.77,57.62,36.6,57.26,36.69,57ZM25.34,2.76a1.08,1.08,0,0,0-1.13-.26s-.06,0-.09,0H23.8l.06.27ZM40.83,8.25c.15,0,.25.09.31.06a.66.66,0,0,0,.23-.21.18.18,0,0,0,0-.16c-.23-.26-.45,0-.64.08s-.09.29,0,.42.23.08.35.11l0-.07ZM14.38,43h-.07l-.21.26c-.1-.13-.44.05-.38-.29,0,0-.06-.09-.1-.14a1.31,1.31,0,0,1-.11.12l-.16.16a2,2,0,0,0,.26.24c.19.12.35.5.62.13A1.8,1.8,0,0,0,14.38,43Zm2.13.24s-.09-.1-.11-.09c-.22.12-.43.25-.64.39,0,0,0,.14,0,.16C16,43.81,16.5,43.52,16.51,43.21ZM39.13,5.42c.11.17.17.33.29.4s.22-.11.34-.17a5.46,5.46,0,0,0-.44-.38S39.23,5.35,39.13,5.42ZM37,67a2.79,2.79,0,0,0,.23-.51c0-.09-.06-.2-.09-.3l-.18.14C36.64,66.57,36.77,66.78,37,67Zm1.86-5.83-.16-.41a1.76,1.76,0,0,0-.16.49c0,.11.1.24.16.36ZM2.94,16.33l.07.14c.14-.06.33-.09.39-.2s0-.28,0-.43-.1-.07-.16-.11a.75.75,0,0,0,0,.16C3.19,16.07,3.2,16.27,2.94,16.33ZM38.84,3.27c-.18-.12-.31-.24-.35-.21a1.18,1.18,0,0,0-.3.29c.08.07.17.2.23.19A1.58,1.58,0,0,0,38.84,3.27ZM36.59,55.43a5.18,5.18,0,0,0-.29.6s.06.14.09.21.25-.09.25-.14A3.61,3.61,0,0,0,36.59,55.43ZM3.53,15.54l.25-.26-.23-.22-.23.35Zm.57.27.37-.2c-.08,0-.18-.09-.25-.07a1.93,1.93,0,0,0-.4.15ZM10.91,33c.11.12.19.24.28.34s.14.11.21.17.07-.15,0-.2a.47.47,0,0,0-.19-.18A2.05,2.05,0,0,0,10.91,33ZM9.69,30.77l.09,0,.36-.16-.2-.24ZM11.37,9.93l0,.13c.25-.08.44.39.77,0ZM36.78,59.16h-.07l-.19.3c-.1.16,0,.33.13.22A1.37,1.37,0,0,0,36.78,59.16ZM5.25,38.41,5,37.88C4.84,38.24,4.77,38.45,5.25,38.41ZM15,43.16a.78.78,0,0,0-.21-.09s-.1.09-.09.12a2.09,2.09,0,0,0,.16.29ZM11.85,6.43l-.09.11.31.24.1-.13ZM11.5,9.85l.24-.19s-.09-.11-.11-.1l-.27.17ZM4.17,37.14v-.09A1,1,0,0,0,3.92,37s-.07.05-.11.08a.9.9,0,0,0,.2.14S4.11,37.16,4.17,37.14Zm32-28.25.19-.09-.23-.29-.24.22ZM14.85,11l.09.12.36-.23-.08-.12ZM9.26,30.1l.15,0,.05-.47-.15,0ZM37.41,71c-.06.08-.12.13-.11.16s.07.2.11.3a1,1,0,0,0,.11-.26S37.46,71.1,37.41,71ZM36,61.36l.15.06c0-.13.09-.25.12-.38l-.08,0C36.14,61.12,36.08,61.24,36,61.36Zm.38-12,.11,0V49l-.27.07ZM1.61,31.25l-.08-.05-.31.38C1.66,31.72,1.52,31.38,1.61,31.25ZM39.2,72.71h.14l-.05-.39H39.2Zm-.92-14.45.13.07.2-.37-.13-.07Zm-34-21c-.32.23-.32.23-.12.43ZM.54,27.44a.92.92,0,0,0,.17-.25S.64,27.08.6,27a1.31,1.31,0,0,0-.17.24S.48,27.36.54,27.44Zm12.07-18,.11.07c0-.1.11-.2.15-.3s-.07,0-.1-.07ZM38.52,3.71l-.06.12.41.13,0-.08ZM20.34,9.25l-.1-.06-.2.34.1.06ZM37,68.55l.07.12.33-.2-.05-.1ZM20.64,7.88l.12,0,.13-.29c-.06,0-.16,0-.17,0A1.2,1.2,0,0,0,20.64,7.88ZM18.43,43.77l-.15-.13a.71.71,0,0,0-.12.18s.05.09.07.13ZM48.82,17.19H48.7l.06.44h.06ZM24.23,1.66l0,.11.33-.08s0-.1,0-.09S24.34,1.64,24.23,1.66ZM5.91,39.09l.15-.3s-.09-.06-.11,0a.4.4,0,0,0-.13.16S5.86,39,5.91,39.09Zm30,33.05.09,0a1.12,1.12,0,0,0,.13-.24L36,71.85Zm-.25-2.47-.11.12s.1.1.13.09.09-.08.14-.12ZM24.37,7.24l-.07-.08-.25.25.07.07Zm13.31,12.7h.13l0-.39s-.09,0-.09,0S37.68,19.82,37.68,19.94Zm1.77-5.8h.1l-.09-.33-.09,0ZM11.91,10.38c-.07,0-.14-.05-.16,0a.44.44,0,0,0-.15.18s.06.06.09.1ZM3.05,14.94c-.09,0-.18-.11-.2-.09a.67.67,0,0,0-.14.19s0,.08.06.12ZM25.51,7.88l-.05-.11-.29.14,0,.1ZM18.78,44.3l.12-.07-.25-.32-.08.06Zm30-31.38a.86.86,0,0,0-.21-.13s-.07,0-.11.06.1.13.16.19ZM38.51,60.42l.12,0,0-.29h-.12Zm3.33,12.71H42l0-.32s-.09,0-.09,0S41.84,73,41.84,73.13ZM1.15,29.52l.09.1.24-.2-.11-.09ZM39.71,13l0,.11.31.09,0-.1ZM1.49,26.59l.1-.08-.13-.23s-.11.08-.1.1A2.39,2.39,0,0,0,1.49,26.59ZM39.17,72.11h.11l0-.35H39.2ZM10.9,12V12l-.21,0s0,.05,0,.08ZM35.05,64l-.12-.21s-.1.07-.09.11,0,.13.07.2ZM14.8,11.63l-.15.22s.09.07.11.06a.26.26,0,0,0,.1-.13S14.83,11.71,14.8,11.63Zm-9.64,26,.07,0,.21-.28-.13-.05ZM22.68,8.46l.08.06L23,8.26l-.07-.06ZM38.6,56l.22.17s.09-.08.08-.1a.23.23,0,0,0-.12-.12S38.69,55.94,38.6,56ZM.5,30.82H.61a2.11,2.11,0,0,0,0-.26H.52Zm36,24.26h.08v-.33H36.5ZM22.05,9l.08,0,.1-.28-.1,0C22.1,8.76,22.08,8.86,22.05,9Zm15.27,1.47,0,.08.33.13,0-.07ZM2.25,17.8c0,.08-.08.12-.07.14a1.74,1.74,0,0,0,.11.18s.09-.08.08-.11A.8.8,0,0,0,2.25,17.8ZM23.08,1.49l.1-.05L23,1.15l-.08.05ZM4.79,13.79l.07,0L5,13.54l-.11-.06ZM15.53,4.92c-.06-.07-.08-.13-.11-.13a.61.61,0,0,0-.18,0s0,.1,0,.1A.75.75,0,0,0,15.53,4.92Zm-1.82,7.54-.09-.06-.14.25.06,0ZM11.15,32.08a.55.55,0,0,0-.08.15s0,.07.06.1l.16-.14ZM25.78,9l.06-.05-.18-.22-.06.06ZM10.17,42.77h.11a1.93,1.93,0,0,0,0-.24l-.1,0ZM31.72,10l-.09.1s.07.07.1.08a.31.31,0,0,0,.12-.05ZM12,33.83c0,.06-.06.1,0,.11a.64.64,0,0,0,.1.13l.06-.07A.94.94,0,0,0,12,33.83ZM38.36,56.41l.12,0-.06-.27h-.1ZM6.44,39.77l.07,0,.12-.28-.07,0ZM45.88,8.44c-.07,0-.1-.1-.13-.1a.48.48,0,0,0-.14.05s0,.1.06.11A1.22,1.22,0,0,0,45.88,8.44ZM1.63,20c-.08-.07-.12-.12-.15-.12l-.15.06s0,.09.08.09A.73.73,0,0,0,1.63,20ZM39.08,60.6,39,60.49a.6.6,0,0,0-.11.12s0,.08.06.11Zm-1.95,4.47a1.1,1.1,0,0,0-.2-.11.36.36,0,0,0-.11,0,.68.68,0,0,0,.12.12S37,65.1,37.13,65.07ZM6,11.62l-.08,0-.11.23.08,0ZM38,18.3h-.13l0,.28h0ZM5.57,12.54l0,0s0-.08,0-.1l-.15,0Zm3.92,16.9-.15-.14s-.06.08-.05.09l.14.15ZM1.69,18.59l.05.1L2,18.52l0,0Zm37.39-3.67.14-.06-.09-.1a.34.34,0,0,0-.08.09S39.07,14.9,39.08,14.92Zm1.07-4.7s.06-.07.05-.09a.64.64,0,0,0-.1-.13l-.08.09ZM7.38,39.78h0L7.24,40l.07,0Zm5.72-5.29s-.08,0-.09,0a.49.49,0,0,0-.11.14s0,.06.08.08ZM8.26,40.88c0-.05.08-.08.09-.12s0-.07,0-.1-.07,0-.07.07A.31.31,0,0,0,8.26,40.88ZM28.06,9.12l0,0s0-.09,0-.1l-.18,0ZM45.13,7.91l-.19-.17s-.08.08-.08.11a.18.18,0,0,0,.1.09A.43.43,0,0,0,45.13,7.91ZM.57,27.73l-.06,0-.08.2.09,0ZM12.5,42.17h-.08l0,.3h.07ZM4.1,36l.15-.13s-.06-.08-.09-.08a.28.28,0,0,0-.11.08S4.07,36,4.1,36ZM1,21c-.15,0-.21,0-.22,0a.46.46,0,0,0-.07.16ZM40,7S39.9,7,39.89,7a.43.43,0,0,0-.09.1s0,0,.06.07Zm5.36,62h0v-.27h0ZM4.54,12.66c-.06,0-.1-.08-.13-.08s-.06.05-.09.07,0,.09.08.09S4.47,12.7,4.54,12.66Zm24.4-4.73s-.07-.08-.08-.07a.69.69,0,0,0-.13.11s0,.06.05.06ZM6.22,39.53a.66.66,0,0,0,.07-.15s0-.06-.07-.09l-.12.18ZM27,8.81l0,.07.2-.09v0ZM5.23,12.71l-.09-.08-.2.13.11.11Zm36.53-1.18-.1.07s0,.08.07.09.07,0,.11,0ZM13.14,14.08l-.09.08s0,.07.09.08,0,0,.08-.05ZM35.86,64.44c-.07,0-.1-.09-.14-.1s-.06,0-.1.07.06.08.1.1A.56.56,0,0,0,35.86,64.44ZM23.17,44.76l-.11.06s.06.08.09.09.08,0,.12,0ZM41,61.1c0-.06,0-.09,0-.11s0,0-.08-.06S41,61,41,61,41,61.06,41,61.1ZM40.61,7.58s-.06,0-.07,0,0,0-.07.07.05,0,.06,0Zm.72,3.32.14-.18s-.09-.07-.1-.06a.22.22,0,0,0-.11.12S41.3,10.84,41.33,10.9ZM36,59.41s.08,0,.09-.08,0-.06,0-.1-.07,0-.08.06A.26.26,0,0,0,36,59.41Zm2.62-.63c0-.06,0-.1-.06-.11a.34.34,0,0,0-.14,0s0,.09,0,.1S38.59,58.79,38.66,58.78ZM3.14,29.92h0v.19h.05ZM13,14.61l-.1.08a.27.27,0,0,0,.07.08l.08,0ZM5.3,12.26l0-.06-.15.06s0,0,0,.06ZM38.55,59.55s-.06-.07-.08-.07-.06,0-.09.05,0,.07.08.08S38.51,59.58,38.55,59.55Zm.29-2s0,0,0,0a.29.29,0,0,0,0-.09l0,0A.52.52,0,0,0,38.84,57.5ZM1.63,30.07l-.1,0a.46.46,0,0,0,.07.07l.06,0ZM9.78,8.46l-.12-.09s-.07.08-.06.11.06.07.09.1ZM36.16,54a1.05,1.05,0,0,0,0,.18s0,0,.06,0a.38.38,0,0,0,0-.1S36.2,54,36.16,54Zm0-1.17,0,.06s.06,0,.09,0a.93.93,0,0,0,.13,0Zm9.39,9.36,0-.11s-.05,0-.05.06,0,.07,0,.1ZM20.46,45l-.07-.06s0,.05-.05.09,0,0,0,.07ZM46.29,9.68c.05,0,.1-.07.1-.09a.5.5,0,0,0,0-.13s-.08,0-.09.06S46.27,9.6,46.29,9.68ZM1.62,28.44l-.05-.09s-.08,0-.08,0a.56.56,0,0,0,0,.12Zm-.43-.53c-.05,0-.09-.09-.1-.08a.53.53,0,0,0-.12.1l.08,0ZM6.51,14.38s-.07-.06-.09-.06-.06,0-.09.06.06.06.08.06S6.47,14.41,6.51,14.38Zm-4.84,9,.06,0-.07-.22,0,0ZM20.89,8.86S21,8.8,21,8.77s0,0,0-.08l-.09.06S20.87,8.81,20.89,8.86ZM12.42,42.59c-.05-.05-.08-.09-.12-.1s-.08,0-.07.07a.54.54,0,0,0,.07.13ZM37.64,20.74l-.12-.06s-.05,0-.08.05.06.07.09.07A.41.41,0,0,0,37.64,20.74ZM13.3,8.82a2.33,2.33,0,0,0,.09-.23s0-.05,0-.08a1,1,0,0,0-.11.1S13.25,8.66,13.3,8.82ZM7.74,40.35a.38.38,0,0,0-.13-.08s-.05,0-.05.06a.14.14,0,0,0,.07.08S7.69,40.39,7.74,40.35Zm17-31.89-.08-.06a.09.09,0,0,0,0,.07l.08.06ZM4.56,37.94s0-.07-.08-.07-.05,0-.08,0,0,.07,0,.08S4.51,38,4.56,37.94ZM7,10.2s-.08.05-.08.07,0,.06,0,.08.07,0,.07,0S7,10.25,7,10.2ZM36.68,2.31l.06,0a.41.41,0,0,0-.07-.11l-.06,0ZM4.43,35.71h.05l0-.22h0Zm.13-22.58s-.07-.07-.1-.08l-.09,0s0,.06.08.07S4.5,13.14,4.56,13.13ZM26.09.18,26,.12l0,.05.12.08ZM2.92,16.66c0-.05.06-.08.06-.1s0-.06,0-.08-.06,0-.06.07S2.89,16.61,2.92,16.66Zm1.57-.6c-.06,0-.09-.1-.13-.1s-.07,0-.11.05,0,.08.09.09S4.42,16.08,4.49,16.06Z"/><path d="M41.66,7.08c0-.16.07-.32.1-.48s0-.12,0-.18H41.6l-.29.08a1.25,1.25,0,0,1,0-.54c.06-.18.11-.26-.06-.42s-.11-.38-.16-.58l.54.23c-.09.14.52.35-.05.45-.07,0-.11.19-.14.26l.77.14a.56.56,0,0,0,.25,0,.67.67,0,0,0,.14-.11c.19.29.44,0,.65,0s.33-.18.51,0c.05,0,.17,0,.25,0-.08.09.27.4-.16.31,0,0-.1.06-.15.09s-.23.09-.25-.14a.21.21,0,0,0-.13-.18c-.06,0-.14.06-.21.1s-.14.08-.2.07c-.35,0-.92.33-.94.67s-.13.23-.29.16Z"/><path d="M37.83,74.83c-.37.15-.37.17-.27.47a.29.29,0,0,1-.09.27c-.09.05-.21.29-.34,0h0a1,1,0,0,0,0-.89l.09-.17.15-.16.14.08,0,0,.29.4Z"/><path d="M8,8.71c-.16,0-.32,0-.31.29s-.19.27-.3.4c-.12-.16,0-.88.21-.89s.27.13.4.2Z"/><path d="M37.21,74.54l-.09.17a.87.87,0,0,0-.21.17S37,75,37,75a.42.42,0,0,1-.2-.05.23.23,0,0,1-.06-.18c0-.28.11-.55.17-.82h0c.39.3.22-.14.31-.24h.07l.09.31a1.49,1.49,0,0,0-.29.2.79.79,0,0,0-.09.23Z"/><path d="M42.46,5.11a1.26,1.26,0,0,1,.43,0c.1,0,.18.16.26.24a1,1,0,0,1-.23.17C42.53,5.63,42.55,5.29,42.46,5.11Z"/><path d="M6.2,41.3l.42.09c-.16.24-.3.51-.64.39l.23-.49Z"/><path d="M40.19,74.91c.24.14.31.58.11.71,0,0-.17-.07-.16-.1a6.2,6.2,0,0,1,.06-.62Z"/><path d="M41.31,74.68l.71.07c-.18.43-.46.14-.7.06Z"/><path d="M1.52,34.1a2,2,0,0,1-.08.35c0,.06-.12.13-.16.12-.29-.09,0-.29-.08-.43l.32,0Z"/><path d="M5.41,40.87v-.49a.52.52,0,0,1,.13.06C5.63,40.58,5.81,40.73,5.41,40.87Z"/><path d="M42.52,74.4c0,.2,0,.41.07.62,0,0-.11,0-.13,0s-.09-.11-.08-.16a3.35,3.35,0,0,1,.07-.44Z"/><path d="M3.14,34.87a2.29,2.29,0,0,1-.23.17.38.38,0,0,1-.19.05S2.64,35,2.65,35s.08-.14.12-.14a2.4,2.4,0,0,1,.37,0Z"/><path d="M40.84,74.48c0,.15.1.3.14.46s0,.11-.06.16-.15-.12-.15-.18a3.35,3.35,0,0,1,.07-.44Z"/><path d="M2.68,37.64a1,1,0,0,1-.14.21s-.12,0-.14,0a.64.64,0,0,1-.1-.18l.16,0Z"/><path d="M9.93,43.38l-.27.24-.1-.13.29-.21Z"/><path d="M7.06,41.46l0,.34-.29,0a.47.47,0,0,1-.09-.06l.35-.25Z"/><path d="M41,76.56l.16-.47.09,0-.18.49Z"/><path d="M42.19,74.07c.06.11.11.15.1.17s-.08.17-.11.25-.06-.08-.06-.12A2.75,2.75,0,0,1,42.19,74.07Z"/><path d="M2.68,37.64s0,0,0-.07l-.15-.25.13,0c0,.11,0,.22.05.34Z"/><path d="M6.19,40.9c-.13,0-.28.11-.39.08s0-.18.19-.14l.2.06Z"/><path d="M8.76,42.11l.08.22-.27-.08Z"/><path d="M8.51,42.67l.31.25L8.74,43l-.23-.34Z"/><path d="M14.6,44.6l-.12.27-.06,0a2.29,2.29,0,0,1,.08-.28Z"/><path d="M37.13,75.6l-.06.34c0-.12-.32-.33.07-.34Z"/><path d="M6.34,42.29l-.1.26s-.06,0-.06,0l.08-.24Z"/><path d="M7.38,42.25l.07.06-.12.14-.08-.24Z"/><path d="M13.79,44.25c-.1,0-.14.09-.17.08s-.1,0-.1-.08.06-.12.08-.11A.84.84,0,0,1,13.79,44.25Z"/><path d="M41.34,74.36l-.1-.21a.69.69,0,0,1,.15.07s0,.07,0,.1Z"/><path d="M49.11,19.24l-.12.09-.06-.08.13-.07Z"/><path d="M48.75,13.49l.12.29-.07,0-.19-.33h.14Z"/><path d="M5,40.48l-.05-.23H5l.06.22Z"/><path d="M48.6,10.9l-.09-.09.22-.1Z"/><path d="M5.66,41.18l.08.13-.07,0-.1-.1Z"/><path d="M8.51,42.66l0,0-.23,0,0-.09.22.15Z"/><path d="M7.35,41.76l-.15.29-.1,0,.25-.24Z"/><path d="M40.68,6.58l-.17.13,0-.09.2,0Z"/><path d="M40.68,6.58l0-.22h.05l0,.22Z"/><path d="M43.35,5l.12.23a.29.29,0,0,1-.13-.08S43.35,5.11,43.35,5Z"/><path d="M15.26,44.62l.1-.14.07.15-.17,0Z"/><path d="M38.71,74.49l0,.3h-.1l.07-.3Z"/><path d="M3.25,35.78l.2.17-.14,0A.77.77,0,0,1,3.25,35.78Z"/><path d="M6.06,9.82l.13-.2,0,.06-.19.13Z"/><path d="M31.11,42.86l-.15,0s0-.05,0-.07l.17.07Z"/><path d="M5.65,42.08,5.57,42s0,0,.07,0l.09,0Z"/><path d="M1.81,34.59a1.05,1.05,0,0,1,0-.13.22.22,0,0,1,.05-.08.5.5,0,0,1,.08.12Z"/><path d="M6.21,41.29l-.06-.24h.1a2,2,0,0,1,0,.24Z"/><path d="M48.83,11.53l-.08.1s0,0-.06-.07a.27.27,0,0,1,0-.09Z"/><path d="M43.59,74.62c-.08,0-.1.08-.12.08l-.15,0s0-.05.08-.06A1.11,1.11,0,0,1,43.59,74.62Z"/><path d="M2,37s0,0,0,0l0,0s0,0,0,0Z"/><path d="M1.91,36.78c-.06,0-.09.06-.11,0a.44.44,0,0,1-.11-.09s0-.06.05-.06Z"/><path d="M24.59,9l.45.11-.45,0Z"/><path d="M9.05,27.23l.15,0v.1l-.15-.08Z"/><path d="M37.36,74.38v-.32l.14.4Z"/><path d="M35.4,11.67l.43.21-.16.31s-.11,0-.13-.08A2.9,2.9,0,0,1,35.4,11.67Z"/><path d="M29.08,9.28l-.38.53-.12-.08.36-.53Z"/><path d="M11.42,31.74l.17-.39h.1l-.07.41-.21,0Z"/><path d="M36.21,12.52l.09-.42c.06.06.16.12.15.17a1.35,1.35,0,0,1-.14.3Z"/><path d="M29.55,9.5c0,.29-.18.21-.36.17l.37-.15Z"/><path d="M15.2,35l.18.2s-.08.06-.11.06a1,1,0,0,1-.17-.1Z"/><path d="M15.84,35.15l.23.05,0,.13-.22-.09Z"/><path d="M14.31,33.65l.11.12-.13.11s-.09-.07-.08-.1S14.26,33.7,14.31,33.65Z"/><path d="M34.65,11.15l0,.25-.06,0-.09-.24Z"/><path d="M30.61,10.08l.18.21-.09.08-.17-.23Z"/><path d="M10,29.59l.19-.16,0,.09-.23.07Z"/><path d="M11.12,31.45c0-.09,0-.13,0-.17s.06,0,.07,0a.41.41,0,0,1,0,.09S11.16,31.39,11.12,31.45Z"/><path d="M24.11,9.26,24,9.43l-.06-.08.21-.09Z"/><path d="M11,30.78s-.09.06-.09,0a.26.26,0,0,1-.07-.11s0-.06.07-.09Z"/><path d="M34.33,29.91l-.15-.05.08-.12.06.18Z"/><path d="M37.14,22.21l-.14.12Z"/><path d="M30.06,33.53l0-.31h.09l-.06.31Z"/><path d="M37.29,73.77l.17-.15,0,.13h-.2Z"/><path d="M8.76,42.11l-.42,0-.11.05c-.26-.35-.25,0-.31.13-.17.31-.31-.11-.47,0l-.07-.06a2.2,2.2,0,0,0,.25-.17.76.76,0,0,0,.21-.18,1.13,1.13,0,0,0,0-.32,2.68,2.68,0,0,1-.3.12,1.68,1.68,0,0,1-.24.06h0l-.29-.3h0v-.19c-.35,0-.53-.18-.69-.43,0,0-.12,0-.18,0h0a6.32,6.32,0,0,0-.64-.72c-.09-.08-.29,0-.44-.06l0-.24.2-.21a1,1,0,0,1-.37-.05c-.09,0-.13-.15-.19-.23l-.09.12c-.09-.19-.15-.5-.31-.57s-.39.16-.63.27l.24-.58-.56.18,0-.05.22-.21c.13-.13.06-.47-.13-.5s-.3-.13-.36-.36A2.48,2.48,0,0,0,2.72,37c-.1-.18-.17-.38-.43-.39,0,0-.07-.27,0-.35s.14-.31-.08-.42c0,0-.05-.09,0-.1a3.83,3.83,0,0,1,.29-.28c0,.07,0,.15,0,.2a.33.33,0,0,0,.16.17c.23,0,.53-.06.37.41-.1.3.29.51.57.36l-.07.58c.13-.15.23-.21.26-.29a1.61,1.61,0,0,0,0-.38l-.21.1c.05-.17.11-.35.15-.52s0-.23,0-.35.09-.24.1-.36a.41.41,0,0,0-.08-.27.27.27,0,0,0-.26,0c-.26.12-.31,0-.29-.22h0c.32-.14.36-.43.09-.74a2.09,2.09,0,0,0-.2-.22c.07-.48.07-.48-.39-.44a2.25,2.25,0,0,0,0-.26c0-.12,0-.23-.05-.35a1.38,1.38,0,0,0-.38.21.49.49,0,0,0-.11.38c0,.07.23.1.35.11s.13-.07.2-.1l.29.54c.1.29-.14.42-.28.59,0,0-.1-.05-.13-.09s-.16-.25-.25-.37l-.44-.52-.32.49h0c0-.17.06-.56-.13-.41-.51.4-.43-.12-.6-.27s-.24.12-.42.22l.12-.33c0-.09.13-.17.13-.26a5.38,5.38,0,0,0-.07-.69c0-.08,0-.17-.05-.26l.3.09c0-.06,0-.13-.05-.14-.54-.09-.5-.49-.5-.88A.58.58,0,0,0,.19,31L0,31.13C0,31,0,31,.08,30.85a.44.44,0,0,0,.06-.25,5.72,5.72,0,0,1,0-1.6,6.88,6.88,0,0,0-.07-.77c0-.14,0-.27,0-.41,0-.41,0-.82,0-1.23,0-.17.08-.33.08-.49,0-.42-.08-.83-.1-1.25a2.49,2.49,0,0,1,.08-1c.13-.25,0-.44.05-.65a2.14,2.14,0,0,1,.2-.4.33.33,0,0,0-.08-.43c-.06-.06,0-.21,0-.37l.35.15,0-.06c-.48-.34-.12-.79-.14-1.19,0-.1.14-.2.17-.32s.11-.34.36-.29A.92.92,0,0,0,1.16,20H1A1.41,1.41,0,0,1,.74,20c.05,0,.13-.06.15-.11A1.71,1.71,0,0,0,1,19.35c0-.16-.09-.35.15-.45,0,0,0-.14-.05-.22s0-.18,0-.26l.17.19.06-.07-.21-.15c.11-.26.15-.6.34-.74s.1-.5.22-.61,0-.62.44-.52a.26.26,0,0,0,0-.09,1.48,1.48,0,0,1,.34-1.16c.24-.37.49-.73.71-1.11,0-.07,0-.18,0-.28s0-.12,0-.13a1.16,1.16,0,0,0,.61-.87s0-.09.05-.1c.49-.12.46-.63.7-.94s.4-.91,1-.94l.06,0c-.13-.42.28-.5.45-.74,0-.06,0-.2,0-.3h0c.07,0,.17,0,.21,0,.29-.23.46-.19.65.14,0,.07.17.16.2.15a1.57,1.57,0,0,0,.4-.32c.1-.11.13-.27.22-.38s.17,0,.26,0h.28a2.11,2.11,0,0,0,0-.25,1.31,1.31,0,0,0,0-.34s-.12,0-.19,0H8a2.24,2.24,0,0,1,.13-.27,1.58,1.58,0,0,1,.22-.23c.1-.09,0-.4.29-.31a.57.57,0,0,0,.12-.28c0-.28.06-.41.34-.51.11,0,.27,0,.18-.21,0,0,.08-.09.11-.09s.18,0,.22-.15L9.77,7c.13-.19.27-.36.39-.54.22-.34.29-.38.74-.54a.36.36,0,0,0,.16-.31c-.14-.24.11-.31.18-.42a2.49,2.49,0,0,1,.53-.43c.14-.09.29-.17.14-.37a1.42,1.42,0,0,1,.2-.12c.18.22.31,0,.41-.08a2.27,2.27,0,0,1,.61-.34c.07,0,.06-.33.1-.54l.18.24-.16-.16a3.52,3.52,0,0,1,.59-.28c.06,0,.17.13.3.24S14,2.72,14.49,3l-.06-.42.08,0,.07.29c.05,0,.1,0,.11-.07.11-.26.11-.26.35-.17a.11.11,0,0,0,.1,0A7.17,7.17,0,0,1,15.66,2c.08-.07.24-.07.36-.11a3.58,3.58,0,0,1,.65-.14c.14.06-.2-.31.16-.12.05,0,.25-.14.32-.25.16-.27.2,0,.21,0l.76-.31.77-.25s.07,0,.1,0c.49.2.61.17,1-.2l.18.26c.13-.16.44.11.52-.23,0-.1.28-.18.44-.2a18,18,0,0,0,1.8-.2,5.32,5.32,0,0,1,1.38,0s.1-.06.15-.09a.32.32,0,0,1,.4-.09c.27.08.7.39,1,0,0,0,.16-.06.23,0,.25,0,.49.21.75,0,0,0,.05.06.08.09L27,.26c.22-.31.35-.08.51.07s.09,0,.14,0-.09-.06-.09-.08.06-.17.09-.17a1.08,1.08,0,0,1,.4.06c.13,0,.25.25.29-.07,0,0,.17,0,.18,0,.14.47.44.23.7.15A1.36,1.36,0,0,0,29.5.13l.11.32c.14-.46.57,0,.82-.23V.45h.16L30.43.23c.21.08.53-.11.63.25.2-.09.44.17.63-.08.07-.09.23-.26.17.07,0,0,0,.06,0,.06a2,2,0,0,1,.49.08c.14.07.22.31.42.08.07-.08.5,0,.61.14s.11.05.11,0c.16-.3.35,0,.46,0s.34.29.43,0c.07,0,.18,0,.19.07.11.36.23.11.41,0l-.06.42c.6-.39,1.06.12,1.59.23l-.11.18.1,0V1.49l.27.19c.08.06.19.16.25.14.39-.11.55.14.72.41.05.08.19.19.25.17.57-.19.71.31.91.61a2.58,2.58,0,0,0,1.29,1c.06,0,.11.18.1.27a2.85,2.85,0,0,1-.11.39c0,.08,0,.22,0,.23a1,1,0,0,0,.38.09,2.11,2.11,0,0,0,.35,0v.09l-.36.18c.12,0,.23.06.26.12a1.61,1.61,0,0,1,.08.38l-.34,0a2.25,2.25,0,0,0-.26,0c-.08,0-.16.29-.23,0a1.48,1.48,0,0,0-.28.08c0,.18-.36.37,0,.54a.08.08,0,0,1,0,.09c-.08.45.23.45.59.46l-.32.53A.78.78,0,0,0,40,7.22s-.15,0-.23,0L40,7.4l.13.06.61-.23.28.32-.2.06,0,.06L41,7.54c.12-.31.25-.61.68-.46h0l.1.36.64-.36s0-.09,0-.14c-.05-.31.09-.4.41-.37s.54,0,.51.39c0,0,.09.08.12.07.2-.06.38-.14.58-.19a1.36,1.36,0,0,1,.35,0,.42.42,0,0,0,.2-.05,1.78,1.78,0,0,0,.27-.21c0,.15,0,.31,0,.46s-.08,0-.07.11.28-.09.39,0,.17.2.27.33c.12,0,.42-.3.24.23,0,.1.21.26.24.4.06.36.23-.13.3.07s-.39.4.15.36c.09,0,.2.43.3.65l.1.18c.08-.06.21-.11.22-.18a2.41,2.41,0,0,0-.07-.35,1.22,1.22,0,0,1,0-.27l.18.12c.09.06.2.09.26.17a2.39,2.39,0,0,1,.15.37,2,2,0,0,0-.22.09c-.17.08-.46.07-.37.41l.22-.14c.24.38.35.09.49-.09a.42.42,0,0,1,.21-.18,4.34,4.34,0,0,1-.14.48c-.07.17-.08.17.13.22s-.1.36.18.16c.09-.06.16-.15.25-.2s.11,0,.08,0c0,.2,0,.39-.07.58s0,.14-.07.14c-.56-.09-.1.24-.17.35l.5-.16.09.09a.64.64,0,0,0-.32.52,1.71,1.71,0,0,1-.13.38c.39,0,.29.35.39.63a1.8,1.8,0,0,1,.08-.39,2.69,2.69,0,0,1,.22-.36A10.6,10.6,0,0,1,49,12.82c0,.23.08.52-.2.67h0l-.12-.11,0,.11h0c0,.06-.06.16,0,.18.21.23.41.43.3.8,0,.06.14.15-.08.16,0,0-.08.2,0,.33l.07-.2a2.09,2.09,0,0,0,.14.17l.06.12a2.36,2.36,0,0,1,.12.28c0,.06,0,.15,0,.19.26.32.06.68.1,1a6.48,6.48,0,0,1-.06.76,1.36,1.36,0,0,0,.14.43l-.26-.13v.13h.26a.76.76,0,0,1-.53,1,3.54,3.54,0,0,0,.14-.33.31.31,0,0,0,0-.19.45.45,0,0,0-.11-.13c0,.06-.11.12-.11.18,0,.36,0,.73,0,1.1s-.06.47-.09.7,0,.5-.06.75c-.12.59-.26,1.17-.38,1.76a11.44,11.44,0,0,1-.36,1.27c-.12.37-.12.77-.21,1.15,0,.13-.18.23-.23.37-.14.38-.25.76-.37,1.14a.54.54,0,0,1-.11.18s-.13,0-.13.06c.06.3-.14.47-.28.67a3.19,3.19,0,0,0-.2.57,3.47,3.47,0,0,1-.33.67c-.06.09-.21.13-.33.21.17.14.16.26,0,.48s-.09.53-.22.75,0,.53,0,.8,0,.65,0,1c0,.08-.11.15-.16.24s-.16.2.07.19c0,0,.07.06.07.1,0,.79,0,1.58,0,2.37,0,.23-.2.48.11.66-.2.23-.14.46,0,.73s0,.34,0,.5c0,.6,0,1.19,0,1.78,0,.29-.05.58-.05.87a1.09,1.09,0,0,0,.13.37c.06.12.19.25-.08.27,0,0-.05.11,0,.17l.18,1.17a.38.38,0,0,1,0,.15,7.32,7.32,0,0,0,0,1.62,4.34,4.34,0,0,1-.11,1.48s0,.13,0,.2l.08-.13a1.36,1.36,0,0,1,0,.17c0,.92,0,1.83,0,2.75,0,.68,0,1.36,0,2,0,.21-.06.43-.06.64s0,.42.05.63a2.92,2.92,0,0,1,0,.83,3.05,3.05,0,0,0,.1,1.53,3.39,3.39,0,0,1-.11,1c0,.2-.08.43,0,.58.18.32-.21.75.19,1a.11.11,0,0,1,0,.11c-.31.37-.07.76-.07,1.15s0,.36-.23.35a1,1,0,0,0,.12-.43,1.33,1.33,0,0,0-.23-.44s-.08,0-.1,0a.11.11,0,0,0,0,.1c.2.29-.08.53-.06.8a.32.32,0,0,0,.12.22s.13,0,.19,0-.13.12-.16.2-.09.3-.06.32c.36.18.25.54.32.83a3.37,3.37,0,0,0-.21-.31.18.18,0,0,0-.11-.08s-.07,0-.06.07c0,.2,0,.4,0,.6.12-.07.24-.14.37-.2s0,0,0,0c.15.17.35.32.07.56,0,0,0,.21,0,.3a.81.81,0,0,1-.17.91c0,.05-.07.21,0,.22.36.2.26.5.18.79a.17.17,0,0,0,0,.07c0,.41,0,.82.05,1.23-.05,0-.11-.09-.15-.08s-.09.08-.1.13,0,.08.07.11l.18-.16c0,.71,0,1.42,0,2.13,0,.21.21.51-.18.62,0,0,0,.09,0,.1.31.11.15.34.13.53,0-.1,0-.21-.05-.31l-.15.06.21.24c0,.12-.23.2,0,.37s0,.24,0,.37c0,.6-.09,1.21-.16,1.82a10.36,10.36,0,0,1-.25,1.76,3.69,3.69,0,0,0,0,.74,6.24,6.24,0,0,1-.16.82.56.56,0,0,0,0,.25v.47c0,.31,0,.61-.09.91s-.12.62-.2.93-.24.25-.46.12a1.13,1.13,0,0,1-.59-.69s-.11,0-.15-.1-.21-.28-.34-.46a.24.24,0,0,1-.14,0c-.12,0-.29,0-.35-.11s.08-.14.16-.18A1.31,1.31,0,0,0,43,73.5c-.19-.1-.4-.3-.55-.27s-.07.28,0,.43v0a3.73,3.73,0,0,1-.56.12,1.43,1.43,0,0,1-.45-.12s0-.14,0-.21l.15.12.07-.11-.18,0-.27-.14-.17.52c-.1,0-.27,0-.31,0a.6.6,0,0,0,0,.38.68.68,0,0,0,.12.22h0l-.09.07-.19.18-.08-.28-.3.46h0c-.15-.07-.16-.43-.44-.22,0,0-.08,0-.08-.05-.06-.25-.1-.49-.15-.75l-.3,0,0-.07.22-.11-.07-.21c.23-.26-.17-.39-.18-.62a2.35,2.35,0,0,1-.17.82c-.19.26-.31.45,0,.7,0,0,0,.1-.07.16l-.19-.1h0s0-.08,0-.1l-.23-.27-.06.4a.44.44,0,0,1-.06.23,4.4,4.4,0,0,1-.46.4s-.11,0-.16,0,0-.09,0-.14,0-.12,0-.18h0a1.06,1.06,0,0,0,0-.35c0-.06-.16-.09-.24-.13s.08-.12.12-.13c.27,0,.34-.2.19-.37s-.15-.53-.18-.81-.33-.37-.12-.65a.84.84,0,0,0,.07-.33,1.34,1.34,0,0,0-.28,1.12c0,.11.28.44-.17.31l0,.27h0c-.13,0-.49-.21-.31.24h0l-.18-.49a.62.62,0,0,1-.11-.17.71.71,0,0,1,0-.21s-.08,0-.08,0-.07.21,0,.27.17,0,.26.07c-.07.12-.15.24-.21.37l-.18.37-.1,0c0-.32-.06-.65-.1-1,0-.07-.08-.13-.12-.2l.12-.31-.09,0,0,.34c-.08-.08-.21-.15-.23-.24a6,6,0,0,1-.07-1c0-.22.06-.44.08-.66s-.06-.14-.09-.21a.88.88,0,0,1-.08-.79c0-.09-.13-.28-.16-.43s0-.53-.08-.8-.08-.28-.11-.43,0-.34-.07-.51l.15,0-.14-.25a.75.75,0,0,1,.1-.2c.17-.19.27-.35-.11-.37l-.07,0c.09-.31-.1-.61.08-1a1.63,1.63,0,0,0-.12-1.51,1.61,1.61,0,0,1-.31-1.25l.31.26c0-.21-.05-.34-.06-.47s.05-.1.06-.15a1.92,1.92,0,0,0,0-.24.65.65,0,0,1-.19,0s-.13,0-.13-.07a5,5,0,0,0,0-.77.91.91,0,0,1,0-.82c.09-.14-.12-.44-.1-.66s-.19-.73.08-1.08c0-.06-.08-.22-.08-.33,0-.63,0-1.25,0-1.88,0-.48-.11-.95-.13-1.43s0-1,0-1.48a2.72,2.72,0,0,1,0-.28c0-.17.09-.32.13-.49s.08-.27,0-.33c-.26-.27-.14-.55-.12-.86s0-.9,0-1.35a3.59,3.59,0,0,1,0-1,2.59,2.59,0,0,0,0-1c0-1,0-2,0-3s0-1.77.09-2.66c0-.41.17-.8.2-1.21a10.36,10.36,0,0,0,0-1.11,1.51,1.51,0,0,0,0-.3c0-.11-.06-.21-.08-.31a4.93,4.93,0,0,0-.54.19c-.15.07-.29.19-.44.28s-.59.32-.9.44-.54.35-.75.41c-.48.13-.77.51-1.16.65a1.3,1.3,0,0,0-.62.47L30,42.84l.14.18c-.23-.07-.42-.11-.56.19-.05.13-.31.16-.47.24l0-.34h-.1l.07.32a1.67,1.67,0,0,1-.12.23,1.31,1.31,0,0,1-.12.11c0-.05,0-.11,0-.16a1.8,1.8,0,0,0-.08-.21l-.17.12a6.31,6.31,0,0,1-.61.55c-.06,0-.21,0-.32-.06l.11-.1a.82.82,0,0,0-.26-.06s-.07.1-.11.15l-.17.42,0-.32-.33.27c-.05,0-.13,0-.19,0a.47.47,0,0,0,0-.16,2.58,2.58,0,0,0,0-.39l-.3.08c0,.11-.24.27.06.34,0,0,.07.16.06.17a3.75,3.75,0,0,1-.44.24c0-.09,0-.19,0-.29a2.47,2.47,0,0,0-.1-.29,1.21,1.21,0,0,0-.38.18c-.06,0-.06.18-.06.27a.82.82,0,0,0,.09.19c-.1,0-.22.11-.29.07a2.36,2.36,0,0,1-.42-.28.27.27,0,0,0-.14-.07.35.35,0,0,0-.13,0,.69.69,0,0,1,.11.13.46.46,0,0,1,.07.07c-.32-.05,0,.3-.2.32l-.16-.14c-.05,0-.1-.12-.15-.12a.26.26,0,0,0-.18.11.21.21,0,0,0,0,.19,2,2,0,0,0,.35.11,3.78,3.78,0,0,1-.65.14s-.09-.29-.14-.47c0,.54-.62.31-.8.66a.1.1,0,0,1-.09,0c-.25-.24-.45-.17-.63.12,0-.18-.07-.37.15-.49,0,0,0-.25-.07-.38l.26,0-.12,0s-.08,0-.13.07c-.25,0-.24.26-.29.45a.79.79,0,0,1-.18.28c0-.09,0-.17,0-.26s-.28-.45-.45-.43-.08,0-.08.06a.14.14,0,0,0,.05.11c.08.06.25.13.25.15-.07.17-.16.34-.25.51-.11-.08-.26-.14-.32-.25a2.37,2.37,0,0,1-.1-.54.76.76,0,0,0-.11.16c-.08.2-.09.48-.23.6s-.21-.21-.39-.26-.18-.24-.29-.33-.24-.18-.27.09c0,0-.23.07-.44.13a1.15,1.15,0,0,1,.2-.24c.22-.13.3-.26.1-.46a.18.18,0,0,1-.06-.1c0-.14.14-.32-.14-.27-.05,0-.06.21-.1.35-.5-.26-.45.42-.77.53.26.19.26.19-.12.61l.07-.21.09-.25h-.07v.27l-.14,0-.33,0c.18-.07-.28-.52.23-.38v-.14l0-.19-.13.06a2.56,2.56,0,0,1-.87,0c-.2-.09-.28,0-.43,0a.31.31,0,0,1-.23,0,1.66,1.66,0,0,1-.21-.16l-.21.31a1.45,1.45,0,0,0-.09.22c0-.09-.12-.17-.12-.26a.79.79,0,0,0-.89-.65s-.1.07-.1.1a.29.29,0,0,0,.08.14l.24.14h0c-.09,0-.24.1-.26.07s-.19-.32-.31-.46-.16-.1-.24-.15l-.22-.18c-.12.07-.32.41-.4-.1a.19.19,0,0,0-.18-.07c-.31.09-.34.07-.46-.25,0-.1-.18-.14-.23-.23s-.18-.43-.3-.71c-.23.36-.22.87-.66,1l.12-.9H12c0,.05-.08.14-.14.15-.22.06-.32.15-.26.4,0,.06-.16.17-.26.23s-.1,0-.15-.07a.33.33,0,0,0,.07-.13c0-.14.08-.28.11-.42a1.25,1.25,0,0,0-.41.15,7.35,7.35,0,0,0-.59.68v-.45c-.36.18-.42,0-.36-.25a.26.26,0,0,0-.07-.13,1.23,1.23,0,0,0-.26.12l.06.13.07.13s-.08.07-.12.06l-.62-.11A.2.2,0,0,1,9,43c0-.15,0-.14.15-.1s.31-.15.44-.22a1.39,1.39,0,0,0-.34-.27,1.7,1.7,0,0,0-.39-.09ZM26.82,7,27,6.82l-.09-.05a2.17,2.17,0,0,1-.07.24l-.2.06,0,.06Zm-6.45.37.3.07,0-.07-.23-.18-.09.19-.15.2.09,0Zm-9.88,25a2.39,2.39,0,0,1-.23.22l.07.07c.05-.06.11-.12.16-.19a.08.08,0,0,0,0-.07l.13,0,0-.06Zm-.74-.49.26.06,0-.12-.27,0a.86.86,0,0,1-.07-.21.74.74,0,0,1,0-.14c-.05,0-.12,0-.14,0a.19.19,0,0,0-.06.15C9.6,31.71,9.68,31.78,9.75,31.86ZM5.13,38.71h.45c-.28-.25-.28-.25-.43,0H5l0,.13ZM24.59,9v.08l-.48.14h0C24,9.16,24,9,23.77,9c0,0-.12-.15-.18-.23l.18-.09L24,8.56a2.36,2.36,0,0,0-.55,0,2,2,0,0,0-.38.16v.42l-.21-.07.2-.13s-.1-.07-.11-.06a.7.7,0,0,0-.13.16h-.14c0-.14-.06-.29-.12-.54a3,3,0,0,0-.11.43c0,.34-.39.17-.52.34,0-.14-.1-.28-.14-.42s0-.18,0-.25-.12,0-.18,0a.89.89,0,0,0,0,.32.41.41,0,0,1-.2.57l-.07-.65h-.14l0,.51-.41.16c-.11-.31-.19,0-.28,0-.37.24-.84.19-1.23.41-.21.13-.53.09-.7.24a8.38,8.38,0,0,1-.91.69,5.31,5.31,0,0,0-.66.48c-.19.18-.35.3-.59.07,0,0-.14,0-.19,0-.28.17,0,.67-.48.74.21.42-.2.32-.34.35s-.37.08-.34.35a.31.31,0,0,1-.09.22c-.23.23-.48.45-.7.69s-.22.34-.35.49-.55.46-.66.74a2.28,2.28,0,0,1-1,1.23c-.14.09-.28.1-.06.26,0,0-.05.31-.07.31-.29,0-.27.22-.35.39s-.29.48-.39.74-.47.26-.37.62c0,.07-.37.13-.1.35l-.16.15s-.12.08-.12.11c.09.39-.19.61-.39.87-.07.08-.16.15-.18.24a1.68,1.68,0,0,1-.47,1.19.6.6,0,0,0-.17.44c.18.56-.24,1-.3,1.51s-.2,1-.25,1.52-.16,1.33-.22,2c0,.07.11.15.18.22a1.3,1.3,0,0,0,.17.08h0c-.13.05-.27.09-.39.15s0,.08,0,.13.08,0,.09,0c.22-.29.18.22.33.11,0,.22.1.44.14.66a2.21,2.21,0,0,0,.14.65,4.25,4.25,0,0,0,.61.67h0l-.23.35-.15.3a1.75,1.75,0,0,0,.46,0c.1,0,.17-.17.25-.26l.14,1.59h.11v-.34c.16.12.4.21.41.33.05.35.24.3.47.23v0c-.18.28-.1.49.21.59a.46.46,0,0,1,.22.72.33.33,0,0,0,0,.22c0,.06.1.1.15.14s0-.15,0-.17a3.11,3.11,0,0,1,.41-.2c0,.17,0,.29.18.09,0,0,.13,0,.13,0a1.51,1.51,0,0,1,0,.47s-.14.09-.21.15-.16.15-.24.22l.55.15a1.84,1.84,0,0,0,0-.33c0-.39.45-.1.48-.39.07,0,.16,0,.19,0a.26.26,0,0,1,0,.2,2.09,2.09,0,0,1,0,.34l-.17.2.05,0,.11-.26c.19,0,.48.29.46-.23,0,.07.07.1.08.13,0,.23-.12.53.28.56l0,.2,0,.29.11,0-.16-.25c.55-.16.67-.07.69.5a.78.78,0,0,0,0,.22,1.15,1.15,0,0,0,.1.23l.18-.25.06.54c.16,0,.31-.09.46-.15s.34-.1.35-.16c0-.41.32-.27.55-.32-.14.14-.34.24-.36.36a2,2,0,0,0,.1.64,1.61,1.61,0,0,0,.18-.52.16.16,0,0,1,.1-.08s.06,0,.08.07l.08.17c.07-.06.18-.11.19-.18a1.31,1.31,0,0,0,0-.39l.3.09c.13,0,.32,0,.36.11.12.27.31.17.5.16s.48.19.7-.06c0,0,0,0,0,.07.06.36.43.3.62.34.35.09.4,0,.54.29l.12-.35c.13.08.25.21.36.2.33,0,.66-.1,1-.15.05,0,.1,0,.16.06a2,2,0,0,0,.61.2c.17,0,.43.1.52-.2.1.07,0,.51.26.12,0,0,.14-.06.16-.05.17.21.28,0,.44,0a1.44,1.44,0,0,1,.54-.08c.12.36.19.08.29,0s.2-.1.22-.08c.23.3.19,0,.25-.1s.14-.11.18-.09.27.12.26-.13c0,0,.09-.06.14-.08s.18-.12.27-.12a.36.36,0,0,0,.44-.32s.05,0,.06,0c.28.26.45-.19.7-.1,0-.28.31-.18.46-.27s.19-.06.27-.11c.44-.3.88-.61,1.33-.9a2.62,2.62,0,0,1,.59-.27c.08,0,.19,0,.29,0h0v.06l0,0c.16-.16.17-.46.45-.54.08,0,.15-.11.19-.18a1.6,1.6,0,0,0,.08-.32l.13.31A.77.77,0,0,0,31,32.7l.12-.15c.17-.21.21-.19.33.15a2.45,2.45,0,0,0,.26-.48s.11-.08.11-.07c.2.24.4-.1.59,0l.06-.3a.18.18,0,0,1,.06-.08c.16,0,.17,0,.23-.17a4.49,4.49,0,0,1,.44-.69s.09-.05.13-.07c.22-.11.54-.15.62-.32s.46-.3.34-.62h0a1,1,0,0,0,.74-.9h.29v-.13l-.27,0c.06-.08.11-.2.18-.21a.45.45,0,0,0,.42-.39s.07,0,.11-.07.15,0,.16,0c.12-.3.23-.6.32-.91.24-.8,0-1.7.49-2.45,0,0,0-.06,0-.07-.34-.22-.07-.5-.05-.74.06-.51.17-1,.26-1.54l.26-.14-.12-.15c0-.32-.15-.68.17-.95,0,0,0-.11-.06-.17s-.08-.1-.08-.15c0-.22.08-.44.12-.67a6.31,6.31,0,0,1,.5-1.69c0-.07,0-.19,0-.28,0-.26,0-.73.12-.74.36-.06.12-.48.4-.54-.15-.37.28-.76,0-1.14,0,0,.05-.11.09-.15A1,1,0,0,0,38.7,15a11.51,11.51,0,0,1,.19-1.33c0-.18-.13-.44.15-.55,0,0,0-.11,0-.13a.51.51,0,0,0-.2,0c-.22.4-.42,0-.63,0l.14-.16-.29.09c-.17,0-.4.05-.11.29,0,0,0,.15,0,.23a.9.9,0,0,1-.08.23,1,1,0,0,0-.07.15.75.75,0,0,1,0-.16c0-.21.18-.57-.32-.51,0-.07.08-.17.11-.17.26,0,.1-.44.4-.36l-.16-.44a.23.23,0,0,0-.07.13c-.09.19-.45.24-.29.55-.1,0-.23.15-.3.13s-.13-.18-.19-.28,0-.05,0-.07c.26-.25.23-.51-.09-.75l.13-.2-.09,0,0,.23-.09.05-.25.21c0-.12,0-.24,0-.37s.05-.08.08-.11a.72.72,0,0,0-.31.12.16.16,0,0,1-.11,0c-.15-.29-.47-.44-.61-.76s-.32-.3-.5-.43a.24.24,0,0,0-.17,0c-.1.33-.39.31-.58.3l.22.74a2.27,2.27,0,0,1-.34-.19.73.73,0,0,1-.19-.27c.31-.25-.06-.29-.13-.42a3.55,3.55,0,0,0-.23-.31l.13.05v-.14l-.2,0c-.08,0-.22,0-.23,0-.12-.32-.27-.09-.35-.06l-.4-.31a1,1,0,0,0-.14.35c0,.38.33-.05.41.17a.92.92,0,0,1-.91,0l.32-.16c-.15-.06-.34,0-.39,0-.25-.28-.4-.11-.56.09,0,0-.14,0-.21,0a.71.71,0,0,0,.07-.16c0-.18.07-.36.11-.56l.22,0a1.16,1.16,0,0,0-.69-.27,3.26,3.26,0,0,0-.78.31l-.08-.64L29.78,9l-.08.06.14.16-.29.27v0c-.21-.08-.39-.17-.38-.45,0-.08-.14-.21-.24-.23s-.28.07-.28.12c0,.56-.53.59-.78.74a4.12,4.12,0,0,0-.32-.26.88.88,0,0,0-.29-.07l.27,0V9.25l-.47-.16.22.29c-.21-.08-.42-.17-.64-.24,0,0-.09.06-.11.1-.09.23-.33.11-.47.2s-.07,0-.07-.07c0-.4-.18-.15-.3-.15l.18.29-.14.06-.27-.73-.41.29c0-.26-.06-.36-.31-.19ZM5,14.56a3.38,3.38,0,0,1,.42-.13s0,.07.08.11l.1-.14-.25-.07a.78.78,0,0,0-.21,0,1.17,1.17,0,0,0-.2.06c0,.07,0,.14.07.22l-.22.18.13.06ZM44.43,7.27c0-.23,0-.51-.43-.15l.44.14c0,.22,0,.44.08.66,0,0,.21,0,.21,0a3.14,3.14,0,0,0,.05-.61A2,2,0,0,0,44.43,7.27ZM4,14.37l0-.17-.1,0,.15.15s0,.1,0,.12a3.48,3.48,0,0,0-.26.3.57.57,0,0,0,.15.16,1.38,1.38,0,0,0,.3-.24,2.83,2.83,0,0,0,.25-.24c.06-.06.18-.13.17-.17A.87.87,0,0,0,4.41,14c-.06.05-.11.11-.18.16A1.84,1.84,0,0,1,4,14.37ZM9.14,29.26c.25-.2,0-.33-.11-.34-.35-.09.2-.3-.07-.37l0,0c0-.09,0-.18,0-.27V27.7l-.17,0a2.22,2.22,0,0,0-.11.56,3.37,3.37,0,0,0,.14.77c0,.07.1.11.16.17l.18.27ZM36.76,60l-.1-.23c-.1,0-.28.1-.28.15a1,1,0,0,1-.28.81.22.22,0,0,0,.06.13c.41.29.22.65.11,1-.05.16-.21.35.14.37a.24.24,0,0,1,.07.16,4.14,4.14,0,0,0-.21.59c0,.08.1.2.18.27s.3.19.15.42a.63.63,0,0,0-.14.44c0,.12.2.32.28.31.29-.06.44-.65.25-.89-.05-.07-.14-.15-.13-.21,0-.46.1-.91.15-1.36,0,0,0-.1,0-.15-.38,0-.22-.29-.23-.44C36.74,60.92,36.76,60.5,36.76,60ZM2.19,32.8a1.55,1.55,0,0,1-.06-.31.43.43,0,0,1,.1-.22s.07-.07.11-.11l-.13-.09c-.09,0-.24-.06-.27-.13-.15-.29-.27-.22-.44,0s-.18.06-.27.07S1.06,32,1,32s-.07.14-.1.21a.7.7,0,0,0,.27.08A1.76,1.76,0,0,1,2.19,32.8Zm42,40.72-.07-.12c-.08-.09-.15-.26-.24-.27a1.06,1.06,0,0,0-.55.1.36.36,0,0,0-.13.33c0,.11.21.19.33.26s.24.16.28.13A3.89,3.89,0,0,0,44.16,73.52ZM36.69,57c0-.15,0-.29,0-.42a1,1,0,0,0-.08-.23c-.05.06-.14.11-.15.17-.06.44-.11.88-.16,1.32,0,0,.06.07.09.11s.06-.07.1-.09C36.77,57.62,36.6,57.26,36.69,57ZM25.34,2.76a1.08,1.08,0,0,0-1.13-.26s-.06,0-.09,0H23.8l.06.27ZM40.83,8.25c.15,0,.25.09.31.06a.66.66,0,0,0,.23-.21.18.18,0,0,0,0-.16c-.23-.26-.45,0-.64.08s-.09.29,0,.42.23.08.35.11l0-.07ZM14.38,43h-.07l-.21.26c-.1-.13-.44.05-.38-.29,0,0-.06-.09-.1-.14a1.31,1.31,0,0,1-.11.12l-.16.16a2,2,0,0,0,.26.24c.19.12.35.5.62.13A1.8,1.8,0,0,0,14.38,43Zm2.13.24s-.09-.1-.11-.09c-.22.12-.43.25-.64.39,0,0,0,.14,0,.16C16,43.81,16.5,43.52,16.51,43.21ZM39.13,5.42c.11.17.17.33.29.4s.22-.11.34-.17a5.46,5.46,0,0,0-.44-.38S39.23,5.35,39.13,5.42ZM37,67a2.79,2.79,0,0,0,.23-.51c0-.09-.06-.2-.09-.3l-.18.14C36.64,66.57,36.77,66.78,37,67Zm1.86-5.83-.16-.41a1.76,1.76,0,0,0-.16.49c0,.11.1.24.16.36ZM2.94,16.33l.07.14c.14-.06.33-.09.39-.2s0-.28,0-.43-.1-.07-.16-.11a.75.75,0,0,0,0,.16C3.19,16.07,3.2,16.27,2.94,16.33ZM38.84,3.27c-.18-.12-.31-.24-.35-.21a1.18,1.18,0,0,0-.3.29c.08.07.17.2.23.19A1.58,1.58,0,0,0,38.84,3.27ZM36.59,55.43a5.18,5.18,0,0,0-.29.6s.06.14.09.21.25-.09.25-.14A3.61,3.61,0,0,0,36.59,55.43ZM3.53,15.54l.25-.26-.23-.22-.23.35Zm.57.27.37-.2c-.08,0-.18-.09-.25-.07a1.93,1.93,0,0,0-.4.15ZM10.91,33c.11.12.19.24.28.34s.14.11.21.17.07-.15,0-.2a.47.47,0,0,0-.19-.18A2.05,2.05,0,0,0,10.91,33ZM9.69,30.77l.09,0,.36-.16-.2-.24ZM11.37,9.93l0,.13c.25-.08.44.39.77,0ZM36.78,59.16h-.07l-.19.3c-.1.16,0,.33.13.22A1.37,1.37,0,0,0,36.78,59.16ZM5.25,38.41,5,37.88C4.84,38.24,4.77,38.45,5.25,38.41ZM15,43.16a.78.78,0,0,0-.21-.09s-.1.09-.09.12a2.09,2.09,0,0,0,.16.29ZM11.85,6.43l-.09.11.31.24.1-.13ZM11.5,9.85l.24-.19s-.09-.11-.11-.1l-.27.17ZM4.17,37.14v-.09A1,1,0,0,0,3.92,37s-.07.05-.11.08a.9.9,0,0,0,.2.14S4.11,37.16,4.17,37.14Zm32-28.25.19-.09-.23-.29-.24.22ZM14.85,11l.09.12.36-.23-.08-.12ZM9.26,30.1l.15,0,.05-.47-.15,0ZM37.41,71c-.06.08-.12.13-.11.16s.07.2.11.3a1,1,0,0,0,.11-.26S37.46,71.1,37.41,71ZM36,61.36l.15.06c0-.13.09-.25.12-.38l-.08,0C36.14,61.12,36.08,61.24,36,61.36Zm.38-12,.11,0V49l-.27.07ZM1.61,31.25l-.08-.05-.31.38C1.66,31.72,1.52,31.38,1.61,31.25ZM39.2,72.71h.14l-.05-.39H39.2Zm-.92-14.45.13.07.2-.37-.13-.07Zm-34-21c-.32.23-.32.23-.12.43ZM.54,27.44a.92.92,0,0,0,.17-.25S.64,27.08.6,27a1.31,1.31,0,0,0-.17.24S.48,27.36.54,27.44Zm12.07-18,.11.07c0-.1.11-.2.15-.3s-.07,0-.1-.07ZM38.52,3.71l-.06.12.41.13,0-.08ZM20.34,9.25l-.1-.06-.2.34.1.06ZM37,68.55l.07.12.33-.2-.05-.1ZM20.64,7.88l.12,0,.13-.29c-.06,0-.16,0-.17,0A1.2,1.2,0,0,0,20.64,7.88ZM18.43,43.77l-.15-.13a.71.71,0,0,0-.12.18s.05.09.07.13ZM48.82,17.19H48.7l.06.44h.06ZM24.23,1.66l0,.11.33-.08s0-.1,0-.09S24.34,1.64,24.23,1.66ZM5.91,39.09l.15-.3s-.09-.06-.11,0a.4.4,0,0,0-.13.16S5.86,39,5.91,39.09Zm30,33.05.09,0a1.12,1.12,0,0,0,.13-.24L36,71.85Zm-.25-2.47-.11.12s.1.1.13.09.09-.08.14-.12ZM24.37,7.24l-.07-.08-.25.25.07.07Zm13.31,12.7h.13l0-.39s-.09,0-.09,0S37.68,19.82,37.68,19.94Zm1.77-5.8h.1l-.09-.33-.09,0ZM11.91,10.38c-.07,0-.14-.05-.16,0a.44.44,0,0,0-.15.18s.06.06.09.1ZM3.05,14.94c-.09,0-.18-.11-.2-.09a.67.67,0,0,0-.14.19s0,.08.06.12ZM25.51,7.88l-.05-.11-.29.14,0,.1ZM18.78,44.3l.12-.07-.25-.32-.08.06Zm30-31.38a.86.86,0,0,0-.21-.13s-.07,0-.11.06.1.13.16.19ZM38.51,60.42l.12,0,0-.29h-.12Zm3.33,12.71H42l0-.32s-.09,0-.09,0S41.84,73,41.84,73.13ZM1.15,29.52l.09.1.24-.2-.11-.09ZM39.71,13l0,.11.31.09,0-.1ZM1.49,26.59l.1-.08-.13-.23s-.11.08-.1.1A2.39,2.39,0,0,0,1.49,26.59ZM39.17,72.11h.11l0-.35H39.2ZM10.9,12V12l-.21,0s0,.05,0,.08ZM35.05,64l-.12-.21s-.1.07-.09.11,0,.13.07.2ZM14.8,11.63l-.15.22s.09.07.11.06a.26.26,0,0,0,.1-.13S14.83,11.71,14.8,11.63Zm-9.64,26,.07,0,.21-.28-.13-.05ZM22.68,8.46l.08.06L23,8.26l-.07-.06ZM38.6,56l.22.17s.09-.08.08-.1a.23.23,0,0,0-.12-.12S38.69,55.94,38.6,56ZM.5,30.82H.61a2.11,2.11,0,0,0,0-.26H.52Zm36,24.26h.08v-.33H36.5ZM22.05,9l.08,0,.1-.28-.1,0C22.1,8.76,22.08,8.86,22.05,9Zm15.27,1.47,0,.08.33.13,0-.07ZM2.25,17.8c0,.08-.08.12-.07.14a1.74,1.74,0,0,0,.11.18s.09-.08.08-.11A.8.8,0,0,0,2.25,17.8ZM23.08,1.49l.1-.05L23,1.15l-.08.05ZM4.79,13.79l.07,0L5,13.54l-.11-.06ZM15.53,4.92c-.06-.07-.08-.13-.11-.13a.61.61,0,0,0-.18,0s0,.1,0,.1A.75.75,0,0,0,15.53,4.92Zm-1.82,7.54-.09-.06-.14.25.06,0ZM11.15,32.08a.55.55,0,0,0-.08.15s0,.07.06.1l.16-.14ZM25.78,9l.06-.05-.18-.22-.06.06ZM10.17,42.77h.11a1.93,1.93,0,0,0,0-.24l-.1,0ZM31.72,10l-.09.1s.07.07.1.08a.31.31,0,0,0,.12-.05ZM12,33.83c0,.06-.06.1,0,.11a.64.64,0,0,0,.1.13l.06-.07A.94.94,0,0,0,12,33.83ZM38.36,56.41l.12,0-.06-.27h-.1ZM6.44,39.77l.07,0,.12-.28-.07,0ZM45.88,8.44c-.07,0-.1-.1-.13-.1a.48.48,0,0,0-.14.05s0,.1.06.11A1.22,1.22,0,0,0,45.88,8.44ZM1.63,20c-.08-.07-.12-.12-.15-.12l-.15.06s0,.09.08.09A.73.73,0,0,0,1.63,20ZM39.08,60.6,39,60.49a.6.6,0,0,0-.11.12s0,.08.06.11Zm-1.95,4.47a1.1,1.1,0,0,0-.2-.11.36.36,0,0,0-.11,0,.68.68,0,0,0,.12.12S37,65.1,37.13,65.07ZM6,11.62l-.08,0-.11.23.08,0ZM38,18.3h-.13l0,.28h0ZM5.57,12.54l0,0s0-.08,0-.1l-.15,0Zm3.92,16.9-.15-.14s-.06.08-.05.09l.14.15ZM1.69,18.59l.05.1L2,18.52l0,0Zm37.39-3.67.14-.06-.09-.1a.34.34,0,0,0-.08.09S39.07,14.9,39.08,14.92Zm1.07-4.7s.06-.07.05-.09a.64.64,0,0,0-.1-.13l-.08.09ZM7.38,39.78h0L7.24,40l.07,0Zm5.72-5.29s-.08,0-.09,0a.49.49,0,0,0-.11.14s0,.06.08.08ZM8.26,40.88c0-.05.08-.08.09-.12s0-.07,0-.1-.07,0-.07.07A.31.31,0,0,0,8.26,40.88ZM28.06,9.12l0,0s0-.09,0-.1l-.18,0ZM45.13,7.91l-.19-.17s-.08.08-.08.11a.18.18,0,0,0,.1.09A.43.43,0,0,0,45.13,7.91ZM.57,27.73l-.06,0-.08.2.09,0ZM12.5,42.17h-.08l0,.3h.07ZM4.1,36l.15-.13s-.06-.08-.09-.08a.28.28,0,0,0-.11.08S4.07,36,4.1,36ZM1,21c-.15,0-.21,0-.22,0a.46.46,0,0,0-.07.16ZM40,7S39.9,7,39.89,7a.43.43,0,0,0-.09.1s0,0,.06.07Zm5.36,62h0v-.27h0ZM4.54,12.66c-.06,0-.1-.08-.13-.08s-.06.05-.09.07,0,.09.08.09S4.47,12.7,4.54,12.66Zm24.4-4.73s-.07-.08-.08-.07a.69.69,0,0,0-.13.11s0,.06.05.06ZM6.22,39.53a.66.66,0,0,0,.07-.15s0-.06-.07-.09l-.12.18ZM27,8.81l0,.07.2-.09v0ZM5.23,12.71l-.09-.08-.2.13.11.11Zm36.53-1.18-.1.07s0,.08.07.09.07,0,.11,0ZM13.14,14.08l-.09.08s0,.07.09.08,0,0,.08-.05ZM35.86,64.44c-.07,0-.1-.09-.14-.1s-.06,0-.1.07.06.08.1.1A.56.56,0,0,0,35.86,64.44ZM23.17,44.76l-.11.06s.06.08.09.09.08,0,.12,0ZM41,61.1c0-.06,0-.09,0-.11s0,0-.08-.06S41,61,41,61,41,61.06,41,61.1ZM40.61,7.58s-.06,0-.07,0,0,0-.07.07.05,0,.06,0Zm.72,3.32.14-.18s-.09-.07-.1-.06a.22.22,0,0,0-.11.12S41.3,10.84,41.33,10.9ZM36,59.41s.08,0,.09-.08,0-.06,0-.1-.07,0-.08.06A.26.26,0,0,0,36,59.41Zm2.62-.63c0-.06,0-.1-.06-.11a.34.34,0,0,0-.14,0s0,.09,0,.1S38.59,58.79,38.66,58.78ZM3.14,29.92h0v.19h.05ZM13,14.61l-.1.08a.27.27,0,0,0,.07.08l.08,0ZM5.3,12.26l0-.06-.15.06s0,0,0,.06ZM38.55,59.55s-.06-.07-.08-.07-.06,0-.09.05,0,.07.08.08S38.51,59.58,38.55,59.55Zm.29-2s0,0,0,0a.29.29,0,0,0,0-.09l0,0A.52.52,0,0,0,38.84,57.5ZM1.63,30.07l-.1,0a.46.46,0,0,0,.07.07l.06,0ZM9.78,8.46l-.12-.09s-.07.08-.06.11.06.07.09.1ZM36.16,54a1.05,1.05,0,0,0,0,.18s0,0,.06,0a.38.38,0,0,0,0-.1S36.2,54,36.16,54Zm0-1.17,0,.06s.06,0,.09,0a.93.93,0,0,0,.13,0Zm9.39,9.36,0-.11s-.05,0-.05.06,0,.07,0,.1ZM20.46,45l-.07-.06s0,.05-.05.09,0,0,0,.07ZM46.29,9.68c.05,0,.1-.07.1-.09a.5.5,0,0,0,0-.13s-.08,0-.09.06S46.27,9.6,46.29,9.68ZM1.62,28.44l-.05-.09s-.08,0-.08,0a.56.56,0,0,0,0,.12Zm-.43-.53c-.05,0-.09-.09-.1-.08a.53.53,0,0,0-.12.1l.08,0ZM6.51,14.38s-.07-.06-.09-.06-.06,0-.09.06.06.06.08.06S6.47,14.41,6.51,14.38Zm-4.84,9,.06,0-.07-.22,0,0ZM20.89,8.86S21,8.8,21,8.77s0,0,0-.08l-.09.06S20.87,8.81,20.89,8.86ZM12.42,42.59c-.05-.05-.08-.09-.12-.1s-.08,0-.07.07a.54.54,0,0,0,.07.13ZM37.64,20.74l-.12-.06s-.05,0-.08.05.06.07.09.07A.41.41,0,0,0,37.64,20.74ZM13.3,8.82a2.33,2.33,0,0,0,.09-.23s0-.05,0-.08a1,1,0,0,0-.11.1S13.25,8.66,13.3,8.82ZM7.74,40.35a.38.38,0,0,0-.13-.08s-.05,0-.05.06a.14.14,0,0,0,.07.08S7.69,40.39,7.74,40.35Zm17-31.89-.08-.06a.09.09,0,0,0,0,.07l.08.06ZM4.56,37.94s0-.07-.08-.07-.05,0-.08,0,0,.07,0,.08S4.51,38,4.56,37.94ZM7,10.2s-.08.05-.08.07,0,.06,0,.08.07,0,.07,0S7,10.25,7,10.2ZM36.68,2.31l.06,0a.41.41,0,0,0-.07-.11l-.06,0ZM4.43,35.71h.05l0-.22h0Zm.13-22.58s-.07-.07-.1-.08l-.09,0s0,.06.08.07S4.5,13.14,4.56,13.13ZM26.09.18,26,.12l0,.05.12.08ZM2.92,16.66c0-.05.06-.08.06-.1s0-.06,0-.08-.06,0-.06.07S2.89,16.61,2.92,16.66Zm1.57-.6c-.06,0-.09-.1-.13-.1s-.07,0-.11.05,0,.08.09.09S4.42,16.08,4.49,16.06Z" class="cls-1"/><path d="M41.66,7.08c0-.16.07-.32.1-.48s0-.12,0-.18H41.6l-.29.08a1.25,1.25,0,0,1,0-.54c.06-.18.11-.26-.06-.42s-.11-.38-.16-.58l.54.23c-.09.14.52.35-.05.45-.07,0-.11.19-.14.26l.77.14a.56.56,0,0,0,.25,0,.67.67,0,0,0,.14-.11c.19.29.44,0,.65,0s.33-.18.51,0c.05,0,.17,0,.25,0-.08.09.27.4-.16.31,0,0-.1.06-.15.09s-.23.09-.25-.14a.21.21,0,0,0-.13-.18c-.06,0-.14.06-.21.1s-.14.08-.2.07c-.35,0-.92.33-.94.67s-.13.23-.29.16Z" class="cls-1"/><path d="M37.83,74.83c-.37.15-.37.17-.27.47a.29.29,0,0,1-.09.27c-.09.05-.21.29-.34,0h0a1,1,0,0,0,0-.89l.09-.17.15-.16.14.08,0,0,.29.4Z" class="cls-1"/><path d="M8,8.71c-.16,0-.32,0-.31.29s-.19.27-.3.4c-.12-.16,0-.88.21-.89s.27.13.4.2Z" class="cls-1"/><path d="M37.21,74.54l-.09.17a.87.87,0,0,0-.21.17S37,75,37,75a.42.42,0,0,1-.2-.05.23.23,0,0,1-.06-.18c0-.28.11-.55.17-.82h0c.39.3.22-.14.31-.24h.07l.09.31a1.49,1.49,0,0,0-.29.2.79.79,0,0,0-.09.23Z" class="cls-1"/><path d="M42.46,5.11a1.26,1.26,0,0,1,.43,0c.1,0,.18.16.26.24a1,1,0,0,1-.23.17C42.53,5.63,42.55,5.29,42.46,5.11Z" class="cls-1"/><path d="M6.2,41.3l.42.09c-.16.24-.3.51-.64.39l.23-.49Z" class="cls-1"/><path d="M40.19,74.91c.24.14.31.58.11.71,0,0-.17-.07-.16-.1a6.2,6.2,0,0,1,.06-.62Z" class="cls-1"/><path d="M41.31,74.68l.71.07c-.18.43-.46.14-.7.06Z" class="cls-1"/><path d="M1.52,34.1a2,2,0,0,1-.08.35c0,.06-.12.13-.16.12-.29-.09,0-.29-.08-.43l.32,0Z" class="cls-1"/><path d="M5.41,40.87v-.49a.52.52,0,0,1,.13.06C5.63,40.58,5.81,40.73,5.41,40.87Z" class="cls-1"/><path d="M42.52,74.4c0,.2,0,.41.07.62,0,0-.11,0-.13,0s-.09-.11-.08-.16a3.35,3.35,0,0,1,.07-.44Z" class="cls-1"/><path d="M3.14,34.87a2.29,2.29,0,0,1-.23.17.38.38,0,0,1-.19.05S2.64,35,2.65,35s.08-.14.12-.14a2.4,2.4,0,0,1,.37,0Z" class="cls-1"/><path d="M40.84,74.48c0,.15.1.3.14.46s0,.11-.06.16-.15-.12-.15-.18a3.35,3.35,0,0,1,.07-.44Z" class="cls-1"/><path d="M2.68,37.64a1,1,0,0,1-.14.21s-.12,0-.14,0a.64.64,0,0,1-.1-.18l.16,0Z" class="cls-1"/><path d="M9.93,43.38l-.27.24-.1-.13.29-.21Z" class="cls-1"/><path d="M7.06,41.46l0,.34-.29,0a.47.47,0,0,1-.09-.06l.35-.25Z" class="cls-1"/><path d="M41,76.56l.16-.47.09,0-.18.49Z" class="cls-1"/><path d="M42.19,74.07c.06.11.11.15.1.17s-.08.17-.11.25-.06-.08-.06-.12A2.75,2.75,0,0,1,42.19,74.07Z" class="cls-1"/><path d="M2.68,37.64s0,0,0-.07l-.15-.25.13,0c0,.11,0,.22.05.34Z" class="cls-1"/><path d="M6.19,40.9c-.13,0-.28.11-.39.08s0-.18.19-.14l.2.06Z" class="cls-1"/><path d="M8.76,42.11l.08.22-.27-.08Z" class="cls-1"/><path d="M8.51,42.67l.31.25L8.74,43l-.23-.34Z" class="cls-1"/><path d="M14.6,44.6l-.12.27-.06,0a2.29,2.29,0,0,1,.08-.28Z" class="cls-1"/><path d="M37.13,75.6l-.06.34c0-.12-.32-.33.07-.34Z" class="cls-1"/><path d="M6.34,42.29l-.1.26s-.06,0-.06,0l.08-.24Z" class="cls-1"/><path d="M7.38,42.25l.07.06-.12.14-.08-.24Z" class="cls-1"/><path d="M13.79,44.25c-.1,0-.14.09-.17.08s-.1,0-.1-.08.06-.12.08-.11A.84.84,0,0,1,13.79,44.25Z" class="cls-1"/><path d="M41.34,74.36l-.1-.21a.69.69,0,0,1,.15.07s0,.07,0,.1Z" class="cls-1"/><path d="M49.11,19.24l-.12.09-.06-.08.13-.07Z" class="cls-1"/><path d="M48.75,13.49l.12.29-.07,0-.19-.33h.14Z" class="cls-1"/><path d="M5,40.48l-.05-.23H5l.06.22Z" class="cls-1"/><path d="M48.6,10.9l-.09-.09.22-.1Z" class="cls-1"/><path d="M5.66,41.18l.08.13-.07,0-.1-.1Z" class="cls-1"/><path d="M8.51,42.66l0,0-.23,0,0-.09.22.15Z" class="cls-1"/><path d="M7.35,41.76l-.15.29-.1,0,.25-.24Z" class="cls-1"/><path d="M40.68,6.58l-.17.13,0-.09.2,0Z" class="cls-1"/><path d="M40.68,6.58l0-.22h.05l0,.22Z" class="cls-1"/><path d="M43.35,5l.12.23a.29.29,0,0,1-.13-.08S43.35,5.11,43.35,5Z" class="cls-1"/><path d="M15.26,44.62l.1-.14.07.15-.17,0Z" class="cls-1"/><path d="M38.71,74.49l0,.3h-.1l.07-.3Z" class="cls-1"/><path d="M3.25,35.78l.2.17-.14,0A.77.77,0,0,1,3.25,35.78Z" class="cls-1"/><path d="M6.06,9.82l.13-.2,0,.06-.19.13Z" class="cls-1"/><path d="M31.11,42.86l-.15,0s0-.05,0-.07l.17.07Z" class="cls-1"/><path d="M5.65,42.08,5.57,42s0,0,.07,0l.09,0Z" class="cls-1"/><path d="M1.81,34.59a1.05,1.05,0,0,1,0-.13.22.22,0,0,1,.05-.08.5.5,0,0,1,.08.12Z" class="cls-1"/><path d="M6.21,41.29l-.06-.24h.1a2,2,0,0,1,0,.24Z" class="cls-1"/><path d="M48.83,11.53l-.08.1s0,0-.06-.07a.27.27,0,0,1,0-.09Z" class="cls-1"/><path d="M43.59,74.62c-.08,0-.1.08-.12.08l-.15,0s0-.05.08-.06A1.11,1.11,0,0,1,43.59,74.62Z" class="cls-1"/><path d="M2,37s0,0,0,0l0,0s0,0,0,0Z" class="cls-1"/><path d="M1.91,36.78c-.06,0-.09.06-.11,0a.44.44,0,0,1-.11-.09s0-.06.05-.06Z" class="cls-1"/><path d="M24.59,9l.45.11-.45,0Z" class="cls-1"/><path d="M9.05,27.23l.15,0v.1l-.15-.08Z" class="cls-1"/><path d="M37.36,74.38v-.32l.14.4Z" class="cls-1"/><path d="M35.4,11.67l.43.21-.16.31s-.11,0-.13-.08A2.9,2.9,0,0,1,35.4,11.67Z" class="cls-1"/><path d="M29.08,9.28l-.38.53-.12-.08.36-.53Z" class="cls-1"/><path d="M11.42,31.74l.17-.39h.1l-.07.41-.21,0Z" class="cls-1"/><path d="M36.21,12.52l.09-.42c.06.06.16.12.15.17a1.35,1.35,0,0,1-.14.3Z" class="cls-1"/><path d="M29.55,9.5c0,.29-.18.21-.36.17l.37-.15Z" class="cls-1"/><path d="M15.2,35l.18.2s-.08.06-.11.06a1,1,0,0,1-.17-.1Z" class="cls-1"/><path d="M15.84,35.15l.23.05,0,.13-.22-.09Z" class="cls-1"/><path d="M14.31,33.65l.11.12-.13.11s-.09-.07-.08-.1S14.26,33.7,14.31,33.65Z" class="cls-1"/><path d="M34.65,11.15l0,.25-.06,0-.09-.24Z" class="cls-1"/><path d="M30.61,10.08l.18.21-.09.08-.17-.23Z" class="cls-1"/><path d="M10,29.59l.19-.16,0,.09-.23.07Z" class="cls-1"/><path d="M11.12,31.45c0-.09,0-.13,0-.17s.06,0,.07,0a.41.41,0,0,1,0,.09S11.16,31.39,11.12,31.45Z" class="cls-1"/><path d="M24.11,9.26,24,9.43l-.06-.08.21-.09Z" class="cls-1"/><path d="M11,30.78s-.09.06-.09,0a.26.26,0,0,1-.07-.11s0-.06.07-.09Z" class="cls-1"/><path d="M34.33,29.91l-.15-.05.08-.12.06.18Z" class="cls-1"/><path d="M37.14,22.21l-.14.12Z" class="cls-1"/><path d="M30.06,33.53l0-.31h.09l-.06.31Z" class="cls-1"/><path d="M37.29,73.77l.17-.15,0,.13h-.2Z" class="cls-1"/></g></g></svg>