<svg xmlns="http://www.w3.org/2000/svg" viewBox="0 0 71.2 76.84"><title>xxiv-three-normal</title><g id="Layer_2" data-name="Layer 2"><g id="Layer_3" data-name="Layer 3"><path d="M48,76.06l.09.47-1.55.15a.22.22,0,0,1-.18,0,.26.26,0,0,0-.42,0,.44.44,0,0,1-.27.19l.15-.44c-.22.14-.42.18-.48.3-.22.47-.41.13-.5,0a4.62,4.62,0,0,1-.25-.88c-.14.08-.3.19-.47.28s-.34.07-.46.16c-.27.21-.33.1-.39-.16,0-.06-.23-.13-.31-.1s-.15.19-.16.3.06.23.06.35a1.25,1.25,0,0,1-.05.32c-.33-.33-.71.37-1.09-.06-.1-.11-.45,0-.68,0s-.48.52-.74,0c-.1.29-.25.08-.4.06s-.43.06-.63,0-.33-.22-.51,0l-.13-.28.22,0-.06-.22-.15.19-.25.44c-.3-.47-.47-.52-1-.3a1.69,1.69,0,0,1-.24,0l-.21.08a1.84,1.84,0,0,1,.09-.25s.12-.07.18-.11c-.1,0-.25,0-.29.07a.36.36,0,0,1-.6.1c-.38-.33-.49-.31-.76.16,0,0-.34,0-.35-.07,0-.46-.29-.22-.49-.16l0,0c0-.07-.09-.2-.15-.21-.23,0-.55.24-.65-.22,0,0-.07,0-.09,0-.36.35-.87-.16-1.24.22,0,0-.22-.09-.33-.15s-.12-.11-.18-.11c-.35,0-.35,0-.79-.37,0,0-.11,0-.14,0-.41.45-.83.29-1.25,0l-.69-.46.37.61,0,.08-.63-.4,0-.06,0,.06-.15.21c-.21-.22-.4-.45-.62-.67,0,0-.12,0-.18.06l.12.11.32.43-.86-.15a.71.71,0,0,0,0-.19,3.4,3.4,0,0,0-.12-.34l-.2.19a1.32,1.32,0,0,1-.2.12c-.1-.22-.24-.34-.49-.18l-.11-.09.14-.12.13-.12a1.24,1.24,0,0,0-.16,0,5.89,5.89,0,0,0-.84,0c-.08,0-.17.19-.19.31s0,.28,0,.43c-.32-.86-.4-.9-1-.28l.19-.81-.38-.15h0c-.11-.21.05-.6-.39-.59a2.66,2.66,0,0,0,0-.28,2,2,0,0,0-.08-.35c-.5.18-.44-.23-.5-.49s-.22-.26-.4-.1l0,0-.1-.37s-.12,0-.12.06,0,.24,0,.36,0,0,0,0v0l-.23.14.13.16h0l.06.55h0l.91.81c-.41.25-.77-.58-1.18,0,0-.11.14-.3.12-.32a1.32,1.32,0,0,0-.5-.22c-.23,0-.21,0-.21-.24a2.79,2.79,0,0,0-.08-.7c0-.11-.14-.19-.2-.27l-.47.74h0L20.91,73l-.06-.21c-.06,0-.12.12-.19.12-.34,0-.41.58-.86.38-.2-.08-.35,0-.09.19-.17,0-.41.13-.52,0s-.13-1,0-1.22l.13-.16a.26.26,0,0,0-.1-.07,1.13,1.13,0,0,0-.26.16c-.05,0-.05.14-.07.22a1.2,1.2,0,0,1-.21-.17s0-.13.07-.19.13-.19.19-.28c-.11,0-.23-.08-.32,0s-.11.16-.18.22a.4.4,0,0,1-.22.12c-.43.06-.48.1-.64.42,0,.08-.22.07-.32.1-.1-.28-.19-.57-.31-.85,0,0-.14,0-.21,0l-.48-.14a.24.24,0,0,0-.12,0c-.45.24-.73.08-.75-.41-.15.22-.16.22-.29,0-.23.2-.27-.36-.51-.12a1.59,1.59,0,0,1-.2-.21c.22-.32-.15-.27-.23-.39s-.15-.2-.13-.23c.2-.22,0-.18-.13-.21a1.72,1.72,0,0,1-.33-.22,2.68,2.68,0,0,0,.23-.26.8.8,0,0,0,.07-.2h-.15c-.19,0-.41.13-.55.07a.7.7,0,0,1-.35-.47c0-.35-.16-.46-.54-.52s-.45-.5-.66-.77a1.36,1.36,0,0,1-.09-.23c-.16.08-.31.14-.45.22a.38.38,0,0,0-.15.2.85.85,0,0,0,0,.26,1.63,1.63,0,0,1-.59-.06,4.88,4.88,0,0,1-.74-.58l.06.51-.22-.17c-.08-.06-.19-.17-.22-.15-.31.19-.3-.18-.46-.25a2.65,2.65,0,0,0,.26-.21s.05-.1.07-.15S9.05,67,9,67l-.42.11c0-.21,0-.53.09-.63.32-.26.09-.45,0-.59a7.55,7.55,0,0,0-.76-.73l.57-.2,0-.14a5,5,0,0,1-.65.14c-.09,0-.19-.09-.28-.14s-.35-.13-.4-.25c-.14-.3-.66-.15-.63-.61,0-.08-.16-.17-.24-.27a3.53,3.53,0,0,0-.36-.48c-.21-.17-.25-.55-.66-.46-.18,0-.36,0-.22-.28s0-.34-.24-.25h0c-.08-.08-.14-.2-.24-.24s-.41-.19-.38-.49c0-.08-.14-.19-.23-.26s-.36-.17-.39-.29c-.14-.58-.29-.3-.48,0,0,0-.09,0-.16,0,.1-.3.4-.56-.05-.87-.18-.13-.23-.17-.41-.07a1.93,1.93,0,0,1-.55.09l.49-.34c-.18-.22.38-.63-.19-.76A.2.2,0,0,1,2,58.86l-.32-.93s-.05-.14-.06-.13c-.43.1-.1-.22-.17-.32s-.05-.31-.06-.31c-.52,0-.29-.38-.37-.6a2.71,2.71,0,0,0-.39-.72s0-.14,0-.2c0-.35.11-.66-.21-1C.3,54.57.33,54.23.34,54c0-.66,0-1.31.1-2a2.82,2.82,0,0,1,.12-.87c0-.12.32-.17.57-.29l-.85-.19.56-.92.22.29,0,0,.45.36c.12-.28.33-.36.66-.18.08,0,.24,0,.36-.08a.17.17,0,0,0,0-.14l-.35-.18.57-.3c0,.14-.05.29-.08.47.48-.19.15-.33.08-.47.11-.15.28-.46.33-.44a5.93,5.93,0,0,1,.83.49c.19-.07.32-.63.81-.35,0,0,.06,0,.08-.07.2-.24.39-.46.76-.35.1,0,.25-.1.35-.19s0-.14,0-.22c-.28.12-.63-.14-.88.16s-.13.14-.3,0c0,0-.14,0-.18.08s-.13.26-.24.33a1,1,0,0,1-.4.11L4,48.69s.08-.08.07-.11c-.13-.42,0-.47.31-.21,0,0,.2,0,.21-.07a1.74,1.74,0,0,1,.79-1c.26-.19.1-.24-.11-.25h0c0-.32.11-.64.17-1,0,0,.06-.1.09-.09a3.28,3.28,0,0,1,.89.19c.22.11.07.57-.19.74a3.13,3.13,0,0,0-.38.34,11.74,11.74,0,0,1,1.22-.24c.3,0,.51.07.27.44-.06.1,0,.28,0,.42a2.63,2.63,0,0,0,.26-.35c.07-.14.09-.33.23-.05,0,0,0,0,.08,0,0-.5.68-.2.74-.64a5.27,5.27,0,0,1,.14-.57l.3.34a1.72,1.72,0,0,1,.2-.38,4.16,4.16,0,0,1,.38-.44l.06.62c.27-.06.42-.16.33-.46,0-.08.12-.2.19-.31,0,.08,0,.18.11.24s.16.15.23.13.4-.14.65-.23c-.06.38-.1.74-.18,1.09s-.17.49-.42.16l-.25.74c.17,0,.35.11.53.15.7.16.48.38.11.74-.12.11.06.52.11.79l.13-.16h0v.31l.3-.4h0a1.43,1.43,0,0,0,.37-.09c.2-.08.3-.08.22.17l-.18.11a1.25,1.25,0,0,0,0,.43c0,.09.18.14.27.2l.07-.33.14-.13a2.44,2.44,0,0,1,.27,0c.07,0,.2,0,.21,0a.36.36,0,0,1,0,.25,2,2,0,0,1-.22.37,1.1,1.1,0,0,0-.2.39l.42-.19c-.1.12.43.27.1.52,0,0,0,0,0,0s.05.07.06.07c.46-.25.4.63.85.38,0,0,.1,0,.11-.09.11-.34.09-.32.35-.1s.53.47.25.86l-.17.15.1.08.1-.21.73-.34.7,1c-.42.07,0,.26-.05.38l-.47-.47-.12.33.59.14.14-.22c.07.08.38-.1.22.24a1,1,0,0,0,0,.54c.05.2.1.45.38.14s.41-.15.57.23l-.55-.24c.28.4.34.9,1,.66.09,0,.29.17.39.3s0,.24-.1.28-.33.15-.42.09c-.45-.3-.61,0-.79.33a.3.3,0,0,0,0,.23.2.2,0,0,0,.17.05,4.81,4.81,0,0,1,.77-.35,1.9,1.9,0,0,1,.82,0,10.76,10.76,0,0,1,1.06.33c.05,0,.14,0,.15,0,.28.57.45.07.67,0l.25.37c.06.1.14.27.22,0a.8.8,0,0,1,.21.15c.14.19.12.19.31,0s.25,0,.26,0c.14.35.42.37.74.35.07,0,.22.13.22.2a.91.91,0,0,0,.69.92c0,.63,0,.62-.59.41a1.62,1.62,0,0,0-.44,0c.15.23.46.52.53.47.39-.29.48-.11.55.26,0,.07.19.11.29.17a1.63,1.63,0,0,0,0-.31,5.58,5.58,0,0,0-.13-.69,2,2,0,0,0-.18-.36.21.21,0,0,0,0-.07s0,0,0,0h0c.17-.25.39.07.43,0,.21-.27.29-.2.43.07s.29.23.45.35l.17,0c.06,0,.16-.06.18,0,.2.23.38.48.58.73l.23-.26.67.42s.09,0,.13,0l0,.25c.07,0,.19,0,.21,0s0-.16,0-.25.16,0,.17,0a3.65,3.65,0,0,1,.14.35c0,.08.07.15.1.23l.22-.26a.79.79,0,0,0,0-.12c.21.14.53.24.6.43.15.41.37,0,.53.11s.19,0,.2,0a2.77,2.77,0,0,0,.18.43c.07.1-.06-.38.17-.09a.17.17,0,0,0,.12,0c.16-.38.21-.18.38,0s.39.1.58.15a.24.24,0,0,1,.14.14c.16.45.26.48.62.1,0,.34-.08.68.4.6,0,0,.08.15.14.21s.26.22.29.2c.46-.33.57.1.83.46v-.83c.28.29.66.27.69.68,0,.07.14.14.21.2a2.78,2.78,0,0,0,.21-.27.59.59,0,0,0,.06-.2c.19.21.36.39.54.56s.12.12.15.1c.63-.3,1,.6,1.58.37a1.46,1.46,0,0,1,.07.19.17.17,0,0,1,0,.1c.12,0,.31,0,.34,0,.18-.4.31-.29.51,0a2.14,2.14,0,0,0,.49.4.9.9,0,0,1,1.11.07,1.51,1.51,0,0,0,.8.3c.19,0,.4.16.66,0s.65,0,1,.1.7.27,1,.4a.26.26,0,0,0,.09,0c.06-.59.26-.15.46-.1a6.34,6.34,0,0,1,.87.29c.22.11.32.15.07.33,0,0,0,.15-.05.22a.77.77,0,0,0,.26,0,3.43,3.43,0,0,0,.46-.11,1.69,1.69,0,0,1,.36-.12c.15,0,.35-.3.46,0l.39-.14v.26a.42.42,0,0,1,.64-.23c.16.07.31.18.33-.12a3.66,3.66,0,0,1,.83.26c.16.1.21.16.41,0a.82.82,0,0,1,.89-.07.81.81,0,0,0,.5.12,15.43,15.43,0,0,0,1.65-.3,7.72,7.72,0,0,0,1-.43s.09,0,.12,0c.28.17.55.29.75-.09.36.19.73-.37,1.11,0,0,0,.26-.06.38-.12.28-.16.71,0,.87-.36.34.15.61-.53,1-.06.08.09.48,0,.71-.14a6,6,0,0,1,.85-.4c.36-.08.78,0,.91-.47.33.18.35,0,.38-.28a.16.16,0,0,1,.12,0,1,1,0,0,0,1.16-.44c.17-.22.32-.46.48-.69h0l.08.24.13-.27-.09-.22a4.36,4.36,0,0,0,.48-1.66A2.6,2.6,0,0,0,61,57.81s-.27,0-.41,0h0c.15-.8-.34-1.29-.83-1.8-.27-.29-.69-.45-.75-.91,0-.09,0-.23,0-.25a.89.89,0,0,0-.34-.07.3.3,0,0,0,0-.16c0-.24-.07-.49-.42-.48-.13,0-.26-.1-.4-.11s-.18.08-.27.12h-.11c.05-.17.17-.37.13-.51a5.36,5.36,0,0,0-.47-1,1.05,1.05,0,0,0-.44.15s-.06.15-.08.23L56.49,53a1.58,1.58,0,0,1,.09-.36s.1,0,.12-.15l-.35.06-.24,0a1,1,0,0,0,.14-.15.27.27,0,0,0,0-.12,1.63,1.63,0,0,0-.31,0,1,1,0,0,0-.21.09l.06-.24c0-.09.1-.22.06-.27s-.31-.34-.46-.51a1.4,1.4,0,0,0-.16.26c-.06.17-.11.36-.17.54l-.14,0a3.84,3.84,0,0,0-.09-.68c0-.11-.21-.18-.33-.24s-.11.08-.17.12l-.17.09a.77.77,0,0,0,0-.15c0-.06,0-.12,0-.18s0-.14,0-.29a2.75,2.75,0,0,1-.33-.29c-.21-.27-.19-.29.12-.38.06,0,.12-.14.14-.22s-.1-.13-.15-.13a.8.8,0,0,1-.71-.43c0-.06-.19,0-.29-.07a2.53,2.53,0,0,1,.12.23c.1.22.43.42,0,.69,0,0,0,.22,0,.34v0c-.43,0-.23-.29-.23-.43,0-.44-.19-.67-.65-.63h0c.27-.51-.31-.19-.35-.32l.31-.46h0l.07.25.14,0-.26-.56c-.17.12-.34.23-.5.36s-.33.26-.49.39h0a1.51,1.51,0,0,1,.09-.38.6.6,0,0,0-.2-.87.64.64,0,0,1-.13-.19c0,.09-.13.18-.11.26a2,2,0,0,0,.17.37c0,.1,0,.2.08.3a2,2,0,0,1-.39,0c0-.28-.55-.49-.14-.84,0,0,0-.15,0-.21s-.51,0-.19-.35L49.83,47v-.78h-.14l-.09.58c-.1,0-.27-.64-.39,0,0,.08-.35.16-.53.14s-.13-.26-.19-.4c.16,0,.41,0,.47-.11.2-.34-.15-.1-.21-.17a1.37,1.37,0,0,1-.21-.28,1.27,1.27,0,0,1,0-.28L48.3,46,48,45.56c-.11.18-.21.36-.33.53s-.13.11-.2.17h0a8.28,8.28,0,0,0-.12-.87A.75.75,0,0,0,47,45c-.16-.11-.35-.18-.45.11,0,.07-.18.1-.27.14V45l.25-.17-.14-.08-.1.26c-.22-.13-.6-.11-.53-.53a.14.14,0,0,0-.07-.06c-.28-.08-.28-.08-.19-.46a4.77,4.77,0,0,1-.57.42c-.07.05-.19,0-.29,0l.17-.1-.06-.11-.15.18c0-.2,0-.4,0-.6a1.6,1.6,0,0,1,.05-.21c-.07,0-.15,0-.19.06l-.77.73.08.12-.16,0c-.38-.15-.37-.14-.16-.46a4.52,4.52,0,0,0,.23-.5c-.23,0-.45,0-.67,0a.83.83,0,0,0-.22.08h0l-.14-.19.1-.14-.24-.09-.06.25c-.36,0-.38.27-.46.52a1.54,1.54,0,0,1-.22.35,3.63,3.63,0,0,0,0-.48c0-.06-.11-.15-.15-.14-.49.09-.58,0-.52-.35l-.75.44a.64.64,0,0,1-.2,0c0-.08,0-.18,0-.23s.25-.25.35-.4c-.34.06-.7,0-.94.34a1.67,1.67,0,0,1-.6.38s-.17-.12-.15-.15a1.2,1.2,0,0,1,.2-.41c.05-.08.16-.12.24-.17l-.35-.28a.57.57,0,0,1-.66.59c-.08,0-.13-.37-.18-.55l-.69.64a.18.18,0,0,1-.16,0s0-.11,0-.16a.42.42,0,0,1,.08-.12c.08-.1.17-.19.26-.29s-.13-.12-.14-.11-.26.24-.38.36h0L37,42.55c0,.53-.58.24-.74.48,0-.08-.12-.2-.09-.22.2-.23.42-.44.64-.67s.19-.23.28-.34a1.17,1.17,0,0,0-.38-.14c-.34,0-.75-.15-1,.28,0,0-.09.05-.13,0-.62-.22-.46.33-.48.56s0,.48-.32.52c-.07,0-.12.13-.29.32a9.38,9.38,0,0,0-.19-.93c0-.09-.16-.14-.25-.21a1.27,1.27,0,0,0,.33-.26c.06-.1,0-.25,0-.38a1.26,1.26,0,0,0-.28,0c-.29.16-.34.36-.07.58l-.36.48a.52.52,0,0,0-.38-.63c-.06,0-.18.12-.28.18a1.21,1.21,0,0,1-.32.11s-.07-.08-.1-.12a1,1,0,0,0,.24-.17c.17-.18.34-.37.49-.56,0,0-.08-.15-.09-.14l-.77.29s0,.07,0,0c-.21-.14-.39-.35-.61-.4-.38-.09-.29-.33-.21-.53s.27-.12.43,0,.26,0,.41,0v.54c.2-.34.16-.89.74-.63a1.38,1.38,0,0,0,.18-.46s-.22-.17-.35-.17-.3.11-.45.1a1.56,1.56,0,0,1-.45-.14c.12-.18.2-.44.37-.52.34-.16.72-.22,1.1-.43L33,38.91c.17-.6,1.25-.59,1-1.47,0,0-.11.11-.18.1a2.6,2.6,0,0,1-.36-.13c0-.1.06-.26.13-.28a1.44,1.44,0,0,1,.67-.11c.1,0,.15.3.22.47v.26c0,.28.12.56,0,.83l-.16.31.79.32c.31.11.51-.06.42-.38s.14-.6-.31-.63a1.84,1.84,0,0,1,.14-.32c.51.11.76-.21,1.07-.53a2.32,2.32,0,0,1,.79-.37c-.5-.22-.89,0-1.36.13l1.13-.86.2.14a1.09,1.09,0,0,0,.1-.25S37,36,37,36.06a.69.69,0,0,0-.13.2c-.34-.12-.3-.29,0-.47.07,0,.17-.08.24-.14a3,3,0,0,0,.32-.29c-.12-.06-.27-.08-.35-.17a1.52,1.52,0,0,1-.3-.46,1,1,0,0,1,0-.38s0-.07.08-.08.23,0,.24-.08c.11-.36.42-.25.64-.28a8.93,8.93,0,0,0,1.16,0c.42-.11.79-.43,1.27-.23.29-.49,1,0,1.27-.48.07-.11.41,0,.61-.08a2.05,2.05,0,0,0,.39-.2,2.6,2.6,0,0,0,.36-.21c.13-.12.12.63.36,0l.29.08.13,0,.3-.2h0c.13-.25.28-.41.62-.29.17.06.37,0,.5-.28s.43-.3.67-.44.31-.18.46-.27l0,.36.21-.23c.33-.3.78-.49.87-1,0,0,.1,0,.14,0s.31-.12.3-.16c-.07-.4.25-.44.49-.56a.81.81,0,0,0,.36-.12,4.2,4.2,0,0,0,.44-.57l-.61.22c.19-.19.11-.63.54-.6l-.13.23.23-.11.21.25.07-.1-.3-.14,0-.21-.12.09.24-.57c.06-.15.56-.24.06-.46a.17.17,0,0,1,0-.13c.43-.29.11-.83.39-1.18.12-.15.09-.61.1-.86s.08-.7.1-1.05a4.91,4.91,0,0,0,0-.77,18.67,18.67,0,0,0-.1-2A13.65,13.65,0,0,0,49.26,20l-.18-.16a6.15,6.15,0,0,0-.09-.75c-.18-.65-.38-1.29-.57-1.93s-.68-.88-.69-1.48c-.56,0-.36-.58-.55-.86,0-.07-.14-.34-.28,0,0,0-.19,0-.21,0a10.14,10.14,0,0,0-.53-1.1c-.13-.19-.2-.48-.54-.52-.12,0-.22-.26-.32-.41s-.11-.17-.17-.26c-.06.08-.13.15-.18.23s-.1.24-.16.36-.09.13-.14.13-.4,0-.65,0l.61-.48-.44-.53-.09-.36-.08,0,.17.35c-.38-.15-.31.11-.3.33h0c-.26-.07-.5-.14-.16-.44,0,0,0-.18,0-.21a2.81,2.81,0,0,0-.76-.37c-.18,0-.4.17-.59.25s-.15.08-.17.06c-.27-.3-.59-.22-.93-.19-.09,0-.24-.21-.28-.36a2.28,2.28,0,0,0-.15-.55c0,.16-.06.33-.11.48a3,3,0,0,1-.16.31l-.2-.18L39.8,11a1.65,1.65,0,0,1,0,.36c0,.06-.07.11-.11.17s-.1-.1-.1-.13c0-.29-.08-.36-.34-.32a.46.46,0,0,1-.2,0,.89.89,0,0,1,.08-.17c.12-.26.25-.52.4-.82-.85.11-1.06.47-.82,1.19,0,.14-.07.33-.14.61L38.38,11c-.24-.08-.08.67-.48.21l-.11.31-.11,0a3.13,3.13,0,0,1,.19-.54,2.28,2.28,0,0,0,.33-.62c-.28.16-.66.26-.81.5s-.28.43-.58.5l.1-.35c-.71.32-.28-.39-.52-.52-.08-.05-.09-.3-.16-.31a.77.77,0,0,0-.39.12.68.68,0,0,0-.37,1c0,.07,0,.21-.08.32a2,2,0,0,0,0-.26s-.1,0-.15,0h0l-.44-.63a2.27,2.27,0,0,1,0,.48.48.48,0,0,1-.2.26c-.14.06-.36-.05-.35.23-.11,0-.28-.05-.31-.12a.35.35,0,0,1,.09-.31c.14-.09.34-.09.13-.3,0,0,0-.12,0-.18s-.27,0-.28.09c-.06.47-.49.46-.78.62a.32.32,0,0,1-.24-.11c-.11-.21-.19-.44-.28-.66l-.18,0a1,1,0,0,0-.78.86c0,.1-.2.18-.31.26,0-.12-.43,0-.18-.29,0-.08-.16-.35-.25-.53l-.4.6c.39.11.05.22,0,.3s-.12.08-.13.09l-.33-.44-.25-.27s-.08.08-.12.08a.94.94,0,0,0-.79.49h0l0-.33a2.45,2.45,0,0,0-.39,0c-.2.06-.39.14-.59.21l-.33.08c-.13,0-.33,0-.38,0s-.38.3-.55.46a1.52,1.52,0,0,1-1,.53c-.34,0-.65.44-1,.69a4.83,4.83,0,0,0-.42.37c-.05,0-.09.11-.14.11a2.87,2.87,0,0,1-.41-.05c0,.17.06.47,0,.48-.56.19-.54,1.07-1.26,1l.13-.33a1.57,1.57,0,0,0-.37.05s0,.13-.07.2l.32.07.11.09-.49.45,0-.31h0l.05.3c0,.07.12.17.1.21a2.71,2.71,0,0,0-.36,1.29c0,.18-.3.36-.05.6a1.06,1.06,0,0,0-.15.15,1.54,1.54,0,0,0-.22.42c0,.06.18.15.3.24-.71.39,0,1-.19,1.46l.11.09.07-.27.16.08c-.12.3-.23.61-.38.9,0,0-.24,0-.32,0-.33-.24-.34-.63-.46-1,0,.1-.09.2-.14.31s0,.09-.07.1a2.5,2.5,0,0,1-.25.09c.05.1-.19.38.18.33,0,0,.09.16.07.21-.22.38-.45.75-.7,1.17,0-.13-.12-.26-.1-.36.07-.37,0-.4-.34-.25a1,1,0,0,1-.35,0,1.07,1.07,0,0,0,.06-.29c0-.39-.12-.79-.13-1.18a.8.8,0,0,1,.23-.5c.19-.17.29-.27,0-.39h0c-.23-.42.1-.71.25-1-.67-.16-1.14.33-1.68.56-.05,0,0,.13-.07.19s0,.44-.31.29l-.17.41a.66.66,0,0,1,.25.07.36.36,0,0,1,.15.25,7.27,7.27,0,0,1-.22.8,1.38,1.38,0,0,1-.17.47c-.26.31,0,.48.14.7h0a1,1,0,0,1-.52-.86c.05-.32.15-.63.17-.95,0-.09-.19-.19-.3-.28l.29,0-.06-.24-.25.23c-.17-.25-.08-.41.13-.59.46-.41.45-.42.16-.71a1,1,0,0,1-.06.18l-.21.31a1.47,1.47,0,0,1-.13-.44,1.74,1.74,0,0,1,.11-.51h-.31c.11-.23.23-.45.33-.68a1.45,1.45,0,0,0,.06-.3l-.38.09a2.17,2.17,0,0,1,0-.44c0-.05.13-.08.2-.11l.15,0c-.19-.39.12-.65.28-1l-.13-.08-1.47,1.9.14.11.19-.39c.08.59.54.95.45,1.5a.78.78,0,0,1-.09.21,6.9,6.9,0,0,0-.47.77c-.09.21-.08.46-.15.68,0,.05-.15.08-.23.11s-.05-.22,0-.27c.19-.21.39-.39-.12-.36a1.88,1.88,0,0,1,0-.48c.1-.25.2-.49,0-.74s.3-.56,0-.93c-.17-.21-.07-.67,0-1a4.51,4.51,0,0,1,.27-.86l-.15-.08-.74.91a3.38,3.38,0,0,1,.7-2l0,.49c.31-.24.28-.23.19-.57a1.34,1.34,0,0,1,.12-.6c0-.07.14-.1.16-.17a1.46,1.46,0,0,0,0-.3c-.08.06-.19.1-.23.17-.25.42-.48.86-.73,1.27,0,0-.18,0-.28,0a.66.66,0,0,1,.06-.2,4.52,4.52,0,0,0,.75-1.09,1.49,1.49,0,0,1,.33-.68h0L16,12.6l0-.06-.37.2a3.21,3.21,0,0,0-.07-.43,1,1,0,0,0-.14-.3.87.87,0,0,0-.21-.17c.09-.05.19-.09.28-.15a1.93,1.93,0,0,1,.36-.22,2,2,0,0,1,.83-.22c.52.06.63-.32.83-.63l.05,0L18,10a1,1,0,0,0,.88-.82h0c.27-.16.54-.32.8-.49.44-.3.44-.3.27-.88l-.56.41s-.15,0-.16,0S19.15,8,19.17,8c.29-.19.59-.36.89-.53.05,0,.16,0,.19,0,.25-.28.49-.58.73-.87,0,.2.08.5,0,.58-.43.34.08.57.06.84l.6-.11c-.56-.22-.53-.5-.28-.9.06-.1,0-.27,0-.42v-.3L21,6.59h-.83L20,6.42a4.57,4.57,0,0,0,.69-.51c.15-.16.19-.42.32-.6s.22,0,.34,0l-.18.21.12.06.05-.27c.09-.11.22-.2.26-.31s-.07-.21-.13-.31-.11,0-.16,0,.15-.17.18-.16a1.3,1.3,0,0,1,.44.27c.15.19.23.44.39.61a.52.52,0,0,0,.44.1,3.53,3.53,0,0,0,.65-.28l.38-.43.41.27.26-.61-.11-.06-.3.27a3.29,3.29,0,0,0,.33-.41.79.79,0,0,0,0-.28,4.36,4.36,0,0,0-.82.26c-.33.17-.55.55-1.1.54a4.44,4.44,0,0,1,.29-.37A14.13,14.13,0,0,1,24.36,3a5,5,0,0,1,1.34-.46c.07,0,.18,0,.21,0s.13-.37.38-.1a.72.72,0,0,0,.54-.22c.16-.36.31-.16.46-.05.35.27.64,0,.93-.13a1.72,1.72,0,0,1,1-.25c.28.05.63-.24.93-.41a1.15,1.15,0,0,1,1.27.08c0,.05.19,0,.28,0s.07-.24.35-.18.64-.25,1-.32a8.63,8.63,0,0,1,1,0c.31,0,.63,0,.95,0a1.91,1.91,0,0,1,.45.13l-.24,0c.06.05.16.15.18.14a1.42,1.42,0,0,0,.25-.24C36,.77,36.4.68,36.78.63s.77,0,1.15-.06c.54-.06,1.12.1,1.64-.27.1-.08.44.18.67.26s.25,0,.28,0c.17-.25.35-.24.6-.13s.34,0,.48,0,.58-.27.32.4c.23-.17.4-.35.44-.32.26.17.49-.38.73,0,0,.06.16.14.19.12.26-.19.48,0,.72,0s.34.13.34.39c0-.08.08-.19.14-.24a.89.89,0,0,1,.29-.09,1.94,1.94,0,0,1,0,.24c0,.13,0,.27,0,.41.18,0,.49,0,.53-.05.3-.65.87-.33,1.32-.39a.32.32,0,0,1,.23.14.57.57,0,0,0,.69.31.27.27,0,0,1,.17.06,1,1,0,0,1-.1.35c0,.08-.19.11-.25.18s-.16.24-.12.29.19.11.3.16a3.61,3.61,0,0,1,.44.22,2.06,2.06,0,0,1,.33.27c.21.16.41.33.61.5,0,0,.06.12.08.11.25,0,.58-.16.74-.06s.41.38.7.08c.09-.08.26-.07.54-.15-.47-.19-.82-.4-.59-.94.12.13.21.3.35.37s.2.5.52.16c.06-.06.31.07.48.11l-.12.39c.29-.2.47-.06.52.38l.34-.24a2.17,2.17,0,0,0,0,.44.3.3,0,0,0,.1.18c.08.06.23.09.27.17.15.31.26.1.29.06l.63.67h0l.82.2,0-.13s0,.08,0,.09c-.34.27-.33.26,0,.53s.44.46.66.69l-.29,0,0,.11.27-.15a2,2,0,0,1,.28.49,4,4,0,0,1,0,.6.3.3,0,0,0,.12.2.76.76,0,0,1,.39.64,3,3,0,0,0,.14.68.41.41,0,0,0,.34.16A1.78,1.78,0,0,0,57.06,9l0,0c-.06.23.16.5-.11.71,0,0,0,.2,0,.31l.39-.08c-.07.14-.16.24-.16.34s-.38.62.24.61c.05,0,.11.12.17.19h0l.25.53a6.12,6.12,0,0,1,.31-.56c0-.07.16-.1.24-.15s.07.12.1.19a2.51,2.51,0,0,1,.24.66c0,.16.27.4-.08.53,0,0,0,.12,0,.19s0,.08.07.12-.15,0-.17-.07-.08-.27-.15-.39a1.35,1.35,0,0,0-.3-.37s-.2,0-.2.05a2.22,2.22,0,0,0,.07.45c0,.13.15.27.14.39a.76.76,0,0,0,.27.73c.08.07,0,.33,0,.48s.18.53.3.88c.12-.21.21-.35.28-.5s.24-.49.6-.34c0,0,0-.05.08-.08v0c.07.24-.28.66-.58.73-.06,0-.12.14-.13.22a4,4,0,0,0,0,.5,2.29,2.29,0,0,1,.28-.09,1.42,1.42,0,0,1,.46-.06c-.83.25-.71,1-.31,1.69a.59.59,0,0,1,0,.27c0,.23,0,.45,0,.61a2.81,2.81,0,0,1,.39-.23.86.86,0,0,1,.27,0,.85.85,0,0,1-.09.24,3.58,3.58,0,0,1-.26.29h0a1.74,1.74,0,0,0-.22.61A12.81,12.81,0,0,0,59.63,20a4.35,4.35,0,0,0,.17-.51c0-.15.24-.33-.07-.43l.18-.36a1,1,0,0,1,0,1.29c-.15.25-.53.48-.19.84l.11,0a2.52,2.52,0,0,1-.12.29c-.2.39,0,.77,0,1.15s.32.85-.29,1.12a1,1,0,0,0,.11.73c.24.29,0,.37-.12.51l-.24.22.26,0,.35,0c-.16.28-.55.54,0,.76,0,0-.09.32,0,.38.32.33,0,.6,0,.9s.07.46-.31.33c0,0-.15.11-.14.13s.11.2.17.2c.44,0,.36.32.34.59,0,.08-.1.15-.15.23a1.74,1.74,0,0,1-.15-.26c0-.05,0-.11,0-.17s-.14.05-.17.1c-.26.34-.21.5.17.63,0,0,0,.14,0,.22l-.31,0V29l.31-.1c.16.81-.48,1.3-.74,1.94h0a1,1,0,0,1-.17-1.15c.06-.11,0-.3,0-.46-.13,0-.3,0-.37.12s-.34.23-.54,0c0,0-.18.06-.28.09.12-.26.36-.51,0-.81,0,.29-.58.54,0,.8,0,0,.05.08,0,.08a1.22,1.22,0,0,0-.42,1.16,7.65,7.65,0,0,1-.2,1.78,2.41,2.41,0,0,1-.42.67c0-.41.28-.84-.09-1.23,0,0,0-.08,0-.09s.14,0,.15-.06a1.54,1.54,0,0,0,0-.3,4,4,0,0,0-.33.24s0,.12,0,.18c-.17.15-.5.28-.07.53,0,0,0,.17,0,.27s-.06.37-.08.56h.35c.12.15.23.24.07.5a.67.67,0,0,0,.17.94h0c.31.64-.28.46-.58.61.42.18.41.3,0,.57a3.51,3.51,0,0,0-1,1.15c-.1.18.1.54.21.8,0,.07.26.08.38,0s.31-.07.43.18a1.66,1.66,0,0,0,.77.78c.16.08.19.06.1.23s.07.24.13.36a.3.3,0,0,0,.18,0c.1-.1.23-.22.24-.33a9.21,9.21,0,0,0,0-1.05l.21.09,0-.07h-.25l.39-.22.2.84v0c0,.18.2.53-.28.44,0,0-.13.14-.12.15a2.18,2.18,0,0,0,.25.28.63.63,0,0,1,.12-.11l.28-.23a2.59,2.59,0,0,0,.19.33.84.84,0,0,0,.38.25,2,2,0,0,0,.59-.07s0,0,0,0l-.27-.54L60,39h0l-.22.19c.06,0,.14.08.2.06.55-.13.4.32.45.57s-.11.25-.15.38-.2.36.16.33c0,0,.06.1.09.16-.51.15.08.31,0,.46l-.42.13s0,.12.08.13l.52.07,0,.23c.39-.31.1-.43-.14-.57l1-.12h0a5.14,5.14,0,0,0-.28,1,.8.8,0,0,0,.27.54,7,7,0,0,0,.72.57c0-.05,0-.13.09-.19l.29-.36a2.75,2.75,0,0,1,.15.36c.08.27.15.54.23.8-.23.16-.23.16.15.45l-.16-.45c.12.13.51,0,.39.39.15,0,.34.06.43,0,.38-.29.5-.28.73.13.08.14.26.24.31.39a.42.42,0,0,1-.13.38c-.52.13-.44.64-.63,1,0,0,.12.15.18.23l.11-.23c0-.08,0-.16.07-.24.35.11.37-.23.48-.4s.28-.48.68-.17c-.2-.41-.2-.41.41-.67,0,.6-.07.71-.69.83.24,0,.34.49.69.18l.14.24c0,.06-.14.14-.12.19a5.21,5.21,0,0,0,.3.74s.12,0,.19,0a8.87,8.87,0,0,0,.59.78,1.33,1.33,0,0,0,.42.18,1.16,1.16,0,0,1-.07-.31c0-.57-.2-.84-.79-.74l0,0,.24-.38a3.88,3.88,0,0,1-.46-.22,3.2,3.2,0,0,1-.27-.25c.34.24.29-.21.48-.27.42-.13.2-.41.12-.65a3,3,0,0,1-.13-.59c0-.05.06-.11.09-.17s.21.11.21.15a.78.78,0,0,0,.39.87c.15.1.1.53.15.8a1.23,1.23,0,0,0,.08.22l.24-.51c0,.2.49.45-.06.57a.86.86,0,0,0,0,.22c.63.07.15.74.52,1,.13.08.09.4.39.31h0c-.08.52.41.18.55.37a.58.58,0,0,0,.33,0l-.34.77,0-.07.45-.52.25.23c0,.19.17.46-.31.45-.21,0-.21.09-.08.28s0,.22.07.36l.48-.34.09.07a3.65,3.65,0,0,0-.46.65,2.74,2.74,0,0,0-.22.77s.17.1.27.16l-.07-.25.07,0,.36.6,0,0c-.13.22-.22.41.13.51,0,0,0,.32,0,.46s.24.53.38.85l.21-.39c.07.17.22.37.17.44-.24.37-.35.7,0,1,0,0,0,.19,0,.26a.74.74,0,0,0-.07.81c.14.29.44.69.07,1.07,0,0,.28.32.44.51-.28.15-.42.4-.14.78,0,.07,0,.26,0,.39s-.4.39.1.41l-.09.67c.06.21.29.56.2.78-.26.61,0,1.25-.2,1.84,0,.09-.14.15-.19.24s-.11.14-.09.18c.25.5,0,.9-.2,1.33a3.27,3.27,0,0,0-.23.77,2.33,2.33,0,0,1-.14.47c-.3.54-.62,1.07-.94,1.6a.38.38,0,0,1-.23.15c-.21.06-.32.13-.26.39,0,.1-.09.27-.19.35-.31.26-.41.74-.93.82-.19,0-.3.43-.49.62s-.3.07-.45.1l-.3.07.13.17s0,.09,0,.12c-.08.18-.77.38-1,.38a1.53,1.53,0,0,0-.68.2s.07.29,0,.38a3.06,3.06,0,0,1-.54.65,6.36,6.36,0,0,1-.69.46s-.12.09-.16.07c-.4-.18-.68.19-1,.22a.34.34,0,0,0-.15.07c.13.46-.3.36-.49.47a5.52,5.52,0,0,1-.8.31l-.65.23s-.06.07-.07.12c-.07.3-.11.32-.4.29a1.8,1.8,0,0,0-1.59.49c-.12.12-.33.44-.49,0a2.89,2.89,0,0,0-.44.18c-.06,0-.06.17-.09.26-.1.29-.26.44-.59.25a.46.46,0,0,0-.62.11.6.6,0,0,1-1-.11s-.12-.12-.14-.11c-.38.22-.38-.22-.51-.29-.24.22-.46.43-.7.61,0,0-.21-.13-.27-.1-.25.13-.48.3-.72.45-.06,0-.15.14-.17.13-.4-.26-.75.07-1.13.11-.15,0-.25.39-.41.57a1.27,1.27,0,0,1-.33.22l-.11-.25-.64,1h0c-.08-.19-.08-.48-.42-.31a2.74,2.74,0,0,1-.15-.4c0-.07,0-.16.06-.25l-.22,0,0,.3c0,.43-.17.69-.68.78l-.2-.12-.08.19-.43-.79-.09.36-.35.12.06.1ZM28.47,2.79l-.14-.19-.08.06.23.12.15.19.09-.06Zm1,1.29h-.32l.06.16.26-.16.16-.28-.12,0ZM56,50.22l.1.18.14-.15-.11-.07.12-.28a.4.4,0,0,1,.25.34s.08-.07.08-.1,0-.2-.07-.23-.17,0-.26,0l-.12-.09ZM60.68,55l.14.37.13-.12L60.67,55l-.17-.51-.14-.12,0,.33ZM18.8,18c-.15,0-.29,0-.43.06a1.16,1.16,0,0,0,0,.19l.34-.16s.05-.07.08-.1a.8.8,0,0,1,.13-.13,1,1,0,0,1,.24-.11s0-.07-.05-.07a.83.83,0,0,0-.29.1S18.8,17.87,18.8,18ZM3,57.59a3.2,3.2,0,0,0-.19-.37s-.1,0-.15,0l.11.23-.17.29.5.13ZM55.43,29a3.86,3.86,0,0,0,.2-.41s-.07-.09-.11-.14l-.35.34.23.18-.28.23.13.11ZM55,34.86l0-.21a1.38,1.38,0,0,0-.33.2s0,.16,0,.24l.27-.1.22.12Zm3.71,17.59-.2-.21-.09.09.3.11a1.35,1.35,0,0,0,.08.36,1.05,1.05,0,0,0,.28.22c0-.06.11-.14.1-.16a1.26,1.26,0,0,0-.22-.24ZM44.21,67.28l.2.17.06-.14-.27,0c0-.08.09-.19.17-.24a2,2,0,0,1,.34-.12l-.34-.07s-.11,0-.14,0-.23.17-.34.26Zm4.85-49.54.07.43.16-.06-.19-.39c0-.45,0-.9.06-1.36,0-.05-.08-.12-.13-.17s-.14.1-.14.16a10.29,10.29,0,0,0,0,1.11C48.86,17.56,49,17.65,49.06,17.74Zm4.28,13.1c0,.4-.4.8.06,1.24a4.32,4.32,0,0,0,.27-.42c.21-.37,0-.58-.27-.79l.16-.3s-.07-.05-.1-.08ZM17.45,11.6c-.12,0-.3,0-.35.12-.18.32-.31.44-.39,0a.35.35,0,0,0-.16,0c-.08.05-.14.12-.22.18.18.19.34.48.56.55s.62-.59.55-.84c.27-.07.27-.08,0-.42Zm2.4,7.85c0-.17-.44-.37,0-.53a1,1,0,0,0,0-.2c-.06,0-.13,0-.16,0a3.18,3.18,0,0,0-.41.41.26.26,0,0,0,.08.2,4.21,4.21,0,0,0,.49.09c0,.14-.58.91-.59,1s-.16.29-.25.43.11.25.18.38a1,1,0,0,0,.25-.2c.16-.25.28-.54.46-.78C20.24,19.85,20.24,19.72,19.85,19.45Zm-.13-6.58c0,.14,0,.27.06.41a.32.32,0,0,0,.1.13s.11,0,.12,0,.07-.33.11-.5l-.41,0,.45-.43s.09,0,.13,0c0-.15,0-.3,0-.45a.2.2,0,0,0-.17-.05l-.51.3c.13-.17.28-.32.4-.5s0-.17.05-.26-.18,0-.24,0a6.65,6.65,0,0,0-.62.41c-.17.13-.2.55-.06.62Zm2.22,1.74c.19.16.3.14.3-.13.22-.15.45-.3.66-.46,0,0,0-.12,0-.17s-.13,0-.15,0c-.43.52-.24-.11-.26-.16a1.43,1.43,0,0,1,.06-.43c-.14,0-.26.11-.34.08-.38-.13-.31,0-.27.31s-.13.42-.15.64-.46.57,0,.77ZM24.25,7c.1,0,.25,0,.3,0s0-.21,0-.33-.06-.29,0-.36a8.63,8.63,0,0,1,.68-.67L25,5.6c-.52.05-.95.52-1.53.36,0,0-.26.39-.21.44.23.25,0,.31-.13.4s-.48.33-.72.48c0,0-.1,0-.15,0l-.12-.11c-.09.12-.2.24-.28.37s.05.12.09.12c.19,0,.44.08.57,0,.46-.32,1.07-.46,1.29-1.08,0-.08.2-.11.3-.17l.15.65a2,2,0,0,0-.26.09,3.07,3.07,0,0,0-.31.17s0,.08,0,.08a.78.78,0,0,0,.35-.06C24.16,7.23,24.19,7.09,24.25,7ZM51.08,4.12a1.51,1.51,0,0,0-.14-.21c-.27.11-.54.23-.79.36a.21.21,0,0,0-.08.19,1,1,0,0,0,1.23.44c.09-.06.24-.06.32-.13A1.87,1.87,0,0,0,52,4.29s-.17-.22-.27-.33-.14,0-.15-.09c-.06-.21-.16-.35-.36-.17A1.13,1.13,0,0,0,51.08,4.12ZM18.33,16.28l-.08-.06c-.21.15-.6.31-.58.45,0,.36-.16.36-.4.39a1,1,0,0,0,0,.17c.53.07.51.27.19.61-.06.06,0,.27.06.4s.2.1.21.09a2.69,2.69,0,0,0,.3-.7c0-.2-.12-.44-.07-.64A3,3,0,0,1,18.33,16.28ZM2.5,50.82l-.15-.22a3.26,3.26,0,0,0-.65.8c-.06.15.16.42.26.64A.29.29,0,0,0,2.13,52C2.25,51.62,2.36,51.26,2.5,50.82Zm32.43-48-.06-.17-.2.08a1.4,1.4,0,0,1-.39.1c-.09,0-.19-.06-.28-.09-.06.14-.19.32-.15.43a.94.94,0,0,0,.36.35C34.47,3.31,34.7,3.06,34.93,2.83ZM35,40.1a1.06,1.06,0,0,0,.33-.08.94.94,0,0,0,.32-.23s0-.23,0-.24a.92.92,0,0,0-.48-.07,2.44,2.44,0,0,0-.52.45Zm20.7-4.9c.05-.05.11-.08.11-.11,0-.34.26-.54.43-.79,0,0-.13-.24-.19-.37a.88.88,0,0,0-.22.21,3.81,3.81,0,0,0-.29.61.77.77,0,0,0,0,.33S55.6,35.15,55.65,35.2ZM51.18,24a1.14,1.14,0,0,0,.07.33s.13.06.2.06.07-.09.08-.14a1,1,0,0,0,0-.3c0-.22-.07-.43-.1-.64-.09.19-.17.37-.25.56A.61.61,0,0,0,51.18,24ZM42,2.94l.09-.11S42,2.77,42,2.78a1.32,1.32,0,0,0-.41.21.39.39,0,0,0,0,.38c.09.17.23.22.31-.05,0,0,.26,0,.41,0ZM43,66.6a3.93,3.93,0,0,0-.26.62c0,.06.18.24.19.23.19-.14.37-.29.55-.44ZM31.08,4.14c.08-.06.17-.18.22-.17.35.11.28-.17.29-.33a.39.39,0,0,0-.12-.26,4.3,4.3,0,0,0-.57.2s0,.08,0,.12Zm17.36,1,.1-.19L48,4.54l-.21.35Zm20.5,44.23-.52-.64s-.12.05-.18.08c.16.24.32.47.49.69Zm-.79,1.21.06.09c.16-.08.45-.17.45-.23a2.64,2.64,0,0,0-.24-.62c0,.18-.1.35-.16.52A2.56,2.56,0,0,1,68.15,50.57ZM50.75,21.42h.68l-.14-.68ZM10.59,48.19v-.11a1.18,1.18,0,0,0-.43-.09.93.93,0,0,0-.39.21s0,.16.05.16a1.28,1.28,0,0,0,.39,0A2.39,2.39,0,0,0,10.59,48.19ZM50.46,17.07l.2-.08-.39-1a.14.14,0,0,0-.09,0,.26.26,0,0,0,0,.17ZM53.3,6.15a1.75,1.75,0,0,1,0-.25c.07-.38-.24-.29-.43-.34h-.12c.1.13.19.26.3.38A2,2,0,0,0,53.3,6.15Zm2.08,2.63.14-.12-.69-.89-.13.11ZM16,15.64l.12.14L17,15l-.09-.11Zm7-9.12c-.18-.1-.3-.21-.36-.19a3.92,3.92,0,0,0-.5.33c.07,0,.15.16.2.14A6.1,6.1,0,0,0,23,6.52ZM48.56,15l-.12,0,.14.82C49.1,15.44,48.67,15.24,48.56,15Zm-.86-.45.21.05.19-.53-.36,0ZM67.13,67.58,67,67.46c-.24.16-.48.32-.71.5,0,0,0,.11,0,.16s.08.06.09,0ZM25.42,60l.19-.05-.21-1-.18,0ZM12.33,52l.21.36c.09-.09.28-.21.27-.26a1.31,1.31,0,0,0-.28-.35ZM55.6,33.89c-.52,0-.75.12-.53.55Zm-14,42.43a1.92,1.92,0,0,0,.37,0,1.57,1.57,0,0,0,.25-.2c-.07-.07-.19-.22-.2-.22a4.45,4.45,0,0,0-.48.38S41.6,76.34,41.58,76.32Zm23-8.35-.17,0a1,1,0,0,0,.07.43c0,.09.2.12.31.16s.06-.08.05-.1C64.71,68.33,64.62,68.15,64.53,68ZM55,29.07c-.41.12-.46.25-.28.76ZM62.89,58.8l-.36.17.32.24ZM51.28,22.64c.1-.11.2-.19.19-.22a2.71,2.71,0,0,0-.21-.37,1.17,1.17,0,0,0-.2.34C51.05,22.44,51.18,22.53,51.28,22.64ZM.91,52l.2-.3a2.16,2.16,0,0,0,.17-.34s-.12-.11-.13-.1a1.35,1.35,0,0,0-.28.35C.83,51.64.89,51.76.91,52Zm9.53,15.35v-.2l-.52-.06c0,.09,0,.24,0,.24A4.26,4.26,0,0,0,10.44,67.31Zm10.17-58c.29.09.64.35.71-.25Zm-4.46,5.61c0-.09-.11-.19-.15-.28a1.89,1.89,0,0,1-.09-.21c-.05,0-.13.08-.16.13C15.51,15.05,16.05,14.77,16.15,14.93ZM51.09,27.15l-.14.09a3,3,0,0,0,.15.48c0,.05.12.07.18.08s.12-.08.11-.09ZM21.9,56.94l-.31.15a.93.93,0,0,0,.31.22c.05,0,.15-.14.23-.22ZM3.42,50.53l-.06-.6C2.94,50.21,2.94,50.29,3.42,50.53ZM2,50.19c-.07.13-.11.23-.16.32s-.1.13-.15.2.2,0,.23,0a1,1,0,0,0,.22-.35S2,50.26,2,50.19ZM49.39,15l.25.34c0-.05.14-.11.13-.14a4,4,0,0,0-.21-.41Zm8.68,36.71,0,.16a4.15,4.15,0,0,0,.34.24.84.84,0,0,0,.19.08c0-.11,0-.27,0-.3A3.27,3.27,0,0,0,58.07,51.67ZM64.59,64l0-.52-.33.22Zm4-13.13-.06,0a.65.65,0,0,1,.11.22s-.06.14,0,.17a.94.94,0,0,0,.23.16,3.34,3.34,0,0,0-.1-.43C68.69,51,68.62,50.93,68.57,50.88Zm-50-38.56a2.16,2.16,0,0,0,.26-.39s-.06-.14-.1-.22a4.15,4.15,0,0,0-.24.34S18.47,12.17,18.52,12.32ZM45.84,76.19l.18.18c0-.13.11-.26.15-.39a.8.8,0,0,0,0-.27s-.07,0-.1-.07l-.13.21C45.92,76,45.89,76.08,45.84,76.19Zm.51-74.34.26-.3a2,2,0,0,0-.34-.12s-.11.11-.1.15A1.14,1.14,0,0,0,46.35,1.85Zm-.18,11.48.07.07a1.46,1.46,0,0,0,.36-.16s0-.18-.05-.28Zm-29,3.54c.05-.23.1-.42.13-.62l-.12,0c0,.19-.08.37-.11.56ZM62.58,58.13c.21-.16.6-.26.24-.59ZM50.94,22.86V23h.52v-.1Zm.62,1.76c-.09-.08-.17-.18-.2-.17a1,1,0,0,0-.24.18c.08.06.15.15.24.17S51.47,24.7,51.56,24.62Zm-34.62-11,.17,0,.06-.51H17C17,13.25,17,13.42,16.94,13.58ZM55.89,28l-.21-.32a1.1,1.1,0,0,0-.17.29s.12.14.2.16S55.82,28.07,55.89,28ZM46.23,12.33v-.15h-.39l0,.23ZM6.59,61.62c-.12-.08-.2-.16-.25-.15s-.11.12-.16.18a1,1,0,0,0,.21.09C6.44,61.75,6.49,61.69,6.59,61.62Zm13-51.91.16,0,.18-.5-.12,0Zm3.44-1V8.61h-.45c0,.07.06.19.08.19S22.92,8.76,23.05,8.74ZM47.05,2c.08-.1.17-.16.16-.21a2,2,0,0,0-.13-.31c-.07.06-.2.12-.19.16A1.33,1.33,0,0,0,47.05,2ZM51.29,66.7c-.11.09-.25.16-.24.2s.12.16.18.24a1.74,1.74,0,0,0,.15-.26S51.34,66.78,51.29,66.7ZM21.48,5.94a1.47,1.47,0,0,0-.3-.18s-.1.08-.15.13a2.65,2.65,0,0,0,.26.21S21.39,6,21.48,5.94ZM59.17,28c-.14-.09-.21-.17-.25-.16a2.83,2.83,0,0,0-.4.17c.08.05.16.15.24.15A1.74,1.74,0,0,0,59.17,28ZM53.87,6.83c.08-.1.19-.18.18-.23a.84.84,0,0,0-.19-.24c0,.08-.14.16-.15.24S53.79,6.74,53.87,6.83Zm-38,12v-.24a1.82,1.82,0,0,0-.3-.11s-.11.12-.09.16a.48.48,0,0,0,.16.23C15.66,18.93,15.76,18.88,15.83,18.86Zm41.33,9,.13,0,.09-.54h-.13ZM54.83,7.43l0-.18-.44.14s0,.07,0,.11Zm-38.47,6.9.07-.14L16,14.11l0,.16ZM25,4.34h-.18l.05.45.13,0C25,4.63,25,4.48,25,4.34ZM51.6,26c-.07-.08-.13-.18-.16-.17a1.22,1.22,0,0,0-.26.16c.07.05.12.14.19.15S51.5,26,51.6,26Zm-9.22-14.8-.1-.09-.24.47.12.06Zm-26.6,4.9-.09-.21c-.06.06-.16.12-.16.18s.07.17.11.25ZM21,56.54c-.07.13-.14.21-.13.24a1.78,1.78,0,0,0,.21.27s.12-.11.11-.14A1.86,1.86,0,0,0,21,56.54Zm6.29-46.07H27.2v.46c.06,0,.16,0,.16-.07A1.71,1.71,0,0,0,27.33,10.47Zm-11,3,.16.22a1.92,1.92,0,0,0,.09-.32.52.52,0,0,0-.08-.19Zm1.13-.34-.1,0-.13.58.15,0Zm.77,58.53.17-.05-.18-.32a.6.6,0,0,0-.11.06A2.85,2.85,0,0,0,18.26,71.68ZM6.72,62.9l-.14-.08-.19.39.14.07Zm54.17-7V56l.39.11,0-.21Zm-8.82-24,.12.09.32-.43-.09-.08Zm-32.59-18-.13-.1-.29.48.1.06ZM56.05,31.11l.11.11.32-.35-.11-.11Zm3.73,9,.14.1c.06-.11.11-.21.16-.32l-.1-.07A3,3,0,0,0,59.78,40.12ZM56.05,72.39a2.35,2.35,0,0,0-.12.33s0,0,.08.08a1.77,1.77,0,0,0,.17-.24S56.12,72.48,56.05,72.39Zm4.86-26.46-.06.09.38.25a.93.93,0,0,0,.1-.15Zm-.8,8,0-.12-.37.21.06.1Zm-15,13L45,66.77c-.05,0-.15.09-.15.13a.29.29,0,0,0,.11.18S45.08,67,45.15,67ZM17,14.47l.12,0,.21-.42-.1,0ZM68.53,64.63l.07.1.31-.19a.56.56,0,0,0-.07-.15ZM17.08,13.88c-.09-.07-.16-.14-.17-.13s-.15.15-.22.22.1.11.12.1ZM11,51.2l.33-.34c-.14,0-.27-.11-.41-.15s-.13.08-.12.09ZM65.89,63l-.22.22.37.14s.09-.07.08-.08ZM22.38,10l.15.05.08-.37c-.05,0-.15,0-.15,0A1.77,1.77,0,0,0,22.38,10ZM49.24,66.69l-.09,0L49,67a.71.71,0,0,0,.17,0C49.21,66.9,49.22,66.79,49.24,66.69ZM23.92,59.82c0-.08.11-.16.1-.18a2.31,2.31,0,0,0-.24-.2s-.1.11-.09.12A1.72,1.72,0,0,0,23.92,59.82ZM51,19.46l0-.12a2.29,2.29,0,0,0-.28.09l0,.11Zm-30.36-.33-.11,0c0,.12-.09.23-.12.34l.11,0ZM4.36,50.46l-.18-.16c0,.05-.08.1-.08.14a.7.7,0,0,0,.1.16Zm-2.1,6.62.12,0,.13-.4-.17,0ZM49,75.57c-.05.08-.1.13-.09.16s.07.1.11.15a.88.88,0,0,0,.12-.17S49.09,75.64,49,75.57Zm7.72-64.83-.22-.26c0,.06-.11.12-.11.18s.08.12.14.14S56.67,10.77,56.74,10.74ZM18.43,16l.06-.11-.33-.17s-.05.12,0,.12Zm28.4,27.14c-.09-.06-.15-.12-.17-.11a.55.55,0,0,0-.19.14s.07.13.09.12A2,2,0,0,0,46.83,43.18ZM5.5,49.87a1.74,1.74,0,0,0-.12.32s.07.06.12.09a1.8,1.8,0,0,0,.08-.21S5.56,50,5.5,49.87ZM52.69,47c-.13,0-.18-.06-.23-.05s-.06.06-.09.09.08.09.13.09S52.58,47,52.69,47Zm-34-31a.72.72,0,0,0,.08-.24.19.19,0,0,0-.07-.11,1.18,1.18,0,0,0-.19.11ZM32.21,4.8l-.07-.1a2,2,0,0,0-.23.17s0,.08,0,.12ZM56.5,50.31v.12l.35,0s0-.05,0-.08Zm-3.56-1.26c-.09-.06-.15-.14-.2-.14s-.13.08-.2.12.11.12.16.13S52.83,49.1,52.94,49.05ZM19.08,14.64a.63.63,0,0,0-.22-.05s-.08.07-.08.08.08.11.11.11S19,14.72,19.08,14.64ZM61.87,44v-.12l-.34,0v.08ZM25.21,6.89A1.22,1.22,0,0,0,25,6.71s-.08.08-.13.11a1.12,1.12,0,0,0,.21.17S25.12,7,25.21,6.89ZM50.74,20.4a.72.72,0,0,0-.14.25s0,.09.08.13a1.88,1.88,0,0,0,.12-.18S50.77,20.51,50.74,20.4ZM69.32,63.65l-.13-.09-.14.28s.06.06.1.08ZM46.11,44.57l.1,0,.13-.3-.08,0ZM52,5.09l.12,0,.15-.38-.1,0Zm-1.9,16.78.12.08c0-.11.1-.21.14-.32s-.06,0-.1-.06ZM46.91,13l.15.15a1.8,1.8,0,0,0,.2-.19s0-.07-.06-.11ZM59.53,53.1l-.11-.05-.18.4.11,0ZM1,53.33l-.11,0-.17.35.11,0ZM50.1,23.57c-.05.1-.1.16-.09.18a.55.55,0,0,0,.14.12c0-.05.08-.09.08-.13S50.17,23.66,50.1,23.57Zm16,43.64-.11,0,.1.33.1,0ZM17.59,71.44a1.73,1.73,0,0,0-.21-.17s-.1.08-.1.11a.28.28,0,0,0,.11.13S17.49,71.48,17.59,71.44Zm51-6.67c-.06.1-.12.14-.11.18s.07.08.1.12.08-.06.08-.09A.82.82,0,0,0,68.57,64.77ZM50.83,47a.42.42,0,0,0-.08.17s.06.1.08.09a.49.49,0,0,0,.15-.1ZM25.45,7.58c-.09-.07-.14-.13-.18-.13a.17.17,0,0,0-.14.09s.05.13.07.13A2,2,0,0,0,25.45,7.58Zm-10.35,46a.81.81,0,0,0,0,.26s.06.07.09.11.09-.12.1-.18S15.18,53.64,15.1,53.54ZM46.93,73l0,.1L47.3,73l0-.1ZM14.11,51.63l0,.08.42.1,0-.11Zm44.71-3.54-.12,0,.12.29s.09,0,.08,0S58.85,48.19,58.82,48.09Zm-47,3.13-.13,0-.06.36h.09C11.76,51.45,11.79,51.34,11.83,51.22Zm54.29,11.3.06.07.24-.2,0-.06ZM48.55,44.43a1.09,1.09,0,0,0,.05-.17l-.05,0a.8.8,0,0,0-.08.16ZM2,56a1.77,1.77,0,0,0-.17-.12L1.74,56l.13.18ZM46.74,73.74l-.12.08a.77.77,0,0,0,.07.16c.05,0,.13,0,.13-.08S46.78,73.8,46.74,73.74ZM5.9,60.94c-.12,0-.17,0-.2,0a.29.29,0,0,0-.12.1s.1.1.11.09S5.79,61.06,5.9,60.94Zm57-2.32L63,58.5c-.06,0-.11-.1-.18-.11s-.09.07-.14.11ZM5.64,50.47l.1.13c0-.05.11-.09.15-.14s0-.07,0-.11Zm44.64,25h.15l-.08-.31-.08,0C50.27,75.25,50.28,75.34,50.28,75.44Zm-16-34.68-.23-.17s-.08.09-.07.13.06.09.11.1S34.23,40.8,34.33,40.76ZM16.51,14.52l-.08-.06a.31.31,0,0,0-.05.12.4.4,0,0,0,0,.15Zm25.5,29,.06-.13-.3-.09s-.05.06-.07.09Zm-8.95-32.9-.11.08.16.25s.08-.07.07-.09A1.79,1.79,0,0,0,33.06,10.64Zm-15,4.79,0,.1s.07.08.11.08a.64.64,0,0,0,.17,0Zm-2.75.47c.06-.1.12-.15.11-.19s-.06-.08-.1-.12-.07.06-.07.1S15.27,15.78,15.31,15.9ZM25.41,6c-.06,0-.1,0-.11,0a.69.69,0,0,0-.13.11s.08.08.09.07A1,1,0,0,0,25.41,6ZM55.12,50.8,55,50.64s-.13.09-.15.14.06.1.09.15ZM52.55,5.25l-.13-.08c0,.1-.08.2-.11.3s0,0,.07,0ZM28.24,2.48c.06-.1.12-.15.12-.19s-.07-.08-.1-.12a.42.42,0,0,0-.08.12S28.21,2.38,28.24,2.48ZM57.56,51.11l-.08,0-.21.29.08.06ZM52.45,19.16h.07l0-.25h-.05Zm-11-14.34c-.14-.06-.19-.1-.21-.09a.13.13,0,0,0-.08.1s.05.09.06.09A1.57,1.57,0,0,0,41.48,4.82ZM58,47.69l.15-.11a.85.85,0,0,0-.19-.14s-.07,0-.11.06ZM56.81,73.21c-.1,0-.16-.06-.19,0s-.06.08-.09.13.09.07.13.07S56.73,73.29,56.81,73.21ZM23.14,8.27c-.09,0-.14,0-.18,0a.5.5,0,0,0-.14.08s.09.1.14.11S23.05,8.35,23.14,8.27ZM50.92,46.46s.09.11.13.1.11-.08.1-.12-.06-.09-.1-.14ZM56,72.15c-.06,0-.1-.08-.12-.07l-.17.11s.06.09.07.08A1,1,0,0,0,56,72.15Zm-4.45-45-.09.07a2.11,2.11,0,0,0,.19.23l.09-.08ZM66.23,68.47l-.1-.14s-.07,0-.07.08a1,1,0,0,0,0,.17ZM35.44,2.84s-.07-.07-.09-.06-.09.07-.09.1a.37.37,0,0,0,.09.14ZM64.53,44.49c-.07.2-.11.26-.1.3a.18.18,0,0,0,.14.08s.11-.06.1-.08A1.35,1.35,0,0,0,64.53,44.49ZM61.86,54.84a1,1,0,0,0-.16-.1s-.06,0-.09.06l.16.15ZM49.42,28a1.08,1.08,0,0,0,0,.25s0,0,.08.08.06-.07.06-.1A1.28,1.28,0,0,0,49.42,28Zm-3.3,39.51.12,0-.13-.28-.07,0ZM33.82,3.4l-.15-.1s0,.08,0,.11,0,.06.08.09ZM49.68,28.68c-.07,0-.11-.08-.13-.07l-.14.11s.08.09.11.09A.76.76,0,0,0,49.68,28.68ZM9.55,66.57c-.11,0-.15,0-.19,0a.47.47,0,0,0-.15.06s0,.12.08.12S9.39,66.66,9.55,66.57ZM46.33,4.5c-.06,0-.09-.1-.12-.1a.46.46,0,0,0-.13.08s.05.09.07.09A.41.41,0,0,0,46.33,4.5ZM8.89,63.92l-.19-.09a.3.3,0,0,0,0,.1,1.3,1.3,0,0,0,.1.15Zm47-30.23c.06-.09.13-.14.12-.18a.79.79,0,0,0-.12-.15s-.09.06-.09.08A2,2,0,0,0,55.9,33.69ZM7,62.36c0,.08-.07.14-.06.19s.07.07.11.11.08-.09.07-.13S7.1,62.44,7,62.36Zm46.77-27s.1-.09.1-.11a1.09,1.09,0,0,0-.08-.15s-.11.07-.12.1S53.77,35.25,53.81,35.32ZM34,38.63l0-.08-.26-.09v0Zm4.95-2.54a.26.26,0,0,0-.07.12s0,.09,0,.13.09-.07.11-.11S38.93,36.15,38.9,36.09ZM61.89,60l-.06,0,.1.07s0,0,0-.06ZM37.2,37.38l-.11-.05s-.05.05-.05.06l.09.08ZM4.42,59.69l-.09-.12a.27.27,0,0,0-.08.07s0,.06,0,.07S4.36,59.7,4.42,59.69ZM38,36.08,37.9,36a.5.5,0,0,0-.13.12s0,.07.06.1Zm16.88-.69a2.41,2.41,0,0,0,0,.26s.06.07.08.1a.28.28,0,0,0,.07-.13S54.92,35.53,54.86,35.39ZM3.94,59.11l-.08,0a.55.55,0,0,0,.15.08s.06,0,.09,0Zm4.42,4.13-.1-.11s-.07.07-.07.11.05.06.08.1Zm33-52.3c0,.06-.05.09-.05.13s.05,0,.08.07.06-.07.06-.1S41.42,11,41.38,10.94ZM42.7,3.63c-.06,0-.11,0-.12,0a.76.76,0,0,0-.11.14s0,.06.07.09Zm-8,38.64.18-.12-.06-.09-.15.1S34.67,42.22,34.68,42.27Zm2.55-31.66,0-.08-.16.06,0,.08ZM34.48,42.78l.17-.11s0-.09-.07-.08a.17.17,0,0,0-.11.06S34.47,42.71,34.48,42.78ZM21.55,10.48l0-.1a.74.74,0,0,0-.12.13s0,0,0,.07Zm26.2,33.13.1-.11,0-.06-.17.13Zm-1.13-31-.11-.08a.8.8,0,0,0-.08.16l.08.07ZM32.76,3.45l-.09-.08s0,0-.06,0l.09.08ZM36.37,67c-.09,0-.13,0-.15,0l-.14.11s.08,0,.11,0A1.36,1.36,0,0,0,36.37,67Zm11.26.22,0-.09a.73.73,0,0,0-.09.08l0,.07ZM68,67.27l-.1-.06s0,.06,0,.08a.27.27,0,0,0,.08.07ZM60,54.45l-.11-.09s-.05,0-.06.09l0,0S60,54.47,60,54.45ZM31.57,2.86l.07.08s.08-.07.08-.1a1.06,1.06,0,0,0-.1-.12ZM65.29,68.3l0,0s-.08,0-.09.07,0,.1,0,.16ZM49.66,27.47a.8.8,0,0,0,.08-.12.12.12,0,0,0,0-.08s-.09,0-.1.05S49.63,27.39,49.66,27.47ZM2.24,54l-.1-.1a.19.19,0,0,0,0,.08,1.17,1.17,0,0,0,.05.11Zm12.35,15.9-.13.06s0,.08.08.09.07,0,.11-.05Zm2.21,1.35.07,0c0-.08-.05-.15-.07-.23l-.08,0ZM1.89,53.68a1,1,0,0,0-.06.2s.07.09.08.08.1-.07.11-.11S2,53.77,1.89,53.68ZM55.72,9.21c0-.07.08-.11.08-.14A.94.94,0,0,0,55.71,9s-.09.06-.09.09S55.68,9.13,55.72,9.21Zm4,44.25s-.09-.07-.11-.06-.06.05-.09.08.06.08.08.08S59.71,53.5,59.76,53.46ZM21.2,72.69h.07l0-.31h-.07Zm41-25.63-.11-.16S62,47,62,47a.38.38,0,0,0,.11.14ZM19.33,72.82l-.06,0,.12.26.07,0ZM15.17,53l0-.06s-.06-.07-.1-.08a.53.53,0,0,0-.17,0ZM3.93,52.76l.09,0A.16.16,0,0,0,4,52.65a.12.12,0,0,0-.08,0ZM47.14,13.62l.11.07a.13.13,0,0,0,0-.07s0-.07-.07-.1Zm6.55,34.09a.57.57,0,0,0-.14.11s0,.06.07.1l.13-.1S53.72,47.76,53.69,47.71Zm4.21,3.91-.07,0a.6.6,0,0,0-.06.11,1.33,1.33,0,0,0,0,.2ZM25.25,74.68l.08.11s.08,0,.08-.07a.34.34,0,0,0-.05-.11Zm.22-67.92.11-.11a1.47,1.47,0,0,0-.1-.13s-.08.05-.08.08A.64.64,0,0,0,25.47,6.76Zm33.6,11h.09l-.1-.3-.09,0Zm-40.6-.49s-.08,0-.09,0a.32.32,0,0,0-.08.14s0,0,.07.07ZM40.58,4.93,40.52,5l.09.06s0,0,0-.08ZM55.2,51.29c0-.08.06-.13,0-.17s-.06-.06-.09-.09a.51.51,0,0,0-.07.15S55.14,51.24,55.2,51.29ZM47,76l-.1-.09a.41.41,0,0,0-.1.13s0,.07.07.1Zm2.07-61.87L49,14a.21.21,0,0,0-.09.1s0,.06.05.1ZM17.65,15.79s-.08-.08-.11-.07-.06,0-.09.08l.12.1ZM55.23,49.27s-.09,0-.09,0a.17.17,0,0,0-.06.11s.06,0,.09.06ZM54.28,6.74a.13.13,0,0,0,0-.08.17.17,0,0,0,0-.07l0,.07S54.28,6.71,54.28,6.74Z" transform="translate(-0.28 -0.28)"/><path d="M7.44,41l.14.39.59-.22a10.07,10.07,0,0,1,0,1.1c0,.09-.21.2-.34.22a2.22,2.22,0,0,1-.68,0,1.19,1.19,0,0,1-.39-.16l.31-.15s.11-.07.1-.08C6.93,41.72,7.36,41.43,7.44,41Zm.32.82s-.08-.07-.11-.07-.06.05-.09.08.06.09.08.08S7.71,41.9,7.76,41.86Z" transform="translate(-0.28 -0.28)"/><path d="M6.66,43c-.16.38-.32.76-.5,1.13,0,.07-.18.08-.27.11a.58.58,0,0,1-.09-.28c0-.33,0-.66,0-1A.33.33,0,0,1,6,42.73c.06,0,.17,0,.24,0,.24-.12.44-.22.33.19Z" transform="translate(-0.28 -0.28)"/><path d="M13.39,18.37c-.38-.06-.27-.4-.28-.6,0-.68,0-1.37,0-2,0-.47.32-.17.51-.15h0c-.05.15-.11.29-.17.43s-.13.25-.17.38.08.12.12.18a.66.66,0,0,0,.14-.15,2.7,2.7,0,0,1,.31-.58c-.11.28.34.62-.08.85h0c-.15,0-.46-.05-.3.3h0l-.23.6h0c0,.28,0,.55.07.83Z" transform="translate(-0.28 -0.28)"/><path d="M5.66,44.31c-.06.17-.08.43-.22.55a1,1,0,0,1-.59.16c-.08,0-.24-.16-.24-.17a10.75,10.75,0,0,1,.63-1c.17-.23.29-.12.33.11Z" transform="translate(-0.28 -0.28)"/><path d="M14.22,18.06c-.17.19-.36.37-.53.58s-.29.42-.46.68c-.15-.4-.2-.71.16-.95h0l.91-.95-.07.64Z" transform="translate(-0.28 -0.28)"/><path d="M56.63,34.69c-.08-.42.6-1.39,1-1.41a.26.26,0,0,1,.19.12c0,.05,0,.15-.08.2-.22.24-.46.47-.69.7-.05.05-.11.1-.12.15-.06.28,0,.28-.32.23Z" transform="translate(-0.28 -0.28)"/><path d="M65.53,43.66c-.1.24-.19.5-.31.73,0,0-.34,0-.38-.14a.6.6,0,0,1,0-.51.52.52,0,0,1,.67-.08Z" transform="translate(-0.28 -0.28)"/><path d="M21.63,21.42l-.22,1.25C20.91,22.43,21,22,21.63,21.42Z" transform="translate(-0.28 -0.28)"/><path d="M3.65,44.94c.15-.15.3-.3.44-.46a3.21,3.21,0,0,0,.21-.3l-.24-.1L4.13,44c.17.12.45.21.49.37s-.11.4-.44.32c-.07,0-.22.31-.33.48Z" transform="translate(-0.28 -0.28)"/><path d="M17.79,9.43c.34-.16.67-.46,1.1-.22h0c-.13,0-.31,0-.4.13s-.31.46-.47.69l-.23-.59Z" transform="translate(-0.28 -0.28)"/><path d="M17.79,9.43a1.62,1.62,0,0,0-.38.09.82.82,0,0,0-.22.16c-.07.06-.13.15-.21.18s-.15-.09-.16-.15a.26.26,0,0,1,.09-.22,4,4,0,0,1,.53-.39s.1.07.14.12l.2.21Z" transform="translate(-0.28 -0.28)"/><path d="M13.68,20.74c.15-.34.29-.68.77-.65-.15.27-.3.54-.47.81a3.18,3.18,0,0,1-.3-.17Z" transform="translate(-0.28 -0.28)"/><path d="M7.43,46.91l.82-.6a.15.15,0,0,1,.12,0c0,.07,0,.18,0,.21-.24.2-.5.39-.76.58Z" transform="translate(-0.28 -0.28)"/><path d="M35.9,42.47l-.2.49a2.63,2.63,0,0,1-.35-.41c0-.06.12-.21.18-.32Z" transform="translate(-0.28 -0.28)"/><path d="M34,42.94a4.11,4.11,0,0,1-.42.21,2.58,2.58,0,0,1-.39.14.85.85,0,0,1,.1-.33c.09-.1.24-.22.35-.21A1,1,0,0,1,34,42.94Z" transform="translate(-0.28 -0.28)"/><path d="M48.69,1.72a8.39,8.39,0,0,1,.8.26c.08,0,.1.2.14.31-.12,0-.29.08-.36,0A4.66,4.66,0,0,1,48.69,1.72Z" transform="translate(-0.28 -0.28)"/><path d="M59.24,13.12c.07.12.15.21.13.24a4.15,4.15,0,0,1-.3.43l-.3-.34Z" transform="translate(-0.28 -0.28)"/><path d="M34.41,37.75v-.26l.8,0v.15Z" transform="translate(-0.28 -0.28)"/><path d="M14,19.8c.06-.2.09-.4.16-.58s.15-.13.23-.2a.61.61,0,0,1,0,.26C14.33,19.7,14.32,19.7,14,19.8Z" transform="translate(-0.28 -0.28)"/><path d="M29.66,11.22l.25.27c0,.45-.4.23-.58.38,0,0-.08-.07-.07-.08a1.22,1.22,0,0,1,.12-.19C29.48,11.48,29.57,11.35,29.66,11.22Z" transform="translate(-0.28 -0.28)"/><path d="M46.31,45.25a.64.64,0,0,1,0,.24c0,.13-.11.34-.2.36s-.11-.13-.1-.23a3.11,3.11,0,0,0,0-.43l.29.08Z" transform="translate(-0.28 -0.28)"/><path d="M2.47,48.58l.06.53L2,49v-.12Z" transform="translate(-0.28 -0.28)"/><path d="M32.3,10.64l.18,0a3.6,3.6,0,0,1,0,.58c0,.07-.17.1-.25.15a1.39,1.39,0,0,0,.06-.19C32.27,11,32.28,10.83,32.3,10.64Z" transform="translate(-0.28 -0.28)"/><path d="M15.93,21.45l-.42.51a1.19,1.19,0,0,1-.16-.2,2.81,2.81,0,0,1,.39-.38S15.83,21.41,15.93,21.45Z" transform="translate(-0.28 -0.28)"/><path d="M44.74,44.81a3.84,3.84,0,0,1,.48,0,.72.72,0,0,1,.23.12,1.24,1.24,0,0,1-.18.21c-.05,0-.14,0-.2-.06s-.23-.12-.35-.18Z" transform="translate(-0.28 -0.28)"/><path d="M57.64,10.4a2.05,2.05,0,0,1-.1-.54c0-.11.12-.21.18-.31.05.1.15.22.13.31a3.07,3.07,0,0,1-.22.54Z" transform="translate(-0.28 -0.28)"/><path d="M17.53,10.59l-.05,0-.75.33C16.9,10.46,17,10.42,17.53,10.59Z" transform="translate(-0.28 -0.28)"/><path d="M49.94,47.9c.09-.42-.36-.09-.42-.3h0s.09-.07.09-.1,0-.21,0-.31a2,2,0,0,1,.38.33c.05.08,0,.24,0,.36Z" transform="translate(-0.28 -0.28)"/><path d="M70,51.17a.38.38,0,0,0,.39-.5.71.71,0,0,1,0-.25c.06.07.19.16.18.21-.07.23-.17.46-.26.68L70,51.15Z" transform="translate(-0.28 -0.28)"/><path d="M49.08,19.84l.18.16-.44.59A.61.61,0,0,1,49.08,19.84Z" transform="translate(-0.28 -0.28)"/><path d="M1.23,48.75c.11,0,.19.12.25.1a.94.94,0,0,0,.3-.15s0,.12,0,.13c-.2.12-.41.22-.61.32A.37.37,0,0,1,1.13,49,1.74,1.74,0,0,1,1.23,48.75Z" transform="translate(-0.28 -0.28)"/><path d="M6.52,43.8l.57-.38.11.16L6.63,44Z" transform="translate(-0.28 -0.28)"/><path d="M58.16,38.61l.18-.64c.1.08.2.72.07.78s-.17-.1-.26-.15Z" transform="translate(-0.28 -0.28)"/><path d="M9.77,68.44a.6.6,0,0,1-.23,0c-.06,0-.11-.1-.16-.15s.15-.07.21-.06.31.29.44,0l.19.1s-.07.12-.12.14-.22,0-.33,0Z" transform="translate(-0.28 -0.28)"/><path d="M17.14,22.44c.38.25,0,.47-.1.71L17,22.62Z" transform="translate(-0.28 -0.28)"/><path d="M6,42.17l.45-.49.16.15-.45.49Z" transform="translate(-0.28 -0.28)"/><path d="M18.76,22a3.73,3.73,0,0,1-.48.27s-.11-.07-.16-.11l.41-.32S18.63,21.87,18.76,22Z" transform="translate(-0.28 -0.28)"/><path d="M48.14,17.79a4.37,4.37,0,0,1,.09.5s-.14.07-.22.11L48,17.84Z" transform="translate(-0.28 -0.28)"/><path d="M47.71,46.69c0-.08-.08-.19-.06-.26a1.6,1.6,0,0,1,.23-.3l.06.32c0,.08,0,.16,0,.24h-.22Z" transform="translate(-0.28 -0.28)"/><path d="M48.43,46.25l.08.34-.56.22,0-.11h0Z" transform="translate(-0.28 -0.28)"/><path d="M42.63,11.79l.49.4s-.1.13-.11.12L42.47,12Z" transform="translate(-0.28 -0.28)"/><path d="M18.48,20.59a4.06,4.06,0,0,1-.44.21s-.12-.09-.18-.15a1,1,0,0,1,.3-.23C18.22,20.4,18.33,20.51,18.48,20.59Z" transform="translate(-0.28 -0.28)"/><path d="M14.06,13.2l.11-.52.18.06c0,.17-.08.33-.12.5Z" transform="translate(-0.28 -0.28)"/><path d="M20.06,6.48l-.37.3-.1-.12c.1-.11.2-.22.3-.31S20,6.4,20.06,6.48Z" transform="translate(-0.28 -0.28)"/><path d="M61.42,41s.06,0,.06-.06.06-.2.08-.3c.06.07.17.12.19.2a1,1,0,0,1,0,.33L61.42,41Z" transform="translate(-0.28 -0.28)"/><path d="M27.41,11.79l.33-.08c.37.4-.25.25-.25.45Z" transform="translate(-0.28 -0.28)"/><path d="M4.84,46.86l-.22.38s-.16-.11-.15-.12a2.39,2.39,0,0,1,.21-.34Z" transform="translate(-0.28 -0.28)"/><path d="M2.62,61a2.61,2.61,0,0,1-.27-.31s0-.18,0-.21a.27.27,0,0,1,.22,0s0,.12,0,.19,0,.24,0,.36Z" transform="translate(-0.28 -0.28)"/><path d="M18,19l.52-.16,0,.09-.55.14Z" transform="translate(-0.28 -0.28)"/><path d="M14.08,21.61l.24-.56.12.05-.26.59Z" transform="translate(-0.28 -0.28)"/><path d="M71.47,53.06v.66h-.12l0-.67Z" transform="translate(-0.28 -0.28)"/><path d="M17.59,19.65l.46.28C18,19.79,17.48,20.32,17.59,19.65Z" transform="translate(-0.28 -0.28)"/><path d="M58.59,38.92l.44-.23.07.11-.43.24Z" transform="translate(-0.28 -0.28)"/><path d="M13.8,16.68c.36.14.08.31,0,.46L13.53,17h0l.3-.3Z" transform="translate(-0.28 -0.28)"/><path d="M13.3,17.56l.08,0,.32-.17,0,.2H13.3Z" transform="translate(-0.28 -0.28)"/><path d="M71.23,52.54l.25.11-.35.16Z" transform="translate(-0.28 -0.28)"/><path d="M15.08,11.23l-.41.26s-.06-.05-.08-.08l.39-.33Z" transform="translate(-0.28 -0.28)"/><path d="M57.51,54.16h.11v.26l-.35-.07Z" transform="translate(-0.28 -0.28)"/><path d="M15.82,20.32c0,.07.09.16.07.21a.69.69,0,0,1-.19.23,1,1,0,0,1,0-.25.94.94,0,0,1,.12-.18Z" transform="translate(-0.28 -0.28)"/><path d="M53.1,50.51c.07,0,.17,0,.22,0a.31.31,0,0,1,.12.2s-.08.08-.12.12l-.11-.17a1.24,1.24,0,0,1-.1-.2Z" transform="translate(-0.28 -0.28)"/><path d="M53.88,74.64l-.21.39s-.1,0-.1-.06.11-.27.17-.4Z" transform="translate(-0.28 -0.28)"/><path d="M34.71,76.7s0,.1,0,.14a2,2,0,0,0,.07.26s-.13,0-.13,0-.11-.27-.16-.4h.22Z" transform="translate(-0.28 -0.28)"/><path d="M14.58,11.75l-.2.22c-.05-.06-.15-.13-.15-.18s.09-.15.14-.23Z" transform="translate(-0.28 -0.28)"/><path d="M70.29,49.38a2.76,2.76,0,0,1,.15.34s-.1.1-.11.1-.16-.12-.18-.19S70.22,49.5,70.29,49.38Z" transform="translate(-0.28 -0.28)"/><path d="M57.06,9,57,8.54c.27.16.39.3.06.47Z" transform="translate(-0.28 -0.28)"/><path d="M12,49.46l.18-.11.29.28-.14.13C12,49.9,12.11,49.56,12,49.46Z" transform="translate(-0.28 -0.28)"/><path d="M1.44,58.88l-.27-.29a.55.55,0,0,1,.07-.09l.39.19Z" transform="translate(-0.28 -0.28)"/><path d="M16.09,10.71l.37-.22s.06.06.09.1l-.37.25Z" transform="translate(-0.28 -0.28)"/><path d="M59.82,20.8l-.11,0,.32-.55.1.07Z" transform="translate(-0.28 -0.28)"/><path d="M14.22,18.07c0,.09.14.2.12.27a1,1,0,0,1-.23.33l-.07,0c0-.1.07-.2.11-.31a2.68,2.68,0,0,0,.07-.27Z" transform="translate(-0.28 -0.28)"/><path d="M70.79,52l.1-.52H71l-.08.54Z" transform="translate(-0.28 -0.28)"/><path d="M9.12,68.71l.36-.14a.74.74,0,0,1,0,.15l-.35.1Z" transform="translate(-0.28 -0.28)"/><path d="M51.16,49.6h.51l-.22.32-.29-.32Z" transform="translate(-0.28 -0.28)"/><path d="M4.25,48c-.06-.1-.12-.18-.1-.21a.8.8,0,0,1,.21-.2s.11.07.1.07A2.92,2.92,0,0,1,4.25,48Z" transform="translate(-0.28 -0.28)"/><path d="M13.6,22.23l.12-.45h.09l0,.47Z" transform="translate(-0.28 -0.28)"/><path d="M61.56,42.16,61.9,42a.64.64,0,0,1,0,.15l-.33.15Z" transform="translate(-0.28 -0.28)"/><path d="M13.64,14.91c.06-.13.11-.26.18-.38s.08,0,.13,0l-.19.42Z" transform="translate(-0.28 -0.28)"/><path d="M17.72,22.9l.13-.63.11,0-.12.63Z" transform="translate(-0.28 -0.28)"/><path d="M13.34,50.76l-.09-.59.13,0,.07.59Z" transform="translate(-0.28 -0.28)"/><path d="M59,55.83l-.37-.17.08-.13.34.22Z" transform="translate(-0.28 -0.28)"/><path d="M17.14,22.44l-.18.18c-.25-.28.1-.37.19-.55h0C17.14,22.2,17.14,22.32,17.14,22.44Z" transform="translate(-0.28 -0.28)"/><path d="M57.31,53.6a1.81,1.81,0,0,1-.19-.29s.06-.05.09-.08l.23.28Z" transform="translate(-0.28 -0.28)"/><path d="M26.91,76l.21-.43.11,0-.25.45Z" transform="translate(-0.28 -0.28)"/><path d="M32,61.08h.4v.12l-.4,0Z" transform="translate(-0.28 -0.28)"/><path d="M8.23,66.14l0,.41H8.13l0-.41Z" transform="translate(-0.28 -0.28)"/><path d="M14.11,14.1l.35-.18,0,.11-.36.16Z" transform="translate(-0.28 -0.28)"/><path d="M58.84,30.84v.35l-.12,0c0-.1.09-.21.13-.32Z" transform="translate(-0.28 -0.28)"/><path d="M1,49.76l.54-.12L1,50l0,0Z" transform="translate(-0.28 -0.28)"/><path d="M13.47,19.71c0,.1,0,.21,0,.31a.62.62,0,0,1-.16,0l0-.33Z" transform="translate(-0.28 -0.28)"/><path d="M14.89,13.48c-.18.14-.25.21-.32.22s-.11-.08-.16-.13.13-.16.21-.19S14.77,13.43,14.89,13.48Z" transform="translate(-0.28 -0.28)"/><path d="M42.88,43.59l.15.17-.4.18-.05-.09.32-.25Z" transform="translate(-0.28 -0.28)"/><path d="M4.08,63a.9.9,0,0,1,.15-.18s.11,0,.17.08l-.33.1Z" transform="translate(-0.28 -0.28)"/><path d="M4.72,62.25l-.33.19,0-.18h.36Z" transform="translate(-0.28 -0.28)"/><path d="M15.83,10.22c-.09.09-.13.17-.19.19s-.11-.06-.16-.1a1,1,0,0,1,.16-.13S15.73,10.2,15.83,10.22Z" transform="translate(-0.28 -0.28)"/><path d="M48.22,29.32c.51.28-.15.25-.11.4Z" transform="translate(-0.28 -0.28)"/><path d="M17.16,23.9l.34-.18.06.12-.34.15Z" transform="translate(-0.28 -0.28)"/><path d="M3.36,47.92c0-.14-.08-.19-.07-.23a1,1,0,0,1,.14-.15s.06.08.06.11A1.46,1.46,0,0,1,3.36,47.92Z" transform="translate(-0.28 -0.28)"/><path d="M24.23,74.45a.61.61,0,0,1,0,.13,3,3,0,0,1,0,.31h-.13a2.46,2.46,0,0,1,.07-.29.52.52,0,0,1,.06-.13Z" transform="translate(-0.28 -0.28)"/><path d="M59.36,16.68l.28-.15s.06.14,0,.15-.17.08-.25.12Z" transform="translate(-0.28 -0.28)"/><path d="M23.44,57.67s0,0,0-.05-.1-.25-.16-.38l.13-.05c0,.16,0,.32,0,.48Z" transform="translate(-0.28 -0.28)"/><path d="M8.42,41.8l.18-.29.1.06-.16.3Z" transform="translate(-0.28 -0.28)"/><path d="M30.84,76.36l-.19.34-.12-.07.22-.32Z" transform="translate(-0.28 -0.28)"/><path d="M13.66,15.57l.12-.38.16.09-.29.29Z" transform="translate(-0.28 -0.28)"/><path d="M1,57.32l-.32.19,0-.11c.1-.07.21-.12.31-.18Z" transform="translate(-0.28 -0.28)"/><path d="M24.91,58.13l-.17,0,.14-.38Z" transform="translate(-0.28 -0.28)"/><path d="M57.58,11.09l.33-.2L58,11l-.4.05Z" transform="translate(-0.28 -0.28)"/><path d="M29.47,76.26l0,.35H29.4v-.36Z" transform="translate(-0.28 -0.28)"/><path d="M11.32,49.37c-.25-.35.28-.11.24-.31l0,.21h0l-.3.09Z" transform="translate(-0.28 -0.28)"/><path d="M37,43.9l.18-.23.11.13-.22.19Z" transform="translate(-0.28 -0.28)"/><path d="M19.66,73.91l-.28-.08a.8.8,0,0,1,.21,0s.07,0,.11.07Z" transform="translate(-0.28 -0.28)"/><path d="M3,61.89,2.88,62l-.18-.08.06-.1A1.34,1.34,0,0,1,3,61.89Z" transform="translate(-0.28 -0.28)"/><path d="M43.52,32.79l-.13,0c.06-.25.15-.45.43-.17h0Z" transform="translate(-0.28 -0.28)"/><path d="M49.36,48.54l.31.07s-.05.08-.08.08-.16,0-.25,0Z" transform="translate(-0.28 -0.28)"/><path d="M43.23,11.74c-.13.08-.18.13-.23.13s-.08-.06-.12-.09a.26.26,0,0,1,.11-.07A1,1,0,0,1,43.23,11.74Z" transform="translate(-0.28 -0.28)"/><path d="M21.05,73.37l.31.1-.06.11-.24-.22Z" transform="translate(-0.28 -0.28)"/><path d="M53.07,3.55l.09.32-.07,0L53,3.58Z" transform="translate(-0.28 -0.28)"/><path d="M56.54,53.78a2.35,2.35,0,0,1,.19-.25l.1.06-.21.25Z" transform="translate(-0.28 -0.28)"/><path d="M47.91,46.7l0,.11L47.9,47l-.19-.33Z" transform="translate(-0.28 -0.28)"/><path d="M9.7,69.15v-.38h.08l0,.38Z" transform="translate(-0.28 -0.28)"/><path d="M43.87,12.57l.33.11-.08.12-.23-.24Z" transform="translate(-0.28 -0.28)"/><path d="M13.22,14.86v.34h-.1l0-.34Z" transform="translate(-0.28 -0.28)"/><path d="M45,45.64l.11.21a.46.46,0,0,1-.14-.07s0-.07,0-.11Z" transform="translate(-0.28 -0.28)"/><path d="M22.9,72.65l-.29.39h0l.1-.3v0l.2-.1Z" transform="translate(-0.28 -0.28)"/><path d="M13.68,20.73l-.1.38-.11-.05.21-.32Z" transform="translate(-0.28 -0.28)"/><path d="M19.1,54.81c-.07,0-.11.11-.15.11s-.08-.05-.13-.08.06-.12.11-.14S19,54.75,19.1,54.81Z" transform="translate(-0.28 -0.28)"/><path d="M15.83,20.33v-.27l.18,0-.18.23Z" transform="translate(-0.28 -0.28)"/><path d="M51.16,49.05v.55h0c0-.18,0-.36,0-.55Z" transform="translate(-0.28 -0.28)"/><path d="M.64,49.3l0,.3H.6l0-.3Z" transform="translate(-0.28 -0.28)"/><path d="M38.13,43.61l-.19.24-.07,0,.17-.27Z" transform="translate(-0.28 -0.28)"/><path d="M16,19.81a1.21,1.21,0,0,1-.25.13s-.07-.06-.11-.1.09-.08.14-.08A.63.63,0,0,1,16,19.81Z" transform="translate(-0.28 -0.28)"/><path d="M65.53,43.66l.16-.18.06.17Z" transform="translate(-0.28 -0.28)"/><path d="M61.78,40.35l.17-.16s.06.1,0,.12a.8.8,0,0,1-.13.13Z" transform="translate(-0.28 -0.28)"/><path d="M59.66,18.07a.58.58,0,0,1,.22,0c.07,0,.11.08.16.13a.39.39,0,0,1-.08.1.91.91,0,0,1-.16-.11l-.14-.11Z" transform="translate(-0.28 -0.28)"/><path d="M2.62,61l.09.47H2.58l0-.48Z" transform="translate(-0.28 -0.28)"/><path d="M49.71,48.08l-.15.27a.7.7,0,0,1,0-.16s.09-.07.14-.1Z" transform="translate(-0.28 -0.28)"/><path d="M52.23,49.43l0,.32-.08,0,.14-.28Z" transform="translate(-0.28 -0.28)"/><path d="M50.16,76.34l-.31,0v-.08l.3.06Z" transform="translate(-0.28 -0.28)"/><path d="M13.8,50.43c0,.1.08.13.07.16a1.54,1.54,0,0,1,0,.17l-.1,0C13.73,50.65,13.76,50.58,13.8,50.43Z" transform="translate(-0.28 -0.28)"/><path d="M50.65,48.92l-.07-.1.14-.12.08.11Z" transform="translate(-0.28 -0.28)"/><path d="M27.3,76.14l0,.27h0l-.06-.27Z" transform="translate(-0.28 -0.28)"/><path d="M26,76l-.1-.15a.25.25,0,0,1,.12,0s0,0,.08.08Z" transform="translate(-0.28 -0.28)"/><path d="M53.65,75.46c0-.09,0-.14,0-.19s.06-.06.1-.09a.94.94,0,0,1,0,.16S53.7,75.4,53.65,75.46Z" transform="translate(-0.28 -0.28)"/><path d="M2.79,48.13A.45.45,0,0,1,2.68,48s.06-.08.07-.08L2.9,48Z" transform="translate(-0.28 -0.28)"/><path d="M19,19.36v.22l-.11,0,.12-.16Z" transform="translate(-0.28 -0.28)"/><path d="M53.78,5.09l.11-.22L54,5l-.23.08Z" transform="translate(-0.28 -0.28)"/><path d="M45.92,13.86c-.06,0-.11,0-.13,0a.69.69,0,0,1-.07-.15s.1,0,.13,0S45.89,13.79,45.92,13.86Z" transform="translate(-0.28 -0.28)"/><path d="M22.67,73.59l.15-.3.12.07-.28.22Z" transform="translate(-0.28 -0.28)"/><path d="M49.52,47.6l-.24.18-.07-.1.31-.07Z" transform="translate(-0.28 -0.28)"/><path d="M45,13.21a.64.64,0,0,1,.07.19s0,.07-.05.11-.12-.06-.12-.1S44.94,13.31,45,13.21Z" transform="translate(-0.28 -0.28)"/><path d="M71.23,52.54l-.1.27C71,52.66,71,52.66,71.23,52.54Z" transform="translate(-0.28 -0.28)"/><path d="M14.47,22.66l.17.27-.07.05-.19-.26Z" transform="translate(-0.28 -0.28)"/><path d="M56.61,53.34l-.16.13,0,0,.16-.14Z" transform="translate(-0.28 -0.28)"/><path d="M47.42,46.26l.09.23h-.07l0-.23Z" transform="translate(-0.28 -0.28)"/><path d="M19,23.12l.15-.24a.71.71,0,0,1,0,.2s-.06.06-.1.09Z" transform="translate(-0.28 -0.28)"/><path d="M9.16,46l-.08.1S9,46,9,46s0-.07.06-.11Z" transform="translate(-0.28 -0.28)"/><path d="M15.39,13.09l-.15-.37.1,0,.05.39Z" transform="translate(-0.28 -0.28)"/><path d="M8.08,67.68a.53.53,0,0,1-.18.07s-.06,0-.09-.06.08-.08.13-.1S8,67.63,8.08,67.68Z" transform="translate(-0.28 -0.28)"/><path d="M17.06,10.14s-.1.09-.13.08-.07-.06-.11-.09.07-.08.1-.08S17,10.09,17.06,10.14Z" transform="translate(-0.28 -0.28)"/><path d="M58.13,55l-.09.1a1.08,1.08,0,0,1-.11-.18l.1-.07Z" transform="translate(-0.28 -0.28)"/><path d="M43.48,44.59l-.26-.05v0h.26Z" transform="translate(-0.28 -0.28)"/><path d="M65.48,44.05a1.13,1.13,0,0,1,0,.25,1.21,1.21,0,0,1-.1.14.49.49,0,0,1,0-.16A1.76,1.76,0,0,1,65.48,44.05Z" transform="translate(-0.28 -0.28)"/><path d="M43.38,12.56l-.12-.09s.07-.08.1-.07.09,0,.13.07Z" transform="translate(-0.28 -0.28)"/><path d="M28.75,11.79l0,.18-.13,0,.16-.16Z" transform="translate(-0.28 -0.28)"/><path d="M44.4,64.34s-.08.07-.09.06a.38.38,0,0,1-.11-.11s0-.08,0-.12Z" transform="translate(-0.28 -0.28)"/><path d="M4,63.49l-.26.16,0-.08.26-.16Z" transform="translate(-0.28 -0.28)"/><path d="M15.44,11.27a.91.91,0,0,1-.17.12.49.49,0,0,1-.08-.1.84.84,0,0,1,.14-.06S15.39,11.25,15.44,11.27Z" transform="translate(-0.28 -0.28)"/><path d="M60,39l-.05-.39H60c0,.13,0,.26,0,.39Z" transform="translate(-0.28 -0.28)"/><path d="M60.79,60.71l.09.22-.21,0h0Z" transform="translate(-0.28 -0.28)"/><path d="M32.68,38.93c0-.07-.07-.11-.06-.13s.05-.07.08-.1.07,0,.07,0A.75.75,0,0,1,32.68,38.93Z" transform="translate(-0.28 -0.28)"/><path d="M35.19,11.32l-.18.09,0-.11h.2Z" transform="translate(-0.28 -0.28)"/><path d="M60.61,57.81l-.17.27L60.36,58l.26-.18Z" transform="translate(-0.28 -0.28)"/><path d="M4.07,63l.21.28-.11.05L4.08,63Z" transform="translate(-0.28 -0.28)"/><path d="M31.91,11.52l.09.08s-.07.07-.08.06a.24.24,0,0,1-.08-.09Z" transform="translate(-0.28 -0.28)"/><path d="M6,64.15c0-.05.06-.1.1-.11s.08,0,.08,0a.61.61,0,0,1,0,.12Z" transform="translate(-0.28 -0.28)"/><path d="M37.11,43.23h0v.26h-.09Z" transform="translate(-0.28 -0.28)"/><path d="M6.2,65.84l.17.14s0,0-.06,0a1.77,1.77,0,0,1-.17-.12Z" transform="translate(-0.28 -0.28)"/><path d="M66.53,43.6l-.06-.07a.44.44,0,0,1,.08-.11s.07.06.06.08S66.56,43.56,66.53,43.6Z" transform="translate(-0.28 -0.28)"/><path d="M59,56.58a.71.71,0,0,1,.12.15s0,.06,0,.1-.09-.07-.11-.11S59,56.64,59,56.58Z" transform="translate(-0.28 -0.28)"/><path d="M57.63,10.4l-.15.09,0-.14.19.05Z" transform="translate(-0.28 -0.28)"/><path d="M16.24,10.29l-.21,0s0-.07,0-.08a.2.2,0,0,1,.12-.06S16.17,10.23,16.24,10.29Z" transform="translate(-0.28 -0.28)"/><path d="M67.74,45.05c0,.1,0,.15,0,.2a.22.22,0,0,1-.07.06s-.06-.08-.06-.12S67.68,45.13,67.74,45.05Z" transform="translate(-0.28 -0.28)"/><path d="M16.1,9.77l.07.05-.06.11L16,9.87Z" transform="translate(-0.28 -0.28)"/><path d="M18.58,23.2l.06-.37a.55.55,0,0,1,.05.17S18.66,23.07,18.58,23.2Z" transform="translate(-0.28 -0.28)"/><path d="M15.24,21.08l.12.09a.53.53,0,0,1-.12.1s-.08-.06-.08-.09S15.21,21.12,15.24,21.08Z" transform="translate(-0.28 -0.28)"/><path d="M17.88,21a.57.57,0,0,1,.07.12l-.13.12s-.07-.06-.06-.07A.53.53,0,0,1,17.88,21Z" transform="translate(-0.28 -0.28)"/><path d="M17.5,73.07s0,0,0,.05l-.06.06-.06-.08Z" transform="translate(-0.28 -0.28)"/><path d="M59.85,73.08l.17,0s0,0,0,.06,0,0-.07,0A.51.51,0,0,1,59.85,73.08Z" transform="translate(-0.28 -0.28)"/><path d="M5.31,47.09l-.17.08,0,0,.2,0Z" transform="translate(-0.28 -0.28)"/><path d="M18,19.43c-.07,0-.12.09-.14.08a.29.29,0,0,1-.1-.12s.05-.06.08-.1Z" transform="translate(-0.28 -0.28)"/><path d="M49.93,47.89c0,.11.12.43-.22.19h0l.22-.19Z" transform="translate(-0.28 -0.28)"/><path d="M52.2,48.66l-.25.12,0-.07.27-.05Z" transform="translate(-0.28 -0.28)"/><path d="M33.09,76.57c0,.12.06.16,0,.19s0,.07-.08.11S33,76.82,33,76.8A.92.92,0,0,1,33.09,76.57Z" transform="translate(-0.28 -0.28)"/></g></g></svg>