<svg xmlns="http://www.w3.org/2000/svg" viewBox="0 0 73.24 77.01"><defs><style>.cls-1{fill:#2d2c86;}</style></defs><title>xxiv-two-lustrumweek</title><g id="Layer_2" data-name="Layer 2"><g id="Layer_3" data-name="Layer 3"><path d="M63.16,70.66c-.24.14-.64.13-.75,0h0c.14-.44-.34-.39-.47-.61-.08.1-.16.26-.21.25s-.3-.14-.29-.19a2.84,2.84,0,0,1,.21-.54c-.4.2-.7.21-.41-.49l-.16,0a2.54,2.54,0,0,0-.16.38c0,.1,0,.22,0,.32s-.13,0-.2,0,.08-.19,0-.23a.54.54,0,0,0-.29-.17,2.82,2.82,0,0,0-.58,0c-.19,0-.4.08-.27-.25-.1,0-.24-.12-.3-.09s-.13.2-.2.32c-.2-.43-.22-.43-1.08.19,0-.44-.1-.55-.53-.41-.2.06-.68.23-.51-.39,0-.13-.15-.33-.24-.49a.24.24,0,0,0-.14,0,1.15,1.15,0,0,0-.12.25c-.12.36-.31.53-.67.27h0l-.39-.19a2.84,2.84,0,0,1-.3.37.85.85,0,0,1-.28.1l.15-.21a.28.28,0,0,0,.06-.1c-.09-.06-.2-.2-.26-.18a1,1,0,0,1-1.2-.22.26.26,0,0,0-.27,0c-.46.45-1-.14-1.47.15a.59.59,0,0,1-.35.1c-.1,0-.18-.23-.27-.23a1,1,0,0,0-.39.2.59.59,0,0,1-.83-.08l-.15.14c-.09.08-.15.25-.27,0,0-.08-.44,0-.67,0a.62.62,0,0,1-.27,0c-.06,0-.11-.11-.14-.18a.78.78,0,0,1,0-.22,1.37,1.37,0,0,0-.18.16,2,2,0,0,1-1.49.26c-.07-.06,0-.25,0-.38,0-.34-.06-.69-.1-1.11a3,3,0,0,0-.7.52,1.43,1.43,0,0,1-1.36.44c-.34,0-.37.13-.4.38s.08.76-.46.32l-.09,0c-.2.39-.47.06-.71.08a8.28,8.28,0,0,0-.87.12s-.08.1-.12.15h0c-.28,0-.53-.19-.84,0-.13.06-.66.25-.34-.43l-.24.22c-.26.17-.46.76-.85.07-.08-.13-.43-.51-.8-.18a.44.44,0,0,1-.37-.14c-.11-.23-.48-.25-.43-.58,0,0-.17-.15-.2-.13a1,1,0,0,0-.29.26,2.32,2.32,0,0,0-.22.41s0,.11,0,.16a.74.74,0,0,1-.2,1L37,69.31c0-.27-.05-.28-.46-.1l-.11.3c-.12-.19-.59,0-.49-.4l-.32.16.14.25,0,0-.2.3h0c-.25,0-.57.34-.75-.19-.13-.37-.31,0-.45.08a3.28,3.28,0,0,1-.67.45c-.1,0-.29-.21-.48-.36L33.1,70,33,70v-.34l-.1,0a1,1,0,0,1-.1.35,6.3,6.3,0,0,1-.48.55c-.08-.13-.25-.35-.22-.38.27-.28,0-.31-.15-.31s-.39-.38-.53,0c0,.06-.11.09-.17.14a1.83,1.83,0,0,0-.08-.25c0-.09-.07-.17-.1-.26l-.08.22-.19-.15a1.09,1.09,0,0,0-.17-.13c0,.09-.07.22,0,.26a.83.83,0,0,0,.29.1c0,.18-.39.3-.09.53-.12.13-.22.36-.34.38-.43,0-.87,0-1.29,0a4.5,4.5,0,0,0-1.75.41c-.34.21-.77.16-1,.47a.14.14,0,0,1-.11,0c-.5-.53-.9.13-1.35.12-.29,0-.62-.05-.85.26,0,0-.34-.23-.53,0a1.44,1.44,0,0,1-.22.27.28.28,0,0,1-.23,0c-.09-.05-.16-.21-.23-.2s-.52-.15-.5.3c0,.08-.32.16-.48.26s-.42.13-.58-.13a.67.67,0,0,0-.3-.22s-.13.13-.17.22a1.83,1.83,0,0,0-.11.33c0-.06-.1-.19-.11-.18l-.52.27c0-.14,0-.33,0-.51s-.1-.09-.16-.14a1.27,1.27,0,0,0-.06.18c0,.23-.05.46-.08.69h-.14v-.72h-.17a2.32,2.32,0,0,1,0,.53.8.8,0,0,1-.34.42v-.85l-.08,0a4.81,4.81,0,0,0-.35.77c-.12.43-.48.38-.75.36s-.49-.16-.68.15c0,0-.11,0-.16,0-.25-.08-.25-.08-.32.11s-.09.12-.14.19a1.15,1.15,0,0,1,0-.26c0-.08.1-.13.13-.2s.08-.24.12-.36l-.11,0c.14.26-.54,0-.23.35.05.07-.09.28-.14.43l-.45-.16.18-.1-.24-.11.07.22-1,.56a.85.85,0,0,1-.28.1l-.51.09.05-.35a3.55,3.55,0,0,0-.55.06c-.11,0-.19.16-.3.23a1.38,1.38,0,0,1-.27.14,2.44,2.44,0,0,0,0-.27s0-.09-.07-.13-.12,0-.13.08a1.49,1.49,0,0,1-1.11.71,4.51,4.51,0,0,0-1,0c-.11,0-.2.21-.31.31a1.61,1.61,0,0,0-.15-.36s-.14,0-.19,0l-.16.47-.36-.16c0,.42-.27.59-.67.37l-.12-.07c-.11.47-.78.12-.89.6H8l-.33.12c0-.08.11-.16.15-.24s.05-.14.08-.2-.18-.07-.22,0c-.32.24-.62.5-.83.68a3.59,3.59,0,0,0-.8-.3c-.09,0-.23.22-.32.36a2.38,2.38,0,0,0-.16.4l-.2-.18a1.55,1.55,0,0,0,0-.31c0-.16,0-.38-.07-.47s-.44-.38-.71,0a.35.35,0,0,1-.33,0,1.61,1.61,0,0,0-1.64.12,1.08,1.08,0,0,1-.36,0c.05-.08.12-.15.17-.24l.2-.37a.35.35,0,0,0,.13,0,1.29,1.29,0,0,0,.4-.07s0-.19,0-.29a1.69,1.69,0,0,0-.39.08c-.08,0-.13.12-.2.18l-.31.09-.09-.11L2.27,75a.92.92,0,0,0-.28,0,.31.31,0,0,0-.18.11l-.32.39-.26-.56v0c0-.53-.07-.61-.5-.34s-.3-.28-.52-.21l.15-.94.21,0-.14.9c.41-.3.14-.85.55-1.07l.53-.54-.2-.12L1,73.22c-.2.11-.29.08-.38-.16s.08-.21.19-.31c.29-.23.52-.52.79-.78s.71-.63,1-1c.09-.09.1-.26.15-.39a3,3,0,0,0-.39.14.22.22,0,0,0-.06.07c-.22.34-.43.41-.57-.16-.15.3-.23.54-.36.74s-.25.33-.37.33,0-.2-.06-.28a5.13,5.13,0,0,0-.34-.52c-.13-.25-.07-.37.16-.57.07-.06.06-.21.13-.29a.65.65,0,0,1,.34-.24,1.5,1.5,0,0,0,1.25-1.3c.27.16.52.3.77-.05.12-.16.32,0,.42.13s-.07.18-.09.18c-.37-.1-.15.36-.37.39.1.13.18.31.31.38a.6.6,0,0,0,.5,0c.55-.36.26.15.33.29L4,70l.14.17.21-.24a5.72,5.72,0,0,0,.46-.37c.17-.14.24-.27-.08-.32a1.56,1.56,0,0,1-1-.57A1.46,1.46,0,0,0,4.9,67.52c.06-.22.32-.38.49-.56h-.3c.08-.19.15-.52.24-.53.43,0,.28-.45.47-.65s.29-.35.58-.17a.43.43,0,0,0,.41,0c.28-.32.52-.68.71-.92,0,.35.4.07.44,0a.91.91,0,0,1,.76-.36.35.35,0,0,0,.2-.12c.12-.16.15-.47.48-.25,0,0,.21-.17.29-.28s.11-.08.31-.17a1.93,1.93,0,0,0,.48-.43,1.1,1.1,0,0,0,.15-.24c.24.32.43.28.63,0A1.63,1.63,0,0,1,12,62.4c.17-.06.34-.37.58-.11,0-.11.12-.23.17-.35s.06-.44.25-.07c0,0,.08,0,.13.06.11-.34.73-.06.72-.63,0-.13.41-.3.66-.41.5-.23,1-.43,1.54-.65.07,0,.18,0,.19-.08.12-.47.66-.43.86-.68a4.74,4.74,0,0,1,1.19-.85,1.45,1.45,0,0,1,.26-.11c.2-.11.53-.1.45-.49,0-.05.15-.16.24-.21l1-.59.06.16a2.8,2.8,0,0,1,.25-.35,15.07,15.07,0,0,1,1.26-1.14,8.66,8.66,0,0,1,1-.45c.23-.11.66.06.65-.41,0-.06-.06-.17-.1-.17s-.14.05-.21.08a1.1,1.1,0,0,1,.2-.28c.24-.19.31-.59.73-.55h0l.09.43a1.44,1.44,0,0,0,.33-.27,3,3,0,0,0,.46-.91l-.3.32c-.06-.26-.06-.26.6-.81l.14.44h.08l.11-.57h0c.15.2.25.49.47,0,.11-.24.44-.35.21-.73-.11-.19.27-.46.48-.37a1.11,1.11,0,0,0,.25.05,2.34,2.34,0,0,1,0-.26l.06-.35.14.33,1-1h0c.17-.26.18-.65.63-.68.09,0,.24-.29.21-.41-.12-.52.25-.75.52-1,0,.11,0,.22,0,.33.06,0,.16-.1.16-.15s-.07-.15-.1-.22.05-.43.37-.4c.07,0,.16-.09.21-.16L31,46.46s.11,0,.16,0,.16,0,.18-.07c.27-.48.51-1,.79-1.44s.59-.89.88-1.34.57-.89.83-1.35.34-.71.5-1.07A12.72,12.72,0,0,1,35,39.85a8.48,8.48,0,0,0,1-2.11,8.37,8.37,0,0,1,.76-1.31c.13-.26.11-.6.22-.87.22-.54.4-1.08.61-1.62,0,0,.1,0,.14,0s.17-.15.15-.2a1.39,1.39,0,0,1,.33-1.24c0-.05.1-.1.09-.13-.21-.64.29-1.13.37-1.71,0-.1.16-.18.25-.27v-.18a1.85,1.85,0,0,1-.13-.29c-.08-.24.36-.27.22-.62s.06-.58.11-.87a4.9,4.9,0,0,1,.18-.88,2.17,2.17,0,0,0,.12-1.18c0-.06.12-.13.14-.2a.75.75,0,0,0,.08-.43,2.08,2.08,0,0,1,.15-1.49c0-.08-.1-.22-.1-.34,0-.79,0-1.58,0-2.37s0-1.69-.1-2.53a4.54,4.54,0,0,0-.29-.9l-.12.47-.12,0a1.3,1.3,0,0,1,.08-.41c.32-.44.15-.84-.06-1.26a2.71,2.71,0,0,1-.12-.58c-.11-.4-.12-1-.38-1.14-.44-.27-.5-.88-.8-1s-.48-.25-.33-.6l0,0c-.16-.11,0-.54-.43-.4a.55.55,0,0,1-.21-.35c0-.48-.22.07-.26-.08h0a6.25,6.25,0,0,0-.16-.62c0-.09-.18-.22-.21-.2-.6.32-.39-.22-.43-.33l-1-.33h-.21c-.28.06-.59,0-.85.17-.06,0-.3,0-.33-.08s-.16-.15-.29,0-.18,0-.28,0-.45-.36-.66,0c0,0-.09,0-.1,0-.23-.58-.45-.18-.66,0s-.11.1-.23,0a.65.65,0,0,0-.49-.07,7.08,7.08,0,0,0-.78.25s-.06,0-.09,0l.09-.15c0-.11,0-.22,0-.33l.13-.19-.2.12h-.27l.18.17.13.24L29.29,11l-.51-.13,0,.1.42.14-.38.56a1.65,1.65,0,0,1,0-.24l.06-.32-.25.21a1.33,1.33,0,0,1-.76-.25c-.1-.27-.39-.35-.53-.13a.63.63,0,0,1-.89.31c-.24-.09-.57.1-.85.07s-.53-.16-.57-.3c-.14-.5-.29-.16-.45-.06s-.22.25-.5.17a5.42,5.42,0,0,0-1.4-.08c-.06,0-.15.13-.18.22-.18.49-.5.6-.85.24s-.51.07-.73.22h0c-.11,0-.28,0-.33.13-.38.62-.44.66-1.07.63l.21-.5c-.41.25-.71.44-1,.61-.08.05-.2,0-.3,0h-.2c0,.43-.46.37-.63.63s-.23.43-.45.09a4.19,4.19,0,0,1-.5.31.44.44,0,0,1-.3,0c-.08,0-.13-.12-.19-.18l-.2.23.19.1-.95,1a2.63,2.63,0,0,1-1.17.91.18.18,0,0,0-.11.13.48.48,0,0,1-.64.49H13a.69.69,0,0,0,.16.18,1.93,1.93,0,0,0,.36.14,2,2,0,0,0-.9,1.34c0,.09-.26.12-.39.2s0,.13,0,.19h0l-.48.29c.1.17.19.39.46.22,0,0,.09.06.09.07a.53.53,0,0,1-.11.24c-.33.23-.45.46-.09.79.06.06,0,.3-.08.45s-.16.32-.25.51L12,21l.25.06c-.05.08-.08.2-.14.22-.3.11-.28.35-.22.57s-.23.7.22.91l-.51.09.07.18.44-.28a2.65,2.65,0,0,1,0,1.23,2.24,2.24,0,0,1-.58.06l-.1.09c-.19,0-.4.1-.33-.28,0-.21-.47-.29-.3-.65,0,0-.11,0-.12,0s-.12.13-.11.19c.1.46-.24.7-.5,1,0,.05-.23.05-.24,0a1.56,1.56,0,0,1-.1-.37l-.09-.22h0s0,0,0,0l.33-.62-.68-.16h0A1,1,0,0,0,9.16,22s-.08.1-.13.15H9a1.08,1.08,0,0,0-.44.18,8.32,8.32,0,0,0-1,1.12c-.17.25-.32.13-.5.12a1.71,1.71,0,0,0,.09-.3c0-.23,0-.45,0-.68a3.77,3.77,0,0,0-.08-1.49c-.07-.19.19-.53.3-.8a.91.91,0,0,0,.1-.29c0-.31-.08-.61-.08-.91,0-.09.14-.18.22-.27a1.43,1.43,0,0,0,.12-.21,1.47,1.47,0,0,0-.21,0l-.34.05a1.63,1.63,0,0,0,.11-.31c.06-.42.12-.85.16-1.27a1.25,1.25,0,0,0,0-.58c-.08-.2-.2-.42-.48-.15-.13.13-.17.09-.2-.27.19-.18.29-.36-.06-.49,0-.07,0-.14,0-.22l-.12.07.18.14,0,.51c-.11.19-.22.37-.31.56s-.12.33-.19.54c-.08-.28-.15-.48-.19-.68s.06-.17.08-.26a2.74,2.74,0,0,0,0-.49c0-.15-.08-.29-.11-.43a.57.57,0,0,1,0-.18c-.67-.08-.13-.53-.24-.78l.27-.2-.27,0c-.28-.48-.1-.83.53-1.38.44-.38,1-.69,1.16-1.32,0-.09.2-.13.28-.22s0-.13,0-.2l.29-.2a4.67,4.67,0,0,0,.49-.27.44.44,0,0,0,.16-.22c.11-.52-.44-.63-.61-1l-.61.29-.35.21c0-.12.1-.24.16-.36C7.58,9.1,8,9,8.46,8.92L8.57,9c.07.07.19.22.22.2A1.1,1.1,0,0,0,9.07,9H8.72l-.28,0c.15-.17.29-.34.46-.5s.36-.28.53-.43.08-.48.38-.18c0,0,.09-.06.09-.09.1-.44.57-.57.76-.93,0-.06.11-.1.16-.16s.15-.36.28,0a.57.57,0,0,0,.25,0c.28-.15.66.1.87-.23A1.45,1.45,0,0,0,12.33,6a2.23,2.23,0,0,0-.31.12c-.13.06-.24.14-.42.24.05-.24-.28-.52.24-.55a2.45,2.45,0,0,0,.75-.28h.05c0,.26.24.38.41.23a1,1,0,0,0,.33-.65c0-.64.54-.79.9-1.09.07-.06.31.08.47.13l.22,0c.16-.48.56-.43.94-.46.08,0,.19-.24.2-.37s-.05-.51.34-.32a.17.17,0,0,0,.08,0c.22-.6.62-.17.94-.16s.7,0,.54-.52c0-.1.07-.23.11-.35.06,0,.13.17.17.16a2,2,0,0,0,.48-.2c.13-.08.15-.39.41-.09.08.08.43,0,.63-.11s.49-.27.74-.39a.19.19,0,0,1,.18,0c.39.27.71-.1,1.07-.11.09,0,.18-.18.29-.3.08.43.28.42.62.17.11-.07.34-.61.57-.06,0,0,.08-.08.13-.08.65-.11,1.3-.21,1.94-.33A1.7,1.7,0,0,0,25.8.43c.09,0,.24-.15.27-.12.25.23.58.11.85.2,0,0,.17-.2.19-.24s.32.13.43.09c.28-.09.5-.31.83,0a.73.73,0,0,0,.66,0c.32-.21.55,0,.81,0a4.11,4.11,0,0,0,.6-.08c.36,0,.86.15,1,0s.63.1.81-.23c0,0,.11,0,.17,0,.36.05.71.28,1.07,0a.11.11,0,0,1,.11,0c.05,0,.08.15.11.14.3,0,.58-.07.88-.09A.46.46,0,0,1,35,.17c.22.2.34.17.44-.11,0,0,.15,0,.24-.06a2.62,2.62,0,0,1,0,.28,2,2,0,0,1,0,.25.88.88,0,0,0,.23-.07.47.47,0,0,1,.63.22c.08.23.14.5.5.28s.15-.31,0-.33c-.39,0-.29-.28-.3-.52.71.36.71.36.8.88A2,2,0,0,1,37.59.5c.06-.1.19-.15.22-.12s.32.19.4.14c.45-.25.84,0,1.23.14.13,0,.49,0,.4.36A.52.52,0,0,0,40,1L40.5,1c0,.13-.08.27-.11.4s0,.15-.07.32l-.48-.57c0,.34,0,.59.06.83a2.86,2.86,0,0,0,.44,0c0,.31.1.71.62.78a.2.2,0,0,1,.08.15c-.19.65.45,1.14.27,1.78l.14,0,.38-.47c.23.14.51.3.78.48s.35.3.57.06c0,0,.2.07.21.14a1.77,1.77,0,0,0,.74,1.16c.1.07.1.32.13.49s0,.22,0,.33a2.14,2.14,0,0,1,.28-.12l.62-.12h0c.1.22.19.44.3.66s.46.48.1.87c-.12.13-.06.7.07.76.39.2.32.48.38.8s.36.43.57.63c0,0,.21-.06.25-.13.18-.32.34-.66.56-1.1a7.84,7.84,0,0,0,0,1c0,.2,0,.53.38.4,0,0,.17.16.16.21a1.1,1.1,0,0,0,.31,1.08,5.3,5.3,0,0,1,.49,1.3c.06.17,0,.51.4.33,0,0,.11.15.09.19a1.42,1.42,0,0,0,.21,1.58c.1-.18.19-.37.3-.54s.14-.09.21-.13.12.17.1.24a1,1,0,0,1-.21.52c-.24.24-.21.55-.31.82s.05.37.3.36l.22-.11c.07.29.15.59.2.89a2.44,2.44,0,0,1-.3.09.86.86,0,0,0,0-.27c0-.1.46-.11,0-.26l-.33-.19,0,.12.36.07-.61.56.87.33-.75.59s0,0-.07.21a5.54,5.54,0,0,1,.51-.34,1.82,1.82,0,0,1,.28-.11c0,.09-.11.19-.08.25.08.24-.42.58.14.72a2.16,2.16,0,0,1-.16.51,3.5,3.5,0,0,1-.4.55l.14.14.52-.29a1.32,1.32,0,0,0,.07,1.22c0,.13-.17.43-.33.59s-.2.16,0,.34h0c.48.17.1.53.18.78l-.26-.17-.06.25.32-.09c0,.33.33.71-.22.92,0,0,0,.35,0,.52-.06.36-.15.72-.23,1.07,0,.15-.21.35.14.35a.42.42,0,0,1,0,.15c-.43.25,0,.41,0,.62a1.51,1.51,0,0,1,0,.73c-.13.48.08,1-.39,1.44-.15.14-.18.42-.28.63s-.16.26-.24.39l-.15,0,.27.39a.94.94,0,0,0-.35.17s.07.21.11.32h0a2.68,2.68,0,0,1,.11,1.89H48.8c0,.22-.08.56,0,.64.38.3-.06.39-.1.57a2.35,2.35,0,0,1-.19.43.39.39,0,0,0,.16.1c.24-.3.34,0,.39.13s.33.61,0,.74c-.55.23-.44.63-.38,1a3.19,3.19,0,0,1-.12,2c-.07.15-.24.28-.27.43-.08.4-.08.82-.16,1.21a7.31,7.31,0,0,1-.36,1.12c-.07.19-.21.35-.28.54s-.1.66-.23.7c-.35.11-.19.34-.25.51s0,.3-.13.34c-.38.21-.31.59-.41.91A5.64,5.64,0,0,1,46,44.83c-.15.27-.34.52-.51.77a.16.16,0,0,0,0,.08,3.89,3.89,0,0,1-.93,2.25c-.1.11-.09.32-.14.48s-.67,1.16-.69,1.21a.21.21,0,0,1-.08.12c-.47.2-.49.63-.61,1.06a4.34,4.34,0,0,1-.71,1.11c-.3.45-.59.9-.9,1.34s-.53.66-.78,1-.43.63-.66.94-.4.51-.6.77-.35.47-.54.73c.2-.26.58.24.75-.21.21.24.46.06.69,0,.41,0,.81-.13,1.23-.17s.86-.07,1.29-.11c.19,0,.5,0,.55-.12.17-.35.27-.07.41,0s.24.42.33,0a.34.34,0,0,1,.19,0,3.28,3.28,0,0,0,1.81-.14l.12-.05c.29.42.67.12,1,.12a.42.42,0,0,0,.28-.12c.17-.2.29-.22.4.06a.46.46,0,0,0,.14.16c.52-.4,1.22,0,1.74-.4a.42.42,0,0,1,.38,0c.25.28.42.22.62,0,0-.06.26-.06.27,0,.12.56.45.2.7.14,0,0,0-.07.08-.11.32.47.7,0,1,.07s.3.38.4.51a3.71,3.71,0,0,1,.39-.48s.18.06.28.09l-.29.44.77-.14h0c.07.34.06.33.32.22,0,0,.15.07.23.09s.31.1.47.15a1.48,1.48,0,0,1,0-.36.36.36,0,0,1,.16-.18c.32.2.32,0,.37-.24s.12-.16.19-.23c0,.09.17.2.15.26-.15.35.19.16.2.16.17-.13.33-.27.49-.41.5.45.76.48.94.08.09.4.4.46.74.48l.07.06.75-.26,0,.3c.2-.09.38-.18.56-.24s.11.13.17.2l-.2.09,1.25.34L62,56c0,.06.14.15.12.17-.21.39.17.69.16,1s.15.33.35.09c0-.05.16,0,.24-.06s.07,0,.08.05c.12.25.29.19.43,0s0-.17,0-.26-.27.07-.4.12a.37.37,0,0,0-.12.07c0-.22,0-.44,0-.65A.69.69,0,0,1,63,56.4c0,.07,0,.15.07.22a.73.73,0,0,0,.06.11l.53-.44s.1,0,.16,0c0,.32.28.22.42.33a1,1,0,0,1,.22.24H65c.07,0,.2,0,.2,0,0-.41.18-.11.31-.06a1.4,1.4,0,0,0,.42,0l.1.43.13-.06.14.12.09-.17.17-.13c.19.19.36.38.54.57a.34.34,0,0,0,.18.11,4.13,4.13,0,0,1,.63.12.59.59,0,0,1,.23.35.93.93,0,0,1,0,.37c0,.3.15.26.34.18h0s.11.08.1.1c-.12.33.32.38.33.64a.9.9,0,0,1,.25-.08c.49,0,.38.51.61.74,0,.06-.08.42.15.58-.19.21-.39.42-.58.64s-.11.16-.17.24a2.31,2.31,0,0,1-.24.2,3.87,3.87,0,0,0-.34.21c-.06,0-.09.1-.13.16a2.12,2.12,0,0,0-.11-.21l-.37-.57c-.26.44-.26.44-.08.9l.46-.34c-.26.43-.18.67.28.79a.16.16,0,0,0,.13-.06,1,1,0,0,0,0-.24l.45.11a2,2,0,0,1-.08.33c-.07.19-.27.44-.21.55a1.5,1.5,0,0,0,.57.48c.06,0,.22-.08.28-.11a3.34,3.34,0,0,1-.41-.45s.14-.17.22-.26c0,.11,0,.22,0,.33l.13,0L69.51,63a3.22,3.22,0,0,1,.37.2,1.49,1.49,0,0,1,.15.2l.2-.24c.08-.1.15-.2.24-.3a.26.26,0,0,1,.12,0,1.76,1.76,0,0,1-.1.41c-.09.17-.35.42-.31.46.31.38.31-.28.6-.17a.61.61,0,0,0,0,.18,2.66,2.66,0,0,0,0,.28A.61.61,0,0,0,71,64c.17-.11.29-.3.47-.37a3.19,3.19,0,0,1,.71-.14c-.06.37.73.44.33,1a.74.74,0,0,0,0,.51c.14.55.11.6-.44.63h0l-.58-.32c.2.58-.27.69-.5.88a2.79,2.79,0,0,0-.56,1s.17.17.26.26l.19.23.09-.08a2.2,2.2,0,0,0-.17-.25c.24-.42.36,0,.52.08s.31.26.1.45-.44.21-.17.49c-.07.06-.13.17-.21.18a1.61,1.61,0,0,1-.44,0c0-.09,0-.25-.07-.33s-.83-.15-1.22,0l.08-.31-.06-.08c-.27.25-.64.46-.8.77-.25.48.58.4.53.87l-.55-.14.07.11-.51.31.11-.27-.16,0,0,.29-.12.08c.18.17.07.32,0,.51a2,2,0,0,0,0,.73.24.24,0,0,0,.17.11c.21,0,.51-.11.34.31,0,0,.07.06.08,0a3.87,3.87,0,0,0,.37-.24c.52.71.52.72.07,1.15.08-.43-.16-.66-.63-.63-.65,0-1-.21-1-.78-.15,0-.45.37-.46-.13-.09,0-.2,0-.26.09a1.6,1.6,0,0,0-.24.35c-.06-.21.26-.63-.27-.46,0,0-.1-.22-.19-.29a.41.41,0,0,0-.33-.07c-.08,0-.16.26-.12.3.34.39-.35.22-.24.46A1.76,1.76,0,0,1,65,71a1.57,1.57,0,0,1-.1-.44l.14.11a1.51,1.51,0,0,0,.18.09s.06-.06.08-.1a.76.76,0,0,0-.19-.12.78.78,0,0,0-.21,0l-.34,0c.07.2-.48.23-.13.5-.15.14-.27.34-.45.42s-.59-.22-.56-.53l.44-.17c-.17.25-.1.41.27.49l-.21-.55-.24-.33c.06-.14.11-.27.16-.41-.08.12-.52.14-.15.39l-.38.28a1.89,1.89,0,0,0-.11-.25L63,70.17s-.12.08-.13.13a.31.31,0,0,0,.06.21C63,70.57,63.1,70.61,63.16,70.66ZM28.58,10.75l.28.05v-.13l-.26.1s-.05.08-.08.11a.58.58,0,0,1-.12.1l.06.07s.09-.07.11-.12A.52.52,0,0,0,28.58,10.75Zm-14,63.15h.28l-.1-.2-.17.21-.1.29h.15ZM34.08,10.81l.08.21.09-.06-.18-.14,0-.28-.22.06ZM1.94,70.16l.45-.2-.1-.14-.35.34-.22-.08a.29.29,0,0,1,0,.06Zm22.7,1.21-.32-.07v.13l.32-.06.06.2.14-.15Zm-16-49.55L8.43,22l.08.1.25-.21.05-.46H8.63ZM2.8,69.65l.33.1,0-.16-.36.07,0-.47-.37.36ZM8,20.54v0c-.46.52-.44.71.1,1.05.08-.21.15-.42.25-.62a5,5,0,0,1,.32-.48,2.36,2.36,0,0,1,.23-.2,2.68,2.68,0,0,0,.07.27,3,3,0,0,0,.15.31c.06-.07.18-.14.17-.19-.05-.33-.13-.65-.2-1,0,.52-.37.3-.57.37a.84.84,0,0,0-.21.11c-.41-.1-.25-.43-.12-.56.44-.4.12-.89.22-1.33-.23.43-.47.84-.67,1.28s0,.62.26.87ZM7.84,18a4.38,4.38,0,0,0,.34-.29s.08-.11.07-.13-.12-.11-.14-.1c-.18.13-.52.19-.26.54l-.21.3.12.06ZM45,44.77l.33-.64c-.55.13-.29.44-.32.66l-.25.37.11.07c0-.13.07-.25.1-.37ZM64.33,68.54l.12.28h.08l-.06-.35-.15.09c-.06-.42-.28,0-.41-.08l-.1.32.31-.14ZM68.91,61a.58.58,0,0,0,.23,0c.09-.08.25-.21.23-.28s-.18-.19-.27-.28c0,.11,0,.22-.06.33a1.15,1.15,0,0,1-.12.25l-.18,0,.17.16ZM38.6,13.47l-.05.2.17,0-.13-.15c.35-.35-.18-.41-.18-.64C38.25,13.3,38.25,13.3,38.6,13.47ZM9.8,19.85a1.79,1.79,0,0,0-.06.5,1.45,1.45,0,0,0,.27.44s.12,0,.12-.05a2.46,2.46,0,0,0-.1-.47,2.55,2.55,0,0,0-.23-.43c.25.32.27-.17.44-.12v-.15l-.26.2Zm.15,2c.08,0,.21,0,.24,0,.15-.23.28-.48.41-.73a2.9,2.9,0,0,0,.39,0,3.94,3.94,0,0,0,.09-.6l-.16-.05-.3.63c-.76.17-.82.25-.66.77l-.33.4s.11.05.12,0l.21-.37S10,21.86,10,21.83ZM39,4c-.07.45.22.43.45.45a.57.57,0,0,0,.22,0c.1,0,.27-.06.29-.12a.58.58,0,0,0-.06-.36c-.05-.12-.16-.2-.21-.31s0-.16,0-.24-.23,0-.29.08S39.08,3.81,39,4ZM68,67.66c-.15-.07-.23-.13-.26-.11-.41.26-.5,0-.52-.32,0,0-.18-.09-.24-.07a1.1,1.1,0,0,0-.28.25,2.39,2.39,0,0,0-.22.23c.1.06.21.2.29.18s.33-.06.38.19c0,0,.23.07.31,0A3.93,3.93,0,0,0,68,67.66ZM66.46,70.3l.15.28.22-.26s.06-.14.11-.15c.32-.11.32-.26.09-.47a.91.91,0,0,1-.13-.3,2,2,0,0,0-.38.38A1.55,1.55,0,0,0,66.46,70.3ZM24.78,2.78l-.17,0c-.15.19-.46.42-.42.55.08.31.44.31.67.17C25.39,3.13,24.48,3.08,24.78,2.78ZM48.05,67.52a8.12,8.12,0,0,0-.65.63.63.63,0,0,0,0,.41.41.41,0,0,0,.28,0,.53.53,0,0,0,.26-.25A6.72,6.72,0,0,0,48.05,67.52ZM7.87,22.81,8.31,22c-.1,0-.28-.11-.3-.08a2.57,2.57,0,0,0-.39.6C7.59,22.52,7.74,22.64,7.87,22.81ZM44,36.82l.24,0c0-.26.09-.51.14-.77s.07-.22.09-.34a2.72,2.72,0,0,0,0-.28c-.08.05-.23.09-.24.16C44.16,36,44.1,36.42,44,36.82ZM35.77,2.88c-.22-.1-.41-.18-.6-.28a2,2,0,0,1-.24-.16c0,.07-.13.17-.11.22a.65.65,0,0,0,.23.29,1.68,1.68,0,0,0,.33.16c.07,0,.17.1.2.08S35.68,3,35.77,2.88Zm-2.17.34c-.5.2-.58.52-.27.95C33.51,3.86,34.08,3.67,33.6,3.22Zm4.83.38L38,4.1c.13.09.34.27.39.24a1.46,1.46,0,0,0,.38-.47A3,3,0,0,0,38.43,3.6Zm-1.34-.45c-.09.19-.17.34-.23.5s.12.16.14.15l.65-.41Zm2.58,6.42c-.27-.23-.46-.39-.66-.53,0,0-.12.08-.17.13s0,.09.08.13a1.66,1.66,0,0,0,.16.21.8.8,0,0,0,.27.25S39.49,9.68,39.67,9.57Zm7.72,58.8-.28-.5c-.07.12-.21.24-.21.37s.12.27.19.41ZM22.22,72.29l-.16-.2-.2-.44a1.76,1.76,0,0,0-.27.42c0,.07.18.21.3.26S22.11,72.31,22.22,72.29ZM69.7,65.9c-.15-.31-.4-.27-.64-.15-.07,0-.09.19-.13.3a1.31,1.31,0,0,0,.28,0C69.36,66,69.51,66,69.7,65.9ZM25.25,4.17l-.68-.4,0,.54Zm18.8,33.6-.25-.13c-.08.17-.18.33-.25.51s.1.12.15.18Zm3.61-26.39c-.2.13-.45.21-.45.31s.15.31.26.51Zm-38,3.74.26.3c.06-.07.17-.16.16-.22a1.69,1.69,0,0,0-.19-.38ZM13.8,8.53c-.14-.15-.25-.3-.27-.29a3.07,3.07,0,0,0-.34.29,1.19,1.19,0,0,0,.3.18C13.56,8.72,13.65,8.62,13.8,8.53ZM1.91,74.4a4.83,4.83,0,0,0-.46.44s.08.12.13.18c.14-.16.28-.32.41-.5C2,74.51,2,74.45,1.91,74.4ZM26.79,3.28l-.41-.64-.07.6ZM2.55,75l.25-.51-.62,0Zm27.94-5-.18-.08-.31.45.27.12ZM36.84,2.21a2.29,2.29,0,0,0,.64.18c.08,0,.16-.28.22-.39ZM12.43,9.15l0,.14.43.08V9Zm4.23-1.54a1,1,0,0,0,.21-.15A3,3,0,0,0,17.13,7L17,7a4.61,4.61,0,0,0-.28.38A1.27,1.27,0,0,0,16.66,7.61Zm-7.25,5.7.1.09.4-.36-.16-.16ZM41.93,8.1c-.11-.11-.19-.23-.25-.22-.56.06.15.29,0,.41l.06.11ZM65.22,58.29l.17,0-.11-.69-.16,0ZM48.08,38.18l.19,0c0-.16-.07-.33-.1-.49s-.12,0-.12,0ZM11,19.86c.07-.08.14-.14.13-.18a.89.89,0,0,0-.13-.23c-.06.06-.17.12-.17.18S10.91,19.76,11,19.86ZM6.87,15l.09.11.41-.32-.1-.12Zm3.62,4,.11.05.21-.35-.22-.09Zm16-7.78c.42-.09.58-.21.3-.53Zm9.91-8.87c0,.12-.09.21-.07.24a3.85,3.85,0,0,0,.27.3c0-.06.14-.14.12-.16A2.22,2.22,0,0,0,36.43,2.32Zm-29,11.6-.12.13.32.29.16-.22Zm38,28.74-.17-.09-.25.48.14.08ZM12.24,17.08l.12.07.26-.35-.13-.08ZM6.89,75.92c.27-.29.27-.29,0-.49ZM28.83,70.6l.08,0-.11-.35-.19.14ZM9.37,16.91l-.14.17a1.2,1.2,0,0,0,.21.13s.07-.06.11-.09Zm35.25-2.69c.08-.11.14-.16.15-.22s-.06-.1-.09-.15-.14.07-.16.13S44.57,14.1,44.62,14.22ZM56,68.38c-.08.1-.15.16-.14.19s.12.16.18.24.11-.08.1-.1S56.1,68.53,56,68.38Zm7.93-2,0,.1.3,0,0-.13ZM8.37,75.24c-.09.12-.16.18-.2.25s.09.12.13.12.12-.07.14-.12S8.41,75.36,8.37,75.24Zm57.11-8.46-.15-.12c-.07.11-.15.22-.21.33s0,.06.08.09Zm1.24-8.29.13-.07-.18-.35-.15.09ZM37.05,11.75l.06-.05s0-.1,0-.13a.67.67,0,0,0-.17-.06ZM33.44,2.68V2.49l-.4.06v.08ZM30.56,4.33l.09-.07-.23-.34L30.31,4ZM19,5.88l-.08-.11a1.59,1.59,0,0,0-.32.16s0,.13,0,.2Zm6.87,5V11c.12,0,.23,0,.34,0a.9.9,0,0,0,0-.17ZM43.74,46.1l.16-.05-.13-.38-.13,0Zm.84-11.63a.8.8,0,0,0-.17-.14.38.38,0,0,0-.17,0c.06.07.11.14.18.21ZM39,15.36l.13.06.18-.31L39.21,15ZM8.45,17l.13.06.13-.37-.07,0Zm28.89-13-.07-.1L37,4l.11.15ZM8.77,19.19c.06-.1.1-.14.09-.18a.44.44,0,0,0,0-.15c-.05,0-.15.05-.14.07A.72.72,0,0,0,8.77,19.19ZM16.46,6.35l0,.07.4-.15s-.06-.1-.07-.1ZM9.87,23.07a1.89,1.89,0,0,0,.07-.35s-.06-.08-.1-.12a.56.56,0,0,0-.11.2C9.72,22.86,9.79,22.92,9.87,23.07ZM45,67.88l.15-.06L45,67.48l-.1,0ZM11.79,17.78l-.12-.07-.11.38.13,0Zm32.55,27h-.11l0,.45h.12ZM8.11,13.72l0-.11-.38.18.06.11ZM6,75.9l0-.1-.37.13,0,.11ZM3.27,74.61v.11c.11,0,.22,0,.33-.06s0-.08,0-.13ZM9.35,21.38l-.1-.05-.09.3.08,0Zm28.78-9.17L37.87,12s-.08.12-.07.13a.52.52,0,0,0,.19.14S38.07,12.24,38.13,12.21ZM44.54,34V33.9h-.3l0,.12ZM37.79,12.73l.12,0,.1-.28-.13,0C37.84,12.54,37.82,12.64,37.79,12.73ZM64.84,57.57c-.06-.06-.13-.13-.14-.12a1.37,1.37,0,0,0-.18.16s.1.11.15.11S64.77,57.64,64.84,57.57ZM47.51,37.89l.13,0,.13-.36-.08,0ZM27.51,70l0,.1.36.11a.71.71,0,0,1,0-.12C27.74,70,27.62,70,27.51,70ZM46,42c-.05.08-.1.13-.13.19l.08.09.14-.16S46.07,42.08,46,42ZM63.24,68.14l.1-.15h-.18c-.06,0-.13.06-.13.1s0,.11.06.16ZM50,20.66l-.11,0,.07.41h.06ZM13.72,14.92l.06,0-.15-.31-.1.06Zm30.81,30.8.21-.19s-.09-.12-.1-.11a.77.77,0,0,0-.21.14S44.48,45.65,44.53,45.72ZM36.37,9.49l-.13-.12a.33.33,0,0,0-.1.14s.06.08.09.13Zm-24,1.28c-.1-.07-.14-.12-.19-.12s-.09,0-.14.06.06.11.11.12S12.29,10.81,12.41,10.77ZM7.84,17l.1,0,0-.3H7.87ZM42.2,8.47c-.06,0-.11-.1-.12-.09a.79.79,0,0,0-.17.14s.08.1.1.09A1,1,0,0,0,42.2,8.47ZM7.27,13.81c-.1,0-.15-.07-.21-.06s-.08.06-.13.09S7,14,7,14A1.4,1.4,0,0,0,7.27,13.81Zm3.39,6.26-.14-.13a1.07,1.07,0,0,0-.14.16s.06.09.08.08A1.44,1.44,0,0,0,10.66,20.07Zm-1.2-4.3.09.08.21-.3-.11-.07Zm-.8-3.28c-.09-.07-.14-.14-.18-.14a.54.54,0,0,0-.18.1s.08.09.12.09A.72.72,0,0,0,8.66,12.49ZM65.08,66.61c-.09-.07-.13-.11-.18-.12s-.07,0-.1.07,0,.1.09.12S65,66.65,65.08,66.61ZM61.37,60.2l.13-.1a.5.5,0,0,0-.14-.08s-.06,0-.09.07ZM38.88,11.77c-.08.12-.11.16-.11.19s0,.07.07.11.08-.09.09-.13S38.91,11.85,38.88,11.77Zm-4.24-8,0-.11c-.06,0-.14.08-.17.13s0,.1.08.15Zm15,64.8h.08a.25.25,0,0,0,0-.12,1,1,0,0,0,0-.17.33.33,0,0,0-.1.14S49.6,68.5,49.61,68.55Zm-39-46.09a.85.85,0,0,0-.15-.09l-.1,0s0,.09.07.09A.67.67,0,0,0,10.57,22.46ZM37.71,11.84l-.16-.11a.3.3,0,0,0,0,.13s.06.06.09.08Zm1.5-10c.08-.09.15-.14.14-.18s-.07-.08-.11-.13-.08.06-.08.1S39.18,1.77,39.21,1.88Zm-3.49-.14-.14-.13s-.09.08-.09.13,0,.08.07.12Zm33.4,64.89.08,0-.11-.25,0,0ZM32.73,2.76c.06-.12.1-.16.09-.21s0-.09-.07-.13-.1.08-.11.13S32.68,2.64,32.73,2.76ZM67,58.51c0,.1-.07.15,0,.19s.08.07.12.11.07-.1.07-.14S67,58.59,67,58.51Zm-19-46.11-.06.09.28.19.06-.09ZM10.5,14.18a.93.93,0,0,0,.19.06s.06,0,.09-.07a.35.35,0,0,0-.13-.08S10.59,14.12,10.5,14.18ZM17,73c.09.07.14.13.19.13s.09-.06.14-.09-.07-.09-.11-.09A.63.63,0,0,0,17,73Zm32.47-4.79-.07,0-.13.25.1,0ZM68,71.37l-.08-.07-.21.17.13.12Zm-17.38-3v.07l.21.08,0-.06Zm13,0-.09-.09-.21.18.09.09Zm3.92,2.44h.07v-.38h-.07ZM3,70l0,.12.31.06,0-.09Zm63.29-1c0,.06-.1.1-.1.12a.55.55,0,0,0,.08.15s.1,0,.1-.08A.55.55,0,0,0,66.32,69.07ZM27.61,10.48c-.14,0-.19-.06-.24-.06s-.06.05-.09.08.07.09.1.09S27.48,10.54,27.61,10.48Zm16.22,35,.06.09.24-.19-.05-.07Zm4.11-6.79c0-.11.08-.16.07-.21a.6.6,0,0,0-.09-.15s-.12.08-.12.12A1.14,1.14,0,0,0,47.94,38.68ZM6.35,69.8l.15-.14s-.08-.06-.1,0a.45.45,0,0,0-.13.11ZM13.68,9.27c-.15-.06-.2-.1-.21-.09a1,1,0,0,0-.14.15s.07.08.09.07A1.52,1.52,0,0,0,13.68,9.27ZM36,10.4l.07,0s0-.09,0-.12a.45.45,0,0,0-.1-.14ZM9.29,8.81l-.07,0s.06.05.09.05,0,0,.06,0ZM41,17.27s0-.07-.05-.07a.38.38,0,0,0-.13,0s0,.09.06.09A.23.23,0,0,0,41,17.27ZM43.5,38.51l-.12-.13a.56.56,0,0,0-.07.16s0,.07.08.1ZM17.43,6.35l-.08,0a.94.94,0,0,0-.1.1s.06,0,.08,0ZM44.09,46.13l.08-.11s-.08-.05-.09,0a.41.41,0,0,0-.07.11ZM65.18,69.26c0-.12.06-.17,0-.22s-.06-.07-.09-.1-.09.09-.09.14S65.11,69.17,65.18,69.26Zm-49.47-56c-.05,0-.09-.06-.12-.05s-.07.07-.06.09.06.06.1.08ZM26.49,70.66l-.1,0,.16.17s0-.06,0-.07A.67.67,0,0,0,26.49,70.66ZM44.68,35c-.06.15-.09.19-.09.24s0,.09,0,.13.09-.07.11-.11S44.72,35.18,44.68,35ZM26.94,71.28a1.31,1.31,0,0,0,.13-.16s0-.06-.06-.09-.1.07-.13.12S26.9,71.21,26.94,71.28ZM8.11,13.08S8,13,8,13a.12.12,0,0,0-.1.06.31.31,0,0,0,0,.12ZM23.89,71.8c0-.09,0-.16,0-.17a1.21,1.21,0,0,0-.2-.09ZM34,3.07C33.83,3,33.79,3,33.77,3a.43.43,0,0,0-.16.09ZM5.12,75S5.06,75,5,75l-.13,0s0,0,.07,0ZM7.84,16,8,15.9s-.08-.1-.1-.09-.08.07-.13.11ZM65.67,67.15l.08.07.19-.22,0,0Z"/><path d="M5.21,18.43a1,1,0,0,0,0,.17c.17-.13.34-.25.5-.39s.16-.14.17-.22c.07-.55.43-.49.86-.4L5.7,20.36a1,1,0,0,1,.24-.13.18.18,0,0,1,.19.05s0,.14,0,.22c-.39,0-.14.38-.26.56s-.12.29-.22.36a.43.43,0,0,1-.35-.06.85.85,0,0,1,.06-.45c.15-.32.15-.3-.1-.58a.32.32,0,0,1,0-.27c.19-.34.4-.65.59-1a1.78,1.78,0,0,0,.09-.33c-.09.22-.33-.39-.4.08a1.48,1.48,0,0,1-.28.56c0,.07-.09.18-.15.19s-.16-.07-.24-.11a1.24,1.24,0,0,0,.1-.2C5.05,19,5.12,18.74,5.21,18.43Z"/><path d="M6.64,21.32c.35.3,0,.49-.13.72a3.36,3.36,0,0,1-.32.51c0,.06-.06.18,0,.2.6.59-.19.54-.34.78,0-.25.19-.55.11-.74-.24-.48.18-.7.32-1s.26-.3.4-.45Z"/><path d="M4.27,18.44c.36-.77-.66-1.62.24-2.41a4.06,4.06,0,0,0-.12.55c0,.18-.37.39.12.53.15,0,.21.59.19.9C4.69,18.16,4.42,18.3,4.27,18.44Z"/><path d="M11.38,24.11l.1-.09a2.64,2.64,0,0,0,.29.21c.41.18.23.51.21.79,0,.05-.17.15-.22.13a2,2,0,0,1-.44-.26.26.26,0,0,1,.07-.18C11.71,24.5,11.55,24.31,11.38,24.11Z"/><path d="M7.66,10.65c-.21.24-.4.49-.63.71a1.78,1.78,0,0,1-.43.23l-.13-.12-.22-.29c.11,0,.24.06.33,0,.26-.13.5-.31.76-.46a1.5,1.5,0,0,1,.32-.07Z"/><path d="M7.66,10.65h0c0-.11,0-.23,0-.34h0l.73-.18-.22.77-.29.2Z"/><path d="M70.53,70.37c-.21.13-.35.28-.51.3s-.26-.13-.4-.2l.4-.56Z"/><path d="M6.47,11.47l.13.12c-.29.33-.34.9-.89.94l.15-.64Z"/><path d="M45.57,68.43l.21-.24.16-.11a6.12,6.12,0,0,1,.4.49s-.1.12-.17.16a.22.22,0,0,1-.16,0Z"/><path d="M2.18,75.52l.09.11L2,75.85l-.12.07c.39.67-.37.18-.4.41A.93.93,0,0,1,2.18,75.52Z"/><path d="M45.19,6.63l.39-.89.13,0a1.47,1.47,0,0,1,0,.42,3.31,3.31,0,0,1-.22.55l-.3-.11Z"/><path d="M69.43,62.1c0-.2-.06-.5,0-.56s.41,0,.59,0l-.52.59Z"/><path d="M4.56,20.47l0,.37.21-.55.18.07A5.11,5.11,0,0,1,4.7,21s-.3,0-.3,0a3,3,0,0,1,0-.52Z"/><path d="M72.1,65.6c.07.59.06.6-.62.62.29-.2.14-.69.63-.61Z"/><path d="M5.11,16.67l.25-.84h.13c0,.16.15.34.1.47s-.25.26-.38.38Z"/><path d="M20.9,11.72l.24,0,.32.09-.19.13L21.2,12l-.41.15c0-.16.08-.32.11-.47Z"/><path d="M6.47,10.88c.12-.27.24-.53.37-.79,0,0,.16,0,.18.08.1.23-.27.68-.56.7Z"/><path d="M68.42,58.69a3.4,3.4,0,0,0,.06-.46,1,1,0,0,0-.09-.26c.08,0,.2,0,.23.07a.71.71,0,0,1,.13.42c0,.1-.22.15-.35.22Z"/><path d="M5,12.69c.08.2.12.26.1.28-.12.21-.26.42-.4.62l-.11-.05Z"/><path d="M9.24,22.93c-.06.23-.1.46-.18.68s-.15.11-.22.16a.68.68,0,0,0,.05-.22c-.06-.32.11-.48.35-.62Z"/><path d="M50.07,16.35l-.22.11c-.06-.31-.09-.61.22-.83Z"/><path d="M7,17.33c.19-.22-.57-.44-.09-.62.06,0,.14,0,.21,0Z"/><path d="M70.35,60.58s-.11.08-.11.07a2.82,2.82,0,0,1-.29-.39s.06-.12.1-.18Z"/><path d="M6.05,25c-.09-.1-.22-.19-.22-.26s.11-.2.17-.31c.1.08.25.15.27.24S6.14,24.88,6.05,25Z"/><path d="M37.57,15.85l.36-.5C38.23,15.77,37.78,15.74,37.57,15.85Z"/><path d="M24.13,54.12l.18-.57.23.14-.43.42Z"/><path d="M49.27,32.39s.07.08.07.11a2.75,2.75,0,0,1-.11.41.8.8,0,0,1-.16,0,1.91,1.91,0,0,1,.1-.34.53.53,0,0,1,.11-.15Z"/><path d="M71.53,68.58c.07,0,.14-.09.21-.09a1.13,1.13,0,0,1,.32.05s0,.09,0,.14-.2,0-.3,0a2.67,2.67,0,0,1-.26-.09Z"/><path d="M35.07,11.8c.15.06.29.11.43.18a.24.24,0,0,1,0,.17.19.19,0,0,1-.15,0c-.11-.09-.21-.21-.32-.31Z"/><path d="M5.13,17.73c0-.2.07-.41.12-.62,0,0,.14,0,.2,0a.42.42,0,0,1,0,.16C5.35,17.4,5.25,17.54,5.13,17.73Z"/><path d="M69.17,69.88l0,.62h-.08L69,69.9Z"/><path d="M4,21.55c0,.16,0,.31-.07.47H3.79v-.5Z"/><path d="M73.16,66.33c0,.14,0,.29.08.43l-.08,0L73,66.34Z"/><path d="M4.57,23.39,4.8,23s.09,0,.14,0l-.22.41Z"/><path d="M28.27,50.41c-.37-.06-.37-.07-.1-.5,0,.21.06.36.08.52Z"/><path d="M34.45,11.2h.21a.86.86,0,0,1,0,.27.31.31,0,0,1-.17.17c-.05,0-.13,0-.2-.06a1.13,1.13,0,0,0,.12-.18A.67.67,0,0,0,34.45,11.2Z"/><path d="M5.05,15.37l-.28.32-.09-.06.25-.37Z"/><path d="M12.24,18.38l.3-.05-.13.43-.1,0-.06-.37Z"/><path d="M4.53,21.33H5v.14l-.43,0Z"/><path d="M36.45,69.51l.11-.3.37.11Z"/><path d="M11.78,26.21c-.09-.21-.14-.28-.12-.3a1.3,1.3,0,0,1,.19-.22c0,.06.1.12.09.17A1.33,1.33,0,0,1,11.78,26.21Z"/><path d="M25.62,52.73l0-.09.13-.28.12.13-.29.23Z"/><path d="M4.38,14.93l.11-.38.15.18-.28.19Z"/><path d="M42.88,4.52l.36-.23.07.1L43,4.61Z"/><path d="M4.48,18.93l-.27.36-.09-.1.24-.35Z"/><path d="M6.23,76.87l0-.34h.11v.34Z"/><path d="M46.79,9.33l-.19.2s-.12-.1-.11-.11a1.7,1.7,0,0,1,.15-.22Z"/><path d="M35.78,69.52c.36,0,0,.23.07.33l-.25-.06h0l.2-.3Z"/><path d="M3.74,20.89v-.45h.09v.45Z"/><path d="M54.36,56.12l.29-.34.12.14-.42.19Z"/><path d="M58.66,56.19l-.07-.06.18-.41.07,0Z"/><path d="M25.92,51.38c-.06.09-.12.19-.19.28s-.09,0-.14-.08l.23-.28Z"/><path d="M12.22,22.07l-.13.41-.09,0,.08-.41Z"/><path d="M6.78,19.47l.11-.34a.75.75,0,0,1,0,.21.6.6,0,0,1-.09.15Z"/><path d="M41.37,1.82c-.1.06-.16.11-.23.11S41,1.83,41,1.82s.09-.15.16-.16S41.29,1.74,41.37,1.82Z"/><path d="M31.53,70.32l-.3.34-.1-.1Z"/><path d="M4,19.54l-.18.17c0-.05-.12-.11-.11-.15a.2.2,0,0,1,.14-.13S4,19.49,4,19.54Z"/><path d="M3.72,19.16v-.32h.12l0,.33Z"/><path d="M55.75,68.87l.21.49-.12,0c0-.18-.05-.35-.08-.52Z"/><path d="M36.44,12.68c-.08.42-.18.49-.42.32h0l.44-.32Z"/><path d="M5.42,13.74l-.28.31L5.05,14l.27-.31Z"/><path d="M7.63,25.59l.18.29s-.11,0-.11,0-.11-.17-.17-.26Z"/><path d="M71.23,63.17l.09.16s-.08.05-.11,0-.08-.06-.11-.1Z"/><path d="M72.34,66.64s0-.1,0-.11a.17.17,0,0,1,.09-.08s.07,0,.1.06Z"/><path d="M50.21,22.07l.25-.32.09.14-.35.17Z"/><path d="M4,24.25l0-.39h.08v.4Z"/><path d="M6.46,10.87l-.32,0-.08,0c.13-.37.27,0,.41,0Z"/><path d="M38,69.36a.8.8,0,0,1-.13.22s-.08,0-.13,0l.16-.28Z"/><path d="M4.36,14.92l.11.27H4.33c0-.08,0-.17,0-.25Z"/><path d="M71.53,68.57a2.08,2.08,0,0,1,0,.25h-.12c0-.08.08-.16.13-.24Z"/><path d="M6.14,21h.32v.08l-.32,0Z"/><path d="M54.31,55.85l-.14.15s-.09-.08-.09-.11.05-.1.07-.16Z"/><path d="M4.07,25.05c0-.06-.06-.11,0-.13s.07-.07.1-.1,0,.08,0,.12S4.12,25,4.07,25.05Z"/><path d="M71.39,66.78l-.14,0s0,0-.07-.06.06-.08.1-.08S71.34,66.73,71.39,66.78Z"/><path d="M69.37,58.49l.12.25-.12,0-.08-.26Z"/><path d="M49.16,30.5l.25-.09,0,.08Z"/><path d="M.7,75.63,1,75.57l0,.11-.32,0Z"/><path d="M9.65,25.74l.12-.06s0,.08,0,.11-.05.06-.08.08Z"/><path d="M6.09,11.51c-.06,0-.1.06-.12.05a.5.5,0,0,1-.14-.08s.08-.1.09-.1A.86.86,0,0,1,6.09,11.51Z"/><path d="M38.86,30.16v.18l-.21-.06Z"/><path d="M8.22,23.46l-.09-.11s.09-.08.14-.09.07.06.1.09Z"/><path d="M6.71,18.46c.06.08.11.12.14.17s0,.08,0,.11a.63.63,0,0,1-.11-.12S6.7,18.55,6.71,18.46Z"/><path d="M63,71.83a.59.59,0,0,1,0-.2s.06,0,.09-.08a.83.83,0,0,1,0,.15S63,71.75,63,71.83Z"/><path d="M64.31,71.41a1.28,1.28,0,0,1,.12.2s-.06.06-.09.08l-.1-.11S64.27,71.52,64.31,71.41Z"/><path d="M66.11,71.59a1.52,1.52,0,0,1-.06-.27.29.29,0,0,1,.1-.07.94.94,0,0,1,.06.15A.86.86,0,0,1,66.11,71.59Z"/><path d="M7.33,24.32l-.11-.06a1.49,1.49,0,0,1,.14-.12l.08,0Z"/><path d="M5,22.06l-.12.14a.39.39,0,0,1-.08-.14s0-.08.07-.13Z"/><path d="M6.4,20.32l-.09,0,.09-.14s0,0,.07,0Z"/><path d="M9,22.17l.13.31s-.09,0-.1,0l0-.28Z"/><path d="M6.36,24.21l.1.12s-.07.06-.1.06-.08-.06-.12-.09Z"/><path d="M4.64,14.73l-.15-.18.19-.08Z"/><path d="M7.62,10.32l-.32-.11,0-.08.28.18Z"/><path d="M60.35,69.9l-.21-.07a.65.65,0,0,1,.13,0s.07,0,.1.06Z"/><path d="M35.07,11.8l0,.06-.17,0s0-.09.07-.09A.34.34,0,0,1,35.07,11.8Z"/><path d="M41.89,69.24h.38v.08l-.36-.1Z"/><path d="M4.55,13.71s.09.08.1.11a.28.28,0,0,1,0,.12s-.08-.06-.1-.1S4.53,13.77,4.55,13.71Z"/><path d="M6.64,21.32l.27-.13,0,.12Z"/><path d="M72.91,68.13s-.06,0-.06-.06L72.9,68s.06,0,0,0S72.92,68.1,72.91,68.13Z"/><path d="M71.78,68.12l-.06,0a.06.06,0,0,1,0-.12Z"/><path d="M13,4.83l.06,0a.33.33,0,0,1,.06.1s0,0-.05.06Z"/><path d="M63.37,72.47c-.06,0-.11.08-.13.07a.68.68,0,0,1-.12-.12s.09,0,.13,0S63.32,72.43,63.37,72.47Z"/><path d="M4.37,15.82l-.06.08-.12-.1s0,0,0-.07Z"/><path d="M5.61,17.71c0,.07.06.11,0,.14s-.06.06-.09.09a.32.32,0,0,1,0-.09A.59.59,0,0,1,5.61,17.71Z"/><path d="M0,73.89v-.21H.06v.21Z"/><path d="M49.6,33.49c-.06,0-.1.08-.13.08a.17.17,0,0,1-.06-.1.13.13,0,0,1,.07,0S49.54,33.46,49.6,33.49Z"/><path d="M9.59,23.74l-.24.16,0-.09.29-.06Z"/><path d="M36,13l-.09-.21.11,0A2.17,2.17,0,0,0,36,13Z"/><path d="M9.83,26.43l-.1-.08.17-.07.06,0Z"/><path d="M6.4,19.79l.1.06s-.07.08-.09.07a.91.91,0,0,1-.14-.07Z"/><path d="M49.66,14.26l-.13,0s0-.08.09-.09.06,0,.1.05Z"/><path d="M73,65.6l0,0s0,0,0,0l-.05,0Z"/><path d="M8,76.23l.24,0,0,.08L8,76.22Z"/><path d="M8,20.46l.29-.27c.24.13.22.26,0,.38l-.27,0Z"/><path d="M8,20.54l.27,0-.06.2L8,20.56Z"/><path class="cls-1" d="M63.16,70.66c-.24.14-.64.13-.75,0h0c.14-.44-.34-.39-.47-.61-.08.1-.16.26-.21.25s-.3-.14-.29-.19a2.84,2.84,0,0,1,.21-.54c-.4.2-.7.21-.41-.49l-.16,0a2.54,2.54,0,0,0-.16.38c0,.1,0,.22,0,.32s-.13,0-.2,0,.08-.19,0-.23a.54.54,0,0,0-.29-.17,2.82,2.82,0,0,0-.58,0c-.19,0-.4.08-.27-.25-.1,0-.24-.12-.3-.09s-.13.2-.2.32c-.2-.43-.22-.43-1.08.19,0-.44-.1-.55-.53-.41-.2.06-.68.23-.51-.39,0-.13-.15-.33-.24-.49a.24.24,0,0,0-.14,0,1.15,1.15,0,0,0-.12.25c-.12.36-.31.53-.67.27h0l-.39-.19a2.84,2.84,0,0,1-.3.37.85.85,0,0,1-.28.1l.15-.21a.28.28,0,0,0,.06-.1c-.09-.06-.2-.2-.26-.18a1,1,0,0,1-1.2-.22.26.26,0,0,0-.27,0c-.46.45-1-.14-1.47.15a.59.59,0,0,1-.35.1c-.1,0-.18-.23-.27-.23a1,1,0,0,0-.39.2.59.59,0,0,1-.83-.08l-.15.14c-.09.08-.15.25-.27,0,0-.08-.44,0-.67,0a.62.62,0,0,1-.27,0c-.06,0-.11-.11-.14-.18a.78.78,0,0,1,0-.22,1.37,1.37,0,0,0-.18.16,2,2,0,0,1-1.49.26c-.07-.06,0-.25,0-.38,0-.34-.06-.69-.1-1.11a3,3,0,0,0-.7.52,1.43,1.43,0,0,1-1.36.44c-.34,0-.37.13-.4.38s.08.76-.46.32l-.09,0c-.2.39-.47.06-.71.08a8.28,8.28,0,0,0-.87.12s-.08.1-.12.15h0c-.28,0-.53-.19-.84,0-.13.06-.66.25-.34-.43l-.24.22c-.26.17-.46.76-.85.07-.08-.13-.43-.51-.8-.18a.44.44,0,0,1-.37-.14c-.11-.23-.48-.25-.43-.58,0,0-.17-.15-.2-.13a1,1,0,0,0-.29.26,2.32,2.32,0,0,0-.22.41s0,.11,0,.16a.74.74,0,0,1-.2,1L37,69.31c0-.27-.05-.28-.46-.1l-.11.3c-.12-.19-.59,0-.49-.4l-.32.16.14.25,0,0-.2.3h0c-.25,0-.57.34-.75-.19-.13-.37-.31,0-.45.08a3.28,3.28,0,0,1-.67.45c-.1,0-.29-.21-.48-.36L33.1,70,33,70v-.34l-.1,0a1,1,0,0,1-.1.35,6.3,6.3,0,0,1-.48.55c-.08-.13-.25-.35-.22-.38.27-.28,0-.31-.15-.31s-.39-.38-.53,0c0,.06-.11.09-.17.14a1.83,1.83,0,0,0-.08-.25c0-.09-.07-.17-.1-.26l-.08.22-.19-.15a1.09,1.09,0,0,0-.17-.13c0,.09-.07.22,0,.26a.83.83,0,0,0,.29.1c0,.18-.39.3-.09.53-.12.13-.22.36-.34.38-.43,0-.87,0-1.29,0a4.5,4.5,0,0,0-1.75.41c-.34.21-.77.16-1,.47a.14.14,0,0,1-.11,0c-.5-.53-.9.13-1.35.12-.29,0-.62-.05-.85.26,0,0-.34-.23-.53,0a1.44,1.44,0,0,1-.22.27.28.28,0,0,1-.23,0c-.09-.05-.16-.21-.23-.2s-.52-.15-.5.3c0,.08-.32.16-.48.26s-.42.13-.58-.13a.67.67,0,0,0-.3-.22s-.13.13-.17.22a1.83,1.83,0,0,0-.11.33c0-.06-.1-.19-.11-.18l-.52.27c0-.14,0-.33,0-.51s-.1-.09-.16-.14a1.27,1.27,0,0,0-.06.18c0,.23-.05.46-.08.69h-.14v-.72h-.17a2.32,2.32,0,0,1,0,.53.8.8,0,0,1-.34.42v-.85l-.08,0a4.81,4.81,0,0,0-.35.77c-.12.43-.48.38-.75.36s-.49-.16-.68.15c0,0-.11,0-.16,0-.25-.08-.25-.08-.32.11s-.09.12-.14.19a1.15,1.15,0,0,1,0-.26c0-.08.1-.13.13-.2s.08-.24.12-.36l-.11,0c.14.26-.54,0-.23.35.05.07-.09.28-.14.43l-.45-.16.18-.1-.24-.11.07.22-1,.56a.85.85,0,0,1-.28.1l-.51.09.05-.35a3.55,3.55,0,0,0-.55.06c-.11,0-.19.16-.3.23a1.38,1.38,0,0,1-.27.14,2.44,2.44,0,0,0,0-.27s0-.09-.07-.13-.12,0-.13.08a1.49,1.49,0,0,1-1.11.71,4.51,4.51,0,0,0-1,0c-.11,0-.2.21-.31.31a1.61,1.61,0,0,0-.15-.36s-.14,0-.19,0l-.16.47-.36-.16c0,.42-.27.59-.67.37l-.12-.07c-.11.47-.78.12-.89.6H8l-.33.12c0-.08.11-.16.15-.24s.05-.14.08-.2-.18-.07-.22,0c-.32.24-.62.5-.83.68a3.59,3.59,0,0,0-.8-.3c-.09,0-.23.22-.32.36a2.38,2.38,0,0,0-.16.4l-.2-.18a1.55,1.55,0,0,0,0-.31c0-.16,0-.38-.07-.47s-.44-.38-.71,0a.35.35,0,0,1-.33,0,1.61,1.61,0,0,0-1.64.12,1.08,1.08,0,0,1-.36,0c.05-.08.12-.15.17-.24l.2-.37a.35.35,0,0,0,.13,0,1.29,1.29,0,0,0,.4-.07s0-.19,0-.29a1.69,1.69,0,0,0-.39.08c-.08,0-.13.12-.2.18l-.31.09-.09-.11L2.27,75a.92.92,0,0,0-.28,0,.31.31,0,0,0-.18.11l-.32.39-.26-.56v0c0-.53-.07-.61-.5-.34s-.3-.28-.52-.21l.15-.94.21,0-.14.9c.41-.3.14-.85.55-1.07l.53-.54-.2-.12L1,73.22c-.2.11-.29.08-.38-.16s.08-.21.19-.31c.29-.23.52-.52.79-.78s.71-.63,1-1c.09-.09.1-.26.15-.39a3,3,0,0,0-.39.14.22.22,0,0,0-.06.07c-.22.34-.43.41-.57-.16-.15.3-.23.54-.36.74s-.25.33-.37.33,0-.2-.06-.28a5.13,5.13,0,0,0-.34-.52c-.13-.25-.07-.37.16-.57.07-.06.06-.21.13-.29a.65.65,0,0,1,.34-.24,1.5,1.5,0,0,0,1.25-1.3c.27.16.52.3.77-.05.12-.16.32,0,.42.13s-.07.18-.09.18c-.37-.1-.15.36-.37.39.1.13.18.31.31.38a.6.6,0,0,0,.5,0c.55-.36.26.15.33.29L4,70l.14.17.21-.24a5.72,5.72,0,0,0,.46-.37c.17-.14.24-.27-.08-.32a1.56,1.56,0,0,1-1-.57A1.46,1.46,0,0,0,4.9,67.52c.06-.22.32-.38.49-.56h-.3c.08-.19.15-.52.24-.53.43,0,.28-.45.47-.65s.29-.35.58-.17a.43.43,0,0,0,.41,0c.28-.32.52-.68.71-.92,0,.35.4.07.44,0a.91.91,0,0,1,.76-.36.35.35,0,0,0,.2-.12c.12-.16.15-.47.48-.25,0,0,.21-.17.29-.28s.11-.08.31-.17a1.93,1.93,0,0,0,.48-.43,1.1,1.1,0,0,0,.15-.24c.24.32.43.28.63,0A1.63,1.63,0,0,1,12,62.4c.17-.06.34-.37.58-.11,0-.11.12-.23.17-.35s.06-.44.25-.07c0,0,.08,0,.13.06.11-.34.73-.06.72-.63,0-.13.41-.3.66-.41.5-.23,1-.43,1.54-.65.07,0,.18,0,.19-.08.12-.47.66-.43.86-.68a4.74,4.74,0,0,1,1.19-.85,1.45,1.45,0,0,1,.26-.11c.2-.11.53-.1.45-.49,0-.05.15-.16.24-.21l1-.59.06.16a2.8,2.8,0,0,1,.25-.35,15.07,15.07,0,0,1,1.26-1.14,8.66,8.66,0,0,1,1-.45c.23-.11.66.06.65-.41,0-.06-.06-.17-.1-.17s-.14.05-.21.08a1.1,1.1,0,0,1,.2-.28c.24-.19.31-.59.73-.55h0l.09.43a1.44,1.44,0,0,0,.33-.27,3,3,0,0,0,.46-.91l-.3.32c-.06-.26-.06-.26.6-.81l.14.44h.08l.11-.57h0c.15.2.25.49.47,0,.11-.24.44-.35.21-.73-.11-.19.27-.46.48-.37a1.11,1.11,0,0,0,.25.05,2.34,2.34,0,0,1,0-.26l.06-.35.14.33,1-1h0c.17-.26.18-.65.63-.68.09,0,.24-.29.21-.41-.12-.52.25-.75.52-1,0,.11,0,.22,0,.33.06,0,.16-.1.16-.15s-.07-.15-.1-.22.05-.43.37-.4c.07,0,.16-.09.21-.16L31,46.46s.11,0,.16,0,.16,0,.18-.07c.27-.48.51-1,.79-1.44s.59-.89.88-1.34.57-.89.83-1.35.34-.71.5-1.07A12.72,12.72,0,0,1,35,39.85a8.48,8.48,0,0,0,1-2.11,8.37,8.37,0,0,1,.76-1.31c.13-.26.11-.6.22-.87.22-.54.4-1.08.61-1.62,0,0,.1,0,.14,0s.17-.15.15-.2a1.39,1.39,0,0,1,.33-1.24c0-.05.1-.1.09-.13-.21-.64.29-1.13.37-1.71,0-.1.16-.18.25-.27v-.18a1.85,1.85,0,0,1-.13-.29c-.08-.24.36-.27.22-.62s.06-.58.11-.87a4.9,4.9,0,0,1,.18-.88,2.17,2.17,0,0,0,.12-1.18c0-.06.12-.13.14-.2a.75.75,0,0,0,.08-.43,2.08,2.08,0,0,1,.15-1.49c0-.08-.1-.22-.1-.34,0-.79,0-1.58,0-2.37s0-1.69-.1-2.53a4.54,4.54,0,0,0-.29-.9l-.12.47-.12,0a1.3,1.3,0,0,1,.08-.41c.32-.44.15-.84-.06-1.26a2.71,2.71,0,0,1-.12-.58c-.11-.4-.12-1-.38-1.14-.44-.27-.5-.88-.8-1s-.48-.25-.33-.6l0,0c-.16-.11,0-.54-.43-.4a.55.55,0,0,1-.21-.35c0-.48-.22.07-.26-.08h0a6.25,6.25,0,0,0-.16-.62c0-.09-.18-.22-.21-.2-.6.32-.39-.22-.43-.33l-1-.33h-.21c-.28.06-.59,0-.85.17-.06,0-.3,0-.33-.08s-.16-.15-.29,0-.18,0-.28,0-.45-.36-.66,0c0,0-.09,0-.1,0-.23-.58-.45-.18-.66,0s-.11.1-.23,0a.65.65,0,0,0-.49-.07,7.08,7.08,0,0,0-.78.25s-.06,0-.09,0l.09-.15c0-.11,0-.22,0-.33l.13-.19-.2.12h-.27l.18.17.13.24L29.29,11l-.51-.13,0,.1.42.14-.38.56a1.65,1.65,0,0,1,0-.24l.06-.32-.25.21a1.33,1.33,0,0,1-.76-.25c-.1-.27-.39-.35-.53-.13a.63.63,0,0,1-.89.31c-.24-.09-.57.1-.85.07s-.53-.16-.57-.3c-.14-.5-.29-.16-.45-.06s-.22.25-.5.17a5.42,5.42,0,0,0-1.4-.08c-.06,0-.15.13-.18.22-.18.49-.5.6-.85.24s-.51.07-.73.22h0c-.11,0-.28,0-.33.13-.38.62-.44.66-1.07.63l.21-.5c-.41.25-.71.44-1,.61-.08.05-.2,0-.3,0h-.2c0,.43-.46.37-.63.63s-.23.43-.45.09a4.19,4.19,0,0,1-.5.31.44.44,0,0,1-.3,0c-.08,0-.13-.12-.19-.18l-.2.23.19.1-.95,1a2.63,2.63,0,0,1-1.17.91.18.18,0,0,0-.11.13.48.48,0,0,1-.64.49H13a.69.69,0,0,0,.16.18,1.93,1.93,0,0,0,.36.14,2,2,0,0,0-.9,1.34c0,.09-.26.12-.39.2s0,.13,0,.19h0l-.48.29c.1.17.19.39.46.22,0,0,.09.06.09.07a.53.53,0,0,1-.11.24c-.33.23-.45.46-.09.79.06.06,0,.3-.08.45s-.16.32-.25.51L12,21l.25.06c-.05.08-.08.2-.14.22-.3.11-.28.35-.22.57s-.23.7.22.91l-.51.09.07.18.44-.28a2.65,2.65,0,0,1,0,1.23,2.24,2.24,0,0,1-.58.06l-.1.09c-.19,0-.4.1-.33-.28,0-.21-.47-.29-.3-.65,0,0-.11,0-.12,0s-.12.13-.11.19c.1.46-.24.7-.5,1,0,.05-.23.05-.24,0a1.56,1.56,0,0,1-.1-.37l-.09-.22h0s0,0,0,0l.33-.62-.68-.16h0A1,1,0,0,0,9.16,22s-.08.1-.13.15H9a1.08,1.08,0,0,0-.44.18,8.32,8.32,0,0,0-1,1.12c-.17.25-.32.13-.5.12a1.71,1.71,0,0,0,.09-.3c0-.23,0-.45,0-.68a3.77,3.77,0,0,0-.08-1.49c-.07-.19.19-.53.3-.8a.91.91,0,0,0,.1-.29c0-.31-.08-.61-.08-.91,0-.09.14-.18.22-.27a1.43,1.43,0,0,0,.12-.21,1.47,1.47,0,0,0-.21,0l-.34.05a1.63,1.63,0,0,0,.11-.31c.06-.42.12-.85.16-1.27a1.25,1.25,0,0,0,0-.58c-.08-.2-.2-.42-.48-.15-.13.13-.17.09-.2-.27.19-.18.29-.36-.06-.49,0-.07,0-.14,0-.22l-.12.07.18.14,0,.51c-.11.19-.22.37-.31.56s-.12.33-.19.54c-.08-.28-.15-.48-.19-.68s.06-.17.08-.26a2.74,2.74,0,0,0,0-.49c0-.15-.08-.29-.11-.43a.57.57,0,0,1,0-.18c-.67-.08-.13-.53-.24-.78l.27-.2-.27,0c-.28-.48-.1-.83.53-1.38.44-.38,1-.69,1.16-1.32,0-.09.2-.13.28-.22s0-.13,0-.2l.29-.2a4.67,4.67,0,0,0,.49-.27.44.44,0,0,0,.16-.22c.11-.52-.44-.63-.61-1l-.61.29-.35.21c0-.12.1-.24.16-.36C7.58,9.1,8,9,8.46,8.92L8.57,9c.07.07.19.22.22.2A1.1,1.1,0,0,0,9.07,9H8.72l-.28,0c.15-.17.29-.34.46-.5s.36-.28.53-.43.08-.48.38-.18c0,0,.09-.06.09-.09.1-.44.57-.57.76-.93,0-.06.11-.1.16-.16s.15-.36.28,0a.57.57,0,0,0,.25,0c.28-.15.66.1.87-.23A1.45,1.45,0,0,0,12.33,6a2.23,2.23,0,0,0-.31.12c-.13.06-.24.14-.42.24.05-.24-.28-.52.24-.55a2.45,2.45,0,0,0,.75-.28h.05c0,.26.24.38.41.23a1,1,0,0,0,.33-.65c0-.64.54-.79.9-1.09.07-.06.31.08.47.13l.22,0c.16-.48.56-.43.94-.46.08,0,.19-.24.2-.37s-.05-.51.34-.32a.17.17,0,0,0,.08,0c.22-.6.62-.17.94-.16s.7,0,.54-.52c0-.1.07-.23.11-.35.06,0,.13.17.17.16a2,2,0,0,0,.48-.2c.13-.08.15-.39.41-.09.08.08.43,0,.63-.11s.49-.27.74-.39a.19.19,0,0,1,.18,0c.39.27.71-.1,1.07-.11.09,0,.18-.18.29-.3.08.43.28.42.62.17.11-.07.34-.61.57-.06,0,0,.08-.08.13-.08.65-.11,1.3-.21,1.94-.33A1.7,1.7,0,0,0,25.8.43c.09,0,.24-.15.27-.12.25.23.58.11.85.2,0,0,.17-.2.19-.24s.32.13.43.09c.28-.09.5-.31.83,0a.73.73,0,0,0,.66,0c.32-.21.55,0,.81,0a4.11,4.11,0,0,0,.6-.08c.36,0,.86.15,1,0s.63.1.81-.23c0,0,.11,0,.17,0,.36.05.71.28,1.07,0a.11.11,0,0,1,.11,0c.05,0,.08.15.11.14.3,0,.58-.07.88-.09A.46.46,0,0,1,35,.17c.22.2.34.17.44-.11,0,0,.15,0,.24-.06a2.62,2.62,0,0,1,0,.28,2,2,0,0,1,0,.25.88.88,0,0,0,.23-.07.47.47,0,0,1,.63.22c.08.23.14.5.5.28s.15-.31,0-.33c-.39,0-.29-.28-.3-.52.71.36.71.36.8.88A2,2,0,0,1,37.59.5c.06-.1.19-.15.22-.12s.32.19.4.14c.45-.25.84,0,1.23.14.13,0,.49,0,.4.36A.52.52,0,0,0,40,1L40.5,1c0,.13-.08.27-.11.4s0,.15-.07.32l-.48-.57c0,.34,0,.59.06.83a2.86,2.86,0,0,0,.44,0c0,.31.1.71.62.78a.2.2,0,0,1,.08.15c-.19.65.45,1.14.27,1.78l.14,0,.38-.47c.23.14.51.3.78.48s.35.3.57.06c0,0,.2.07.21.14a1.77,1.77,0,0,0,.74,1.16c.1.07.1.32.13.49s0,.22,0,.33a2.14,2.14,0,0,1,.28-.12l.62-.12h0c.1.22.19.44.3.66s.46.48.1.87c-.12.13-.06.7.07.76.39.2.32.48.38.8s.36.43.57.63c0,0,.21-.06.25-.13.18-.32.34-.66.56-1.1a7.84,7.84,0,0,0,0,1c0,.2,0,.53.38.4,0,0,.17.16.16.21a1.1,1.1,0,0,0,.31,1.08,5.3,5.3,0,0,1,.49,1.3c.06.17,0,.51.4.33,0,0,.11.15.09.19a1.42,1.42,0,0,0,.21,1.58c.1-.18.19-.37.3-.54s.14-.09.21-.13.12.17.1.24a1,1,0,0,1-.21.52c-.24.24-.21.55-.31.82s.05.37.3.36l.22-.11c.07.29.15.59.2.89a2.44,2.44,0,0,1-.3.09.86.86,0,0,0,0-.27c0-.1.46-.11,0-.26l-.33-.19,0,.12.36.07-.61.56.87.33-.75.59s0,0-.07.21a5.54,5.54,0,0,1,.51-.34,1.82,1.82,0,0,1,.28-.11c0,.09-.11.19-.08.25.08.24-.42.58.14.72a2.16,2.16,0,0,1-.16.51,3.5,3.5,0,0,1-.4.55l.14.14.52-.29a1.32,1.32,0,0,0,.07,1.22c0,.13-.17.43-.33.59s-.2.16,0,.34h0c.48.17.1.53.18.78l-.26-.17-.06.25.32-.09c0,.33.33.71-.22.92,0,0,0,.35,0,.52-.06.36-.15.72-.23,1.07,0,.15-.21.35.14.35a.42.42,0,0,1,0,.15c-.43.25,0,.41,0,.62a1.51,1.51,0,0,1,0,.73c-.13.48.08,1-.39,1.44-.15.14-.18.42-.28.63s-.16.26-.24.39l-.15,0,.27.39a.94.94,0,0,0-.35.17s.07.21.11.32h0a2.68,2.68,0,0,1,.11,1.89H48.8c0,.22-.08.56,0,.64.38.3-.06.39-.1.57a2.35,2.35,0,0,1-.19.43.39.39,0,0,0,.16.1c.24-.3.34,0,.39.13s.33.61,0,.74c-.55.23-.44.63-.38,1a3.19,3.19,0,0,1-.12,2c-.07.15-.24.28-.27.43-.08.4-.08.82-.16,1.21a7.31,7.31,0,0,1-.36,1.12c-.07.19-.21.35-.28.54s-.1.66-.23.7c-.35.11-.19.34-.25.51s0,.3-.13.34c-.38.21-.31.59-.41.91A5.64,5.64,0,0,1,46,44.83c-.15.27-.34.52-.51.77a.16.16,0,0,0,0,.08,3.89,3.89,0,0,1-.93,2.25c-.1.11-.09.32-.14.48s-.67,1.16-.69,1.21a.21.21,0,0,1-.08.12c-.47.2-.49.63-.61,1.06a4.34,4.34,0,0,1-.71,1.11c-.3.45-.59.9-.9,1.34s-.53.66-.78,1-.43.63-.66.94-.4.51-.6.77-.35.47-.54.73c.2-.26.58.24.75-.21.21.24.46.06.69,0,.41,0,.81-.13,1.23-.17s.86-.07,1.29-.11c.19,0,.5,0,.55-.12.17-.35.27-.07.41,0s.24.42.33,0a.34.34,0,0,1,.19,0,3.28,3.28,0,0,0,1.81-.14l.12-.05c.29.42.67.12,1,.12a.42.42,0,0,0,.28-.12c.17-.2.29-.22.4.06a.46.46,0,0,0,.14.16c.52-.4,1.22,0,1.74-.4a.42.42,0,0,1,.38,0c.25.28.42.22.62,0,0-.06.26-.06.27,0,.12.56.45.2.7.14,0,0,0-.07.08-.11.32.47.7,0,1,.07s.3.38.4.51a3.71,3.71,0,0,1,.39-.48s.18.06.28.09l-.29.44.77-.14h0c.07.34.06.33.32.22,0,0,.15.07.23.09s.31.1.47.15a1.48,1.48,0,0,1,0-.36.36.36,0,0,1,.16-.18c.32.2.32,0,.37-.24s.12-.16.19-.23c0,.09.17.2.15.26-.15.35.19.16.2.16.17-.13.33-.27.49-.41.5.45.76.48.94.08.09.4.4.46.74.48l.07.06.75-.26,0,.3c.2-.09.38-.18.56-.24s.11.13.17.2l-.2.09,1.25.34L62,56c0,.06.14.15.12.17-.21.39.17.69.16,1s.15.33.35.09c0-.05.16,0,.24-.06s.07,0,.08.05c.12.25.29.19.43,0s0-.17,0-.26-.27.07-.4.12a.37.37,0,0,0-.12.07c0-.22,0-.44,0-.65A.69.69,0,0,1,63,56.4c0,.07,0,.15.07.22a.73.73,0,0,0,.06.11l.53-.44s.1,0,.16,0c0,.32.28.22.42.33a1,1,0,0,1,.22.24H65c.07,0,.2,0,.2,0,0-.41.18-.11.31-.06a1.4,1.4,0,0,0,.42,0l.1.43.13-.06.14.12.09-.17.17-.13c.19.19.36.38.54.57a.34.34,0,0,0,.18.11,4.13,4.13,0,0,1,.63.12.59.59,0,0,1,.23.35.93.93,0,0,1,0,.37c0,.3.15.26.34.18h0s.11.08.1.1c-.12.33.32.38.33.64a.9.9,0,0,1,.25-.08c.49,0,.38.51.61.74,0,.06-.08.42.15.58-.19.21-.39.42-.58.64s-.11.16-.17.24a2.31,2.31,0,0,1-.24.2,3.87,3.87,0,0,0-.34.21c-.06,0-.09.1-.13.16a2.12,2.12,0,0,0-.11-.21l-.37-.57c-.26.44-.26.44-.08.9l.46-.34c-.26.43-.18.67.28.79a.16.16,0,0,0,.13-.06,1,1,0,0,0,0-.24l.45.11a2,2,0,0,1-.08.33c-.07.19-.27.44-.21.55a1.5,1.5,0,0,0,.57.48c.06,0,.22-.08.28-.11a3.34,3.34,0,0,1-.41-.45s.14-.17.22-.26c0,.11,0,.22,0,.33l.13,0L69.51,63a3.22,3.22,0,0,1,.37.2,1.49,1.49,0,0,1,.15.2l.2-.24c.08-.1.15-.2.24-.3a.26.26,0,0,1,.12,0,1.76,1.76,0,0,1-.1.41c-.09.17-.35.42-.31.46.31.38.31-.28.6-.17a.61.61,0,0,0,0,.18,2.66,2.66,0,0,0,0,.28A.61.61,0,0,0,71,64c.17-.11.29-.3.47-.37a3.19,3.19,0,0,1,.71-.14c-.06.37.73.44.33,1a.74.74,0,0,0,0,.51c.14.55.11.6-.44.63h0l-.58-.32c.2.58-.27.69-.5.88a2.79,2.79,0,0,0-.56,1s.17.17.26.26l.19.23.09-.08a2.2,2.2,0,0,0-.17-.25c.24-.42.36,0,.52.08s.31.26.1.45-.44.21-.17.49c-.07.06-.13.17-.21.18a1.61,1.61,0,0,1-.44,0c0-.09,0-.25-.07-.33s-.83-.15-1.22,0l.08-.31-.06-.08c-.27.25-.64.46-.8.77-.25.48.58.4.53.87l-.55-.14.07.11-.51.31.11-.27-.16,0,0,.29-.12.08c.18.17.07.32,0,.51a2,2,0,0,0,0,.73.24.24,0,0,0,.17.11c.21,0,.51-.11.34.31,0,0,.07.06.08,0a3.87,3.87,0,0,0,.37-.24c.52.71.52.72.07,1.15.08-.43-.16-.66-.63-.63-.65,0-1-.21-1-.78-.15,0-.45.37-.46-.13-.09,0-.2,0-.26.09a1.6,1.6,0,0,0-.24.35c-.06-.21.26-.63-.27-.46,0,0-.1-.22-.19-.29a.41.41,0,0,0-.33-.07c-.08,0-.16.26-.12.3.34.39-.35.22-.24.46A1.76,1.76,0,0,1,65,71a1.57,1.57,0,0,1-.1-.44l.14.11a1.51,1.51,0,0,0,.18.09s.06-.06.08-.1a.76.76,0,0,0-.19-.12.78.78,0,0,0-.21,0l-.34,0c.07.2-.48.23-.13.5-.15.14-.27.34-.45.42s-.59-.22-.56-.53l.44-.17c-.17.25-.1.41.27.49l-.21-.55-.24-.33c.06-.14.11-.27.16-.41-.08.12-.52.14-.15.39l-.38.28a1.89,1.89,0,0,0-.11-.25L63,70.17s-.12.08-.13.13a.31.31,0,0,0,.06.21C63,70.57,63.1,70.61,63.16,70.66ZM28.58,10.75l.28.05v-.13l-.26.1s-.05.08-.08.11a.58.58,0,0,1-.12.1l.06.07s.09-.07.11-.12A.52.52,0,0,0,28.58,10.75Zm-14,63.15h.28l-.1-.2-.17.21-.1.29h.15ZM34.08,10.81l.08.21.09-.06-.18-.14,0-.28-.22.06ZM1.94,70.16l.45-.2-.1-.14-.35.34-.22-.08a.29.29,0,0,1,0,.06Zm22.7,1.21-.32-.07v.13l.32-.06.06.2.14-.15Zm-16-49.55L8.43,22l.08.1.25-.21.05-.46H8.63ZM2.8,69.65l.33.1,0-.16-.36.07,0-.47-.37.36ZM8,20.54v0c-.46.52-.44.71.1,1.05.08-.21.15-.42.25-.62a5,5,0,0,1,.32-.48,2.36,2.36,0,0,1,.23-.2,2.68,2.68,0,0,0,.07.27,3,3,0,0,0,.15.31c.06-.07.18-.14.17-.19-.05-.33-.13-.65-.2-1,0,.52-.37.3-.57.37a.84.84,0,0,0-.21.11c-.41-.1-.25-.43-.12-.56.44-.4.12-.89.22-1.33-.23.43-.47.84-.67,1.28s0,.62.26.87ZM7.84,18a4.38,4.38,0,0,0,.34-.29s.08-.11.07-.13-.12-.11-.14-.1c-.18.13-.52.19-.26.54l-.21.3.12.06ZM45,44.77l.33-.64c-.55.13-.29.44-.32.66l-.25.37.11.07c0-.13.07-.25.1-.37ZM64.33,68.54l.12.28h.08l-.06-.35-.15.09c-.06-.42-.28,0-.41-.08l-.1.32.31-.14ZM68.91,61a.58.58,0,0,0,.23,0c.09-.08.25-.21.23-.28s-.18-.19-.27-.28c0,.11,0,.22-.06.33a1.15,1.15,0,0,1-.12.25l-.18,0,.17.16ZM38.6,13.47l-.05.2.17,0-.13-.15c.35-.35-.18-.41-.18-.64C38.25,13.3,38.25,13.3,38.6,13.47ZM9.8,19.85a1.79,1.79,0,0,0-.06.5,1.45,1.45,0,0,0,.27.44s.12,0,.12-.05a2.46,2.46,0,0,0-.1-.47,2.55,2.55,0,0,0-.23-.43c.25.32.27-.17.44-.12v-.15l-.26.2Zm.15,2c.08,0,.21,0,.24,0,.15-.23.28-.48.41-.73a2.9,2.9,0,0,0,.39,0,3.94,3.94,0,0,0,.09-.6l-.16-.05-.3.63c-.76.17-.82.25-.66.77l-.33.4s.11.05.12,0l.21-.37S10,21.86,10,21.83ZM39,4c-.07.45.22.43.45.45a.57.57,0,0,0,.22,0c.1,0,.27-.06.29-.12a.58.58,0,0,0-.06-.36c-.05-.12-.16-.2-.21-.31s0-.16,0-.24-.23,0-.29.08S39.08,3.81,39,4ZM68,67.66c-.15-.07-.23-.13-.26-.11-.41.26-.5,0-.52-.32,0,0-.18-.09-.24-.07a1.1,1.1,0,0,0-.28.25,2.39,2.39,0,0,0-.22.23c.1.06.21.2.29.18s.33-.06.38.19c0,0,.23.07.31,0A3.93,3.93,0,0,0,68,67.66ZM66.46,70.3l.15.28.22-.26s.06-.14.11-.15c.32-.11.32-.26.09-.47a.91.91,0,0,1-.13-.3,2,2,0,0,0-.38.38A1.55,1.55,0,0,0,66.46,70.3ZM24.78,2.78l-.17,0c-.15.19-.46.42-.42.55.08.31.44.31.67.17C25.39,3.13,24.48,3.08,24.78,2.78ZM48.05,67.52a8.12,8.12,0,0,0-.65.63.63.63,0,0,0,0,.41.41.41,0,0,0,.28,0,.53.53,0,0,0,.26-.25A6.72,6.72,0,0,0,48.05,67.52ZM7.87,22.81,8.31,22c-.1,0-.28-.11-.3-.08a2.57,2.57,0,0,0-.39.6C7.59,22.52,7.74,22.64,7.87,22.81ZM44,36.82l.24,0c0-.26.09-.51.14-.77s.07-.22.09-.34a2.72,2.72,0,0,0,0-.28c-.08.05-.23.09-.24.16C44.16,36,44.1,36.42,44,36.82ZM35.77,2.88c-.22-.1-.41-.18-.6-.28a2,2,0,0,1-.24-.16c0,.07-.13.17-.11.22a.65.65,0,0,0,.23.29,1.68,1.68,0,0,0,.33.16c.07,0,.17.1.2.08S35.68,3,35.77,2.88Zm-2.17.34c-.5.2-.58.52-.27.95C33.51,3.86,34.08,3.67,33.6,3.22Zm4.83.38L38,4.1c.13.09.34.27.39.24a1.46,1.46,0,0,0,.38-.47A3,3,0,0,0,38.43,3.6Zm-1.34-.45c-.09.19-.17.34-.23.5s.12.16.14.15l.65-.41Zm2.58,6.42c-.27-.23-.46-.39-.66-.53,0,0-.12.08-.17.13s0,.09.08.13a1.66,1.66,0,0,0,.16.21.8.8,0,0,0,.27.25S39.49,9.68,39.67,9.57Zm7.72,58.8-.28-.5c-.07.12-.21.24-.21.37s.12.27.19.41ZM22.22,72.29l-.16-.2-.2-.44a1.76,1.76,0,0,0-.27.42c0,.07.18.21.3.26S22.11,72.31,22.22,72.29ZM69.7,65.9c-.15-.31-.4-.27-.64-.15-.07,0-.09.19-.13.3a1.31,1.31,0,0,0,.28,0C69.36,66,69.51,66,69.7,65.9ZM25.25,4.17l-.68-.4,0,.54Zm18.8,33.6-.25-.13c-.08.17-.18.33-.25.51s.1.12.15.18Zm3.61-26.39c-.2.13-.45.21-.45.31s.15.31.26.51Zm-38,3.74.26.3c.06-.07.17-.16.16-.22a1.69,1.69,0,0,0-.19-.38ZM13.8,8.53c-.14-.15-.25-.3-.27-.29a3.07,3.07,0,0,0-.34.29,1.19,1.19,0,0,0,.3.18C13.56,8.72,13.65,8.62,13.8,8.53ZM1.91,74.4a4.83,4.83,0,0,0-.46.44s.08.12.13.18c.14-.16.28-.32.41-.5C2,74.51,2,74.45,1.91,74.4ZM26.79,3.28l-.41-.64-.07.6ZM2.55,75l.25-.51-.62,0Zm27.94-5-.18-.08-.31.45.27.12ZM36.84,2.21a2.29,2.29,0,0,0,.64.18c.08,0,.16-.28.22-.39ZM12.43,9.15l0,.14.43.08V9Zm4.23-1.54a1,1,0,0,0,.21-.15A3,3,0,0,0,17.13,7L17,7a4.61,4.61,0,0,0-.28.38A1.27,1.27,0,0,0,16.66,7.61Zm-7.25,5.7.1.09.4-.36-.16-.16ZM41.93,8.1c-.11-.11-.19-.23-.25-.22-.56.06.15.29,0,.41l.06.11ZM65.22,58.29l.17,0-.11-.69-.16,0ZM48.08,38.18l.19,0c0-.16-.07-.33-.1-.49s-.12,0-.12,0ZM11,19.86c.07-.08.14-.14.13-.18a.89.89,0,0,0-.13-.23c-.06.06-.17.12-.17.18S10.91,19.76,11,19.86ZM6.87,15l.09.11.41-.32-.1-.12Zm3.62,4,.11.05.21-.35-.22-.09Zm16-7.78c.42-.09.58-.21.3-.53Zm9.91-8.87c0,.12-.09.21-.07.24a3.85,3.85,0,0,0,.27.3c0-.06.14-.14.12-.16A2.22,2.22,0,0,0,36.43,2.32Zm-29,11.6-.12.13.32.29.16-.22Zm38,28.74-.17-.09-.25.48.14.08ZM12.24,17.08l.12.07.26-.35-.13-.08ZM6.89,75.92c.27-.29.27-.29,0-.49ZM28.83,70.6l.08,0-.11-.35-.19.14ZM9.37,16.91l-.14.17a1.2,1.2,0,0,0,.21.13s.07-.06.11-.09Zm35.25-2.69c.08-.11.14-.16.15-.22s-.06-.1-.09-.15-.14.07-.16.13S44.57,14.1,44.62,14.22ZM56,68.38c-.08.1-.15.16-.14.19s.12.16.18.24.11-.08.1-.1S56.1,68.53,56,68.38Zm7.93-2,0,.1.3,0,0-.13ZM8.37,75.24c-.09.12-.16.18-.2.25s.09.12.13.12.12-.07.14-.12S8.41,75.36,8.37,75.24Zm57.11-8.46-.15-.12c-.07.11-.15.22-.21.33s0,.06.08.09Zm1.24-8.29.13-.07-.18-.35-.15.09ZM37.05,11.75l.06-.05s0-.1,0-.13a.67.67,0,0,0-.17-.06ZM33.44,2.68V2.49l-.4.06v.08ZM30.56,4.33l.09-.07-.23-.34L30.31,4ZM19,5.88l-.08-.11a1.59,1.59,0,0,0-.32.16s0,.13,0,.2Zm6.87,5V11c.12,0,.23,0,.34,0a.9.9,0,0,0,0-.17ZM43.74,46.1l.16-.05-.13-.38-.13,0Zm.84-11.63a.8.8,0,0,0-.17-.14.38.38,0,0,0-.17,0c.06.07.11.14.18.21ZM39,15.36l.13.06.18-.31L39.21,15ZM8.45,17l.13.06.13-.37-.07,0Zm28.89-13-.07-.1L37,4l.11.15ZM8.77,19.19c.06-.1.1-.14.09-.18a.44.44,0,0,0,0-.15c-.05,0-.15.05-.14.07A.72.72,0,0,0,8.77,19.19ZM16.46,6.35l0,.07.4-.15s-.06-.1-.07-.1ZM9.87,23.07a1.89,1.89,0,0,0,.07-.35s-.06-.08-.1-.12a.56.56,0,0,0-.11.2C9.72,22.86,9.79,22.92,9.87,23.07ZM45,67.88l.15-.06L45,67.48l-.1,0ZM11.79,17.78l-.12-.07-.11.38.13,0Zm32.55,27h-.11l0,.45h.12ZM8.11,13.72l0-.11-.38.18.06.11ZM6,75.9l0-.1-.37.13,0,.11ZM3.27,74.61v.11c.11,0,.22,0,.33-.06s0-.08,0-.13ZM9.35,21.38l-.1-.05-.09.3.08,0Zm28.78-9.17L37.87,12s-.08.12-.07.13a.52.52,0,0,0,.19.14S38.07,12.24,38.13,12.21ZM44.54,34V33.9h-.3l0,.12ZM37.79,12.73l.12,0,.1-.28-.13,0C37.84,12.54,37.82,12.64,37.79,12.73ZM64.84,57.57c-.06-.06-.13-.13-.14-.12a1.37,1.37,0,0,0-.18.16s.1.11.15.11S64.77,57.64,64.84,57.57ZM47.51,37.89l.13,0,.13-.36-.08,0ZM27.51,70l0,.1.36.11a.71.71,0,0,1,0-.12C27.74,70,27.62,70,27.51,70ZM46,42c-.05.08-.1.13-.13.19l.08.09.14-.16S46.07,42.08,46,42ZM63.24,68.14l.1-.15h-.18c-.06,0-.13.06-.13.1s0,.11.06.16ZM50,20.66l-.11,0,.07.41h.06ZM13.72,14.92l.06,0-.15-.31-.1.06Zm30.81,30.8.21-.19s-.09-.12-.1-.11a.77.77,0,0,0-.21.14S44.48,45.65,44.53,45.72ZM36.37,9.49l-.13-.12a.33.33,0,0,0-.1.14s.06.08.09.13Zm-24,1.28c-.1-.07-.14-.12-.19-.12s-.09,0-.14.06.06.11.11.12S12.29,10.81,12.41,10.77ZM7.84,17l.1,0,0-.3H7.87ZM42.2,8.47c-.06,0-.11-.1-.12-.09a.79.79,0,0,0-.17.14s.08.1.1.09A1,1,0,0,0,42.2,8.47ZM7.27,13.81c-.1,0-.15-.07-.21-.06s-.08.06-.13.09S7,14,7,14A1.4,1.4,0,0,0,7.27,13.81Zm3.39,6.26-.14-.13a1.07,1.07,0,0,0-.14.16s.06.09.08.08A1.44,1.44,0,0,0,10.66,20.07Zm-1.2-4.3.09.08.21-.3-.11-.07Zm-.8-3.28c-.09-.07-.14-.14-.18-.14a.54.54,0,0,0-.18.1s.08.09.12.09A.72.72,0,0,0,8.66,12.49ZM65.08,66.61c-.09-.07-.13-.11-.18-.12s-.07,0-.1.07,0,.1.09.12S65,66.65,65.08,66.61ZM61.37,60.2l.13-.1a.5.5,0,0,0-.14-.08s-.06,0-.09.07ZM38.88,11.77c-.08.12-.11.16-.11.19s0,.07.07.11.08-.09.09-.13S38.91,11.85,38.88,11.77Zm-4.24-8,0-.11c-.06,0-.14.08-.17.13s0,.1.08.15Zm15,64.8h.08a.25.25,0,0,0,0-.12,1,1,0,0,0,0-.17.33.33,0,0,0-.1.14S49.6,68.5,49.61,68.55Zm-39-46.09a.85.85,0,0,0-.15-.09l-.1,0s0,.09.07.09A.67.67,0,0,0,10.57,22.46ZM37.71,11.84l-.16-.11a.3.3,0,0,0,0,.13s.06.06.09.08Zm1.5-10c.08-.09.15-.14.14-.18s-.07-.08-.11-.13-.08.06-.08.1S39.18,1.77,39.21,1.88Zm-3.49-.14-.14-.13s-.09.08-.09.13,0,.08.07.12Zm33.4,64.89.08,0-.11-.25,0,0ZM32.73,2.76c.06-.12.1-.16.09-.21s0-.09-.07-.13-.1.08-.11.13S32.68,2.64,32.73,2.76ZM67,58.51c0,.1-.07.15,0,.19s.08.07.12.11.07-.1.07-.14S67,58.59,67,58.51Zm-19-46.11-.06.09.28.19.06-.09ZM10.5,14.18a.93.93,0,0,0,.19.06s.06,0,.09-.07a.35.35,0,0,0-.13-.08S10.59,14.12,10.5,14.18ZM17,73c.09.07.14.13.19.13s.09-.06.14-.09-.07-.09-.11-.09A.63.63,0,0,0,17,73Zm32.47-4.79-.07,0-.13.25.1,0ZM68,71.37l-.08-.07-.21.17.13.12Zm-17.38-3v.07l.21.08,0-.06Zm13,0-.09-.09-.21.18.09.09Zm3.92,2.44h.07v-.38h-.07ZM3,70l0,.12.31.06,0-.09Zm63.29-1c0,.06-.1.1-.1.12a.55.55,0,0,0,.08.15s.1,0,.1-.08A.55.55,0,0,0,66.32,69.07ZM27.61,10.48c-.14,0-.19-.06-.24-.06s-.06.05-.09.08.07.09.1.09S27.48,10.54,27.61,10.48Zm16.22,35,.06.09.24-.19-.05-.07Zm4.11-6.79c0-.11.08-.16.07-.21a.6.6,0,0,0-.09-.15s-.12.08-.12.12A1.14,1.14,0,0,0,47.94,38.68ZM6.35,69.8l.15-.14s-.08-.06-.1,0a.45.45,0,0,0-.13.11ZM13.68,9.27c-.15-.06-.2-.1-.21-.09a1,1,0,0,0-.14.15s.07.08.09.07A1.52,1.52,0,0,0,13.68,9.27ZM36,10.4l.07,0s0-.09,0-.12a.45.45,0,0,0-.1-.14ZM9.29,8.81l-.07,0s.06.05.09.05,0,0,.06,0ZM41,17.27s0-.07-.05-.07a.38.38,0,0,0-.13,0s0,.09.06.09A.23.23,0,0,0,41,17.27ZM43.5,38.51l-.12-.13a.56.56,0,0,0-.07.16s0,.07.08.1ZM17.43,6.35l-.08,0a.94.94,0,0,0-.1.1s.06,0,.08,0ZM44.09,46.13l.08-.11s-.08-.05-.09,0a.41.41,0,0,0-.07.11ZM65.18,69.26c0-.12.06-.17,0-.22s-.06-.07-.09-.1-.09.09-.09.14S65.11,69.17,65.18,69.26Zm-49.47-56c-.05,0-.09-.06-.12-.05s-.07.07-.06.09.06.06.1.08ZM26.49,70.66l-.1,0,.16.17s0-.06,0-.07A.67.67,0,0,0,26.49,70.66ZM44.68,35c-.06.15-.09.19-.09.24s0,.09,0,.13.09-.07.11-.11S44.72,35.18,44.68,35ZM26.94,71.28a1.31,1.31,0,0,0,.13-.16s0-.06-.06-.09-.1.07-.13.12S26.9,71.21,26.94,71.28ZM8.11,13.08S8,13,8,13a.12.12,0,0,0-.1.06.31.31,0,0,0,0,.12ZM23.89,71.8c0-.09,0-.16,0-.17a1.21,1.21,0,0,0-.2-.09ZM34,3.07C33.83,3,33.79,3,33.77,3a.43.43,0,0,0-.16.09ZM5.12,75S5.06,75,5,75l-.13,0s0,0,.07,0ZM7.84,16,8,15.9s-.08-.1-.1-.09-.08.07-.13.11ZM65.67,67.15l.08.07.19-.22,0,0Z"/><path class="cls-1" d="M5.21,18.43a1,1,0,0,0,0,.17c.17-.13.34-.25.5-.39s.16-.14.17-.22c.07-.55.43-.49.86-.4L5.7,20.36a1,1,0,0,1,.24-.13.18.18,0,0,1,.19.05s0,.14,0,.22c-.39,0-.14.38-.26.56s-.12.29-.22.36a.43.43,0,0,1-.35-.06.85.85,0,0,1,.06-.45c.15-.32.15-.3-.1-.58a.32.32,0,0,1,0-.27c.19-.34.4-.65.59-1a1.78,1.78,0,0,0,.09-.33c-.09.22-.33-.39-.4.08a1.48,1.48,0,0,1-.28.56c0,.07-.09.18-.15.19s-.16-.07-.24-.11a1.24,1.24,0,0,0,.1-.2C5.05,19,5.12,18.74,5.21,18.43Z"/><path class="cls-1" d="M6.64,21.32c.35.3,0,.49-.13.72a3.36,3.36,0,0,1-.32.51c0,.06-.06.18,0,.2.6.59-.19.54-.34.78,0-.25.19-.55.11-.74-.24-.48.18-.7.32-1s.26-.3.4-.45Z"/><path class="cls-1" d="M4.27,18.44c.36-.77-.66-1.62.24-2.41a4.06,4.06,0,0,0-.12.55c0,.18-.37.39.12.53.15,0,.21.59.19.9C4.69,18.16,4.42,18.3,4.27,18.44Z"/><path class="cls-1" d="M11.38,24.11l.1-.09a2.64,2.64,0,0,0,.29.21c.41.18.23.51.21.79,0,.05-.17.15-.22.13a2,2,0,0,1-.44-.26.26.26,0,0,1,.07-.18C11.71,24.5,11.55,24.31,11.38,24.11Z"/><path class="cls-1" d="M7.66,10.65c-.21.24-.4.49-.63.71a1.78,1.78,0,0,1-.43.23l-.13-.12-.22-.29c.11,0,.24.06.33,0,.26-.13.5-.31.76-.46a1.5,1.5,0,0,1,.32-.07Z"/><path class="cls-1" d="M7.66,10.65h0c0-.11,0-.23,0-.34h0l.73-.18-.22.77-.29.2Z"/><path class="cls-1" d="M70.53,70.37c-.21.13-.35.28-.51.3s-.26-.13-.4-.2l.4-.56Z"/><path class="cls-1" d="M6.47,11.47l.13.12c-.29.33-.34.9-.89.94l.15-.64Z"/><path class="cls-1" d="M45.57,68.43l.21-.24.16-.11a6.12,6.12,0,0,1,.4.49s-.1.12-.17.16a.22.22,0,0,1-.16,0Z"/><path class="cls-1" d="M2.18,75.52l.09.11L2,75.85l-.12.07c.39.67-.37.18-.4.41A.93.93,0,0,1,2.18,75.52Z"/><path class="cls-1" d="M45.19,6.63l.39-.89.13,0a1.47,1.47,0,0,1,0,.42,3.31,3.31,0,0,1-.22.55l-.3-.11Z"/><path class="cls-1" d="M69.43,62.1c0-.2-.06-.5,0-.56s.41,0,.59,0l-.52.59Z"/><path class="cls-1" d="M4.56,20.47l0,.37.21-.55.18.07A5.11,5.11,0,0,1,4.7,21s-.3,0-.3,0a3,3,0,0,1,0-.52Z"/><path class="cls-1" d="M72.1,65.6c.07.59.06.6-.62.62.29-.2.14-.69.63-.61Z"/><path class="cls-1" d="M5.11,16.67l.25-.84h.13c0,.16.15.34.1.47s-.25.26-.38.38Z"/><path class="cls-1" d="M20.9,11.72l.24,0,.32.09-.19.13L21.2,12l-.41.15c0-.16.08-.32.11-.47Z"/><path class="cls-1" d="M6.47,10.88c.12-.27.24-.53.37-.79,0,0,.16,0,.18.08.1.23-.27.68-.56.7Z"/><path class="cls-1" d="M68.42,58.69a3.4,3.4,0,0,0,.06-.46,1,1,0,0,0-.09-.26c.08,0,.2,0,.23.07a.71.71,0,0,1,.13.42c0,.1-.22.15-.35.22Z"/><path class="cls-1" d="M5,12.69c.08.2.12.26.1.28-.12.21-.26.42-.4.62l-.11-.05Z"/><path class="cls-1" d="M9.24,22.93c-.06.23-.1.46-.18.68s-.15.11-.22.16a.68.68,0,0,0,.05-.22c-.06-.32.11-.48.35-.62Z"/><path class="cls-1" d="M50.07,16.35l-.22.11c-.06-.31-.09-.61.22-.83Z"/><path class="cls-1" d="M7,17.33c.19-.22-.57-.44-.09-.62.06,0,.14,0,.21,0Z"/><path class="cls-1" d="M70.35,60.58s-.11.08-.11.07a2.82,2.82,0,0,1-.29-.39s.06-.12.1-.18Z"/><path class="cls-1" d="M6.05,25c-.09-.1-.22-.19-.22-.26s.11-.2.17-.31c.1.08.25.15.27.24S6.14,24.88,6.05,25Z"/><path class="cls-1" d="M37.57,15.85l.36-.5C38.23,15.77,37.78,15.74,37.57,15.85Z"/><path class="cls-1" d="M24.13,54.12l.18-.57.23.14-.43.42Z"/><path class="cls-1" d="M49.27,32.39s.07.08.07.11a2.75,2.75,0,0,1-.11.41.8.8,0,0,1-.16,0,1.91,1.91,0,0,1,.1-.34.53.53,0,0,1,.11-.15Z"/><path class="cls-1" d="M71.53,68.58c.07,0,.14-.09.21-.09a1.13,1.13,0,0,1,.32.05s0,.09,0,.14-.2,0-.3,0a2.67,2.67,0,0,1-.26-.09Z"/><path class="cls-1" d="M35.07,11.8c.15.06.29.11.43.18a.24.24,0,0,1,0,.17.19.19,0,0,1-.15,0c-.11-.09-.21-.21-.32-.31Z"/><path class="cls-1" d="M5.13,17.73c0-.2.07-.41.12-.62,0,0,.14,0,.2,0a.42.42,0,0,1,0,.16C5.35,17.4,5.25,17.54,5.13,17.73Z"/><path class="cls-1" d="M69.17,69.88l0,.62h-.08L69,69.9Z"/><path class="cls-1" d="M4,21.55c0,.16,0,.31-.07.47H3.79v-.5Z"/><path class="cls-1" d="M73.16,66.33c0,.14,0,.29.08.43l-.08,0L73,66.34Z"/><path class="cls-1" d="M4.57,23.39,4.8,23s.09,0,.14,0l-.22.41Z"/><path class="cls-1" d="M28.27,50.41c-.37-.06-.37-.07-.1-.5,0,.21.06.36.08.52Z"/><path class="cls-1" d="M34.45,11.2h.21a.86.86,0,0,1,0,.27.31.31,0,0,1-.17.17c-.05,0-.13,0-.2-.06a1.13,1.13,0,0,0,.12-.18A.67.67,0,0,0,34.45,11.2Z"/><path class="cls-1" d="M5.05,15.37l-.28.32-.09-.06.25-.37Z"/><path class="cls-1" d="M12.24,18.38l.3-.05-.13.43-.1,0-.06-.37Z"/><path class="cls-1" d="M4.53,21.33H5v.14l-.43,0Z"/><path class="cls-1" d="M36.45,69.51l.11-.3.37.11Z"/><path class="cls-1" d="M11.78,26.21c-.09-.21-.14-.28-.12-.3a1.3,1.3,0,0,1,.19-.22c0,.06.1.12.09.17A1.33,1.33,0,0,1,11.78,26.21Z"/><path class="cls-1" d="M25.62,52.73l0-.09.13-.28.12.13-.29.23Z"/><path class="cls-1" d="M4.38,14.93l.11-.38.15.18-.28.19Z"/><path class="cls-1" d="M42.88,4.52l.36-.23.07.1L43,4.61Z"/><path class="cls-1" d="M4.48,18.93l-.27.36-.09-.1.24-.35Z"/><path class="cls-1" d="M6.23,76.87l0-.34h.11v.34Z"/><path class="cls-1" d="M46.79,9.33l-.19.2s-.12-.1-.11-.11a1.7,1.7,0,0,1,.15-.22Z"/><path class="cls-1" d="M35.78,69.52c.36,0,0,.23.07.33l-.25-.06h0l.2-.3Z"/><path class="cls-1" d="M3.74,20.89v-.45h.09v.45Z"/><path class="cls-1" d="M54.36,56.12l.29-.34.12.14-.42.19Z"/><path class="cls-1" d="M58.66,56.19l-.07-.06.18-.41.07,0Z"/><path class="cls-1" d="M25.92,51.38c-.06.09-.12.19-.19.28s-.09,0-.14-.08l.23-.28Z"/><path class="cls-1" d="M12.22,22.07l-.13.41-.09,0,.08-.41Z"/><path class="cls-1" d="M6.78,19.47l.11-.34a.75.75,0,0,1,0,.21.6.6,0,0,1-.09.15Z"/><path class="cls-1" d="M41.37,1.82c-.1.06-.16.11-.23.11S41,1.83,41,1.82s.09-.15.16-.16S41.29,1.74,41.37,1.82Z"/><path class="cls-1" d="M31.53,70.32l-.3.34-.1-.1Z"/><path class="cls-1" d="M4,19.54l-.18.17c0-.05-.12-.11-.11-.15a.2.2,0,0,1,.14-.13S4,19.49,4,19.54Z"/><path class="cls-1" d="M3.72,19.16v-.32h.12l0,.33Z"/><path class="cls-1" d="M55.75,68.87l.21.49-.12,0c0-.18-.05-.35-.08-.52Z"/><path class="cls-1" d="M36.44,12.68c-.08.42-.18.49-.42.32h0l.44-.32Z"/><path class="cls-1" d="M5.42,13.74l-.28.31L5.05,14l.27-.31Z"/><path class="cls-1" d="M7.63,25.59l.18.29s-.11,0-.11,0-.11-.17-.17-.26Z"/><path class="cls-1" d="M71.23,63.17l.09.16s-.08.05-.11,0-.08-.06-.11-.1Z"/><path class="cls-1" d="M72.34,66.64s0-.1,0-.11a.17.17,0,0,1,.09-.08s.07,0,.1.06Z"/><path class="cls-1" d="M50.21,22.07l.25-.32.09.14-.35.17Z"/><path class="cls-1" d="M4,24.25l0-.39h.08v.4Z"/><path class="cls-1" d="M6.46,10.87l-.32,0-.08,0c.13-.37.27,0,.41,0Z"/><path class="cls-1" d="M38,69.36a.8.8,0,0,1-.13.22s-.08,0-.13,0l.16-.28Z"/><path class="cls-1" d="M4.36,14.92l.11.27H4.33c0-.08,0-.17,0-.25Z"/><path class="cls-1" d="M71.53,68.57a2.08,2.08,0,0,1,0,.25h-.12c0-.08.08-.16.13-.24Z"/><path class="cls-1" d="M6.14,21h.32v.08l-.32,0Z"/><path class="cls-1" d="M54.31,55.85l-.14.15s-.09-.08-.09-.11.05-.1.07-.16Z"/><path class="cls-1" d="M4.07,25.05c0-.06-.06-.11,0-.13s.07-.07.1-.1,0,.08,0,.12S4.12,25,4.07,25.05Z"/><path class="cls-1" d="M71.39,66.78l-.14,0s0,0-.07-.06.06-.08.1-.08S71.34,66.73,71.39,66.78Z"/><path class="cls-1" d="M69.37,58.49l.12.25-.12,0-.08-.26Z"/><path class="cls-1" d="M49.16,30.5l.25-.09,0,.08Z"/><path class="cls-1" d="M.7,75.63,1,75.57l0,.11-.32,0Z"/><path class="cls-1" d="M9.65,25.74l.12-.06s0,.08,0,.11-.05.06-.08.08Z"/><path class="cls-1" d="M6.09,11.51c-.06,0-.1.06-.12.05a.5.5,0,0,1-.14-.08s.08-.1.09-.1A.86.86,0,0,1,6.09,11.51Z"/><path class="cls-1" d="M38.86,30.16v.18l-.21-.06Z"/><path class="cls-1" d="M8.22,23.46l-.09-.11s.09-.08.14-.09.07.06.1.09Z"/><path class="cls-1" d="M6.71,18.46c.06.08.11.12.14.17s0,.08,0,.11a.63.63,0,0,1-.11-.12S6.7,18.55,6.71,18.46Z"/><path class="cls-1" d="M63,71.83a.59.59,0,0,1,0-.2s.06,0,.09-.08a.83.83,0,0,1,0,.15S63,71.75,63,71.83Z"/><path class="cls-1" d="M64.31,71.41a1.28,1.28,0,0,1,.12.2s-.06.06-.09.08l-.1-.11S64.27,71.52,64.31,71.41Z"/><path class="cls-1" d="M66.11,71.59a1.52,1.52,0,0,1-.06-.27.29.29,0,0,1,.1-.07.94.94,0,0,1,.06.15A.86.86,0,0,1,66.11,71.59Z"/><path class="cls-1" d="M7.33,24.32l-.11-.06a1.49,1.49,0,0,1,.14-.12l.08,0Z"/><path class="cls-1" d="M5,22.06l-.12.14a.39.39,0,0,1-.08-.14s0-.08.07-.13Z"/><path class="cls-1" d="M6.4,20.32l-.09,0,.09-.14s0,0,.07,0Z"/><path class="cls-1" d="M9,22.17l.13.31s-.09,0-.1,0l0-.28Z"/><path class="cls-1" d="M6.36,24.21l.1.12s-.07.06-.1.06-.08-.06-.12-.09Z"/><path class="cls-1" d="M4.64,14.73l-.15-.18.19-.08Z"/><path class="cls-1" d="M7.62,10.32l-.32-.11,0-.08.28.18Z"/><path class="cls-1" d="M60.35,69.9l-.21-.07a.65.65,0,0,1,.13,0s.07,0,.1.06Z"/><path class="cls-1" d="M35.07,11.8l0,.06-.17,0s0-.09.07-.09A.34.34,0,0,1,35.07,11.8Z"/><path class="cls-1" d="M41.89,69.24h.38v.08l-.36-.1Z"/><path class="cls-1" d="M4.55,13.71s.09.08.1.11a.28.28,0,0,1,0,.12s-.08-.06-.1-.1S4.53,13.77,4.55,13.71Z"/><path class="cls-1" d="M6.64,21.32l.27-.13,0,.12Z"/><path class="cls-1" d="M72.91,68.13s-.06,0-.06-.06L72.9,68s.06,0,0,0S72.92,68.1,72.91,68.13Z"/><path class="cls-1" d="M71.78,68.12l-.06,0a.06.06,0,0,1,0-.12Z"/><path class="cls-1" d="M13,4.83l.06,0a.33.33,0,0,1,.06.1s0,0-.05.06Z"/><path class="cls-1" d="M63.37,72.47c-.06,0-.11.08-.13.07a.68.68,0,0,1-.12-.12s.09,0,.13,0S63.32,72.43,63.37,72.47Z"/><path class="cls-1" d="M4.37,15.82l-.06.08-.12-.1s0,0,0-.07Z"/><path class="cls-1" d="M5.61,17.71c0,.07.06.11,0,.14s-.06.06-.09.09a.32.32,0,0,1,0-.09A.59.59,0,0,1,5.61,17.71Z"/><path class="cls-1" d="M0,73.89v-.21H.06v.21Z"/><path class="cls-1" d="M49.6,33.49c-.06,0-.1.08-.13.08a.17.17,0,0,1-.06-.1.13.13,0,0,1,.07,0S49.54,33.46,49.6,33.49Z"/><path class="cls-1" d="M9.59,23.74l-.24.16,0-.09.29-.06Z"/><path class="cls-1" d="M36,13l-.09-.21.11,0A2.17,2.17,0,0,0,36,13Z"/><path class="cls-1" d="M9.83,26.43l-.1-.08.17-.07.06,0Z"/><path class="cls-1" d="M6.4,19.79l.1.06s-.07.08-.09.07a.91.91,0,0,1-.14-.07Z"/><path class="cls-1" d="M49.66,14.26l-.13,0s0-.08.09-.09.06,0,.1.05Z"/><path class="cls-1" d="M73,65.6l0,0s0,0,0,0l-.05,0Z"/><path class="cls-1" d="M8,76.23l.24,0,0,.08L8,76.22Z"/><path class="cls-1" d="M8,20.46l.29-.27c.24.13.22.26,0,.38l-.27,0Z"/><path class="cls-1" d="M8,20.54l.27,0-.06.2L8,20.56Z"/></g></g></svg>