<svg xmlns="http://www.w3.org/2000/svg" viewBox="0 0 58.12 83.73"><title>xxiv-four-black</title><g id="Layer_2" data-name="Layer 2"><g id="Layer_3" data-name="Layer 3"><path d="M58.46,48.84l-.18-.15.18-.13Z" transform="translate(-0.33 -0.58)"/><path d="M53.64,71.79c-.08.11-.29.21,0,.31,0,0,0,.12,0,.16s-.23.3-.38.48c.37.17.71.42,1-.23l.11.13c0,.54.05,1.07.06,1.61,0,.07-.09.13-.14.2a.61.61,0,0,1-.11-.21c0-.21,0-.43,0-.65a1,1,0,0,0-.09-.29s-.11,0-.11,0,0,.2-.06.3v1.11a.08.08,0,0,1,0,0c-.76.27-.28.84-.29,1.29a10.51,10.51,0,0,0,.06,1.12,7.66,7.66,0,0,0,.18.8,7.72,7.72,0,0,1,.24,1.14c0,.32-.1.65-.07,1s.19.55,0,.84c0,0,0,.07,0,.08.18.15.47.3.07.5a1,1,0,0,1-.58.12c-.15,0-.47.1-.42-.27-.15,0-.35-.45-.49,0a1,1,0,0,1-.33.41,1.83,1.83,0,0,1-.32.14,2.39,2.39,0,0,1-.15-.37c-.1-.38-.17-.76-.26-1.14h-.15l-.16.88.09,0,.09-.17h.06a3.15,3.15,0,0,1-.05.43c0,.14-.22.33.11.36a3.84,3.84,0,0,1-.11.4s-.15.08-.15.12c0,.53-.18.29-.34.06s-.22-.39-.49-.22c0,0-.1,0-.15,0a1,1,0,0,1,.06-.16,1.46,1.46,0,0,0,.26-.53l-.45.43-.34-.44c-.13.21-.3.3-.51,0,0,0-.23-.07-.26,0-.18.27-.36.1-.58,0s-.56,0-.32-.43c0,0-.18-.16-.25-.14a.58.58,0,0,0-.21.93.11.11,0,0,0,.11,0A.7.7,0,0,0,48,81.8c0,.1,0,.19,0,.29a1.39,1.39,0,0,1,0,.4.68.68,0,0,1-.22.35s-.25-.09-.3-.18-.14-.59-.32-.69c-.5-.28-.48-.6-.26-1,.05-.09-.13-.38-.37-.14,0,0-.11,0-.11-.06a1.27,1.27,0,0,1,.06-.18l.17-.38-.15,0,0,.4-.31-.69a2.47,2.47,0,0,1-.06-.29,2,2,0,0,0-.42.48c-.08.2-.42.32-.16.68.09.12,0,.45.34.5-.2.21-.34.47-.55.55s-.5.52-.69-.1c-.07-.23-.47-.33-.42-.74s-.13-.5-.48-.31a2,2,0,0,1,.11-.35c0-.06.09-.11.09-.16S43.85,80,43.8,80s-.12.13-.12.2a2.09,2.09,0,0,0,0,.43v.32h0l-.16-.07a.38.38,0,0,0,0,.15,1.65,1.65,0,0,1,0,.32c0,.07-.09.12-.14.19a.9.9,0,0,1-.14-.2,1.14,1.14,0,0,0-.21-.5c-.09.17-.17.34-.27.51a1.73,1.73,0,0,1-.17.21,3,3,0,0,1-.43-.36s0-.18,0-.27.22,0,.23,0c.14.43.31.1.38,0s-.18-.6-.38-.6a4.43,4.43,0,0,1-.63,0,1.24,1.24,0,0,1-.3-.16c0-.07.13-.13.15-.21a.53.53,0,0,0,0-.25s-.05-.06-.07-.09c.53-.31-.16-.8.16-1.15,0,0-.06-.19-.13-.22a.91.91,0,0,1-.41-1,4.84,4.84,0,0,0,.23-1,5.76,5.76,0,0,1,.18-1.13l.21.44h0s0-.08,0-.12c.14-.38.09-.58-.4-.65-.32,0-.2-.36-.16-.61s0-.53-.13-.56c-.49-.15-.27-.45-.18-.71s.07-.13-.09-.17-.16-.13-.24-.2l.19-.14.14-.11L40.59,72c.27-.11.69-.11.23-.5-.12-.11-.06-.45,0-.69s.08-.49.09-.74,0-.39-.1-.45c-.58-.37-.32-1-.41-1.46,0-.07.19-.18.33-.3l-.24-.12c-.07,0-.2-.06-.21-.1a.57.57,0,0,1,.08-.32c.07-.1.25-.56.17-.6-.25-.15-.06-.33-.07-.49s-.08-.48-.11-.72a3.26,3.26,0,0,1-.09-1.23,1.8,1.8,0,0,0-.08-1.15c0-.06,0-.13.07-.19s.18-.45.12-.5c-.29-.28,0-.54,0-.81,0-.55,0-1.1-.06-1.64,0-1.14-.07-2.28-.11-3.42,0-.12-.13-.24-.2-.36a.53.53,0,0,1-.11.24,2,2,0,0,1-.38.21c-.1.06-.28.09-.3.16-.06.25-.14.16-.24,0s-.07,0-.08,0c-.19.22-.46.05-.63.12s-.39,0-.55-.16l-.06.37c-.1,0-.26,0-.28-.11a1.24,1.24,0,0,1,0-.44c-.21-.08-.21.34-.55.24s-.17-.39-.21-.46c-.27.27-.55.54-.82.83s-.31,0-.38-.15,0-.08,0-.13h-.06c-.09,0-.22,0-.26.06-.16.2-.3.41-.5.7l-.46-1-.19.42-.27-.24a4.79,4.79,0,0,1-.15.51c-.36-.05-.08-.33-.15-.5s-.07-.26-.1-.39a1.94,1.94,0,0,0-.26.23c-.19.26-.35.3-.54-.1.23.68-.3.74-.63,1l0-.31c-.59,0-.59,0-.54-.21l-.1-.06c-.08.19-.17.37-.25.55l-.1.19a.36.36,0,0,0,0-.18c-.09-.17-.13-.5-.42-.12-.06.08-.25.08-.39.11h0a.25.25,0,0,0-.46,0,1,1,0,0,1-.83.39c-.08,0-.2-.15-.22-.13-.18.16-.53-.31-.62.16l-.2-.05c-.24-.11-.46-.25-.64.11-.06.12-.25.18-.28-.07a1.67,1.67,0,0,0,0-.39.86.86,0,0,0-.22-.25,1.6,1.6,0,0,1-.1.23c-.07.13.19.51-.26.34-.11.57-.42.17-.65.13l.25-.33-.09-.07-.39.49-.52-.07h0c-.1-.17-.2-.37-.43-.15,0,0,0,.16.06.25h0c-.12.28-.34.22-.56.16h0c0-.11-.09-.22-.14-.34s-.05-.3-.08-.45l-.12,0c.06.12.11.25.16.38l.06.06c-.35.15-.7.31-1,.44a1.1,1.1,0,0,1-.4,0l.15-.46-.66-.08v0l-.09-.25-.1.25V58l.08.34h0l-.39.27c0-.22,0-.43,0-.63l0-.17c-.07,0-.19,0-.22.05s-.18.35-.27.53h0c-.35.19-.41,0-.4-.31a.85.85,0,0,0-.05-.26c0,.06-.09.12-.13.19-.26.43-.46.47-.75.16.06,0,.16.06.19,0a1,1,0,0,0,.11-.21l-.3.18-.17.46v0l-.21-.4c-.07.13-.12.23-.18.32s-.14.12-.15.11c-.26-.26-.31.09-.45.16.05-.24-.09-.27-.27-.24s-.12.12-.19.16a2,2,0,0,1-.25.14c0-.08-.06-.15-.08-.22-.08-.23-.15-.46-.25-.75a4.27,4.27,0,0,1-.71.49c-.12.05-.31-.09-.47-.14,0,0,0-.08,0-.12s0-.13,0-.2l-.07,0a1,1,0,0,0,0,.17l0,.12a7.31,7.31,0,0,1-.77.42c-.08,0-.22,0-.33-.08h0l0-.3c0,.06-.07.14-.12.17l-.53.25v0l.05-.45a2,2,0,0,1-.29.22c-.08,0-.2,0-.29,0s-.08.09-.12.14v0h-.13c0,.42-.45.35-.63.58,0,0-.15,0-.19,0s0-.13,0-.19,0-.24,0-.36h.3c-.25-.19-.25-.19-.29,0l-.15-.07L12,58.42l-.16.47c-.09-.08-.11-.4-.37-.2v0c-.33,0-.6-.24-1-.12s.09.21,0,.32c-.23-.16-.63,0-.78-.38v0l-.15-.33-.23.43,0,0c-.21,0-.45,0-.5-.34,0,0-.16,0-.25,0s.07.1.06.14a3.07,3.07,0,0,1-.07.42H8.42l-.52-.46a2.23,2.23,0,0,1-.19.24c-.33.38-.44.35-.62-.11a2.82,2.82,0,0,0-.21-.31c.23.09.42.13.43-.22a1.22,1.22,0,0,1,.1-.24c-.06,0-.13-.06-.16,0a1,1,0,0,0-.22.24,1.83,1.83,0,0,0-.14.28.65.65,0,0,1,.05-.86c-.25,0-.38.14-.36.43s.12.55-.2.75c-.07.05,0,.29,0,.46-.14-.06-.43.07-.38-.31,0,0-.12-.13-.16-.12a.51.51,0,0,0-.19.17s.07.1.1.15l.19.21s-.11.09-.15.07-.24-.08-.25-.14a.7.7,0,0,0-.78-.64c-.09,0-.19-.15-.29-.24.24.07.39,0,.34-.28l.33,0,.48-.23-.47-.17c0,.14,0,.27,0,.41l-.33-.05c-.23-.32-.3,0-.43.1l-.43,0a.88.88,0,0,0,.16-.28,2,2,0,0,0,0-.42c-.07,0-.15.14-.2.12a.85.85,0,0,0-.83.24l-.33.15a1.1,1.1,0,0,1-.09-.15c.17-.14.36-.28.56-.42-.41-.25-.72-.25-1,.19-.07.12-.23.19-.35.28h0l.48-1,.3-.14c.28.31.86.11,1,.61.06,0,.18-.09.18-.12q-.09-.39-.21-.78l.15-.33-.18,0,.05.31c-.28.14-.54.41-.89.18,0,0-.09.07-.13.11l-.23-.15c0-.22-.05-.29-.24-.14l-.38.29a.88.88,0,0,1,.48-.84,2.17,2.17,0,0,0,.47-.39s0-.1,0-.16-.12,0-.15,0c-.39.35-.77.7-1.14,1.06-.08.07-.09.21-.13.31h.47c0,.1-.05.22,0,.3.14.36-.15.43-.36.48s-.46.11-.35-.28c0,0-.16-.13-.25-.2l.21-.66S1,56,1,55.9.88,56,.87,56c0,.24,0,.49,0,.73-.61-.2-.3-.73-.43-1.11.14.06.32.17.34.14.18-.2.54-.27.51-.63,0,0-.07,0-.11,0-.34.06-.54-.15-.43-.49.05-.17.12-.32.18-.48l-.16,0c-.05.34-.09.69-.17,1a1.31,1.31,0,0,1-.21.33,2,2,0,0,1-.05-.34,7.39,7.39,0,0,0,0-2.25c-.14-.45.33-.59.16-.91.32,0,.15-.25.22-.37.15-.29-.06-.26-.22-.29h0A1.42,1.42,0,0,1,.63,51c.05-.12-.1-.32-.1-.42a2.93,2.93,0,0,1,.18-.75c0-.08.1-.2.08-.21-.26-.24-.05-.4.09-.57s.25-.14.07-.37.08-.45.16-.68c0-.07.12-.12.19-.18s.17-.2.21-.19.27.15.27.23-.1.32-.28.09c-.13.13-.27.24-.39.38s0,.2.06.2a.61.61,0,0,0,.3,0A.77.77,0,0,0,2,47.34c-.13-.27,0-.32.23-.37a.81.81,0,0,0,.45-.2c.07-.1,0-.3,0-.45l-.25.12-.32.09c0-.14-.12-.35-.06-.42.25-.25,0-.33-.12-.45a1.33,1.33,0,0,1-.16-.17l.18-.06c.08,0,.19,0,.23-.12.18-.33.38-.63.88-.54-.23-.23-.23-.22-.55-.15a.24.24,0,0,1-.2-.08s0-.13.05-.2.06-.1.09-.11c.36,0,.5-.19.47-.58a.16.16,0,0,1,0-.11c.21-.1.34-.2.16-.44a.25.25,0,0,1,.07-.26.43.43,0,0,1,.31,0c.08,0,.14.09.26.1l-.16-.3c.29-.16.6-.25.74-.61s.15-.38-.21-.52a2.32,2.32,0,0,1-.42-.3h0a4.32,4.32,0,0,1,.61-.3c.19-.07.4-.07.14-.33,0,0,0-.16,0-.23s.14,0,.18,0c.26.2.44.11.61-.12A1.26,1.26,0,0,1,5.63,40a.65.65,0,0,1,.34,0,.72.72,0,0,1,.24.1,2.18,2.18,0,0,0,0-.44c0-.06-.09-.13-.15-.16a.37.37,0,0,0-.21,0,1.07,1.07,0,0,1,.22-.25c.2-.14.41-.25.69-.42-.25-.07-.44-.08-.53-.17s0-.28,0-.36a4,4,0,0,1-.85-.2c-.14-.06-.2-.3-.3-.46.47-.1-.06-.37.08-.48a4.53,4.53,0,0,1,.61-.34s0,0,.06,0,.35-.22.42-.18c.32.21.32.22,0,.56l.06.11A1.11,1.11,0,0,0,6.59,37a7,7,0,0,0,.41-.6c-.46-.48-.46-.48-1.08-.52,0-.08.15-.18.13-.23-.18-.48.3-.36.47-.51a.61.61,0,0,0,.14.13l.21.07c0-.09.07-.23,0-.24s-.17-.5-.49-.22c0,0,0,0,0-.06a1.09,1.09,0,0,1,0-.15c.21,0,.47-.36.59.22l.37-1L7,34.17c.14-.12-.45-.07-.06-.24.16-.07-.33-.28.07-.32a.94.94,0,0,1,.72.4,1.31,1.31,0,0,0,.41.26,2.42,2.42,0,0,0,.18-.36s0-.13-.1-.18A.76.76,0,0,0,8,33.54c-.13-.07.13-.59-.33-.28-.09.05-.32-.71-.18-.77.33-.15.32-.48.44-.73s.09-.67.56-.7c0,0,.12-.25.14-.39s0-.5.06-.76l.35.18c0-.12-.1-.28-.06-.35s-.09-.5.3-.42h0l-.08.33.09,0,.11-.34.07-.19c0-.06.12-.14.1-.17-.17-.32,0-.49.26-.6.12-.05.31-.08.07-.24a.17.17,0,0,1,0-.16c.17-.29.35-.57.53-.85,0,0,.17,0,.19,0a.51.51,0,0,1,.06.25.93.93,0,0,0,.48.68,2.22,2.22,0,0,0-.43.23c-.05,0,0,.2,0,.3a1.62,1.62,0,0,0,.19-.17c.09-.12.16-.25.24-.37s.39-.4-.06-.53a.19.19,0,0,1,0-.08c0-.21,0-.3-.16-.39l.51-.34,0,.36.5-.38-.09.35c-.06,0-.17,0-.17,0a4.37,4.37,0,0,0-.12.52.65.65,0,0,0,0,.24c.09-.07.23-.12.26-.21a2.2,2.2,0,0,0,0-.52A1.66,1.66,0,0,0,12,27l.34-.16a1.41,1.41,0,0,0-.25-.29s-.15.05-.23.08a.56.56,0,0,0-.29-.84l-.51.73A1.59,1.59,0,0,1,11.47,25c.25-.3.64-.58.69-.91a2.49,2.49,0,0,1,.21-.67c0-.08.21-.11.26-.19a1.21,1.21,0,0,0,.16-.41,1.6,1.6,0,0,0,0-.29s.06-.05.09-.08l.15.25a1.09,1.09,0,0,0,0,.17c.06.07.15.12.22.19a1.31,1.31,0,0,1-.06-.27,6.7,6.7,0,0,1,.05-1,.93.93,0,0,1,.21-.39c.06-.07.16-.17.23-.16s.24,0,.08-.17,0-.27.08-.41.17,0,.18,0a1.15,1.15,0,0,1,.06.28c.06.23.11.46-.18.58l.23.28-.15.27.16.06,0-.34c.35.15.69.31,1.05.44.08,0,.21-.08.31-.12-.05-.06-.1-.15-.17-.18s-.3-.46-.17-.7.32-.62.47-.93a.1.1,0,0,0,0-.09c-.28-.68.33-.88.68-1.19a.44.44,0,0,0,.12-.58.36.36,0,0,0-.29-.12c-.23,0-.34.17-.3.44a.66.66,0,0,1-.2.41c-.06.07-.22.06-.33.08a2.07,2.07,0,0,0,.17-.24c.08-.17.16-.34.23-.52-.09,0-.2-.07-.29,0a2,2,0,0,0-.32.21h0a5.11,5.11,0,0,0,.29-.63c.09-.27.4-.45.28-.81,0-.07.14-.2.22-.31l.22.09.05-.1-.28,0c.16-.35.36-.4.67-.19,0,0,.18,0,.19-.09a.26.26,0,0,0,0-.23c-.06-.06-.17,0-.26-.07l-.16-.08.15-.1.13,0c-.2-.49.3-.58.49-.85.07-.11.31-.25-.07-.24a.12.12,0,0,1,0-.09,3.55,3.55,0,0,1,.23-.31c.39.31.3-.09.39-.27l.15.14.55-.85,0,0,.49-.3c0,.17,0,.49-.05.49-.44,0-.27.42-.46.58a1.24,1.24,0,0,0,.23-.12c.72-.35.74-.42.34-1l0-.05a2.9,2.9,0,0,1,.54-.69,2.94,2.94,0,0,0,1-1.47.66.66,0,0,0-.63.56c0,.09-.26.12-.4.19l.05-.34v0a2.66,2.66,0,0,0,.28-.38c.09-.18.09-.41.42-.22.16.09.34,0,.47-.24.27-.46,0-.84-.06-1.26v0c.41,0,.84.12,1.15-.3,0,0,.2.08.31.09a.76.76,0,0,0,.25-.06.25.25,0,0,0,0-.12L21.85,9a4.52,4.52,0,0,0,.23-.68c0-.11-.15-.24-.23-.36-.1.07-.24.13-.28.23s0,.67-.47.47c-.05,0-.07-.09-.1-.14.27-.09,0-.64.44-.58a.61.61,0,0,0,0-.12l-.31-.13h0c0-.28.18-.32.39-.18s.37.24.52.34c.29,0,.15-.73.66-.4l0,0c.19-.39.38-.78.55-1.17,0,0,0-.14-.06-.2s0,.15-.08.2a.45.45,0,0,1-.22.13c-.29.1-.59.18-.9.27A3.58,3.58,0,0,1,22.61,6c.36-.27-.2-.62.1-.82l.35.33A5.52,5.52,0,0,0,23.24,5s-.1-.13-.16-.15a.82.82,0,0,0-.27,0L23,4.65l.35-.26s.06,0,.05.05c-.11.43,0,.62.49.75.13,0,.19.29.29.44l.62-1,.09,0a.7.7,0,0,0,0,.29,1.64,1.64,0,0,0,.26.27,1.38,1.38,0,0,0,.17-.25c0-.1,0-.24.07-.33s.18-.06.28-.09.07.21,0,.28c-.12.23-.39.4,0,.66.23.15,0,.42-.19.55s-.21.29.07.37c.09,0,.21.11.22.18.05.55.48.21.71.29s.22-.29.1-.43-.06-.17-.09-.27l.24,0c.35-.08.85-.05,1-.27s.58-.45.3-.9A2.72,2.72,0,0,1,28,4a1.34,1.34,0,0,0-.12.28,3.75,3.75,0,0,1,0,.47.79.79,0,0,1-.25.3S27.51,5,27.46,5l.26-.3a.22.22,0,0,0,.07-.07l-.32-.15a.75.75,0,0,0-.07.12s0,.13,0,.14-.14,0-.16,0-.08-.14-.05-.18.24-.34.34-.52a1.07,1.07,0,0,0,.06-.32h0V3.43h0a13.92,13.92,0,0,1,1,1c.1.11.07.36.07.54a2.89,2.89,0,0,1-.08.59,1.3,1.3,0,0,1-.08.34c0,.06-.09.18-.08.18.41.28-.23.83.28,1.08a.17.17,0,0,1,0,.12c-.27.3,0,.36.32.51a5.44,5.44,0,0,0-.59,0,1.34,1.34,0,0,0-.24.12l.2.19c.06.06.2.11.2.15,0,.22-.2.5.25.44,0,.08,0,.18-.07.23a5.11,5.11,0,0,1-.47.41,1.16,1.16,0,0,1,0-.18c0-.12,0-.24,0-.36-.08.08-.23.15-.25.24,0,.29,0,.59-.05.89-.24,0-.25,0-.21.27,0,.08.11.14.17.21l0-.26c.09.14.17.28.27.41s-.23.37.13.4l-.34.23a1.68,1.68,0,0,0-.32.09.7.7,0,0,0-.19.16l.09.08.19-.18.23-.15c0,.1,0,.27,0,.3.33.25.13.36-.06.42.08.08.21.17.19.22-.15.6-.3,1.2-.5,1.78a2.61,2.61,0,0,1-.43.59l.14.21H27l-.68,0c0,.17.38.61-.27.47,0,0-.06.09-.05.11a.47.47,0,0,0,.14.14c.2.09.27.19,0,.28s-.45.1-.66.2-.17.19-.24.29c.38.18,0,.52.16.77.41-.42.71,0,1,.16-.09.27-.18.57-.29.87s-.08.4-.34.17c0,0-.17,0-.17.07s0,.26,0,.29c-.2.15-.38.27-.54.4a1.29,1.29,0,0,0,.13.19s.07.1.1.1c.49-.08.44.17.3.47-.24.52-.47,1-.72,1.54a2.51,2.51,0,0,1-.33.4s-.09.08-.1.13A2.19,2.19,0,0,1,24,23.16a6.36,6.36,0,0,0-.2.66c-.35.74-.7,1.46-1.07,2.19,0,.1-.15.16-.22.25l-.14.14c.29.4-.13.45-.28.65a1.77,1.77,0,0,0-.18.59c0,.14.11.42-.24.36h0c.08.31-.21.45-.32.68s0,.47-.15.53c-.41.25-.27.7-.47,1,0,.05-.1.15-.13.15-.37-.07-.31.24-.4.42s-.16.29-.24.43l-.11-.06.09-.33-.11-.06c-.1.17-.29.33-.3.5a3.92,3.92,0,0,1-.55,2.32c-.08.1-.18.17-.26.27s-.11.17-.09.19c.23.23,0,.4-.09.56C18,35.74,17.42,36.85,16.89,38c-.17.35-.32.71-.48,1.07,0,0,0,0,0,0a1.23,1.23,0,0,0-.39.16s.1.22.08.32a1.65,1.65,0,0,1-.18.41,8.75,8.75,0,0,1-.78,1.63,4.59,4.59,0,0,0-.47,1.14c-.15.34-.4.64-.57,1-.07.12,0,.35-.1.42-.38.3-.32.77-.48,1.15s-.52,1-.76,1.52c-.09.19-.08.43-.16.62s-.32.65-.47,1-.28.7-.39,1.06c0,0,.15.18.2.16a6.35,6.35,0,0,0,.67-.28l0,.27a2.3,2.3,0,0,1,.78-.32c.33,0,.7.21.71-.23.31,0,.66.18.78.07.34-.3.65.07,1,0,0,0,.11.06.15,0a1.17,1.17,0,0,1,.74,0,10.54,10.54,0,0,0,1.13.34c.06,0,.16-.06.24-.09a1.46,1.46,0,0,1-.19-.16c-.15-.19-.28-.38-.42-.58a1.56,1.56,0,0,1,.39-.19,1.61,1.61,0,0,1,1.68.36s.11.09.15.07c.22-.09.44-.21.66-.3s.31-.08.47-.13a2,2,0,0,0,.49-.17c.15-.09.21-.42.47-.12a1.14,1.14,0,0,0,.34-.25c.42-.49,1-.28,1.51-.36.24,0,.57.16.74-.19a.21.21,0,0,1,.2,0c.33.23.65,0,1,0s.8-.22,1.22,0c.08,0,.21,0,.31,0,.25-.07.51-.32.72,0,0,0,.13-.06.14-.1.15-.4.47-.28.77-.29s.56-.09.85-.08.5-.25.67.14c0,.06.38,0,.58-.06a4,4,0,0,1,.67-.14,2.1,2.1,0,0,0,.95-.19,4.62,4.62,0,0,1,1.25-.25c.35,0,.72-.07,1.08-.09.2,0,.44.09.59,0s.51,0,.76,0a6.46,6.46,0,0,1,.75.11c.08,0,.21.07.24,0,.31-.37.72-.13,1.08-.2A7.7,7.7,0,0,0,39,45.9c.08,0,.24,0,.26,0,.14.24.26.19.4,0a.38.38,0,0,1,.15-.07c.28.51.49-.2.76-.06,0,0,.17-.17.26-.27-.29-.19,0-.5-.13-.71,0,0,.09-.12.11-.19a1.26,1.26,0,0,0,.05-.33c0-.39,0-.78,0-1.17a4.55,4.55,0,0,1,0-.52c0-.17.13-.34.15-.51a3.89,3.89,0,0,0,0-.68s0-.15,0-.15c.59-.21.19-.53.09-.81,0,0,0-.09,0-.13.09-.47.18-1,.29-1.42,0-.16.21-.27-.05-.44-.07,0,.1-.45.13-.69s0-.37,0-.55.08-.47.12-.71c0-.08.08-.19.06-.21-.26-.25.06-.45,0-.68a3.4,3.4,0,0,1,0-.45c0-.13-.11-.36.21-.32,0,0,.13-.24.16-.38a1.45,1.45,0,0,0,0-.36l.24-.3-.13-.07-.1.38-.15,0c0-.47,0-.93,0-1.39,0-.1,0-.07.12-.05s.14-.09.21-.14.19-.22.22-.2a.89.89,0,0,1,.31.27s0,.15-.06.18l-.64.34a1.29,1.29,0,0,1,.18.14,3.29,3.29,0,0,1,.23.33l.28-.45.27.17c-.07.19-.15.38-.23.56s-.33.48,0,.71a.21.21,0,0,1,0,.19c-.23.3,0,.35.21.4a2.09,2.09,0,0,0-.24.28.24.24,0,0,0,0,.22c.22.18.21.34-.08.5l.44.24-.15-1.25a.52.52,0,0,0,.47-.61c-.06-.4-.31-.78-.16-1.22,0,0-.07-.12-.12-.19l-.2.19a2.6,2.6,0,0,0,.19-.42c.05-.17.34-.33,0-.52a1.11,1.11,0,0,1,.1-.24,1.13,1.13,0,0,1,.12.18,1.44,1.44,0,0,1,0,.23c.08-.1.18-.19.16-.22-.11-.25.06-.23.21-.28s.22-.18.31-.29a3.07,3.07,0,0,0,.23-.39.44.44,0,0,0,0-.18c-.47-.25-.11-.54,0-.81a2.9,2.9,0,0,0,.57-.25c.05,0,0-.24,0-.44l-.54.69c-.19-.07-.32-.19-.17-.39.34-.46.68-.92,1-1.37,0-.05.14,0,.22-.06s.15,0,.15-.08c0-.23,0-.46,0-.7a1.55,1.55,0,0,1,0-.21c.06,0,.14,0,.16.06a.29.29,0,0,1,.06.21c-.09.21-.29.45.18.4,0,.33.65.26.47.73,0,.05.08.14.12.22l.19-.14.86-.62s.13,0,.2,0,0,.16-.08.22-.35.38-.52.57,0,.13-.08.2c.36.11.2.37.18.59,0,0,.11.08.16.09a1,1,0,0,0,.24,0h0c0,.38,0,.75.06,1.13,0,0,.09.05.15.07l.41.16,0,.12s-.08,0-.11,0H48c.07.2.13.41.2.61l0,0c.39.06.39.06.37.46a.18.18,0,0,0,0,.1c.37,0,.74-.1.75-.6a.59.59,0,0,0-.09-.24.88.88,0,0,0-.22.1,1.5,1.5,0,0,0-.2.23c0-.06-.11-.13-.1-.18s.11-.32.17-.33c.46,0,.06-.36.21-.48a.15.15,0,0,0-.09,0c-.38,0-.35-.14-.12-.37s.58-.61.92-1c0,.59,0,1,0,1.45a6.23,6.23,0,0,1,.09,1.28,1.59,1.59,0,0,0,.51,1.59c.15.15.07.66,0,.94s-.21.26.09.36c0,0,.09.12.08.17a2.7,2.7,0,0,1-.12.47l-.24.25.14.08.1-.33a.68.68,0,0,0,.19,0,.58.58,0,0,0,.18-.08c0,.06-.07.14,0,.18s-.47.35.08.33c0,.08,0,.17,0,.22a1.67,1.67,0,0,0-.25.5c.07,0,.13-.12.2-.12a.83.83,0,0,1,.31,0c0,.07-.07.18-.13.2-.39.12-.29.48-.33.75s.16.57.06.74c-.26.43.28.78,0,1.2A1.94,1.94,0,0,0,51,40a.8.8,0,0,0,.13-.22c0,.09.11.19.09.26-.06.26-.16.51-.23.76,0,.08-.05.2,0,.23.33.29.35.39.27.84s-.17.69.22.91c-.06.12-.54.15-.09.4,0,0,0,.15-.08.17-.23.08-.24.07-.35.33l0,.51H51l0-.42c.22-.1.33,0,.31.21a7.45,7.45,0,0,1-.14.8.52.52,0,0,0,0,.17c0,.19,0,.38.07.57a1.53,1.53,0,0,0,.11.5c0,.08.27.07.41.06L52.89,46s.07.11.12.15.23.2.26.17c.2-.13.27,0,.34.14,0,0,.17,0,.26,0l.42,0c-.07.18-.12.31-.16.44s-.05.23.29.21l-.31-.21.64-.05.17.4L55,47h0l.2-.29v0c.27-.19.49-.24.46.28.23-.49.28-.49.56-.16a.53.53,0,0,0,.23.09c.07,0,.18,0,.19,0s.08.23,0,.3a7.9,7.9,0,0,1-.64.79,1.08,1.08,0,0,1-.38.3,2.16,2.16,0,0,0-1,.47,1.08,1.08,0,0,0-.08.19c.06,0,.13,0,.18,0a2.09,2.09,0,0,1,.63-.26,4.14,4.14,0,0,0-.35.38s0,.13,0,.2.08-.09.13-.09h.5a1.89,1.89,0,0,0,.47,0c.16,0,.3-.1.25.16l.52,0-.06.48c.12-.08.3-.24.34-.21.2.15.49.29.24.64a.47.47,0,0,0-.08.4c.06.1.24.14.38.19a2,2,0,0,0,.28.06l-.15.28c-.05.07-.13.13-.18.2s-.2.31-.3.46l.48.19c-.28,0-.56.27-.87,0s-1-.08-1.23.21a2.57,2.57,0,0,1-.93,1v.14c.29.07.58.13.87.22.12,0,.31.13.32.21s0,.42-.27.49a1.63,1.63,0,0,0-.53.26s0,.09,0,.13h.14l.47,0,.11.05c-.33.58.46.25.38.61h-.89a.59.59,0,0,0-.88.17c.09.07.25.14.24.2s-.1.2-.17.29c-.38.46-.37-.16-.56-.21s-.44-.34-.67-.48c-.06,0-.19,0-.28,0s0,.1,0,.16.09,0,.13,0,.12,0,.14.07c.17.31.45.28.73.24-.07.08-.14.23-.21.23-.36,0-.71,0-1.07,0,0,0-.09.05-.09.07a.25.25,0,0,0,.08.14,7.58,7.58,0,0,1,.82.68c.07.07-.05.31-.08.48-.12,0-.33,0-.34-.09-.08-.37-.41-.22-.62-.31,0,.18,0,.37,0,.56a1.21,1.21,0,0,0,0,.27l.1-.27s.12.08.11.11a.7.7,0,0,1-.08.23,1.88,1.88,0,0,1-.12.18c.42.25-.09.21-.14.37l.47.12-.25.4.28,0a2,2,0,0,0-.16.71c0,.21.21.4.32.6a.2.2,0,0,1,0,.13c-.27.41.09.69.2,1,0,.06.08.15.05.18a.77.77,0,0,0-.05.89c.21.32,0,.57,0,.86s-.29.16-.42.27a2.26,2.26,0,0,0-.16.26.78.78,0,0,0,.25.07c.15,0,.4-.12.42-.07a1,1,0,0,1,.21.6,5.37,5.37,0,0,0,.14,1.87,5.63,5.63,0,0,0,.07.78,1.78,1.78,0,0,1,0,.91l.39,0a3.7,3.7,0,0,0-.21.33.8.8,0,0,0-.08.33,5.83,5.83,0,0,0,.07.84c0,.12.2.21.2.32,0,.48,0,1,0,1.43l0-.25-.13.1.17.16c-.09.33-.31.4-.61.31l.23-.18,0,0ZM20.1,50.41l0,.23h.08l0-.23L20,50.2l-.09.09Zm6-42.92-.4-.09v.13l.39,0a1,1,0,0,0,.07-.24L26,7.18Zm28.8,40.08c-.16-.39-.3,0-.45-.07v.13l.45-.07c0,.73.25-.06.32,0ZM42.75,37.23l-.17.12.09.12.08-.17c.3-.25.32-.34.1-.44.09-.13.2-.25,0-.39,0,0-.08,0-.13,0s.06.25.08.37h0ZM22.41,8.44,22.62,8l-.14,0-.06.53-.08.36.11,0A2,2,0,0,0,22.41,8.44ZM4,43.19c-.2-.06-.39-.11-.41.2l-.37.29c.26,0,.49.06.36-.3L4,43.19l0-.41H3.86ZM19.72,13.36l.13-.26-.19,0,0,.25-.47.26,0,.08ZM40.06,50l.31-.39-.2-.1c0,.17-.06.33-.1.5h-.31l0,.33L40,50ZM3.47,55.2l-.3.27.54.07.07-.13-.32-.22L3.83,55l0-.1-.44,0Zm2.71-3.1v-.35l-.14,0,.15.31c-.18.29-.15.55.24.72C6.34,52.58,6.26,52.34,6.18,52.1ZM17.34,16.61c.42-.13.17-.48.25-.73a.92.92,0,0,0-.17,0c-.05.22-.09.45-.13.67,0,0,0,.05.06.07H17l.05.15Zm8.07,33.32a3.38,3.38,0,0,1,.11.34.61.61,0,0,1,0,.19s.13,0,.16,0,.08-.14.06-.18a4.4,4.4,0,0,0-.26-.39,1.8,1.8,0,0,0,.12-.44s-.22-.14-.24-.13a4.25,4.25,0,0,0-.31.43Zm26.13-.55a.74.74,0,0,0,0,.26s.09.13.13.12a.36.36,0,0,0,.18-.12.19.19,0,0,0-.07-.12l-.28-.13c0-.08.1-.18.08-.25a2.49,2.49,0,0,0-.2-.4c-.13.08-.31.14-.36.25s.11.26.21.35S51.44,49.37,51.54,49.38ZM24,6.57c.21-.17.26-.36,0-.55a2.3,2.3,0,0,0-.41-.23c-.06.14-.28.38,0,.65Zm1.54,2.15.05.44.12,0,0-.47,0,0L25.43,8c-.42,0-.54.09-.54.61l.38-.22-.22.35ZM18.86,30.39c.52.32.8.33.95-.07a1.7,1.7,0,0,0-.12-1.45,3.15,3.15,0,0,0-.45.71C19.12,29.82,19,30.08,18.86,30.39Zm2.4,20.29-.11-.09c-.29.19-.28.19-.33-.16,0-.07-.14-.12-.22-.16a2.16,2.16,0,0,0-.27-.05,1.14,1.14,0,0,1,0,.26c0,.12,0,.3-.09.33-.22.13-.78-.14-.92-.35a2.35,2.35,0,0,0-.37-.33c0,.2,0,.54.09.58a17.65,17.65,0,0,0,1.68.59c.06,0,.17,0,.19,0A4.91,4.91,0,0,0,21.26,50.68Zm-14-11.35a4.2,4.2,0,0,0-.44.33c-.21.21-.39.44-.59.66l.44.27a.13.13,0,0,0,.08,0l.29.05c0-.1.06-.24,0-.3s-.19,0-.29-.06l-.13-.12A1.58,1.58,0,0,1,7,40C7.49,39.94,7.33,39.63,7.26,39.33Zm37.83-3.42a.61.61,0,0,1,.07-.91.54.54,0,0,0,.13-.32,1.14,1.14,0,0,0-.09-.3c-.12,0-.29,0-.36.13a.45.45,0,0,0-.09.41c.12.24-.06.3-.17.42s-.22.37.12.44C44.83,35.81,45,35.87,45.09,35.91ZM20.64,29.17c.32-.13.5-.34.42-.68,0-.14-.18-.24-.26-.36a2.72,2.72,0,0,1-.11-.25,1.7,1.7,0,0,0-.3.3.89.89,0,0,0-.07.34C20.73,28.58,20.53,29,20.64,29.17ZM6.73,39.1c.12.07.21.16.3.16a.39.39,0,0,0,.3-.11,4.34,4.34,0,0,0,.28-.62c-.11,0-.3-.15-.33-.11A7.31,7.31,0,0,0,6.73,39.1ZM6.27,57.26c-.38.23-.63.38-.87.56-.08,0-.11.16-.16.25s.21.1.27.07a2.67,2.67,0,0,0,.59-.4C6.19,57.66,6.19,57.48,6.27,57.26ZM39.9,49l.19.32a2.42,2.42,0,0,0,.25-.31.73.73,0,0,0,.12-.32,2,2,0,0,0-.05-.42c-.11,0-.27,0-.31.12A4,4,0,0,0,39.9,49Zm4.44-14.45a5.07,5.07,0,0,0,.81-.56c.1-.09.07-.33.1-.5H45l0,.43C44.44,33.94,44.28,34.07,44.34,34.53Zm1.6,43.36c0,.08,0,.13,0,.17s0,.2,0,.3,0,0-.08,0,0-.18-.07-.27,0-.07,0-.09-.12-.16-.18-.16-.14.09-.21.14l.15.17c0,.06.12.11.11.16,0,.33.28.1.37.22l.38-.47L46.13,78ZM24.5,49.18s0,0,0-.06-.18-.33-.24-.32-.39.12-.09.32c-.09.11-.17.24-.27.34s-.15,0-.22,0,.15.22.24.25C24.22,49.8,24.49,49.56,24.5,49.18Zm20.93-19h0a2.35,2.35,0,0,0,0-.26.48.48,0,0,0-.12-.22s-.1,0-.16,0a2.21,2.21,0,0,0,0,.25c0,.1.11.26.09.27-.25.16-.23.35-.13.59a.65.65,0,0,1,0,.28c.07,0,.17,0,.19-.06a.84.84,0,0,0,.08-.34A4.46,4.46,0,0,0,45.43,30.2ZM43.7,76.07h-.12c-.08.27-.18.54-.24.81,0,0,.11.17.2.2a1.07,1.07,0,0,0,.31,0ZM55.88,50.72l0-.09c.12,0,.25.15.36.14a1.35,1.35,0,0,0,.42-.16c0-.07-.07-.2-.13-.22s-.2,0-.3,0a.88.88,0,0,1-.28,0,2.34,2.34,0,0,1-.24-.09,1.3,1.3,0,0,0-.07.33S55.81,50.69,55.88,50.72Zm-37.39,0,.14-.15a2.18,2.18,0,0,0-.36-.26.41.41,0,0,0-.27,0,2.26,2.26,0,0,0,0,.58c0,.06.16.09.25.14a1.4,1.4,0,0,0,.06-.28,1.63,1.63,0,0,0-.07-.3l.12-.08Zm-.61-23.23-.07-.09a7.18,7.18,0,0,0-.79.12.23.23,0,0,0-.11.2c0,.09.18.25.21.24C17.38,27.8,17.63,27.63,17.88,27.47ZM1.75,54.14c-.19.41.27.9-.22,1.26.15,0,.29-.08.35-.16a.82.82,0,0,0,.21-.47A2.78,2.78,0,0,0,1.75,54.14Zm38-5.5-.29-.35c-.14.17-.29.34-.42.52s.07.13.11.2ZM47.93,33c-.11.07-.29.11-.29.18a1.5,1.5,0,0,0,0,.59s.18,0,.28,0c0-.15,0-.29,0-.43S47.93,33.19,47.93,33ZM39.57,56.49l-.12-1C39.11,55.86,39.12,56,39.57,56.49ZM23.47,6.78h-.08c-.06.23-.12.46-.16.7a.18.18,0,0,0,.06.16.85.85,0,0,0,.22,0,.42.42,0,0,1,0-.16ZM1.93,53.21l.08.15a4.16,4.16,0,0,0-.5.16c-.06,0-.08.16-.12.24s.26,0,.3,0A2.38,2.38,0,0,0,1.93,53.21Zm21,4.3c-.12.35-.76.28-.45.87C22.63,58.1,23.09,58.05,22.92,57.51Zm15.72-8.45L38.8,49l-.14-.57-.35.11Zm5.21,29.23.1-.06a1.71,1.71,0,0,0-.13-.23s-.09,0-.12,0-.12.1-.12.14a2.14,2.14,0,0,0,.08.44.38.38,0,0,0,.13.21s.17,0,.2-.07a.24.24,0,0,0,0-.22A1.1,1.1,0,0,0,43.85,78.29ZM53,65.81l-.09,0c0,.22,0,.45,0,.67,0,.07.13.13.19.2.05-.09.14-.18.13-.25S53.1,66,53,65.81ZM25.34,9.47c-.1.32-.18.54-.23.76,0,0,.08.14.12.13s.25-.07.24-.1C25.45,10,25.4,9.82,25.34,9.47ZM3.06,47.61c-.06.2-.13.35-.16.51s.08.11.12.17c.11-.15.23-.29.32-.44S3.2,47.73,3.06,47.61ZM20.63,21.45a3.19,3.19,0,0,0,.25-.45s-.09-.11-.15-.16a3.51,3.51,0,0,0-.29.36S20.52,21.3,20.63,21.45ZM14.28,23l-.14-.28a4.76,4.76,0,0,0-.31.47,2,2,0,0,0,.21.17Zm41,24.86-.18.49.63-.13Zm-12,23.4a2,2,0,0,0-.36-.24s-.12.1-.18.15l.36.33Zm-26-55.81.54-.3-.26-.39ZM55.1,54.56v-.11a1.82,1.82,0,0,0-.4-.11c-.05,0-.1.13-.16.2a1.92,1.92,0,0,0,.32.09C54.94,54.64,55,54.58,55.1,54.56ZM24,8.68a4.41,4.41,0,0,0-.29-.58.25.25,0,0,0-.23,0c-.05,0-.12.13-.1.17s.12.08.18.12ZM6.41,37.76c-.11-.08-.2-.17-.26-.16a1.13,1.13,0,0,0-.31.19c.07.08.17.25.2.23A1.4,1.4,0,0,0,6.41,37.76ZM22.48,49.28l.07.74.15,0c0-.21-.06-.43-.09-.64ZM17.69,26.34v-.12c-.14,0-.3-.12-.41-.08s-.15.21-.27.42Zm8.54-18.2L26.05,8l-.31.45s0,.07.06.11ZM46,29.17c-.15-.08-.22-.15-.25-.13a2.56,2.56,0,0,0-.35.22c.05,0,.11.13.14.12A3.91,3.91,0,0,0,46,29.17ZM13.57,41.56l.37-.25c-.08-.07-.17-.2-.25-.2s-.21.1-.24.19S13.52,41.46,13.57,41.56Zm7.27,7.91.07.14a1.32,1.32,0,0,0,.39-.15s-.05-.19-.07-.3Zm13.72,6.2h.21a4.56,4.56,0,0,0,0-.52s-.13,0-.2,0ZM48.71,80c-.1.14-.2.22-.19.28a.92.92,0,0,0,.2.25c.07-.08.19-.15.2-.24S48.82,80.11,48.71,80ZM32.26,56.19c.08-.09.19-.18.17-.2a1.5,1.5,0,0,0-.2-.24L32,56Zm-12.8-6.6c-.11-.06-.19-.14-.23-.12a1.07,1.07,0,0,0-.27.16c.07.07.16.22.19.21A1.47,1.47,0,0,0,19.46,49.59ZM43.31,35.3l.14.13.44-.51-.13-.11ZM43.76,79l-.14,0c0,.16.05.32.09.47s.12,0,.18,0ZM38.17,50l-.33-.21a1.09,1.09,0,0,0-.08.28s.12.16.14.15A1.87,1.87,0,0,0,38.17,50ZM27.09,9.63l.1.13.43-.3-.12-.15ZM52.15,48.16l-.15,0a3.13,3.13,0,0,0,0,.44s.09.06.13.09ZM55.06,52l-.18.15a1.58,1.58,0,0,0,.22.29s.12-.06.18-.1ZM41.23,71.4h.15l-.07-.62H41.2ZM27.4,12.56l-.08,0-.11.39.11,0ZM19.1,29.11l-.14,0-.12.39.14,0A2.91,2.91,0,0,0,19.1,29.11ZM2.21,48.2l.16,0c0-.15.06-.29.08-.44s-.1,0-.1,0Zm9.32,3.54-.08-.12-.36.31Zm13.38-.26c-.13-.1-.19-.2-.25-.19s-.16.09-.24.14.1.13.16.14A2.14,2.14,0,0,0,24.91,51.48Zm-1.49-2.13.13,0,.1-.33-.17,0A1.86,1.86,0,0,0,23.42,49.35ZM12.1,24.71l-.14,0,.15.51.15-.05Zm6.24,25,.36-.24c-.06,0-.13-.14-.17-.13a.61.61,0,0,0-.27.18S18.31,49.64,18.34,49.71ZM44.4,32.39c-.12-.07-.23-.16-.26-.14a.44.44,0,0,0-.15.23s.07.11.11.16ZM26.8,49.52l-.14,0-.09.46c.05,0,.14,0,.14,0A2.84,2.84,0,0,0,26.8,49.52ZM24.73,5.71l-.08-.11c-.1.08-.21.15-.3.23s0,.08.08.12Zm.15.32h-.11v.5l.16,0C24.92,6.35,24.9,6.19,24.88,6ZM27.5,57.84v-.38l-.32.08ZM20.19,20.73l-.13-.1-.28.37.12.09ZM44.91,36.24l-.28-.16c0,.05-.07.12-.05.15a.22.22,0,0,0,.15.13S44.82,36.3,44.91,36.24ZM52.4,60l-.11-.12a2,2,0,0,0-.17.36s.05.08.07.12ZM8.51,37l.09-.15-.24-.17s-.06.11,0,.14A1.28,1.28,0,0,0,8.51,37ZM4.45,46.34c0-.06.1-.12.08-.15a.19.19,0,0,0-.14-.11s-.08.07-.12.11ZM42.6,39l.15,0,.07-.39-.13,0ZM17.42,15.67a1.23,1.23,0,0,0-.25-.12,1,1,0,0,0-.15.2s.09.09.11.08A1.82,1.82,0,0,0,17.42,15.67ZM52.23,48.91l-.09,0c-.06.11-.12.22-.17.33l.14.08ZM46.11,29.73c-.11-.06-.15-.11-.18-.1a2.06,2.06,0,0,0-.26.12s0,.13.06.12ZM18.33,27.05l-.27-.23s-.08.09-.08.12a.36.36,0,0,0,.11.2S18.21,27.1,18.33,27.05ZM41.4,69.66c-.08.1-.17.16-.17.22s.09.11.14.16a.62.62,0,0,0,.14-.19S41.46,69.75,41.4,69.66Zm11.94-2.57H53.2l0,.42h.1ZM21,10l.06.14.39-.21,0-.09ZM46.06,30.44c.09-.07.15-.1.17-.15s0-.09-.06-.13-.1.05-.12.09S46.05,30.35,46.06,30.44Zm5,50.63H51l-.05.35h.16ZM8.23,57.42v-.13H7.85v.1ZM25.12,7.33l.11.1a2.62,2.62,0,0,0,.22-.25l-.06,0ZM1.64,52.12l.32.29,0,0Zm2.51.64-.1-.06L3.86,53,4,53.1ZM47.4,32.63a.78.78,0,0,0,.23.13s.1-.08.1-.1a1.33,1.33,0,0,0-.14-.19Zm-4.83,38v.11l.34,0,0-.15ZM3.64,54.05l-.07-.11-.31.2.07.1Zm16.73,2c-.09,0-.15-.08-.18-.06a.76.76,0,0,0-.17.15s.1.11.11.1A1.49,1.49,0,0,0,20.37,56.07ZM53.31,72l-.12,0-.09.31.12,0Zm-2.2-27.34L51,44.61c-.06.07-.13.13-.18.2s0,.06.07.09ZM13.65,58.34l0-.09-.47,0,0,.12ZM4.71,41.05H4.6v.35h.1C4.71,41.28,4.71,41.16,4.71,41.05ZM19.92,28.38a.82.82,0,0,0-.12.22s.07.08.11.11.09-.07.09-.1A.7.7,0,0,0,19.92,28.38ZM42.66,66.22c-.11,0-.17-.1-.21-.08s-.1.08-.15.13a.38.38,0,0,0,.17.08S42.56,66.3,42.66,66.22ZM29.94,56.93c0,.08-.08.14-.07.18a.66.66,0,0,0,.14.15c0-.06.1-.11.11-.17S30,57,29.94,56.93Zm-20.11-26-.08-.12-.3.17.06.11Zm1.45-2.5,0,0L11,28.6l.13.13Zm5.77-2.09a.87.87,0,0,0-.22-.11s-.09,0-.14.06.07.14.12.15S16.93,26.4,17.05,26.34ZM42.83,37.7c-.11-.05-.17-.1-.2-.08s-.12.09-.17.14.09.06.13.06Zm-.94,4.81a.71.71,0,0,0-.21-.11s-.07.06-.11.09l.2.16A1.46,1.46,0,0,0,41.89,42.51Zm-16.68,8.7v.12l.32-.06,0-.09ZM24.33,6.76h-.11c0,.1,0,.21,0,.31h.12Zm27.42,40.8s-.1.09-.1.12a.54.54,0,0,0,.1.16l.16-.1ZM20.69,51.78a.88.88,0,0,0-.06.17s.09.06.09,0a.22.22,0,0,0,.08-.13S20.75,51.82,20.69,51.78Zm-16.44,0-.18.14s.1.07.15.07.08-.07.1-.11S4.28,51.79,4.25,51.75ZM56.86,50l-.08-.09-.2.21.1.07ZM22.25,57.75c-.1-.06-.15-.11-.2-.11s-.06.06-.1.1.08.08.12.08S22.16,57.79,22.25,57.75Zm13.64-1.13c0,.06-.11.09-.11.13a.37.37,0,0,0,.07.14l.15-.11ZM17.38,49.73l-.15.15.2.24.17-.18ZM44.59,31.78a1.59,1.59,0,0,0-.16.27.23.23,0,0,0,.12.08.21.21,0,0,0,.11-.1S44.64,31.94,44.59,31.78ZM51.84,58l.09,0-.13-.4-.08,0ZM44.1,34.43h-.05l0,.29h.06ZM25.72,7,25.6,6.8s-.1.08-.1.1a1,1,0,0,0,.12.2Zm-1.9,6.59a.77.77,0,0,0-.05.17s.05,0,.07.08a.54.54,0,0,0,.1-.16ZM18,58.16l.14-.12S18,58,18,58s-.07.06-.1.09ZM4,54.51l-.13-.07-.08.33.08,0ZM44.46,37.3c.15.06.2.09.23.08a.72.72,0,0,0,.15-.11ZM18,18.09l.08.06.21-.29-.09-.06A3,3,0,0,0,18,18.09Zm8.21-8.74-.07,0a.67.67,0,0,0-.06.12,1.25,1.25,0,0,0,0,.19Zm-.26,8.33.09,0,.16-.31-.11,0ZM52,59l.09,0,0-.4H52ZM2.58,45.46l.13,0s0,0,0-.06l-.12,0S2.6,45.43,2.58,45.46ZM22.44,9.22l.08,0L22.66,9l-.09,0Zm28.83,73L51.16,82s-.07.09-.07.13,0,.08.09.1S51.24,82.21,51.27,82.18ZM12.77,52l-.12-.14s-.1.07-.12.12.06.1.08.1A.79.79,0,0,0,12.77,52Zm7.08-21.24a.87.87,0,0,0,.18-.2s0-.09-.06-.14-.11.08-.14.13S19.84,30.65,19.85,30.77ZM48.33,77.89V78s.1,0,.12,0a1,1,0,0,0,.15-.14Zm-2.09-.4-.05,0s-.09,0-.1.07a.55.55,0,0,0,0,.18Zm-.55-42.82.1.13s.09,0,.11-.07a.38.38,0,0,0,0-.15ZM40.47,68.38l.08,0s.08-.07.08-.1a.61.61,0,0,0-.05-.18ZM42.7,39.17s-.07.08-.07.11.06.06.08.09.08-.06.08-.08S42.74,39.22,42.7,39.17ZM11,40.56c-.06.06-.13.11-.12.14s.07.1.11.15.1-.06.1-.08A.88.88,0,0,0,11,40.56Zm-5.78.22c0,.07-.09.12-.08.15a.18.18,0,0,0,.11.1.17.17,0,0,0,.1-.1S5.31,40.85,5.25,40.78Zm19.94,8.15-.12.13.06.07a.91.91,0,0,0,.16-.11ZM6,41.37l.09.08.2-.27-.07,0Zm50,6,0,.05.21.09,0-.11Zm-4.88-2.09c-.07,0-.1-.09-.15-.1s-.07.06-.07.08a.91.91,0,0,0,.07.14Zm1.31,1.38s.08,0,.12,0,0,0,0-.06a.41.41,0,0,0,0-.09ZM10,28.84l.16-.1,0-.09s-.08,0-.09.07S10,28.79,10,28.84ZM27.24,6.49l0-.08a.2.2,0,0,0-.08.08s0,0,.05.08ZM17.65,58.2l-.1-.14a1.47,1.47,0,0,0-.1.13.2.2,0,0,0,.06.09A.53.53,0,0,0,17.65,58.2ZM42.53,42.41s-.05.07-.06.1,0,0,0,.06a.47.47,0,0,0,.06-.09S42.55,42.44,42.53,42.41ZM1.11,49.59l.07-.1-.09-.05L1,49.56ZM42.71,41c-.06,0-.09-.08-.12-.08l-.17,0s0,.11.09.12S42.61,41.06,42.71,41ZM32.43,49.51c0-.06-.07-.12-.09-.11a.51.51,0,0,0-.15.07s.05.1.07.1A.5.5,0,0,0,32.43,49.51Zm-6.3.21.11-.12s-.06,0-.08,0a1,1,0,0,1-.1.11ZM16.84,17.13c0-.05.08-.08.07-.11s-.05-.06-.08-.1-.08.07-.08.09S16.8,17.08,16.84,17.13ZM39.33,49.61s.06.09.09.1.07,0,.1-.05-.05-.09-.09-.11S39.37,49.58,39.33,49.61ZM50.41,38c0-.05.07-.08.06-.11a.2.2,0,0,0-.08-.08s-.07.05-.07.08S50.37,37.9,50.41,38ZM24.88,19a1.63,1.63,0,0,0,.11-.26s0-.07,0-.11-.09.05-.11.09S24.87,18.81,24.88,19ZM52.16,61.6c0-.05-.08-.11-.1-.11a.48.48,0,0,0-.16.08s.05.07.08.07A.86.86,0,0,0,52.16,61.6Zm-31.44-50a.51.51,0,0,0-.13-.08s-.07,0-.07.07a.16.16,0,0,0,.07.09S20.65,11.61,20.72,11.57ZM43.49,36.46l-.06-.13s-.1.06-.12.11,0,.09,0,.13Zm-1.18-1.07,0,0,.06,0-.06-.06Zm.31,32.47s-.09.06-.11.1,0,.07,0,.11.09,0,.12-.08S42.64,67.92,42.62,67.86ZM53.17,49.93s0,.1.08.11.06,0,.09,0a.26.26,0,0,0-.07-.1S53.21,49.91,53.17,49.93Zm.42,19.42a.49.49,0,0,0-.15-.09s-.07,0-.11,0a.93.93,0,0,0,.14.14Zm-32.25-50,.08,0,.1-.25-.08,0ZM54.12,50C54,50,54,50,53.94,50a.2.2,0,0,0-.11.11s.06.07.1.11Zm-.31,21.17a.61.61,0,0,0-.05.12s0,0,0,0l.07-.11ZM44.52,33.41c-.06,0-.11-.09-.14-.08a.18.18,0,0,0-.08.11s0,.07.05.1ZM21.11,11.16c0,.05-.08.08-.08.12s0,.06.07.09.07-.06.07-.09S21.13,11.21,21.11,11.16Zm6,40.32,0,.06a.73.73,0,0,0,.09.08l0-.06Zm27.21,3.91a.58.58,0,0,0,.12-.1l-.06-.08-.18.1ZM13.57,22.51l-.05,0,.14.18.06-.05Zm-.56.91-.08-.06a.3.3,0,0,0,0,.11s0,.06.06.09ZM45.9,79.47c.06-.07.1-.1.1-.13a.14.14,0,0,0-.07-.1s-.08,0-.08,0A.67.67,0,0,0,45.9,79.47Zm-3.38,0a.63.63,0,0,0-.15-.1s-.06,0-.09.07.06.08.11.1S42.45,79.48,42.52,79.44Zm3.93-47.55a.79.79,0,0,0,0,.16l.06.07s.06-.07.06-.1S46.52,32,46.45,31.89ZM13.67,23.66l-.1-.06s0,.06,0,.06a.3.3,0,0,0,.08.08Zm39.17,57.1c-.05-.05-.1-.1-.12-.09s-.08.07-.13.11.08.09.1.08S52.78,80.8,52.84,80.76ZM5.28,57.23a.74.74,0,0,0,.15.08s.05-.05.08-.07l-.11-.12ZM44.9,81.43l.11,0s0,0,0,0a.11.11,0,0,0-.07,0S44.89,81.41,44.9,81.43ZM31.2,57a.46.46,0,0,0,.07-.18s-.07-.09-.08-.08-.1.06-.12.11S31.14,56.94,31.2,57ZM11.81,52.19c-.06,0-.09-.09-.12-.1a.25.25,0,0,0-.12,0,.43.43,0,0,0,.1.09A.37.37,0,0,0,11.81,52.19ZM26.88,10.34a.63.63,0,0,0,.08-.17s0-.05-.05-.05l-.14.08ZM6.11,53.59s0-.05,0-.07a.22.22,0,0,0-.07-.06.19.19,0,0,0,0,.08Zm-.74.89.06.05.13-.21s-.07,0-.08,0Zm7.37-26.4,0-.08-.11.05,0,.07ZM55.51,55s0,0-.06,0,0,0,0,.06.06,0,.06,0S55.52,55,55.51,55ZM18.72,28.48s-.09-.08-.11-.07a.18.18,0,0,0-.09.08.34.34,0,0,0,.05.11ZM5.06,55.86,5,55.76l-.09.17L5,56A1.31,1.31,0,0,0,5.06,55.86ZM45.93,28.79l.15.06s0,0,.06-.05L46,28.71Z" transform="translate(-0.33 -0.58)"/><path d="M27.58,3.69l-.38.37-.9.85-.25-.55a1,1,0,0,1,.24,0c.34,0,.46,0,.22-.35a.68.68,0,0,1,0-.35s.09,0,.14,0c-.07.35.22.14.26.17.28.29.43-.34.68-.07Z" transform="translate(-0.33 -0.58)"/><path d="M25.61,1.27l.5-.69a1.85,1.85,0,0,1,.44.63c0,.13-.24.46-.37.46S25.83,1.43,25.61,1.27Zm.77-.06-.1-.14-.3.22.06.09A3.59,3.59,0,0,0,26.38,1.21Z" transform="translate(-0.33 -0.58)"/><path d="M48.56,29c.14.14.35.25.34.35s-.16.3-.27.44-.14,0-.21,0l-.08,0-.35-.2Z" transform="translate(-0.33 -0.58)"/><path d="M57.43,55.49c-.48,0-.48-.27-.5-.53,0-.07.19-.21.2-.2a3.79,3.79,0,0,1,.51.47S57.5,55.4,57.43,55.49Z" transform="translate(-0.33 -0.58)"/><path d="M19.25,11.81,19,12.1l-.19.26c-.06,0-.17-.09-.17-.15a.46.46,0,0,1,.06-.28,2.52,2.52,0,0,1,.34-.51c.15-.17.25-.1.27.12v0C19,11.52,19.23,11.7,19.25,11.81Z" transform="translate(-0.33 -0.58)"/><path d="M43.73,30.25c0,.29-.07.61-.12.93,0,.1-.11.18-.16.27a1.14,1.14,0,0,1-.09-.26c0-.08,0-.17,0-.26C43.31,30.42,43.31,30.42,43.73,30.25Z" transform="translate(-0.33 -0.58)"/><path d="M42.37,31.5l.12-.83h0c0,.42.1.84.12,1.27a2.5,2.5,0,0,1-.4.09h0Z" transform="translate(-0.33 -0.58)"/><path d="M18.75,13.27l0,.05a.11.11,0,0,0,0,.08c-.3-.09-.61-.22-.55.32l0,0c-.07-.07-.21-.16-.19-.2.11-.29.25-.57.4-.91C18.72,12.86,18.27,13.22,18.75,13.27Z" transform="translate(-0.33 -0.58)"/><path d="M42.2,32c-.28.2-.3.2-.34-.07,0-.07,0-.18,0-.22-.28-.3-.14-.48.11-.58l.32.45h-.36l.3.43Z" transform="translate(-0.33 -0.58)"/><path d="M14.07,58.72c0,.11,0,.25-.11.33a.41.41,0,0,1-.31.07c-.05,0-.06-.16-.1-.25s-.08-.16-.11-.24v0l.65.09Z" transform="translate(-0.33 -0.58)"/><path d="M26.08,2.89c-.11-.27-.18-.42-.23-.57s0-.13,0-.15A.64.64,0,0,1,26.11,2s.11.1.11.14C26.19,2.38,26.14,2.59,26.08,2.89Z" transform="translate(-0.33 -0.58)"/><path d="M45.14,28a6.27,6.27,0,0,1-.17.75s-.16,0-.24.07a.65.65,0,0,1,0-.24c.09-.2.2-.39.31-.59Z" transform="translate(-0.33 -0.58)"/><path d="M11.42,58.69l-.12.61-.14,0-.27-.59.54,0Z" transform="translate(-0.33 -0.58)"/><path d="M47,26c-.12-.22-.22-.34-.22-.46s.11-.19.17-.28a1.19,1.19,0,0,1,.25.35C47.21,25.69,47.1,25.8,47,26Z" transform="translate(-0.33 -0.58)"/><path d="M25.31,2.64c.07.16.17.27.15.34a.42.42,0,0,1-.24.25c-.06,0-.17-.12-.25-.19Z" transform="translate(-0.33 -0.58)"/><path d="M47.11,26.19l.29.86,0,.07c-.09-.09-.23-.17-.25-.27A3.61,3.61,0,0,1,47.11,26.19Z" transform="translate(-0.33 -0.58)"/><path d="M44.55,27.81c.24-.18.09-.18-.08-.22a.72.72,0,0,1-.26-.18s0-.1,0-.15a1,1,0,0,1,.31.13,4.56,4.56,0,0,1,.31.42l-.32,0Z" transform="translate(-0.33 -0.58)"/><path d="M46.35,25.91c-.1-.13-.22-.21-.22-.3a1.62,1.62,0,0,1,.13-.41,2.82,2.82,0,0,1,.23.46C46.51,25.71,46.42,25.79,46.35,25.91Z" transform="translate(-0.33 -0.58)"/><path d="M55.45,55.46c0,.07.09.14.08.19a.68.68,0,0,1-.14.31s-.16,0-.24,0a.79.79,0,0,1,.06-.32.65.65,0,0,1,.25-.17Z" transform="translate(-0.33 -0.58)"/><path d="M25.84,3.35l.3.47L25.66,4Z" transform="translate(-0.33 -0.58)"/><path d="M20,10.12a1.15,1.15,0,0,1-.22.22.6.6,0,0,1-.3.07s-.08-.05-.13-.08l.24-.11a.81.81,0,0,0,.16-.16c.07-.1.12-.2.19-.3l.06.37Z" transform="translate(-0.33 -0.58)"/><path d="M46.08,26.89,46,26.8c.05-.23.11-.47.16-.7l.1,0C46.19,26.37,46.14,26.61,46.08,26.89Z" transform="translate(-0.33 -0.58)"/><path d="M47.16,28.31a3.52,3.52,0,0,1,.16-.49c0-.07.1-.11.16-.17a1,1,0,0,1,.07.2C47.51,28.1,47.45,28.35,47.16,28.31Z" transform="translate(-0.33 -0.58)"/><path d="M43.15,28.62a4.55,4.55,0,0,1-.44.31s-.08-.05-.12-.08.22-.27.35-.4Z" transform="translate(-0.33 -0.58)"/><path d="M43.81,29l-.29.17c0-.08-.12-.16-.12-.24s.08-.12.13-.18Z" transform="translate(-0.33 -0.58)"/><path d="M1.9,57.64c.06.19.13.39.18.58,0,0-.12.08-.18.09s-.1-.07-.09-.1a5.4,5.4,0,0,1,.1-.58Z" transform="translate(-0.33 -0.58)"/><path d="M48.84,82.18v.58c-.05,0-.14,0-.15-.07s0-.34,0-.51Z" transform="translate(-0.33 -0.58)"/><path d="M20.41,9.16c0,.1,0,.2,0,.3l0,0L20,9.61l-.08-.09.44-.44Z" transform="translate(-0.33 -0.58)"/><path d="M21.43,58v-.11h.19v0l.11.19c.06.09.2.21.17.26s-.24.16-.37,0h0C21.89,58.17,21.41,58.16,21.43,58Z" transform="translate(-0.33 -0.58)"/><path d="M32.52,57.65l.19-.44.15.13a2.43,2.43,0,0,1-.3.26s-.13,0-.19-.06Z" transform="translate(-0.33 -0.58)"/><path d="M9.62,58.53c0,.11,0,.28-.12.32s-.26,0-.4,0l.17-.25,0,0,.38-.1Z" transform="translate(-0.33 -0.58)"/><path d="M43.82,29.8l-.17.24c0-.13-.1-.26-.13-.39s.1-.07.15-.11Z" transform="translate(-0.33 -0.58)"/><path d="M5.33,39h.44a1.09,1.09,0,0,1,0,.15c-.14,0-.27,0-.41.05Z" transform="translate(-0.33 -0.58)"/><path d="M14.38,20.47l.46.16s-.07.13-.1.12a3.25,3.25,0,0,1-.42-.11Z" transform="translate(-0.33 -0.58)"/><path d="M48.87,83.47a2.82,2.82,0,0,0-.29.18,2.18,2.18,0,0,0-.22.21l0-.06a.9.9,0,0,1,.24-.27.66.66,0,0,1,.32-.06Z" transform="translate(-0.33 -0.58)"/><path d="M14.69,19.91l.47.09-.32.36Z" transform="translate(-0.33 -0.58)"/><path d="M50.65,35.7a.57.57,0,0,1,0-.26,1.54,1.54,0,0,1,.21-.31l.11,0c0,.11-.08.21-.13.32a2.53,2.53,0,0,1-.12.23Z" transform="translate(-0.33 -0.58)"/><path d="M49,84l.23-.2c0,.06.1.14.09.17s-.18.2-.27.31Z" transform="translate(-0.33 -0.58)"/><path d="M56.56,52.7l-.43,0c0-.08,0-.23.08-.23a1.57,1.57,0,0,1,.37,0Z" transform="translate(-0.33 -0.58)"/><path d="M20.41,9.16l-.08-.08.23-.28.13.15Z" transform="translate(-0.33 -0.58)"/><path d="M22.14,5.09l-.36.23-.07-.08L22,5Z" transform="translate(-0.33 -0.58)"/><path d="M8.42,58.81h.09l-.25.49-.14-.09Z" transform="translate(-0.33 -0.58)"/><path d="M10.23,59.48c0-.18-.08-.25-.05-.29a1.14,1.14,0,0,1,.19-.19s.07.11.06.15A2.81,2.81,0,0,1,10.23,59.48Z" transform="translate(-0.33 -0.58)"/><path d="M.52,51.26a.41.41,0,0,1,0,.08c0,.1,0,.2,0,.3l-.19-.08.18-.29Z" transform="translate(-0.33 -0.58)"/><path d="M25.19,3.79l-.33.35-.09-.08.3-.36Z" transform="translate(-0.33 -0.58)"/><path d="M7,59l-.43.22,0-.1.42-.25Z" transform="translate(-0.33 -0.58)"/><path d="M14.78,21l-.25.24s-.1-.11-.08-.13a.6.6,0,0,1,.18-.21S14.72,21,14.78,21Z" transform="translate(-0.33 -0.58)"/><path d="M41.39,30.25l.16.36s-.1,0-.11,0-.12-.22-.18-.33Z" transform="translate(-0.33 -0.58)"/><path d="M57.67,48.31l-.15.4-.12,0,.14-.41Z" transform="translate(-0.33 -0.58)"/><path d="M56.84,53.06h.35v.1l-.35,0Z" transform="translate(-0.33 -0.58)"/><path d="M26.72,15.78l.21-.14c0,.07.07.16.05.19a1,1,0,0,1-.22.13l0-.18Z" transform="translate(-0.33 -0.58)"/><path d="M41.87,30.3l.3-.33.1.09-.3.33Z" transform="translate(-0.33 -0.58)"/><path d="M27.75,1.37a2.88,2.88,0,0,1-.22.27s-.07,0-.11,0l.22-.33Z" transform="translate(-0.33 -0.58)"/><path d="M15.56,58.85l-.17.2a1.66,1.66,0,0,1-.16-.21s.08-.12.12-.11A1,1,0,0,1,15.56,58.85Z" transform="translate(-0.33 -0.58)"/><path d="M24.59,58.09c0,.06-.08.15-.14.17s-.15,0-.22-.07h0l.37-.1Z" transform="translate(-0.33 -0.58)"/><path d="M48.9,30.39l-.14.31-.11,0,.13-.33Z" transform="translate(-0.33 -0.58)"/><path d="M19.62,10.65l-.19.33-.1-.07.18-.32Z" transform="translate(-0.33 -0.58)"/><path d="M27,2.44c-.12.05-.18.11-.23.1s-.11-.07-.17-.11.1-.14.14-.14S26.89,2.36,27,2.44Z" transform="translate(-0.33 -0.58)"/><path d="M20.66,7.92v.5h-.07V7.92Z" transform="translate(-0.33 -0.58)"/><path d="M55,47l-.08-.53.11,0,.15.31v0L55,47Z" transform="translate(-0.33 -0.58)"/><path d="M21.18,7.71a.59.59,0,0,1-.2-.06.46.46,0,0,1-.1-.21s.08-.05.13-.08l.11.19.06.16Z" transform="translate(-0.33 -0.58)"/><path d="M20,10.13l.38-.19,0,.15-.4,0Z" transform="translate(-0.33 -0.58)"/><path d="M47.87,30.11a1.13,1.13,0,0,1,0-.18.23.23,0,0,1,0-.16s.11,0,.17,0-.06.1-.1.14l-.1.15Z" transform="translate(-0.33 -0.58)"/><path d="M27,15.54c0-.06-.09-.11-.08-.14s.06-.07.1-.1a.5.5,0,0,1,.08.14S27,15.49,27,15.54Z" transform="translate(-0.33 -0.58)"/><path d="M9.35,59.26c-.09,0-.16.1-.18.08A.65.65,0,0,1,9,59.17c.05,0,.11-.06.15-.05A.81.81,0,0,1,9.35,59.26Z" transform="translate(-0.33 -0.58)"/><path d="M21.73,7.43V7.11c.06,0,.15,0,.15,0s0,.19,0,.29Z" transform="translate(-0.33 -0.58)"/><path d="M4.84,38.75c.06.07.12.11.12.15a.7.7,0,0,1-.09.17S4.75,39,4.75,39A.62.62,0,0,1,4.84,38.75Z" transform="translate(-0.33 -0.58)"/><path d="M9.44,29.13l-.07.19H9.26l.1-.33Z" transform="translate(-0.33 -0.58)"/><path d="M27.57,3.43c.05-.1.09-.2.15-.3s.07,0,.11,0l-.27.27Z" transform="translate(-0.33 -0.58)"/><path d="M1.91,57.63l-.25,0,0-.21.28.08h0s0,.06,0,.1Z" transform="translate(-0.33 -0.58)"/><path d="M58.05,55.46l.14.07s-.06.09-.07.09l-.18-.11Z" transform="translate(-0.33 -0.58)"/><path d="M48.36,83.34l-.15-.25.08,0,.17.24Z" transform="translate(-0.33 -0.58)"/><path d="M52.5,82.33l-.15.21-.11-.06.18-.22Z" transform="translate(-0.33 -0.58)"/><path d="M28.3,3.42c-.11.06-.15.11-.2.11S28,3.47,28,3.44a.42.42,0,0,1,.12-.08S28.19,3.38,28.3,3.42Z" transform="translate(-0.33 -0.58)"/><path d="M28.42,9.75c-.08.06-.11.11-.16.12s-.07,0-.11-.08.06-.1.09-.11S28.34,9.71,28.42,9.75Z" transform="translate(-0.33 -0.58)"/><path d="M20.56,58.41l.35,0,0,.13-.3-.17Z" transform="translate(-0.33 -0.58)"/><path d="M19.35,58.53a1.1,1.1,0,0,1,.08.1s-.07.06-.1.09-.06-.06-.06-.08S19.31,58.57,19.35,58.53Z" transform="translate(-0.33 -0.58)"/><path d="M3.68,41.24l-.1.3s-.05-.1,0-.13a.7.7,0,0,1,.13-.17Z" transform="translate(-0.33 -0.58)"/><path d="M48.87,83.47v.46l-.11,0,.11-.44Z" transform="translate(-0.33 -0.58)"/><path d="M44.55,27.81v0a1.14,1.14,0,0,1-.1.19l-.07-.07Z" transform="translate(-0.33 -0.58)"/><path d="M26.78,1.58l-.08-.26,0,0,.11.24Z" transform="translate(-0.33 -0.58)"/><path d="M55.48,53.32a.63.63,0,0,1,.17-.08.24.24,0,0,1,.06.08.16.16,0,0,1-.1.08S55.54,53.36,55.48,53.32Z" transform="translate(-0.33 -0.58)"/><path d="M44.35,82s0-.07,0-.09a.58.58,0,0,1,.12-.1s0,.06,0,.08a.8.8,0,0,1-.08.16Z" transform="translate(-0.33 -0.58)"/><path d="M43.55,82l-.1-.09.1-.11s.07.06.07.1S43.58,82,43.55,82Z" transform="translate(-0.33 -0.58)"/><path d="M23.92,4.19l-.1-.08a.5.5,0,0,1,.11-.1S24,4,24,4Z" transform="translate(-0.33 -0.58)"/><path d="M24.64,4.49l-.11.23-.06,0,.07-.24Z" transform="translate(-0.33 -0.58)"/><path d="M22.77,7.19c-.1,0-.14,0-.16,0a.68.68,0,0,1-.12-.12s.07,0,.1,0A1,1,0,0,1,22.77,7.19Z" transform="translate(-0.33 -0.58)"/><path d="M19.07,58.65l-.05.23s-.06-.07-.06-.09a.54.54,0,0,1,.1-.16Z" transform="translate(-0.33 -0.58)"/><path d="M14.75,58.6l-.08.39-.11-.05.2-.34Z" transform="translate(-0.33 -0.58)"/><path d="M29.84,57.6l-.09.28-.2-.15.3-.12Z" transform="translate(-0.33 -0.58)"/><path d="M2.51,58l0,.08a.3.3,0,0,1-.1,0s0-.07,0-.11Z" transform="translate(-0.33 -0.58)"/><path d="M1.56,46.38s.07.09.06.1-.07.07-.11.11a.56.56,0,0,1,0-.12S1.52,46.42,1.56,46.38Z" transform="translate(-0.33 -0.58)"/><path d="M23.67,58.35v.2l-.19-.16.21,0Z" transform="translate(-0.33 -0.58)"/><path d="M26.73,15.78h-.29v-.09l.27.09Z" transform="translate(-0.33 -0.58)"/><path d="M17.55,14.11l-.14.11s-.06-.08-.05-.1a.16.16,0,0,1,.09-.09S17.5,14.07,17.55,14.11Z" transform="translate(-0.33 -0.58)"/><path d="M15.09,18.71a1.6,1.6,0,0,1-.1.23l-.08,0,.19-.2Z" transform="translate(-0.33 -0.58)"/><path d="M27,4.63a.47.47,0,0,1,.05.14.6.6,0,0,1-.06.11s-.09-.06-.09-.07A1.19,1.19,0,0,1,27,4.63Z" transform="translate(-0.33 -0.58)"/><path d="M42.49,30.67l-.18-.11,0,0,.15.16Z" transform="translate(-0.33 -0.58)"/><path d="M43.71,80.91l.21.11-.06.09c0-.07-.09-.14-.14-.2Z" transform="translate(-0.33 -0.58)"/><path d="M46.28,27.48s-.07.07-.1.06-.07-.06-.07-.08a.45.45,0,0,1,.1-.09Z" transform="translate(-0.33 -0.58)"/><path d="M43.14,82.28l0,.11a.41.41,0,0,1-.12-.11.68.68,0,0,1,.06-.09Z" transform="translate(-0.33 -0.58)"/><path d="M50.1,83.2l-.05.07L50,83.18s0,0,.06-.06Z" transform="translate(-0.33 -0.58)"/><path d="M23.6,6.44c.19-.17.26,0,.35.13Z" transform="translate(-0.33 -0.58)"/><path d="M19.49,29.64l0,.39s-.08,0-.08,0l-.09-.36Z" transform="translate(-0.33 -0.58)"/></g></g></svg>