<svg xmlns="http://www.w3.org/2000/svg" viewBox="0 0 52.2 76.25"><title>xxiv-seven-black</title><g id="Layer_2" data-name="Layer 2"><g id="Layer_3" data-name="Layer 3"><path d="M7.21,2.21l-.32-.07C7,2,7,1.81,7.09,1.66a.46.46,0,0,1,.14-.17s.12,0,.13.07c.11.32.21,0,.25,0s.07-.25.12-.36A.64.64,0,0,1,8.46.71a7.1,7.1,0,0,0,1,0c.12,0,.26-.11.25.12h.09a2.76,2.76,0,0,1,1.7-.2c.14,0,.33-.13.49-.13s.6.08.9.11c.06,0,.15,0,.17,0,.2-.33.43-.25.67-.06,0,0,.13.08.14.07.32-.35.6-.09.91,0s.43-.05.65-.05.51.1.71-.15c.1.49.42-.07.58.11.14-.15.22-.11.25.09,0,0,.11,0,.11,0,.15-.48.66,0,.87-.31,0,0,.25.17.38.16a2.42,2.42,0,0,1,1.16.12s.1-.09.16-.13S20,.24,20,.27a.91.91,0,0,0,1,.15c.09.31.57-.26.6.24A1.09,1.09,0,0,1,21.55.4s.05-.09.09-.1.09,0,.11.07c.14.25.18.27.38.1s.25-.29.19.07c.13,0,.28,0,.38-.06s.23-.17.45,0a1.73,1.73,0,0,0,.92.08,1,1,0,0,1,.63.37,1.7,1.7,0,0,0,.26.34c.07-.14.35-.19.15-.44-.06-.07,0-.22,0-.47.15.38.28.41.53.23a.52.52,0,0,1,.5.1c.29.35.39,0,.59-.14a3.46,3.46,0,0,0,.07.48.64.64,0,0,0,.13.17c0-.06.1-.11.11-.17s.08-.28.27-.16a0,0,0,0,0,0,0c.67-.41,1.36.15,2-.05.24-.07.42-.14.45.2l.3-.29.21.19a1,1,0,0,0-.14.15l0,0L30.32.9c.09-.06.11-.34.31-.09,0,0,.21,0,.3,0s.42,0,.62,0,.32.16.5,0c0,0,.21.29.5.18.11,0,.28.05.39-.12,0,0,.08,0,.1,0,.37.14.37.14.72-.25-.18.38.06.45.24.61l0-.43.24.28.4-.43a1.09,1.09,0,0,0-.07.32c0,.06.09.1.14.15.09-.37.41,0,.6-.18s.31.08.49.13c.15-.26.15-.26.47,0l.19-.21a.43.43,0,0,0,.06-.09.8.8,0,0,0,.59,0c.1,0,.26.33.37,0l.21.3s0,0,0,0A.65.65,0,0,1,38.62,1c.11.06.3-.08.46-.11s.12.06.18.06h.59a.93.93,0,0,1,.23,0s0,0,0,0a2.85,2.85,0,0,1,.42,0c.08.3.15.43.29,0,.11.06.23.18.3.16s.14-.19.2-.29c.14.2.64.14.43.6,0,.07,0,.16.07.28L42,1.2c.19.29.33,0,.5-.09S42.69,1,42.7,1c.3.36.7.09,1,.19.16.05.4-.14.48.15a.68.68,0,0,1,.25-.11,7.5,7.5,0,0,1,.82,0,3.22,3.22,0,0,1,.82.16c.12.05.17.27.28.44.13,0,.07-.47.44-.36s.41.29.35.5a.36.36,0,0,0,.06.3s.2,0,.26,0A1.91,1.91,0,0,0,47.81,2h-.43V1.89c.16,0,.37-.09.48,0s.15.28.22.43l-.42.18s.15.08.15.12c0,.48.4.44.66.57,0,0,.07,0,.1,0h.29a1.57,1.57,0,0,1-.15.32c0,.06-.15.07-.21.12a1.52,1.52,0,0,0-.22.22s.07.14.1.13a1.07,1.07,0,0,0,.34-.09s.09-.1.13-.15-.06.15,0,.2.13.13.19.2a3.21,3.21,0,0,0,.34-.41c0-.07,0-.19-.06-.29h.15v.7c0,.21-.23.62.31.32,0,0,.1,0,.2.09a3.9,3.9,0,0,0-.38.22s-.06.14-.1.21l.26,0c.11,0,.26,0,.31,0a.76.76,0,0,1,.18.45c0,.2-.44.36,0,.59,0,0,0,.27,0,.41,0,.45-.07.91-.09,1.36,0,0,.11.17.14.16a.92.92,0,0,0,.27-.17,3.81,3.81,0,0,1,0,.9,1.31,1.31,0,0,1-.37.57c-.17.17-.37.28-.25.57,0,0-.07.15-.12.21-.28.33-.26.78-.46,1.13a3.17,3.17,0,0,0-.37,1.15,8.47,8.47,0,0,1-.51,1.49,3.43,3.43,0,0,0-.18.7A6.55,6.55,0,0,1,47.8,16a5.24,5.24,0,0,0-.12,1.14c-.1.68-.22,1.36-.31,2,0,.34,0,.7-.09,1.05s-.15.81-.18,1.22,0,.75,0,1.13A2.12,2.12,0,0,1,47,23c0,.22-.15.47-.08.65a1.43,1.43,0,0,1-.07,1,1,1,0,0,0,0,.31,1.25,1.25,0,0,1,0,.33c-.08.28-.25.55,0,.8-.24.24.28.66-.19.86,0,0,0,.12,0,.17-.12.25,0,.57-.29.78a.39.39,0,0,0,.1.62c.06,0,.08.16.09.25,0,.39,0,.79,0,1.18s0,.51-.38.85a.3.3,0,0,0,0,.29.76.76,0,0,1,.2.75c-.09.38-.06.8-.16,1.19s0,.88-.44,1.14c0,0,0,.13-.06.19s.2.08.26,0c.22-.09.23,0,.21.18a4.81,4.81,0,0,0,.07.8l-.46-.24-.07.07a1.48,1.48,0,0,0,.28.28c.2.14.34.26.08.49-.08.06-.09.23-.1.35s.07.29,0,.39c-.27.47.12.89.08,1.34,0,0,.14,0,.22.06a1.43,1.43,0,0,1,.3,0c-.42.21-.35.53-.27.94.15-.25.61-.11.57-.58.39-.15.22.28.32.47a2.93,2.93,0,0,1,.26-.41.39.39,0,0,1,.28-.12c.09,0,.23.21.21.25-.14.24.15.35.14.54,0,0,0,.08,0,.13.36-.24.23.18.42.32a2,2,0,0,1,0-.43.91.91,0,0,1,.17-.28c.06.1.19.22.16.3-.09.27.12.3.26.32s.34-.06.39.19a.62.62,0,0,0,.19-.07c.09-.07.15-.18.24-.25s.14,0,.2,0a.84.84,0,0,1,0,.17c0,.08-.13.22-.12.22a2.44,2.44,0,0,0,.55.35c.06,0,.22-.09.29-.17s.09-.23.21-.34l0,.29c0,.14-.06.37,0,.4a1.5,1.5,0,0,0,.7.24.36.36,0,0,0,.38-.47c0-.06,0-.13.06-.19s.12.11.12.17a2.17,2.17,0,0,1,0,.92,4.83,4.83,0,0,1-.71.87,1,1,0,0,0-.1.35,1.13,1.13,0,0,0,.26,0,.77.77,0,0,0,.19-.08s0,.09,0,.1-.13.16-.19.16c-.39,0-.38.21-.37.48h0c-.09,0-.17.14-.26.16-.32.08-.45.26-.33.58l-.26.26-.16.13c.08,0,.16.07.23.05a2,2,0,0,0,.4-.17l-.21-.27.62-.39a2.7,2.7,0,0,1-.23.68.41.41,0,0,0-.07.5c.12.25-.33,1-.6,1,0,0-.09-.08-.12-.13s-.07-.21-.14-.26c-.3-.24-.42-.18-.51.18,0,.08-.1.21-.13.21a.62.62,0,0,0-.51.16s-.09-.08-.14-.13l-.14-.16h0c-.21-.15-.69.09-.78.4,0,.08-.05.17-.07.24s-.25-.12-.29-.09c-.42.39-.5-.05-.68-.28.1,0,.22,0,.25-.05a1.78,1.78,0,0,0,.17-.4,2,2,0,0,0-.29.18c-.14.11-.27.24-.4.36a.67.67,0,0,1-.15.06.57.57,0,0,0,0-.13c0-.14-.07-.27-.1-.4l-.61.71h-.08l-.25.08h0l-.11-.26c-.74.24-.47,1-.66,1.46a6.73,6.73,0,0,0-.13,1.11c-.1.6-.28,1.18-.34,1.77s-.25,1.26-.39,1.88-.25,1.48-.48,2.2a5.92,5.92,0,0,0-.14,1.34,3.23,3.23,0,0,1-.24,1.22c-.11.24,0,.56,0,.83s-.14.46-.19.7c-.14.75-.25,1.51-.41,2.26a3.36,3.36,0,0,1-.28.65.8.8,0,0,0,0,.27c0,.09,0,.21,0,.27s-.45.36-.17.67c-.41.24-.17.7-.32,1-.05.11-.16.17-.23.27s-.1.19-.07.23c.2.29,0,.29-.21.36a.6.6,0,0,0-.34.31l.58-.12a2.89,2.89,0,0,1-.23.37c-.16.17-.29.29-.19.59s-.17.45-.27.68-.13.31-.19.46-.13.34-.21.5l-.2-.06.28-.33-.11-.07-.16.4c-.25.32-.25.37,0,.46a3.54,3.54,0,0,1-.16.34.23.23,0,0,0,0,0,2,2,0,0,1-.46.19c-.22,0,.19.56-.23.34a6.17,6.17,0,0,1,.29.73s-.1.13-.17.15-.12,0-.18-.07l-.1.35a1,1,0,0,0,.24,0c.3,0,.27.11.15.31s-.05.21-.09.3-.13.2-.19.31c-.1-.1-.26-.19-.27-.29a6.25,6.25,0,0,1,0-1.06c0-.17.12-.34-.19-.29,0,0-.08-.13-.12-.2l-.15-.28-.09-.16-.09.18.19,0a4.19,4.19,0,0,1-.4.54c-.17.17-.31.3,0,.48a2.09,2.09,0,0,1-.12.21c-.06.09-.19.18-.19.27s-.07.28-.35.19a1.2,1.2,0,0,1,.22.28.68.68,0,0,1,0,.25l-.22-.08a.3.3,0,0,0-.18,0s-.06.13,0,.16c.25.28.3.79.86.75a.52.52,0,0,1-.06-.15c0-.07,0-.14,0-.21s.14.07.16.12c.11.31.22.62.3.94,0,.06-.1.16-.17.23s-.26.24-.39.36c0-.13,0-.33,0-.39s-.15-.51-.48-.54a.67.67,0,0,1-.21-.1,1.19,1.19,0,0,0,0,.26c0,.11,0,.22,0,.33.33,0,.42.14.42.72l.36-.29c.12.29.1.52-.26.62-.06,0-.13.21-.12.22.3.23,0,.32-.11.39-.28.17-.49.31-.37.73.06.19-.17.47-.28.7,0,0-.15.06-.18,0-.23-.16-.44-.34-.66-.52s-.12-.15-.2-.2a5,5,0,0,0-.63-.38,7.29,7.29,0,0,0-.7-.28l-.12-.12c.09-.14.16-.29.25-.43a2,2,0,0,1,.32-.34c-.21.32.08.54.22.82a3.25,3.25,0,0,1,.11-.42.72.72,0,0,1,.14-.2,1.36,1.36,0,0,1,.1.21c.06.19.11.38.17.58a.07.07,0,0,0,0,0c.24.13.24.13.23.41a2.33,2.33,0,0,0,.4-.36s-.09-.27-.15-.28c-.26,0-.28-.16-.27-.37s.07-.43-.3-.32a.43.43,0,0,1-.35-.17c-.12-.25-.26-.37-.58-.2a1.92,1.92,0,0,0,.11-.37c0-.11,0-.27-.08-.31s-.4-.16-.43-.11-.12.16-.19,0-.27-.53-.42-.8a.24.24,0,0,0-.14-.1c-.62-.1-.71-.34-.32-.87-.38-.2-.48-.16-.62.26a.54.54,0,0,1-.18.3c-.25.15-.29,0-.24-.21h0c0-.07,0-.19-.08-.2A3.89,3.89,0,0,0,31,70c-.19,0-.4.27-.56.45,0,0,.05.2.11.29a.77.77,0,0,0,.16.16l.44-.51.15.12a6.45,6.45,0,0,1-.29.59c0,.06-.14.09-.22.09s-.15,0-.23,0-.34,0-.35,0a3,3,0,0,1,0-.42.31.31,0,0,0-.1-.23,2,2,0,0,0-.38-.16l.34-.24.12.23c.05-.07.15-.14.14-.2a.33.33,0,0,0-.15-.22c-.08,0-.28,0-.28-.08s0-.39.05-.49c.22-.26.07-.44,0-.66a1.7,1.7,0,0,1-.08-1.46,1.8,1.8,0,0,0,.06.22h.07l-.13-.21c0-.12.42-.24,0-.39a.66.66,0,0,1,.06-.38c.07-.12.17-.21,0-.33a3.82,3.82,0,0,1,.36-.34c.59-.4.71-.65.5-1.23,0-.12-.22-.19-.33-.29a.77.77,0,0,1,.05-.93l.07-.05c-.3-.45,0-.88.08-1.3.18-1.36.45-2.7.69-4.05.06-.32.06-.71.25-.91a1.34,1.34,0,0,0,.35-.65s0-.09,0-.23l-.2.48h-.07c.1-.5.19-1,.29-1.5.06-.32.13-.63.19-1,0-.13,0-.36.22-.16,0-.07,0-.16,0-.19s-.27-.28.08-.28a1.61,1.61,0,0,0,0-.22c0-.19-.26-.43.13-.52,0,0,.05-.07.05-.09-.13-.53-.13-.53.06-.87a.13.13,0,0,0,0-.12c-.07-.24-.07-.24.28-.24-.54-.19-.2-.53-.17-.74.12-.85.33-1.7.52-2.54,0-.25.12-.5.2-.82l-.3.17c-.11-.09-.17-.2-.25-.21a1.69,1.69,0,0,0-.35.1c-.11,0-.23,0-.35.06l.16-.29s0,0-.06,0c-.31.13-.62.28-.93.4a.62.62,0,0,1-.4,0,.47.47,0,0,0-.58.09,3.24,3.24,0,0,1-.32.17L30,47.77a.74.74,0,0,0,.13-.08.8.8,0,0,0,.13-.19s-.08-.11-.09-.11a1.07,1.07,0,0,0-.16.14l-.43.36a1.77,1.77,0,0,1,0-.23l-.11.07.1.15c-.21,0-.35.41-.64.15-.22.25-.56-.06-.83.22s-.51.13-.78.19a1.38,1.38,0,0,1,0-.2c0-.1,0-.2,0-.28l-.33.26-.11-.16-.1.23.22-.08a2.27,2.27,0,0,1-.26.28,2.13,2.13,0,0,1-.34.25c-.06,0-.18.07-.2,0-.33-.33-.74.05-1.08-.14-.08.15-.08.14-.12,0s-.19-.13-.29-.19a1.62,1.62,0,0,1-.1.18l-.34.56L24.05,49h0a1.22,1.22,0,0,0,.2-.32,1.58,1.58,0,0,0,0-.49.31.31,0,0,0-.19-.06c-.23.09-.51.15-.43.51l-.1.08c-.07,0-.17,0-.21,0-.26.21-.49.45-.74.67s-.32.16-.44.29-.23.28-.35,0a.43.43,0,0,0-.21.05c-.08.06-.13.16-.21.22s-.35.17-.37-.15l.39-.13-.13-.12a3.07,3.07,0,0,0-.25.26c-.09.08-.17.17-.26.24a4.45,4.45,0,0,1-.48.26c0-.35,0-.35-.25-.23a3.73,3.73,0,0,1-.44.14c-.08,0-.24,0-.25,0-.15-.49-.32-.06-.48,0a.72.72,0,0,0-.19.11c-.12.08-.24.33-.39.08-.06-.09.05-.28.09-.42s.08-.08.09-.13,0-.13-.07-.23c-.12.15-.23.31-.34.47l-.1.1L17.87,50c.21-.1.27-.28.06-.39s-.52-.12-.58,0c-.19.27-.19,0-.25-.05l-.24-.38c0-.05-.09-.08-.1-.13s-.08-.3-.11-.45l-.63.19a1.51,1.51,0,0,0-.18.09,1.16,1.16,0,0,1,.05-.28c.07-.12.4-.07.24-.35a1,1,0,0,0,.17,0l.21-.07c-.05,0-.11-.08-.13-.13a4,4,0,0,0-.2-.61,1.74,1.74,0,0,1-.23.45c-.27.29-.33.25-.48-.1a.52.52,0,0,0-.38-.3c-.14,0-.29.16-.36.2a1.36,1.36,0,0,0-.19-.45c-.26-.31,0-.47.2-.62L14,46.31l.86-.45a2.3,2.3,0,0,0-.34-.4c-.13-.1-.39-.13-.17-.38l-.23-.1h0c-.12-.13,0-.49-.36-.41a.29.29,0,0,1-.08-.14c.28-.32-.07-.43-.2-.61h0a.55.55,0,0,1,0-.25c0-.17,0-.47.34-.24a2,2,0,0,0,.67.1.59.59,0,0,0,0-.2c0-.13,0-.26,0-.38l.39.07.22.12,0-.1H14.9a1.82,1.82,0,0,1,.43-.19,3.68,3.68,0,0,1,.66-.06c.17,0,.41-.12.45.2.1,0,.22,0,.28-.06s.23-.18.34,0,.17.14.27.2c0-.1.1-.22.08-.31s-.15-.12-.24-.15a.73.73,0,0,1-.22-.06c.28.12.43-.47.76-.13,0,0,.26-.17.25-.21-.1-.25.15-.3.23-.45a.47.47,0,0,0,0-.34c-.22.49-.44.16-.77.06.36-.09.55-.23.49-.55,0,0,.06-.13.12-.17s.25-.16,0-.28c-.05,0-.07-.2-.05-.29a3,3,0,0,1,.19-.45c.22.23.4.64.9.46-.18-.2-.18-.2.21-.82.13-.06.06.58.34.1,0-.07.34,0,.59,0l.13-.23.26.4c.13-.15.26-.3.38-.46s0-.26.27-.13.18-.25.37-.36l0,.3.06,0,.08-.26c.23.35.36,0,.55-.12V39l.07,0a6.36,6.36,0,0,0,.59-.43.85.85,0,0,1,.8-.08s.1.08.11.07l.68-.46.13.28a1.41,1.41,0,0,0,.18-.23,1.7,1.7,0,0,0,.09-.29l.15.4a.74.74,0,0,1,.79-.16s.09,0,.09,0c0-.33.37-.13.51-.27s.12,0,.12,0c.13.41.35,0,.46,0a2.21,2.21,0,0,1,1.45-.17s.08,0,.12-.05c.32,0,.63-.11.94-.14a3.09,3.09,0,0,1,.59.08l.24-.14c.15-.08.45.2.46-.19.12,0,.33,0,.35.06.1.26.22.16.35.06s.52,0,.64-.29c0,0,.12,0,.13,0,.21.31.48.23.76.15.05,0,.13.06.2.1s.09.09.13.08c.21,0,.28,0,.39.09.08-.11.15-.31.23-.32s.24.15.38.19a1.49,1.49,0,0,0,.47.07c.35,0,.52-.12.56-.52.06-.64.21-1.28.33-1.92,0,0,0-.11.07-.11.27,0,.17-.13.12-.25s-.07-.13-.1-.19a.91.91,0,0,0,.17,0s0-.06,0-.08a.4.4,0,0,1,.36-.47s.07-.09.11-.14c-.28-.17,0-.32,0-.48s-.06-.47-.09-.71h0a5.42,5.42,0,0,1-.14-.7,3.69,3.69,0,0,1,.08-.46c0-.26.22,0,.3-.13L37,31c-.06,0-.13-.08-.19-.07-.29.09-.23-.13-.22-.26a3.2,3.2,0,0,1,.17-.94,2.26,2.26,0,0,0,.06-.72c0-.31.11-.61.16-.92a8.47,8.47,0,0,1,.27-1.42,1.26,1.26,0,0,0,0-.33,1.3,1.3,0,0,1,.09-.56c.19-.32,0-.66.14-1s.17-.38.24-.57a.34.34,0,0,0,0-.2c-.06-.14-.23-.3.1-.34a1.3,1.3,0,0,0,0-.18c0-.29,0-.59,0-.89l.36-.07-.05-.1-.31.19a4.87,4.87,0,0,1,.21-1.22c.14-.32,0-.64.15-.94,0-.08.09-.16.13-.24s.1-.16.08-.18c-.28-.35-.07-.59.17-.82a3,3,0,0,0,.21-.3l-.26-.07c.07-.12.2-.27.17-.32-.17-.28-.14-.44.14-.68s.13-.5.2-.76c0-.1.14-.19.15-.29a.76.76,0,0,0,0-.47c-.3-.46.12-.61.37-.71s.15-.11.11-.24a1.83,1.83,0,0,1-.12-.46c0-.34.39-.3.45-.6-.13,0-.3-.24-.36.26l-.09-.19.51-.8.09.25.08-.07-.18-.17c.08-.21.15-.43.23-.64a.19.19,0,0,1,0-.08c.16-.37.41-.73.18-1.17a.19.19,0,0,1,.07-.14.79.79,0,0,0,.45-.79c.43-.15,0-.53.18-.74l-.25-.21c-.23.3-.33-.08-.51-.09l-.15-.25,0,0,0,.23-.07.17c-.16-.3-.52.29-.66-.15,0-.07-.06-.13,0-.12l-.31,0-.06-.15-.06,0a1.34,1.34,0,0,0,.07.18l0,.11c-.26-.1-.43.05-.61.2s-.09,0-.16,0c0-.18.39-.13.19-.42s-.25-.35-.48,0-.37.29-.5,0V9.58a1.85,1.85,0,0,0,0-.23c-.07-.26-.15-.4-.38-.1-.09.12-.28.16-.42.23l-.52.28c-.19-.15-.42-.47-.64-.46s-.41.39-.39.8l-.46-.38-.11.27c-.05-.05-.09-.12-.15-.14s-.15,0-.16.06c-.08.22-.18.22-.32.05s-.07,0-.1,0l-.34.05.1-.33.17-.15,0-.08-.1.11c-.07,0-.17-.1-.22-.07-.31.16-.41,0-.59-.26s0-.38,0-.56,0-.27-.08-.33c-.23-.17-.5-.28-.73-.45s-.08-.25-.15-.45c-.09.2-.16.37-.24.53l-.1.17c0,.11-.14.23-.12.33s.15.34.19.52a1.33,1.33,0,0,1-.07.37c-.16-.19-.56.15-.61-.29,0-.12-.07-.3-.15-.33-.28-.12-.25-.24-.08-.43,0,0,0-.1,0-.15a.32.32,0,0,0-.14,0,.91.91,0,0,0-.33.2c-.06.07-.09.28-.05.31.37.22.42.34.09.5s-.38.44-.56.69l-.32-.66-.08,0c0,.2.07.41.09.62,0,0,0,.1-.06.16a.83.83,0,0,0-.14-.13,1.11,1.11,0,0,0-.25,0c0,.26-.12.28-.31.12l-.14.12-.09-1c-.71-.19-.75.63-1.17.93,0-.25-.08-.51-.13-.76,0,0-.13-.08-.18-.08s-.06.11-.09.16l0-.16c-.07,0-.17,0-.2.1s-.14.3-.22.43-.3.31-.54.13c0,0-.19.06-.27.11s-.4.28-.64,0c-.06,0-.22,0-.34,0V9.51l-.1,0,.09.37a.06.06,0,0,1,0,0c-.09.05-.22.18-.28.15a1.66,1.66,0,0,1-.39-.28l-.42.23s-.1,0-.15,0c.05-.47-.53-.12-.59-.45a.67.67,0,0,0-.17.08c-.24.2-.32.19-.51-.07,0,0-.11-.11-.13-.1a1.39,1.39,0,0,1-1.37.07c-.07,0-.22.14-.33.23s-.07.1-.11.11-.12,0-.12-.06A.24.24,0,0,1,20,9.69c.1-.12.29-.23,0-.31,0,0,0-.14,0-.21a1.47,1.47,0,0,0-.1-.22l-.23.16h-.05l-.05-.34c-.24.17-.46.45-.71.05a.43.43,0,0,0-.32.08c-.11.13-.09.15-.21,0a1.42,1.42,0,0,0-.2.12L18,9.11l-.94.23c-.05,0-.12-.06-.18-.1l.14-.1.26-.2-.53-.29a.18.18,0,0,0-.14,0c-.33.36-.4.07-.46-.19-.34.08-.33.27-.21.53a.81.81,0,0,1,0,.27c0-.06-.06-.15-.1-.16a2.11,2.11,0,0,0-.41-.06l.2.21a.75.75,0,0,0-.21,0,.18.18,0,0,0-.12.09c-.1.28-.31,0-.46.09a.88.88,0,0,1,.07-.33c.07-.11.2-.18.29-.29s0-.14.07-.22-.09.06-.14.06a1.07,1.07,0,0,1-.41-.07c-.38-.24-.69.07-.94.2s-.35.29-.51-.07a1.45,1.45,0,0,0-.1-.18l-.11.39c-.1-.12-.43-.06-.3-.37l-.2-.09-.27-.2-.06.1.33.18c-.1.1-.2.2-.31.29A.76.76,0,0,1,12,9s-.11,0-.16-.05,0-.1,0-.13.16-.06.19-.11a.67.67,0,0,0,.12-.34s-.22-.15-.27-.11-.39,0-.56.23-.41-.05-.54-.26c0,0,.08,0,.11,0a1,1,0,0,0,.21-.1s0-.07,0-.1l-.22.1s0,.06-.06.09c-.23-.2-.45-.27-.61.07v0l-.17-.09h0a4.47,4.47,0,0,0-.43-.44S9.4,7.92,9.4,8c0,.33-.23.42-.55.43a3.31,3.31,0,0,0,.26-.27c.05-.06.11-.16.09-.2A.34.34,0,0,0,9,7.78c-.17-.06-.44.14-.5-.21,0,0-.1,0-.12,0-.23.31-.35.07-.49-.1v0l.39-.43c-.08-.3-.4.23-.37-.23-.15.09-.32.16-.46.26s-.45.38-.68.57h0c0-.24,0-.47.08-.71s0-.22,0-.33l-.29.13a.8.8,0,0,1-.15,0h0v-.4C6.23,6.55,6,6.64,6,7c-.48-.08-.06-.38-.21-.59l-.59.52h0c0-.26-.06-.54.17-.76,0,0,0-.17-.06-.25-.42.17-.13-.24-.31-.35C5,5.75,4.64,5.87,5,6c0,0,0,.24-.07.27s-.17.5-.47.18c0,0-.17,0-.24,0a.3.3,0,0,1-.17-.14s.06-.12.09-.18h0c.38-.07.4-.08.59-.53-.1,0-.19,0-.25,0s-.13-.13-.13-.13c.26-.26.15-.73.55-.91a3.58,3.58,0,0,0,.6-.41c-.32.1-.58-.11-.76.2,0,0-.11,0-.17,0a.42.42,0,0,1-.15,0c-.11.48-.93.44-.81,1.1,0,0-.11.12-.18.14s-.35,0-.53.08H3c.09,0-.06-.33.22-.2a.38.38,0,0,0,.32-.1c.05-.08.08-.31-.18-.24,0-.09,0-.21.1-.27.22-.21.47-.4.7-.6.06,0,.11-.15.16-.15.55,0,.88-.34,1.29-.58a.84.84,0,0,1,.17,0,.46.46,0,0,0,.73-.07l-.73.08.35-.7a.73.73,0,0,1,.53.63c0,.19.13.25.33.13a1.72,1.72,0,0,0,.81-.79c0-.1.19-.16.28-.24l.19.32c.13-.16.28-.31.39-.47a.73.73,0,0,0,.06-.3c-.11,0-.24,0-.32.11s-.17.15-.3,0-.09,0-.1,0c-.22.21-.48-.06-.71,0ZM21.34,9.15V9l-.13.07.15.09.24,0,0-.07ZM16.72,2.42s-.1,0-.14.05a.62.62,0,0,0-.14.14s0,.07.07.07a.61.61,0,0,0,.18-.09.45.45,0,0,0,.06-.14L17,2.37l.25,0-.05-.25L17,2.26ZM42.16,3.47l.26,0-.14-.15c-.07,0-.1-.33-.24,0h-.4a.26.26,0,0,0-.14-.45.58.58,0,0,0-.48.08c-.06.05,0,.31.07.44s.25,0,.38,0a.87.87,0,0,0,.17-.07c0,.1-.19.3.13.2L42,3.38ZM48,40.41l.43-.25L48.3,40l-.32.39-.09.31H48Zm-.6-.1-.18.12.26.22,0-.07-.14-.27.18-.13,0-.06ZM49.54,8.92l.06-.4h-.11l0,.39L49.2,9l0,.14.27-.19Zm-31.49-.5-.16-.24c0,.08-.1.15-.13.23s0,.1,0,.16L18,8.41s.06,0,.07,0a1.27,1.27,0,0,0,.18-.27s0-.07-.06-.11-.07.19-.11.28S18.07,8.37,18.05,8.42ZM49,40.62l0-.12-.12,0c0,.06-.1.14-.09.17a1.1,1.1,0,0,0,.2.23l-.55.26a.21.21,0,0,1,0-.2l.18-.24s-.11-.07-.13-.06a1.69,1.69,0,0,0-.2.25c-.12.18-.22.34.15.31a.3.3,0,0,1,.24.16c.14.27.28,0,.3,0a1.48,1.48,0,0,0,0-.46l.34.07ZM12.66,2.36l0,.18h.14l0-.19.55-.13C12.9,1.94,12.77,2.11,12.66,2.36Zm-3.14,1,.3-.18c.06-.1.09-.24.18-.31.24-.2,0-.19-.09-.23h0c.36-.39.72-.16,1.07,0L10.54,3l-.61.49s0,.12,0,.17.11,0,.16,0l.75,0c.05,0,.13,0,.14,0a3.17,3.17,0,0,1,.14.4c.11-.09.25-.27.33-.25.51.17.51-.29.67-.53s0-.25,0-.38H12v.2c-.06,0-.16-.07-.16-.1A.83.83,0,0,1,12,2.63c.27-.36.29-.61,0-.63a4,4,0,0,0-.65.07l.29.3-.46.14a.54.54,0,0,1,.38.77,1.75,1.75,0,0,1-.11.24l-.27-.12s.11-.08.13-.13,0-.12,0-.18-.07-.18-.05-.25c.09-.24,0-.28-.21-.22l.38-.55c-.41.23-.76.33-1.09.06,0,0-.08.09-.14.12a1,1,0,0,1-.18,0c0-.06,0-.13,0-.2L10,1.7l.24,0,0-.06-.2.1c-.13.12-.26.34-.4.35-.41,0-.59.28-.84.66.4-.08.72-.12.87.27l-.39-.13.21.43-.32.21C9.34,3.52,9.58,3.64,9.52,3.31ZM6,5.19l.28.23.1-.06-.17-.31L6,5.19s0,.07,0,.11l0,.15H6A.83.83,0,0,0,6,5.3S6,5.23,6,5.19ZM5.74,4.8,5.56,5c0-.06,0-.11,0-.14s-.09-.26-.17-.28-.28.06-.21.27c0,0,0,.1,0,.15s-.06.25,0,.26.27.1.31,0a3.84,3.84,0,0,0,.33-.52l.15-.22-.12,0ZM50.07,40.92a.35.35,0,0,0,.52,0c0-.06,0-.17.06-.25s-.14.05-.19,0c-.31-.18-.21.26-.4.26L50,40.79a4.3,4.3,0,0,0-.55.58c0,.06.09.29.2.36s.26,0,.38,0,0-.22,0-.31S49.87,41.06,50.07,40.92Zm1,1.17.34-.26c.14-.13.26-.27.39-.41s0-.16-.24-.38a1,1,0,0,1-.16-.27,3.44,3.44,0,0,1-.15.48,1,1,0,0,1-.2.22,1.1,1.1,0,0,0-.14-.21.26.26,0,0,0-.19,0c-.41.14-.49.52-.61.87.23.11.45.27.65-.08s.24,0,.32.1a1.08,1.08,0,0,0-.23.18.45.45,0,0,0-.07.23s.09.08.1.07a.36.36,0,0,0,.15-.15A2,2,0,0,0,51.06,42.09ZM35.3,68.35h0c0,.18.28.47-.16.55a1,1,0,0,0,0,.35s.1.13.15.12c.32,0,.68-.68.71-1a1.54,1.54,0,0,1,.09-.75,6.29,6.29,0,0,0,.5-1.38,3.6,3.6,0,0,0,0-.66c-.18.09-.41.2-.63.33,0,0,0,.17.05.22s.13,0,.2,0a3.77,3.77,0,0,1-.42.46c-.19.15-.33.27,0,.46a.21.21,0,0,1,.06.21c-.14.2-.27.49-.46.54C35,67.94,35.06,68.09,35.3,68.35Zm0,2.12c0-.08-.08-.23-.12-.23a.6.6,0,0,0-.38.12c-.23.22-.51.44-.41.83-.51.32.06.39.16.49a.49.49,0,0,0,.48,0,.64.64,0,0,0,.08-.54c0-.21-.34-.39.1-.48C35.25,70.68,35.27,70.55,35.3,70.47ZM29.76,1.93c.19.22.31.35.42.49a3.54,3.54,0,0,1,.26.41c0,.07,0,.16,0,.25.53-.08.65-.19.52-.58A1,1,0,0,0,30.49,2C30.34,1.86,30.09,1.93,29.76,1.93ZM50,42.86a3.36,3.36,0,0,1-.35.49c-.3.32.14.39.19.59s.23,0,.35.05.07-.05.08-.08a2.44,2.44,0,0,0,.12-.69C50.37,43.1,50.15,43,50,42.86ZM33.62,2.6a7.16,7.16,0,0,0-.73.3.66.66,0,0,0-.26.31.43.43,0,0,0,.06.28c.18,0,.43,0,.52-.09A4.21,4.21,0,0,0,33.62,2.6ZM15,46l-.4.3c.14.13.31.39.43.37s.38-.24.57-.38ZM29.57,2.67l-.06-.08-.35.27a2.07,2.07,0,0,0,.32.28c.25.15.31-.09.45-.2s.23-.15.18-.19a.68.68,0,0,0-.31-.11C29.73,2.62,29.65,2.66,29.57,2.67Zm4,66.23a1.2,1.2,0,0,0-.27-.07c-.22,0-.51,0-.46.32,0,.14.29.25.44.37ZM16.68,43.85c.21,0,.26-.44.42-.08,0,0,.08,0,.09,0a5.32,5.32,0,0,0,.38-.45s0-.11,0-.16c-.23.15-.54-.07-.72.15A1.4,1.4,0,0,0,16.68,43.85Zm25-33-.05,0a3.62,3.62,0,0,0,.13-.35.33.33,0,0,0,0-.17.16.16,0,0,0-.1,0,.42.42,0,0,0-.1.17c-.06.19-.11.37-.16.56l-.13.46a.89.89,0,0,0,.59-.94Zm-10.49,56a2.52,2.52,0,0,0,.29.1.43.43,0,0,0,.2,0c0-.21.42-.29.18-.57a.79.79,0,0,1-.09-.23c-.07.07-.17.13-.2.21s.09.48-.3.4C31.28,66.75,31.25,66.82,31.21,66.88Zm9.45-54a1.22,1.22,0,0,0,.21,0A.92.92,0,0,0,41,11.62a.15.15,0,0,0-.12,0c0,.06-.06.13,0,.17A1.08,1.08,0,0,1,40.66,12.89ZM34.16,2.67c-.33,0-.4.13-.35.38a.53.53,0,0,1,0,.24c0,.07-.06.14-.08.21s.24,0,.3-.11a1.48,1.48,0,0,0,.21-.46A.75.75,0,0,0,34.16,2.67Zm-17,4.92L17,8.43a.2.2,0,0,0,0,.13c.07,0,.19,0,.2-.05C17.28,8.23,17.5,7.93,17.11,7.59ZM32.55,65.51l-.2-.15-.09.14c-.09.13-.15.33-.37.15,0,0-.16,0-.16.09s0,.24.05.24a.63.63,0,0,0,.41,0A2.36,2.36,0,0,0,32.55,65.51Zm8.33-49c.52,0,.55,0,.27-.78Zm-2.67-7.1c0-.3,0-.54,0-.79a.31.31,0,0,0-.11-.15s-.1,0-.12.07A.92.92,0,0,0,38.21,9.38ZM40.39,66.1l-.29-.26a2.56,2.56,0,0,0,.27,0s.07-.08.11-.12c-.14,0-.37-.12-.4-.07a2.48,2.48,0,0,0-.26.57ZM44,3.22l-.08-.07a1.33,1.33,0,0,0-.45.05,1,1,0,0,0-.28.32s.09.14.09.14Zm.36-.16-.27.24a1.1,1.1,0,0,0,.34.25c.07,0,.18-.15.27-.23ZM39.08,67.4c-.14.29-.26.51-.36.74,0,0,0,.11.05.17s.09,0,.1,0C39,68,39.31,67.82,39.08,67.4Zm-5.14-.91.11-.09-.2-.53-.32.19Zm-2.86,2.28c-.14.18-.28.3-.26.35a1.37,1.37,0,0,0,.29.3,1.47,1.47,0,0,0,.15-.34C31.27,69,31.18,68.94,31.08,68.77ZM27,8.86a1.63,1.63,0,0,0,0-.46c0-.09-.11-.17-.19-.22s-.13,0-.17.09a.19.19,0,0,0,0,.19C26.72,8.59,26.84,8.69,27,8.86Zm4.68-6c-.52-.36.09-.48,0-.75-.38-.1-.31.22-.35.41S31.23,2.86,31.66,2.82Zm-9.16,6-.42.65C22.68,9.48,22.64,9.2,22.5,8.81ZM8.4,3.54l.3-.32L8.22,3Zm9.11,45.63h.09c0-.06,0-.15,0-.18s.11-.24,0-.32a1,1,0,0,0-.24-.07c0,.11,0,.22.07.33ZM30.8,66a3.27,3.27,0,0,0,.28-.19c.08-.07.15-.16.23-.24s-.07,0-.1,0a2,2,0,0,0-.4.17S30.8,65.87,30.8,66ZM13.43,7.6l0-.1c-.67,0-.73,0-.6.29Zm.48-5.28c.17.09.36-.22.44.1a.74.74,0,0,0,.12-.13s0-.16,0-.16A.88.88,0,0,0,14.06,2C14,2.05,14,2.22,13.91,2.32ZM39.58,67.24l-.07,0a2.11,2.11,0,0,0-.17.44c0,.06.06.14.09.22s.17-.13.18-.21A1.89,1.89,0,0,0,39.58,67.24ZM34.08,9.78l.38-.26-.19-.22a.75.75,0,0,1-.1.17c-.05,0-.13.08-.18.14s0,.08,0,.13Zm6,5.13.07.06.3-.46-.11-.07ZM30.67,66.7h0l.1.26.1-.28a.58.58,0,0,0,0-.19,1.62,1.62,0,0,0,0-.2c-.06,0-.14.09-.16.15A.68.68,0,0,0,30.67,66.7ZM14.78,7.51c-.4.15-.41.22-.18.63Zm14-4.72c-.06.12-.11.17-.1.19s.19.31.28.46c0,0,.12-.08.11-.09C29,3.18,28.91,3,28.79,2.79Zm5,64.81L34,67C33.68,67.12,33.5,67.24,33.74,67.6ZM9.84,7,9.79,7a3.39,3.39,0,0,0-.27.39c0,.06,0,.16,0,.25s.15-.09.17-.16A3.33,3.33,0,0,0,9.84,7ZM8,5.77l-.51.33C7.83,6.28,8,6.17,8,5.77Zm16.42,3h.11c0-.08.13-.16.12-.24s-.11-.15-.17-.22-.12.11-.12.17A.94.94,0,0,0,24.4,8.78ZM47.75,39.27c0-.06.11-.13.1-.18s-.08-.13-.13-.2l-.23.19Zm-7-34.86-.23.11c.06.08.12.19.19.2s.16-.09.23-.14Zm1.11,7.41.09.07.25-.55-.08,0Zm-8.17,59,.08.12.41-.31-.06-.08ZM35.48,3.08l-.14-.23L35.18,3a.9.9,0,0,0,.18.16S35.44,3.11,35.48,3.08ZM9.16,1.61l.1,0,.13-.29L9.2,1.27ZM50,7.1,50.08,7c-.07,0-.15-.07-.2,0a.23.23,0,0,0-.14.16s0,.1.08.16Zm-7.83,3L42,9.89s-.09.1-.08.14a.3.3,0,0,0,.14.17S42.13,10.12,42.18,10.09ZM6.56,6l.05.13L7,6l0-.1ZM18.2,43.53v-.07l-.31,0a.25.25,0,0,0-.13,0s0,.1,0,.1h.17A2.06,2.06,0,0,0,18.2,43.53ZM13.38,2.47h-.11c0,.15,0,.29,0,.43h.1Zm2,44.46c0,.1-.11.17-.11.24s.08.09.12.13.14-.11.16-.18S15.44,47,15.36,46.93ZM15,6.75c-.08.09-.17.13-.19.2s.07.11.11.16a1.62,1.62,0,0,0,.18-.19S15,6.84,15,6.75ZM33.2,58.21c.06,0,.13.1.15.09s.11-.1.11-.15-.06-.12-.1-.18Zm4.06,11.5.12,0c0-.11.09-.22.12-.33l-.08,0ZM20.7,9.4l.05.08a1.57,1.57,0,0,0,.25-.2s0-.11-.05-.16Zm2.41-7c0,.07-.11.14-.09.17a.28.28,0,0,0,.15.15s.08-.06.13-.1ZM49.58,40.34l-.1.1a2,2,0,0,0,.26.24l.07-.06Zm-11.74-7.6-.09,0,.08.3L38,33ZM9,6.82l-.08.07.21.27.09,0Zm26-5.31-.14-.16a.7.7,0,0,0-.13.17s.05.1.06.1A1.46,1.46,0,0,0,34.92,1.51Zm-24.56,3,0-.12L10,4.41s0,.08,0,.13Zm22.7-.37c-.1,0-.16-.09-.21-.08s-.11.05-.16.08a1.49,1.49,0,0,0,.2.15S33,4.18,33.06,4.1Zm8.63,12.06c.07.08.11.15.16.16s.13-.08.12-.1a1,1,0,0,0-.13-.22ZM30.35,66.65l-.08-.26s-.1.09-.1.12a.9.9,0,0,0,.08.21ZM15.76,43.84l.11,0-.06-.36-.1,0Zm34.1-1.59c-.08,0-.13-.11-.17-.11s-.08.08-.11.12.08.09.13.09S49.79,42.3,49.86,42.25ZM42.12,3.93,42,3.87l-.17.24.11.1ZM17.61,2.52l-.09,0,.14.35.08,0ZM7,5.32l.08,0,.17-.22s-.16-.06-.16,0A1.57,1.57,0,0,0,7,5.32ZM35.19,2.74c-.06-.05-.11-.11-.15-.11s-.15.06-.14.08A.66.66,0,0,0,35,2.9ZM13,8.34l0,.1.35-.14,0-.1ZM33.05,7.13l-.11,0-.13.33.08,0Zm-19.51.94a.68.68,0,0,0,.1-.18s-.05-.07-.08-.1a.74.74,0,0,0-.12.13S13.49,8,13.54,8.07ZM50.18,44.69l0-.1-.29-.06,0,.07Zm-33.59-37,.11-.18s-.09-.06-.12,0a.17.17,0,0,0-.1.1S16.53,7.62,16.59,7.68Zm.71-.78-.18-.19c0,.1-.07.19-.09.29s0,0,0,.07Zm-6.06-.66-.17-.1c0,.05-.07.1-.06.14s.05.08.08.11ZM35.81,67.37l-.1-.12a.65.65,0,0,0-.1.15s0,.06,0,.09Zm2.07-6.22s-.06-.06-.09-.07-.07,0-.07.05a.86.86,0,0,0,.07.1Zm-6.7,3.92-.09-.13S31,65,31,65s0,.08.06.12ZM49.3,9.9l-.15-.12a.45.45,0,0,0-.11.13s.05.08.07.08A.65.65,0,0,0,49.3,9.9ZM11.07,4.58l-.13-.16s-.09,0-.09,0a.38.38,0,0,0,.06.16S11,4.6,11.07,4.58Zm5.07-2.21,0-.07-.3-.09,0,.06ZM47,39.59l-.1-.13a.83.83,0,0,0-.11.15l.06.06A.56.56,0,0,0,47,39.59ZM25.46,9.47l-.06-.1s-.08,0-.07.06a.39.39,0,0,0,.06.11ZM6.56,4.79l.05.06.09,0,.06-.13Zm34.6,8.15-.08,0-.11.28.07,0ZM23,9.36c0-.13,0-.18,0-.2s-.08-.07-.12-.11ZM39.17,5.69l-.06.06.21.18.07,0ZM40.68,16l.09.05.12-.25-.09-.06ZM29.18,3.52c-.05.08-.09.11-.09.14a.22.22,0,0,0,.05.11s.09,0,.1-.08S29.22,3.61,29.18,3.52Zm.95-1.82L30,1.56s-.05.05-.05.07a.21.21,0,0,0,.07.11S30.08,1.72,30.13,1.7ZM39.84,16l-.07,0-.08.22.06,0ZM13.12,7.2l-.06.12s.09,0,.13,0,.06-.05.08-.08ZM39.9,15.05s0-.05-.07,0l-.1.06.07.11ZM24.34,1.72l-.18-.05s0,.05,0,.08a.31.31,0,0,0,.05.12Zm10.85-.06c-.07,0-.12-.08-.14-.07a.21.21,0,0,0-.1.11s.07.09.08.09A1.31,1.31,0,0,0,35.19,1.66ZM30,3.36l.11.08s.05-.08,0-.1-.07-.06-.1-.1Zm.73.45c-.05,0-.09-.09-.11-.08a.48.48,0,0,0-.11.09s0,.05.07.05Zm-20.33.45A1,1,0,0,0,10.51,4s0,0-.07-.08-.07.08-.1.13S10.36,4.13,10.42,4.26Zm38.44.07a1.11,1.11,0,0,0-.11.2s.06.06.08,0,.1,0,.1-.07A.53.53,0,0,0,48.86,4.33ZM32.48,46.76l-.06-.13-.13.12s.05.06.07.06ZM41.7,4.54a.64.64,0,0,0-.16,0s-.07,0-.11,0l.13.11S41.62,4.58,41.7,4.54Zm7.61.14s-.07-.07-.09-.07l-.1.06s.05.06.08.07S49.26,4.71,49.31,4.68Zm-38.57.85c0-.08.1-.12.1-.16s-.06-.06-.09-.09l-.07.11A.71.71,0,0,0,10.74,5.53Zm5.38,2.71A2.3,2.3,0,0,0,16.24,8s-.07-.06-.08,0a.21.21,0,0,0-.11.12S16.08,8.14,16.12,8.24Zm12.31.51.14-.09s-.05-.09-.09-.09a.12.12,0,0,0-.11.06S28.4,8.7,28.43,8.75Zm8.21,58.16,0,0-.08.07.07.07Zm6.63-56.52a.35.35,0,0,0-.14-.06s-.08,0-.07.05a.17.17,0,0,0,.06.1S43.18,10.45,43.27,10.39ZM31.53,58.91a1.22,1.22,0,0,0-.12-.16s-.07,0-.11,0,0,.11,0,.13S31.43,58.91,31.53,58.91Zm6-26.25-.13.13s.08.06.1.05.08-.07.13-.11Zm3-18.7a.67.67,0,0,0,.07-.22s0-.07-.07-.11l-.16.12Zm-7,43.78-.1-.07,0,.06a.24.24,0,0,0,.06.08Zm-1-4.66L32.41,53s0,.08,0,.09a.69.69,0,0,0,.11.13ZM19.41,49.69l-.08.07.07.07.08,0ZM9.33,1,9.23.88S9.16,1,9.15,1s0,.08,0,.08S9.29,1.05,9.33,1ZM33.65,56.92c0-.05.06-.1.05-.11l-.12-.07s-.06.06,0,.07A.65.65,0,0,0,33.65,56.92Zm6.49-41L40,15.86s-.05.07,0,.09,0,.07.08.1ZM37.9,34s.06-.08.05-.09a.33.33,0,0,0-.07-.13l-.08,0ZM26.35,48.33c-.07-.06-.09-.08-.11-.08l-.13,0Zm4.26,14.13s-.06.09,0,.11.06.07.09.1.06-.07.05-.09A.9.9,0,0,0,30.61,62.46Zm-5-14.19-.09,0a.18.18,0,0,0-.08.07l.1.07Zm6.27,17a.25.25,0,0,0,.11.05s.05,0,0-.05,0,0-.06-.08ZM49.4,10c0-.06.08-.09.09-.13a.26.26,0,0,0,0-.1l-.1.11S49.37,10,49.4,10Zm-13,27.19.09,0,.11-.22-.06,0ZM41.31,9.69a.51.51,0,0,0-.12,0,.28.28,0,0,0-.09.07l.12.06S41.27,9.73,41.31,9.69ZM21.69,9.52l.06-.08s-.06-.06-.08-.06-.05,0-.08.08ZM39.15,66.7l-.07-.12s0,0,0,.06a.45.45,0,0,0,.06.12ZM38.69,9.1a.8.8,0,0,0,0,.11.17.17,0,0,0,.08.06s0,0,.07,0Zm-5,57.73s-.06-.08-.08-.08-.06,0-.09,0,0,.07.07.09S33.67,66.85,33.72,66.83Zm-7.26-18.7a.73.73,0,0,0-.18-.11s0,0-.06.07l.14.08Zm8.35,19.75a.33.33,0,0,0,0,.1s0,0,0,0a.36.36,0,0,0,0-.1S34.84,67.9,34.81,67.88ZM35.4,8.22l-.09.06s0,.06.07.05,0,0,.08-.06ZM19.52,47.52c-.06,0-.09,0-.12,0s0,0-.06.08.06,0,.09,0S19.48,47.56,19.52,47.52ZM7.49,5.45c-.08,0-.14,0-.15,0s0,.1-.08.14ZM21.15,47.31l.11-.12s-.07-.06-.09,0a.16.16,0,0,0-.09.09S21.11,47.27,21.15,47.31Zm11.75-.38c0,.12-.07.16-.06.18a.43.43,0,0,0,.09.1ZM7.61,5.29s.07,0,.08-.07,0-.06,0-.09-.08,0-.1.06Zm22.23,41.9-.05,0-.07,0v0ZM49.4,40.84a.57.57,0,0,0,.1-.13l-.06-.07a.43.43,0,0,0-.09.1S49.38,40.79,49.4,40.84Zm-6-36.3-.06-.12a.52.52,0,0,0-.11.1s.05.09.06.08A.6.6,0,0,0,43.4,4.54ZM7.64,4.33a.21.21,0,0,0-.11,0s0,0,0,0l.09,0S7.62,4.36,7.64,4.33ZM37,71.46l-.1-.08s0,.06,0,.08a.14.14,0,0,0,.08.07S37,71.49,37,71.46ZM28.88,3.83s-.05.08,0,.11,0,.05.06.08S29,4,29,3.94A.48.48,0,0,0,28.88,3.83ZM46.9,41c-.06,0-.1,0-.12,0s-.06.06-.09.09.06,0,.08,0ZM23,2.72l-.14-.12s0,.09,0,.11.07.07.1.1Zm-9.39-.05s.07-.07.06-.09a.09.09,0,0,0-.07-.06s-.06,0-.1,0ZM36.94,73.94a.76.76,0,0,0-.08.15s0,0,.06,0A.43.43,0,0,0,37,74S37,74,36.94,73.94ZM15.25,2.32l0,0-.07.18,0,0Zm31.64-.08c0-.11,0-.17,0-.17A1,1,0,0,0,46.71,2Zm-31.47,41-.12-.1s-.05.07,0,.08a.32.32,0,0,0,.1.1Zm33.11.19v-.06h0a.15.15,0,0,0,0,.07Z" transform="translate(-2.03 -0.27)"/><path d="M32.53,73.23c-.22.33-.27.3-.49,0s-.29-.49-.64-.32c0,0-.17-.12-.19-.2a.56.56,0,0,0-.55-.41.68.68,0,0,0-.22.12c-.11.07-.2.29-.36.05a.24.24,0,0,0-.19,0,.93.93,0,0,0,.2,1.21l.13.12c-.29.19-.37.71-.89.52a3,3,0,0,0,.33-.42,1,1,0,0,0,.08-.35c-.08,0-.17.08-.24.06a.79.79,0,0,1-.25-.17s0-.07,0-.07c.31-.14,0-.35.07-.53s0-.31,0-.46.28-.28-.1-.2c0,0,0-.12,0-.13s.28-.31.43-.33a1,1,0,0,1,.64.16c.22.16.29.17.45-.24,0,.63.43.45.58.36s.34.1.33.16c0,.35.19.24.38.19a3.16,3.16,0,0,1,.32,0l-.06.32s0,.12,0,.16a4.29,4.29,0,0,0,.28.35Z" transform="translate(-2.03 -0.27)"/><path d="M51.45,42.89c.13,0,.33-.06.37-.14.13-.28.38-.26.61-.32s.36,0,.44.21.39.06.54.06c.35,0,.26.15.21.32s-.09.15-.08.21a.68.68,0,0,0,.12.22.76.76,0,0,0,.09-.18c0-.2,0-.2.48-.33l-.8,1.29-.59-.56.27-.29-.1-.06-.15.36c0,.1-.11.26-.08.29.31.24.06.48,0,.71A.54.54,0,0,1,52,45c-.08-.09,0-.31-.05-.46a1.41,1.41,0,0,1,.29,0l.4.09a1.29,1.29,0,0,0,.06-.47c0-.09-.21-.14-.35-.22.45-.27-.14-.55-.05-.86-.07,0-.19,0-.22,0-.33.36-.43,0-.58-.18Zm1-.17,0,.11.28,0v-.07Z" transform="translate(-2.03 -0.27)"/><path d="M34.28,73.81l.12.12.24.3c0,.06.13.11.13.17s-.09.11-.15.14-.26.1-.37.17-.09.14-.13.21a.84.84,0,0,0,.25.09,1.71,1.71,0,0,0,.31,0,1,1,0,0,1-.07.31c-.1.17-.35.44-.32.47.25.26-.09.27-.17.39,0-.25,0-.49-.06-.73a.24.24,0,0,0-.16-.13c-.15,0-.31,0-.51,0a5,5,0,0,1,.41-.48,3.7,3.7,0,0,1,.43-.25C34,74.24,34,74,34.28,73.81Z" transform="translate(-2.03 -0.27)"/><path d="M32.69,75.18a.94.94,0,0,1,0,.29s-.15.12-.18.1a2.8,2.8,0,0,1-.45-.39,6.32,6.32,0,0,1-.4-.54c.13-.07.33-.25.5-.23a3.42,3.42,0,0,1,1,.33c.3.15.2.32-.09.38C33,75.15,32.83,75.16,32.69,75.18Z" transform="translate(-2.03 -0.27)"/><path d="M31.16,74.48l-.2.3a1.84,1.84,0,0,0-.22-.17c-.06,0,0-.43-.22-.09,0,0-.26,0-.35-.07s0-.21,0-.31.16,0,.23,0c.33-.19.4.32.68.26C31.12,74.38,31.14,74.44,31.16,74.48Z" transform="translate(-2.03 -0.27)"/><path d="M4.44,1.92a1.62,1.62,0,0,1-.06-.37c0-.13,0-.35.11-.38a.82.82,0,0,1,.46,0s0,.21,0,.25A4.79,4.79,0,0,1,4.44,1.92Z" transform="translate(-2.03 -0.27)"/><path d="M32.79,71.79a6.08,6.08,0,0,1,.61.33.69.69,0,0,1-.13.31,2,2,0,0,1-.3.28l0,0C33.12,72.33,32.64,72.15,32.79,71.79Z" transform="translate(-2.03 -0.27)"/><path d="M31.83,71a.5.5,0,0,1-.61.61s-.06-.19,0-.27c.1-.34.45-.21.66-.34Z" transform="translate(-2.03 -0.27)"/><path d="M33,73.75l.11,0,.45-.16c0,.12,0,.25-.09.38s-.1.17-.15.26c-.1-.11-.22-.2-.32-.32s0-.1,0-.15Z" transform="translate(-2.03 -0.27)"/><path d="M19.57,9.11h.05a4,4,0,0,1-.41.51c-.06.05-.21,0-.31,0s.07-.22.15-.27A2.78,2.78,0,0,1,19.57,9.11Z" transform="translate(-2.03 -0.27)"/><path d="M31.2,74l-.34-.53a.58.58,0,0,1,0-.14.57.57,0,0,1,.18,0s0,.1,0,.12C31.34,73.62,31.34,73.61,31.2,74Z" transform="translate(-2.03 -0.27)"/><path d="M23.55,48.76l.1-.08c.05.06.1.16.16.18s.19,0,.23.18h0l-.35.25C23.61,49.16,23.3,49.07,23.55,48.76Z" transform="translate(-2.03 -0.27)"/><path d="M13.49,43.82l.07.55-.65,0,.59-.51Z" transform="translate(-2.03 -0.27)"/><path d="M6.13,2.47a1.5,1.5,0,0,1,0-.43c0-.07.14-.13.23-.15A.21.21,0,0,1,6.55,2a.46.46,0,0,1-.11.22C6.35,2.29,6.25,2.37,6.13,2.47Z" transform="translate(-2.03 -0.27)"/><path d="M33.88,72.89c-.1.06-.2.14-.22.12s-.2-.16-.2-.24.11-.19.18-.29Z" transform="translate(-2.03 -0.27)"/><path d="M49,46.38l.23-.47.27.24-.38.32Z" transform="translate(-2.03 -0.27)"/><path d="M33.7,76.39a1.45,1.45,0,0,1-.26.11s-.08-.08-.11-.12,0,0,0-.07l-.18-.3a1.07,1.07,0,0,0,.23.2,1.74,1.74,0,0,0,.34.05Z" transform="translate(-2.03 -0.27)"/><path d="M10.21,8.31c0,.34-.26.48-.58.34.34.07,0-.53.43-.4h0l0,.18.14-.09Z" transform="translate(-2.03 -0.27)"/><path d="M51.79,46.1a1.61,1.61,0,0,1-.29-.3.51.51,0,0,1,.14-.18c.15.09.29.2.43.3Z" transform="translate(-2.03 -0.27)"/><path d="M7.88,7.51l-.43.33c.14-.18-.29-.38.09-.53.21-.09.31,0,.33.22Z" transform="translate(-2.03 -0.27)"/><path d="M32.1,70.56l-.27.43h0c-.07-.11-.23-.27-.2-.33a.27.27,0,0,1,.46-.1Z" transform="translate(-2.03 -0.27)"/><path d="M6.44,6.83c0,.09,0,.21,0,.26a1.48,1.48,0,0,1-.32.21L6,7l.45-.16Z" transform="translate(-2.03 -0.27)"/><path d="M51.69,44.41c0-.06-.12-.12-.11-.14a.7.7,0,0,1,.19-.3s.18.08.27.13Z" transform="translate(-2.03 -0.27)"/><path d="M16.58,41.49c-.08-.08-.18-.16-.26-.25s0-.08,0-.12l.23.14.12.06c.08,0,0-.34.17-.08,0,0-.16.15-.24.23Z" transform="translate(-2.03 -0.27)"/><path d="M3,5.66c0,.09-.07.18-.11.27a2.44,2.44,0,0,1-.1.24c0-.06-.16-.13-.16-.18a.39.39,0,0,1,.15-.26c.05-.05.15-.05.23-.06Z" transform="translate(-2.03 -0.27)"/><path d="M28.69,72.86c0-.18-.06-.3-.08-.42s0-.13.05-.14a1.23,1.23,0,0,1,.27,0,1.06,1.06,0,0,0-.1.12C28.78,72.54,28.75,72.67,28.69,72.86Z" transform="translate(-2.03 -0.27)"/><path d="M52.32,41.85a3.92,3.92,0,0,1,.1-.5c0-.05.17-.05.25-.08a.43.43,0,0,1,0,.2A3.73,3.73,0,0,1,52.32,41.85Z" transform="translate(-2.03 -0.27)"/><path d="M4,5.35c.06.15.12.22.11.27A1.12,1.12,0,0,1,4,5.9c0-.05-.13-.1-.13-.14S4,5.54,4,5.35Z" transform="translate(-2.03 -0.27)"/><path d="M14.5,8.68l-.09.42L14.17,9l.22-.33Z" transform="translate(-2.03 -0.27)"/><path d="M45.8,46a.22.22,0,0,1,0,.11l-.25.26s-.11-.08-.1-.09l.22-.35h0l.17.09Z" transform="translate(-2.03 -0.27)"/><path d="M48.47,45.57c0,.38,0,.38-.35.48l.36-.48Z" transform="translate(-2.03 -0.27)"/><path d="M3.45,7,4,7C3.87,7.31,3.82,7.31,3.45,7Z" transform="translate(-2.03 -0.27)"/><path d="M2,6.23A2.43,2.43,0,0,1,2.32,6s.09.06.14.09l-.33.28Z" transform="translate(-2.03 -0.27)"/><path d="M5.21,6.94s-.1,0-.13,0-.17.16-.25.23,0-.15.07-.23c.06-.26.2-.11.31,0Z" transform="translate(-2.03 -0.27)"/><path d="M53.45,42.45l.33-.44.09.07-.31.45Z" transform="translate(-2.03 -0.27)"/><path d="M14.1,45.81l-.32.3s-.06,0-.09,0l.29-.35Z" transform="translate(-2.03 -0.27)"/><path d="M14.13,45c-.1,0-.2,0-.3,0a.79.79,0,0,1-.22,0s0-.15.06-.16a.45.45,0,0,1,.23,0,1.27,1.27,0,0,1,.23.12Z" transform="translate(-2.03 -0.27)"/><path d="M29.61,71l-.13-.17a1.19,1.19,0,0,1,.25-.13s.07.08.11.13Z" transform="translate(-2.03 -0.27)"/><path d="M5.6,1.79,5.4,2l-.15-.22s.08-.08.12-.07A1.29,1.29,0,0,1,5.6,1.79Z" transform="translate(-2.03 -0.27)"/><path d="M6.75,7.7l-.23.19a2.81,2.81,0,0,1,0-.29s.06-.06.1-.1l.14.21Z" transform="translate(-2.03 -0.27)"/><path d="M38.18,70.49l-.18.15c0-.06-.11-.12-.11-.17s.07-.11.11-.16Z" transform="translate(-2.03 -0.27)"/><path d="M13.21,45.28l-.4-.23,0-.07.42.17Z" transform="translate(-2.03 -0.27)"/><path d="M53.14,42l-.23.21s-.09-.1-.08-.11S53,42,53,41.93Z" transform="translate(-2.03 -0.27)"/><path d="M38.39,69.7l.11-.29.09,0-.13.27Z" transform="translate(-2.03 -0.27)"/><path d="M17.39,41l.29.09s0,.06,0,.09l-.33,0Z" transform="translate(-2.03 -0.27)"/><path d="M48.48,45.57l.43-.28h0l-.43.29Z" transform="translate(-2.03 -0.27)"/><path d="M2.89,4.08l.35.18-.06.12-.36-.21Z" transform="translate(-2.03 -0.27)"/><path d="M38.38,68.65s.1.09.09.1a1.18,1.18,0,0,1-.11.19s-.07,0-.07-.06A1.78,1.78,0,0,1,38.38,68.65Z" transform="translate(-2.03 -0.27)"/><path d="M5.45,3l-.23.28,0-.45L5.44,3Z" transform="translate(-2.03 -0.27)"/><path d="M51.93,43.94c0-.07-.11-.12-.11-.16s.06-.09.1-.14.11.08.13.14S52,43.87,51.93,43.94Z" transform="translate(-2.03 -0.27)"/><path d="M29.66,69.1l.12.4-.1,0-.1-.4Z" transform="translate(-2.03 -0.27)"/><path d="M5.44,3,5.7,3s0,0,.13.07l-.31.19A2.17,2.17,0,0,0,5.45,3Z" transform="translate(-2.03 -0.27)"/><path d="M32.79,73.37l.22.38h0c-.19.06-.25,0-.22-.38Z" transform="translate(-2.03 -0.27)"/><path d="M3.77,6.07l-.3.19-.06-.09L3.73,6Z" transform="translate(-2.03 -0.27)"/><path d="M38.41,70.12s-.11.06-.13,0a.19.19,0,0,1-.07-.12.59.59,0,0,1,.08-.11Z" transform="translate(-2.03 -0.27)"/><path d="M11.38,8.7l.1.11a.33.33,0,0,1-.12.14s-.08,0-.12,0Z" transform="translate(-2.03 -0.27)"/><path d="M28.15,10.05l.11-.28.1,0-.09.29Z" transform="translate(-2.03 -0.27)"/><path d="M14.78,42.2a1.8,1.8,0,0,1-.14-.22l.08-.07a.41.41,0,0,1,.14.12S14.82,42.11,14.78,42.2Z" transform="translate(-2.03 -0.27)"/><path d="M7.21,2.21h.07a2.28,2.28,0,0,1,0,.26l-.1,0Z" transform="translate(-2.03 -0.27)"/><path d="M7,2.93l-.11-.1L7,2.68s.08,0,.11.08Z" transform="translate(-2.03 -0.27)"/><path d="M10.82,8.72a.61.61,0,0,1-.1-.14s.09-.08.1-.07a.93.93,0,0,1,.15.13Z" transform="translate(-2.03 -0.27)"/><path d="M14.54,48.55l-.18-.12.19-.1,0,.23Z" transform="translate(-2.03 -0.27)"/><path d="M29.07,74.14l-.05.24H29v-.24Z" transform="translate(-2.03 -0.27)"/><path d="M48.5,38.66l-.12.29-.1-.05c0-.1.09-.19.14-.29Z" transform="translate(-2.03 -0.27)"/><path d="M4.38,3.44a1,1,0,0,1,.12.22s-.07.06-.1.1a.94.94,0,0,1-.06-.15S4.35,3.54,4.38,3.44Z" transform="translate(-2.03 -0.27)"/><path d="M5.72,7.05a.42.42,0,0,1,.08.14.16.16,0,0,1-.11.07s-.09-.06-.08-.09S5.66,7.1,5.72,7.05Z" transform="translate(-2.03 -0.27)"/><path d="M15.67,49.94v-.26h.08l0,.26Z" transform="translate(-2.03 -0.27)"/><path d="M4.65,2.25c0-.07-.09-.12-.08-.16s.06-.08.1-.1.1.07.1.08S4.7,2.17,4.65,2.25Z" transform="translate(-2.03 -0.27)"/><path d="M37.55,9.58v.09l-.12.14s-.06,0-.1,0Z" transform="translate(-2.03 -0.27)"/><path d="M22.59,10.18l.07-.29.08,0-.06.28Z" transform="translate(-2.03 -0.27)"/><path d="M35.51,10V9.75h.06c0,.07,0,.13,0,.19Z" transform="translate(-2.03 -0.27)"/><path d="M33.25,71.46l-.06.1s0-.06,0-.08a1,1,0,0,1,0-.1Z" transform="translate(-2.03 -0.27)"/><path d="M16.56,9.21v.21a.25.25,0,0,1-.08-.21Z" transform="translate(-2.03 -0.27)"/><path d="M51.07,45.48l-.12.24-.07,0,.11-.25Z" transform="translate(-2.03 -0.27)"/><path d="M50.25,45.31c0,.06.1.1.09.12s-.06.08-.09.11-.09-.06-.1-.11S50.2,45.37,50.25,45.31Z" transform="translate(-2.03 -0.27)"/><path d="M15,48.85l-.21.19a1,1,0,0,1,0-.14s0-.08.06-.08A.52.52,0,0,1,15,48.85Z" transform="translate(-2.03 -0.27)"/><path d="M4.3,7.07a.88.88,0,0,1,.1.21s-.06,0-.09.08a.52.52,0,0,1-.06-.13A.8.8,0,0,1,4.3,7.07Z" transform="translate(-2.03 -0.27)"/><path d="M36.54,32.53l-.27.08v-.12l.28,0Z" transform="translate(-2.03 -0.27)"/><path d="M49.69,39.23l-.1-.12a.31.31,0,0,1,.12,0,.65.65,0,0,1,.13,0Z" transform="translate(-2.03 -0.27)"/><path d="M16.91,42.24c0-.05,0-.1,0-.12s.05,0,.08-.06,0,.07,0,.1S17,42.21,16.91,42.24Z" transform="translate(-2.03 -0.27)"/><path d="M32.8,73.36l-.27-.14v0c.09-.11.09-.11.25.13Z" transform="translate(-2.03 -0.27)"/><path d="M49.74,46.34l-.07-.23.08,0,.06.23Z" transform="translate(-2.03 -0.27)"/><path d="M47.77,46.58a.62.62,0,0,1-.18.06s-.08,0-.07-.06a.83.83,0,0,1,.08-.12Z" transform="translate(-2.03 -0.27)"/><path d="M18,9.11,18.08,9a1.6,1.6,0,0,1,0,.23l-.08,0Z" transform="translate(-2.03 -0.27)"/><path d="M35.51,10l.07-.05.14-.09v.07Z" transform="translate(-2.03 -0.27)"/><path d="M20.64,9.86l.14.09s-.05.08-.07.08a.2.2,0,0,1-.1-.08S20.62,9.89,20.64,9.86Z" transform="translate(-2.03 -0.27)"/><path d="M14.53,48.56l.12.2-.06,0-.05-.23Z" transform="translate(-2.03 -0.27)"/><path d="M15.37,49.24l-.12.22-.06,0,.11-.25Z" transform="translate(-2.03 -0.27)"/><path d="M20,50.12l.14.23Z" transform="translate(-2.03 -0.27)"/><path d="M12.78,44.45a1.34,1.34,0,0,1,.06.12s-.05,0-.06,0l-.1-.1Z" transform="translate(-2.03 -0.27)"/><path d="M16.56,48.89l-.09.07s0-.05,0-.08,0,0,.06-.07Z" transform="translate(-2.03 -0.27)"/><path d="M13.27,9.16l.13.06a.6.6,0,0,1-.11.06s0,0-.08,0Z" transform="translate(-2.03 -0.27)"/><path d="M10.7,8.86l-.07,0-.09-.14h.07Z" transform="translate(-2.03 -0.27)"/><path d="M39.8,68.27s0,0,0-.06,0,0,.05,0,0,.06,0,.08S39.82,68.26,39.8,68.27Z" transform="translate(-2.03 -0.27)"/><path d="M4.65,7.16a.37.37,0,0,1,0,.11s-.05,0-.08,0,0,0,0,0Z" transform="translate(-2.03 -0.27)"/><path d="M50.5,46.16c0,.12,0,.16,0,.21s0,0-.06,0a.35.35,0,0,1,0-.11S50.45,46.25,50.5,46.16Z" transform="translate(-2.03 -0.27)"/><path d="M17.15,40.9s0,0,0,0l-.11,0,.06,0A.19.19,0,0,1,17.15,40.9Z" transform="translate(-2.03 -0.27)"/><path d="M32.11,71.72s0,0,.06,0a.09.09,0,0,1,0,0l0,0A.19.19,0,0,1,32.11,71.72Z" transform="translate(-2.03 -0.27)"/><path d="M45.89,45.88H46L45.8,46h0Z" transform="translate(-2.03 -0.27)"/><path d="M49.75,3.42s0,.07-.07.08,0,0-.07,0l.07-.09Z" transform="translate(-2.03 -0.27)"/><path d="M30.78,72.64s.07,0,.07,0a.36.36,0,0,1,0,.1s-.07,0-.07,0A.44.44,0,0,1,30.78,72.64Z" transform="translate(-2.03 -0.27)"/><path d="M13.54,45.55c-.08,0-.12,0-.14,0a.48.48,0,0,1-.09-.11s.07,0,.09,0S13.47,45.49,13.54,45.55Z" transform="translate(-2.03 -0.27)"/><path d="M32.52,76.45l-.09.06s-.06-.06-.09-.1l.1,0S32.49,76.42,32.52,76.45Z" transform="translate(-2.03 -0.27)"/><path d="M35.3,68.35l.36-.2-.1.3-.26-.1Z" transform="translate(-2.03 -0.27)"/><path d="M51.46,41.41l.06.1-.1.05s-.05-.06,0-.08S51.43,41.44,51.46,41.41Z" transform="translate(-2.03 -0.27)"/><path d="M9.91,2.59l-.21.14,0-.14h.24Z" transform="translate(-2.03 -0.27)"/><path d="M9.83,3.15,9.66,3Z" transform="translate(-2.03 -0.27)"/></g></g></svg>