<svg xmlns="http://www.w3.org/2000/svg" viewBox="0 0 61.27 76.88"><title>xxiv-six-black</title><g id="Layer_2" data-name="Layer 2"><g id="Layer_3" data-name="Layer 3"><path d="M27.27,8.19a2.37,2.37,0,0,1-.58-.45c-.06-.09,0-.36.14-.48s.23-.22.05-.48,0-.58,0-.88c0,0,.07,0,.11,0v.22h.08a1.86,1.86,0,0,1,0-.41c0-.2,0-.49.29-.54h0l.44-.43h0l.23.39L28.14,5l.2-.26c.28-.46.26-.56-.13-.63.06-.15.12-.29.15-.35.3,0,.69.14.82,0a2.5,2.5,0,0,0,.35-.88c-.16,0-.16-.06-.18-.27s-.13-.11-.17-.18-.14-.24-.11-.3c.19-.33,0-.49-.25-.63h0c.55-.14.08-.46.12-.7v0h1.16C30.05.87,30,1,30,1c-.45.13-.08.52-.24.74l.36-.1a2,2,0,0,0,.25-.14l0,.27-.13.36.13,0V1.75c.12.06.33.11.33.16a.7.7,0,0,1-.14.48c-.17.16-.18.21,0,.32a1.16,1.16,0,0,1,.28.3s.13.23.15.22c.24,0,.24,0,.24-.33l.5.17h0c.12.2.08.53.41.59h0c-.28.47.11.85.18,1.28,0,.05.12.13.16.11.34-.13.23.15.25.28s-.18.48.25.3c0,.07.07.14.06.21a3.17,3.17,0,0,1-.14.4c0,.06-.08.12-.07.17s.1.34.12.52a2.15,2.15,0,0,1-.29.1c-.38.16-.82.22-1,.66l-.14-.29c.09-.44-.12-.6-.53-.54l0-.6c-.3.36-.51.64-.75.88s-.66.59-1,.89c-.13.14-.2.35-.34.46-.39.32-.39.4,0,.62,0-.09,0-.26,0-.31.24-.2.52-.37.78-.55a2.52,2.52,0,0,1-.28.48,3.42,3.42,0,0,0-.16.63c.48-.14.16.22.19.33s-.44.34.1.45c.23,0,.2.18.3,0s.12-.13.18-.19a1,1,0,0,0,0,.24.8.8,0,0,0,.14.24.24.24,0,0,0,.19-.05,6.55,6.55,0,0,0,.65-.64c.06-.07,0-.21.06-.32l-.25.06a1.66,1.66,0,0,1-.22,0,1.41,1.41,0,0,1,0-.21A3.1,3.1,0,0,1,31,8.49c.2-.26.1-.33-.12-.42h0l.6-.69v.43l-.26.36.15.07.12-.38s0,0,0,0c.49.24.49.24,1-.37.14.08.26.16.39.22s.35.1.11.34a1,1,0,0,0-.23.53l.34-.28.06.06-1,1.18h.89a9.8,9.8,0,0,1-.65,1,4.13,4.13,0,0,1-.65.6c-.14.12-.18.15,0,.27a3.5,3.5,0,0,1,.78.61.48.48,0,0,1,.08.34,4.82,4.82,0,0,1-.27,1.15c-.4.89-.54,1.86-.86,2.78-.19.51-.48,1-.65,1.48,0,.14-.2.62-.64.39-.05,0-.15,0-.23.06.09.1.19.3.26.29.49-.06.21.14.15.33-.11.42-.14.86-.26,1.28a3.53,3.53,0,0,1-.49,1.1A10,10,0,0,0,29,22.78c-.12.21-.29.39-.39.61s-.2.61-.32.91-.21.46-.31.7-.05.27-.13.35a.76.76,0,0,1-.44.28.69.69,0,0,1-.4-.27.34.34,0,0,0-.61.05,1.64,1.64,0,0,0-.14.3,1.27,1.27,0,0,0,0,.28,1.64,1.64,0,0,0,.23,0c.18-.07.34-.12.32.18,0,0,0,.1.05.1.45-.13.23.43.4.44a4.44,4.44,0,0,1-.19.55c-.25.54-.52,1.07-.78,1.6-.05.09-.14.19-.12.25.12.34-.2.54-.23.8a2.07,2.07,0,0,1-.45.93c-.12.17.06.52-.29.62.25.41-.08.6-.3.83a.22.22,0,0,0,0,.12,1,1,0,0,0,.24,0c.41-.1.79-.39,1.25-.08.16.11.43,0,.64,0H28l.12-.2a1.48,1.48,0,0,1,.1.27,1.85,1.85,0,0,0,.95.71c.26,0,.26,0,.53.23a.45.45,0,0,0,.62-.06l.35.32.31-.35s0,0,0,0l.09.55.52-.39h0c.08.16.12.38.25.48s.29-.12.45-.18h0a2.55,2.55,0,0,1,.43.23c.25.18.46.42.83.21.08,0,.29.15.46.24.09-.58-.48-.83-.65-1.28a2.09,2.09,0,0,1,.94,1.41c.13-.36,0-.8.48-.65,0,.16,0,.32,0,.47h.1c0-.14,0-.27-.08-.41a.1.1,0,0,0,0-.07,1.34,1.34,0,0,1,1.58,0,2.15,2.15,0,0,0,.71.07c.13,0,.25.23.4.36l.13-.33c.3.35.56.64,1.08.4.19-.09.42.12.45.42l.13-.31c.08.39.32.41.6.33a.41.41,0,0,1,.19,0l.49.34c.08-.24.2.49.27,0l.42.28.17.14c0-.06-.07-.13-.06-.19a.76.76,0,0,1,.12-.19.71.71,0,0,1,.1.14c.07.17.11.34.19.5s.16,0,.25,0l.46-.05-.07.37,1.18.11,0-.12a2.67,2.67,0,0,0,.21.62c0,.06.22,0,.34.07,0-.25.16-.21.25-.17s0,.2.06.29c.33-.16.45-.1.85.53V37a2.39,2.39,0,0,1,.27.67.67.67,0,0,0,.42.66.42.42,0,0,1-.05.26c-.26.07-.48.14-.3.49,0,0-.08.15-.13.25a1.58,1.58,0,0,0,.55-.14c.13-.1.18-.31.28-.45s.18-.24.25-.23c.56.06.72.25.79.81l0-.65a1.13,1.13,0,0,0,.65.62.74.74,0,0,0,.81-.23c.16.12-.1.49.29.41v.39c0,.12,0,.25-.06.25l.39-.15c-.09.2-.14.37.19.35L49.51,40l.23-.11c.15.34.64.49.53,1,0,.06.26.2.41.28s.13,0,.16,0c-.08-.18-.16-.38-.26-.57s-.48-.26,0-.49a.94.94,0,0,0,.73.81h0l0,.27.13-.09h0a.78.78,0,0,1,.2.16c.11.14.2.29.3.42l-.22.14.32.13h0c.07.14.14.28.22.41s.08.07.12.1v-.2c.32,0,.67-.06.93.22-.2.26-.2.26.11.74-.05-.17-.09-.24-.07-.27a1.12,1.12,0,0,1,.18-.2c0,.07.06.13.08.19s.06.14,0,.16c-.3.3,0,.51.22.71a1,1,0,0,1-.11-.35,1.57,1.57,0,0,1,.18-.37,2.56,2.56,0,0,1,.4.22s0,.15,0,.15c.67,0,.22.5.3.72l.36-.14a1,1,0,0,1,0,.34c-.05.24-.18.14-.33.08a.74.74,0,0,0-.32,0c0,.06,0,.17,0,.19s.26.07.46.13a1.54,1.54,0,0,1,.2-.28,2.27,2.27,0,0,1,.22-.22c0,.39,0,.39-.37.6,0,.15,0,.29,0,.43l.14,0L55,44.87c.25.17.49.33.8.13,0,0,.13,0,.14.07a1.27,1.27,0,0,1,0,.34c0,.06-.09.11-.14.16a1.94,1.94,0,0,0,.68.3c.26,0,.46-.2.55.31s0,.85.06,1.27c0,0,.09.11.14.11.27,0,.3.13.18.38a.43.43,0,0,0,0,.35,1.53,1.53,0,0,0,.49.49,1.4,1.4,0,0,0,.58,0s0,.06,0,.12a1.55,1.55,0,0,0-.18.63c0,.1.32.18.51.23s.4.23.3.53a.45.45,0,0,0,0,.23c.08.29.11.52-.33.49-.07,0-.26.3-.22.36a4.16,4.16,0,0,0,.58.69s.13,0,.2,0a1,1,0,0,0-.07-.15c0-.05-.1-.11-.08-.14.08-.21.17-.42.28-.65.16.28-.12.9.49.68l-.52,1,.1,0,.27-.28c.12.12.35.25.34.37s-.19.33-.24.54a1.07,1.07,0,0,1,.22-.15s.12.07.13.12,0,.33,0,.36c.27.14.17.36.19.57a1.77,1.77,0,0,0,.08.31l.15.49c0,.1,0,.26,0,.28.53.27.25.52,0,.79,0,0,.07.11.12.17s.16.13.19.22-.1.12-.14.19a1.43,1.43,0,0,0-.08.22c.3,0,.21.16.22.37s.24.33.38.5c-.17,0-.35,0-.34.32s-.44.57.13.72c0,.1-.06.19-.08.29s0,.33-.05.49L61,60l.08,0,.18-.35.32-.09-.24.33,0,.06c.46.55-.15,1-.09,1.6a5.46,5.46,0,0,1-.2,1.64,3.53,3.53,0,0,1-.47,1.5c-.34.4-.25,1-.74,1.33-.22.15-.27.61-.65.74-.06,0,0,.24-.09.33a12.33,12.33,0,0,1-1.94,2.2c-.52.48-1.09.89-1.64,1.31a.36.36,0,0,1-.32,0c-.68-.36-1.07.15-1.52.48L52.45,72c-.2.14-.39.3-.59.45l0,0c-.11.06-.26.1-.31.19a2.68,2.68,0,0,1-1.14.86,1.61,1.61,0,0,1-.48.12,4,4,0,0,0-.36.36c-.08.09-.09.29-.17.32s-.31-.1-.42-.06a5.63,5.63,0,0,0-.54.36s-.1,0-.25-.08l.1.46-.18,0c-.08,0-.2.06-.22,0-.2-.23-.29-.22-.43.06a.61.61,0,0,1-.17.19.42.42,0,0,1-.16,0,.32.32,0,0,1,0-.17s.09-.07.12-.11.11-.18.16-.27a2,2,0,0,0-.4-.07s-.06.14-.09.21-.05.18-.08.3l-.17-.37c-.08.22-.09.46-.22.54s-.34,0-.52,0a1.74,1.74,0,0,0-.36.13c0,.06.12.11.12.17s0,.24,0,.28-.34.16-.38.12c-.2-.22-.26-.18-.42,0s-.43.21-.65.31l.33-.63-.12-.06H44.2v.67c-.06,0-.13,0-.16,0-.25.22-.37.14-.42-.16,0,0-.06,0-.06,0a6,6,0,0,1-.81.28s-.14-.28-.23-.42a.74.74,0,0,0-.17-.12c0,.07,0,.14-.05.21a.39.39,0,0,1,0,.13c-.15,0-.39,0-.44,0-.43-.63-.36-.07-.43.17,0,.08-.07.15-.1.23l-.34,0c-.08,0-.18-.1-.23-.07s-.3.2-.46.3c0-.16,0-.32,0-.49a1.46,1.46,0,0,0,0-.2l-.28.2h0c0-.41-.31,0-.43-.17,0,0-.13.1-.15.16-.08.29-.09.29-.34.1,0,0-.11,0-.17,0s0,.15,0,.2c.13.3,0,.35-.26.32a3,3,0,0,0-.78.08c-.17,0-.34.1-.27-.19a.26.26,0,0,0-.15-.05l-.63.16-.11,0c0-.49-.47,0-.61-.26-.05,0-.13,0-.16.1a3,3,0,0,0-.22.44l-.11-.46h0c-.18-.25-.38-.06-.48,0s-.18.25-.34.06a.21.21,0,0,0-.2,0c-.33.24-.48-.08-.45-.25.1-.44-.2-.25-.36-.27a2.57,2.57,0,0,0-.5,0l.33.12a6.28,6.28,0,0,1-.65.31.21.21,0,0,1-.19-.06c-.19-.34-.37-.41-.77-.24.09-.58-.35-.4-.63-.45,0,0,0,.11-.08.16a.32.32,0,0,1-.18.11.9.9,0,0,1-.25-.08c0-.06,0-.16.07-.18s.27-.18.08-.29-.45-.14-.5-.07c-.23.33-.36,0-.49-.06a2.66,2.66,0,0,1-.28-.38l-.34.36a4.44,4.44,0,0,0-.37-.38.56.56,0,0,0-.23-.07c0-.1,0-.19,0-.29h-.13l.11.28a2.62,2.62,0,0,1-.3.28s-.13-.12-.2-.19-.21-.12-.24-.21a4.17,4.17,0,0,1-.09-.51c-.17.08-.39.31-.46-.14,0-.06-.17-.11-.26-.15s0,0-.07,0c-.18-.45-.68-.29-1-.52s-.36-.24-.55,0c0,0-.15,0-.22,0a.45.45,0,0,0,.11-.13c0-.06.07-.17,0-.19-.18-.17-.37-.32-.56-.48.36-.23-.12-.49-.15-.79,0,0-.22-.12-.25-.1a1.73,1.73,0,0,0-.4.5c-.09.25-.1.53-.17.79,0,0-.21.08-.22.07-.25-.42-.39,0-.56.07a1.09,1.09,0,0,0-.26.22,2.4,2.4,0,0,1-.16-.27c-.08-.2-.11-.2-.31,0h0c.06-.17.12-.34.19-.51l.09-.24a.75.75,0,0,1-.15.09s-.08,0-.08,0,0-.23,0-.29.18,0,.26,0a1.77,1.77,0,0,1,.31.15c.11-.44.36-.42.68-.23,0,0,.18-.16.17-.17a1.36,1.36,0,0,0-.39-.46c-.38-.21-.92.15-1.27-.37-.08-.14-.47,0-.71-.11a5.05,5.05,0,0,1-.59-.26c-.2-.08-.43-.26-.39.18,0,.07-.1.15-.15.22s-.11-.11-.13-.17c-.1-.27,0-.63-.46-.73-.07,0-.09-.24-.13-.38l-.06-.22c-.08.07-.22.13-.24.22s.08.4,0,.55c-.16.36-.34.68,0,1-.06,0-.15.16-.16.15s-.32-.21-.31-.27c.08-.28,0-.38-.26-.31,0,0-.11-.07-.16-.1s.09-.12.14-.14c.22-.08.45-.14.73-.23a3.3,3.3,0,0,0-.51-.39c-.25-.12-.41-.26-.39-.56a.79.79,0,0,0-.08-.26.67.67,0,0,0-.2.17c-.19.34-.24-.14-.38-.06a1.85,1.85,0,0,1-.13-.19c-.09.11-.25.21-.25.32,0,.47,0,.94,0,1.5-.27-.21-.45-.44-.66-.1,0,0-.12,0-.18.06s-.05-.18,0-.24a3,3,0,0,1,.24-.37l-.4-.06c0-.28-.2-.31-.38-.4a.37.37,0,0,1-.13-.2c-.05-.15-.07-.08-.29-.17s-.42-.38-.66-.49-.23-.76-.77-.56c0,0-.15-.07-.15-.11,0-.44-.46-.46-.67-.7a1.9,1.9,0,0,1-.26-.37,2.49,2.49,0,0,1-.11-.29,3.08,3.08,0,0,0-.27.24c-.05.05-.05.13-.09.19a.93.93,0,0,1-.13.15l-.09-.22c0-.13-.07-.27-.11-.41l-.26.28c-.06,0-.14.08-.21.13,0-.11,0-.24.05-.31s.32-.28.45-.45.05-.24.07-.36a1,1,0,0,1-.24,0c-.26,0-.22-.27-.3-.41a.71.71,0,0,1,0-.43c.07-.28,0-.39-.29-.36a1.32,1.32,0,0,1-.07-.3c0-.13.07-.34-.2-.2,0-.1-.15-.23-.12-.28.27-.46-.3-.64-.31-1a.67.67,0,0,0-.21.09,2,2,0,0,0-.24.26,2.08,2.08,0,0,1-.26-.42c0-.06.12-.17.19-.25l.17.25,0-.35c.25-.36-.07-.66-.15-1a5.32,5.32,0,0,0-.45-.75c0-.07,0-.21.09-.31s.17-.28.24-.43,0-.13-.05-.19-.09.11-.13.11-.29-.09-.43-.13v-.15l.2-.81h0a3.4,3.4,0,0,0,.21-.56,1,1,0,0,0,0-.37c-.05-.14-.12-.28-.18-.43l-.25.24c-.12-.24-.43-.57-.37-.81s-.55-.71.05-1c0,0,0-.06,0-.07-.41-.25-.05-.4.08-.61.17.26.32.51.49.73,0,0,.22,0,.24,0a.67.67,0,0,0,.09-.41c-.09-.4,0-.88-.41-1.16-.12-.09-.32-.06-.46-.13-.38-.2-.14-.54-.14-.82s.11-.43.45-.34a.35.35,0,0,0,.46-.37.45.45,0,0,0-.28-.32c-.12,0-.27.1-.39.15-.59-.37-.24-.95-.24-1.45a6.38,6.38,0,0,1,.15-1c0-.06-.14-.14-.14-.21,0-.38.08-.76.12-1.14,0,0,.08-.1.07-.12a1.7,1.7,0,0,1-.09-1.17c.11-1,.1-2,.27-3a.93.93,0,0,0,0-.23.73.73,0,0,0-.22.09c-.49.34-.69.26-.79-.42L6.8,46.2a.48.48,0,0,1,0-.16c.09-.52.09-.52-.42-.37.07-.16.15-.32.23-.48s.11-.26.16-.38l-.17,0,0,.42L6.27,45l.12.64.05.32c-.28.12,0-.47-.35-.22h0s0-.07,0-.09l-.23-.43-.21.34h-.1c0-.19,0-.13-.12-.14-.38,0-.52.15-.56.49,0,0-.09.08-.15.12l-.06-.21c0-.12-.08-.23-.11-.34a3.37,3.37,0,0,1-.1.34,1.41,1.41,0,0,1-.21.45c-.08-.31-.27-.59.11-.87.16-.11.21-.37.31-.56l.37,0,0-.13-.35.08c-.12.08-.26.25-.36.22s-.25-.21-.39-.32a.18.18,0,0,0-.14.06c-.16.2-.3.43-.46.63s-.16.45-.51.43c-.17,0-.2.08-.23,0v-.11c0-.1.45.06.17-.27,0,0,.08-.22.13-.34v.27l.11,0-.12-.22-.21-.06h0l.6-.34s.08-.12.11-.18l-.2,0a.92.92,0,0,0-.7.44v0a.65.65,0,0,0-.68-.47c-.05,0-.1-.11-.16-.16s-.18-.21-.28-.23-.48-.18-.58.18-.16.43-.24.65h0a4.89,4.89,0,0,1,0-.54,1.52,1.52,0,0,1,.12-.36l.87-1.81.13,0v.31c.09-.08.16-.19.26-.23s.48-.1.1-.35a.5.5,0,0,1,.14-.32c.25-.18.12-.27-.07-.36L3,41c-.06-.29,0-.28-.4-.08-.2.11-.47.31-.6.24s-.65-.16-.47-.61l.54.1a1.27,1.27,0,0,1,0-.26c.08-.24.09-.24-.21-.27,0,0-.11-.11-.09-.14A1.23,1.23,0,0,1,2,39.62,3,3,0,0,1,2.62,39c.12-.06.35.08.55.13-.23-.28-.36-.62.09-.85.07,0,.22.1.35.16.23-.29.41-.67.86-.83.22-.07.37-.32.57-.47,0,0,.17-.09.2-.06s.24.22.37,0,.37-.28.06-.53c-.16-.13.18-.72.41-.78a3.78,3.78,0,0,0,.69-.26,1.31,1.31,0,0,0,.16-.3c.1-.27.21-.31.44-.16,0,0,.15.08.18.06.19-.14.37-.29.55-.45l.45-.41c.09-.07.19-.12.27-.19s.13-.31.26,0c0,0,.1.05.11,0,.18-.15.34-.31.52-.48.06.08.07.28.28.06a.89.89,0,0,1,.75-.26c.22,0,.46-.28.71-.45.08.2.21.25.37,0,0,0,.16,0,.16,0,.09.23.17.27.25,0,0,0,.1,0,.15,0,.77,0,.82,0,1.11-.78a2,2,0,0,1,.24-.35c0-.06.11-.14.1-.17-.16-.37.11-.61.24-.89s.18-.46.28-.68.32-.63.46-1c.2-.48.35-1,.59-1.45a7.57,7.57,0,0,1,.62-.78.93.93,0,0,0,.09-.45,1,1,0,0,1,.59-1s.07-.1.05-.13c-.16-.33.18-.37.29-.55s0-.31,0-.47l.23.11L17.19,24a6.72,6.72,0,0,1,.28-.67s.14,0,.22,0,0,0,0,.06a.31.31,0,0,1,.05-.1c.16-.27.32-.54.49-.8a1.24,1.24,0,0,1,.21-.18,1.25,1.25,0,0,1,.07.26,1,1,0,0,1-.08.38c-.1.22-.29.46.2.35-.07.33-.57.45-.28.85-.17,0-.28.39-.51.08a.18.18,0,0,0-.11.08,1.68,1.68,0,0,0-.09.32c-.05.27.28.56,0,.84a.44.44,0,0,0,.1.11.16.16,0,0,0,.15,0,1.82,1.82,0,0,0,.27-.67.83.83,0,0,1,.28-.64,1.22,1.22,0,0,0,.12-.19c0-.07,0-.16.06-.22a1.31,1.31,0,0,0,.23-1.1c0-.08.1-.26.15-.26.4,0,.41-.19.26-.49a.84.84,0,0,1,0-.32c0-.12,0-.24,0-.44l-.64.86c-.14-.18-.11-.16.05-.54a1.61,1.61,0,0,0,0-.58c.1,0,.24.06.28,0,.22-.3.24-.45.11-.57s-.05-.09-.08-.13c.32-.05.13-.31.21-.45a10.84,10.84,0,0,1,.69-1,.56.56,0,0,0,.07-.18c.06-.24,0-.58.4-.57,0,0,0-.09.05-.14l.09-.09.11-.1c-.29-.5.13-.7.37-1s.72-.78.7-1.37c0,0,.09-.08.11-.13a2.22,2.22,0,0,0,.12-.39c0-.09-.17-.35.16-.19,0-.1.13-.2.12-.3,0-.47,0-.48.4-.38a.7.7,0,0,0,.32,0c.15,0,.36-.16.26.18l.4.15a1.63,1.63,0,0,1,.39.13c.24.18.44.19.57-.12a.74.74,0,0,1,.56-.49.62.62,0,0,0,.42-.78h0l.23-.28c-.1-.08-.19-.2-.3-.21-.28,0-.52,0-.49-.42-.12,0-.08-.4-.3-.11-.07-.07-.16-.13-.19-.22a.28.28,0,0,1,0-.24.9.9,0,0,1,.39-.1c.06,0,.12.12.19.13a2.56,2.56,0,0,0,.39,0l-.28-.21c-.05,0-.14-.06-.14-.09,0-.38-.21-.34-.47-.25a.2.2,0,0,1-.14,0,.76.76,0,0,1,0-.3c.05-.12.16-.21.21-.32a.49.49,0,0,0,0-.21c-.05,0-.11.08-.16.08a1.38,1.38,0,0,1-.27-.08c.3-.28,0-.9.59-1h0v.36c.13-.08.32-.13.37-.25.16-.39.28-.8.4-1.2,0-.1.05-.19.07-.29s.06-.12.22-.06c.44.16.68.68,1.21.62a.5.5,0,0,0,.17-.1c0-.11,0-.21.07-.32L27,7.78c.05.08.1.17.16.25A1.83,1.83,0,0,0,27.27,8.19ZM11.55,59l-.09.29h.12l0-.3a.39.39,0,0,0,0-.15.57.57,0,0,0-.1-.13ZM4.28,43.36l-.22.2.08.09.18-.25.23-.16L4.37,43Zm37,6.27.16-.23-.16,0v.28l-.28.14c-.26.23-.52.11-.77,0-.08,0-.13-.14-.19-.21v.34S40,50,40,50l-.24.38c0-.18,0-.23,0-.28s0-.27,0-.4l-.42.11a.84.84,0,0,1-.37.09,3,3,0,0,1-.53-.22,3.31,3.31,0,0,0,.36-.14,2,2,0,0,0,.3-.21L38.71,49l.38-.3a.67.67,0,0,0,.08-.17c-.06,0-.14-.06-.18,0-.21.11-.4.23-.64.37,0-.37-.11-.39-.37-.24-.06,0-.15.07-.19,0a.5.5,0,0,0-.59.06,2.34,2.34,0,0,1-.25-.15.84.84,0,0,1-.11-.21l.16-.18,0,0-.11.25c-.11,0-.25-.14-.31-.1-.22.14-.64.12-.68-.11-.08-.42-.56-.3-.71-.6l-.13.07c-.24.18-.24.18-.32-.14l.36-.23L35,47.18l-.43.17,0,.14-.52.53a6.56,6.56,0,0,0,.14-.76c0-.06-.1-.14-.17-.2s-.09.07-.15.11l-.35.27v-.52c-.23.2-.48-.36-.73,0-.09.15-.18.09-.21-.13l-.18-.27-.1.1.3.17c-.25,0-.49-.28-.75,0,0,0-.05,0-.08,0h0a.4.4,0,0,0-.07-.13s-.19.35-.13,0-.35-.31-.45-.54c0,.06-.11.11-.1.16a1.8,1.8,0,0,0,.08.39c-.15-.36-.32-.24-.51-.06l-.14.07,0-.59c-.09,0-.27-.06-.33,0-.34.37-.31,0-.41-.18a1.3,1.3,0,0,1-.14-.26l-.27.26-.22-.13-.06.1.27,0L29,46l-.37.16c.25.26-.05.1-.1.13a1.17,1.17,0,0,1-.09-.24c-.06-.25.36-.59-.16-.75a.16.16,0,0,1-.07-.09c-.14-.37-.44-.18-.66-.16s-.47,0-.39.35c0,0-.11.09-.18.14l0-.27-.23.11c-.13-.2-.21-.46-.35-.5s-.48-.15-.62.17a1.19,1.19,0,0,1-.21.29L25.42,45l.15,0s0-.12,0-.13h-.22c-.11-.28-.32-.35-.53-.18s-.41,0-.55-.12l-.31.32c-.11-.11-.23-.21-.33-.33a2.17,2.17,0,0,1-.19-.33c-.1.2-.07.47-.16.52a2.38,2.38,0,0,1-.68.15c.24-.44.23-.48-.25-.49h0l0-.39c-.54.59-.85.63-1.14.17a1.64,1.64,0,0,0-.25.44,4.86,4.86,0,0,0-.33,1.55c0,.36-.24.79-.25,1.24s-.25.73-.24,1.16A12.61,12.61,0,0,1,20,50.57c0,.06-.08.11-.11.17s-.1.21-.15.31a1.57,1.57,0,0,1-.2.3,1.18,1.18,0,0,1-.19.11l.16.21c.08.12.22.23.22.35a2.15,2.15,0,0,1-.14.54c0,.07,0,.15-.07.21a2.59,2.59,0,0,0-.37.72,8.89,8.89,0,0,1,0,1.26c-.1.35.18.83.36,1.22a2.45,2.45,0,0,1,.41,1.17c0,.33.32.67.48,1,.34-.38.53-.77.15-1.26l.29.12h0c.08.3.31.53.3.88,0,.11.34.36.43.32.34-.14.39.1.42.29s-.18.18-.27.27v-.3h-.1l0,.4c.35.36.32.69-.08,1.07,0,0,0,.12,0,.18a.18.18,0,0,0,.13,0c.07,0,.12-.12.2-.15a3.39,3.39,0,0,1,.48-.17.51.51,0,0,1,.08.18c0,.18,0,.47.05.53.45.29.08.41-.07.6,0,0,0,.13,0,.2a.27.27,0,0,0,.13,0c.19-.29.35,0,.45.06s.35.15.47-.08l0,.17.16-.19-.21,0a1,1,0,0,1,.12-.17c.07-.08.15-.15.22-.22a2,2,0,0,1,.1.32c0,.14,0,.28,0,.42h.07l.09-.22.26.2-.17.18a3,3,0,0,0-.22.28s0,.06,0,.1l.12-.1,0,.28.15-.07L24,62.09l.06-.3a.8.8,0,0,1,.37.61.53.53,0,0,0,.24.3,2.25,2.25,0,0,0,.45.19l.36-.41a1.87,1.87,0,0,0,0,.59.45.45,0,0,0,.4.11c.46-.34.29,0,.34.25a.71.71,0,0,0,.23.32s.14-.11.22-.13.26,0,.31,0c.21.23.38.49.55.71.07,0,.14-.14.23-.15a2.64,2.64,0,0,1,.48,0l-.09.27.17,0c.32.05.49.51.91.31,0,0,.22.26.34.39a.11.11,0,0,0,.09,0c.13-.22.19-.08.36,0s.5.36.79.09a.27.27,0,0,1,.16,0c0,.27.16.3.39.23.47-.13.78.61,1.3.25l.09.09c.28.3.55.46.92.09a.55.55,0,0,1,.62.08c.08.09.18.34.32,0,0,0,.08,0,.1,0,.27.41.58.29.94.11a.57.57,0,0,1,.51,0c.26.3.42.22.54-.11l.23.25c.35-.31.68.07,1,.11a1.71,1.71,0,0,0,.84-.17c.16,0,.32-.06.37.09s.1,0,.13,0c.25.23.27-.24.35-.14s.53-.18.58.23c0,0,.15,0,.19,0,.39-.3.87.25,1.24-.14,0,0,.09,0,.14.06s.2.06.22,0c.26-.33.81-.13,1-.55h.11c.28.51.25,0,.37-.1a1.52,1.52,0,0,0,.22.22s.09,0,.14,0,0-.07,0-.11,0-.21,0-.34a1.71,1.71,0,0,0,.39.21,1.31,1.31,0,0,0,.39,0,.38.38,0,0,0,.15,0l.47-.43a.2.2,0,0,1,.14.05c.09.16.09.16.19,0s.08-.14.13-.15.31-.36.55-.1c0,0,.18-.07.2-.13.12-.32.28-.22.46-.07l-.24,0,.09.16.15-.13c.09-.1.18-.26.29-.27s.28-.3.5-.15c.07-.21.11-.36.42-.36s.5-.26.71-.44.25-.39.47-.07a.21.21,0,0,0,.13,0,7.53,7.53,0,0,1,.57-.56c.26-.2.58-.32.84-.51s.49-.36.47-.48c-.09-.37.15-.54.31-.79a9.18,9.18,0,0,0,.5-1,.07.07,0,0,1,0,0c.35-.06.18-.23.09-.4s-.24-.39-.19-.49c.18-.32,0-.47-.18-.67s-.26-.29-.41-.47c0,.14-.07.23-.1.32l-.1.18-.17-.23s.1,0,.12,0a.71.71,0,0,0-.17-1s-.18.08-.26.14-.09.11-.14.16l-.17-.18.06-.07-.07-1-.51.26c-.06,0-.11.08-.16.11a1.49,1.49,0,0,1,0-.21,2.35,2.35,0,0,1,0-.26c-.33.07-.14-.16-.14-.26s.06-.4,0-.51a2.08,2.08,0,0,0-.74-.76.39.39,0,0,1-.28-.48c0-.25,0-.42-.33-.47a4.88,4.88,0,0,1-.82-.26l-.19-.07a1.4,1.4,0,0,1,.13-.36,1.63,1.63,0,0,1,.22.07l.18.06a1.29,1.29,0,0,0,0-.21c-.07-.18-.16-.36-.24-.54h0a4.46,4.46,0,0,0,.78.41s.21-.23.28-.37-.1-.22-.15-.22c-.4,0-.55-.25-.65-.56a.42.42,0,0,0-.57-.29c-.11,0-.12.37-.14.58a1.49,1.49,0,0,0,.06.36c-.25-.06-.49-.2-.68-.15s-.46,0-.49-.29a.55.55,0,0,0,0-.17c-.05,0-.13,0-.14.07-.16.36-.3.19-.47,0a1,1,0,0,0-.39-.24c-.05,0-.21.14-.21.16.16.32-.07.44-.25.58L44.29,52c-.19.22-.25,0-.28-.11s0-.34,0-.38c.32-.18.06-.24-.05-.33-.07-.45-.37-.24-.6-.21,0-.1,0-.24-.06-.29a.84.84,0,0,0-.33-.07l0,.21c.19-.09.17.42.42.15.21,0,.28.39.57.25-.11.22,0,.58-.41.61,0,0,0,.12-.07.17a1.29,1.29,0,0,1-.08-.28s.11,0,.18-.08a1.51,1.51,0,0,0,.1-.17s-.05-.06-.08-.09l-.08.21c-.23,0-.41,0-.47-.28s-.23-.19-.39-.08h0c0-.24,0-.51-.34-.58a.51.51,0,0,1,0-.22c0-.12.07-.24.11-.36a1.78,1.78,0,0,0-.46,0c-.05,0-.08.16-.12.24l0,.13a1.49,1.49,0,0,0-.14-.37c0-.06-.17-.11-.21-.08a7.12,7.12,0,0,0-.7.47c.08-.23.17-.45.25-.66C41.16,49.82,41.33,49.91,41.3,49.63ZM13.41,65.85l-.11-.23-.08.25-.06.29.16-.1.36.08Zm38.48-9-.34-.21c.24-.21,0-.39,0-.58l-.16,0,.15.56.3.24.08.26.19-.22ZM26.11,8.93s-.09,0-.12,0l-.24.17.05.09a1.31,1.31,0,0,0,.27-.12s0-.1,0-.16l.17,0-.13-.13ZM12.64,56.84l-.16-.4s-.12.08-.12.1.11.28.17.42l.11.24.1,0ZM24,71.31c.08,0,.15.11.23.14a1.18,1.18,0,0,0,.27,0c0-.07,0-.16,0-.19a.38.38,0,0,0-.24-.14.76.76,0,0,0-.3.12c-.05,0-.14.1-.16.17a.84.84,0,0,0,0,.27c.06,0,.15,0,.18,0a.45.45,0,0,0,.08-.23A.47.47,0,0,0,24,71.31ZM18.17,23.49c-.1,0-.23,0-.28.05s-.07.2-.09.31.06.06.09.1l.27-.46.1-.28h-.11Zm-5,33.5s-.06-.06-.1-.06a.34.34,0,0,0-.14,0l.24.07s-.08,0-.08.09,0,.28-.07.42l.35-.16C13.32,57.22,13.26,57.1,13.19,57Zm32.07-6.52c.05-.32-.19-.07-.27-.13l-.12.52.11,0,.29-.42,0,.43a.58.58,0,0,0,.18-.23l.24-.48Zm3.18-1.18-.09-.44-.19.09.29.34a3.31,3.31,0,0,0,.33.32c.22.18.22.17.3-.16-.32,0-.31,0-.24-.27,0-.05,0-.13-.07-.19a.64.64,0,0,0-.14.08A2.11,2.11,0,0,0,48.44,49.29ZM26,11.18c.25.26.25.26.6.06L26,11.19c.06-.09.16-.18.18-.28a.7.7,0,0,0-.06-.34s-.17,0-.19,0a.89.89,0,0,0-.09.29,1.21,1.21,0,0,0,0,.19l-.06.2ZM58,50c-.29.19,0,.36,0,.53s.14.1.22.15a.85.85,0,0,0,0-.23c-.07-.16-.15-.3-.22-.45s0-.5,0-.75l.16-.2,0-.06-.25.14.15.1-.29.18c-.19.25-.27,0-.4-.08,0-.22-.06-.44-.12-.66a3,3,0,0,0-.18-.41c-.13.07-.33.13-.37.24a.56.56,0,0,0,.13.41,4.4,4.4,0,0,0,.5.46c0,.39.29.17.44.25l-.1.44ZM31.71,5.6l.17.29c.58-.06.12-.49.28-.71a.21.21,0,0,0,0-.19A.15.15,0,0,0,32,4.91s-.08,0-.1.1-.17.37-.26.56-.42.22-.62.35c0,0,0,.14,0,.2s.12,0,.17,0C31.47,6.05,31.71,5.93,31.71,5.6Zm-16,62.94.37-.22c-.28-.23-.55-.39-.88-.15-.08.06-.23.19-.21.22s.2.27.38.13c-.13.41-.08.72.43.77a.21.21,0,0,1,.15.07c.25.36.31-.07.33-.13C16.4,68.86,16.15,68.57,15.71,68.54Zm37.36-12c-.37.06-.51.35-.37.72l.34-.09a1.91,1.91,0,0,1-.16.32c-.15.21-.52.37-.15.71l.55-.66.08.08.29.21.05-.13-.34-.08c0-.12.15-.26.11-.34a4.84,4.84,0,0,0-.38-.71l0-.35-.19,0ZM10.49,53.82c.19,0,.36,0,.46.14s.41-.21.23.16h.09c.35-.09.73-1,.54-1.25,0,0-.16,0-.17,0s0,.2-.08.28-.19.26-.21.25c-.32-.15.13-.5-.17-.67a1.55,1.55,0,0,0,.22-.12,1.5,1.5,0,0,0,.34-.27s0-.15,0-.23l-.28.21a.61.61,0,0,1-.16.12,1.7,1.7,0,0,1-.32.1.67.67,0,0,0,0-.25,2.78,2.78,0,0,0-.26-.34c0,.09-.1.17-.14.26s-.2.43-.29.65-.14.31-.11.33c.25.16.11.38.11.58a2.42,2.42,0,0,0,.1.36l.1,0Zm.09,4.58a2,2,0,0,0,.09.26s.15,0,.15,0a2.68,2.68,0,0,1,0-.4,2.23,2.23,0,0,1,.22-.47c.08-.13.25-.25.26-.39a7.67,7.67,0,0,0-.11-.8c0-.45-.15-.57-.61-.55a.8.8,0,0,0-.22.12c0,.06.08.13.13.18a3.41,3.41,0,0,1,.42.43c.05.07,0,.28,0,.31s-.22.21-.18.45A3,3,0,0,1,10.58,58.4ZM16.5,69.32l-.08.06c.11.1.21.22.32.31s.12,0,.19,0c-.07-.32,0-.2.13-.05a.81.81,0,0,0,.1.09s.07-.1.06-.13c-.08-.28-.18-.56-.27-.83,0-.08-.07-.16-.1-.23s-.38.12-.42.22A1.44,1.44,0,0,0,16.5,69.32ZM29.77,10.41c-.15.08-.19.13-.24.13a1.22,1.22,0,0,1-.27,0l.1-.17s0-.11,0-.11a.21.21,0,0,0-.16,0c-.21.15-.41.32-.72.56l.55-.06c0,.13,0,.29.1.31a3.25,3.25,0,0,0,.54.12ZM12.85,55.54l.1-.1c-.08-.16-.56-.21-.16-.52.06,0,0-.19,0-.29s0-.48,0-.71a.21.21,0,0,0-.18-.11.78.78,0,0,0-.22,0c0,.21.16.52.14.53a.46.46,0,0,0-.24.68C12.39,55.27,12.66,55.39,12.85,55.54Zm36.28-2.15c-.16.15-.39.32-.37.34a4.89,4.89,0,0,0,.46.56l.52-.49ZM15.75,54.48l-.14-.15c-.12.12-.23.31-.38.35-.33.11-.4.35-.46.63,0,0,0,.06-.06,0-.29-.19-.15,0-.12.13s-.14.25.18.22.27-.09.27-.29a.64.64,0,0,1,.09-.4A6.48,6.48,0,0,1,15.75,54.48Zm-2.49-1.12a.77.77,0,0,0,.22-.84,3.54,3.54,0,0,0-.16-.34c-.09,0-.23.07-.26.15a.86.86,0,0,0-.08.47A3.25,3.25,0,0,0,13.26,53.36ZM2.6,44.48a2.84,2.84,0,0,1,.59-.27c.44-.11.14-.43.27-.65C3,43.7,2.49,43.81,2.6,44.48ZM54.66,69.19c-.27.14-.57.44-.58-.17a3.81,3.81,0,0,0-.4.29.67.67,0,0,0-.09.21l.19.08C54.17,69.73,54.57,69.89,54.66,69.19ZM50.39,55.27c.1-.05.27-.14.26-.17-.12-.32.13-.39.33-.5,0,0,0-.1,0-.15s-.13,0-.17,0a4.24,4.24,0,0,0-.59.33,1.37,1.37,0,0,0-.24.29Zm-1.31-2a1.86,1.86,0,0,0,.14-.42c0-.11-.06-.22-.1-.34a1.13,1.13,0,0,0-.26.16,1.22,1.22,0,0,0-.26.3.42.42,0,0,0,0,.27s.09,0,.14,0S48.94,53.23,49.08,53.23ZM28.16,7.7a2.11,2.11,0,0,0-.25-.23c-.15.1-.35.19-.41.34s.1.29.16.44Zm-24,30.93.38.24,0-.13c-.24,0-.13-.58-.48-.31a5.62,5.62,0,0,0-.71.75l.08.08ZM1.67,44.07s0,0,0,0c.18-.29.36-.59.53-.89,0,0,0-.07-.07-.09a.13.13,0,0,0-.1,0,4.79,4.79,0,0,0-.49.52c-.06.08,0,.23,0,.35S1.63,44,1.67,44.07ZM13,63.46c.11.26.19.49.3.71a.28.28,0,0,0,.25.07.85.85,0,0,0,.2-.25s0-.09-.07-.11C13.44,63.74,13.23,63.62,13,63.46ZM28.14,14.72l.39-.85C27.81,14.37,27.81,14.37,28.14,14.72ZM54,59.75l-.29-.36c0,.08-.15.16-.14.24a3.78,3.78,0,0,0,.13.56Zm-41.18-8.5a2.71,2.71,0,0,0-.38.42s.08.13.13.2L13,51.5ZM27.85,5.37h.06l0,.19.49-.22a.59.59,0,0,0-.35-.06l-.43,0v.54h.12Zm-13.26,47c0,.28-.05.55-.06.83a.14.14,0,0,0,.08.09s.07,0,.11-.08C15.08,52.91,14.73,52.65,14.59,52.37Zm-4.9,4.91-.16.07.25.62a.69.69,0,0,0,.18-.16C10.2,57.45,9.79,57.45,9.69,57.28ZM28.87,9.86c.14-.13.26-.21.25-.24a2.74,2.74,0,0,0-.23-.36c-.08.08-.2.16-.21.25S28.78,9.7,28.87,9.86ZM20.68,58.22a.39.39,0,0,0-.06.19,1.21,1.21,0,0,0,.11.3,1.66,1.66,0,0,1,.06.21c.07-.07.2-.14.19-.21a2.3,2.3,0,0,0-.15-.49Zm5.37-45.57-.24,0,.11.59.16,0C26.08,13,26.06,12.84,26.05,12.65Zm4.78-8.2-.5.88C30.78,5.21,30.85,4.86,30.83,4.45ZM51.65,52c.33,0,.42-.26.4-.55,0,0-.08-.13-.12-.12a.16.16,0,0,0-.13.12C51.74,51.65,51.71,51.82,51.65,52Zm4.54,2.57h.08a1.21,1.21,0,0,0,.07-.4c0-.07-.18-.11-.27-.17a1.1,1.1,0,0,0,0,.26C56.11,54.41,56.16,54.51,56.19,54.61Zm-51-10.06.5-.21.11,0A1.58,1.58,0,0,0,5.74,44s-.12,0-.14,0S5.36,44.33,5.22,44.55ZM11,55.48v-.13c-.06,0-.14-.13-.18-.11a1.44,1.44,0,0,0-.31.19c.06,0,.13.13.2.14A1,1,0,0,0,11,55.48ZM25,10.19l.13,0,.22-.71-.16,0ZM46.41,51l-.26.31.37.29c0-.05.09-.12.08-.16A4.15,4.15,0,0,0,46.41,51ZM11.91,61.81l.1,0v-.75l-.12,0a1.15,1.15,0,0,0-.07.36A1.83,1.83,0,0,0,11.91,61.81ZM31.56,13.48l0,.09.2.2.22.24s.11-.1.1-.12a1.3,1.3,0,0,0-.23-.33A.67.67,0,0,0,31.56,13.48ZM3.69,39.34a3.63,3.63,0,0,0,0,.47.44.44,0,0,0,.12.22S4,40,4,40a.48.48,0,0,0,0-.26A3.52,3.52,0,0,0,3.69,39.34ZM27.85,6.17l-.15-.08-.32.65.11,0Zm23.48,66L51.22,72l-.44.34s.12.12.14.11Zm-39-18,0-.11a1.26,1.26,0,0,0-.39,0s0,.17-.05.26ZM23.08,14.61a3.79,3.79,0,0,1-.34.2s-.1,0-.15,0,0,.2.07.21C23,15.1,23,14.8,23.08,14.61ZM13.15,65.19v-.08c-.12,0-.27,0-.34,0s0,.21,0,.32ZM11.9,63.9c.14-.11.28-.19.27-.22a1.43,1.43,0,0,0-.2-.3,1.48,1.48,0,0,0-.16.27C11.8,63.7,11.85,63.77,11.9,63.9Zm-.8-9.34-.28-.44c-.07.06-.2.15-.18.18a.7.7,0,0,0,.22.26C10.91,54.6,11,54.56,11.1,54.56Zm1.16,10,.15.09c0-.09.11-.19.09-.26s-.12-.14-.18-.2-.14.11-.16.17S12.22,64.53,12.26,64.59Zm.41-12.22.09.07c.09-.12.2-.23.29-.35S13,52,13,52l-.31.3S12.68,52.33,12.67,52.37ZM26.82,14.11l.07-.16-.45-.15a1.11,1.11,0,0,0-.07.13ZM46.07,50.54a2.33,2.33,0,0,0-.26.33c0,.05,0,.14.08.21a2.8,2.8,0,0,0,.28-.31S46.11,50.64,46.07,50.54ZM24.89,71.29c-.09.1-.18.16-.19.23s.1.2.12.19a1.22,1.22,0,0,0,.26-.16ZM11.23,58.79l-.34.29s0,.08,0,.11l.12.19a.53.53,0,0,0,.11-.15A3.52,3.52,0,0,0,11.23,58.79Zm2.17-7.91-.22-.39-.15.09.24.35S13.36,50.9,13.4,50.88ZM10.84,61.51l-.18,0-.08.49a.68.68,0,0,0,.15,0C10.77,61.83,10.8,61.67,10.84,61.51Zm42-16.89.14.21c.06,0,.17-.13.16-.14a1.79,1.79,0,0,0-.2-.28ZM28,9.81,28,9.71l-.42.17.09.17Zm-3,21.06-.16.25a1.34,1.34,0,0,0,.24.12s.13-.1.12-.11A2.64,2.64,0,0,0,25.08,30.87Zm-.33-8.33-.16-.06-.16.41.12.06ZM54,43.7v.16c.11,0,.23,0,.34,0s.07-.11.1-.16ZM19.75,20.64l-.14,0,0,.39h.12C19.72,20.89,19.74,20.76,19.75,20.64ZM13.54,64.22a4.43,4.43,0,0,0,0,.45s.06.1.09.15a1.51,1.51,0,0,0,.12-.31C13.74,64.45,13.66,64.39,13.54,64.22Zm-6-18.88c-.15-.37-.15-.37-.45,0ZM5.27,38.7c0,.09-.08.17-.07.22s.1.16.13.15.14-.09.2-.14ZM28.05,65.2h.17l-.08-.53h-.09Zm-13.53,0,0-.11-.4,0s0,.1,0,.15ZM15.36,54c.05-.11.1-.17.09-.22a.76.76,0,0,0-.12-.19c0,.06-.12.12-.12.17S15.29,53.9,15.36,54ZM49.3,49.94l0,.06.23.39.1-.1ZM14.89,53.26l.13.1.27-.41-.09-.06Zm34.15-2,0-.11-.34.07a.69.69,0,0,0,.06.14A1.76,1.76,0,0,0,49,51.22ZM6.71,36.3c-.09-.07-.16-.14-.18-.13a1.77,1.77,0,0,0-.22.16c0,.05.09.14.12.13A2.29,2.29,0,0,0,6.71,36.3ZM23.65,24.78l.21-.27c-.05,0-.12-.09-.13-.08a1.45,1.45,0,0,0-.19.23S23.6,24.72,23.65,24.78ZM26.14,8.32,26,8.15l-.19.19c.06,0,.12.12.18.12S26.08,8.37,26.14,8.32ZM14.23,67.08c-.12,0-.25,0-.3,0s0,.18,0,.38ZM46.48,39.26l0,.1.29-.1a.64.64,0,0,0,0-.15ZM30,2.78l-.19-.13c0,.05-.08.1-.07.13a.5.5,0,0,0,.1.17ZM11.62,58.63l.06-.11-.38-.2,0,.1ZM54.45,45.71c0,.1-.08.14-.07.18a.58.58,0,0,0,.06.17c.06,0,.16-.08.16-.11S54.52,45.83,54.45,45.71ZM29.75,71l-.06-.09-.33.25.07.1ZM26,10l-.14-.14a1.71,1.71,0,0,0-.2.18s.09.07.13.07A2.21,2.21,0,0,0,26,10ZM10.67,60.8l.1,0a2.18,2.18,0,0,0,.11-.27l-.1,0ZM24.6,71.89l0,.13.3-.14,0-.06ZM40.41,36.22l.11,0,.07-.38-.1,0ZM56.57,48l0-.13a2.68,2.68,0,0,0-.3.12s0,.07,0,.11ZM21,59.08c0,.16-.05.24-.05.31s.07.08.11.11a.9.9,0,0,0,.06-.22S21.07,59.2,21,59.08Zm37.58-6.21.07-.11-.38-.16-.05.09Zm-4.45-7.4.07.05.16-.2-.07-.09ZM5.57,38.35a1.74,1.74,0,0,0-.15.22l.1.08a.43.43,0,0,0,.14-.16S5.62,38.42,5.57,38.35ZM25.09,22.57,25,22.43a.54.54,0,0,0-.07.13s0,.07.05.1Zm4.2,52,.12-.07a2.56,2.56,0,0,0-.2-.26s0,0-.07,0Zm8.3-27.73c-.1-.06-.14-.1-.18-.1s-.09,0-.14.06,0,.12.07.12A.83.83,0,0,0,37.59,46.82Zm18.17.1c-.06.07-.12.11-.11.14a1.28,1.28,0,0,0,.11.24s.12-.07.11-.1A1.32,1.32,0,0,0,55.76,46.92Zm.26.79c0-.08.06-.12,0-.14a.42.42,0,0,0-.08-.12s-.07.07-.07.1A.89.89,0,0,0,56,47.71ZM13.84,66.43c-.06.07-.12.1-.14.16s.05.08.07.13a1.25,1.25,0,0,0,.16-.17S13.89,66.49,13.84,66.43ZM28.06,8.9V8.84h-.28V8.9Zm-1.63.83,0-.05-.23.15.13.11Zm3.75-3.49c.1,0,.14.09.18.09s.09,0,.13,0-.06-.09-.1-.1S30.3,6.2,30.18,6.24ZM27.2,64c-.05,0-.09-.08-.11-.07A.35.35,0,0,0,27,64s.07.09.11.09S27.15,64.06,27.2,64ZM38,47.79v.12l.3,0,0-.1Zm-4.12-.9,0-.1-.31-.08,0,.1ZM11.42,62.7c.06-.08.11-.12.1-.16a.43.43,0,0,0-.07-.16s-.08.09-.09.13S11.39,62.6,11.42,62.7Zm9.75-45.25c0-.16.07-.21,0-.23a.38.38,0,0,0-.14-.11ZM42.44,49.62v.1l.32,0v-.11Zm5.43,25-.1-.13s-.11.06-.11.09a.55.55,0,0,0,.08.15Zm-4.26,1.14a.42.42,0,0,0,.14.08.45.45,0,0,0,.14-.1.36.36,0,0,0-.07-.1A1,1,0,0,0,43.61,75.74ZM13,56.56l.09-.08-.14-.21s-.1.07-.09.08S12.92,56.49,13,56.56Zm26.39-7c-.08,0-.14-.06-.18,0a.47.47,0,0,0-.12.15s.08.07.13.07S39.25,49.66,39.36,49.54Zm-9.7-47c0-.08.07-.12.09-.17l-.08-.07a.6.6,0,0,0-.09.13S29.61,2.49,29.66,2.55ZM37.79,76.4l-.11,0-.07.32.09,0Zm15.8-22.88.06,0s0-.09,0-.12-.07-.08-.11-.12Zm0-8.75,0,0s-.08,0-.08.08a1.22,1.22,0,0,0,0,.17ZM38.27,76.61l-.06.08.06,0a.7.7,0,0,0,.1-.08ZM54.52,44.27c0-.07.08-.11.07-.13a1,1,0,0,0-.12-.16s-.08.08-.07.1A.72.72,0,0,0,54.52,44.27ZM17,54.56l0-.09-.09.11a.12.12,0,0,0,0,.08Zm-2.6.18s-.07-.05-.09-.05,0,0,0,.06a.47.47,0,0,0,.06.09ZM32,75.1,31.91,75s-.06.06-.06.1a.61.61,0,0,0,0,.13Zm6.33-26.69a1,1,0,0,0,.18-.17s-.05-.1-.08-.1a.16.16,0,0,0-.12.08S38.34,48.31,38.35,48.41ZM1.7,42.88a1.21,1.21,0,0,0-.1.19s.06,0,.08.07.08-.07.09-.11S1.74,43,1.7,42.88Zm48.91-.6-.08-.07s0,.06,0,.08,0,0,.07,0Zm-19.93-39-.1-.12s-.08.06-.07.07a.25.25,0,0,0,.08.12Zm-15.86,47c.06-.08.11-.13.11-.17s-.07-.08-.1-.12-.08.09-.09.14S14.79,50.28,14.82,50.35ZM31.12,3.64c-.05-.05-.08-.11-.09-.1a.27.27,0,0,0-.12.09s0,.08.06.08S31.06,3.67,31.12,3.64ZM50.35,47.71s-.05-.08-.08-.08-.09,0-.09.07a.6.6,0,0,0,.09.13Zm-1.49-8.08c0,.11-.06.17-.07.23s0,.06.05.09l.16-.13Zm.08,0c0-.08-.08-.14-.12-.16s-.08,0-.12.08,0,.09.09.11S48.88,39.67,48.94,39.65ZM43,50.25a1.15,1.15,0,0,0-.08.14s.08.07.08.07.1-.09.15-.13ZM2.87,39.17l-.06,0s-.08.07-.08.11a.32.32,0,0,0,0,.16l.09-.14A.36.36,0,0,0,2.87,39.17ZM35.6,47.45l-.15-.1s-.07.09-.06.11a.29.29,0,0,0,.13.08S35.57,47.48,35.6,47.45Zm8.06-9.89h-.12l0,.28s.1,0,.1,0A1.92,1.92,0,0,0,43.66,37.56Zm-2.78-.88s.07-.09.06-.1a.57.57,0,0,0-.13-.08s0,0-.06.06ZM14,65.67c-.06,0-.09-.06-.12-.06a.14.14,0,0,0-.08.07s0,.06,0,.09Zm22-18.6-.06,0a2.39,2.39,0,0,0,.13.21s.07,0,.1,0Zm-7-34.9c.06,0,.09.08.11.08a.16.16,0,0,0,.09-.07.24.24,0,0,0-.05-.1ZM13.26,60a.53.53,0,0,0-.16-.09s-.06,0-.09,0l.17.17Zm9.26-45.24-.13-.09a.16.16,0,0,0-.06.09s0,.08.05.13ZM11.14,51.48a1.15,1.15,0,0,0-.18.12.86.86,0,0,0,0,.16ZM22.32,16l0-.09s-.07,0-.1,0l-.14.08ZM56.9,62.25c0,.07-.07.11-.06.13a.74.74,0,0,0,.12.13s.06-.07.06-.09ZM21.42,16.71c-.05,0-.09,0-.1.07s0,.07,0,.11.09,0,.12-.08S21.44,16.75,21.42,16.71Zm30.14,45-.06-.13-.12.06s0,.08.06.09S51.51,61.72,51.56,61.71Zm3.52-15.29L55,46.33s0,0,0,.05a1,1,0,0,0,0,.1ZM11.79,60.88l-.06-.13s-.08.06-.1.11,0,.06.06.1Zm49.65-.56s-.09,0-.1,0-.05.06-.07.09.06.06.07.05S61.4,60.37,61.44,60.32ZM26.13,14.05c0-.05.09-.08.08-.1a.33.33,0,0,0-.07-.13s-.09,0-.09.06A.63.63,0,0,0,26.13,14.05ZM46.32,50.81l.07,0,.07-.23-.05,0ZM19.38,23.66l-.12-.09s-.05,0-.05.06l0,.09Zm7,2.61.16.1s0-.07,0-.11-.05-.06-.08-.06S26.48,26.23,26.42,26.27Zm-1.56,5.07a1.12,1.12,0,0,0-.1.18s0,.05.08.07l.11-.15S24.9,31.38,24.86,31.34ZM27.27,9.47l.09-.1s-.06,0-.07,0a.52.52,0,0,0-.11.1ZM40,36.11l.08,0a.27.27,0,0,0,.07-.08s0,0-.06,0ZM12.68,59.29l.05-.09-.11,0s-.08,0-.1,0,0,.07,0,.1Zm35.06-8.88c-.07,0-.1-.09-.13-.09s-.07,0-.07.07a.13.13,0,0,0,.07.09S47.69,50.44,47.74,50.41Zm9.88,16.21.07-.1s-.07,0-.1,0,0,0-.06.07ZM52,57.8h0v.31h0Zm-37.4,9.73-.09.18s.06,0,.09.05a.52.52,0,0,0,.06-.13S14.65,67.58,14.62,67.53Zm1.9.43-.11.09a.84.84,0,0,0,.06.14s.1,0,.1-.06A.58.58,0,0,0,16.52,68Zm42-15.63-.19-.17s-.06.07-.05.09a.3.3,0,0,0,.1.14S58.4,52.36,58.47,52.33ZM30.38,6.69l.1-.13s-.07,0-.1,0-.07.05-.11.08ZM51.89,52.37s-.07-.06-.09-.06-.06,0-.08.06l.1.11ZM29.76,3.81s.07-.08.06-.1a.28.28,0,0,0-.07-.09s-.07,0-.06.07S29.72,3.76,29.76,3.81Zm21.8,37.71-.08-.1a.83.83,0,0,0-.09.16s.07.06.08.05A.48.48,0,0,0,51.56,41.52ZM29.2,45.35l-.1,0a.5.5,0,0,0,.12.13s.07,0,.1,0ZM6.26,43.61l-.09.08.07.07.08-.09ZM2.11,44a.68.68,0,0,0,.09-.16s0-.05-.05-.08a.94.94,0,0,0-.09.12S2.08,44,2.11,44Zm38.55,5.45-.07.12a.57.57,0,0,0,.13.08.24.24,0,0,0,.06-.08Zm15.78,5.81.08-.14-.07,0a.47.47,0,0,0-.1.1Zm-22.15,21c-.06,0-.1-.06-.11,0a.24.24,0,0,0-.09.11s.06.06.07,0A1,1,0,0,0,34.29,76.31ZM52.62,44.2l.08.08.19-.18L52.8,44ZM15.17,53.49c-.13,0-.17-.07-.2-.07s-.08.06-.12.09,0,.08.07.08A1.21,1.21,0,0,0,15.17,53.49ZM34.55,76.88s.08-.07.09-.1,0,0,0-.07l-.06,0A.39.39,0,0,0,34.55,76.88Z" transform="translate(-0.31 -0.46)"/><path d="M6.09,45.77l.06.62a.82.82,0,0,0-.3.13,3,3,0,0,0-.35.36c0-.06-.16-.13-.14-.17a1.67,1.67,0,0,1,.25-.58,2,2,0,0,1,.49-.35Z" transform="translate(-0.31 -0.46)"/><path d="M31.6,33.45h0c-.08-.21-.17-.43-.27-.71a6.55,6.55,0,0,1,.76.56,1.56,1.56,0,0,1,.21.47h0l-.4-.2Z" transform="translate(-0.31 -0.46)"/><path d="M41,76.72l.34,0,.73-.12h0c0,.07,0,.2,0,.21-.3.1-.61.18-.92.25Z" transform="translate(-0.31 -0.46)"/><path d="M28.94.8l-.12.4c-.21-.12-.2-.12-.19-.31S28.5.77,28.36.66l.89-.2.05.09-.37.27Z" transform="translate(-0.31 -0.46)"/><path d="M32.64,10.69l.2.13a1.88,1.88,0,0,0-.12.18c-.06.12-.1.25-.17.37s-.1.08-.15.12-.1-.11-.09-.16C32.32,11.09,32.14,10.75,32.64,10.69Z" transform="translate(-0.31 -0.46)"/><path d="M.55,45.07l.39-.45.19-.19c.05.1.15.19.14.28a.58.58,0,0,1-.22.39l0-.34c-.2.09-.14.65-.54.3Z" transform="translate(-0.31 -0.46)"/><path d="M18.45,70.62c-.22.17-.19.69-.79.43l.72-.5Z" transform="translate(-0.31 -0.46)"/><path d="M24.82,9.11c.11-.25.37-.66.3-.72-.41-.37.23-.25.16-.43-.16.37.08.92-.47,1.14Z" transform="translate(-0.31 -0.46)"/><path d="M28.34,4.73l-.2.26-.32-.27h0a1.57,1.57,0,0,1,.12-.3,1.52,1.52,0,0,1,.22-.22,1.17,1.17,0,0,0,0,.27A2,2,0,0,0,28.34,4.73Z" transform="translate(-0.31 -0.46)"/><path d="M52,41.91c.14-.22.32-.31.49-.08,0,.06-.09.26-.15.4L52,41.9Z" transform="translate(-0.31 -0.46)"/><path d="M9.91,59.74a.28.28,0,0,1-.43-.14s.08-.16.14-.23.23-.09.26.09a2.64,2.64,0,0,1,0,.29Z" transform="translate(-0.31 -0.46)"/><path d="M25.54,13c-.13.13-.26.27-.4.39s-.14,0-.22,0l.35-.57.27.17Z" transform="translate(-0.31 -0.46)"/><path d="M2.65,45.17c0,.08-.07.17-.12.25s-.13.17-.19.26a2.4,2.4,0,0,1,0-.46s.13-.08.2-.12v0l.19.1Z" transform="translate(-0.31 -0.46)"/><path d="M23.87,13.74a1,1,0,0,1,0-.25,2,2,0,0,1,.19-.31s.11.05.11.07a1.19,1.19,0,0,1-.11.38c0,.06-.14.07-.22.1Z" transform="translate(-0.31 -0.46)"/><path d="M39.89,76.46c0,.07,0,.14,0,.2a2.39,2.39,0,0,1-.15.37s-.11,0-.11-.08a1.86,1.86,0,0,1,0-.47,1.8,1.8,0,0,1,.21,0Z" transform="translate(-0.31 -0.46)"/><path d="M60.06,50.87a3.45,3.45,0,0,1,.12.46c0,.06-.07.14-.11.21s0-.12,0-.19-.07-.32-.1-.48Z" transform="translate(-0.31 -0.46)"/><path d="M23.47,13.64l.4.1h0l-.21.28-.22-.34Z" transform="translate(-0.31 -0.46)"/><path d="M26.91,25.58a1.66,1.66,0,0,1-.27.23s-.15-.11-.14-.15a.94.94,0,0,1,.14-.26Z" transform="translate(-0.31 -0.46)"/><path d="M11.57,66.45c0,.12.09.2.08.27s-.08.11-.12.17-.18-.14-.18-.19S11.47,66.56,11.57,66.45Z" transform="translate(-0.31 -0.46)"/><path d="M1.46,45.53l-.17.25a.63.63,0,0,1-.07-.26c0-.07.1-.13.15-.19Z" transform="translate(-0.31 -0.46)"/><path d="M9.57,62.22l.18-.48.18.23Z" transform="translate(-0.31 -0.46)"/><path d="M22.47,73.62h0l.17,0-.26.3h0C22.19,73.79,22.27,73.69,22.47,73.62Z" transform="translate(-0.31 -0.46)"/><path d="M31.76,3.07l.09-.35L32,3l-.28.1Z" transform="translate(-0.31 -0.46)"/><path d="M1.37,46.53l0,0c.07-.17.13-.35.2-.52,0,.06.09.14.07.19A3.73,3.73,0,0,1,1.37,46.53Z" transform="translate(-0.31 -0.46)"/><path d="M9.71,60.55v.15l-.23.18-.05-.1Z" transform="translate(-0.31 -0.46)"/><path d="M48.06,38.69c.06.12.12.17.11.21a2,2,0,0,1-.1.21c0-.06-.12-.11-.13-.18S48,38.82,48.06,38.69Z" transform="translate(-0.31 -0.46)"/><path d="M2.57,45.83v.11l-.38.25,0-.06Z" transform="translate(-0.31 -0.46)"/><path d="M9.56,61.47l0-.37c.05,0,.14,0,.14.07a2.05,2.05,0,0,1-.07.34Z" transform="translate(-0.31 -0.46)"/><path d="M23.19,13.32l.28.32,0,0c-.24,0-.47,0-.22-.36Z" transform="translate(-0.31 -0.46)"/><path d="M51.86,72.41l.24-.06c0,.07,0,.17-.05.21s-.15,0-.22,0l.05-.22Z" transform="translate(-0.31 -0.46)"/><path d="M22.36,74c-.05.2-.09.42-.39.3l0,0,.37-.31Z" transform="translate(-0.31 -0.46)"/><path d="M59.19,49.66l-.14.12a1.79,1.79,0,0,1-.2-.26,1.08,1.08,0,0,1,.11-.11Z" transform="translate(-0.31 -0.46)"/><path d="M5.56,45.6h.1l0,.33s-.16-.07-.16-.1A.9.9,0,0,1,5.56,45.6Z" transform="translate(-0.31 -0.46)"/><path d="M24.54,14a.72.72,0,0,1-.19.11s-.11-.08-.11-.08a.68.68,0,0,1,.18-.23s.12,0,.19.05Z" transform="translate(-0.31 -0.46)"/><path d="M27.73,2.72a2.24,2.24,0,0,1-.26.1s-.08-.1-.07-.1a.78.78,0,0,1,.2-.16Z" transform="translate(-0.31 -0.46)"/><path d="M1.58,45.65l.24-.29.06.06-.24.3Z" transform="translate(-0.31 -0.46)"/><path d="M27.58,3.52l.47,0v.09l-.48.06Z" transform="translate(-0.31 -0.46)"/><path d="M25.23,7.83a1.63,1.63,0,0,1-.11-.23l.1-.07.1.26Z" transform="translate(-0.31 -0.46)"/><path d="M60,50.53c-.13,0-.19.08-.23.07a.44.44,0,0,1-.18-.12s.06-.13.07-.13Z" transform="translate(-0.31 -0.46)"/><path d="M32.34,4.12c.06.07.13.14.18.21l-.08.08-.18-.22Z" transform="translate(-0.31 -0.46)"/><path d="M29,2.83l-.1.17-.17-.16s.07-.08.1-.08A.56.56,0,0,1,29,2.83Z" transform="translate(-0.31 -0.46)"/><path d="M42,76.58l.47,0,0,.14L42,76.58Z" transform="translate(-0.31 -0.46)"/><path d="M30.6,1.22c0,.11.09.16.08.2a.65.65,0,0,1-.1.15s-.08-.08-.08-.11S30.54,1.35,30.6,1.22Z" transform="translate(-0.31 -0.46)"/><path d="M58.11,48.35l.18.21-.08.08L58,48.42Z" transform="translate(-0.31 -0.46)"/><path d="M16.93,72.06l.14-.3.09,0-.16.31Z" transform="translate(-0.31 -0.46)"/><path d="M23.21,13.31l-.27-.14.11-.1.14.25Z" transform="translate(-0.31 -0.46)"/><path d="M26.85,4.65l.31.06,0,.1-.31-.06Z" transform="translate(-0.31 -0.46)"/><path d="M22,74.26l-.13.24-.1-.12.25-.1Z" transform="translate(-0.31 -0.46)"/><path d="M20.53,17.86l-.09.09-.14-.17.08-.06C20.44,17.76,20.48,17.82,20.53,17.86Z" transform="translate(-0.31 -0.46)"/><path d="M.81,41.94l-.1.13S.63,42,.64,42s0-.07.09-.11Z" transform="translate(-0.31 -0.46)"/><path d="M4.14,45.14c-.07,0-.11.06-.12,0l-.11-.11A.15.15,0,0,1,4,45Z" transform="translate(-0.31 -0.46)"/><path d="M31.61,1.38c-.06.07-.09.13-.13.14s-.09,0-.13-.06,0-.11.09-.13S31.53,1.35,31.61,1.38Z" transform="translate(-0.31 -0.46)"/><path d="M28.82,1.5l.14.39-.11,0,0-.41Z" transform="translate(-0.31 -0.46)"/><path d="M31.87,2.13l-.07.11a.3.3,0,0,1-.08-.08s0-.06,0-.06Z" transform="translate(-0.31 -0.46)"/><path d="M54.64,43l-.09.31a.43.43,0,0,1,0-.13S54.54,43.14,54.64,43Z" transform="translate(-0.31 -0.46)"/><path d="M32.16,3.65c0-.07,0-.15,0-.23h.07l0,.26h-.09Z" transform="translate(-0.31 -0.46)"/><path d="M27.89,4a.86.86,0,0,1-.2.06.41.41,0,0,1-.11,0S27.65,4,27.7,4,27.77,4,27.89,4Z" transform="translate(-0.31 -0.46)"/><path d="M25.34,6.93V6.67h.06l0,.26Z" transform="translate(-0.31 -0.46)"/><path d="M12,66.85l-.14.19s-.05,0-.05-.05l.09-.19Z" transform="translate(-0.31 -0.46)"/><path d="M5.53,36.72l-.24.18a.8.8,0,0,1,0-.15.08.08,0,0,1,0-.08A.91.91,0,0,1,5.53,36.72Z" transform="translate(-0.31 -0.46)"/><path d="M23,12.3l.17-.21.06,0-.15.2Z" transform="translate(-0.31 -0.46)"/><path d="M19.05,22.32l-.1,0,.11,0h.06Z" transform="translate(-0.31 -0.46)"/><path d="M9.74,63a.59.59,0,0,0,0-.14s0,0,0,0l.07.14Z" transform="translate(-0.31 -0.46)"/><path d="M56.42,45.66a.41.41,0,0,1,0-.12s0,0,.06,0a.24.24,0,0,1,0,.12S56.45,45.64,56.42,45.66Z" transform="translate(-0.31 -0.46)"/><path d="M60.06,52.24c0-.06-.06-.09-.06-.13s0,0,.07,0,.06,0,.1,0Z" transform="translate(-0.31 -0.46)"/><path d="M60.6,52.22l-.06.05,0,0,.07-.06A.14.14,0,0,0,60.6,52.22Z" transform="translate(-0.31 -0.46)"/><path d="M27.4,5.15l-.19-.09.05,0,.13.15Z" transform="translate(-0.31 -0.46)"/><path d="M51.27,40.88l.11-.08.06.26h0l-.18-.18Z" transform="translate(-0.31 -0.46)"/><path d="M32.46,3.79l.15.15L32.52,4l-.05-.22Z" transform="translate(-0.31 -0.46)"/><path d="M32.25,3.67c.19-.19.2,0,.21.12h0l-.22-.12Z" transform="translate(-0.31 -0.46)"/><path d="M31.61,2.56l.1.07-.14,0-.07,0Z" transform="translate(-0.31 -0.46)"/><path d="M28.68,2.32s.08.07.07.09-.05,0-.08.07l-.06,0A.52.52,0,0,1,28.68,2.32Z" transform="translate(-0.31 -0.46)"/><path d="M9.68,55.72l0,.07-.06,0s0,0,0-.06Z" transform="translate(-0.31 -0.46)"/><path d="M46.14,75.61l0,.06-.09.13s-.07,0-.06-.06A.91.91,0,0,1,46.14,75.61Z" transform="translate(-0.31 -0.46)"/><path d="M.34,44.41s0-.09,0-.1a.23.23,0,0,1,.1-.05s0,.06.05.09Z" transform="translate(-0.31 -0.46)"/><path d="M61.22,54l.07.13-.07,0L61.13,54Z" transform="translate(-0.31 -0.46)"/><path d="M33.7,77l-.09,0a1,1,0,0,1,.09-.13l.06,0Z" transform="translate(-0.31 -0.46)"/><path d="M35.5,76.88l-.1.2L35.32,77l.19-.12Z" transform="translate(-0.31 -0.46)"/><path d="M40.06,49.91a2,2,0,0,1,.33.15s0,.11,0,.16,0,.07-.06.1l-.12-.12L40,50S40.05,49.94,40.06,49.91Z" transform="translate(-0.31 -0.46)"/><path d="M30.63,46.55l-.14.35-.12,0,.12-.23Z" transform="translate(-0.31 -0.46)"/><path d="M41.84,50.29c.06,0,.14,0,.17,0s0,.12,0,.18l-.23-.08Z" transform="translate(-0.31 -0.46)"/><path d="M50.43,57.53l-.18-.06s0-.09,0-.09l.19.08Z" transform="translate(-0.31 -0.46)"/><path d="M46.21,53.41c-.29-.23-.58-.44-.84-.69,0,0,0-.2.06-.29s.15,0,.22,0c0,.42.54.33.64.65l-.09.35Z" transform="translate(-0.31 -0.46)"/><path d="M20.58,55.65c0,.22,0,.44-.08.66s-.09.12-.14.18-.16-.16-.14-.21a6.68,6.68,0,0,1,.31-.67Z" transform="translate(-0.31 -0.46)"/><path d="M42.65,51.23a.6.6,0,0,1,.09.13c0,.1.08.2.12.3s-.09,0-.1,0-.39.21-.37-.14c0-.06.13-.11.19-.17a.41.41,0,0,0,.07-.11Z" transform="translate(-0.31 -0.46)"/><path d="M23.06,60.27v.88c-.06-.21,0-.39-.13-.45C22.48,60.39,22.88,60.37,23.06,60.27Z" transform="translate(-0.31 -0.46)"/><path d="M27.65,45.1a1.2,1.2,0,0,1,.35.12c.06,0,0,.18.05.27a.6.6,0,0,1-.2,0,1.52,1.52,0,0,1-.22-.22Z" transform="translate(-0.31 -0.46)"/><path d="M20.8,57s0,0,0,0,.13-.31.2-.46a2.83,2.83,0,0,1,.16.36c0,.07.13.24-.1.1-.06,0-.18,0-.28,0Z" transform="translate(-0.31 -0.46)"/><path d="M24.62,45.15c-.16.1-.28.18-.4.24s-.09-.08-.14-.12l.38-.23S24.53,45.09,24.62,45.15Z" transform="translate(-0.31 -0.46)"/><path d="M46.37,53.24l0,0,.33.4-.53-.25h0Z" transform="translate(-0.31 -0.46)"/><path d="M42.26,51.45l-.13.39c0-.07-.09-.14-.08-.21s.07-.14.11-.2Z" transform="translate(-0.31 -0.46)"/><path d="M49.1,55.79a1.26,1.26,0,0,1-.2-.24s.09-.1.1-.1a.81.81,0,0,1,.19.18S49.15,55.71,49.1,55.79Z" transform="translate(-0.31 -0.46)"/><path d="M32.46,47.15c-.05,0-.11.07-.15.06s-.1-.07-.15-.11a.76.76,0,0,1,.19-.12s.12,0,.19.05Z" transform="translate(-0.31 -0.46)"/><path d="M22.58,59.58c-.14,0-.19,0-.22-.06a.71.71,0,0,1-.1-.14s.08-.05.1,0A2.7,2.7,0,0,1,22.58,59.58Z" transform="translate(-0.31 -0.46)"/><path d="M32.85,47.38l.07,0,.29,0,0,.12-.23-.1-.11-.08Z" transform="translate(-0.31 -0.46)"/><path d="M20.12,55.48a1,1,0,0,1-.05.24s-.1,0-.15,0l.09-.28Z" transform="translate(-0.31 -0.46)"/><path d="M30.1,46.32v.31H30v-.31Z" transform="translate(-0.31 -0.46)"/><path d="M21.26,57.66l.29,0s-.05.14-.07.14a1.12,1.12,0,0,1-.26-.08Z" transform="translate(-0.31 -0.46)"/><path d="M33.81,47.56l-.34.26c0-.09.05-.17.1-.2S33.69,47.59,33.81,47.56Z" transform="translate(-0.31 -0.46)"/><path d="M31.81,46.76a.41.41,0,0,1,0,.19s-.08.09-.13.13-.06,0-.05,0l.07-.14a1.13,1.13,0,0,1,.1-.13Z" transform="translate(-0.31 -0.46)"/><path d="M24.55,62.17l-.07-.27.05,0,.08.28Z" transform="translate(-0.31 -0.46)"/><path d="M26.35,45.55l-.17.2a1.21,1.21,0,0,1,0-.19s.07,0,.11-.05Z" transform="translate(-0.31 -0.46)"/><path d="M50.08,57.1l.06.12s0,0-.06,0a.4.4,0,0,1-.1-.12Z" transform="translate(-0.31 -0.46)"/><path d="M47.43,52.56l-.21-.16.12-.09c0,.09,0,.18.08.26Z" transform="translate(-0.31 -0.46)"/><path d="M37.07,49.35v-.26h.09l0,.26Z" transform="translate(-0.31 -0.46)"/><path d="M37.64,49.15c-.07-.14-.1-.18-.1-.22a.39.39,0,0,1,.05-.14s.08,0,.08.06A1.48,1.48,0,0,1,37.64,49.15Z" transform="translate(-0.31 -0.46)"/><path d="M36.63,48.81l-.11.09a.37.37,0,0,1-.14-.07s.06-.06.09-.07Z" transform="translate(-0.31 -0.46)"/><path d="M25.24,45.52l-.1-.06a.36.36,0,0,1,.1-.11s.08,0,.12,0Z" transform="translate(-0.31 -0.46)"/><path d="M39.14,50.22a.53.53,0,0,1-.14.08s-.06,0-.06-.07a.23.23,0,0,1,.08-.09S39.08,50.18,39.14,50.22Z" transform="translate(-0.31 -0.46)"/><path d="M31.33,46.83s-.08.07-.11.07a.16.16,0,0,1-.09,0s0-.09,0-.09A1,1,0,0,1,31.33,46.83Z" transform="translate(-0.31 -0.46)"/><path d="M26.51,45.68l.17-.06,0,.05-.17.09Z" transform="translate(-0.31 -0.46)"/><path d="M47,53.17a.51.51,0,0,1,.08.13s0,.06,0,.09-.07,0-.08-.07S47,53.25,47,53.17Z" transform="translate(-0.31 -0.46)"/><path d="M41.61,50.87c-.1.06-.15.1-.16.09a.36.36,0,0,1-.1-.11s.06-.07.09-.06S41.53,50.83,41.61,50.87Z" transform="translate(-0.31 -0.46)"/><path d="M40.37,50.49s.07.08.06.1a.1.1,0,0,1-.08.06s-.07,0-.07-.06S40.33,50.54,40.37,50.49Z" transform="translate(-0.31 -0.46)"/><path d="M32.85,47.38h-.33v-.05l.33.05Z" transform="translate(-0.31 -0.46)"/><path d="M22.32,44.45c0,.07,0,.14-.05.2H22.2l.13-.18Z" transform="translate(-0.31 -0.46)"/><path d="M25.13,45.13l-.1.2-.07,0,.11-.2Z" transform="translate(-0.31 -0.46)"/><path d="M35.05,48.46l0,.26,0-.12S35,48.56,35.05,48.46Z" transform="translate(-0.31 -0.46)"/><path d="M30.66,7.69l-.16.12s-.05,0-.08-.06l.13-.15Z" transform="translate(-0.31 -0.46)"/><path d="M30.91,8.07a.36.36,0,0,1,0,.11,1.07,1.07,0,0,1-.14.16l-.05-.05.12-.19a.42.42,0,0,1,.12,0Z" transform="translate(-0.31 -0.46)"/><path d="M15.36,68.54h0Z" transform="translate(-0.31 -0.46)"/></g></g></svg>