<svg xmlns="http://www.w3.org/2000/svg" viewBox="0 0 58.63 76.86"><defs><style>.cls-1{fill:#a41e34;}</style></defs><title>xxiv-zero-theater</title><g id="Layer_2" data-name="Layer 2"><g id="Layer_3" data-name="Layer 3"><path d="M39,75.92l.18-.35c-.22,0-.55-.22-.65-.13s-.17.46-.26.74a2,2,0,0,1-.18-.61c0-.25-.08-.36-.3-.33s-.12.19-.17.29-.07.21-.11.31l-.33-.21a1.65,1.65,0,0,0-.27-.1c-.11.24-.21.31-.31,0a3.88,3.88,0,0,0-.23.33c0,.09-.07.19-.11.28L36,76h0l-.08-.34-.27.18h0l0-.34-.23.14c-.22,0-.48-.09-.64,0s-.25.36-.37.56l-.33.5c-.07-.05-.17-.09-.2-.17A3.36,3.36,0,0,1,33.7,76h-.11a1.32,1.32,0,0,0-.05.33c.05.29-.11.39-.33.46s-.35,0-.42-.24-.14-.29-.31,0-.39.14-.64.23c.23-.2.37-.34.53-.46a.54.54,0,0,1,.25-.09,3.73,3.73,0,0,1,.43,0c-.42-.53-.79-.54-1.15-.11a1.14,1.14,0,0,1-.25.18.63.63,0,0,0,0-.23.83.83,0,0,0-.17-.21l-.34.32.18-.14-.5-.25s0,0,0,0,0,.05,0,.07h0c-.3.36-.61.17-.77-.1s-.38-.1-.55-.09A1.7,1.7,0,0,0,29,76a.58.58,0,0,1,0,.26c0,.08-.15.14-.23.21l-.17-.28a1.33,1.33,0,0,1-.05-.19s-.08.12-.12.12c-.27,0-.71.09-.79,0s-.28,0-.4-.06h0l-.05-.24L27,76v0l-.36-.26-.26.26a2.83,2.83,0,0,1-.36.16,2,2,0,0,1-.35.07,1.89,1.89,0,0,0,.11-.25.85.85,0,0,0,.06-.17l-.35,0c.09-.26.09-.26-.19-.3,0,0-.05-.09-.07-.14-.12-.48-.8-.29-1-.76a2.81,2.81,0,0,0-.67.07c.49.13-.26.73.44.76a1,1,0,0,0-.3.07c-.06,0-.09.15-.14.22a1.7,1.7,0,0,1-.11-.43c0-.27-.34-.64-.59-.58-.06,0-.1.09-.18.18.13-.69.09-.76-.65-1,0,.21.32.5-.14.62h-.17l-.26-.63-.46.39-.59-.29.07.3h0c-.13,0-.32.08-.37.17-.14.25-.3.19-.45.07s-.09-.24.09-.34.07-.24.1-.37l.36-.1-.33-.06-.29,0-.47-.3,0,0a2.38,2.38,0,0,0-.32-.38,1.11,1.11,0,0,0-.43-.19.37.37,0,0,1-.25-.63.91.91,0,0,0,.15-.27,1,1,0,0,0,0-.29,1.56,1.56,0,0,0-.2.16,2,2,0,0,1-.26.25c-.3.16-.56.3-.09.58,0,0,0,.19,0,.32-.19-.08-.29-.54-.49-.09,0,0-.07,0-.1,0a.66.66,0,0,1,0-.14,6,6,0,0,1,.2-.86c.12-.32-.07-.29-.26-.34s-.34,0-.35.23c0,0-.26.11-.29.07s-.15-.34-.28-.43a1,1,0,0,0-.55-.1,1.49,1.49,0,0,0-.37.13l.05-.44.63-.18.23.37.24-.36h-.48c-.12-.15-.22-.32-.35-.46a.82.82,0,0,0-.28-.14,2.44,2.44,0,0,1,0,.27c0,.16,0,.32,0,.48.11-.14-.53.12-.12-.22.05,0,0-.25-.06-.4a3.52,3.52,0,0,1-.38.25.93.93,0,0,1-.24,0l.12-.22h0l.16-.07c-.16-.33.08-.8-.36-1h0L14.28,69l-.17.19,0,0c-.56.31-.72.28-1-.18.67.07.68.07.6-.47h-.19l-.18-.33-.34.59.09.06.37-.27-.34.43c-.35-.16-.34-.67.06-.93.25-.16.25-.29.1-.47l-.48.18c0-.17,0-.28-.06-.39s0,0-.05-.08.44-.1.1-.3c-.08-.05-.24,0-.37.09h0l.05-.93a1.49,1.49,0,0,1-.36,0c-.16,0-.26-.06,0-.16,0,0,0-.15-.06-.16-.3-.12-.38-.29-.18-.55a3.33,3.33,0,0,1,.39-.35c.07-.06.18-.12.18-.16a.78.78,0,0,0-.14-.27l-.18.19-.05,0a2.17,2.17,0,0,1,.12-.36c.13-.27.08-.44-.23-.51-.06,0-.11-.07-.16-.1a1,1,0,0,0,.16-.12c.07-.12.14-.25.2-.38s0-.15,0-.15c.28-.08.56-.14.84-.2a1,1,0,0,0-1.46.18c-.07.07-.21.08-.33.13l0-.11a3.55,3.55,0,0,0-.08.47c0,.08,0,.22,0,.25a.4.4,0,0,1,.07.67l-.21.27c0-.1,0-.24,0-.29s-.32-.33-.5-.35-.39,0-.27-.34.06-.41-.28-.34a2.54,2.54,0,0,1-.49,0c.06-.17.51-.34,0-.52-.13,0-.18-.33-.26-.51,0,0,0,0,0,0-.35-.09-.36-.46-.56-.67h0a.79.79,0,0,0-.3-.62c-.12-.12-.06-.38-.11-.57s.1-.45-.27-.27c0,0-.17-.18-.26-.28s0-.15,0-.23l-.17,0,.15.21c-.44,0-.27-.51-.51-.68a.63.63,0,0,0-.31-.15,3.85,3.85,0,0,0,.08-.47c0-.23,0-.23-.23-.21H6.61c-.17-.32-.34-.64-.49-1,0-.06,0-.16.08-.24-.14,0-.27,0-.4.08s-.08.09-.12.13h0c-.18-.21.19-.29.11-.59a2.39,2.39,0,0,0-.75-1.41s-.12-.15-.1-.19c.2-.34-.13-.52-.22-.77H4.65l.14-1.31-.3.27s-.08-.06-.07-.07c.19-.37-.21-.49-.32-.73a8.65,8.65,0,0,1-.44-1.05c0-.17-.11-.53.32-.43l.1.17.1-.06L4,51.24C4,51,4,50.9,3.72,51a.75.75,0,0,1,0-.16l0-.74.07-.33-.11,0-.08.36c-.14.26-.25.58-.65.35h0c0-.18,0-.35,0-.53s-.24-.41-.51-.27c-.06,0-.14,0-.22,0s0-.22,0-.22c.47,0,.35-.4.46-.63l-.5-.05c.06-.12.14-.23.19-.35a.46.46,0,0,0,0-.2c-.24-1-.46-1.9-.72-2.84-.18-.64-.44-1.25-.6-1.89-.08-.33,0-.69-.06-1S.8,41.51.68,41,.16,40.3.59,39.85c.05-.05-.08-.26-.09-.39A2,2,0,0,1,.55,39s.19,0,.28,0l.68-.1v-.11c-.06,0-.14,0-.17,0-.19.15-.26.16-.39-.09a1.17,1.17,0,0,0-.59-.57c-.28-.1-.17-.27-.18-.42s.24-.41-.07-.57a.4.4,0,0,1,.07-.19c.12-.17.06-.14,0-.37a1.72,1.72,0,0,1,0-.75c0-.1.08-.28.06-.29-.35-.19-.11-.42-.08-.64a9.24,9.24,0,0,0,.06-1,12.67,12.67,0,0,0,0-1.63c-.08-.66,0-1.33-.07-2a1.61,1.61,0,0,1,.13-.58s0-.1,0-.12c-.3-.47,0-1-.07-1.41-.11-.66.33-1.24.11-1.87,0,0,.06-.12.1-.18s.22-.33.34-.49L.6,25.48l-.29.2c.07-.14.09-.29.17-.33.34-.17.32-.49.4-.79S.75,24,.77,23.77s.23-.38.39-.55.2-.07.27-.13a3.7,3.7,0,0,0,.33-.36l-.06.46s0,0,.05.08a.6.6,0,0,1,.13.79.64.64,0,0,0,0,.2c.08,0,.18,0,.23-.07s.32-.39.5-.56.17,0,.3-.05c.06-.31.06-.29-.37-.41a.32.32,0,0,1-.21-.27c0-.16.16-.28-.12-.38a.54.54,0,0,0-.63.05,8.23,8.23,0,0,1-1.06.59,4.41,4.41,0,0,1,.16-.93c0-.09.32-.13.47-.11.39.07.32-.1.25-.35,0-.09,0-.21,0-.32l.06.12.21.31a2.43,2.43,0,0,0,.44-.47c.07-.12,0-.31,0-.47-.06,0-.14,0-.18,0s-.36.32-.54.48l-.35.17v-.38L1,21c.23-.13.32-.28.09-.44-.07-.2.48.17.15-.24,0,0,.08-.1.1-.16A.26.26,0,0,0,1.36,20a.58.58,0,0,0-.1-.19l.18,0a.06.06,0,0,0,.05,0c0-.19,0-.38,0-.58.32,0-.05-.61.43-.43,0,0,.05,0,.06-.08.11-.28.21-.56.33-.84a1.21,1.21,0,0,1,.14-.2c0,.09.07.18.09.26a.39.39,0,0,0,.12.2c0-.35,0-.71,0-1.06s.3-.24.39-.42c.19.35.32-.07.49-.06s.14-.22.22,0a.72.72,0,0,0,.11-.19c0-.1,0-.27,0-.29s.27-.06.33,0c.24.22.29,0,.32-.14s.09-.62.14-1l-.51.4A6.6,6.6,0,0,1,4,14.48a2.39,2.39,0,0,1,.18-.6,2.89,2.89,0,0,0,.06.49c0,.07.13.12.2.18a.5.5,0,0,0,0-.21c0-.17-.16-.35-.12-.49.13-.44.33-.86.5-1.29l.2.12.29-.1-.05-.12-.24.23c.14-.29.31-.58.43-.88s.17-.53.28-.79c0-.07.15-.09.27-.15s.17-.32.29-.51A2.7,2.7,0,0,1,6.59,10s.08,0,.12,0,.2-.06.24-.12a4.9,4.9,0,0,1,.89-1c.24-.27.42-.58.66-.86s.19-.48.54-.38c.05,0,.14,0,.19-.09.28-.29.54-.59.81-.89.05,0,.11-.13.18-.13.65-.1.53-.75.82-1.07l.58.17.3-.39.28-.11.36-.46h0c.09,0,.25,0,.25-.05,0-.52.47-.47.71-.71a2.2,2.2,0,0,0,.3-.31c.1-.15.07-.46.4-.26a.65.65,0,0,1,.11-.15c.14-.13.29-.36.44-.37a2.79,2.79,0,0,0,1.34-.58c.09-.05.22-.42.37,0,0,0,.06,0,.07,0,.19-.14.36-.3.55-.43a.43.43,0,0,1,.24,0c0,.4.18.33.43.19A.49.49,0,0,1,18,2c.41,0,.64-.12.65-.56l.19,0a.58.58,0,0,1,.77-.28c.14,0,.34,0,.52-.08L21.24.78c.09,0,.2,0,.3.06.38.09.69-.15,1-.21a3.07,3.07,0,0,1,.68,0s.09.07.11.06A2.47,2.47,0,0,1,25,.47c.22,0,.46-.14.69-.16a6,6,0,0,1,.73.06c.15,0,.38.11.45,0,.23-.25.59.08.78-.21.2.41.58.16.82.15a15.28,15.28,0,0,1,2,0c.48,0,1-.07,1.46-.07A11.11,11.11,0,0,1,33.14.4l.17,0c0-.38.36-.11.53-.21s.36-.08.35.22c0,0,.08.11.12.16s.14-.09.13-.14c0-.29.11-.17.24-.1C35.05.56,35,.26,35,0l.15.06c-.06.19-.14.39-.18.58A2.3,2.3,0,0,0,35,1a.86.86,0,0,1,.28-.1,5,5,0,0,1,.87.1c.31.08.59.21.76-.23.1-.24.67-.09.63-.06-.28.25.07.19.11.27s.07,0,.08,0c.53-.48.85.22,1.3.24.26,0,.5.25.75.38a.34.34,0,0,1,.09.08c0,.07,0,.16,0,.21a.26.26,0,0,0,.2.05,1,1,0,0,0,.25-.07c.07,0,.19,0,.2,0,.14.25.26.5.39.77l.89-.17c0,.13-.06.29-.09.46s0,.11,0,.12c.26.09.51.18.77.25,0,0,.11-.16.16-.24h0s0,.09,0,.13c-.15.43,0,.73.42.86,0,0,0,.11,0,.17s0,.35,0,.52a2.84,2.84,0,0,1,.31-.06l.24,0-.13.11c0,.13-.05.26-.07.4-.12-.05-.27-.16-.31-.13a3.78,3.78,0,0,0-.48.5s0,.16.05.2.13,0,.19,0,.12-.07.16,0a1.3,1.3,0,0,1,.22.19l.1.26a2.65,2.65,0,0,1,.5.27c.22.18.59.24.55.66s.21.35.44.34.16-.12.24-.18l.12.3-.13.1.59.66,0-.18c.07-.41-.4-.34-.5-.6.17-.26.12-.4-.19-.53s-.58-.3-.47-.72c0,0-.15-.08-.21-.14a4.63,4.63,0,0,1-.71-.69c-.12-.16-.09-.42-.13-.64.26,0,.47,0,.51.37s.27.34.54.24c0,0,.16.08.17.13.07.56.48.72.94.84a1.88,1.88,0,0,1,.44.24l-.19.15-.17.08.16.17V6.79l.5,0h0a1.1,1.1,0,0,0-.14.26c0,.12,0,.25,0,.37l.21-.06.4-.13,0,.4-.26,0,0,.47L47,7.92l.25.06c-.05,0-.13.07-.15.12a4,4,0,0,0-.12.46l.73-.21h0a1.16,1.16,0,0,0,.1.28,1.81,1.81,0,0,0,.18.21h-.28v.08c.18.06.37.1.55.18s.08.13.12.2a.61.61,0,0,0-.18,0c-.1,0-.21,0-.31,0a2.3,2.3,0,0,0,0,.26c.06.36.12.73.2,1.09a3,3,0,0,0,.2.49l-.17.15c-.14-.28-.27-.56-.42-.84,0,0-.08,0-.11,0a1.49,1.49,0,0,0-.14.12c.29.19.2.73.69.73.13.3.25.6.39.89a.2.2,0,0,0,.14.06c.06,0,.14-.13.13-.16-.14-.32-.29-.63-.44-.93,0,0-.06,0-.09,0,0-.25-.12-.52.44-.37.36.09.75,0,1,.35h0c-.14.14,0,.61-.47.37l.16-.18a1.82,1.82,0,0,0-.33,0s-.06.06-.09.09l.28.08a1.37,1.37,0,0,1,.06.44c-.09.43.18.44.47.5s.25.17.37.26c-.08,0-.18.07-.26.12a.22.22,0,0,0-.08.15c0,.13,0,.26.05.39l.21-.15.16-.13a.89.89,0,0,0-.06.2c0,.05.05.1.08.15s.12-.08.12-.12c0-.24,0-.48,0-.72a1.6,1.6,0,0,1,0-.23c0,.06.09.12.13.19a2.73,2.73,0,0,1,.27.47,2.24,2.24,0,0,1,.06.52c0,.15,0,.3-.06.53l-.23,0a4,4,0,0,1,.17.36c0,.13.07.27.11.41l.11.09c.08.42.33.59.71.38.1-.05.07-.32.1-.49h0c.09.11.19.22.27.34.24.32.48.64.69,1,.06.1,0,.27.06.39s.13.16.21.24h0a.54.54,0,0,1-.41.74.51.51,0,0,0,0-.22.42.42,0,0,0-.18-.14s-.12.09-.11.12a.42.42,0,0,0,.13.21s.14,0,.22,0l-.06.33c.1,0,.21,0,.31-.09l.64-.29a5.92,5.92,0,0,1,.1,1,.75.75,0,0,0,.32.64.38.38,0,0,1-.07.18.26.26,0,0,1-.15-.05,1.71,1.71,0,0,1-.2-.18v.23l-.14,0-.09-.43a2.17,2.17,0,0,1,0-.25c-.1,0-.23,0-.28.11s-.13.26-.09.32a2,2,0,0,0,.4.37c-.09.16-.23.3-.24.47a1.24,1.24,0,0,0,.08.69c.07.14.09.51.44.35,0,0,.07.08.06.09-.17.36,0,.45.33.55.07,0,.1.38,0,.52-.23.46.09.47.38.5,0,.06,0,.11,0,.11l-.39.09a1.93,1.93,0,0,1,.22.28,3.24,3.24,0,0,0,.16.47c.1.14-.08.49.3.44,0,.11,0,.22,0,.33,0,.33-.08.65-.11,1l.19,0,.5.09c-.2.31-.38.6-.58.88s-.13.54.19.72a1.39,1.39,0,0,1,.43.37c.12.15.11.28-.15.28-.07,0-.21.13-.2.17A1.52,1.52,0,0,0,55,28a2,2,0,0,1,.1-.26.2.2,0,0,1,.13-.09.2.2,0,0,1,.1.12c0,.16,0,.33,0,.49s.07.07.11.1,0,0,.08,0c.06.49.64.67.67,1.21a1.85,1.85,0,0,0,.48.9c.17.21.24.28,0,.36-.38.15-.46.37-.32.66l.41-.36.1.24h0c0,.17-.16.46-.1.51.41.3.12.75.27,1.2l.07-.33.25.4h0c0,.17-.06.48-.05.48.35.07.12.22.08.35s0,.13.07.19,0,.26.07.39l.21-.19-.3-.18.49-.86h0c.06.09.1.2.18.25s.18,0,.26,0a1.79,1.79,0,0,0-.2.26c-.06.13-.16.31-.12.42a1.12,1.12,0,0,1-.4,1.41.26.26,0,0,0-.07.23.34.34,0,0,0,.23.16c.05,0,.12-.11.17-.18a1.22,1.22,0,0,1,.25-.31c-.19.43.38.93-.16,1.33l0-.51c-.3-.36-.35.83-.76,0,0,.22,0,.44,0,.66a.68.68,0,0,0,.12.22c.32-.16.27.13.37.27s.2.11.32.17a2.55,2.55,0,0,1,0-.54c0-.09.16-.16.24-.24,0,.1.12.18.12.28s0,.39,0,.59l-.26.13.06.1.23-.2c0,.34.15.66,0,1-.1.19.07.53.15.79a2,2,0,0,1,0,1.43,2.63,2.63,0,0,0-.06.75.28.28,0,0,1-.12.16c-.3.14-.35.3-.23.6a.5.5,0,0,1,0,.4c-.21.37-.09.58.27.71h0c-.52.13,0,.53-.2.75h.46c0,.51-.1,1.06-.09,1.6,0,1,.07,2,.06,3.07a3.18,3.18,0,0,1-.26.81c-.08.28-.35.59.09.81-.2.11.33.36-.09.46,0,0,0,.3,0,.45-.05.36-.13.71-.19,1.07,0,.08,0,.18,0,.27.05.4.34.79.09,1.23,0,0,0,.14,0,.2,0,.34,0,.67-.07,1-.07.56-.1,1.13-.22,1.67a2.6,2.6,0,0,1-.44.77,1.31,1.31,0,0,1-.2.21c.08,0,.2,0,.22,0a1.1,1.1,0,0,1,.19.53,1.39,1.39,0,0,1-.25.52,1.63,1.63,0,0,0-.32,1,4,4,0,0,1-.26,1.21c0,.07-.19.17-.24.15a1.5,1.5,0,0,1-.31-.31,3.25,3.25,0,0,0-.25.45c0,.09,0,.21,0,.32a.59.59,0,0,1,.2-.12.58.58,0,0,1,.21.05c-.16.24.13.66-.33.81-.09,0-.14.19-.19.31-.1.28-.2.54-.59.45-.05,0-.14,0-.19.1s-.17.41-.46.23a1.63,1.63,0,0,0-.19.34,4,4,0,0,1-.13.77,1.25,1.25,0,0,1-.43.58,1.39,1.39,0,0,0-.53,1,3.24,3.24,0,0,1-.45.71c-.2.31-.49.58-.4,1s-.05.47-.43.39c-.09,0-.25,0-.29.06a3.28,3.28,0,0,0-.34.64s.13.18.11.19a2.78,2.78,0,0,1-.53.5c-.45.32-.91.6-1.31.86-.1,0-.27,0-.35-.14a2.09,2.09,0,0,1-.28-.51l.14-.21-.1,0,0,.27c-.27-.26-.47,0-.59.16a3,3,0,0,0-.36.74s0,0,0,.09a1.33,1.33,0,0,1,.05.34c0,.19,0,.44-.14.53s-.42,0-.56.06a14.44,14.44,0,0,1-1.22.88,7.88,7.88,0,0,1-1.6.52c-.25.06-.74.45-.74.68-.2-.09-.41-.27-.6-.25s-.35.25-.52.4l.07.11h0a1.33,1.33,0,0,1-.21-.09c-.08,0-.17-.19-.22-.18a1,1,0,0,0-.35.22,1.79,1.79,0,0,0-.2.26.64.64,0,0,0,0-.24c0-.07-.12-.12-.18-.18l-.2.25-.23.09c-.22,0-.4.12-.35.4h0c-.24-.09-.5-.31-.68.09,0,0-.11.11-.13.09-.4-.21-.45.26-.69.34,0,0-.08,0-.11,0s-.28.11-.27.13c.09.39-.23.24-.39.31Zm10-46v.38l.16,0-.16-.36-.4,0a.67.67,0,0,0,0,.16l.34-.13S48.91,30,48.94,29.94ZM17.57,51.46l-.09.47.14,0-.05-.49-.05-.39C17.28,51.38,17.28,51.38,17.57,51.46Zm-1.52-1.77.08.38.37.26,0,.43.12.05.21-.59c-.17-.2-.42-.13-.63-.19l-.1-.36a1.08,1.08,0,0,0,0-.18c0-.07,0-.14,0-.21s-.16,0-.18.07,0,.13.05.19A1.06,1.06,0,0,0,16.05,49.69ZM29.29,12.88h-.08l-.29-.34-.05-.32c-.11,0-.27,0-.3.09s0,.23,0,.35l.28-.07c0,.22,0,.5.36.28l-.21.28c.38.05.38.05.27-.29l.21-.12-.07-.08Zm2.06,1.27-.25-.08,0,.2.24-.07-.1.32.42.21Zm-4.67-2.51L27,12c0-.07.11-.15.09-.19s-.17-.23-.25-.35l-.12.14c-.06,0-.12-.06-.17-.05a3.4,3.4,0,0,0-.34.16s.07.1.08.09a2.72,2.72,0,0,0,.35-.16Zm9.84,3.13a1.54,1.54,0,0,0,0-.3,1.11,1.11,0,0,0-.13-.27s-.07,0-.11,0a2.29,2.29,0,0,0,.07.28,2.39,2.39,0,0,0,.13.28l.4.55a1.45,1.45,0,0,0-.09.22c0,.13,0,.26-.07.39-.07-.1-.19-.19-.22-.3-.09-.38-.32-.39-.62-.31l-.1,0c-.07-.53-.38,0-.54-.13s-.35-.34-.52-.33-.45,0-.47-.29a1.09,1.09,0,0,1,0-.18.51.51,0,0,0-.22.11,1.6,1.6,0,0,0-.16.27l-.08-.28c-.29.15-.57.39-.89,0-.27.26-.18-.07-.22-.15a1.3,1.3,0,0,1-.08-.34l.24.28h.06l-.1-.35-.2.1-.21.31-.29.42-.41-.13,0,.13h.43c0,.06.07.16.13.18a1.45,1.45,0,0,0,.3,0l0,.12-.7-.14c-.25,0-.5-.33-.7,0-.12-.14-.32-.27-.36-.43s.08-.38.15-.64l-.35.17a.82.82,0,0,0,0-.27,1.51,1.51,0,0,0-.15-.28c-.06,0-.17.08-.17.12a.41.41,0,0,0,.11.24,1.16,1.16,0,0,0,.2.18l-.24.68h-.08l-.14-.84-.39.22-.11-.46.39-.44c-.53-.21-.4.18-.41.45l-.56-.07,0,.29a3.65,3.65,0,0,1-.24-.31,1,1,0,0,1-.09-.24h0l-.5-.24-.68-.31c-.32-.15-.19-.45-.2-.72-.35.14-.66.52-1,0,0-.06-.22,0-.33,0s-.21,0-.23-.06c-.22-.46-.49-.12-.74-.07h0l.07-.5-1,.54a4.56,4.56,0,0,1,.25-.43l.13-.17c-.09,0-.19-.08-.27-.06s-.41.17-.59.14a.48.48,0,0,0-.62.39,3.74,3.74,0,0,1-.23-.44.75.75,0,0,1,0-.26,2.75,2.75,0,0,1-.26.22c-.11.07-.25.18-.35.16-.39-.08-.52.25-.75.42s-.13.18-.22.21a2,2,0,0,0-1.15.71,4.55,4.55,0,0,1-.69.62c-.17.17-.3.55-.53,0,0,0-.13,0-.19-.06a.47.47,0,0,1,.06.15.24.24,0,0,1-.07.16c-.21.24-.88,0-.68.7l-.23.08,0,0,.21-.12.37-.12c-.17.21-.27.47-.41.48s-.4.48-.75.33c0,.09,0,.22,0,.26.22.24.06.38-.12.51l-.41.26A.74.74,0,0,1,16.6,16c-.13-.22-.22-.56-.53-.15,0,0-.13,0-.17,0a1.85,1.85,0,0,0-.37.37c0,.05.09.19.16.28s.16,0,.17-.06c.13-.54.49-.47.87-.36,0,.12.16.31-.15.28-.06,0-.19.08-.18.12,0,.37-.23.38-.47.4h0l0-.15-.27,0-.27.11.18,0c-.11.13-.21.27-.31.4s-.16.12-.18.2S15,18,15,18.21a2.51,2.51,0,0,1-.19-.67.17.17,0,0,0-.11-.11s-.07.05-.09.08a6.16,6.16,0,0,0-.68,1.39c-.19.78-1.12,1.23-.93,2.16a.08.08,0,0,1,0,0,1.56,1.56,0,0,0-.44.93c-.22.9-.54,1.78-.81,2.67a2,2,0,0,0-.19.73c.09.59-.23,1.12-.1,1.74.16.83-.06,1.74.12,2.57s-.17,1.63.15,2.41c0,.06-.12.18-.19.28v.08a.59.59,0,0,0,0,.13l0-.22c.17.16.3,1.09.16,1.11-.54.06.05.29-.08.39-.24-.2-.34-.09-.46.2l.46-.2.39-.45a4,4,0,0,1,.15.53.71.71,0,0,1,0,.32c-.14.42-.3.85-.45,1.27v.29l0,.33a2.07,2.07,0,0,0,.25-.15l.48-.36.08.09L12.3,36c-.08.09-.38.17,0,.26,0,0,0,.08,0,.13,0,.58,0,1.15,0,1.73,0,.11.14.21.22.32l.07.05c0-.07,0-.17.07-.21a1.45,1.45,0,0,1,.34-.2c-.06.25,0,.52-.14.57-.63.3,0,.62,0,.82s.22.22-.11.37c.21.09.67,0,.42.39s0,.34.17.46,0,.13.06.2l-.13.32.2,0,0-.32.29,0c0,.14-.14.39-.11.41.23.12.13.16,0,.23s-.14.16-.12.2.17.24.2.23c.28-.14.19.06.19.19A2.73,2.73,0,0,0,14,43c.13.37.35.7.49,1.07,0,.12,0,.28,0,.42s0,.33.07.33a3.69,3.69,0,0,0,.62-.06c-.31.48,0,.92.2,1.39l.37,1c-.35-.16-.84,0-.58-.51,0,0-.12-.13-.15-.12a.25.25,0,0,0-.16.16c0,.09.07.21,0,.28-.12.28.27.44.15.7a1.06,1.06,0,0,0,.21-.16c.06-.07.08-.19.15-.25a3.31,3.31,0,0,1,.94.54c.1.33.1.33.5.32-.07.16-.12.31-.19.45a3.19,3.19,0,0,1-.23.32l.1.08.57-.3c0,.19.06.43,0,.5-.26.23,0,.43,0,.62a3.19,3.19,0,0,0,.19.62c.07.17.15.34.22.5a1,1,0,0,1,.24-.23,2.87,2.87,0,0,1,.44-.14c-.05.29-.49.31-.27.68.12.2.08.48.19.7s.36.45.47.71,0,.52,0,.52c-.56.1-.45.41-.25.76.17-.11.41-.38.41.13,0,0,.09.1.12.09.26,0,.52-.11.77-.16l.26,0c0,.08-.09.15-.12.22a1.42,1.42,0,0,0-.15.57c0,.16.23.28.34.42s.12.19.18.28l.12-.3.29.84.09,0,.2-.57c.21.16-.23.56.27.53,0,0-.05.11-.09.13a3.84,3.84,0,0,1-.35.18l.27.42h0l.29.8.11,0v-.55h.08l.49,1.64.72,0-.12.68c.15.09.29.18.43.25s.41.44.77.31c.05,0,.39,0,.12.24,0,0,0,.13.06.18a1.48,1.48,0,0,0,.51.11.56.56,0,0,1,.19.1L23.8,61l.54.11a1.12,1.12,0,0,1,.07-.41s.26,0,.29,0,0,.23,0,.35-.19.49.11.78.34-.19.5,0a1.21,1.21,0,0,0-.28.21.25.25,0,0,0,0,.25c.05,0,.17,0,.25,0s0-.11,0-.16v-.32l0-.09h0c.1.22.47.42,0,.7a.35.35,0,0,0,0,.33,9.74,9.74,0,0,0,1,.72c.12.09.36.25.27-.15,0-.06.12-.16.23-.31,0,.26,0,.42,0,.57s-.05.1-.07.15v.25l.14-.1s.12.08.13.13c.06.31.07.63.16.93a1.33,1.33,0,0,0,.35.52s.25-.16.39-.23a.68.68,0,0,1,.28-.07l.29,0L28.32,65s-.11-.09-.1-.1a.58.58,0,0,1,.12-.2L29,65c.11.06.3-.35.43.16,0,0,.15.11.17.09.26-.19.17.15.29.18l-.29.36s-.11-.11-.1-.12c.22-.33-.23-.23-.25-.39a1.67,1.67,0,0,0-.23.23,2.35,2.35,0,0,0-.17.44.24.24,0,0,0,.07.19c.3,0,.6.2.89,0s.41-.23.6-.36.35-.34.58,0c0,.07.25,0,.38,0a1.64,1.64,0,0,1,.23,0l.55.22.42.14a1.26,1.26,0,0,0-.24.22,2.11,2.11,0,0,0-.2.4,2.09,2.09,0,0,1,.47-.24c.52-.09.52-.08.27-.52.14.11.53-.06.37.36,0,0,.11.07.17.11a.44.44,0,0,0,.08-.15,3,3,0,0,0,0-.45c.36.3.67.52,1.11.34.18-.07.44,0,.6-.05s.28.16.41.15a9.52,9.52,0,0,0,1.05-.16c.53-.1,1.07-.19,1.58-.34s.73,0,1.09-.25c.17-.14.62,0,.88-.27a.18.18,0,0,1,.13,0c.29.23.39,0,.47-.21,0-.09.08-.24.15-.25.48-.11,1-.18,1.46-.26v0l.11.28a1.15,1.15,0,0,1,.19-.14c.59-.28.56-1.13,1.24-1.31a.26.26,0,0,0,.12-.19,2.66,2.66,0,0,1,.94-1.52,1.48,1.48,0,0,0,.45-1,.54.54,0,0,1,0-.22A5.66,5.66,0,0,0,46.11,59a.89.89,0,0,1,.27-.4c.26-.29.55-.55.81-.84.05-.06,0-.19,0-.28h-.16l-.33,0,.15-.24a.6.6,0,0,0,.06-.11c.08-.62.16-1.25.26-1.87,0-.1.15-.17.22-.27s.18-.3.27-.45l-.41-.08c.09-.81.24-1.66.25-2.5,0-1-.12-2.05-.18-3.07a1.88,1.88,0,0,1,0-.58c0-.12.16-.22.25-.34l-.31-.11s0,0,0-.07a6.18,6.18,0,0,0,.1-1.65c-.07-.36.24-.86-.27-1.13,0,0,.06-.22.08-.34a.5.5,0,0,0,0-.21s-.1-.08-.09-.11a2.78,2.78,0,0,0,.12-.68A4.56,4.56,0,0,0,47,43c0-.08,0-.2,0-.26a.84.84,0,0,0,0-1l.14.16.12-1c.1,0,.19.09.29.12a.37.37,0,0,0,.21,0,.24.24,0,0,0,.05-.15c-.11,0-.22-.13-.32-.12s-.14.12-.21.18a1.28,1.28,0,0,1-.23-.29c0-.07,0-.24,0-.25-.35-.08-.26-.41-.27-.59s-.06-.63.3-.8l.34-.15L47,38.69l-.36,0,0,0c0-.39.06-.79,0-1.18,0-.1-.17-.3-.21-.29-.57.15-.37-.39-.32-.46.23-.27,0-.41-.15-.57h.32a2.16,2.16,0,0,0-.21-.29s-.14,0-.21,0a.15.15,0,0,1-.11-.08.12.12,0,0,1,0-.13.17.17,0,0,1,.14,0c.3.09.47-.07.41-.4a2.92,2.92,0,0,0-.13-.34c0-.09-.06-.19-.09-.28a1.3,1.3,0,0,0-.29.22,1.27,1.27,0,0,0-.13.32c.15-.28-.35-.67.15-.93,0,0-.09-.42-.14-.64h0c0-.14,0-.27-.08-.4l-.24-.95-.1-.2-.09-.23a2.28,2.28,0,0,0,0-.52c-.11-.49,0-1.06-.49-1.4a.22.22,0,0,1-.1-.17,3.46,3.46,0,0,0-.3-1.49h0a4.7,4.7,0,0,1-.29-.7c-.06-.2,0-.44-.08-.64s-.3-.53-.4-.82-.12-.6-.21-.89c-.29-.88-.59-1.75-.9-2.63-.05-.13-.21-.21-.27-.34-.14-.35-.23-.72-.38-1.07a7.58,7.58,0,0,0-.49-.88h0a2.23,2.23,0,0,0-.15-.52c0-.08-.18-.16-.2-.28a1.46,1.46,0,0,0-.17-.29,1,1,0,0,1-.17-.3c-.07-.37-.52-.53-.53-.95,0-.11-.15-.22-.22-.34s-.21-.61-.36-.63c-.44-.06-.24-.33-.31-.54s-.32-.26-.5-.39a.15.15,0,0,1,0,0c-.24-.31-.21-.81-.68-1-.12-.16-.25-.32-.38-.47s-.12,0-.12.06a2.93,2.93,0,0,0,.06.67c0,.06.27,0,.42,0-.11.27-.32.2-.44.06-.32-.35-.39,0-.49.17a.79.79,0,0,0,0,.24c0-.17-.1-.34-.15-.52C37,14.87,36.92,14.73,36.52,14.77Zm4.92,53,.08.22.2-.24c0,.13.08.26.13.39a3.49,3.49,0,0,0,.15.34c.07-.1.18-.18.21-.29a7.05,7.05,0,0,0,.15-.8c0-.06-.08-.12-.12-.18l-.51.55-.31,0a.81.81,0,0,0,.08-.25,1.84,1.84,0,0,0,0-.33s-.14,0-.15.07a.85.85,0,0,0,0,.35C41.27,67.64,41.38,67.68,41.44,67.73Zm1.1-63.2-.13-.37-.12.06.26.3c-.09.08-.25.16-.25.23s.13.21.22.29S42.7,5,42.7,5,42.59,4.67,42.54,4.53ZM26.92,65.79l.15-.06c-.11-.28,0-.69-.51-.7a.76.76,0,0,1,0-.21c.18-.44.18-.44-.26-.48H26c0,.15-.07.35,0,.42a1.89,1.89,0,0,0,.53.27l.32.74-.08.25h.45V65.9ZM39.8,2.3c-.13.1-.44.15-.1.37l0,.28c.1,0,.27-.06.28-.12a2.45,2.45,0,0,0,0-.55ZM52.28,16.67h.24s0-.07,0-.11l-.23.06v-.37l-.28.12-.33.15.42.09A.76.76,0,0,1,52.28,16.67ZM40.37,16l.06.43a.84.84,0,0,0,.3.81s.14,0,.21.06.07-.14.05-.18c-.15-.26-.31-.52-.47-.78L40.37,16a1.82,1.82,0,0,1-.27-.41c-.1-.32-.25-.29-.46-.14a3.22,3.22,0,0,0,.33.38A2,2,0,0,0,40.37,16Zm6.31-6.65c.09-.43-.41-.51-.51-.82a.24.24,0,0,0-.15,0s-.05.09,0,.11l.71.67c-.17.51.32.62.55.9,0,0,.09,0,.1,0s.06-.13,0-.14C47.08,9.94,47.16,9.39,46.68,9.39Zm-37.9,50-.1-.12a1.76,1.76,0,0,0-.16-.4s-.21,0-.29,0-.16.19-.13.24a4.38,4.38,0,0,0,.45.75.62.62,0,0,0,.37.14s.15-.19.13-.24A2.26,2.26,0,0,0,8.78,59.34Zm3-21.88c0-.23.1-.45.14-.68a.66.66,0,0,0,0-.23l-.14.17a.56.56,0,0,0,.05.73,6.46,6.46,0,0,0,0,.88c.07.53.18,1.05.27,1.57,0-.2.87,0,.21-.43v0a4.18,4.18,0,0,1-.11-1.35C12.28,37.64,12,37.62,11.81,37.46ZM52,66.21a1.88,1.88,0,0,1-.2.67c-.33.44-.71.85-1.07,1.28,0,0,0,.08,0,.13l.64-.47c.14.18.26.4.3.39a4.1,4.1,0,0,0,.54-.3l-.57-.46c0-.08.09-.34.23-.4C52.47,66.81,52.27,66.52,52,66.21ZM5.75,53.45l.06-.09a2.07,2.07,0,0,1-.3-.29c-.15-.25-.26-.53-.41-.78s-.19-.15-.28-.22a1.09,1.09,0,0,0,0,.31,4.36,4.36,0,0,0,.57,1.24,4,4,0,0,0,.29.59c0,.07.19.06.3.09a.56.56,0,0,1-.07-.18C5.83,53.9,5.79,53.67,5.75,53.45Zm8.82,14a3.11,3.11,0,0,0,0,.43,2,2,0,0,0,.19.39c.14-.1.34-.18.41-.32s0-.43-.08-.45c-.4-.12-.26-.43-.27-.69-.22.16-.65,0-.6.44,0,.11,0,.23,0,.34ZM49,38.7c0-.28,0-.55-.37-.43s-.46.32-.48.5.19.47.32.69a.42.42,0,0,0,.24-.09C48.83,39.16,48.91,38.93,49,38.7ZM3.56,17.88a2.31,2.31,0,0,0-.75.13,1,1,0,0,0-.43.53,2.73,2.73,0,0,0,0,.82Zm25.17,58c.45-.76.45-.92,0-1.49C28.53,74.86,27.94,75.37,28.73,75.85Zm-15.65-10,.59-.53.21-.2c-.12,0-.25-.06-.34,0-.25.12-.42.14-.52-.18,0,0-.17-.09-.24-.07a4.1,4.1,0,0,0-.41.22s.05.07.08.08C12.83,65.28,12.91,65.63,13.08,65.89Zm18.6,4.27,0,.18a1.13,1.13,0,0,0,.42-.11c.06,0,.06-.22,0-.32s-.2-.42.21-.3c0,0,.19-.26.16-.28A4.25,4.25,0,0,0,32,69c-.05.14-.11.28-.16.43s0,.1,0,.13c-.32.29-.1.43.28.6ZM5.77,50.69c-.15.27-.3.55-.46.82s0,.38.2.36.22-.15.32-.24l.06.17c.05-.06.13-.11.14-.18C6.12,51.28,5.76,51,5.77,50.69ZM54.19,63.17s0-.1-.07-.1-.12,0-.14.07c-.23.39-.47.77-.67,1.18-.05.09,0,.26,0,.39a2.5,2.5,0,0,0,.22-.24,1.27,1.27,0,0,0,.24-.33C54,63.83,54.07,63.5,54.19,63.17Zm-5,1.77-.07,0L49,65l-.34.27a2.49,2.49,0,0,0,.2-.4c.07-.22.11-.45.16-.68l-.15,0a6.88,6.88,0,0,0-.41,1,1.25,1.25,0,0,0,.05.6s.19.06.21,0C48.87,65.49,49,65.21,49.17,64.94ZM16,67.62s-.08-.09-.1-.08-.28.12-.34.23c-.16.28-.25.59-.66.59,0,0-.11.13-.12.21s.08.11.14.12C15.21,68.72,16,68,16,67.62ZM10.51,62l-.18-.09c-.06.12-.13.24-.18.37s0,.1.1.12a.89.89,0,0,1,.38.77.74.74,0,0,0,0,.25c.08,0,.18-.08.23-.15a.65.65,0,0,0-.05-.81ZM52.4,66.2a2.15,2.15,0,0,0,.46-.3,1.46,1.46,0,0,0,.35-.5,1.28,1.28,0,0,0,0-.48s-.07-.08-.1-.12c-.06.13-.1.26-.16.38s-.14.35-.27.42C52.4,65.75,52.32,66,52.4,66.2ZM7.88,58.48l.41-.18a2.83,2.83,0,0,1-.2-.28c-.08-.14-.14-.29-.22-.44l-.09-.2c-.09,0-.26.12-.25.16.06.31.15.61.24.92Zm-2-5.7L6,53l.67-.65a.35.35,0,0,0-.16-.17C6.28,52.09,5.85,52.46,5.84,52.78Zm2.75,8,.05.36s.14-.09.14-.13c0-.34.13-.43.44-.45.08,0,.14-.25.21-.39-.12,0-.26-.08-.36,0A.71.71,0,0,0,8.59,60.81Zm-6-12.92.21.28.18-.3a1.17,1.17,0,0,0,0-.11,1.4,1.4,0,0,0,.09-.3,5.44,5.44,0,0,0-.5-.22c0,.13,0,.27.05.4A1,1,0,0,1,2.6,47.89ZM43.81,15.15l-.17,0a5.37,5.37,0,0,0,.15.8c0,.08.16.13.25.19.05-.13.17-.29.14-.39A3.51,3.51,0,0,0,43.81,15.15Zm4,16.71-.23-.46c-.11.09-.26.16-.33.28a1.43,1.43,0,0,0-.11.43l.31-.06s.09,0,.1,0C47.88,32.42,47.78,32.07,47.84,31.86Zm5.41-13.73c-.2-.15-.3-.29-.42-.3a1.07,1.07,0,0,0-.42.15l.26.49ZM49,31.65l.34-.24a3.07,3.07,0,0,0-.51-.38c-.05,0-.2.18-.3.28ZM2.35,47.1c.16,0,.33,0,.42,0a.74.74,0,0,0,.26-.4s-.1-.14-.15-.22C2.69,46.68,2.27,46.71,2.35,47.1ZM28.5,74.45a5.25,5.25,0,0,0-.75.1s0,.25,0,.38.07.12.12.18c.13-.11.28-.2.4-.31A2.93,2.93,0,0,0,28.5,74.45Zm4.25-4.14c.35-.12.49-.41.32-.65-.07-.09-.23-.12-.35-.17a2.83,2.83,0,0,1,0,.29C32.75,70,32.75,70.11,32.75,70.31Zm-20-29.58.09,0a3.43,3.43,0,0,0-.16-.45s-.16,0-.24,0a1.15,1.15,0,0,1,.06.17c0,.24,0,.49,0,.73a.46.46,0,0,0,.05.23s.13,0,.16,0a.42.42,0,0,0,.11-.22A3,3,0,0,0,12.73,40.73Zm30.1-19.79c0,.07-.12.14-.11.18.08.3.17.59.27.89,0,0,.09.06.1,0s.11-.09.1-.13c-.06-.29-.12-.58-.2-.86C43,21,42.9,21,42.83,20.94ZM13.88,45.22c.16.1.31.25.37.22s.17-.23.26-.35a1.12,1.12,0,0,0-.37-.17C14.08,44.92,14,45.08,13.88,45.22ZM4.36,51.49c.45-.18.47-.23.19-.6,0-.08-.17-.11-.26-.16a1.82,1.82,0,0,0,0,.32C4.28,51.2,4.33,51.34,4.36,51.49ZM47.92,70.16c.45-.31.45-.31,0-.62ZM46.78,36.31c.09-.25.18-.37.16-.48a2.22,2.22,0,0,0-.2-.48c-.06.11-.17.22-.16.33A3.05,3.05,0,0,0,46.78,36.31ZM14.29,44.39a2.09,2.09,0,0,0-.44-.21s-.18.16-.17.21a1.72,1.72,0,0,0,.22.33ZM49.17,27.1a1.58,1.58,0,0,0-.19.32s.15.19.17.18.24-.18.36-.27Zm-45.26-10S3.84,17,3.82,17s-.33.07-.39.17a1.12,1.12,0,0,0-.06.49s.13.05.15,0ZM34,70.61l-.31-.34a1.35,1.35,0,0,0-.17.34c0,.06.13.21.15.2A1.27,1.27,0,0,0,34,70.61ZM16.35,15.43l.22.16L17,15l-.16-.11Zm24.77,2.19c0,.21,0,.35.06.48a1.43,1.43,0,0,0,.08.22c.06,0,.16-.07.17-.12a.55.55,0,0,0,0-.36C41.37,17.74,41.22,17.69,41.12,17.62ZM26.67,3.38c.12-.21.22-.31.23-.42s-.13-.21-.2-.2-.24.11-.24.18S26.55,3.16,26.67,3.38Zm-9.1,49.51a3.31,3.31,0,0,0,.55.08c.06,0,.18-.11.17-.13a2.53,2.53,0,0,0-.2-.36l-.09,0C18.14,52.92,17.75,52.74,17.57,52.89ZM2.43,38.19c-.11-.12-.17-.23-.25-.26s-.21.14-.2.16a2.08,2.08,0,0,0,.24.34ZM31,66.2c-.14-.12-.23-.23-.34-.26s-.16.08-.25.13a1.92,1.92,0,0,0,.32.26S30.87,66.27,31,66.2ZM18.46,55.75c0-.18,0-.28,0-.34a2.11,2.11,0,0,0-.32-.35s-.07,0-.11,0,.11.25.18.37A3.05,3.05,0,0,0,18.46,55.75ZM13.22,41.49c-.06,0-.11-.09-.14-.08l-.5.17.18.3ZM5.73,14.17l-.55.42.49.1ZM45.45,29.48l-.4-.4s-.06.1,0,.12l.32.48ZM7.3,42.54c-.16-.07-.32-.19-.4-.15-.31.17,0,.28.07.43ZM24.08,74.23l-.19-.31a1.44,1.44,0,0,0-.19.37c0,.07.08.16.13.24ZM2.34,20c-.06,0-.15-.1-.16-.09a.75.75,0,0,0-.21.26s.07.12.11.19Zm42.78-4.38a4,4,0,0,0-.39.36.29.29,0,0,0,0,.18c.09,0,.27.06.27,0A3.43,3.43,0,0,0,45.12,15.61Zm-17,52.11.13.07.32-.58C28,67.07,28.33,67.6,28.11,67.72Zm19.25,4.46.11,0,.2-.75-.12,0c0,.13-.08.25-.11.37S47.39,72.05,47.36,72.18ZM28,12.66l.27-.51-.15-.07c-.1.16-.18.34-.27.51ZM37.92,1.78l.16.12c.09-.13.19-.25.27-.39s-.06-.08-.09-.12Zm-35,42-.19-.23c-.06.15-.13.3-.18.46s.06.09.09.13Zm1.31,7.83-.15,0c.06.22.11.44.18.65,0,0,.07,0,.11,0l-.12-.53A.68.68,0,0,1,4.22,51.58Zm-2-26.19c-.16-.08-.25-.17-.32-.16s-.14.12-.21.19.12.16.17.15A1.3,1.3,0,0,0,2.24,25.39Zm31.2,42.15.06-.14-.42-.17s-.06.09-.1.13ZM42.28,71l-.17-.19c-.06.07-.16.14-.17.21s.08.16.12.24ZM39.4,14.59l-.2.6C39.59,15,39.59,15,39.4,14.59Zm-20,41.22.09,0,0-.47-.25.08Zm-3.79-8.2c-.52.14-.53.15-.3.52ZM47.14,33.84h.13l.11-.45c-.06,0-.17,0-.17,0S47.16,33.69,47.14,33.84ZM5,50.36l.41-.3c-.06,0-.13-.08-.17-.07a2.14,2.14,0,0,0-.32.2A1.65,1.65,0,0,0,5,50.36ZM47,61.11l.07.16.39-.18s0-.11,0-.11ZM33.26,68.39l-.14-.1-.24.37.11.08ZM2.18,46.52l.18,0c0-.14.07-.28.09-.43s-.08,0-.12-.07ZM41.69,3.68V3.6a1.17,1.17,0,0,0-.2-.06,1.53,1.53,0,0,0-.37,0,.88.88,0,0,0,0,.14l.29,0Zm8.52,24.58c0-.09.11-.16.1-.2a1.38,1.38,0,0,0-.17-.25s-.14.1-.14.12S50.13,28.13,50.21,28.26Zm-36,36.81c0,.12-.08.18-.07.24s.08.1.13.15.09-.13.09-.19S14.33,65.17,14.25,65.07ZM16.4,49.54l-.09.09.28.32s.09-.12.08-.13A3.57,3.57,0,0,0,16.4,49.54ZM25.09,10.7c-.08-.1-.13-.2-.16-.2a.71.71,0,0,0-.22.13s.08.12.12.13A.78.78,0,0,0,25.09,10.7Zm12.34,4.14a1.38,1.38,0,0,0-.31-.15s-.1.13-.09.14a.5.5,0,0,0,.2.15S37.31,14.92,37.43,14.84Zm3.63,1,.12,0L41,15.37l-.13.05ZM40.56,3.4l.14.05.11-.36a1,1,0,0,0-.15,0C40.62,3.19,40.59,3.3,40.56,3.4ZM14.06,66.67l-.08-.1a1.44,1.44,0,0,0-.31.22s.07.15.11.23Zm9.45-6.42.09-.12-.27-.23s-.07.08-.11.12Zm-12.43.51c-.12-.09-.19-.17-.27-.19s-.1.08-.15.12a.76.76,0,0,0,.18.21S11,60.84,11.08,60.76ZM25.89,74.5l.11-.11L25.61,74l-.06.06ZM3.16,48.44l-.28-.14s-.09.09-.08.11.12.13.18.2ZM55.4,62.64l0-.1c-.07,0-.14-.1-.19-.09s-.12.09-.18.14ZM27.55,68.75a1.34,1.34,0,0,0-.22-.18s-.1.08-.15.13a1,1,0,0,0,.19.17S27.47,68.81,27.55,68.75ZM11.49,35.48l0-.17-.5-.13,0,.12Zm29.6,32.61-.15,0-.13.36a1,1,0,0,0,.15,0A1.79,1.79,0,0,0,41.09,68.09Zm7.63-1.71-.11-.13a.69.69,0,0,0-.17.17s.06.1.09.16Zm-10.21,2-.14-.19s-.12.09-.12.14a.48.48,0,0,0,.08.18Zm1.71-.08c-.11-.07-.19-.16-.21-.14a1,1,0,0,0-.18.18s.09.09.12.08A1.41,1.41,0,0,0,40.22,68.33ZM13.62,44.21c.1-.17.17-.26.22-.36s-.07-.09-.11-.13-.17.15-.24.23S13.53,44,13.62,44.21ZM3.05,45.79,3,45.64l-.4.14,0,.06ZM53.94,25.06h.14l0-.39s-.11,0-.11.05S53.93,25,53.94,25.06Zm-30.46-14,.11.05.17-.31-.14,0A2,2,0,0,0,23.48,11.08ZM49.09,46.33a1.08,1.08,0,0,0,.15-.22s-.09-.12-.1-.11a1.59,1.59,0,0,0-.21.15Zm-16.25,30,.13.32.18-.18ZM1.37,23.61l.13,0,.05-.39-.1,0Zm42.24-.68-.1,0,.09.33.12,0ZM7,49.85a.58.58,0,0,0-.23-.1s-.08.06-.13.09.09.13.15.14S6.93,49.92,7,49.85ZM18.61,12.33l0,.12.3.11s0-.11,0-.12Zm14.76,1.84.11-.11-.28-.27-.12.12ZM1.26,42.36h.1l0-.33H1.26Zm11.94,1,0,.08.34-.22,0-.07ZM37.28,1c0,.13-.07.18-.06.22a.57.57,0,0,0,.11.16s.08-.09.07-.12A1,1,0,0,0,37.28,1ZM48.72,44.09l.23.25.22-.32s-.05,0-.07,0A2.36,2.36,0,0,0,48.72,44.09ZM18,70.37v-.11h-.32s0,0,0,.1Zm-1-.93,0-.14-.35.14,0,.08ZM27.59,69v.09s.08,0,.11,0,.08-.05.12-.07Zm7.12-.72a.92.92,0,0,0-.13.19s.09.09.1.08a.84.84,0,0,0,.18-.15Zm.69-54.41V14l.41-.14V13.8ZM52.52,65.26l.07.06s.09,0,.1-.08a.59.59,0,0,0,0-.19ZM41.42,18.9l.09.08s0-.08,0-.12,0-.11,0-.16Zm.76,1.23.18-.18-.26-.23s-.05.05-.05.07S42.14,20,42.18,20.13ZM13.59,64.62c-.05.08-.1.14-.09.15a.46.46,0,0,0,.16.18s.09,0,.14,0Zm28.9-43.19-.15,0,.11.35.12,0Zm.33.63-.16-.19s-.11.07-.11.11.06.1.1.12S42.74,22.08,42.82,22.06Zm-38.57.87-.31-.14a.88.88,0,0,0,0,.15.19.19,0,0,0,.06.11ZM8,59.44s-.06.07,0,.07a.91.91,0,0,0,.11.16s.07,0,.1-.05Zm13-2h-.12c0,.1,0,.21,0,.32H21Zm29.84-29.3-.23-.25s-.11.09-.1.11a.53.53,0,0,0,.13.2S50.78,28.16,50.87,28.13Zm-3,27.81.25-.28-.15-.1a.66.66,0,0,0-.12.17C47.87,55.78,47.9,55.85,47.91,55.94ZM18.52,54.25l-.11,0,.15.33.11-.06Zm30.6-22.42-.08,0a2.24,2.24,0,0,0,.11.34l.11,0ZM7,50.65l-.13,0L6.74,51l.13,0Zm36.7-26.26-.06-.1s-.08,0-.09.07,0,.06.05.09ZM29,68.3a.76.76,0,0,0-.16-.13s-.08,0-.11.08l.14.19Zm15.36-54s-.08-.07-.11-.07-.06,0-.09.08a.54.54,0,0,0,.12.09S44.3,14.34,44.33,14.29ZM58.43,45.7l-.09-.14s-.12.08-.12.11a.61.61,0,0,0,.09.18ZM19.09,54.34c0-.07-.06-.13-.1-.15s-.1,0-.16,0a1.74,1.74,0,0,0,.1.19S19,54.37,19.09,54.34ZM38.31,13.67l.19.21a.51.51,0,0,0,.09-.16.2.2,0,0,0-.06-.13A1.19,1.19,0,0,0,38.31,13.67ZM3.4,45.25c-.08-.09-.11-.16-.14-.16a.65.65,0,0,0-.17.08s0,.09.06.09A1.16,1.16,0,0,0,3.4,45.25ZM40.31,2.6l-.12,0,.08.33.07,0Zm-15.45.65.11,0A2.6,2.6,0,0,0,25,3S25,3,24.92,3Zm-10.1-.11c-.07-.06-.12-.12-.16-.11s-.1.07-.11.11.07.1.11.11S14.69,3.19,14.76,3.14ZM32.43,70.45l-.12-.13s-.08.07-.07.08a1.47,1.47,0,0,0,.1.13ZM26.11,73c0,.06-.06.12-.05.15a1.12,1.12,0,0,0,.16.13l.1-.13Zm-.23.81-.11.06.17.24L26,74Zm16-69.71c-.06,0-.1-.11-.13-.1s-.11.06-.11.1.06.08.09.12Zm-32,57.63.11,0a2.76,2.76,0,0,0,.08-.27s-.08,0-.12,0ZM1.35,25.92l0-.09L1,26l0,.09Zm52.93-.41-.16-.11s-.07.07-.06.07a.38.38,0,0,0,.11.11S54.23,25.54,54.28,25.51Zm1.35,35-.16-.2a.44.44,0,0,0-.08.15s0,.08.07.08A.47.47,0,0,0,55.63,60.53ZM11.3,5.85a.57.57,0,0,0-.12-.11s-.09.07-.08.08a.6.6,0,0,0,.09.13ZM49,42l0,0s-.08.07-.08.1a1.15,1.15,0,0,0,.06.17ZM11.56,34a.82.82,0,0,0-.05.22.12.12,0,0,0,.07.07l.15-.08Zm13.8,39.95-.14-.12a.58.58,0,0,0-.06.17s.06.06.1.09ZM49.08,43.12l-.08,0-.12.24.08,0Zm-10.32,32s-.07-.09-.08-.08-.08,0-.09.08,0,.08,0,.12ZM54.85,27.28l.12.07.07,0s0-.1,0-.1A.39.39,0,0,0,54.85,27.28ZM25.94,3.78l.15-.18c-.05,0-.11-.08-.15-.07s-.07.08-.08.13S25.9,3.73,25.94,3.78Zm-.58,7.37a1.2,1.2,0,0,0,.06-.17s0,0-.05,0l-.12.11Zm-17.81,11c0,.06-.07.1-.06.12s.07.11.1.16.09-.07.08-.08A.75.75,0,0,0,7.55,22.16ZM25.71,11.35l.14-.07a.66.66,0,0,0-.15-.14s-.08,0-.12,0ZM20.39,56.74h-.06s0,.07,0,.1a1.51,1.51,0,0,0,.1.17Zm-.14-.36-.1-.05-.16.29.09.05ZM47.52,39.07h-.08l0,.28s.1,0,.1,0A2.26,2.26,0,0,0,47.52,39.07ZM49.11,69.9l.09-.11L49,69.57l-.07.08Zm-.26-30.16-.05-.07a.88.88,0,0,0-.12.15s0,.07.06.1ZM33.56,69.64c.07,0,.1.08.14.08s.09,0,.08-.06a.55.55,0,0,0-.08-.15Zm12.06-39.1-.19.12s.09.09.12.08.09-.07.13-.12S45.64,30.57,45.62,30.54ZM1.27,41a.39.39,0,0,0-.06.17s0,0,.07.07.08-.09.09-.13S1.32,41.09,1.27,41ZM15.2,17c-.07-.07-.1-.12-.14-.13s-.1.05-.1.07A.16.16,0,0,0,15,17S15.11,17,15.2,17ZM14.69,45.8s.07-.08.07-.11a.31.31,0,0,0,0-.12s-.08.07-.1.12S14.65,45.75,14.69,45.8ZM5.6,16.68c0-.08.08-.13.11-.19s-.06,0-.07,0l-.14.11ZM15.82,67.07c-.07,0-.12-.09-.15-.08a.18.18,0,0,0-.09.12s.06.07.1.11ZM2.94,41.47l0-.1-.3-.11,0,.06ZM5.49,15.86c0,.08-.08.13-.07.16a.67.67,0,0,0,.11.14s.12-.09.11-.12S5.57,16,5.49,15.86ZM47.12,67.39l.1-.12s-.08-.08-.1-.07a1.31,1.31,0,0,0-.11.12ZM33.87,2.06a1.18,1.18,0,0,0-.07.21s.06.08.09.11S34,2.3,34,2.26,33.92,2.17,33.87,2.06ZM46.68,34.78l-.09,0-.12.27.09,0ZM17.41,52c-.08,0-.13-.08-.16-.07s-.08.07-.12.11.08.08.12.08S17.33,52,17.41,52ZM28.52,68.11l.13-.15s-.06-.06-.09-.06-.07,0-.09.07S28.49,68,28.52,68.11Zm-23.27-53v.08l.21,0s0,0,0-.07Zm39.46.67-.05-.08a.27.27,0,0,0-.08.07s0,.05,0,.07Zm7,.12-.12-.17s-.08,0-.08.08a.17.17,0,0,0,.06.11S51.62,15.89,51.69,15.88ZM13.37,66.32l0,.11.06,0a.41.41,0,0,0,.07-.11Zm-8-52.61c-.07,0-.11-.08-.13-.07a.13.13,0,0,0-.07.09s0,.07.07.07S5.26,13.75,5.32,13.71ZM49.23,45.47l-.11-.13s-.09.09-.09.13.06.08.09.12ZM48.9,13.41c0,.05,0,.1,0,.09a.5.5,0,0,0,.13,0s0-.07,0-.07S48.94,13.41,48.9,13.41ZM3.45,45.82a.51.51,0,0,0-.09.12.25.25,0,0,0,0,.12s.07-.06.08-.1A.37.37,0,0,0,3.45,45.82ZM49,41,49,40.91s-.06,0-.07.05a.53.53,0,0,0,0,.13ZM5.88,13l-.13.11.07.06.1-.12Zm35.88,6.1.06.08.2-.09S42,19,42,19Zm.67,1.48a.51.51,0,0,0,.09-.12s0-.05,0-.07-.09,0-.1.05S42.41,20.49,42.43,20.56ZM2.59,38.93c-.12-.08-.16-.13-.19-.12a.32.32,0,0,0-.15.06ZM50.12,63c0,.08-.07.12-.09.17s.06,0,.09.07.06-.06.06-.1S50.16,63.07,50.12,63Zm4.66-.19,0-.09s0,.07,0,.11,0,.06,0,.09ZM20.27,11.88l0-.08-.07,0,.05.09Zm6.34-.62.25.14s0-.09,0-.11a.22.22,0,0,0-.13-.08S26.67,11.23,26.61,11.26ZM58.45,48.87l-.07.1.07.05.07-.11ZM16.4,71.1c0,.06-.07.1-.06.12a.51.51,0,0,0,.07.15s.07-.05.07-.07A.91.91,0,0,0,16.4,71.1ZM3.12,22.75c0-.05-.06-.1-.09-.1s-.08,0-.12,0A.54.54,0,0,0,3,22.8S3.07,22.77,3.12,22.75ZM3.94,45S3.86,45,3.83,45s-.05,0-.07.05.05.07.08.08S3.89,45.07,3.94,45Zm16.5,27.22.11-.09-.19-.09s0,.05-.06.09Zm2.35.5-.08.14s.09.06.1,0a.5.5,0,0,0,.12-.13Zm-6.1-23.44h.06a.34.34,0,0,0,.05-.11.75.75,0,0,0-.05-.16Zm-5,13.08.11-.15s-.1-.07-.14-.06-.06.08-.09.12Zm2.43-.46c0-.08,0-.13.05-.18s-.08,0-.1,0a.2.2,0,0,0-.06.12S14.05,61.88,14.1,61.93Zm30.47-54,0,.06s0,0,.06,0,0,0,.05-.06ZM23.67,60.56l-.08-.09a.14.14,0,0,0,0,.06l.07.11ZM48.14,38.29l.17-.08s-.06-.11-.08-.11a.28.28,0,0,0-.13.09S48.12,38.25,48.14,38.29ZM22.17,59c-.05.1-.07.12-.07.15a.28.28,0,0,0,0,.12s.07,0,.07-.05A.92.92,0,0,0,22.17,59ZM13,59c-.09,0-.13-.06-.16-.05s-.07,0-.11.06a.56.56,0,0,0,.12,0ZM2.09,27.19c-.07,0-.12-.08-.13-.07l-.14.15s.07.07.09.06A1,1,0,0,0,2.09,27.19ZM38.41,75.24s-.07-.08-.09-.08-.08,0-.08.08,0,.08.06.08S38.36,75.28,38.41,75.24Zm2.65-72.1a.18.18,0,0,0-.1,0s0,0-.05.06l.1.07ZM53.13,56.9s.1.07.12.06a.34.34,0,0,0,.09-.12s-.08-.08-.08-.07A.8.8,0,0,0,53.13,56.9Zm-33.82-.08-.15-.12s0,.08,0,.13a.54.54,0,0,0,0,.1ZM51.37,28.59h-.08a2.36,2.36,0,0,0,0,.28s.05,0,.08,0ZM6.25,50.38l-.09-.12a.63.63,0,0,0-.12.11s0,.1.06.1A.85.85,0,0,0,6.25,50.38ZM46.71,31.06s-.09.07-.09.1,0,.07.05.1.09-.05.11-.09S46.74,31.11,46.71,31.06Zm-8.29-29L38.27,2a.64.64,0,0,1,0,.07.67.67,0,0,0,.14.09ZM12.86,42.36a.82.82,0,0,0,.05-.17.56.56,0,0,0,0-.12s-.09,0-.09.07S12.82,42.24,12.86,42.36Z"/><path d="M19.55,73.6c0,.09,0,.19,0,.26s.13,0,.21.07a.93.93,0,0,1-.35.08,3.41,3.41,0,0,1-.62-.19l.13-.22.09.54,0,0c-.19-.18-.36-.41-.68-.27a1.53,1.53,0,0,1-.1-.17l.17,0,.35,0c-.13-.33-.13-.33-.85-.34l.33-.11.27-.08-.28-.42a3.37,3.37,0,0,1,.42.14l.57.26,0,0Z"/><path d="M57.49,31.4a3.73,3.73,0,0,0,.16.35.46.46,0,0,0,.18.11s.05,0,.07,0a1,1,0,0,1,0,.38,1,1,0,0,1-.25.33.21.21,0,0,1-.2,0,.3.3,0,0,1,0-.18v-.85Z"/><path d="M12.57,68c-.12,0-.3.08-.34,0a2.45,2.45,0,0,1-.3-.58s.08-.11.13-.17l.53.53Z"/><path d="M2.88,50.47c0,.31.07.65-.28.81-.06-.22-.14-.44-.18-.67a1,1,0,0,1,.11-.35c0,.08.08.17.13.25l.09.14.14-.17Z"/><path d="M35.64,75.8a3.38,3.38,0,0,1-.24.41c-.13.17-.28.34-.42.51,0-.18-.11-.36-.16-.54a.3.3,0,0,1,.18-.07c.24,0,.41,0,.38-.28l.27,0Z"/><path d="M21.76,74.43h.17c.28.47-.05.8-.35,1.28Z"/><path d="M5.68,57.53c-.3.29,0,.32.17.4a.58.58,0,0,1,.17.14s0,.12-.06.12a.69.69,0,0,1-.29-.07,1.75,1.75,0,0,1-.23-.24l-.2-.24.45-.1Z"/><path d="M36.76.6l-.13.32a1,1,0,0,0-.08-.25.22.22,0,0,0-.15-.1,1.14,1.14,0,0,0-.32,0c0-.07,0-.19,0-.2a1.26,1.26,0,0,1,.47,0C36.66.36,36.7.51,36.76.6Z"/><path d="M56.12,24.6l-.46.39c-.07-.1-.22-.25-.19-.28a3.11,3.11,0,0,1,.41-.4Z"/><path d="M26.38,76l.26-.26a.77.77,0,0,0,0,.3c.14.37-.28.27-.36.45,0,0-.07-.1-.06-.12A2.48,2.48,0,0,1,26.38,76Z"/><path d="M49.84,70.78c-.26.25-.44.44-.63.6,0,0-.2-.06-.2-.08s0-.28.1-.31A4,4,0,0,1,49.84,70.78Z"/><path d="M57.36,33.13l.58-.51,0,.69h0l-.57-.18Z"/><path d="M51.53,13.81c-.1.07-.23.16-.24.14a2.09,2.09,0,0,1-.27-.39s.1-.12.15-.18Z"/><path d="M54.79,22.79c0-.17,0-.34,0-.51s.06-.13.09-.19.19.14.17.19a3.35,3.35,0,0,1-.19.53Z"/><path d="M50.94,14.83l-.11-.09a3.91,3.91,0,0,1,.59-.34c.33-.13.2.24.33.33h0C51.45,14.48,51.21,14.77,50.94,14.83Z"/><path d="M5,55.89c-.18.06-.28.13-.37.12a.72.72,0,0,1-.28-.16c.09-.08.18-.22.26-.22S4.81,55.76,5,55.89Z"/><path d="M8.57,61.77c-.07.14-.13.29-.21.42s-.11.08-.17.11a.76.76,0,0,1-.1-.22l.49-.31Z"/><path d="M54.21,21.31l.41-.45.1.35c-.17,0-.29.36-.51.09Z"/><path d="M25.62,76.4l-.51.17s0,0,0,0C25.13,76.35,25.14,76.35,25.62,76.4Z"/><path d="M7,61a1.8,1.8,0,0,1-.16-.5s.14-.11.23-.14.15.05.15.06S7.1,60.7,7,61Z"/><path d="M5.29,57.22c-.09,0-.25,0-.25,0,0-.2,0-.41,0-.62a1.51,1.51,0,0,1,.09.18l.17.42Z"/><path d="M38.94,75.9l-.4.22.06-.5.35.3Z"/><path d="M20.52,74.2l.16.72s-.17,0-.19,0a.54.54,0,0,1,0-.68Z"/><path d="M14.61,70.28c-.5.14-.24-.4-.49-.53.46,0,.32.37.47.55Z"/><path d="M.21,24.67c.08-.13.12-.29.24-.38s.2-.05,0,.17-.11.17-.17.26Z"/><path d="M29.54,76.52c.07-.15.14-.3.22-.44s.1,0,.15.06l-.25.45Z"/><path d="M41.57,75l.3-.07-.09.34L41.57,75Z"/><path d="M54.13,19.35l-.29.46s-.06,0-.1,0l.23-.53Z"/><path d="M7.52,61.27a.66.66,0,0,0-.09.24,2.55,2.55,0,0,0,0,.39H7.36c0-.17,0-.34,0-.51S7.43,61.33,7.52,61.27Z"/><path d="M58.36,43.69l.27,0-.05.47h-.1l-.11-.44Z"/><path d="M54.9,26.15l-.15.44s-.11,0-.1-.05a4,4,0,0,1,.12-.43Z"/><path d="M8.76,63.22c.07.07.17.14.16.16a1.73,1.73,0,0,1-.19.28c-.06-.06-.19-.14-.18-.18S8.68,63.31,8.76,63.22Z"/><path d="M12.56,4.6l-.13-.41.21,0c0,.14-.06.29-.1.44Z"/><path d="M37.13,75.63l.33.21h-.39Z"/><path d="M40.52,1.61c-.11.07-.18.14-.2.12a1.37,1.37,0,0,1-.22-.2s.09-.1.12-.09A2.06,2.06,0,0,1,40.52,1.61Z"/><path d="M27.27,76v.34L27,76v0h.28Z"/><path d="M21.36,75.78c-.06,0-.11.1-.16.1a.2.2,0,0,1-.13-.1.75.75,0,0,1,.13-.18Z"/><path d="M4.18,55c0-.07-.08-.13-.07-.14a1,1,0,0,1,.24-.16s.07,0,.11.07Z"/><path d="M8.4,62.49c.11.33,0,.45-.36.31l.36-.3Z"/><path d="M35.7.43s0,0,0-.06,0-.19,0-.28l.15.07-.2.27Z"/><path d="M37,76.2a.6.6,0,0,1,0,.23s-.1,0-.16.06l0-.3Z"/><path d="M.79,44l.09-.33.12,0a1.65,1.65,0,0,1-.07.32Z"/><path d="M14.39,69.18l-.13.24-.13-.25,0,0h.28Z"/><path d="M41.55,74.52l.23-.09.07.25Z"/><path d="M8.4,62.5c.37-.09.31.1.17.33l-.17-.34Z"/><path d="M47.67,8.35l.22-.29.11.11-.34.17Z"/><path d="M21.23,74.56l-.29.15-.06-.16.3-.09Z"/><path d="M56.86,31.35l.33.26-.15.13c-.06-.13-.12-.26-.17-.39Z"/><path d="M37,76.2h-.11l-.11-.27C37.12,76.07,37.12,76.07,37,76.2Z"/><path d="M13.44,70l-.1-.34.11-.05.13.34Z"/><path d="M53,16.67h0l.36,0,0,.13L53,16.66Z"/><path d="M12.2,5.06l-.28.11C12.07,4.88,12.07,4.88,12.2,5.06Z"/><path d="M19,74.14l.14.18-.26,0,.1-.19Z"/><path d="M49.73,11v-.26l.1.06-.12.19Z"/><path d="M12.24,68.42c-.07,0-.12.09-.13.08l-.17-.14s.1-.1.12-.09S12.16,68.35,12.24,68.42Z"/><path d="M53.88,17.84l-.15.07s-.06,0-.09,0l.15-.16Z"/><path d="M55.09,64.72l-.16.26h-.06l.14-.3Z"/><path d="M54.21,21.3l0-.44h.08l-.1.44Z"/><path d="M55.52,23.7c.07.05.14.09.14.12s-.06.09-.1.14-.1-.07-.12-.12S55.48,23.77,55.52,23.7Z"/><path d="M18.86,1.37l-.19,0,.13-.19Z"/><path d="M36,76l-.09.34-.12,0L36,76Z"/><path d="M1,21l.09.27Z"/><path d="M5.3,56.61l.16.23a.51.51,0,0,1-.16.09s-.07-.08-.07-.13S5.26,56.7,5.3,56.61Z"/><path d="M17.09,73.12l.39-.09-.34.2Z"/><path d="M49.2,10.17V9.88h0l.08.28Z"/><path d="M7.49,8.55a.94.94,0,0,1,.07.19,1,1,0,0,1,0,.16s-.12-.05-.12-.09S7.42,8.71,7.49,8.55Z"/><path d="M6,58.71l-.34-.12a.59.59,0,0,1,.19-.05S5.93,58.6,6,58.71Z"/><path d="M46.41,6.82l.2-.23.08.12-.29.1Z"/><path d="M25,75.51a.42.42,0,0,1,.08.17s-.06,0-.09.08a1.1,1.1,0,0,1-.09-.14S25,75.57,25,75.51Z"/><path d="M35.69.43V.65l-.12,0L35.7.43Z"/><path d="M54,18.54l0,0a.76.76,0,0,1-.09-.09l.05,0Z"/><path d="M.8,43.15l-.12,0s-.05-.08,0-.12,0-.06.07-.08Z"/><path d="M12.41,67.1l-.26,0s0-.07,0-.07l.23,0Z"/><path d="M12.57,69.08l0,.06,0-.06a.11.11,0,0,1,0-.08Z"/><path d="M12.74,69.45l.24-.11s-.06.11-.1.15-.08,0-.12,0Z"/><path d="M9.49,63.71c-.05,0-.09.06-.12,0a.94.94,0,0,1-.12-.09s.06-.05.08,0A.59.59,0,0,1,9.49,63.71Z"/><path d="M14,70.66l-.06,0s-.05,0-.05-.06a.56.56,0,0,1,0-.12Z"/><path d="M7.77,8.2c.05.09.08.13.07.14a.31.31,0,0,1-.09.07s0-.05,0-.07A.6.6,0,0,1,7.77,8.2Z"/><path d="M47.16,7.13l0,.35-.06-.36Z"/><path d="M42.68,74.37s0,.06,0,.08v0a.06.06,0,0,1,0,0A.25.25,0,0,1,42.68,74.37Z"/><path d="M43.14,74.4v.28l-.08,0c0-.09.06-.18.1-.27Z"/><path d="M41.57,75l-.36,0h0l.37,0Z"/><path d="M43.2,3.65a.31.31,0,0,1-.12.05s0,0-.06-.06a.28.28,0,0,1,.12,0S43.18,3.63,43.2,3.65Z"/><path d="M41.28,75.22l-.08.06-.06-.12s0,0,.06,0A.73.73,0,0,1,41.28,75.22Z"/><path d="M40.46,75.41l-.1.08a.22.22,0,0,1-.09-.1s.06-.07.08-.07S40.41,75.37,40.46,75.41Z"/><path d="M24.39,75.61l-.14.09,0-.07.14-.1Z"/><path d="M5.29,57.22v-.06l.25,0,0,.08Z"/><path d="M42.69,3.08l.2-.09v.18l-.19-.09Z"/><path d="M57.37,31.14l-.12.2a.43.43,0,0,1,0-.16s0-.06.08-.1Z"/><path d="M30.8,75.92l.22.27-.08,0c-.05-.1-.09-.21-.14-.31Z"/><path d="M45.21,32.39l-.35-.13.36-.42.09.23Z"/><path d="M11.64,35.59l.29.16-.3.13Z"/><path d="M43.28,5.92l.25.14-.15.12Z"/><path d="M8.78,59.34l-.15.14,0-.26Z"/><path d="M14.78,19.49s0-.08-.06-.09c-.47-.21-.12-.49-.07-.74s.21-.23.39-.12.16.08,0,.3S14.89,19.25,14.78,19.49Z"/><path d="M40.23,19.12a1.62,1.62,0,0,1,.15.55c0,.14-.31.08-.3-.07s0-.31,0-.46Z"/><path d="M21.83,57.38c.1.2.1.58.52.28-.06.08-.15.24-.18.23a2.92,2.92,0,0,1-.47-.23l.14-.27Z"/><path d="M42.46,64.55c0-.06,0-.13,0-.16l.28-.25.1.14-.29.14a.69.69,0,0,0-.13.11Z"/><path d="M27.56,64.81v-.37l.2,0,0,.36Z"/><path d="M15.93,16.89a.57.57,0,0,1,0,.18,2.45,2.45,0,0,1-.08.37s-.12,0-.11,0a1.85,1.85,0,0,1,.07-.41s.06-.06.09-.09Z"/><path d="M44,28.9l.19-.13c0,.07,0,.18,0,.2a1,1,0,0,1-.26.09V28.9Z"/><path d="M44.34,28.26c.09.41-.18.27-.38.23h0l.13-.1.24-.14Z"/><path d="M15.74,45.79l-.21.33L15.41,46l.2-.31Z"/><path d="M21.84,57.39l.23-.36,0,.42-.27-.07Z"/><path d="M44.42,29.62l-.28-.15s.12-.1.14-.08a1.07,1.07,0,0,1,.19.18Z"/><path d="M41.32,20.29c0,.32-.14.42-.52.44l.53-.44Z"/><path d="M39.74,18.29a1,1,0,0,1-.2.11s-.08,0-.07,0a1.51,1.51,0,0,1,.09-.18Z"/><path d="M41.52,21.68a1.11,1.11,0,0,1,.1.21s0,.07,0,.11-.11-.05-.13-.09S41.48,21.81,41.52,21.68Z"/><path d="M14.63,43.08l.07.33h-.08l0-.33Z"/><path d="M45.06,32.88l.1-.29h.07l0,.31Z"/><path d="M34.22,14.81l-.14.27-.07,0,.11-.3Z"/><path d="M44.64,31.05l.17-.27.07,0c-.05.1-.09.2-.14.29Z"/><path d="M21.13,56.51l-.32.05h0c0-.09,0-.18,0-.3l.29.25Z"/><path d="M43.16,26.54l.16-.25.07,0-.16.25Z"/><path d="M44,28.5h0c0,.14,0,.27,0,.41h0Z"/><path d="M46.38,39.09l.09-.12.14.15s0,.05,0,.05Z"/><path d="M26.94,12.89l-.08-.26c.05,0,.11.06.14.1s0,.09,0,.13Z"/><path d="M16.27,46.86c-.15.07-.21.12-.23.11s-.09-.1-.14-.15H16Z"/><path d="M11.86,35.4l.1-.18c0,.05.09.09.09.14s-.05.09-.09.11S11.9,35.43,11.86,35.4Z"/><path d="M19.51,53a1,1,0,0,1,0,.21s-.05.06-.08.09-.07-.08-.07-.1A1.23,1.23,0,0,1,19.51,53Z"/><path d="M36.27,15.7l.1.1s0,.08-.09.09-.08,0-.08-.08S36.24,15.75,36.27,15.7Z"/><path d="M31.5,16.1l-.07.1a.28.28,0,0,1-.07-.09s0-.06.05-.06Z"/><path d="M15.41,18.2l-.1-.07s.08-.08.13-.08.08,0,.12.06Z"/><path d="M28.74,13.3l-.26.13v-.06l.27-.08Z"/><path d="M47.33,47.06l-.07.13s-.08,0-.08-.08,0-.07.06-.11Z"/><path d="M24.67,12.35s0-.08,0-.09a.41.41,0,0,1,.11-.07s0,0,0,0Z"/><path d="M25.1,11.84l.08.25-.08,0v-.27Z"/><path d="M42.09,23.24l-.06.09a.29.29,0,0,1,0-.09.56.56,0,0,1,0-.12Z"/><path d="M46.61,38.64l-.08.16-.07,0,.17-.09Z"/><path d="M42.3,24l-.14.11a.24.24,0,0,1,0-.1.12.12,0,0,1,0-.08A.9.9,0,0,1,42.3,24Z"/><path d="M42.9,25.17l.15.1s-.06.06-.1.06a.14.14,0,0,1-.1-.07S42.88,25.21,42.9,25.17Z"/><path d="M43.67,27.11l-.05.12a.55.55,0,0,1-.08-.15s.05,0,.08-.08Z"/><path d="M22.66,59s.08-.05.11,0a.08.08,0,0,1,.06.08.18.18,0,0,1-.06.1Z"/><path d="M21.14,56.52l0-.18.09.09-.14.08Z"/><path d="M45.72,33.61l-.17.16,0-.11.23,0Z"/><path d="M39.69,2.68l.09-.39C39.75,2.42,40.09,2.64,39.69,2.68Z"/><path class="cls-1" d="M39,75.92l.18-.35c-.22,0-.55-.22-.65-.13s-.17.46-.26.74a2,2,0,0,1-.18-.61c0-.25-.08-.36-.3-.33s-.12.19-.17.29-.07.21-.11.31l-.33-.21a1.65,1.65,0,0,0-.27-.1c-.11.24-.21.31-.31,0a3.88,3.88,0,0,0-.23.33c0,.09-.07.19-.11.28L36,76h0l-.08-.34-.27.18h0l0-.34-.23.14c-.22,0-.48-.09-.64,0s-.25.36-.37.56l-.33.5c-.07-.05-.17-.09-.2-.17A3.36,3.36,0,0,1,33.7,76h-.11a1.32,1.32,0,0,0-.05.33c.05.29-.11.39-.33.46s-.35,0-.42-.24-.14-.29-.31,0-.39.14-.64.23c.23-.2.37-.34.53-.46a.54.54,0,0,1,.25-.09,3.73,3.73,0,0,1,.43,0c-.42-.53-.79-.54-1.15-.11a1.14,1.14,0,0,1-.25.18.63.63,0,0,0,0-.23.83.83,0,0,0-.17-.21l-.34.32.18-.14-.5-.25s0,0,0,0,0,.05,0,.07h0c-.3.36-.61.17-.77-.1s-.38-.1-.55-.09A1.7,1.7,0,0,0,29,76a.58.58,0,0,1,0,.26c0,.08-.15.14-.23.21l-.17-.28a1.33,1.33,0,0,1-.05-.19s-.08.12-.12.12c-.27,0-.71.09-.79,0s-.28,0-.4-.06h0l-.05-.24L27,76v0l-.36-.26-.26.26a2.83,2.83,0,0,1-.36.16,2,2,0,0,1-.35.07,1.89,1.89,0,0,0,.11-.25.85.85,0,0,0,.06-.17l-.35,0c.09-.26.09-.26-.19-.3,0,0-.05-.09-.07-.14-.12-.48-.8-.29-1-.76a2.81,2.81,0,0,0-.67.07c.49.13-.26.73.44.76a1,1,0,0,0-.3.07c-.06,0-.09.15-.14.22a1.7,1.7,0,0,1-.11-.43c0-.27-.34-.64-.59-.58-.06,0-.1.09-.18.18.13-.69.09-.76-.65-1,0,.21.32.5-.14.62h-.17l-.26-.63-.46.39-.59-.29.07.3h0c-.13,0-.32.08-.37.17-.14.25-.3.19-.45.07s-.09-.24.09-.34.07-.24.1-.37l.36-.1-.33-.06-.29,0-.47-.3,0,0a2.38,2.38,0,0,0-.32-.38,1.11,1.11,0,0,0-.43-.19.37.37,0,0,1-.25-.63.91.91,0,0,0,.15-.27,1,1,0,0,0,0-.29,1.56,1.56,0,0,0-.2.16,2,2,0,0,1-.26.25c-.3.16-.56.3-.09.58,0,0,0,.19,0,.32-.19-.08-.29-.54-.49-.09,0,0-.07,0-.1,0a.66.66,0,0,1,0-.14,6,6,0,0,1,.2-.86c.12-.32-.07-.29-.26-.34s-.34,0-.35.23c0,0-.26.11-.29.07s-.15-.34-.28-.43a1,1,0,0,0-.55-.1,1.49,1.49,0,0,0-.37.13l.05-.44.63-.18.23.37.24-.36h-.48c-.12-.15-.22-.32-.35-.46a.82.82,0,0,0-.28-.14,2.44,2.44,0,0,1,0,.27c0,.16,0,.32,0,.48.11-.14-.53.12-.12-.22.05,0,0-.25-.06-.4a3.52,3.52,0,0,1-.38.25.93.93,0,0,1-.24,0l.12-.22h0l.16-.07c-.16-.33.08-.8-.36-1h0L14.28,69l-.17.19,0,0c-.56.31-.72.28-1-.18.67.07.68.07.6-.47h-.19l-.18-.33-.34.59.09.06.37-.27-.34.43c-.35-.16-.34-.67.06-.93.25-.16.25-.29.1-.47l-.48.18c0-.17,0-.28-.06-.39s0,0-.05-.08.44-.1.1-.3c-.08-.05-.24,0-.37.09h0l.05-.93a1.49,1.49,0,0,1-.36,0c-.16,0-.26-.06,0-.16,0,0,0-.15-.06-.16-.3-.12-.38-.29-.18-.55a3.33,3.33,0,0,1,.39-.35c.07-.06.18-.12.18-.16a.78.78,0,0,0-.14-.27l-.18.19-.05,0a2.17,2.17,0,0,1,.12-.36c.13-.27.08-.44-.23-.51-.06,0-.11-.07-.16-.1a1,1,0,0,0,.16-.12c.07-.12.14-.25.2-.38s0-.15,0-.15c.28-.08.56-.14.84-.2a1,1,0,0,0-1.46.18c-.07.07-.21.08-.33.13l0-.11a3.55,3.55,0,0,0-.08.47c0,.08,0,.22,0,.25a.4.4,0,0,1,.07.67l-.21.27c0-.1,0-.24,0-.29s-.32-.33-.5-.35-.39,0-.27-.34.06-.41-.28-.34a2.54,2.54,0,0,1-.49,0c.06-.17.51-.34,0-.52-.13,0-.18-.33-.26-.51,0,0,0,0,0,0-.35-.09-.36-.46-.56-.67h0a.79.79,0,0,0-.3-.62c-.12-.12-.06-.38-.11-.57s.1-.45-.27-.27c0,0-.17-.18-.26-.28s0-.15,0-.23l-.17,0,.15.21c-.44,0-.27-.51-.51-.68a.63.63,0,0,0-.31-.15,3.85,3.85,0,0,0,.08-.47c0-.23,0-.23-.23-.21H6.61c-.17-.32-.34-.64-.49-1,0-.06,0-.16.08-.24-.14,0-.27,0-.4.08s-.08.09-.12.13h0c-.18-.21.19-.29.11-.59a2.39,2.39,0,0,0-.75-1.41s-.12-.15-.1-.19c.2-.34-.13-.52-.22-.77H4.65l.14-1.31-.3.27s-.08-.06-.07-.07c.19-.37-.21-.49-.32-.73a8.65,8.65,0,0,1-.44-1.05c0-.17-.11-.53.32-.43l.1.17.1-.06L4,51.24C4,51,4,50.9,3.72,51a.75.75,0,0,1,0-.16l0-.74.07-.33-.11,0-.08.36c-.14.26-.25.58-.65.35h0c0-.18,0-.35,0-.53s-.24-.41-.51-.27c-.06,0-.14,0-.22,0s0-.22,0-.22c.47,0,.35-.4.46-.63l-.5-.05c.06-.12.14-.23.19-.35a.46.46,0,0,0,0-.2c-.24-1-.46-1.9-.72-2.84-.18-.64-.44-1.25-.6-1.89-.08-.33,0-.69-.06-1S.8,41.51.68,41,.16,40.3.59,39.85c.05-.05-.08-.26-.09-.39A2,2,0,0,1,.55,39s.19,0,.28,0l.68-.1v-.11c-.06,0-.14,0-.17,0-.19.15-.26.16-.39-.09a1.17,1.17,0,0,0-.59-.57c-.28-.1-.17-.27-.18-.42s.24-.41-.07-.57a.4.4,0,0,1,.07-.19c.12-.17.06-.14,0-.37a1.72,1.72,0,0,1,0-.75c0-.1.08-.28.06-.29-.35-.19-.11-.42-.08-.64a9.24,9.24,0,0,0,.06-1,12.67,12.67,0,0,0,0-1.63c-.08-.66,0-1.33-.07-2a1.61,1.61,0,0,1,.13-.58s0-.1,0-.12c-.3-.47,0-1-.07-1.41-.11-.66.33-1.24.11-1.87,0,0,.06-.12.1-.18s.22-.33.34-.49L.6,25.48l-.29.2c.07-.14.09-.29.17-.33.34-.17.32-.49.4-.79S.75,24,.77,23.77s.23-.38.39-.55.2-.07.27-.13a3.7,3.7,0,0,0,.33-.36l-.06.46s0,0,.05.08a.6.6,0,0,1,.13.79.64.64,0,0,0,0,.2c.08,0,.18,0,.23-.07s.32-.39.5-.56.17,0,.3-.05c.06-.31.06-.29-.37-.41a.32.32,0,0,1-.21-.27c0-.16.16-.28-.12-.38a.54.54,0,0,0-.63.05,8.23,8.23,0,0,1-1.06.59,4.41,4.41,0,0,1,.16-.93c0-.09.32-.13.47-.11.39.07.32-.1.25-.35,0-.09,0-.21,0-.32l.06.12.21.31a2.43,2.43,0,0,0,.44-.47c.07-.12,0-.31,0-.47-.06,0-.14,0-.18,0s-.36.32-.54.48l-.35.17v-.38L1,21c.23-.13.32-.28.09-.44-.07-.2.48.17.15-.24,0,0,.08-.1.1-.16A.26.26,0,0,0,1.36,20a.58.58,0,0,0-.1-.19l.18,0a.06.06,0,0,0,.05,0c0-.19,0-.38,0-.58.32,0-.05-.61.43-.43,0,0,.05,0,.06-.08.11-.28.21-.56.33-.84a1.21,1.21,0,0,1,.14-.2c0,.09.07.18.09.26a.39.39,0,0,0,.12.2c0-.35,0-.71,0-1.06s.3-.24.39-.42c.19.35.32-.07.49-.06s.14-.22.22,0a.72.72,0,0,0,.11-.19c0-.1,0-.27,0-.29s.27-.06.33,0c.24.22.29,0,.32-.14s.09-.62.14-1l-.51.4A6.6,6.6,0,0,1,4,14.48a2.39,2.39,0,0,1,.18-.6,2.89,2.89,0,0,0,.06.49c0,.07.13.12.2.18a.5.5,0,0,0,0-.21c0-.17-.16-.35-.12-.49.13-.44.33-.86.5-1.29l.2.12.29-.1-.05-.12-.24.23c.14-.29.31-.58.43-.88s.17-.53.28-.79c0-.07.15-.09.27-.15s.17-.32.29-.51A2.7,2.7,0,0,1,6.59,10s.08,0,.12,0,.2-.06.24-.12a4.9,4.9,0,0,1,.89-1c.24-.27.42-.58.66-.86s.19-.48.54-.38c.05,0,.14,0,.19-.09.28-.29.54-.59.81-.89.05,0,.11-.13.18-.13.65-.1.53-.75.82-1.07l.58.17.3-.39.28-.11.36-.46h0c.09,0,.25,0,.25-.05,0-.52.47-.47.71-.71a2.2,2.2,0,0,0,.3-.31c.1-.15.07-.46.4-.26a.65.65,0,0,1,.11-.15c.14-.13.29-.36.44-.37a2.79,2.79,0,0,0,1.34-.58c.09-.05.22-.42.37,0,0,0,.06,0,.07,0,.19-.14.36-.3.55-.43a.43.43,0,0,1,.24,0c0,.4.18.33.43.19A.49.49,0,0,1,18,2c.41,0,.64-.12.65-.56l.19,0a.58.58,0,0,1,.77-.28c.14,0,.34,0,.52-.08L21.24.78c.09,0,.2,0,.3.06.38.09.69-.15,1-.21a3.07,3.07,0,0,1,.68,0s.09.07.11.06A2.47,2.47,0,0,1,25,.47c.22,0,.46-.14.69-.16a6,6,0,0,1,.73.06c.15,0,.38.11.45,0,.23-.25.59.08.78-.21.2.41.58.16.82.15a15.28,15.28,0,0,1,2,0c.48,0,1-.07,1.46-.07A11.11,11.11,0,0,1,33.14.4l.17,0c0-.38.36-.11.53-.21s.36-.08.35.22c0,0,.08.11.12.16s.14-.09.13-.14c0-.29.11-.17.24-.1C35.05.56,35,.26,35,0l.15.06c-.06.19-.14.39-.18.58A2.3,2.3,0,0,0,35,1a.86.86,0,0,1,.28-.1,5,5,0,0,1,.87.1c.31.08.59.21.76-.23.1-.24.67-.09.63-.06-.28.25.07.19.11.27s.07,0,.08,0c.53-.48.85.22,1.3.24.26,0,.5.25.75.38a.34.34,0,0,1,.09.08c0,.07,0,.16,0,.21a.26.26,0,0,0,.2.05,1,1,0,0,0,.25-.07c.07,0,.19,0,.2,0,.14.25.26.5.39.77l.89-.17c0,.13-.06.29-.09.46s0,.11,0,.12c.26.09.51.18.77.25,0,0,.11-.16.16-.24h0s0,.09,0,.13c-.15.43,0,.73.42.86,0,0,0,.11,0,.17s0,.35,0,.52a2.84,2.84,0,0,1,.31-.06l.24,0-.13.11c0,.13-.05.26-.07.4-.12-.05-.27-.16-.31-.13a3.78,3.78,0,0,0-.48.5s0,.16.05.2.13,0,.19,0,.12-.07.16,0a1.3,1.3,0,0,1,.22.19l.1.26a2.65,2.65,0,0,1,.5.27c.22.18.59.24.55.66s.21.35.44.34.16-.12.24-.18l.12.3-.13.1.59.66,0-.18c.07-.41-.4-.34-.5-.6.17-.26.12-.4-.19-.53s-.58-.3-.47-.72c0,0-.15-.08-.21-.14a4.63,4.63,0,0,1-.71-.69c-.12-.16-.09-.42-.13-.64.26,0,.47,0,.51.37s.27.34.54.24c0,0,.16.08.17.13.07.56.48.72.94.84a1.88,1.88,0,0,1,.44.24l-.19.15-.17.08.16.17V6.79l.5,0h0a1.1,1.1,0,0,0-.14.26c0,.12,0,.25,0,.37l.21-.06.4-.13,0,.4-.26,0,0,.47L47,7.92l.25.06c-.05,0-.13.07-.15.12a4,4,0,0,0-.12.46l.73-.21h0a1.16,1.16,0,0,0,.1.28,1.81,1.81,0,0,0,.18.21h-.28v.08c.18.06.37.1.55.18s.08.13.12.2a.61.61,0,0,0-.18,0c-.1,0-.21,0-.31,0a2.3,2.3,0,0,0,0,.26c.06.36.12.73.2,1.09a3,3,0,0,0,.2.49l-.17.15c-.14-.28-.27-.56-.42-.84,0,0-.08,0-.11,0a1.49,1.49,0,0,0-.14.12c.29.19.2.73.69.73.13.3.25.6.39.89a.2.2,0,0,0,.14.06c.06,0,.14-.13.13-.16-.14-.32-.29-.63-.44-.93,0,0-.06,0-.09,0,0-.25-.12-.52.44-.37.36.09.75,0,1,.35h0c-.14.14,0,.61-.47.37l.16-.18a1.82,1.82,0,0,0-.33,0s-.06.06-.09.09l.28.08a1.37,1.37,0,0,1,.06.44c-.09.43.18.44.47.5s.25.17.37.26c-.08,0-.18.07-.26.12a.22.22,0,0,0-.08.15c0,.13,0,.26.05.39l.21-.15.16-.13a.89.89,0,0,0-.06.2c0,.05.05.1.08.15s.12-.08.12-.12c0-.24,0-.48,0-.72a1.6,1.6,0,0,1,0-.23c0,.06.09.12.13.19a2.73,2.73,0,0,1,.27.47,2.24,2.24,0,0,1,.06.52c0,.15,0,.3-.06.53l-.23,0a4,4,0,0,1,.17.36c0,.13.07.27.11.41l.11.09c.08.42.33.59.71.38.1-.05.07-.32.1-.49h0c.09.11.19.22.27.34.24.32.48.64.69,1,.06.1,0,.27.06.39s.13.16.21.24h0a.54.54,0,0,1-.41.74.51.51,0,0,0,0-.22.42.42,0,0,0-.18-.14s-.12.09-.11.12a.42.42,0,0,0,.13.21s.14,0,.22,0l-.06.33c.1,0,.21,0,.31-.09l.64-.29a5.92,5.92,0,0,1,.1,1,.75.75,0,0,0,.32.64.38.38,0,0,1-.07.18.26.26,0,0,1-.15-.05,1.71,1.71,0,0,1-.2-.18v.23l-.14,0-.09-.43a2.17,2.17,0,0,1,0-.25c-.1,0-.23,0-.28.11s-.13.26-.09.32a2,2,0,0,0,.4.37c-.09.16-.23.3-.24.47a1.24,1.24,0,0,0,.08.69c.07.14.09.51.44.35,0,0,.07.08.06.09-.17.36,0,.45.33.55.07,0,.1.38,0,.52-.23.46.09.47.38.5,0,.06,0,.11,0,.11l-.39.09a1.93,1.93,0,0,1,.22.28,3.24,3.24,0,0,0,.16.47c.1.14-.08.49.3.44,0,.11,0,.22,0,.33,0,.33-.08.65-.11,1l.19,0,.5.09c-.2.31-.38.6-.58.88s-.13.54.19.72a1.39,1.39,0,0,1,.43.37c.12.15.11.28-.15.28-.07,0-.21.13-.2.17A1.52,1.52,0,0,0,55,28a2,2,0,0,1,.1-.26.2.2,0,0,1,.13-.09.2.2,0,0,1,.1.12c0,.16,0,.33,0,.49s.07.07.11.1,0,0,.08,0c.06.49.64.67.67,1.21a1.85,1.85,0,0,0,.48.9c.17.21.24.28,0,.36-.38.15-.46.37-.32.66l.41-.36.1.24h0c0,.17-.16.46-.1.51.41.3.12.75.27,1.2l.07-.33.25.4h0c0,.17-.06.48-.05.48.35.07.12.22.08.35s0,.13.07.19,0,.26.07.39l.21-.19-.3-.18.49-.86h0c.06.09.1.2.18.25s.18,0,.26,0a1.79,1.79,0,0,0-.2.26c-.06.13-.16.31-.12.42a1.12,1.12,0,0,1-.4,1.41.26.26,0,0,0-.07.23.34.34,0,0,0,.23.16c.05,0,.12-.11.17-.18a1.22,1.22,0,0,1,.25-.31c-.19.43.38.93-.16,1.33l0-.51c-.3-.36-.35.83-.76,0,0,.22,0,.44,0,.66a.68.68,0,0,0,.12.22c.32-.16.27.13.37.27s.2.11.32.17a2.55,2.55,0,0,1,0-.54c0-.09.16-.16.24-.24,0,.1.12.18.12.28s0,.39,0,.59l-.26.13.06.1.23-.2c0,.34.15.66,0,1-.1.19.07.53.15.79a2,2,0,0,1,0,1.43,2.63,2.63,0,0,0-.06.75.28.28,0,0,1-.12.16c-.3.14-.35.3-.23.6a.5.5,0,0,1,0,.4c-.21.37-.09.58.27.71h0c-.52.13,0,.53-.2.75h.46c0,.51-.1,1.06-.09,1.6,0,1,.07,2,.06,3.07a3.18,3.18,0,0,1-.26.81c-.08.28-.35.59.09.81-.2.11.33.36-.09.46,0,0,0,.3,0,.45-.05.36-.13.71-.19,1.07,0,.08,0,.18,0,.27.05.4.34.79.09,1.23,0,0,0,.14,0,.2,0,.34,0,.67-.07,1-.07.56-.1,1.13-.22,1.67a2.6,2.6,0,0,1-.44.77,1.31,1.31,0,0,1-.2.21c.08,0,.2,0,.22,0a1.1,1.1,0,0,1,.19.53,1.39,1.39,0,0,1-.25.52,1.63,1.63,0,0,0-.32,1,4,4,0,0,1-.26,1.21c0,.07-.19.17-.24.15a1.5,1.5,0,0,1-.31-.31,3.25,3.25,0,0,0-.25.45c0,.09,0,.21,0,.32a.59.59,0,0,1,.2-.12.58.58,0,0,1,.21.05c-.16.24.13.66-.33.81-.09,0-.14.19-.19.31-.1.28-.2.54-.59.45-.05,0-.14,0-.19.1s-.17.41-.46.23a1.63,1.63,0,0,0-.19.34,4,4,0,0,1-.13.77,1.25,1.25,0,0,1-.43.58,1.39,1.39,0,0,0-.53,1,3.24,3.24,0,0,1-.45.71c-.2.31-.49.58-.4,1s-.05.47-.43.39c-.09,0-.25,0-.29.06a3.28,3.28,0,0,0-.34.64s.13.18.11.19a2.78,2.78,0,0,1-.53.5c-.45.32-.91.6-1.31.86-.1,0-.27,0-.35-.14a2.09,2.09,0,0,1-.28-.51l.14-.21-.1,0,0,.27c-.27-.26-.47,0-.59.16a3,3,0,0,0-.36.74s0,0,0,.09a1.33,1.33,0,0,1,.05.34c0,.19,0,.44-.14.53s-.42,0-.56.06a14.44,14.44,0,0,1-1.22.88,7.88,7.88,0,0,1-1.6.52c-.25.06-.74.45-.74.68-.2-.09-.41-.27-.6-.25s-.35.25-.52.4l.07.11h0a1.33,1.33,0,0,1-.21-.09c-.08,0-.17-.19-.22-.18a1,1,0,0,0-.35.22,1.79,1.79,0,0,0-.2.26.64.64,0,0,0,0-.24c0-.07-.12-.12-.18-.18l-.2.25-.23.09c-.22,0-.4.12-.35.4h0c-.24-.09-.5-.31-.68.09,0,0-.11.11-.13.09-.4-.21-.45.26-.69.34,0,0-.08,0-.11,0s-.28.11-.27.13c.09.39-.23.24-.39.31Zm10-46v.38l.16,0-.16-.36-.4,0a.67.67,0,0,0,0,.16l.34-.13S48.91,30,48.94,29.94ZM17.57,51.46l-.09.47.14,0-.05-.49-.05-.39C17.28,51.38,17.28,51.38,17.57,51.46Zm-1.52-1.77.08.38.37.26,0,.43.12.05.21-.59c-.17-.2-.42-.13-.63-.19l-.1-.36a1.08,1.08,0,0,0,0-.18c0-.07,0-.14,0-.21s-.16,0-.18.07,0,.13.05.19A1.06,1.06,0,0,0,16.05,49.69ZM29.29,12.88h-.08l-.29-.34-.05-.32c-.11,0-.27,0-.3.09s0,.23,0,.35l.28-.07c0,.22,0,.5.36.28l-.21.28c.38.05.38.05.27-.29l.21-.12-.07-.08Zm2.06,1.27-.25-.08,0,.2.24-.07-.1.32.42.21Zm-4.67-2.51L27,12c0-.07.11-.15.09-.19s-.17-.23-.25-.35l-.12.14c-.06,0-.12-.06-.17-.05a3.4,3.4,0,0,0-.34.16s.07.1.08.09a2.72,2.72,0,0,0,.35-.16Zm9.84,3.13a1.54,1.54,0,0,0,0-.3,1.11,1.11,0,0,0-.13-.27s-.07,0-.11,0a2.29,2.29,0,0,0,.07.28,2.39,2.39,0,0,0,.13.28l.4.55a1.45,1.45,0,0,0-.09.22c0,.13,0,.26-.07.39-.07-.1-.19-.19-.22-.3-.09-.38-.32-.39-.62-.31l-.1,0c-.07-.53-.38,0-.54-.13s-.35-.34-.52-.33-.45,0-.47-.29a1.09,1.09,0,0,1,0-.18.51.51,0,0,0-.22.11,1.6,1.6,0,0,0-.16.27l-.08-.28c-.29.15-.57.39-.89,0-.27.26-.18-.07-.22-.15a1.3,1.3,0,0,1-.08-.34l.24.28h.06l-.1-.35-.2.1-.21.31-.29.42-.41-.13,0,.13h.43c0,.06.07.16.13.18a1.45,1.45,0,0,0,.3,0l0,.12-.7-.14c-.25,0-.5-.33-.7,0-.12-.14-.32-.27-.36-.43s.08-.38.15-.64l-.35.17a.82.82,0,0,0,0-.27,1.51,1.51,0,0,0-.15-.28c-.06,0-.17.08-.17.12a.41.41,0,0,0,.11.24,1.16,1.16,0,0,0,.2.18l-.24.68h-.08l-.14-.84-.39.22-.11-.46.39-.44c-.53-.21-.4.18-.41.45l-.56-.07,0,.29a3.65,3.65,0,0,1-.24-.31,1,1,0,0,1-.09-.24h0l-.5-.24-.68-.31c-.32-.15-.19-.45-.2-.72-.35.14-.66.52-1,0,0-.06-.22,0-.33,0s-.21,0-.23-.06c-.22-.46-.49-.12-.74-.07h0l.07-.5-1,.54a4.56,4.56,0,0,1,.25-.43l.13-.17c-.09,0-.19-.08-.27-.06s-.41.17-.59.14a.48.48,0,0,0-.62.39,3.74,3.74,0,0,1-.23-.44.75.75,0,0,1,0-.26,2.75,2.75,0,0,1-.26.22c-.11.07-.25.18-.35.16-.39-.08-.52.25-.75.42s-.13.18-.22.21a2,2,0,0,0-1.15.71,4.55,4.55,0,0,1-.69.62c-.17.17-.3.55-.53,0,0,0-.13,0-.19-.06a.47.47,0,0,1,.06.15.24.24,0,0,1-.07.16c-.21.24-.88,0-.68.7l-.23.08,0,0,.21-.12.37-.12c-.17.21-.27.47-.41.48s-.4.48-.75.33c0,.09,0,.22,0,.26.22.24.06.38-.12.51l-.41.26A.74.74,0,0,1,16.6,16c-.13-.22-.22-.56-.53-.15,0,0-.13,0-.17,0a1.85,1.85,0,0,0-.37.37c0,.05.09.19.16.28s.16,0,.17-.06c.13-.54.49-.47.87-.36,0,.12.16.31-.15.28-.06,0-.19.08-.18.12,0,.37-.23.38-.47.4h0l0-.15-.27,0-.27.11.18,0c-.11.13-.21.27-.31.4s-.16.12-.18.2S15,18,15,18.21a2.51,2.51,0,0,1-.19-.67.17.17,0,0,0-.11-.11s-.07.05-.09.08a6.16,6.16,0,0,0-.68,1.39c-.19.78-1.12,1.23-.93,2.16a.08.08,0,0,1,0,0,1.56,1.56,0,0,0-.44.93c-.22.9-.54,1.78-.81,2.67a2,2,0,0,0-.19.73c.09.59-.23,1.12-.1,1.74.16.83-.06,1.74.12,2.57s-.17,1.63.15,2.41c0,.06-.12.18-.19.28v.08a.59.59,0,0,0,0,.13l0-.22c.17.16.3,1.09.16,1.11-.54.06.05.29-.08.39-.24-.2-.34-.09-.46.2l.46-.2.39-.45a4,4,0,0,1,.15.53.71.71,0,0,1,0,.32c-.14.42-.3.85-.45,1.27v.29l0,.33a2.07,2.07,0,0,0,.25-.15l.48-.36.08.09L12.3,36c-.08.09-.38.17,0,.26,0,0,0,.08,0,.13,0,.58,0,1.15,0,1.73,0,.11.14.21.22.32l.07.05c0-.07,0-.17.07-.21a1.45,1.45,0,0,1,.34-.2c-.06.25,0,.52-.14.57-.63.3,0,.62,0,.82s.22.22-.11.37c.21.09.67,0,.42.39s0,.34.17.46,0,.13.06.2l-.13.32.2,0,0-.32.29,0c0,.14-.14.39-.11.41.23.12.13.16,0,.23s-.14.16-.12.2.17.24.2.23c.28-.14.19.06.19.19A2.73,2.73,0,0,0,14,43c.13.37.35.7.49,1.07,0,.12,0,.28,0,.42s0,.33.07.33a3.69,3.69,0,0,0,.62-.06c-.31.48,0,.92.2,1.39l.37,1c-.35-.16-.84,0-.58-.51,0,0-.12-.13-.15-.12a.25.25,0,0,0-.16.16c0,.09.07.21,0,.28-.12.28.27.44.15.7a1.06,1.06,0,0,0,.21-.16c.06-.07.08-.19.15-.25a3.31,3.31,0,0,1,.94.54c.1.33.1.33.5.32-.07.16-.12.31-.19.45a3.19,3.19,0,0,1-.23.32l.1.08.57-.3c0,.19.06.43,0,.5-.26.23,0,.43,0,.62a3.19,3.19,0,0,0,.19.62c.07.17.15.34.22.5a1,1,0,0,1,.24-.23,2.87,2.87,0,0,1,.44-.14c-.05.29-.49.31-.27.68.12.2.08.48.19.7s.36.45.47.71,0,.52,0,.52c-.56.1-.45.41-.25.76.17-.11.41-.38.41.13,0,0,.09.1.12.09.26,0,.52-.11.77-.16l.26,0c0,.08-.09.15-.12.22a1.42,1.42,0,0,0-.15.57c0,.16.23.28.34.42s.12.19.18.28l.12-.3.29.84.09,0,.2-.57c.21.16-.23.56.27.53,0,0-.05.11-.09.13a3.84,3.84,0,0,1-.35.18l.27.42h0l.29.8.11,0v-.55h.08l.49,1.64.72,0-.12.68c.15.09.29.18.43.25s.41.44.77.31c.05,0,.39,0,.12.24,0,0,0,.13.06.18a1.48,1.48,0,0,0,.51.11.56.56,0,0,1,.19.1L23.8,61l.54.11a1.12,1.12,0,0,1,.07-.41s.26,0,.29,0,0,.23,0,.35-.19.49.11.78.34-.19.5,0a1.21,1.21,0,0,0-.28.21.25.25,0,0,0,0,.25c.05,0,.17,0,.25,0s0-.11,0-.16v-.32l0-.09h0c.1.22.47.42,0,.7a.35.35,0,0,0,0,.33,9.74,9.74,0,0,0,1,.72c.12.09.36.25.27-.15,0-.06.12-.16.23-.31,0,.26,0,.42,0,.57s-.05.1-.07.15v.25l.14-.1s.12.08.13.13c.06.31.07.63.16.93a1.33,1.33,0,0,0,.35.52s.25-.16.39-.23a.68.68,0,0,1,.28-.07l.29,0L28.32,65s-.11-.09-.1-.1a.58.58,0,0,1,.12-.2L29,65c.11.06.3-.35.43.16,0,0,.15.11.17.09.26-.19.17.15.29.18l-.29.36s-.11-.11-.1-.12c.22-.33-.23-.23-.25-.39a1.67,1.67,0,0,0-.23.23,2.35,2.35,0,0,0-.17.44.24.24,0,0,0,.07.19c.3,0,.6.2.89,0s.41-.23.6-.36.35-.34.58,0c0,.07.25,0,.38,0a1.64,1.64,0,0,1,.23,0l.55.22.42.14a1.26,1.26,0,0,0-.24.22,2.11,2.11,0,0,0-.2.4,2.09,2.09,0,0,1,.47-.24c.52-.09.52-.08.27-.52.14.11.53-.06.37.36,0,0,.11.07.17.11a.44.44,0,0,0,.08-.15,3,3,0,0,0,0-.45c.36.3.67.52,1.11.34.18-.07.44,0,.6-.05s.28.16.41.15a9.52,9.52,0,0,0,1.05-.16c.53-.1,1.07-.19,1.58-.34s.73,0,1.09-.25c.17-.14.62,0,.88-.27a.18.18,0,0,1,.13,0c.29.23.39,0,.47-.21,0-.09.08-.24.15-.25.48-.11,1-.18,1.46-.26v0l.11.28a1.15,1.15,0,0,1,.19-.14c.59-.28.56-1.13,1.24-1.31a.26.26,0,0,0,.12-.19,2.66,2.66,0,0,1,.94-1.52,1.48,1.48,0,0,0,.45-1,.54.54,0,0,1,0-.22A5.66,5.66,0,0,0,46.11,59a.89.89,0,0,1,.27-.4c.26-.29.55-.55.81-.84.05-.06,0-.19,0-.28h-.16l-.33,0,.15-.24a.6.6,0,0,0,.06-.11c.08-.62.16-1.25.26-1.87,0-.1.15-.17.22-.27s.18-.3.27-.45l-.41-.08c.09-.81.24-1.66.25-2.5,0-1-.12-2.05-.18-3.07a1.88,1.88,0,0,1,0-.58c0-.12.16-.22.25-.34l-.31-.11s0,0,0-.07a6.18,6.18,0,0,0,.1-1.65c-.07-.36.24-.86-.27-1.13,0,0,.06-.22.08-.34a.5.5,0,0,0,0-.21s-.1-.08-.09-.11a2.78,2.78,0,0,0,.12-.68A4.56,4.56,0,0,0,47,43c0-.08,0-.2,0-.26a.84.84,0,0,0,0-1l.14.16.12-1c.1,0,.19.09.29.12a.37.37,0,0,0,.21,0,.24.24,0,0,0,.05-.15c-.11,0-.22-.13-.32-.12s-.14.12-.21.18a1.28,1.28,0,0,1-.23-.29c0-.07,0-.24,0-.25-.35-.08-.26-.41-.27-.59s-.06-.63.3-.8l.34-.15L47,38.69l-.36,0,0,0c0-.39.06-.79,0-1.18,0-.1-.17-.3-.21-.29-.57.15-.37-.39-.32-.46.23-.27,0-.41-.15-.57h.32a2.16,2.16,0,0,0-.21-.29s-.14,0-.21,0a.15.15,0,0,1-.11-.08.12.12,0,0,1,0-.13.17.17,0,0,1,.14,0c.3.09.47-.07.41-.4a2.92,2.92,0,0,0-.13-.34c0-.09-.06-.19-.09-.28a1.3,1.3,0,0,0-.29.22,1.27,1.27,0,0,0-.13.32c.15-.28-.35-.67.15-.93,0,0-.09-.42-.14-.64h0c0-.14,0-.27-.08-.4l-.24-.95-.1-.2-.09-.23a2.28,2.28,0,0,0,0-.52c-.11-.49,0-1.06-.49-1.4a.22.22,0,0,1-.1-.17,3.46,3.46,0,0,0-.3-1.49h0a4.7,4.7,0,0,1-.29-.7c-.06-.2,0-.44-.08-.64s-.3-.53-.4-.82-.12-.6-.21-.89c-.29-.88-.59-1.75-.9-2.63-.05-.13-.21-.21-.27-.34-.14-.35-.23-.72-.38-1.07a7.58,7.58,0,0,0-.49-.88h0a2.23,2.23,0,0,0-.15-.52c0-.08-.18-.16-.2-.28a1.46,1.46,0,0,0-.17-.29,1,1,0,0,1-.17-.3c-.07-.37-.52-.53-.53-.95,0-.11-.15-.22-.22-.34s-.21-.61-.36-.63c-.44-.06-.24-.33-.31-.54s-.32-.26-.5-.39a.15.15,0,0,1,0,0c-.24-.31-.21-.81-.68-1-.12-.16-.25-.32-.38-.47s-.12,0-.12.06a2.93,2.93,0,0,0,.06.67c0,.06.27,0,.42,0-.11.27-.32.2-.44.06-.32-.35-.39,0-.49.17a.79.79,0,0,0,0,.24c0-.17-.1-.34-.15-.52C37,14.87,36.92,14.73,36.52,14.77Zm4.92,53,.08.22.2-.24c0,.13.08.26.13.39a3.49,3.49,0,0,0,.15.34c.07-.1.18-.18.21-.29a7.05,7.05,0,0,0,.15-.8c0-.06-.08-.12-.12-.18l-.51.55-.31,0a.81.81,0,0,0,.08-.25,1.84,1.84,0,0,0,0-.33s-.14,0-.15.07a.85.85,0,0,0,0,.35C41.27,67.64,41.38,67.68,41.44,67.73Zm1.1-63.2-.13-.37-.12.06.26.3c-.09.08-.25.16-.25.23s.13.21.22.29S42.7,5,42.7,5,42.59,4.67,42.54,4.53ZM26.92,65.79l.15-.06c-.11-.28,0-.69-.51-.7a.76.76,0,0,1,0-.21c.18-.44.18-.44-.26-.48H26c0,.15-.07.35,0,.42a1.89,1.89,0,0,0,.53.27l.32.74-.08.25h.45V65.9ZM39.8,2.3c-.13.1-.44.15-.1.37l0,.28c.1,0,.27-.06.28-.12a2.45,2.45,0,0,0,0-.55ZM52.28,16.67h.24s0-.07,0-.11l-.23.06v-.37l-.28.12-.33.15.42.09A.76.76,0,0,1,52.28,16.67ZM40.37,16l.06.43a.84.84,0,0,0,.3.81s.14,0,.21.06.07-.14.05-.18c-.15-.26-.31-.52-.47-.78L40.37,16a1.82,1.82,0,0,1-.27-.41c-.1-.32-.25-.29-.46-.14a3.22,3.22,0,0,0,.33.38A2,2,0,0,0,40.37,16Zm6.31-6.65c.09-.43-.41-.51-.51-.82a.24.24,0,0,0-.15,0s-.05.09,0,.11l.71.67c-.17.51.32.62.55.9,0,0,.09,0,.1,0s.06-.13,0-.14C47.08,9.94,47.16,9.39,46.68,9.39Zm-37.9,50-.1-.12a1.76,1.76,0,0,0-.16-.4s-.21,0-.29,0-.16.19-.13.24a4.38,4.38,0,0,0,.45.75.62.62,0,0,0,.37.14s.15-.19.13-.24A2.26,2.26,0,0,0,8.78,59.34Zm3-21.88c0-.23.1-.45.14-.68a.66.66,0,0,0,0-.23l-.14.17a.56.56,0,0,0,.05.73,6.46,6.46,0,0,0,0,.88c.07.53.18,1.05.27,1.57,0-.2.87,0,.21-.43v0a4.18,4.18,0,0,1-.11-1.35C12.28,37.64,12,37.62,11.81,37.46ZM52,66.21a1.88,1.88,0,0,1-.2.67c-.33.44-.71.85-1.07,1.28,0,0,0,.08,0,.13l.64-.47c.14.18.26.4.3.39a4.1,4.1,0,0,0,.54-.3l-.57-.46c0-.08.09-.34.23-.4C52.47,66.81,52.27,66.52,52,66.21ZM5.75,53.45l.06-.09a2.07,2.07,0,0,1-.3-.29c-.15-.25-.26-.53-.41-.78s-.19-.15-.28-.22a1.09,1.09,0,0,0,0,.31,4.36,4.36,0,0,0,.57,1.24,4,4,0,0,0,.29.59c0,.07.19.06.3.09a.56.56,0,0,1-.07-.18C5.83,53.9,5.79,53.67,5.75,53.45Zm8.82,14a3.11,3.11,0,0,0,0,.43,2,2,0,0,0,.19.39c.14-.1.34-.18.41-.32s0-.43-.08-.45c-.4-.12-.26-.43-.27-.69-.22.16-.65,0-.6.44,0,.11,0,.23,0,.34ZM49,38.7c0-.28,0-.55-.37-.43s-.46.32-.48.5.19.47.32.69a.42.42,0,0,0,.24-.09C48.83,39.16,48.91,38.93,49,38.7ZM3.56,17.88a2.31,2.31,0,0,0-.75.13,1,1,0,0,0-.43.53,2.73,2.73,0,0,0,0,.82Zm25.17,58c.45-.76.45-.92,0-1.49C28.53,74.86,27.94,75.37,28.73,75.85Zm-15.65-10,.59-.53.21-.2c-.12,0-.25-.06-.34,0-.25.12-.42.14-.52-.18,0,0-.17-.09-.24-.07a4.1,4.1,0,0,0-.41.22s.05.07.08.08C12.83,65.28,12.91,65.63,13.08,65.89Zm18.6,4.27,0,.18a1.13,1.13,0,0,0,.42-.11c.06,0,.06-.22,0-.32s-.2-.42.21-.3c0,0,.19-.26.16-.28A4.25,4.25,0,0,0,32,69c-.05.14-.11.28-.16.43s0,.1,0,.13c-.32.29-.1.43.28.6ZM5.77,50.69c-.15.27-.3.55-.46.82s0,.38.2.36.22-.15.32-.24l.06.17c.05-.06.13-.11.14-.18C6.12,51.28,5.76,51,5.77,50.69ZM54.19,63.17s0-.1-.07-.1-.12,0-.14.07c-.23.39-.47.77-.67,1.18-.05.09,0,.26,0,.39a2.5,2.5,0,0,0,.22-.24,1.27,1.27,0,0,0,.24-.33C54,63.83,54.07,63.5,54.19,63.17Zm-5,1.77-.07,0L49,65l-.34.27a2.49,2.49,0,0,0,.2-.4c.07-.22.11-.45.16-.68l-.15,0a6.88,6.88,0,0,0-.41,1,1.25,1.25,0,0,0,.05.6s.19.06.21,0C48.87,65.49,49,65.21,49.17,64.94ZM16,67.62s-.08-.09-.1-.08-.28.12-.34.23c-.16.28-.25.59-.66.59,0,0-.11.13-.12.21s.08.11.14.12C15.21,68.72,16,68,16,67.62ZM10.51,62l-.18-.09c-.06.12-.13.24-.18.37s0,.1.1.12a.89.89,0,0,1,.38.77.74.74,0,0,0,0,.25c.08,0,.18-.08.23-.15a.65.65,0,0,0-.05-.81ZM52.4,66.2a2.15,2.15,0,0,0,.46-.3,1.46,1.46,0,0,0,.35-.5,1.28,1.28,0,0,0,0-.48s-.07-.08-.1-.12c-.06.13-.1.26-.16.38s-.14.35-.27.42C52.4,65.75,52.32,66,52.4,66.2ZM7.88,58.48l.41-.18a2.83,2.83,0,0,1-.2-.28c-.08-.14-.14-.29-.22-.44l-.09-.2c-.09,0-.26.12-.25.16.06.31.15.61.24.92Zm-2-5.7L6,53l.67-.65a.35.35,0,0,0-.16-.17C6.28,52.09,5.85,52.46,5.84,52.78Zm2.75,8,.05.36s.14-.09.14-.13c0-.34.13-.43.44-.45.08,0,.14-.25.21-.39-.12,0-.26-.08-.36,0A.71.71,0,0,0,8.59,60.81Zm-6-12.92.21.28.18-.3a1.17,1.17,0,0,0,0-.11,1.4,1.4,0,0,0,.09-.3,5.44,5.44,0,0,0-.5-.22c0,.13,0,.27.05.4A1,1,0,0,1,2.6,47.89ZM43.81,15.15l-.17,0a5.37,5.37,0,0,0,.15.8c0,.08.16.13.25.19.05-.13.17-.29.14-.39A3.51,3.51,0,0,0,43.81,15.15Zm4,16.71-.23-.46c-.11.09-.26.16-.33.28a1.43,1.43,0,0,0-.11.43l.31-.06s.09,0,.1,0C47.88,32.42,47.78,32.07,47.84,31.86Zm5.41-13.73c-.2-.15-.3-.29-.42-.3a1.07,1.07,0,0,0-.42.15l.26.49ZM49,31.65l.34-.24a3.07,3.07,0,0,0-.51-.38c-.05,0-.2.18-.3.28ZM2.35,47.1c.16,0,.33,0,.42,0a.74.74,0,0,0,.26-.4s-.1-.14-.15-.22C2.69,46.68,2.27,46.71,2.35,47.1ZM28.5,74.45a5.25,5.25,0,0,0-.75.1s0,.25,0,.38.07.12.12.18c.13-.11.28-.2.4-.31A2.93,2.93,0,0,0,28.5,74.45Zm4.25-4.14c.35-.12.49-.41.32-.65-.07-.09-.23-.12-.35-.17a2.83,2.83,0,0,1,0,.29C32.75,70,32.75,70.11,32.75,70.31Zm-20-29.58.09,0a3.43,3.43,0,0,0-.16-.45s-.16,0-.24,0a1.15,1.15,0,0,1,.06.17c0,.24,0,.49,0,.73a.46.46,0,0,0,.05.23s.13,0,.16,0a.42.42,0,0,0,.11-.22A3,3,0,0,0,12.73,40.73Zm30.1-19.79c0,.07-.12.14-.11.18.08.3.17.59.27.89,0,0,.09.06.1,0s.11-.09.1-.13c-.06-.29-.12-.58-.2-.86C43,21,42.9,21,42.83,20.94ZM13.88,45.22c.16.1.31.25.37.22s.17-.23.26-.35a1.12,1.12,0,0,0-.37-.17C14.08,44.92,14,45.08,13.88,45.22ZM4.36,51.49c.45-.18.47-.23.19-.6,0-.08-.17-.11-.26-.16a1.82,1.82,0,0,0,0,.32C4.28,51.2,4.33,51.34,4.36,51.49ZM47.92,70.16c.45-.31.45-.31,0-.62ZM46.78,36.31c.09-.25.18-.37.16-.48a2.22,2.22,0,0,0-.2-.48c-.06.11-.17.22-.16.33A3.05,3.05,0,0,0,46.78,36.31ZM14.29,44.39a2.09,2.09,0,0,0-.44-.21s-.18.16-.17.21a1.72,1.72,0,0,0,.22.33ZM49.17,27.1a1.58,1.58,0,0,0-.19.32s.15.19.17.18.24-.18.36-.27Zm-45.26-10S3.84,17,3.82,17s-.33.07-.39.17a1.12,1.12,0,0,0-.06.49s.13.05.15,0ZM34,70.61l-.31-.34a1.35,1.35,0,0,0-.17.34c0,.06.13.21.15.2A1.27,1.27,0,0,0,34,70.61ZM16.35,15.43l.22.16L17,15l-.16-.11Zm24.77,2.19c0,.21,0,.35.06.48a1.43,1.43,0,0,0,.08.22c.06,0,.16-.07.17-.12a.55.55,0,0,0,0-.36C41.37,17.74,41.22,17.69,41.12,17.62ZM26.67,3.38c.12-.21.22-.31.23-.42s-.13-.21-.2-.2-.24.11-.24.18S26.55,3.16,26.67,3.38Zm-9.1,49.51a3.31,3.31,0,0,0,.55.08c.06,0,.18-.11.17-.13a2.53,2.53,0,0,0-.2-.36l-.09,0C18.14,52.92,17.75,52.74,17.57,52.89ZM2.43,38.19c-.11-.12-.17-.23-.25-.26s-.21.14-.2.16a2.08,2.08,0,0,0,.24.34ZM31,66.2c-.14-.12-.23-.23-.34-.26s-.16.08-.25.13a1.92,1.92,0,0,0,.32.26S30.87,66.27,31,66.2ZM18.46,55.75c0-.18,0-.28,0-.34a2.11,2.11,0,0,0-.32-.35s-.07,0-.11,0,.11.25.18.37A3.05,3.05,0,0,0,18.46,55.75ZM13.22,41.49c-.06,0-.11-.09-.14-.08l-.5.17.18.3ZM5.73,14.17l-.55.42.49.1ZM45.45,29.48l-.4-.4s-.06.1,0,.12l.32.48ZM7.3,42.54c-.16-.07-.32-.19-.4-.15-.31.17,0,.28.07.43ZM24.08,74.23l-.19-.31a1.44,1.44,0,0,0-.19.37c0,.07.08.16.13.24ZM2.34,20c-.06,0-.15-.1-.16-.09a.75.75,0,0,0-.21.26s.07.12.11.19Zm42.78-4.38a4,4,0,0,0-.39.36.29.29,0,0,0,0,.18c.09,0,.27.06.27,0A3.43,3.43,0,0,0,45.12,15.61Zm-17,52.11.13.07.32-.58C28,67.07,28.33,67.6,28.11,67.72Zm19.25,4.46.11,0,.2-.75-.12,0c0,.13-.08.25-.11.37S47.39,72.05,47.36,72.18ZM28,12.66l.27-.51-.15-.07c-.1.16-.18.34-.27.51ZM37.92,1.78l.16.12c.09-.13.19-.25.27-.39s-.06-.08-.09-.12Zm-35,42-.19-.23c-.06.15-.13.3-.18.46s.06.09.09.13Zm1.31,7.83-.15,0c.06.22.11.44.18.65,0,0,.07,0,.11,0l-.12-.53A.68.68,0,0,1,4.22,51.58Zm-2-26.19c-.16-.08-.25-.17-.32-.16s-.14.12-.21.19.12.16.17.15A1.3,1.3,0,0,0,2.24,25.39Zm31.2,42.15.06-.14-.42-.17s-.06.09-.1.13ZM42.28,71l-.17-.19c-.06.07-.16.14-.17.21s.08.16.12.24ZM39.4,14.59l-.2.6C39.59,15,39.59,15,39.4,14.59Zm-20,41.22.09,0,0-.47-.25.08Zm-3.79-8.2c-.52.14-.53.15-.3.52ZM47.14,33.84h.13l.11-.45c-.06,0-.17,0-.17,0S47.16,33.69,47.14,33.84ZM5,50.36l.41-.3c-.06,0-.13-.08-.17-.07a2.14,2.14,0,0,0-.32.2A1.65,1.65,0,0,0,5,50.36ZM47,61.11l.07.16.39-.18s0-.11,0-.11ZM33.26,68.39l-.14-.1-.24.37.11.08ZM2.18,46.52l.18,0c0-.14.07-.28.09-.43s-.08,0-.12-.07ZM41.69,3.68V3.6a1.17,1.17,0,0,0-.2-.06,1.53,1.53,0,0,0-.37,0,.88.88,0,0,0,0,.14l.29,0Zm8.52,24.58c0-.09.11-.16.1-.2a1.38,1.38,0,0,0-.17-.25s-.14.1-.14.12S50.13,28.13,50.21,28.26Zm-36,36.81c0,.12-.08.18-.07.24s.08.1.13.15.09-.13.09-.19S14.33,65.17,14.25,65.07ZM16.4,49.54l-.09.09.28.32s.09-.12.08-.13A3.57,3.57,0,0,0,16.4,49.54ZM25.09,10.7c-.08-.1-.13-.2-.16-.2a.71.71,0,0,0-.22.13s.08.12.12.13A.78.78,0,0,0,25.09,10.7Zm12.34,4.14a1.38,1.38,0,0,0-.31-.15s-.1.13-.09.14a.5.5,0,0,0,.2.15S37.31,14.92,37.43,14.84Zm3.63,1,.12,0L41,15.37l-.13.05ZM40.56,3.4l.14.05.11-.36a1,1,0,0,0-.15,0C40.62,3.19,40.59,3.3,40.56,3.4ZM14.06,66.67l-.08-.1a1.44,1.44,0,0,0-.31.22s.07.15.11.23Zm9.45-6.42.09-.12-.27-.23s-.07.08-.11.12Zm-12.43.51c-.12-.09-.19-.17-.27-.19s-.1.08-.15.12a.76.76,0,0,0,.18.21S11,60.84,11.08,60.76ZM25.89,74.5l.11-.11L25.61,74l-.06.06ZM3.16,48.44l-.28-.14s-.09.09-.08.11.12.13.18.2ZM55.4,62.64l0-.1c-.07,0-.14-.1-.19-.09s-.12.09-.18.14ZM27.55,68.75a1.34,1.34,0,0,0-.22-.18s-.1.08-.15.13a1,1,0,0,0,.19.17S27.47,68.81,27.55,68.75ZM11.49,35.48l0-.17-.5-.13,0,.12Zm29.6,32.61-.15,0-.13.36a1,1,0,0,0,.15,0A1.79,1.79,0,0,0,41.09,68.09Zm7.63-1.71-.11-.13a.69.69,0,0,0-.17.17s.06.1.09.16Zm-10.21,2-.14-.19s-.12.09-.12.14a.48.48,0,0,0,.08.18Zm1.71-.08c-.11-.07-.19-.16-.21-.14a1,1,0,0,0-.18.18s.09.09.12.08A1.41,1.41,0,0,0,40.22,68.33ZM13.62,44.21c.1-.17.17-.26.22-.36s-.07-.09-.11-.13-.17.15-.24.23S13.53,44,13.62,44.21ZM3.05,45.79,3,45.64l-.4.14,0,.06ZM53.94,25.06h.14l0-.39s-.11,0-.11.05S53.93,25,53.94,25.06Zm-30.46-14,.11.05.17-.31-.14,0A2,2,0,0,0,23.48,11.08ZM49.09,46.33a1.08,1.08,0,0,0,.15-.22s-.09-.12-.1-.11a1.59,1.59,0,0,0-.21.15Zm-16.25,30,.13.32.18-.18ZM1.37,23.61l.13,0,.05-.39-.1,0Zm42.24-.68-.1,0,.09.33.12,0ZM7,49.85a.58.58,0,0,0-.23-.1s-.08.06-.13.09.09.13.15.14S6.93,49.92,7,49.85ZM18.61,12.33l0,.12.3.11s0-.11,0-.12Zm14.76,1.84.11-.11-.28-.27-.12.12ZM1.26,42.36h.1l0-.33H1.26Zm11.94,1,0,.08.34-.22,0-.07ZM37.28,1c0,.13-.07.18-.06.22a.57.57,0,0,0,.11.16s.08-.09.07-.12A1,1,0,0,0,37.28,1ZM48.72,44.09l.23.25.22-.32s-.05,0-.07,0A2.36,2.36,0,0,0,48.72,44.09ZM18,70.37v-.11h-.32s0,0,0,.1Zm-1-.93,0-.14-.35.14,0,.08ZM27.59,69v.09s.08,0,.11,0,.08-.05.12-.07Zm7.12-.72a.92.92,0,0,0-.13.19s.09.09.1.08a.84.84,0,0,0,.18-.15Zm.69-54.41V14l.41-.14V13.8ZM52.52,65.26l.07.06s.09,0,.1-.08a.59.59,0,0,0,0-.19ZM41.42,18.9l.09.08s0-.08,0-.12,0-.11,0-.16Zm.76,1.23.18-.18-.26-.23s-.05.05-.05.07S42.14,20,42.18,20.13ZM13.59,64.62c-.05.08-.1.14-.09.15a.46.46,0,0,0,.16.18s.09,0,.14,0Zm28.9-43.19-.15,0,.11.35.12,0Zm.33.63-.16-.19s-.11.07-.11.11.06.1.1.12S42.74,22.08,42.82,22.06Zm-38.57.87-.31-.14a.88.88,0,0,0,0,.15.19.19,0,0,0,.06.11ZM8,59.44s-.06.07,0,.07a.91.91,0,0,0,.11.16s.07,0,.1-.05Zm13-2h-.12c0,.1,0,.21,0,.32H21Zm29.84-29.3-.23-.25s-.11.09-.1.11a.53.53,0,0,0,.13.2S50.78,28.16,50.87,28.13Zm-3,27.81.25-.28-.15-.1a.66.66,0,0,0-.12.17C47.87,55.78,47.9,55.85,47.91,55.94ZM18.52,54.25l-.11,0,.15.33.11-.06Zm30.6-22.42-.08,0a2.24,2.24,0,0,0,.11.34l.11,0ZM7,50.65l-.13,0L6.74,51l.13,0Zm36.7-26.26-.06-.1s-.08,0-.09.07,0,.06.05.09ZM29,68.3a.76.76,0,0,0-.16-.13s-.08,0-.11.08l.14.19Zm15.36-54s-.08-.07-.11-.07-.06,0-.09.08a.54.54,0,0,0,.12.09S44.3,14.34,44.33,14.29ZM58.43,45.7l-.09-.14s-.12.08-.12.11a.61.61,0,0,0,.09.18ZM19.09,54.34c0-.07-.06-.13-.1-.15s-.1,0-.16,0a1.74,1.74,0,0,0,.1.19S19,54.37,19.09,54.34ZM38.31,13.67l.19.21a.51.51,0,0,0,.09-.16.2.2,0,0,0-.06-.13A1.19,1.19,0,0,0,38.31,13.67ZM3.4,45.25c-.08-.09-.11-.16-.14-.16a.65.65,0,0,0-.17.08s0,.09.06.09A1.16,1.16,0,0,0,3.4,45.25ZM40.31,2.6l-.12,0,.08.33.07,0Zm-15.45.65.11,0A2.6,2.6,0,0,0,25,3S25,3,24.92,3Zm-10.1-.11c-.07-.06-.12-.12-.16-.11s-.1.07-.11.11.07.1.11.11S14.69,3.19,14.76,3.14ZM32.43,70.45l-.12-.13s-.08.07-.07.08a1.47,1.47,0,0,0,.1.13ZM26.11,73c0,.06-.06.12-.05.15a1.12,1.12,0,0,0,.16.13l.1-.13Zm-.23.81-.11.06.17.24L26,74Zm16-69.71c-.06,0-.1-.11-.13-.1s-.11.06-.11.1.06.08.09.12Zm-32,57.63.11,0a2.76,2.76,0,0,0,.08-.27s-.08,0-.12,0ZM1.35,25.92l0-.09L1,26l0,.09Zm52.93-.41-.16-.11s-.07.07-.06.07a.38.38,0,0,0,.11.11S54.23,25.54,54.28,25.51Zm1.35,35-.16-.2a.44.44,0,0,0-.08.15s0,.08.07.08A.47.47,0,0,0,55.63,60.53ZM11.3,5.85a.57.57,0,0,0-.12-.11s-.09.07-.08.08a.6.6,0,0,0,.09.13ZM49,42l0,0s-.08.07-.08.1a1.15,1.15,0,0,0,.06.17ZM11.56,34a.82.82,0,0,0-.05.22.12.12,0,0,0,.07.07l.15-.08Zm13.8,39.95-.14-.12a.58.58,0,0,0-.06.17s.06.06.1.09ZM49.08,43.12l-.08,0-.12.24.08,0Zm-10.32,32s-.07-.09-.08-.08-.08,0-.09.08,0,.08,0,.12ZM54.85,27.28l.12.07.07,0s0-.1,0-.1A.39.39,0,0,0,54.85,27.28ZM25.94,3.78l.15-.18c-.05,0-.11-.08-.15-.07s-.07.08-.08.13S25.9,3.73,25.94,3.78Zm-.58,7.37a1.2,1.2,0,0,0,.06-.17s0,0-.05,0l-.12.11Zm-17.81,11c0,.06-.07.1-.06.12s.07.11.1.16.09-.07.08-.08A.75.75,0,0,0,7.55,22.16ZM25.71,11.35l.14-.07a.66.66,0,0,0-.15-.14s-.08,0-.12,0ZM20.39,56.74h-.06s0,.07,0,.1a1.51,1.51,0,0,0,.1.17Zm-.14-.36-.1-.05-.16.29.09.05ZM47.52,39.07h-.08l0,.28s.1,0,.1,0A2.26,2.26,0,0,0,47.52,39.07ZM49.11,69.9l.09-.11L49,69.57l-.07.08Zm-.26-30.16-.05-.07a.88.88,0,0,0-.12.15s0,.07.06.1ZM33.56,69.64c.07,0,.1.08.14.08s.09,0,.08-.06a.55.55,0,0,0-.08-.15Zm12.06-39.1-.19.12s.09.09.12.08.09-.07.13-.12S45.64,30.57,45.62,30.54ZM1.27,41a.39.39,0,0,0-.06.17s0,0,.07.07.08-.09.09-.13S1.32,41.09,1.27,41ZM15.2,17c-.07-.07-.1-.12-.14-.13s-.1.05-.1.07A.16.16,0,0,0,15,17S15.11,17,15.2,17ZM14.69,45.8s.07-.08.07-.11a.31.31,0,0,0,0-.12s-.08.07-.1.12S14.65,45.75,14.69,45.8ZM5.6,16.68c0-.08.08-.13.11-.19s-.06,0-.07,0l-.14.11ZM15.82,67.07c-.07,0-.12-.09-.15-.08a.18.18,0,0,0-.09.12s.06.07.1.11ZM2.94,41.47l0-.1-.3-.11,0,.06ZM5.49,15.86c0,.08-.08.13-.07.16a.67.67,0,0,0,.11.14s.12-.09.11-.12S5.57,16,5.49,15.86ZM47.12,67.39l.1-.12s-.08-.08-.1-.07a1.31,1.31,0,0,0-.11.12ZM33.87,2.06a1.18,1.18,0,0,0-.07.21s.06.08.09.11S34,2.3,34,2.26,33.92,2.17,33.87,2.06ZM46.68,34.78l-.09,0-.12.27.09,0ZM17.41,52c-.08,0-.13-.08-.16-.07s-.08.07-.12.11.08.08.12.08S17.33,52,17.41,52ZM28.52,68.11l.13-.15s-.06-.06-.09-.06-.07,0-.09.07S28.49,68,28.52,68.11Zm-23.27-53v.08l.21,0s0,0,0-.07Zm39.46.67-.05-.08a.27.27,0,0,0-.08.07s0,.05,0,.07Zm7,.12-.12-.17s-.08,0-.08.08a.17.17,0,0,0,.06.11S51.62,15.89,51.69,15.88ZM13.37,66.32l0,.11.06,0a.41.41,0,0,0,.07-.11Zm-8-52.61c-.07,0-.11-.08-.13-.07a.13.13,0,0,0-.07.09s0,.07.07.07S5.26,13.75,5.32,13.71ZM49.23,45.47l-.11-.13s-.09.09-.09.13.06.08.09.12ZM48.9,13.41c0,.05,0,.1,0,.09a.5.5,0,0,0,.13,0s0-.07,0-.07S48.94,13.41,48.9,13.41ZM3.45,45.82a.51.51,0,0,0-.09.12.25.25,0,0,0,0,.12s.07-.06.08-.1A.37.37,0,0,0,3.45,45.82ZM49,41,49,40.91s-.06,0-.07.05a.53.53,0,0,0,0,.13ZM5.88,13l-.13.11.07.06.1-.12Zm35.88,6.1.06.08.2-.09S42,19,42,19Zm.67,1.48a.51.51,0,0,0,.09-.12s0-.05,0-.07-.09,0-.1.05S42.41,20.49,42.43,20.56ZM2.59,38.93c-.12-.08-.16-.13-.19-.12a.32.32,0,0,0-.15.06ZM50.12,63c0,.08-.07.12-.09.17s.06,0,.09.07.06-.06.06-.1S50.16,63.07,50.12,63Zm4.66-.19,0-.09s0,.07,0,.11,0,.06,0,.09ZM20.27,11.88l0-.08-.07,0,.05.09Zm6.34-.62.25.14s0-.09,0-.11a.22.22,0,0,0-.13-.08S26.67,11.23,26.61,11.26ZM58.45,48.87l-.07.1.07.05.07-.11ZM16.4,71.1c0,.06-.07.1-.06.12a.51.51,0,0,0,.07.15s.07-.05.07-.07A.91.91,0,0,0,16.4,71.1ZM3.12,22.75c0-.05-.06-.1-.09-.1s-.08,0-.12,0A.54.54,0,0,0,3,22.8S3.07,22.77,3.12,22.75ZM3.94,45S3.86,45,3.83,45s-.05,0-.07.05.05.07.08.08S3.89,45.07,3.94,45Zm16.5,27.22.11-.09-.19-.09s0,.05-.06.09Zm2.35.5-.08.14s.09.06.1,0a.5.5,0,0,0,.12-.13Zm-6.1-23.44h.06a.34.34,0,0,0,.05-.11.75.75,0,0,0-.05-.16Zm-5,13.08.11-.15s-.1-.07-.14-.06-.06.08-.09.12Zm2.43-.46c0-.08,0-.13.05-.18s-.08,0-.1,0a.2.2,0,0,0-.06.12S14.05,61.88,14.1,61.93Zm30.47-54,0,.06s0,0,.06,0,0,0,.05-.06ZM23.67,60.56l-.08-.09a.14.14,0,0,0,0,.06l.07.11ZM48.14,38.29l.17-.08s-.06-.11-.08-.11a.28.28,0,0,0-.13.09S48.12,38.25,48.14,38.29ZM22.17,59c-.05.1-.07.12-.07.15a.28.28,0,0,0,0,.12s.07,0,.07-.05A.92.92,0,0,0,22.17,59ZM13,59c-.09,0-.13-.06-.16-.05s-.07,0-.11.06a.56.56,0,0,0,.12,0ZM2.09,27.19c-.07,0-.12-.08-.13-.07l-.14.15s.07.07.09.06A1,1,0,0,0,2.09,27.19ZM38.41,75.24s-.07-.08-.09-.08-.08,0-.08.08,0,.08.06.08S38.36,75.28,38.41,75.24Zm2.65-72.1a.18.18,0,0,0-.1,0s0,0-.05.06l.1.07ZM53.13,56.9s.1.07.12.06a.34.34,0,0,0,.09-.12s-.08-.08-.08-.07A.8.8,0,0,0,53.13,56.9Zm-33.82-.08-.15-.12s0,.08,0,.13a.54.54,0,0,0,0,.1ZM51.37,28.59h-.08a2.36,2.36,0,0,0,0,.28s.05,0,.08,0ZM6.25,50.38l-.09-.12a.63.63,0,0,0-.12.11s0,.1.06.1A.85.85,0,0,0,6.25,50.38ZM46.71,31.06s-.09.07-.09.1,0,.07.05.1.09-.05.11-.09S46.74,31.11,46.71,31.06Zm-8.29-29L38.27,2a.64.64,0,0,1,0,.07.67.67,0,0,0,.14.09ZM12.86,42.36a.82.82,0,0,0,.05-.17.56.56,0,0,0,0-.12s-.09,0-.09.07S12.82,42.24,12.86,42.36Z"/><path class="cls-1" d="M19.55,73.6c0,.09,0,.19,0,.26s.13,0,.21.07a.93.93,0,0,1-.35.08,3.41,3.41,0,0,1-.62-.19l.13-.22.09.54,0,0c-.19-.18-.36-.41-.68-.27a1.53,1.53,0,0,1-.1-.17l.17,0,.35,0c-.13-.33-.13-.33-.85-.34l.33-.11.27-.08-.28-.42a3.37,3.37,0,0,1,.42.14l.57.26,0,0Z"/><path class="cls-1" d="M57.49,31.4a3.73,3.73,0,0,0,.16.35.46.46,0,0,0,.18.11s.05,0,.07,0a1,1,0,0,1,0,.38,1,1,0,0,1-.25.33.21.21,0,0,1-.2,0,.3.3,0,0,1,0-.18v-.85Z"/><path class="cls-1" d="M12.57,68c-.12,0-.3.08-.34,0a2.45,2.45,0,0,1-.3-.58s.08-.11.13-.17l.53.53Z"/><path class="cls-1" d="M2.88,50.47c0,.31.07.65-.28.81-.06-.22-.14-.44-.18-.67a1,1,0,0,1,.11-.35c0,.08.08.17.13.25l.09.14.14-.17Z"/><path class="cls-1" d="M35.64,75.8a3.38,3.38,0,0,1-.24.41c-.13.17-.28.34-.42.51,0-.18-.11-.36-.16-.54a.3.3,0,0,1,.18-.07c.24,0,.41,0,.38-.28l.27,0Z"/><path class="cls-1" d="M21.76,74.43h.17c.28.47-.05.8-.35,1.28Z"/><path class="cls-1" d="M5.68,57.53c-.3.29,0,.32.17.4a.58.58,0,0,1,.17.14s0,.12-.06.12a.69.69,0,0,1-.29-.07,1.75,1.75,0,0,1-.23-.24l-.2-.24.45-.1Z"/><path class="cls-1" d="M36.76.6l-.13.32a1,1,0,0,0-.08-.25.22.22,0,0,0-.15-.1,1.14,1.14,0,0,0-.32,0c0-.07,0-.19,0-.2a1.26,1.26,0,0,1,.47,0C36.66.36,36.7.51,36.76.6Z"/><path class="cls-1" d="M56.12,24.6l-.46.39c-.07-.1-.22-.25-.19-.28a3.11,3.11,0,0,1,.41-.4Z"/><path class="cls-1" d="M26.38,76l.26-.26a.77.77,0,0,0,0,.3c.14.37-.28.27-.36.45,0,0-.07-.1-.06-.12A2.48,2.48,0,0,1,26.38,76Z"/><path class="cls-1" d="M49.84,70.78c-.26.25-.44.44-.63.6,0,0-.2-.06-.2-.08s0-.28.1-.31A4,4,0,0,1,49.84,70.78Z"/><path class="cls-1" d="M57.36,33.13l.58-.51,0,.69h0l-.57-.18Z"/><path class="cls-1" d="M51.53,13.81c-.1.07-.23.16-.24.14a2.09,2.09,0,0,1-.27-.39s.1-.12.15-.18Z"/><path class="cls-1" d="M54.79,22.79c0-.17,0-.34,0-.51s.06-.13.09-.19.19.14.17.19a3.35,3.35,0,0,1-.19.53Z"/><path class="cls-1" d="M50.94,14.83l-.11-.09a3.91,3.91,0,0,1,.59-.34c.33-.13.2.24.33.33h0C51.45,14.48,51.21,14.77,50.94,14.83Z"/><path class="cls-1" d="M5,55.89c-.18.06-.28.13-.37.12a.72.72,0,0,1-.28-.16c.09-.08.18-.22.26-.22S4.81,55.76,5,55.89Z"/><path class="cls-1" d="M8.57,61.77c-.07.14-.13.29-.21.42s-.11.08-.17.11a.76.76,0,0,1-.1-.22l.49-.31Z"/><path class="cls-1" d="M54.21,21.31l.41-.45.1.35c-.17,0-.29.36-.51.09Z"/><path class="cls-1" d="M25.62,76.4l-.51.17s0,0,0,0C25.13,76.35,25.14,76.35,25.62,76.4Z"/><path class="cls-1" d="M7,61a1.8,1.8,0,0,1-.16-.5s.14-.11.23-.14.15.05.15.06S7.1,60.7,7,61Z"/><path class="cls-1" d="M5.29,57.22c-.09,0-.25,0-.25,0,0-.2,0-.41,0-.62a1.51,1.51,0,0,1,.09.18l.17.42Z"/><path class="cls-1" d="M38.94,75.9l-.4.22.06-.5.35.3Z"/><path class="cls-1" d="M20.52,74.2l.16.72s-.17,0-.19,0a.54.54,0,0,1,0-.68Z"/><path class="cls-1" d="M14.61,70.28c-.5.14-.24-.4-.49-.53.46,0,.32.37.47.55Z"/><path class="cls-1" d="M.21,24.67c.08-.13.12-.29.24-.38s.2-.05,0,.17-.11.17-.17.26Z"/><path class="cls-1" d="M29.54,76.52c.07-.15.14-.3.22-.44s.1,0,.15.06l-.25.45Z"/><path class="cls-1" d="M41.57,75l.3-.07-.09.34L41.57,75Z"/><path class="cls-1" d="M54.13,19.35l-.29.46s-.06,0-.1,0l.23-.53Z"/><path class="cls-1" d="M7.52,61.27a.66.66,0,0,0-.09.24,2.55,2.55,0,0,0,0,.39H7.36c0-.17,0-.34,0-.51S7.43,61.33,7.52,61.27Z"/><path class="cls-1" d="M58.36,43.69l.27,0-.05.47h-.1l-.11-.44Z"/><path class="cls-1" d="M54.9,26.15l-.15.44s-.11,0-.1-.05a4,4,0,0,1,.12-.43Z"/><path class="cls-1" d="M8.76,63.22c.07.07.17.14.16.16a1.73,1.73,0,0,1-.19.28c-.06-.06-.19-.14-.18-.18S8.68,63.31,8.76,63.22Z"/><path class="cls-1" d="M12.56,4.6l-.13-.41.21,0c0,.14-.06.29-.1.44Z"/><path class="cls-1" d="M37.13,75.63l.33.21h-.39Z"/><path class="cls-1" d="M40.52,1.61c-.11.07-.18.14-.2.12a1.37,1.37,0,0,1-.22-.2s.09-.1.12-.09A2.06,2.06,0,0,1,40.52,1.61Z"/><path class="cls-1" d="M27.27,76v.34L27,76v0h.28Z"/><path class="cls-1" d="M21.36,75.78c-.06,0-.11.1-.16.1a.2.2,0,0,1-.13-.1.75.75,0,0,1,.13-.18Z"/><path class="cls-1" d="M4.18,55c0-.07-.08-.13-.07-.14a1,1,0,0,1,.24-.16s.07,0,.11.07Z"/><path class="cls-1" d="M8.4,62.49c.11.33,0,.45-.36.31l.36-.3Z"/><path class="cls-1" d="M35.7.43s0,0,0-.06,0-.19,0-.28l.15.07-.2.27Z"/><path class="cls-1" d="M37,76.2a.6.6,0,0,1,0,.23s-.1,0-.16.06l0-.3Z"/><path class="cls-1" d="M.79,44l.09-.33.12,0a1.65,1.65,0,0,1-.07.32Z"/><path class="cls-1" d="M14.39,69.18l-.13.24-.13-.25,0,0h.28Z"/><path class="cls-1" d="M41.55,74.52l.23-.09.07.25Z"/><path class="cls-1" d="M8.4,62.5c.37-.09.31.1.17.33l-.17-.34Z"/><path class="cls-1" d="M47.67,8.35l.22-.29.11.11-.34.17Z"/><path class="cls-1" d="M21.23,74.56l-.29.15-.06-.16.3-.09Z"/><path class="cls-1" d="M56.86,31.35l.33.26-.15.13c-.06-.13-.12-.26-.17-.39Z"/><path class="cls-1" d="M37,76.2h-.11l-.11-.27C37.12,76.07,37.12,76.07,37,76.2Z"/><path class="cls-1" d="M13.44,70l-.1-.34.11-.05.13.34Z"/><path class="cls-1" d="M53,16.67h0l.36,0,0,.13L53,16.66Z"/><path class="cls-1" d="M12.2,5.06l-.28.11C12.07,4.88,12.07,4.88,12.2,5.06Z"/><path class="cls-1" d="M19,74.14l.14.18-.26,0,.1-.19Z"/><path class="cls-1" d="M49.73,11v-.26l.1.06-.12.19Z"/><path class="cls-1" d="M12.24,68.42c-.07,0-.12.09-.13.08l-.17-.14s.1-.1.12-.09S12.16,68.35,12.24,68.42Z"/><path class="cls-1" d="M53.88,17.84l-.15.07s-.06,0-.09,0l.15-.16Z"/><path class="cls-1" d="M55.09,64.72l-.16.26h-.06l.14-.3Z"/><path class="cls-1" d="M54.21,21.3l0-.44h.08l-.1.44Z"/><path class="cls-1" d="M55.52,23.7c.07.05.14.09.14.12s-.06.09-.1.14-.1-.07-.12-.12S55.48,23.77,55.52,23.7Z"/><path class="cls-1" d="M18.86,1.37l-.19,0,.13-.19Z"/><path class="cls-1" d="M36,76l-.09.34-.12,0L36,76Z"/><path class="cls-1" d="M1,21l.09.27Z"/><path class="cls-1" d="M5.3,56.61l.16.23a.51.51,0,0,1-.16.09s-.07-.08-.07-.13S5.26,56.7,5.3,56.61Z"/><path class="cls-1" d="M17.09,73.12l.39-.09-.34.2Z"/><path class="cls-1" d="M49.2,10.17V9.88h0l.08.28Z"/><path class="cls-1" d="M7.49,8.55a.94.94,0,0,1,.07.19,1,1,0,0,1,0,.16s-.12-.05-.12-.09S7.42,8.71,7.49,8.55Z"/><path class="cls-1" d="M6,58.71l-.34-.12a.59.59,0,0,1,.19-.05S5.93,58.6,6,58.71Z"/><path class="cls-1" d="M46.41,6.82l.2-.23.08.12-.29.1Z"/><path class="cls-1" d="M25,75.51a.42.42,0,0,1,.08.17s-.06,0-.09.08a1.1,1.1,0,0,1-.09-.14S25,75.57,25,75.51Z"/><path class="cls-1" d="M35.69.43V.65l-.12,0L35.7.43Z"/><path class="cls-1" d="M54,18.54l0,0a.76.76,0,0,1-.09-.09l.05,0Z"/><path class="cls-1" d="M.8,43.15l-.12,0s-.05-.08,0-.12,0-.06.07-.08Z"/><path class="cls-1" d="M12.41,67.1l-.26,0s0-.07,0-.07l.23,0Z"/><path class="cls-1" d="M12.57,69.08l0,.06,0-.06a.11.11,0,0,1,0-.08Z"/><path class="cls-1" d="M12.74,69.45l.24-.11s-.06.11-.1.15-.08,0-.12,0Z"/><path class="cls-1" d="M9.49,63.71c-.05,0-.09.06-.12,0a.94.94,0,0,1-.12-.09s.06-.05.08,0A.59.59,0,0,1,9.49,63.71Z"/><path class="cls-1" d="M14,70.66l-.06,0s-.05,0-.05-.06a.56.56,0,0,1,0-.12Z"/><path class="cls-1" d="M7.77,8.2c.05.09.08.13.07.14a.31.31,0,0,1-.09.07s0-.05,0-.07A.6.6,0,0,1,7.77,8.2Z"/><path class="cls-1" d="M47.16,7.13l0,.35-.06-.36Z"/><path class="cls-1" d="M42.68,74.37s0,.06,0,.08v0a.06.06,0,0,1,0,0A.25.25,0,0,1,42.68,74.37Z"/><path class="cls-1" d="M43.14,74.4v.28l-.08,0c0-.09.06-.18.1-.27Z"/><path class="cls-1" d="M41.57,75l-.36,0h0l.37,0Z"/><path class="cls-1" d="M43.2,3.65a.31.31,0,0,1-.12.05s0,0-.06-.06a.28.28,0,0,1,.12,0S43.18,3.63,43.2,3.65Z"/><path class="cls-1" d="M41.28,75.22l-.08.06-.06-.12s0,0,.06,0A.73.73,0,0,1,41.28,75.22Z"/><path class="cls-1" d="M40.46,75.41l-.1.08a.22.22,0,0,1-.09-.1s.06-.07.08-.07S40.41,75.37,40.46,75.41Z"/><path class="cls-1" d="M24.39,75.61l-.14.09,0-.07.14-.1Z"/><path class="cls-1" d="M5.29,57.22v-.06l.25,0,0,.08Z"/><path class="cls-1" d="M42.69,3.08l.2-.09v.18l-.19-.09Z"/><path class="cls-1" d="M57.37,31.14l-.12.2a.43.43,0,0,1,0-.16s0-.06.08-.1Z"/><path class="cls-1" d="M30.8,75.92l.22.27-.08,0c-.05-.1-.09-.21-.14-.31Z"/><path class="cls-1" d="M45.21,32.39l-.35-.13.36-.42.09.23Z"/><path class="cls-1" d="M11.64,35.59l.29.16-.3.13Z"/><path class="cls-1" d="M43.28,5.92l.25.14-.15.12Z"/><path class="cls-1" d="M8.78,59.34l-.15.14,0-.26Z"/><path class="cls-1" d="M14.78,19.49s0-.08-.06-.09c-.47-.21-.12-.49-.07-.74s.21-.23.39-.12.16.08,0,.3S14.89,19.25,14.78,19.49Z"/><path class="cls-1" d="M40.23,19.12a1.62,1.62,0,0,1,.15.55c0,.14-.31.08-.3-.07s0-.31,0-.46Z"/><path class="cls-1" d="M21.83,57.38c.1.2.1.58.52.28-.06.08-.15.24-.18.23a2.92,2.92,0,0,1-.47-.23l.14-.27Z"/><path class="cls-1" d="M42.46,64.55c0-.06,0-.13,0-.16l.28-.25.1.14-.29.14a.69.69,0,0,0-.13.11Z"/><path class="cls-1" d="M27.56,64.81v-.37l.2,0,0,.36Z"/><path class="cls-1" d="M15.93,16.89a.57.57,0,0,1,0,.18,2.45,2.45,0,0,1-.08.37s-.12,0-.11,0a1.85,1.85,0,0,1,.07-.41s.06-.06.09-.09Z"/><path class="cls-1" d="M44,28.9l.19-.13c0,.07,0,.18,0,.2a1,1,0,0,1-.26.09V28.9Z"/><path class="cls-1" d="M44.34,28.26c.09.41-.18.27-.38.23h0l.13-.1.24-.14Z"/><path class="cls-1" d="M15.74,45.79l-.21.33L15.41,46l.2-.31Z"/><path class="cls-1" d="M21.84,57.39l.23-.36,0,.42-.27-.07Z"/><path class="cls-1" d="M44.42,29.62l-.28-.15s.12-.1.14-.08a1.07,1.07,0,0,1,.19.18Z"/><path class="cls-1" d="M41.32,20.29c0,.32-.14.42-.52.44l.53-.44Z"/><path class="cls-1" d="M39.74,18.29a1,1,0,0,1-.2.11s-.08,0-.07,0a1.51,1.51,0,0,1,.09-.18Z"/><path class="cls-1" d="M41.52,21.68a1.11,1.11,0,0,1,.1.21s0,.07,0,.11-.11-.05-.13-.09S41.48,21.81,41.52,21.68Z"/><path class="cls-1" d="M14.63,43.08l.07.33h-.08l0-.33Z"/><path class="cls-1" d="M45.06,32.88l.1-.29h.07l0,.31Z"/><path class="cls-1" d="M34.22,14.81l-.14.27-.07,0,.11-.3Z"/><path class="cls-1" d="M44.64,31.05l.17-.27.07,0c-.05.1-.09.2-.14.29Z"/><path class="cls-1" d="M21.13,56.51l-.32.05h0c0-.09,0-.18,0-.3l.29.25Z"/><path class="cls-1" d="M43.16,26.54l.16-.25.07,0-.16.25Z"/><path class="cls-1" d="M44,28.5h0c0,.14,0,.27,0,.41h0Z"/><path class="cls-1" d="M46.38,39.09l.09-.12.14.15s0,.05,0,.05Z"/><path class="cls-1" d="M26.94,12.89l-.08-.26c.05,0,.11.06.14.1s0,.09,0,.13Z"/><path class="cls-1" d="M16.27,46.86c-.15.07-.21.12-.23.11s-.09-.1-.14-.15H16Z"/><path class="cls-1" d="M11.86,35.4l.1-.18c0,.05.09.09.09.14s-.05.09-.09.11S11.9,35.43,11.86,35.4Z"/><path class="cls-1" d="M19.51,53a1,1,0,0,1,0,.21s-.05.06-.08.09-.07-.08-.07-.1A1.23,1.23,0,0,1,19.51,53Z"/><path class="cls-1" d="M36.27,15.7l.1.1s0,.08-.09.09-.08,0-.08-.08S36.24,15.75,36.27,15.7Z"/><path class="cls-1" d="M31.5,16.1l-.07.1a.28.28,0,0,1-.07-.09s0-.06.05-.06Z"/><path class="cls-1" d="M15.41,18.2l-.1-.07s.08-.08.13-.08.08,0,.12.06Z"/><path class="cls-1" d="M28.74,13.3l-.26.13v-.06l.27-.08Z"/><path class="cls-1" d="M47.33,47.06l-.07.13s-.08,0-.08-.08,0-.07.06-.11Z"/><path class="cls-1" d="M24.67,12.35s0-.08,0-.09a.41.41,0,0,1,.11-.07s0,0,0,0Z"/><path class="cls-1" d="M25.1,11.84l.08.25-.08,0v-.27Z"/><path class="cls-1" d="M42.09,23.24l-.06.09a.29.29,0,0,1,0-.09.56.56,0,0,1,0-.12Z"/><path class="cls-1" d="M46.61,38.64l-.08.16-.07,0,.17-.09Z"/><path class="cls-1" d="M42.3,24l-.14.11a.24.24,0,0,1,0-.1.12.12,0,0,1,0-.08A.9.9,0,0,1,42.3,24Z"/><path class="cls-1" d="M42.9,25.17l.15.1s-.06.06-.1.06a.14.14,0,0,1-.1-.07S42.88,25.21,42.9,25.17Z"/><path class="cls-1" d="M43.67,27.11l-.05.12a.55.55,0,0,1-.08-.15s.05,0,.08-.08Z"/><path class="cls-1" d="M22.66,59s.08-.05.11,0a.08.08,0,0,1,.06.08.18.18,0,0,1-.06.1Z"/><path class="cls-1" d="M21.14,56.52l0-.18.09.09-.14.08Z"/><path class="cls-1" d="M45.72,33.61l-.17.16,0-.11.23,0Z"/><path class="cls-1" d="M39.69,2.68l.09-.39C39.75,2.42,40.09,2.64,39.69,2.68Z"/></g></g></svg>