<svg xmlns="http://www.w3.org/2000/svg" viewBox="0 0 29.81 75.6"><defs><style>.cls-1{fill:#e50074}</style></defs><title>xxiv-one-gala</title><g id="Layer_2" data-name="Layer 2"><g id="Layer_3" data-name="Layer 3"><path d="M27.64,8.31a4.81,4.81,0,0,0-.25.51,3.49,3.49,0,0,0-.07.37c.15,0,.38.1.5-.19,0,0,.1,0,.1,0a1.51,1.51,0,0,1,.06.35,1.4,1.4,0,0,1-.1.39s0,.1-.06.11c-.27.1-.27.1-.18.36h0l.08.48h0s.05.1,0,.13c-.1.18-.09.21,0,.32a.37.37,0,0,1,.1.23,2.16,2.16,0,0,1,0,.36l-.13-.06,0,.14.11-.09.24-.3c.1.12-.13.4.19.36a.59.59,0,0,1,0,.14c-.08.17-.17.34-.26.51l-.22-.24c-.14.21-.15.38.13.46v.15c-.12.2,0,.19.15.19l.08.2h0l-.26.17h0c-.23.14-.24.27,0,.41v0c-.05.2-.11.4-.15.6a2,2,0,0,0,0,.35l.29-.17a4,4,0,0,1,.18.36.28.28,0,0,1,0,.2c0,.06-.13.11-.12.16s.09.38.13.56l.37-.28c-.12.18.31.48-.21.58.48.16.23.58.34.86a3.14,3.14,0,0,1,.15.74,3.77,3.77,0,0,1,0,.58c0,.56,0,1.13,0,1.69.05.77.13,1.54.21,2.31,0,.09.1.19.1.28s-.11.28-.09.42a7.49,7.49,0,0,0,.15.8,1.36,1.36,0,0,1,0,.29,2.84,2.84,0,0,0,0,.82,7.71,7.71,0,0,1,.05,1.73,4.31,4.31,0,0,1,0,.88.48.48,0,0,1-.26.32c-.31,0-.15.26-.2.4l.27,0a.44.44,0,0,1,.16.06,3.29,3.29,0,0,1-.16.77c0,.1-.3.11-.07.29,0,0,0,.08,0,.09-.33.08-.07.22,0,.35s.07.46.1.69c0,0,0,.06,0,.07.69.21,0,.81.32,1.14-.05,0-.14.11-.15.1-.33-.29-.39.14-.58.22l.24.41a.71.71,0,0,0,.12.11c0-.11,0-.21.1-.28s.13-.06.2-.07a.27.27,0,0,1,.05.13c0,.26-.07.52-.09.78a.6.6,0,0,0,.06.23c.22.42.46.84.06,1.3,0,0,0,.21.07.3.23.45.05.91.07,1.37s0,.71.08,1.07c0,.16.21.34-.06.46,0,0,0,0-.05,0,.28.07.06.26.08.38,0,.47,0,.95,0,1.42a8.2,8.2,0,0,0,0,1.11c0,.25,0,.34-.22.41s-.17.15-.25.23c.08,0,.18-.06.23,0s.29.2.29.31-.13.5-.15.76a3,3,0,0,0,0,1.19,1,1,0,0,1,.09.6c-.06.38-.1.76-.14,1.15l-.25,0,.05.16.19-.15c.3.52.27.72-.13,1.25-.06.08,0,.23,0,.35l.36-.18a2.13,2.13,0,0,1,0,.25c0,.07-.11.14-.1.19a.9.9,0,0,1-.21.92c-.12.16-.05.47-.05.71s.19.49,0,.74c0,0,0,.1,0,.11.56.33.28.86.3,1.31s0,.7,0,1c0,.55-.11,1.09-.15,1.64,0,.07.05.14.05.21s-.05.28-.05.42.05.43,0,.64-.11.43-.13.64-.16.32.07.48a.45.45,0,0,1,0,.42c-.27.19-.1.35-.06.57a4.1,4.1,0,0,1,0,.92c0,.36-.05.73-.1,1.09,0,.19.1.45-.22.55,0,0,0,.22,0,.34a3.14,3.14,0,0,0,0,1c.16.44-.14.75-.18,1.13,0,0-.06.12,0,.16a1.16,1.16,0,0,1-.05,1.15c-.1.23-.46.55-.09.87-.06.07-.11.17-.19.19s-.35.1-.29.4a1.78,1.78,0,0,1-.14.7c-.08.31.14.3.28.3-.17.21-.46.41-.5.65s.16.52.25.78h0v.1l-.17.08,0,.08.12-.17a.4.4,0,0,1,0,.52c0,.06-.13.18-.1.22a.53.53,0,0,1-.05.75.2.2,0,0,0,0,.17,1.43,1.43,0,0,1-.13,1.29s-.05,0-.05.06c-.08.49-.13,1-.23,1.45a6.21,6.21,0,0,1-.39,1.29c-.08.16-.36.19-.38.5a2,2,0,0,1-.31.7,1.22,1.22,0,0,1-.34-.11.69.69,0,0,1-.21-.32c-.08-.21.14-.09.15-.11a2.17,2.17,0,0,0,.13-.56,1,1,0,0,0-.11-.35c-.18.12-.18.12-.13.39,0,0,0,.06-.08.1a1.82,1.82,0,0,0-.29,1l-.11.11-.09-.21c0-.08,0-.15,0-.23H25.4l.09.22a1.38,1.38,0,0,0-.74.44l-.17-.09c-.26-.27-.54-.22-.63.12a.88.88,0,0,0,0,.28l.17-.17.07,0c.14.34.2-.11.32,0l.09.09s0,.13,0,.15c.52.49-.14.39-.24.56l-.1,0,.26-.5c-.21.14-.34.21-.45.3a1,1,0,0,0-.15.21c-.08-.06-.2-.1-.25-.18a.94.94,0,0,1,.24-1s.05-.15,0-.16A2,2,0,0,0,23.6,74c-.11.25-.27.27-.52.17-.42-.15-.31.15-.26.43l.07-.3.07,0c0,.12,0,.34,0,.35-.44.09-.42.57-.74.75a.73.73,0,0,1,0-1,1,1,0,0,0,.1-.67c-.11-.39.12-.71.13-1.07s0-.43.05-.74l-.32.28c0-.05-.08-.08-.07-.1.1-.88.23-1.76.32-2.64a3,3,0,0,0,0-.89c0-.08-.29-.12-.45-.15s-.12,0-.18.06c-.38.11-.41.19-.22.46l-.54.62s0,.11.08.16.25.29.23.41a2.65,2.65,0,0,1-.3.67l-.21-.11h0c-.13-.14-.23-.24.06-.35.11,0,.13-.32.19-.48l-.14-.05a1.19,1.19,0,0,0-.09.15,1.42,1.42,0,0,1-.07.22.32.32,0,0,1-.16,0,.39.39,0,0,1,0-.26,1.25,1.25,0,0,0,.18-1c0-.15-.13-.28-.17-.43s-.08-.42-.11-.63,0-.34-.05-.36a1.44,1.44,0,0,0-.67-.08c-.09,0-.39.15-.29.45s.1.54-.31.23c0,0-.25.14-.38.23s-.05.08-.09.14c-.13-.37-.13-.36.27-.55a1.22,1.22,0,0,0,.27-.24c-.08-.08-.18-.23-.24-.22a.91.91,0,0,0-.28.19,5,5,0,0,1-.28-.62,1.8,1.8,0,0,1,0-.52c0-.52,0-1,0-1.57v-1.6c0-.54,0-1.08,0-1.61s.08-1.13.08-1.69-.08-.89-.11-1.33a4.38,4.38,0,0,1,0-.5c0-.1.07-.23,0-.3-.27-.5-.07-1-.09-1.54a4.25,4.25,0,0,1-.1-1.1c.13-.47-.12-.95.12-1.4,0-.06,0-.15,0-.22s0-.36,0-.54a.16.16,0,0,1,0-.06c-.35-.21,0-.47-.05-.7a1.91,1.91,0,0,1-.08-.87c.18-.44-.15-.84.06-1.28a2.42,2.42,0,0,0,0-1c0-.32,0-.63,0-.94a11.89,11.89,0,0,0,0-1.58c-.06-.45.13-.91-.08-1.38-.11-.24.11-.62.13-.93,0-.59,0-1.17,0-1.76a1.43,1.43,0,0,1,.07-.28c0-.09.1-.19.08-.27a.78.78,0,0,1,.1-.84s0-.06,0-.06c-.32-.32.12-.62,0-.9s0-.47-.07-.62a.93.93,0,0,1,0-.68,4.55,4.55,0,0,0-.07-.9.37.37,0,0,1,0-.11c0-.33,0-.67,0-1,0,0,0-.06,0-.08.32-.89,0-1.81.09-2.72s.07-1.93.12-2.9a3.75,3.75,0,0,1,.25-.76c0-.09.05-.25,0-.3-.36-.35-.25-.71-.06-1.08,0,0,0-.06,0-.09a5.29,5.29,0,0,1,.06-.8.48.48,0,0,0-.05-.49c-.08-.12,0-.39.09-.59s.1-.18.08-.25a5.33,5.33,0,0,1-.17-.66,6.37,6.37,0,0,1,.13-.74c0-.15,0-.31,0-.46a1.15,1.15,0,0,1,0-.46A2.19,2.19,0,0,0,19,23a2.87,2.87,0,0,1,0-.83c0-.52,0-1,.06-1.57,0-.27,0-.54.06-.82,0-.06-.07-.19-.1-.18a.3.3,0,0,0-.24.11c-.31.4-.45.93-.94,1.22a1.86,1.86,0,0,0-.52.67,10.19,10.19,0,0,1-1.45,1.7c-.2.22-.37.47-.59.68s-.71.62-1.06.93c-.06.05-.14.11-.16.18s-.17.25-.36.3S13,25.52,13,26c0,0,0,.09,0,.09-.66.12-1,.76-1.49,1.07-.19.1-.27.37-.55.21a.28.28,0,0,0,0,.12s0,.1,0,.1c-.29.19-.43.58-.85.57-.06,0-.17,0-.24.2s-.5.45-.79.65a.19.19,0,0,1-.19,0c-.21-.14-.35-.17-.36.15,0,0-.09.11-.09.11s-.24-.13-.26-.22-.12-.29-.3-.09c0,0-.17,0-.19-.07-.16-.34-.38-.36-.67-.08a5.56,5.56,0,0,1-.5.47c-.07.06-.26.19-.21-.11,0,0-.08-.09-.13-.14a.91.91,0,0,0-.09.17c-.21.54-.4,1.1-1,1.34h0c.13-.42.25-.85.4-1.27.06-.18.17-.35.24-.52,0,0-.14-.14-.16-.13a3,3,0,0,1-.63.29c.16-.18.33-.36.48-.54,0,0,0-.07,0-.1H5.31a.94.94,0,0,0-.68.51h0a4.13,4.13,0,0,0-.37-.73c0-.07-.26,0-.39,0s0,.22,0,.32a.27.27,0,0,0,.17,0,.62.62,0,0,0,.17-.11s.06.11,0,.13a.52.52,0,0,1-.19.17l-.46.19.05-.43-.33.29a1.17,1.17,0,0,1-.26.1l.08-.24A4.36,4.36,0,0,0,3.34,28s-.09-.08-.13-.12,0,.11,0,.15a4.1,4.1,0,0,1-.22.41,1.31,1.31,0,0,0-.12-.27c-.12-.15-.25-.28-.38-.42h0a1,1,0,0,0,.18,0,.23.23,0,0,0,.12-.12s0-.08-.08-.12c-.15.14-.5-.13-.53.26v.1c-.2.27-.2.27-.5,0a2.34,2.34,0,0,0-.27-.15c.13-.07.27-.12.39-.2a4,4,0,0,0,.39-.3l-.06,0a1.54,1.54,0,0,0,.22-.3c.12-.29.42-.51.31-.88L3,25.93l.16.19.14-.22-.31,0,.13-.47H2.82a1.37,1.37,0,0,1,.27-.22.56.56,0,0,1,.37-.07c.31.15.09-.16.17-.19h0c.19.12.35.24.2.49-.13,0-.25.07-.37.12s0,.11,0,.12.22.07.24,0a.89.89,0,0,0,.08-.29c.08-.09.21-.16.24-.26s-.07-.34.19-.38c-.12-.48.33-.31.5-.46a4.88,4.88,0,0,0,.58-.91.36.36,0,0,1,.26-.13c.16,0,.38-.31.39-.53a.79.79,0,0,1,.11-.29l.25-.57h0l.26-.08-.1-.17h0A1.69,1.69,0,0,1,7.22,21a.5.5,0,0,0,.17-.1s.16-.51.16-.51l.17.09.09.16.32-.32s0-.08,0-.12l-.36.26s0,0,0,0a1.27,1.27,0,0,1,0-.34A.77.77,0,0,1,8,19.88a4.31,4.31,0,0,0,.46-.39c.23-.27.43-.56.64-.84.06-.09.09-.21.16-.3a2.2,2.2,0,0,1,.23-.2c.07-.08.33-.1.12-.31,0,0,0-.13.07-.18.28-.27.58-.53.84-.82a2,2,0,0,0,.26-.48s0-.08,0-.08c.35,0,.13-.33.26-.47s.25-.42.41-.6.41-.36.59-.56.33-.19.1-.4a1.62,1.62,0,0,1,.22-.29s.13,0,.17,0,.29-.2.43-.3l-.31-.16c.19-.21.43-.42.62-.67a.67.67,0,0,0,.06-.4c0-.37.18-.58.54-.55a.89.89,0,0,0,.45-.07l-.08,0c-.54,0-.6-.08-.41-.56a3.36,3.36,0,0,1,.34-.65c.12-.2.31-.35.43-.55s.2-.48.33-.7c.24-.41.51-.8.76-1.21.08-.13.1-.29.18-.42s.34-.46.48-.71.45-.8.68-1.19c.06-.1.19-.16.28-.24s.11-.08.1-.1c-.07-.23.08-.36.22-.47s.17,0,.25,0c0-.43.17-.59.6-.71a1.86,1.86,0,0,0,.45-.3h0a1.32,1.32,0,0,0,.26.05.65.65,0,0,0,.32-.12s-.05-.18,0-.27c0-.26.13-.51.19-.76h.14l.19.64.11-.63h0c.41-.07.57-.39.7-.74A1.11,1.11,0,0,1,20.81,2c.45.25.28-.18.37-.33h0c.18-.15.17-.14.33,0a.23.23,0,0,0,.2,0c.22-.32.42-.65.62-1a.61.61,0,0,0,.09-.28c0-.2-.09-.46.26-.22.15.1.23-.51.38,0a1.66,1.66,0,0,1,0,.5.56.56,0,0,0,0,.23c.08.13.18.24.25.34a3.13,3.13,0,0,0,.43-.07.16.16,0,0,0,.11-.1c0-.23,0-.46.33-.39.07,0,.16-.15.26-.24.06.5-.37,1,.18,1.5a2.37,2.37,0,0,0,.17-.41c0-.12,0-.32,0-.36a3,3,0,0,1,.71-.36c.16,0,.3,0,.26.24s.08.22.07.33a.8.8,0,0,1,0,.24l-.37-.25s-.13,0-.15,0,0,.18-.09.21a.73.73,0,0,0-.37.54c0,.09-.23.13-.35.19l-.22-.13s0,.1,0,.1l.2.07a1,1,0,0,0-.09.18.78.78,0,0,0,0,.22c.05,0,.1-.08.14-.07s.13.08.19.07A.57.57,0,0,0,25,2.67c.12-.12.19-.28.3-.41s.13,0,.17,0,.2.12.27-.06.37-.14.57-.09c0,0,.07.09.06.13a2.29,2.29,0,0,1-.12.37s-.09,0-.13.07l.15.18c.13.12.29.21.36.36s-.11.22-.18.34l.11-.27-.08,0,0,.29c.31.13,0,.32.05.47a1.71,1.71,0,0,1,0,.59c0,.22-.19.39,0,.65a1.78,1.78,0,0,1,.23.79.6.6,0,0,1,0,.23c0,.13-.05.26-.07.39l.54.08a2.91,2.91,0,0,0-.15.47c0,.12,0,.32,0,.37.29.24,0,.25-.11.31l.19.11c.08,0,.17.23.25,0,0,0,.11,0,.16,0V8.2Zm-19,19.5-.25.35c.37,0,.29-.18.24-.36l.19-.07,0-.07ZM11.86,25h-.38l.14.2.23-.2.2-.35C11.76,24.67,11.78,24.84,11.86,25ZM4.92,28c.07,0,.19,0,.22-.06s.12-.32.18-.48c.26-.05.5-.43.82,0-.06-.1-.16-.14-.17-.21-.14-.54-.34-.15-.51,0s-.14.13-.22.2l-.39.55-.38.19.07.1ZM23.35,73.41c.2-.25.58-.45.24-.86,0,0,.07-.24.1-.24.29,0,.26-.21.29-.36s-.11-.17-.17-.26c-.13.12-.38.07-.4.34a6.41,6.41,0,0,1-.13,1c0,.08-.1.16-.18.21s-.14,0-.22,0l.17-.25a.38.38,0,0,0-.16,0l-.4.12a1.12,1.12,0,0,1,.22.16s0,.11,0,.17c0,.23-.34.62.26.61-.09-.26-.15-.53.27-.56l.12.26.08,0ZM10.73,25.84c-.1,0-.13,0-.14,0-.35.34-.7.68-1,1-.05.06,0,.2,0,.3a1.05,1.05,0,0,0,.32-.15c.2-.21.38-.44.57-.65a2.87,2.87,0,0,0,.31-.29C10.77,26.07,10.73,26,10.73,25.84Zm.44-8.39c.11-.21.24-.44.35-.67a.64.64,0,0,0,.05-.24.34.34,0,0,0-.14,0,.84.84,0,0,0-.43.42c-.05.1-.17.15-.25.22l-.11.12s.08.11.14.12S11.09,17.44,11.17,17.45Zm-.61,6.32h.18a1.45,1.45,0,0,0,.26-.4c0-.06-.13-.23-.22-.25-.33-.08-.16.31-.33.41A1.72,1.72,0,0,0,10.56,23.77Zm.1,3.26a5.2,5.2,0,0,0,.34-.55s-.08-.1-.12-.16l-.38.51S10.57,26.91,10.66,27Zm-.14-2.62a.71.71,0,0,0-.2.08,1.55,1.55,0,0,0-.21.35s.07.1.12.16a1.86,1.86,0,0,0,.23-.32C10.5,24.62,10.49,24.54,10.52,24.41ZM4,27.27l-.16-.13-.39.58.1.07Zm7-9.84-.08.57c.05,0,.13,0,.17,0S11.19,17.65,10.91,17.43Zm2.09,7-.11,0-.13.43.4.11Zm16.36,7-.26-.4-.16.38C29.2,31,29.16,31.51,29.36,31.46ZM17.16,19.74,17,19.65l-.27.43.14.09ZM6.83,22.24l-.08,0a1.06,1.06,0,0,0-.17.26c0,.05,0,.13.08.19ZM23,72.15l-.16-.06-.12.38s.11,0,.11,0S22.92,72.26,23,72.15Zm-.63-.59.13,0,.11-.44h-.1A3.17,3.17,0,0,0,22.35,71.56ZM11.66,16.82l.11.1.22-.28s-.08-.05-.1,0ZM13.52,13l.09.07.36-.42-.09-.07ZM23,2l.11.06.15-.43-.08,0ZM10.1,23.22,10,23.15c-.07.12-.15.24-.22.37s.05,0,.07.07l.19-.29A.56.56,0,0,0,10.1,23.22ZM17.65,5.84l.11,0,.14-.31-.1,0C17.74,5.65,17.7,5.74,17.65,5.84Zm8.51.77-.1,0,.07.35.09,0Zm2.9,22H29l-.08.35L29,29Zm-2.44,39.1c-.05,0-.07-.08-.11-.1s-.07,0-.07.07a.84.84,0,0,0,.06.14ZM7.19,25.85l-.09-.07-.2.27L7,26.1ZM16.7,7.45l-.08,0c0,.08.05.16.08.23h.1Zm2.74-3.23-.12,0-.06.27.08,0A2.77,2.77,0,0,0,19.44,4.22Zm.66-.41c-.11-.05-.15-.09-.18-.08a1.07,1.07,0,0,0-.19.07s.07.08.1.08A1.18,1.18,0,0,0,20.1,3.81Zm-5.51,7.94s-.1.08-.09.11a.26.26,0,0,0,.09.14s.08,0,.12,0ZM9.89,27.61h0l.13.22.06,0Zm2.79-3.47h-.07v.36h.07Zm16-3.65-.1-.06-.15.23.08.06ZM19.13,39.31l.09,0L19.11,39,19,39Zm5-35.72.17-.11s-.09-.09-.14-.09-.08.06-.12.1ZM9.6,18.79a.41.41,0,0,0,.08-.1l-.13-.12s-.05,0-.05.05Zm7,2.54.05.11s.09-.05.11-.08,0-.08,0-.12Zm-.18-.78c-.06.08-.1.12-.1.15a.35.35,0,0,0,0,.13s.09-.06.1-.1S16.41,20.64,16.38,20.55ZM9.31,28l-.09.08.12.12a.28.28,0,0,0,.05-.09S9.34,28.07,9.31,28ZM24.79,74.28l0-.08s-.08,0-.09.06,0,.07,0,.1ZM23.47,4.35l-.14-.12-.07.11.16.09ZM6.56,26.57s0,.08.07.09.06,0,.07-.05a.09.09,0,0,0,0-.08S6.6,26.55,6.56,26.57Zm3.17-8.14,0,.06s.09,0,.1,0a.58.58,0,0,0,0-.14ZM22.21,50.12c0-.1.05-.13,0-.17s0-.05-.07-.08-.07.07-.08.11S22.14,50,22.21,50.12Zm6.71-25.21-.12-.09s-.06.07-.06.11,0,.06.06.1Zm-24.24,0-.06.05s0,.09.08.1.07,0,.1-.06ZM29.54,42.93a.83.83,0,0,0-.2-.08s0,0-.07.08a.75.75,0,0,0,.12.07S29.45,43,29.54,42.93Zm-.14,2.22c-.07,0-.12,0-.14,0a.24.24,0,0,0-.1.1s0,.05.05.08Zm-21.33-20c-.07,0-.11-.06-.13-.05a.33.33,0,0,0-.11.09s0,.06,0,.09Zm5.28-.32h0a.12.12,0,0,1-.05.05h0Zm-2.47,0c0-.06.07-.1.07-.14s0-.05,0-.08a.43.43,0,0,0-.09.1S10.84,24.78,10.88,24.84Zm-2.19-.21,0-.07-.05,0a.07.07,0,0,0,0,.06Zm20-1.26a.49.49,0,0,0,0,.15s0,0,.07.05a.67.67,0,0,0,.06-.12S28.74,23.41,28.69,23.37ZM3.54,26l.07,0,0,0H3.5S3.53,26,3.54,26Zm5-5.77a.44.44,0,0,0-.1.08s0,.06,0,.09.07,0,.08-.06A.39.39,0,0,0,8.58,20.23Zm.56-.44-.07-.09s-.07,0-.07.06a.21.21,0,0,0,0,.1Zm4-5.19.07,0,.08-.18-.05,0Zm.33-1.26.12-.1s0,0-.06,0l-.13.05Zm1.08-2.15s-.06.07-.05.09,0,.05.06.08.06,0,.06-.07S14.59,11.23,14.56,11.19ZM3.73,26.58l.07-.06s0-.05-.07-.05,0,.05-.06.07ZM18.85,4.74l0,0-.07.08,0,0Zm1.83,22-.12-.11s-.06.07,0,.09a.28.28,0,0,0,.09.1ZM29,27h-.07l0,.25.1,0C29,27.12,29,27.05,29,27Zm-18.89.38-.06,0a.14.14,0,0,0,0,.06s0,0,.06,0Zm-.81.4s0,.05.05.05h.13s0-.05,0-.05Zm19.87,3s-.06-.09-.07-.09-.09,0-.1.07a.31.31,0,0,0,.05.12ZM22.85,2.62,23,2.49s-.06-.06-.07-.05a.2.2,0,0,0-.12.08S22.83,2.57,22.85,2.62Zm6,23.74h.07l0-.25h-.05Z"/><path d="M4.39,32.1c-.12-.27-.32-.49.06-.55l-.15-.37L4.73,31c0,.06,0,.14,0,.19C4.65,31.5,4.53,31.77,4.39,32.1Z"/><path d="M2.91,31.8c.16-.11.26-.25.34-.24a3.07,3.07,0,0,1,.54.22,1.54,1.54,0,0,1-.23.39c-.06.06-.2,0-.3,0s0-.1.05-.15l.07-.22H3.15A1.1,1.1,0,0,1,2.91,31.8Z"/><path d="M23.67.56a1,1,0,0,1-.16.26s-.13,0-.16-.06a.83.83,0,0,1-.08-.28,2.13,2.13,0,0,1,0-.25,1.81,1.81,0,0,0,0-.23,1.2,1.2,0,0,1,.21.17A2.35,2.35,0,0,1,23.67.56Z"/><path d="M2,32.68l.61-1,.1.07c0,.47-.37.68-.72.89Z"/><path d="M20.74,70.76h0a1.2,1.2,0,0,1-.21.31c-.05,0-.18,0-.27,0l.08-.45Z"/><path d="M3.63,25c-.08-.21-.08-.2-.21-.07S3.3,25,3.24,25a.47.47,0,0,1,0-.17,2.73,2.73,0,0,1,.55-.52c-.07.23-.13.46-.2.69Z"/><path d="M19.46,68.6c-.06.23-.12.44-.18.64a.12.12,0,0,1-.11,0s-.08,0-.07-.06C19.19,69,19.05,68.67,19.46,68.6Z"/><path d="M4.18,29.44c0-.16-.25-.38.05-.57.06,0,.15,0,.23,0a.85.85,0,0,1,0,.23A3.49,3.49,0,0,1,4.18,29.44Z"/><path d="M27.64,10.19l.21-.16a3.62,3.62,0,0,1,.17.56c0,.08-.14.2-.16,0l-.15.09h0c0-.08,0-.19.06-.25.23-.27,0-.22-.14-.23Z"/><path d="M28.18,13.16l.27.35-.26.11L28,13.7v-.39h0c.25.2.25,0,.26-.17Z"/><path d="M18.89,4h-.25a4.34,4.34,0,0,1,.16-.47s.12-.06.2-.1c0,.2-.08.38-.12.57Z"/><path d="M1.49,32.42l.58-.88c0,.15,0,.29,0,.31C1.81,32,1.86,32.47,1.49,32.42Z"/><path d="M2.26,31.2,3,30.83C2.85,31.21,2.58,31.23,2.26,31.2Z"/><path d="M19.44,3.06l-.47,0V3l.47-.08Z"/><path d="M28,12.62l.15-.17c.55.18.09.34,0,.51L28,12.77Z"/><path d="M21.08,71.74l-.07.47-.13,0,.07-.47Z"/><path d="M19.29,71l-.09.39c-.05,0-.13-.05-.13-.07s.07-.23.11-.35Z"/><path d="M19.32,69.61l-.24.31-.1-.09.24-.3Z"/><path d="M18.87,69.39l-.27.09s0-.07-.06-.12l.29-.1Z"/><path d="M19.88,69.81l.34-.16s.07.07.07.07l-.23.27Z"/><path d="M5.67,22.63l-.26.31-.08-.06.21-.35Z"/><path d="M0,30.28c.08-.08.16-.17.25-.25l.08.07-.24.27Z"/><path d="M20.05,2.9l-.25-.39L20,2.44,20,2.9Z"/><path d="M4.15,30.14,4,30.46s-.09-.08-.08-.1a2.34,2.34,0,0,1,.15-.27Z"/><path d="M25.58,74.51l.11-.11c0,.06,0,.13,0,.17a2,2,0,0,1-.25.25,1.06,1.06,0,0,1,0-.19A.54.54,0,0,1,25.58,74.51Z"/><path d="M1.6,27.1A.88.88,0,0,1,1.5,27a1,1,0,0,1,.19-.16s.09.07.08.08Z"/><path d="M2,32.67a.06.06,0,0,1,0,0L1.85,33l-.09-.13L2,32.68Z"/><path d="M3.76,29.49c-.06.09-.11.17-.18.26l-.08-.06.15-.28Z"/><path d="M21.18,1.7l-.26,0,0-.24.29.2Z"/><path d="M28.35,14.17c-.06-.08-.11-.13-.1-.15a1.67,1.67,0,0,1,.12-.23s.11.09.1.13A1.34,1.34,0,0,1,28.35,14.17Z"/><path d="M20.13,68.48l.06-.35h.06l0,.35Z"/><path d="M28.19,67.29l.11-.23.1.11-.21.12Z"/><path d="M4.2,32.8l.26-.22.1.1-.27.22Z"/><path d="M27.64,8.31l.05-.11c.06,0,.14,0,.17.07s0,.1-.05.16Z"/><path d="M20.13,71.73l.1-.18a.33.33,0,0,1,0,.13s-.05.06-.07.08Z"/><path d="M28.44,65.25c0,.06,0,.1,0,.12l-.11.12s-.07-.07-.06-.07A1.29,1.29,0,0,1,28.44,65.25Z"/><path d="M2.18,27.81v-.1l.31,0h0Z"/><path d="M2.15,26.42l-.26.07,0-.11.26-.07Z"/><path d="M3.37,31.44l-.16-.21.07-.05.15.2Z"/><path d="M3.69,31.3l0-.24.13,0a.81.81,0,0,1,0,.22Z"/><path d="M18.68,3.17v.25s-.09,0-.09,0,0-.14,0-.21Z"/><path d="M24.59,74.89l-.09-.09.08-.15.17.09Z"/><path d="M3.33,30.07a.8.8,0,0,1-.16.08s0,0-.06,0L3.26,30Z"/><path d="M5.07,30.53l-.1.25-.1-.07.21-.17Z"/><path d="M18.47,3.74l-.13.11s-.06-.07-.06-.1.06-.07.08-.11Z"/><path d="M20.44,72.31s-.05,0-.08.06,0,0-.05,0l.06-.08Z"/><path d="M28,11s-.07-.06-.07-.09,0-.05.07-.07.05,0,.05.06A.19.19,0,0,1,28,11Z"/><path d="M26.3.39l-.22.1,0-.06.21-.12Z"/><path d="M.18,32.27s0-.08,0-.1a.52.52,0,0,1,.11-.1s.07.09.06.1A.56.56,0,0,1,.18,32.27Z"/><path d="M6.34,21.93l-.13,0,.29-.19h0l-.16.25Z"/><path d="M3.13,32.92l.05.1s-.07,0-.1,0S3,33,3,33Z"/><path d="M20.5,69.54v0l0,0v0Z"/><path d="M4.05,32.31s.07.06.07.09,0,.05,0,.07A.22.22,0,0,1,4,32.41S4,32.35,4.05,32.31Z"/><path d="M18.68,70.05l0,.06-.09,0,.06,0S18.66,70,18.68,70.05Z"/><path d="M18.61,70.85l-.05,0,0-.08s.05,0,.06,0S18.6,70.83,18.61,70.85Z"/><path d="M27.64,8.31a4.81,4.81,0,0,0-.25.51,3.49,3.49,0,0,0-.07.37c.15,0,.38.1.5-.19,0,0,.1,0,.1,0a1.51,1.51,0,0,1,.06.35,1.4,1.4,0,0,1-.1.39s0,.1-.06.11c-.27.1-.27.1-.18.36h0l.08.48h0s.05.1,0,.13c-.1.18-.09.21,0,.32a.37.37,0,0,1,.1.23,2.16,2.16,0,0,1,0,.36l-.13-.06,0,.14.11-.09.24-.3c.1.12-.13.4.19.36a.59.59,0,0,1,0,.14c-.08.17-.17.34-.26.51l-.22-.24c-.14.21-.15.38.13.46v.15c-.12.2,0,.19.15.19l.08.2h0l-.26.17h0c-.23.14-.24.27,0,.41v0c-.05.2-.11.4-.15.6a2,2,0,0,0,0,.35l.29-.17a4,4,0,0,1,.18.36.28.28,0,0,1,0,.2c0,.06-.13.11-.12.16s.09.38.13.56l.37-.28c-.12.18.31.48-.21.58.48.16.23.58.34.86a3.14,3.14,0,0,1,.15.74,3.77,3.77,0,0,1,0,.58c0,.56,0,1.13,0,1.69.05.77.13,1.54.21,2.31,0,.09.1.19.1.28s-.11.28-.09.42a7.49,7.49,0,0,0,.15.8,1.36,1.36,0,0,1,0,.29,2.84,2.84,0,0,0,0,.82,7.71,7.71,0,0,1,.05,1.73,4.31,4.31,0,0,1,0,.88.48.48,0,0,1-.26.32c-.31,0-.15.26-.2.4l.27,0a.44.44,0,0,1,.16.06,3.29,3.29,0,0,1-.16.77c0,.1-.3.11-.07.29,0,0,0,.08,0,.09-.33.08-.07.22,0,.35s.07.46.1.69c0,0,0,.06,0,.07.69.21,0,.81.32,1.14-.05,0-.14.11-.15.1-.33-.29-.39.14-.58.22l.24.41a.71.71,0,0,0,.12.11c0-.11,0-.21.1-.28s.13-.06.2-.07a.27.27,0,0,1,.05.13c0,.26-.07.52-.09.78a.6.6,0,0,0,.06.23c.22.42.46.84.06,1.3,0,0,0,.21.07.3.23.45.05.91.07,1.37s0,.71.08,1.07c0,.16.21.34-.06.46,0,0,0,0-.05,0,.28.07.06.26.08.38,0,.47,0,.95,0,1.42a8.2,8.2,0,0,0,0,1.11c0,.25,0,.34-.22.41s-.17.15-.25.23c.08,0,.18-.06.23,0s.29.2.29.31-.13.5-.15.76a3,3,0,0,0,0,1.19,1,1,0,0,1,.09.6c-.06.38-.1.76-.14,1.15l-.25,0,.05.16.19-.15c.3.52.27.72-.13,1.25-.06.08,0,.23,0,.35l.36-.18a2.13,2.13,0,0,1,0,.25c0,.07-.11.14-.1.19a.9.9,0,0,1-.21.92c-.12.16-.05.47-.05.71s.19.49,0,.74c0,0,0,.1,0,.11.56.33.28.86.3,1.31s0,.7,0,1c0,.55-.11,1.09-.15,1.64,0,.07.05.14.05.21s-.05.28-.05.42.05.43,0,.64-.11.43-.13.64-.16.32.07.48a.45.45,0,0,1,0,.42c-.27.19-.1.35-.06.57a4.1,4.1,0,0,1,0,.92c0,.36-.05.73-.1,1.09,0,.19.1.45-.22.55,0,0,0,.22,0,.34a3.14,3.14,0,0,0,0,1c.16.44-.14.75-.18,1.13,0,0-.06.12,0,.16a1.16,1.16,0,0,1-.05,1.15c-.1.23-.46.55-.09.87-.06.07-.11.17-.19.19s-.35.1-.29.4a1.78,1.78,0,0,1-.14.7c-.08.31.14.3.28.3-.17.21-.46.41-.5.65s.16.52.25.78h0v.1l-.17.08,0,.08.12-.17a.4.4,0,0,1,0,.52c0,.06-.13.18-.1.22a.53.53,0,0,1-.05.75.2.2,0,0,0,0,.17,1.43,1.43,0,0,1-.13,1.29s-.05,0-.05.06c-.08.49-.13,1-.23,1.45a6.21,6.21,0,0,1-.39,1.29c-.08.16-.36.19-.38.5a2,2,0,0,1-.31.7,1.22,1.22,0,0,1-.34-.11.69.69,0,0,1-.21-.32c-.08-.21.14-.09.15-.11a2.17,2.17,0,0,0,.13-.56,1,1,0,0,0-.11-.35c-.18.12-.18.12-.13.39,0,0,0,.06-.08.1a1.82,1.82,0,0,0-.29,1l-.11.11-.09-.21c0-.08,0-.15,0-.23H25.4l.09.22a1.38,1.38,0,0,0-.74.44l-.17-.09c-.26-.27-.54-.22-.63.12a.88.88,0,0,0,0,.28l.17-.17.07,0c.14.34.2-.11.32,0l.09.09s0,.13,0,.15c.52.49-.14.39-.24.56l-.1,0,.26-.5c-.21.14-.34.21-.45.3a1,1,0,0,0-.15.21c-.08-.06-.2-.1-.25-.18a.94.94,0,0,1,.24-1s.05-.15,0-.16A2,2,0,0,0,23.6,74c-.11.25-.27.27-.52.17-.42-.15-.31.15-.26.43l.07-.3.07,0c0,.12,0,.34,0,.35-.44.09-.42.57-.74.75a.73.73,0,0,1,0-1,1,1,0,0,0,.1-.67c-.11-.39.12-.71.13-1.07s0-.43.05-.74l-.32.28c0-.05-.08-.08-.07-.1.1-.88.23-1.76.32-2.64a3,3,0,0,0,0-.89c0-.08-.29-.12-.45-.15s-.12,0-.18.06c-.38.11-.41.19-.22.46l-.54.62s0,.11.08.16.25.29.23.41a2.65,2.65,0,0,1-.3.67l-.21-.11h0c-.13-.14-.23-.24.06-.35.11,0,.13-.32.19-.48l-.14-.05a1.19,1.19,0,0,0-.09.15,1.42,1.42,0,0,1-.07.22.32.32,0,0,1-.16,0,.39.39,0,0,1,0-.26,1.25,1.25,0,0,0,.18-1c0-.15-.13-.28-.17-.43s-.08-.42-.11-.63,0-.34-.05-.36a1.44,1.44,0,0,0-.67-.08c-.09,0-.39.15-.29.45s.1.54-.31.23c0,0-.25.14-.38.23s-.05.08-.09.14c-.13-.37-.13-.36.27-.55a1.22,1.22,0,0,0,.27-.24c-.08-.08-.18-.23-.24-.22a.91.91,0,0,0-.28.19,5,5,0,0,1-.28-.62,1.8,1.8,0,0,1,0-.52c0-.52,0-1,0-1.57v-1.6c0-.54,0-1.08,0-1.61s.08-1.13.08-1.69-.08-.89-.11-1.33a4.38,4.38,0,0,1,0-.5c0-.1.07-.23,0-.3-.27-.5-.07-1-.09-1.54a4.25,4.25,0,0,1-.1-1.1c.13-.47-.12-.95.12-1.4,0-.06,0-.15,0-.22s0-.36,0-.54a.16.16,0,0,1,0-.06c-.35-.21,0-.47-.05-.7a1.91,1.91,0,0,1-.08-.87c.18-.44-.15-.84.06-1.28a2.42,2.42,0,0,0,0-1c0-.32,0-.63,0-.94a11.89,11.89,0,0,0,0-1.58c-.06-.45.13-.91-.08-1.38-.11-.24.11-.62.13-.93,0-.59,0-1.17,0-1.76a1.43,1.43,0,0,1,.07-.28c0-.09.1-.19.08-.27a.78.78,0,0,1,.1-.84s0-.06,0-.06c-.32-.32.12-.62,0-.9s0-.47-.07-.62a.93.93,0,0,1,0-.68,4.55,4.55,0,0,0-.07-.9.37.37,0,0,1,0-.11c0-.33,0-.67,0-1,0,0,0-.06,0-.08.32-.89,0-1.81.09-2.72s.07-1.93.12-2.9a3.75,3.75,0,0,1,.25-.76c0-.09.05-.25,0-.3-.36-.35-.25-.71-.06-1.08,0,0,0-.06,0-.09a5.29,5.29,0,0,1,.06-.8.48.48,0,0,0-.05-.49c-.08-.12,0-.39.09-.59s.1-.18.08-.25a5.33,5.33,0,0,1-.17-.66,6.37,6.37,0,0,1,.13-.74c0-.15,0-.31,0-.46a1.15,1.15,0,0,1,0-.46A2.19,2.19,0,0,0,19,23a2.87,2.87,0,0,1,0-.83c0-.52,0-1,.06-1.57,0-.27,0-.54.06-.82,0-.06-.07-.19-.1-.18a.3.3,0,0,0-.24.11c-.31.4-.45.93-.94,1.22a1.86,1.86,0,0,0-.52.67,10.19,10.19,0,0,1-1.45,1.7c-.2.22-.37.47-.59.68s-.71.62-1.06.93c-.06.05-.14.11-.16.18s-.17.25-.36.3S13,25.52,13,26c0,0,0,.09,0,.09-.66.12-1,.76-1.49,1.07-.19.1-.27.37-.55.21a.28.28,0,0,0,0,.12s0,.1,0,.1c-.29.19-.43.58-.85.57-.06,0-.17,0-.24.2s-.5.45-.79.65a.19.19,0,0,1-.19,0c-.21-.14-.35-.17-.36.15,0,0-.09.11-.09.11s-.24-.13-.26-.22-.12-.29-.3-.09c0,0-.17,0-.19-.07-.16-.34-.38-.36-.67-.08a5.56,5.56,0,0,1-.5.47c-.07.06-.26.19-.21-.11,0,0-.08-.09-.13-.14a.91.91,0,0,0-.09.17c-.21.54-.4,1.1-1,1.34h0c.13-.42.25-.85.4-1.27.06-.18.17-.35.24-.52,0,0-.14-.14-.16-.13a3,3,0,0,1-.63.29c.16-.18.33-.36.48-.54,0,0,0-.07,0-.1H5.31a.94.94,0,0,0-.68.51h0a4.13,4.13,0,0,0-.37-.73c0-.07-.26,0-.39,0s0,.22,0,.32a.27.27,0,0,0,.17,0,.62.62,0,0,0,.17-.11s.06.11,0,.13a.52.52,0,0,1-.19.17l-.46.19.05-.43-.33.29a1.17,1.17,0,0,1-.26.1l.08-.24A4.36,4.36,0,0,0,3.34,28s-.09-.08-.13-.12,0,.11,0,.15a4.1,4.1,0,0,1-.22.41,1.31,1.31,0,0,0-.12-.27c-.12-.15-.25-.28-.38-.42h0a1,1,0,0,0,.18,0,.23.23,0,0,0,.12-.12s0-.08-.08-.12c-.15.14-.5-.13-.53.26v.1c-.2.27-.2.27-.5,0a2.34,2.34,0,0,0-.27-.15c.13-.07.27-.12.39-.2a4,4,0,0,0,.39-.3l-.06,0a1.54,1.54,0,0,0,.22-.3c.12-.29.42-.51.31-.88L3,25.93l.16.19.14-.22-.31,0,.13-.47H2.82a1.37,1.37,0,0,1,.27-.22.56.56,0,0,1,.37-.07c.31.15.09-.16.17-.19h0c.19.12.35.24.2.49-.13,0-.25.07-.37.12s0,.11,0,.12.22.07.24,0a.89.89,0,0,0,.08-.29c.08-.09.21-.16.24-.26s-.07-.34.19-.38c-.12-.48.33-.31.5-.46a4.88,4.88,0,0,0,.58-.91.36.36,0,0,1,.26-.13c.16,0,.38-.31.39-.53a.79.79,0,0,1,.11-.29l.25-.57h0l.26-.08-.1-.17h0A1.69,1.69,0,0,1,7.22,21a.5.5,0,0,0,.17-.1s.16-.51.16-.51l.17.09.09.16.32-.32s0-.08,0-.12l-.36.26s0,0,0,0a1.27,1.27,0,0,1,0-.34A.77.77,0,0,1,8,19.88a4.31,4.31,0,0,0,.46-.39c.23-.27.43-.56.64-.84.06-.09.09-.21.16-.3a2.2,2.2,0,0,1,.23-.2c.07-.08.33-.1.12-.31,0,0,0-.13.07-.18.28-.27.58-.53.84-.82a2,2,0,0,0,.26-.48s0-.08,0-.08c.35,0,.13-.33.26-.47s.25-.42.41-.6.41-.36.59-.56.33-.19.1-.4a1.62,1.62,0,0,1,.22-.29s.13,0,.17,0,.29-.2.43-.3l-.31-.16c.19-.21.43-.42.62-.67a.67.67,0,0,0,.06-.4c0-.37.18-.58.54-.55a.89.89,0,0,0,.45-.07l-.08,0c-.54,0-.6-.08-.41-.56a3.36,3.36,0,0,1,.34-.65c.12-.2.31-.35.43-.55s.2-.48.33-.7c.24-.41.51-.8.76-1.21.08-.13.1-.29.18-.42s.34-.46.48-.71.45-.8.68-1.19c.06-.1.19-.16.28-.24s.11-.08.1-.1c-.07-.23.08-.36.22-.47s.17,0,.25,0c0-.43.17-.59.6-.71a1.86,1.86,0,0,0,.45-.3h0a1.32,1.32,0,0,0,.26.05.65.65,0,0,0,.32-.12s-.05-.18,0-.27c0-.26.13-.51.19-.76h.14l.19.64.11-.63h0c.41-.07.57-.39.7-.74A1.11,1.11,0,0,1,20.81,2c.45.25.28-.18.37-.33h0c.18-.15.17-.14.33,0a.23.23,0,0,0,.2,0c.22-.32.42-.65.62-1a.61.61,0,0,0,.09-.28c0-.2-.09-.46.26-.22.15.1.23-.51.38,0a1.66,1.66,0,0,1,0,.5.56.56,0,0,0,0,.23c.08.13.18.24.25.34a3.13,3.13,0,0,0,.43-.07.16.16,0,0,0,.11-.1c0-.23,0-.46.33-.39.07,0,.16-.15.26-.24.06.5-.37,1,.18,1.5a2.37,2.37,0,0,0,.17-.41c0-.12,0-.32,0-.36a3,3,0,0,1,.71-.36c.16,0,.3,0,.26.24s.08.22.07.33a.8.8,0,0,1,0,.24l-.37-.25s-.13,0-.15,0,0,.18-.09.21a.73.73,0,0,0-.37.54c0,.09-.23.13-.35.19l-.22-.13s0,.1,0,.1l.2.07a1,1,0,0,0-.09.18.78.78,0,0,0,0,.22c.05,0,.1-.08.14-.07s.13.08.19.07A.57.57,0,0,0,25,2.67c.12-.12.19-.28.3-.41s.13,0,.17,0,.2.12.27-.06.37-.14.57-.09c0,0,.07.09.06.13a2.29,2.29,0,0,1-.12.37s-.09,0-.13.07l.15.18c.13.12.29.21.36.36s-.11.22-.18.34l.11-.27-.08,0,0,.29c.31.13,0,.32.05.47a1.71,1.71,0,0,1,0,.59c0,.22-.19.39,0,.65a1.78,1.78,0,0,1,.23.79.6.6,0,0,1,0,.23c0,.13-.05.26-.07.39l.54.08a2.91,2.91,0,0,0-.15.47c0,.12,0,.32,0,.37.29.24,0,.25-.11.31l.19.11c.08,0,.17.23.25,0,0,0,.11,0,.16,0V8.2Zm-19,19.5-.25.35c.37,0,.29-.18.24-.36l.19-.07,0-.07ZM11.86,25h-.38l.14.2.23-.2.2-.35C11.76,24.67,11.78,24.84,11.86,25ZM4.92,28c.07,0,.19,0,.22-.06s.12-.32.18-.48c.26-.05.5-.43.82,0-.06-.1-.16-.14-.17-.21-.14-.54-.34-.15-.51,0s-.14.13-.22.2l-.39.55-.38.19.07.1ZM23.35,73.41c.2-.25.58-.45.24-.86,0,0,.07-.24.1-.24.29,0,.26-.21.29-.36s-.11-.17-.17-.26c-.13.12-.38.07-.4.34a6.41,6.41,0,0,1-.13,1c0,.08-.1.16-.18.21s-.14,0-.22,0l.17-.25a.38.38,0,0,0-.16,0l-.4.12a1.12,1.12,0,0,1,.22.16s0,.11,0,.17c0,.23-.34.62.26.61-.09-.26-.15-.53.27-.56l.12.26.08,0ZM10.73,25.84c-.1,0-.13,0-.14,0-.35.34-.7.68-1,1-.05.06,0,.2,0,.3a1.05,1.05,0,0,0,.32-.15c.2-.21.38-.44.57-.65a2.87,2.87,0,0,0,.31-.29C10.77,26.07,10.73,26,10.73,25.84Zm.44-8.39c.11-.21.24-.44.35-.67a.64.64,0,0,0,.05-.24.34.34,0,0,0-.14,0,.84.84,0,0,0-.43.42c-.05.1-.17.15-.25.22l-.11.12s.08.11.14.12S11.09,17.44,11.17,17.45Zm-.61,6.32h.18a1.45,1.45,0,0,0,.26-.4c0-.06-.13-.23-.22-.25-.33-.08-.16.31-.33.41A1.72,1.72,0,0,0,10.56,23.77Zm.1,3.26a5.2,5.2,0,0,0,.34-.55s-.08-.1-.12-.16l-.38.51S10.57,26.91,10.66,27Zm-.14-2.62a.71.71,0,0,0-.2.08,1.55,1.55,0,0,0-.21.35s.07.1.12.16a1.86,1.86,0,0,0,.23-.32C10.5,24.62,10.49,24.54,10.52,24.41ZM4,27.27l-.16-.13-.39.58.1.07Zm7-9.84-.08.57c.05,0,.13,0,.17,0S11.19,17.65,10.91,17.43Zm2.09,7-.11,0-.13.43.4.11Zm16.36,7-.26-.4-.16.38C29.2,31,29.16,31.51,29.36,31.46ZM17.16,19.74,17,19.65l-.27.43.14.09ZM6.83,22.24l-.08,0a1.06,1.06,0,0,0-.17.26c0,.05,0,.13.08.19ZM23,72.15l-.16-.06-.12.38s.11,0,.11,0S22.92,72.26,23,72.15Zm-.63-.59.13,0,.11-.44h-.1A3.17,3.17,0,0,0,22.35,71.56ZM11.66,16.82l.11.1.22-.28s-.08-.05-.1,0ZM13.52,13l.09.07.36-.42-.09-.07ZM23,2l.11.06.15-.43-.08,0ZM10.1,23.22,10,23.15c-.07.12-.15.24-.22.37s.05,0,.07.07l.19-.29A.56.56,0,0,0,10.1,23.22ZM17.65,5.84l.11,0,.14-.31-.1,0C17.74,5.65,17.7,5.74,17.65,5.84Zm8.51.77-.1,0,.07.35.09,0Zm2.9,22H29l-.08.35L29,29Zm-2.44,39.1c-.05,0-.07-.08-.11-.1s-.07,0-.07.07a.84.84,0,0,0,.06.14ZM7.19,25.85l-.09-.07-.2.27L7,26.1ZM16.7,7.45l-.08,0c0,.08.05.16.08.23h.1Zm2.74-3.23-.12,0-.06.27.08,0A2.77,2.77,0,0,0,19.44,4.22Zm.66-.41c-.11-.05-.15-.09-.18-.08a1.07,1.07,0,0,0-.19.07s.07.08.1.08A1.18,1.18,0,0,0,20.1,3.81Zm-5.51,7.94s-.1.08-.09.11a.26.26,0,0,0,.09.14s.08,0,.12,0ZM9.89,27.61h0l.13.22.06,0Zm2.79-3.47h-.07v.36h.07Zm16-3.65-.1-.06-.15.23.08.06ZM19.13,39.31l.09,0L19.11,39,19,39Zm5-35.72.17-.11s-.09-.09-.14-.09-.08.06-.12.1ZM9.6,18.79a.41.41,0,0,0,.08-.1l-.13-.12s-.05,0-.05.05Zm7,2.54.05.11s.09-.05.11-.08,0-.08,0-.12Zm-.18-.78c-.06.08-.1.12-.1.15a.35.35,0,0,0,0,.13s.09-.06.1-.1S16.41,20.64,16.38,20.55ZM9.31,28l-.09.08.12.12a.28.28,0,0,0,.05-.09S9.34,28.07,9.31,28ZM24.79,74.28l0-.08s-.08,0-.09.06,0,.07,0,.1ZM23.47,4.35l-.14-.12-.07.11.16.09ZM6.56,26.57s0,.08.07.09.06,0,.07-.05a.09.09,0,0,0,0-.08S6.6,26.55,6.56,26.57Zm3.17-8.14,0,.06s.09,0,.1,0a.58.58,0,0,0,0-.14ZM22.21,50.12c0-.1.05-.13,0-.17s0-.05-.07-.08-.07.07-.08.11S22.14,50,22.21,50.12Zm6.71-25.21-.12-.09s-.06.07-.06.11,0,.06.06.1Zm-24.24,0-.06.05s0,.09.08.1.07,0,.1-.06ZM29.54,42.93a.83.83,0,0,0-.2-.08s0,0-.07.08a.75.75,0,0,0,.12.07S29.45,43,29.54,42.93Zm-.14,2.22c-.07,0-.12,0-.14,0a.24.24,0,0,0-.1.1s0,.05.05.08Zm-21.33-20c-.07,0-.11-.06-.13-.05a.33.33,0,0,0-.11.09s0,.06,0,.09Zm5.28-.32h0a.12.12,0,0,1-.05.05h0Zm-2.47,0c0-.06.07-.1.07-.14s0-.05,0-.08a.43.43,0,0,0-.09.1S10.84,24.78,10.88,24.84Zm-2.19-.21,0-.07-.05,0a.07.07,0,0,0,0,.06Zm20-1.26a.49.49,0,0,0,0,.15s0,0,.07.05a.67.67,0,0,0,.06-.12S28.74,23.41,28.69,23.37ZM3.54,26l.07,0,0,0H3.5S3.53,26,3.54,26Zm5-5.77a.44.44,0,0,0-.1.08s0,.06,0,.09.07,0,.08-.06A.39.39,0,0,0,8.58,20.23Zm.56-.44-.07-.09s-.07,0-.07.06a.21.21,0,0,0,0,.1Zm4-5.19.07,0,.08-.18-.05,0Zm.33-1.26.12-.1s0,0-.06,0l-.13.05Zm1.08-2.15s-.06.07-.05.09,0,.05.06.08.06,0,.06-.07S14.59,11.23,14.56,11.19ZM3.73,26.58l.07-.06s0-.05-.07-.05,0,.05-.06.07ZM18.85,4.74l0,0-.07.08,0,0Zm1.83,22-.12-.11s-.06.07,0,.09a.28.28,0,0,0,.09.1ZM29,27h-.07l0,.25.1,0C29,27.12,29,27.05,29,27Zm-18.89.38-.06,0a.14.14,0,0,0,0,.06s0,0,.06,0Zm-.81.4s0,.05.05.05h.13s0-.05,0-.05Zm19.87,3s-.06-.09-.07-.09-.09,0-.1.07a.31.31,0,0,0,.05.12ZM22.85,2.62,23,2.49s-.06-.06-.07-.05a.2.2,0,0,0-.12.08S22.83,2.57,22.85,2.62Zm6,23.74h.07l0-.25h-.05Z" class="cls-1"/><path d="M4.39,32.1c-.12-.27-.32-.49.06-.55l-.15-.37L4.73,31c0,.06,0,.14,0,.19C4.65,31.5,4.53,31.77,4.39,32.1Z" class="cls-1"/><path d="M2.91,31.8c.16-.11.26-.25.34-.24a3.07,3.07,0,0,1,.54.22,1.54,1.54,0,0,1-.23.39c-.06.06-.2,0-.3,0s0-.1.05-.15l.07-.22H3.15A1.1,1.1,0,0,1,2.91,31.8Z" class="cls-1"/><path d="M23.67.56a1,1,0,0,1-.16.26s-.13,0-.16-.06a.83.83,0,0,1-.08-.28,2.13,2.13,0,0,1,0-.25,1.81,1.81,0,0,0,0-.23,1.2,1.2,0,0,1,.21.17A2.35,2.35,0,0,1,23.67.56Z" class="cls-1"/><path d="M2,32.68l.61-1,.1.07c0,.47-.37.68-.72.89Z" class="cls-1"/><path d="M20.74,70.76h0a1.2,1.2,0,0,1-.21.31c-.05,0-.18,0-.27,0l.08-.45Z" class="cls-1"/><path d="M3.63,25c-.08-.21-.08-.2-.21-.07S3.3,25,3.24,25a.47.47,0,0,1,0-.17,2.73,2.73,0,0,1,.55-.52c-.07.23-.13.46-.2.69Z" class="cls-1"/><path d="M19.46,68.6c-.06.23-.12.44-.18.64a.12.12,0,0,1-.11,0s-.08,0-.07-.06C19.19,69,19.05,68.67,19.46,68.6Z" class="cls-1"/><path d="M4.18,29.44c0-.16-.25-.38.05-.57.06,0,.15,0,.23,0a.85.85,0,0,1,0,.23A3.49,3.49,0,0,1,4.18,29.44Z" class="cls-1"/><path d="M27.64,10.19l.21-.16a3.62,3.62,0,0,1,.17.56c0,.08-.14.2-.16,0l-.15.09h0c0-.08,0-.19.06-.25.23-.27,0-.22-.14-.23Z" class="cls-1"/><path d="M28.18,13.16l.27.35-.26.11L28,13.7v-.39h0c.25.2.25,0,.26-.17Z" class="cls-1"/><path d="M18.89,4h-.25a4.34,4.34,0,0,1,.16-.47s.12-.06.2-.1c0,.2-.08.38-.12.57Z" class="cls-1"/><path d="M1.49,32.42l.58-.88c0,.15,0,.29,0,.31C1.81,32,1.86,32.47,1.49,32.42Z" class="cls-1"/><path d="M2.26,31.2,3,30.83C2.85,31.21,2.58,31.23,2.26,31.2Z" class="cls-1"/><path d="M19.44,3.06l-.47,0V3l.47-.08Z" class="cls-1"/><path d="M28,12.62l.15-.17c.55.18.09.34,0,.51L28,12.77Z" class="cls-1"/><path d="M21.08,71.74l-.07.47-.13,0,.07-.47Z" class="cls-1"/><path d="M19.29,71l-.09.39c-.05,0-.13-.05-.13-.07s.07-.23.11-.35Z" class="cls-1"/><path d="M19.32,69.61l-.24.31-.1-.09.24-.3Z" class="cls-1"/><path d="M18.87,69.39l-.27.09s0-.07-.06-.12l.29-.1Z" class="cls-1"/><path d="M19.88,69.81l.34-.16s.07.07.07.07l-.23.27Z" class="cls-1"/><path d="M5.67,22.63l-.26.31-.08-.06.21-.35Z" class="cls-1"/><path d="M0,30.28c.08-.08.16-.17.25-.25l.08.07-.24.27Z" class="cls-1"/><path d="M20.05,2.9l-.25-.39L20,2.44,20,2.9Z" class="cls-1"/><path d="M4.15,30.14,4,30.46s-.09-.08-.08-.1a2.34,2.34,0,0,1,.15-.27Z" class="cls-1"/><path d="M25.58,74.51l.11-.11c0,.06,0,.13,0,.17a2,2,0,0,1-.25.25,1.06,1.06,0,0,1,0-.19A.54.54,0,0,1,25.58,74.51Z" class="cls-1"/><path d="M1.6,27.1A.88.88,0,0,1,1.5,27a1,1,0,0,1,.19-.16s.09.07.08.08Z" class="cls-1"/><path d="M2,32.67a.06.06,0,0,1,0,0L1.85,33l-.09-.13L2,32.68Z" class="cls-1"/><path d="M3.76,29.49c-.06.09-.11.17-.18.26l-.08-.06.15-.28Z" class="cls-1"/><path d="M21.18,1.7l-.26,0,0-.24.29.2Z" class="cls-1"/><path d="M28.35,14.17c-.06-.08-.11-.13-.1-.15a1.67,1.67,0,0,1,.12-.23s.11.09.1.13A1.34,1.34,0,0,1,28.35,14.17Z" class="cls-1"/><path d="M20.13,68.48l.06-.35h.06l0,.35Z" class="cls-1"/><path d="M28.19,67.29l.11-.23.1.11-.21.12Z" class="cls-1"/><path d="M4.2,32.8l.26-.22.1.1-.27.22Z" class="cls-1"/><path d="M27.64,8.31l.05-.11c.06,0,.14,0,.17.07s0,.1-.05.16Z" class="cls-1"/><path d="M20.13,71.73l.1-.18a.33.33,0,0,1,0,.13s-.05.06-.07.08Z" class="cls-1"/><path d="M28.44,65.25c0,.06,0,.1,0,.12l-.11.12s-.07-.07-.06-.07A1.29,1.29,0,0,1,28.44,65.25Z" class="cls-1"/><path d="M2.18,27.81v-.1l.31,0h0Z" class="cls-1"/><path d="M2.15,26.42l-.26.07,0-.11.26-.07Z" class="cls-1"/><path d="M3.37,31.44l-.16-.21.07-.05.15.2Z" class="cls-1"/><path d="M3.69,31.3l0-.24.13,0a.81.81,0,0,1,0,.22Z" class="cls-1"/><path d="M18.68,3.17v.25s-.09,0-.09,0,0-.14,0-.21Z" class="cls-1"/><path d="M24.59,74.89l-.09-.09.08-.15.17.09Z" class="cls-1"/><path d="M3.33,30.07a.8.8,0,0,1-.16.08s0,0-.06,0L3.26,30Z" class="cls-1"/><path d="M5.07,30.53l-.1.25-.1-.07.21-.17Z" class="cls-1"/><path d="M18.47,3.74l-.13.11s-.06-.07-.06-.1.06-.07.08-.11Z" class="cls-1"/><path d="M20.44,72.31s-.05,0-.08.06,0,0-.05,0l.06-.08Z" class="cls-1"/><path d="M28,11s-.07-.06-.07-.09,0-.05.07-.07.05,0,.05.06A.19.19,0,0,1,28,11Z" class="cls-1"/><path d="M26.3.39l-.22.1,0-.06.21-.12Z" class="cls-1"/><path d="M.18,32.27s0-.08,0-.1a.52.52,0,0,1,.11-.1s.07.09.06.1A.56.56,0,0,1,.18,32.27Z" class="cls-1"/><path d="M6.34,21.93l-.13,0,.29-.19h0l-.16.25Z" class="cls-1"/><path d="M3.13,32.92l.05.1s-.07,0-.1,0S3,33,3,33Z" class="cls-1"/><path d="M20.5,69.54v0l0,0v0Z" class="cls-1"/><path d="M4.05,32.31s.07.06.07.09,0,.05,0,.07A.22.22,0,0,1,4,32.41S4,32.35,4.05,32.31Z" class="cls-1"/><path d="M18.68,70.05l0,.06-.09,0,.06,0S18.66,70,18.68,70.05Z" class="cls-1"/><path d="M18.61,70.85l-.05,0,0-.08s.05,0,.06,0S18.6,70.83,18.61,70.85Z" class="cls-1"/></g></g></svg>