<svg xmlns="http://www.w3.org/2000/svg" viewBox="0 0 52.2 76.25"><defs><style>.cls-1{fill:#2d2c86;}</style></defs><title>xxiv-seven-lustrumweek</title><g id="Layer_2" data-name="Layer 2"><g id="Layer_3" data-name="Layer 3"><path d="M5.18,1.94l-.32-.07c.07-.17.13-.32.2-.47a.49.49,0,0,1,.14-.18s.12,0,.13.07c.11.33.22,0,.25,0A1.9,1.9,0,0,0,5.7.91.66.66,0,0,1,6.44.44a5.84,5.84,0,0,0,1,0c.12,0,.26-.11.25.13l.09,0A2.91,2.91,0,0,1,9.5.31c.15,0,.33-.13.49-.12s.6.07.9.11c.06,0,.15,0,.17,0,.21-.33.43-.24.67-.05,0,0,.13.07.15.06.31-.35.59-.09.91,0s.42,0,.64-.06.52.1.71-.15c.1.49.42-.06.59.12.14-.15.21-.12.24.08,0,0,.12,0,.12,0,.14-.47.66,0,.86-.31,0,0,.25.17.38.16A2.45,2.45,0,0,1,17.5.29s.1-.1.16-.13S17.94,0,18,0a.91.91,0,0,0,1,.14c.1.32.57-.26.61.25a.88.88,0,0,1-.06-.26.12.12,0,0,1,.09-.1s.1,0,.12.07c.13.25.17.27.38.1s.24-.29.18.06a.9.9,0,0,0,.38-.05c.17-.11.23-.18.46,0s.6.09.91.08a1,1,0,0,1,.64.38,1.84,1.84,0,0,0,.25.34c.07-.14.35-.2.15-.45,0-.07,0-.22,0-.47.16.38.29.41.53.23a.52.52,0,0,1,.5.1c.29.35.39,0,.59-.14,0,.18,0,.33.07.48s.09.11.13.17S25,.82,25,.76s.08-.27.27-.15h0c.67-.41,1.37.14,2,0,.23-.07.41-.15.44.19l.3-.29.21.19L28.16.8l.05,0,.08-.21c.09-.06.12-.35.32-.09,0,0,.21,0,.29,0s.42,0,.62.05.32.16.5,0c0,0,.22.29.51.19.1,0,.28,0,.38-.12a.11.11,0,0,1,.11,0c.36.14.36.14.72-.24-.18.37.05.44.24.6l0-.43.24.29.4-.44a1.15,1.15,0,0,0-.07.32c0,.06.09.11.14.16.1-.38.41,0,.61-.19s.3.08.49.13C34,.5,34,.5,34.3.81L34.48.6s.06-.1.07-.09a.77.77,0,0,0,.58,0c.11,0,.26.34.37,0l.21.3s0,0,0,0a.62.62,0,0,1,.86-.1c.11.05.31-.08.47-.11s.11.06.17.06l.59,0a1.57,1.57,0,0,1,.23,0s0,0,0,0a2,2,0,0,1,.41,0c.08.31.15.43.3,0,.1.06.22.18.3.15s.13-.18.2-.29c.14.2.64.15.42.6a.27.27,0,0,0,.07.28L40,.94c.19.29.33,0,.5-.09s.15-.09.16-.08c.3.36.71.09,1,.19.16,0,.39-.15.47.15.09,0,.17-.11.26-.11a5.49,5.49,0,0,1,.81,0,3.14,3.14,0,0,1,.82.16c.12.05.18.27.28.44.13,0,.07-.46.44-.35s.41.29.35.49a.39.39,0,0,0,.06.3.29.29,0,0,0,.27,0,2.24,2.24,0,0,0,.3-.31h-.43V1.62c.17,0,.37-.09.49,0s.15.28.22.43l-.42.19s.15.08.15.12c0,.48.39.43.65.57,0,0,.07,0,.1,0h.3a2.37,2.37,0,0,1-.15.32c0,.07-.15.08-.22.13a.92.92,0,0,0-.22.22s.07.13.1.13a1,1,0,0,0,.34-.09c.06,0,.09-.1.13-.15s-.06.15,0,.19a.72.72,0,0,0,.19.2,2.58,2.58,0,0,0,.33-.41c0-.06,0-.19-.06-.29h.15v.7c0,.21-.23.63.31.32,0,0,.11.05.21.1a2.15,2.15,0,0,0-.38.21c-.06,0-.07.14-.1.21l.26,0c.1,0,.26,0,.3,0a.7.7,0,0,1,.18.46c0,.19-.44.36,0,.58,0,0,0,.27,0,.42,0,.45-.07.9-.09,1.35,0,.06.11.18.14.17a1.19,1.19,0,0,0,.27-.17,3.72,3.72,0,0,1,0,.89,1.34,1.34,0,0,1-.37.58c-.16.16-.37.27-.24.56,0,.05-.07.15-.13.22-.28.33-.26.77-.45,1.13A3,3,0,0,0,46.86,12a8.56,8.56,0,0,1-.51,1.5,5.12,5.12,0,0,0-.18.7,6.33,6.33,0,0,1-.39,1.54,4.74,4.74,0,0,0-.13,1.14c-.1.68-.22,1.36-.31,2-.05.35-.05.7-.09,1.05s-.15.82-.18,1.23,0,.75,0,1.12a3.11,3.11,0,0,1-.11.41c0,.22-.16.48-.09.66a1.36,1.36,0,0,1-.07,1,1.06,1.06,0,0,0,0,.31,1.3,1.3,0,0,1,0,.34c-.07.27-.24.54,0,.79-.24.25.29.66-.18.86,0,0,0,.13,0,.18-.11.24,0,.56-.28.78a.38.38,0,0,0,.09.61c.06,0,.08.17.09.25,0,.4,0,.8.05,1.19s0,.51-.38.85a.3.3,0,0,0,0,.29.75.75,0,0,1,.21.74c-.1.39-.07.8-.17,1.19s0,.88-.43,1.14c0,0,0,.13-.06.2s.19.08.26,0,.22,0,.2.17a4.93,4.93,0,0,0,.07.81l-.45-.25-.07.08a1.72,1.72,0,0,0,.27.27c.2.14.35.26.08.49-.08.07-.09.23-.1.36s.07.29,0,.38c-.27.47.11.9.07,1.35a.66.66,0,0,0,.23,0,2.62,2.62,0,0,1,.29,0c-.42.21-.35.54-.27.94.16-.25.61-.11.57-.58.39-.14.22.28.32.47a3.47,3.47,0,0,1,.26-.4c.07-.07.21-.15.28-.12s.23.2.21.24c-.14.24.15.35.14.55a.31.31,0,0,0,0,.12c.36-.24.24.19.43.33a2,2,0,0,1,0-.43,1.05,1.05,0,0,1,.17-.29c.06.1.19.23.17.3-.1.27.11.31.25.33s.34-.07.39.18a.59.59,0,0,0,.2-.06c.08-.07.15-.18.24-.25s.13,0,.2,0a1.77,1.77,0,0,1-.06.17c0,.07-.13.21-.12.22a2.64,2.64,0,0,0,.55.34c.07,0,.23-.08.29-.17s.09-.23.22-.33a2.54,2.54,0,0,0,0,.29c0,.13-.06.36,0,.39a1.69,1.69,0,0,0,.7.25.38.38,0,0,0,.39-.48.38.38,0,0,1,.06-.19c0,.06.11.11.11.17a2.22,2.22,0,0,1,0,.93,5.56,5.56,0,0,1-.7.87,1,1,0,0,0-.1.34h.25a.88.88,0,0,0,.2-.09S50,42,50,42s-.13.16-.19.15c-.39,0-.38.22-.36.48h0a.73.73,0,0,1-.26.17c-.32.08-.44.25-.33.57l-.26.27-.16.12a.78.78,0,0,0,.23.06,2.83,2.83,0,0,0,.4-.17l-.21-.28.62-.39a2.45,2.45,0,0,1-.23.68.44.44,0,0,0-.07.5c.13.26-.33,1-.6,1,0,0-.08-.09-.11-.14s-.08-.2-.15-.26c-.3-.23-.42-.18-.51.18,0,.08-.1.22-.13.21a.64.64,0,0,0-.51.17L47,45.17,46.87,45h0c-.21-.15-.69.09-.78.4a2.27,2.27,0,0,0-.06.25c-.11,0-.26-.13-.3-.09-.42.38-.49,0-.68-.29.1,0,.23,0,.26,0a1.68,1.68,0,0,0,.16-.39,1.69,1.69,0,0,0-.29.17c-.14.11-.26.24-.4.36a.69.69,0,0,1-.15.07.34.34,0,0,0,0-.14c0-.13-.06-.26-.1-.4l-.61.71h-.07l-.25.08h0l-.11-.26c-.75.24-.48,1-.66,1.46A5.71,5.71,0,0,0,42.72,48c-.1.59-.27,1.17-.34,1.77s-.25,1.26-.39,1.88-.25,1.47-.47,2.19a5.48,5.48,0,0,0-.15,1.35,3.43,3.43,0,0,1-.23,1.22c-.11.23,0,.55-.06.82s-.14.47-.18.71c-.14.75-.26,1.51-.41,2.26a5.92,5.92,0,0,1-.28.64,1.18,1.18,0,0,0,0,.27c0,.09,0,.21,0,.28s-.45.35-.17.66c-.41.25-.18.7-.33,1,0,.1-.16.17-.22.26s-.11.2-.08.24c.2.29,0,.28-.2.35a.56.56,0,0,0-.34.32l.57-.12a3.25,3.25,0,0,1-.23.37.51.51,0,0,0-.19.59c0,.18-.17.44-.27.67s-.13.31-.19.47-.13.33-.21.49a1.56,1.56,0,0,1-.2-.06l.28-.33-.11-.06-.16.4c-.25.32-.24.37,0,.46-.06.11-.11.22-.16.33s0,0,0,0a1.86,1.86,0,0,1-.47.19c-.22,0,.2.57-.22.34.09.23.2.48.29.74,0,0-.11.12-.18.14s-.12,0-.18-.07l-.09.35a1.05,1.05,0,0,0,.24.06c.29,0,.27.11.14.3s-.05.21-.09.3a2,2,0,0,1-.19.31c-.09-.1-.26-.18-.27-.29a6.14,6.14,0,0,1,0-1c0-.18.12-.35-.19-.29,0,0-.08-.13-.12-.21l-.15-.27a1.3,1.3,0,0,1-.08-.17l-.1.19.19,0a3.69,3.69,0,0,1-.4.55c-.17.17-.31.3,0,.47a1.35,1.35,0,0,1-.12.21c-.06.09-.19.18-.19.27s-.07.28-.34.2c.11.14.19.19.21.27a.71.71,0,0,1,0,.25l-.23-.07c-.06,0-.13-.06-.18,0s-.06.14,0,.16c.26.28.3.8.86.75a1.47,1.47,0,0,0-.06-.14c0-.07,0-.15,0-.22s.14.07.16.13c.11.31.22.61.3.93,0,.06-.1.17-.17.24s-.26.24-.39.35c0-.13,0-.32,0-.38s-.15-.51-.48-.55c-.07,0-.14-.06-.2-.09a2.27,2.27,0,0,0-.06.25c0,.11,0,.22,0,.34.33,0,.42.13.41.71l.36-.28c.12.29.1.51-.25.61-.06,0-.14.21-.12.22.3.24,0,.32-.12.4-.28.17-.49.3-.36.72.06.19-.17.47-.29.7,0,0-.14.06-.18,0-.22-.17-.44-.34-.65-.52s-.13-.16-.21-.21a6.5,6.5,0,0,0-.63-.37c-.22-.11-.46-.19-.69-.29l-.12-.11a3.83,3.83,0,0,1,.25-.44,1.91,1.91,0,0,1,.31-.34c-.21.33.09.54.22.82,0-.14.06-.28.11-.42a1.21,1.21,0,0,1,.14-.2,2.12,2.12,0,0,1,.11.21c.06.19.1.39.16.58l0,.06c.23.13.23.13.22.41a2,2,0,0,0,.4-.36s-.08-.28-.15-.28c-.25,0-.28-.16-.27-.37s.07-.44-.29-.33a.41.41,0,0,1-.36-.17c-.12-.25-.26-.37-.58-.2a1.9,1.9,0,0,0,.12-.37c0-.1,0-.27-.08-.31s-.4-.15-.44-.1-.12.16-.19,0a7.6,7.6,0,0,0-.42-.8.21.21,0,0,0-.14-.1c-.62-.11-.7-.34-.32-.87-.38-.21-.48-.16-.61.25a.57.57,0,0,1-.18.3c-.26.16-.3,0-.25-.21h0c0-.07,0-.18-.09-.2a3.89,3.89,0,0,0-1.07-.33c-.18,0-.39.27-.56.45s.06.21.11.3a1.14,1.14,0,0,0,.16.16l.45-.51.14.12a4.48,4.48,0,0,1-.29.58c0,.06-.14.09-.22.1s-.15,0-.23,0-.33,0-.34,0a2,2,0,0,1,0-.42.31.31,0,0,0-.1-.23,2,2,0,0,0-.38-.15l.35-.25.12.24c.05-.07.14-.14.14-.21a.35.35,0,0,0-.15-.21c-.09,0-.28,0-.29-.09s0-.38.05-.49.07-.43,0-.66a1.66,1.66,0,0,1-.09-1.46l.06.22h.07l-.13-.21c0-.12.42-.24,0-.38a.75.75,0,0,1,.06-.38c.08-.13.17-.22,0-.33a4,4,0,0,1,.36-.35c.59-.39.71-.64.51-1.23,0-.12-.22-.19-.33-.29a.75.75,0,0,1,0-.93l.07,0c-.3-.46,0-.89.08-1.31.19-1.35.45-2.7.69-4a2,2,0,0,1,.25-.91,1.17,1.17,0,0,0,.35-.64c0-.05,0-.1-.05-.24l-.19.49h-.07c.09-.51.18-1,.28-1.51.06-.32.13-.63.2-1,0-.13,0-.36.22-.16,0-.06,0-.16,0-.18s-.28-.28.08-.28a1.55,1.55,0,0,0,0-.22c0-.19-.25-.44.14-.52a.12.12,0,0,0,0-.1c-.13-.53-.13-.53.07-.86a.24.24,0,0,0,0-.12c-.08-.24-.08-.24.27-.25-.53-.18-.19-.52-.16-.73.12-.86.33-1.7.51-2.55.05-.25.12-.5.2-.81l-.3.16c-.1-.09-.17-.2-.24-.2a1.06,1.06,0,0,0-.35.09l-.36.06.16-.28-.06,0c-.31.14-.61.28-.93.4a.56.56,0,0,1-.4,0,.5.5,0,0,0-.58.09,2.43,2.43,0,0,1-.32.18L28,47.5a.29.29,0,0,0,.13-.08.46.46,0,0,0,.13-.19s-.08-.11-.09-.1a1,1,0,0,0-.16.13l-.43.36c0-.07,0-.15,0-.23l-.11.07.11.15c-.22.06-.36.42-.65.16-.22.24-.56-.07-.82.21s-.52.14-.79.19l0-.19c0-.11,0-.21,0-.28l-.33.26-.1-.17-.11.24.23-.09a2.4,2.4,0,0,1-.27.28,1.59,1.59,0,0,1-.33.25c-.06,0-.18.08-.21.05-.33-.33-.74.06-1.08-.13-.08.14-.08.14-.12,0s-.19-.12-.29-.18l-.09.17-.35.57L22,48.76h0a1.21,1.21,0,0,0,.21-.31,1.61,1.61,0,0,0,0-.49s-.13-.08-.19-.06c-.23.08-.51.14-.43.5l-.1.08c-.07,0-.16,0-.21,0-.25.22-.48.46-.74.67a4.61,4.61,0,0,0-.43.29c-.15.15-.24.29-.35,0a.39.39,0,0,0-.21.05c-.09,0-.13.16-.21.21s-.36.17-.38-.14l.39-.13a.92.92,0,0,0-.13-.12c-.09.08-.17.17-.25.25a2,2,0,0,1-.26.24c-.15.1-.32.18-.47.27,0-.36,0-.36-.26-.23s-.29.1-.43.13-.25,0-.26,0c-.15-.5-.32-.07-.47,0l-.2.11c-.12.09-.24.33-.39.08-.05-.09,0-.27.09-.41s.08-.09.09-.14,0-.12-.07-.23c-.11.16-.22.32-.34.47a.87.87,0,0,1-.09.11l-.1-.18c.21-.1.27-.29.07-.39s-.53-.13-.59,0c-.18.27-.19,0-.25-.05l-.24-.39a1.06,1.06,0,0,1-.1-.12c0-.15-.07-.31-.11-.46l-.63.2a.53.53,0,0,0-.17.08.77.77,0,0,1,0-.27c.08-.12.4-.08.24-.36a.55.55,0,0,0,.18,0,1.59,1.59,0,0,0,.2-.07s-.11-.07-.12-.12-.08-.3-.2-.61a2.06,2.06,0,0,1-.24.44c-.27.29-.33.26-.47-.1a.59.59,0,0,0-.39-.3c-.14,0-.28.16-.35.21a1.6,1.6,0,0,0-.2-.46c-.25-.31,0-.47.21-.62l-.74-.3.87-.46a3.51,3.51,0,0,0-.34-.39c-.14-.11-.4-.13-.18-.39l-.23-.1h0c-.12-.13,0-.49-.36-.41,0,0-.09-.12-.07-.14.27-.32-.08-.43-.21-.61h0a1.18,1.18,0,0,1,0-.25c0-.18,0-.48.34-.25a1.84,1.84,0,0,0,.68.1,1.23,1.23,0,0,0,0-.2c0-.12,0-.25,0-.38l.39.07.22.12,0-.1h-.25a2.39,2.39,0,0,1,.44-.18,2.81,2.81,0,0,1,.65-.06c.17,0,.41-.12.45.19.1,0,.22,0,.28,0s.24-.19.34,0c.05.08.18.13.27.19,0-.1.1-.21.08-.31s-.14-.11-.23-.14-.15,0-.22-.06c.28.11.42-.47.75-.13,0,0,.27-.18.25-.21-.09-.26.15-.31.23-.45a.5.5,0,0,0,0-.35c-.21.5-.44.16-.77.07.37-.1.55-.24.49-.55,0,0,.06-.14.12-.17s.25-.17,0-.29c-.06,0-.08-.19-.06-.28a3.07,3.07,0,0,1,.2-.45c.21.23.39.63.89.45-.17-.2-.17-.2.22-.82.13-.06,0,.58.33.1,0-.07.34,0,.59,0l.14-.23.25.4c.13-.15.26-.29.38-.45s.05-.27.28-.13.18-.25.37-.36v.3l.07,0,.07-.27c.24.35.37.05.56-.12v.31l.06,0a6.36,6.36,0,0,0,.59-.43.88.88,0,0,1,.8-.09s.1.08.12.07c.21-.13.42-.28.67-.45l.13.28c.06-.08.13-.15.18-.23a1.9,1.9,0,0,0,.1-.29l.14.4a.74.74,0,0,1,.79-.17s.09,0,.09,0c0-.34.37-.13.51-.28a.22.22,0,0,1,.13,0c.13.42.35,0,.45,0a2.36,2.36,0,0,1,1.46-.17s.07,0,.12,0c.31,0,.62-.12.94-.14a3.15,3.15,0,0,1,.59.07l.23-.13c.15-.09.45.19.47-.2.12,0,.32,0,.34.07.1.25.23.16.36,0s.51,0,.63-.29c0,0,.12,0,.14,0,.2.31.47.24.75.16.06,0,.14.06.2.09s.1.09.14.09c.2,0,.28,0,.39.08.07-.11.14-.31.22-.32s.24.15.38.19a1.93,1.93,0,0,0,.48.08c.34,0,.52-.12.55-.53.06-.64.22-1.28.33-1.91,0,0,0-.12.07-.12.27,0,.17-.13.12-.25s-.07-.12-.1-.19l.17,0a.13.13,0,0,0,0-.09c0-.25.08-.41.36-.47,0,0,.07-.09.1-.13-.28-.18,0-.33,0-.49s-.06-.47-.09-.71h0a5.67,5.67,0,0,1-.15-.69,3.85,3.85,0,0,1,.08-.47c0-.26.22,0,.3-.12a2,2,0,0,1,.19-.22c-.07,0-.14-.08-.19-.06-.29.08-.24-.13-.23-.27a3.2,3.2,0,0,1,.17-.94c.12-.25,0-.48.07-.72s.1-.61.15-.91a8.29,8.29,0,0,1,.27-1.42.78.78,0,0,0,0-.33,1.34,1.34,0,0,1,.1-.57c.18-.31,0-.66.13-1s.17-.37.24-.56a.3.3,0,0,0,0-.21c0-.14-.23-.3.1-.34a.54.54,0,0,0,0-.17c0-.3,0-.6,0-.89l.36-.07,0-.1-.32.18A4.71,4.71,0,0,1,36,21.21c.14-.33,0-.65.15-.95,0-.08.09-.15.13-.23s.1-.16.08-.19c-.28-.35-.07-.58.17-.82a2.43,2.43,0,0,0,.21-.29l-.26-.08c.07-.12.21-.26.18-.31-.17-.29-.14-.45.14-.68s.12-.5.19-.76c0-.11.14-.19.16-.3a.72.72,0,0,0,0-.46c-.29-.47.13-.62.37-.72s.16-.11.12-.23a2,2,0,0,1-.13-.46c0-.35.4-.31.45-.6-.12,0-.3-.25-.35.26l-.09-.19.5-.8.09.24.08-.07L38,13.41l.23-.65s0,0,0-.08c.17-.37.41-.73.19-1.17,0,0,0-.11.06-.14a.79.79,0,0,0,.45-.79c.43-.15,0-.52.18-.73l-.24-.21c-.23.29-.34-.08-.51-.1l-.15-.24h0l0,.24-.08.16c-.16-.3-.52.3-.65-.14a.33.33,0,0,0-.06-.12l-.31,0-.06-.14-.06,0,.07.18,0,.12c-.26-.11-.43,0-.6.19s-.1,0-.16,0c0-.18.38-.13.18-.41s-.25-.36-.47,0-.37.29-.51,0V9.31c0-.07,0-.15-.05-.22-.07-.27-.15-.41-.38-.1a1.23,1.23,0,0,1-.41.22l-.52.28C34,9.34,33.74,9,33.53,9s-.42.38-.4.8l-.46-.39-.11.27c-.05,0-.09-.12-.14-.13a.18.18,0,0,0-.17.06c-.08.21-.18.21-.31,0a.14.14,0,0,0-.11,0l-.34.05.11-.33.16-.15s0-.05-.05-.08l-.09.12c-.08,0-.17-.1-.22-.08-.32.16-.42,0-.6-.25s0-.38,0-.56,0-.28-.08-.33c-.23-.17-.5-.28-.73-.46-.08-.06-.08-.24-.14-.44l-.25.52a1.4,1.4,0,0,0-.09.17c0,.11-.14.23-.13.33s.16.35.19.53a1,1,0,0,1-.07.36c-.16-.18-.56.15-.61-.28,0-.12-.07-.3-.15-.34-.28-.11-.24-.24-.08-.42s0-.11,0-.16a.59.59,0,0,0-.14,0,1,1,0,0,0-.33.19.41.41,0,0,0-.05.31c.37.23.43.35.1.5s-.38.45-.57.69l-.32-.66-.07,0c0,.21.06.41.08.62,0,0,0,.11-.06.16s-.08-.1-.14-.12a2.27,2.27,0,0,0-.25-.06c0,.26-.12.28-.3.13,0,0-.08.06-.14.11l-.09-1c-.72-.19-.75.62-1.18.93,0-.26-.07-.51-.13-.76,0,0-.12-.09-.18-.08s-.06.1-.09.16l-.05-.17a.54.54,0,0,0-.2.1c-.09.14-.13.3-.22.44s-.29.31-.54.13c0,0-.19.05-.27.11s-.4.27-.64,0c-.05-.06-.22,0-.34,0V9.25h-.1c0,.13.06.25.1.38a0,0,0,0,0,0,0c-.1.06-.22.18-.29.16a1.64,1.64,0,0,1-.39-.29l-.42.24a.66.66,0,0,1-.14,0c0-.47-.54-.11-.6-.44a.44.44,0,0,0-.17.07c-.24.21-.31.2-.5-.07,0,0-.11-.1-.13-.09a1.39,1.39,0,0,1-1.37.06c-.07,0-.23.15-.34.23s-.07.1-.11.12-.12,0-.12-.06A.28.28,0,0,1,18,9.43c.1-.12.29-.24,0-.31,0,0,0-.15,0-.22a1.07,1.07,0,0,0-.1-.22l-.22.17h-.06l-.05-.35c-.24.17-.46.45-.7.06a.42.42,0,0,0-.32.08c-.12.12-.1.14-.22,0l-.2.11L16,8.84c-.31.08-.62.17-.93.23-.06,0-.13-.06-.19-.09l.14-.1.26-.2a5.25,5.25,0,0,0-.53-.29s-.11,0-.14,0c-.33.36-.39.07-.45-.2-.35.08-.34.28-.22.54a.75.75,0,0,1,0,.26s-.06-.14-.1-.16a3.43,3.43,0,0,0-.4-.06l.19.21a.75.75,0,0,0-.21,0,.14.14,0,0,0-.11.09c-.11.28-.31.05-.46.1a1.14,1.14,0,0,1,.06-.33c.07-.12.21-.19.3-.3a.65.65,0,0,0,.06-.21s-.09.06-.13.05a1,1,0,0,1-.42-.07c-.38-.23-.69.07-.93.2-.4.22-.36.3-.52-.07a.85.85,0,0,0-.1-.17L11,8.68c-.1-.13-.43-.07-.29-.38l-.2-.08L10.28,8l-.06.1.33.17c-.11.1-.2.21-.32.3a.92.92,0,0,1-.28.14s-.1,0-.16,0,0-.11.05-.14.16-.05.2-.11a.72.72,0,0,0,.11-.34S9.94,8,9.89,8s-.4,0-.57.23-.4-.05-.54-.25c0,0,.08,0,.12,0a1,1,0,0,0,.21-.1.64.64,0,0,1,0-.1l-.22.1a.44.44,0,0,0-.06.1c-.23-.2-.44-.28-.61.07h0L8,8H8a5.89,5.89,0,0,0-.42-.45s-.24.11-.24.18c0,.32-.23.42-.54.42a3.07,3.07,0,0,0,.25-.26c0-.06.11-.16.09-.21A.32.32,0,0,0,7,7.51c-.18,0-.45.15-.51-.2,0,0-.1,0-.12,0-.23.32-.35.07-.49-.09h0l.39-.43c-.08-.29-.4.23-.37-.22a4.09,4.09,0,0,0-.46.25c-.23.18-.45.38-.67.57h0c0-.23,0-.47.08-.71s0-.21,0-.32l-.29.13-.15,0V6.18c-.22.11-.48.2-.43.56-.49-.07-.07-.37-.22-.59l-.58.52h0c0-.26-.06-.54.17-.76,0,0,0-.16-.07-.25-.41.17-.13-.23-.31-.35-.06.18-.36.29,0,.47,0,0,0,.24-.07.26s-.17.5-.47.18c0,0-.16,0-.24,0A.3.3,0,0,1,2.06,6s.06-.12.09-.18h0c.39-.07.4-.08.59-.53a.85.85,0,0,1-.25,0,.34.34,0,0,1-.12-.14c.25-.26.14-.73.55-.9a4,4,0,0,0,.59-.42c-.31.1-.57-.1-.75.21,0,0-.12,0-.18,0l-.15,0c-.11.48-.92.44-.8,1.09,0,0-.11.13-.19.14A4.67,4.67,0,0,1,1,5.39H1c.09,0-.06-.32.22-.2a.32.32,0,0,0,.32-.1c.05-.07.08-.31-.18-.24a.67.67,0,0,1,.1-.26c.23-.22.47-.41.7-.61.06-.05.12-.14.17-.14.54,0,.87-.35,1.28-.59a.53.53,0,0,1,.18,0,.47.47,0,0,0,.73-.08l-.74.08.36-.69a.76.76,0,0,1,.53.63c0,.19.13.24.32.12a1.75,1.75,0,0,0,.81-.78c0-.11.19-.17.29-.25l.18.33a6,6,0,0,0,.4-.48.88.88,0,0,0,.06-.29.85.85,0,0,0-.33.1c-.18.15-.16.16-.3,0S6,1.89,6,1.9c-.23.22-.48,0-.71.05Zm14.14,7,0-.17-.12.07.14.09.24,0V8.86ZM14.7,2.16s-.11,0-.14,0a1,1,0,0,0-.15.14s.06.08.07.07a.38.38,0,0,0,.18-.09s0-.09.06-.13L15,2.1l.26,0-.06-.24L15,2Zm25.43,1,.26,0-.13-.15c-.08,0-.1-.33-.25,0h-.4a.26.26,0,0,0-.13-.45.6.6,0,0,0-.49.09c-.06,0,0,.31.07.43s.25,0,.38,0A.67.67,0,0,0,39.62,3c0,.11-.2.31.12.2L40,3.11ZM46,40.15l.44-.26-.11-.13-.33.39-.09.3H46Zm-.59-.1-.18.12.25.21.06-.06L45.35,40l.17-.12s0-.05,0-.07Zm2.15-31.4.06-.39h-.1l0,.39-.34.06,0,.15.27-.2ZM16,8.15l-.15-.23a1,1,0,0,0-.14.22s0,.11,0,.16L16,8.14l.08,0c.06-.09.13-.18.18-.27s-.05-.08-.07-.12-.07.19-.11.29A.42.42,0,0,1,16,8.15Zm30.9,32.21,0-.12-.12,0c0,.06-.1.14-.08.18a1,1,0,0,0,.19.23l-.54.25c0-.11,0-.16,0-.19s.13-.17.19-.25-.12-.07-.13-.05a.91.91,0,0,0-.2.24c-.12.18-.22.35.15.31a.35.35,0,0,1,.23.17c.14.26.28,0,.3,0a1.44,1.44,0,0,0,0-.46l.34.07ZM10.64,2.09l0,.19h.14l0-.19L11.24,2C10.88,1.68,10.74,1.85,10.64,2.09ZM7.49,3l.3-.17c.06-.11.09-.25.18-.32.24-.2,0-.19-.09-.22h0c.37-.4.72-.17,1.07,0l-.45.37c-.2.16-.41.31-.61.48a.22.22,0,0,0,0,.18.3.3,0,0,0,.17,0c.25,0,.49,0,.74,0,0,0,.13,0,.14,0s.1.27.15.41c.11-.09.25-.27.32-.25.51.16.51-.3.68-.54s0-.25,0-.37H10v.2s-.16-.07-.16-.1a.76.76,0,0,1,.09-.38c.26-.36.28-.62,0-.63a5.39,5.39,0,0,0-.66.06l.29.31-.46.13A.54.54,0,0,1,9.5,3a2.44,2.44,0,0,1-.1.24l-.28-.13c.05,0,.12-.08.13-.13s0-.12,0-.18-.07-.17,0-.24c.08-.24,0-.28-.21-.22l.37-.56c-.41.24-.76.34-1.09.06,0,0-.08.09-.13.12a.65.65,0,0,1-.19,0c0-.07,0-.14,0-.2L8,1.44l.24,0,0-.06-.2.1c-.13.12-.26.34-.4.35-.41,0-.59.29-.84.66.4-.07.73-.11.87.27L7.25,2.6,7.47,3l-.33.21C7.32,3.26,7.55,3.38,7.49,3ZM4,4.93l.28.23.1-.06-.17-.32L4,4.93A.34.34,0,0,0,4,5s0,.1,0,.15H4L4,5A.36.36,0,0,0,4,4.93Zm-.26-.4-.19.21c0-.07,0-.12,0-.14s-.09-.26-.17-.28-.27.06-.21.26c0,0,0,.1,0,.15S3,5,3.07,5s.26.09.3,0a3.67,3.67,0,0,0,.34-.53l.14-.22-.12,0ZM48,40.66a.35.35,0,0,0,.53,0c0-.05,0-.16,0-.25s-.14,0-.19,0c-.31-.18-.21.26-.39.26L48,40.53a4.91,4.91,0,0,0-.55.57c0,.06.09.3.2.37s.26,0,.38,0,0-.22,0-.32S47.85,40.79,48,40.66Zm1,1.16a2.78,2.78,0,0,0,.34-.26c.14-.13.26-.27.39-.41s0-.16-.24-.38a1.3,1.3,0,0,1-.15-.27,3,3,0,0,1-.16.48.83.83,0,0,1-.2.22,1.1,1.1,0,0,0-.14-.21.21.21,0,0,0-.19,0c-.41.13-.49.51-.61.86.23.11.45.28.66-.08s.24,0,.31.1a1.06,1.06,0,0,0-.23.19.45.45,0,0,0-.07.23s.09.07.1.06.14-.09.15-.15A1.27,1.27,0,0,0,49,41.82ZM33.28,68.09h0c-.05.19.27.48-.16.56a1,1,0,0,0,0,.35.2.2,0,0,0,.15.12c.32,0,.68-.69.71-1s-.06-.48.09-.75A6.38,6.38,0,0,0,34.6,66a2.85,2.85,0,0,0,0-.65c-.17.08-.41.2-.63.33,0,0,0,.16,0,.21s.14,0,.2,0a3.6,3.6,0,0,1-.41.45c-.19.16-.34.28,0,.46a.25.25,0,0,1,.05.22c-.13.2-.27.48-.46.54C33,67.67,33,67.83,33.28,68.09Zm0,2.11c0-.08-.09-.23-.13-.22a.68.68,0,0,0-.38.11c-.22.23-.5.45-.41.83-.51.33.06.4.16.5a.51.51,0,0,0,.49,0,.66.66,0,0,0,.07-.54c0-.2-.34-.39.11-.48C33.23,70.41,33.24,70.29,33.28,70.2ZM27.74,1.66l.41.49a2.26,2.26,0,0,1,.26.42c0,.06,0,.16,0,.25.54-.09.65-.19.53-.59a1.08,1.08,0,0,0-.46-.55C28.31,1.59,28.06,1.66,27.74,1.66ZM48,42.59a4.1,4.1,0,0,1-.35.5c-.3.31.13.39.19.58s.22,0,.34,0,.07,0,.08-.08a2.4,2.4,0,0,0,.13-.69C48.34,42.83,48.13,42.73,48,42.59ZM31.59,2.34a5.34,5.34,0,0,0-.72.29.63.63,0,0,0-.27.31.42.42,0,0,0,.06.28c.18,0,.43,0,.52-.08A3.72,3.72,0,0,0,31.59,2.34ZM13,45.68l-.41.3c.15.14.31.39.43.37s.38-.24.57-.37ZM27.55,2.41l-.07-.09-.35.27a3,3,0,0,0,.33.29c.24.15.31-.1.45-.21s.22-.15.17-.19a.76.76,0,0,0-.31-.11A.57.57,0,0,0,27.55,2.41Zm4,66.22a1.2,1.2,0,0,0-.27-.07c-.21,0-.51,0-.45.32,0,.15.28.25.44.38Zm-16.86-25c.21,0,.26-.44.42-.08,0,0,.08,0,.1,0a5.63,5.63,0,0,0,.38-.45s0-.1,0-.15c-.22.14-.54-.07-.72.15S14.71,43.35,14.65,43.58Zm25-33-.06,0a2.6,2.6,0,0,0,.13-.36.47.47,0,0,0,0-.17s-.09,0-.11,0a.4.4,0,0,0-.1.17c-.06.18-.11.37-.16.56s-.08.27-.13.46a.91.91,0,0,0,.6-1Zm-10.49,56,.28.09a.75.75,0,0,0,.2,0c0-.22.43-.29.18-.58a.57.57,0,0,1-.08-.23c-.07.07-.17.13-.2.22s.08.47-.3.39C29.25,66.49,29.23,66.55,29.19,66.62Zm9.44-54a.74.74,0,0,0,.22,0A.93.93,0,0,0,39,11.35s-.11,0-.11,0-.07.12,0,.17A1,1,0,0,1,38.63,12.62ZM32.13,2.4c-.33,0-.4.14-.35.38a.51.51,0,0,1,0,.24,1.8,1.8,0,0,1-.08.21c.1,0,.25,0,.3-.1a1.59,1.59,0,0,0,.21-.46A.8.8,0,0,0,32.13,2.4ZM15.08,7.33l-.16.84s0,.12.05.12.18,0,.19,0C15.25,8,15.48,7.67,15.08,7.33ZM30.52,65.25l-.2-.15-.09.13c-.09.13-.14.34-.37.15,0,0-.15.05-.16.09s0,.24.05.24a.62.62,0,0,0,.41,0A1.55,1.55,0,0,0,30.52,65.25Zm8.34-49c.51,0,.54,0,.26-.78ZM36.18,9.11c0-.29,0-.54,0-.79,0-.05-.06-.11-.11-.14s-.09,0-.12.06A.92.92,0,0,0,36.18,9.11Zm2.19,56.72-.3-.26a1.17,1.17,0,0,0,.27,0,.29.29,0,0,0,.11-.11c-.14,0-.36-.13-.4-.08a2.69,2.69,0,0,0-.26.57ZM42,3l-.08-.07a1.66,1.66,0,0,0-.46.05c-.12.06-.19.21-.28.33s.09.13.09.13C41.49,3.25,41.73,3.1,42,3Zm.36-.15L42.05,3c.12.09.22.23.34.25s.18-.15.28-.23ZM37.05,67.13c-.14.29-.25.52-.35.75,0,0,0,.11,0,.16s.1,0,.11,0C36.94,67.75,37.29,67.56,37.05,67.13Zm-5.14-.9.12-.1-.21-.52-.32.18Zm-2.86,2.28c-.13.17-.28.3-.26.34a1.41,1.41,0,0,0,.29.31,1.47,1.47,0,0,0,.15-.34C29.24,68.75,29.16,68.67,29.05,68.51ZM25,8.59a2,2,0,0,0,0-.46.42.42,0,0,0-.19-.21s-.14,0-.18.08a.27.27,0,0,0,0,.19A3.91,3.91,0,0,0,25,8.59Zm4.68-6c-.53-.36.08-.49,0-.75-.38-.1-.3.21-.35.4S29.21,2.59,29.64,2.56Zm-9.17,6-.42.66C20.65,9.22,20.61,8.94,20.47,8.54ZM6.37,3.28,6.68,3l-.49-.23ZM15.49,48.9h.08c0-.06,0-.15,0-.18s.12-.23,0-.32a1,1,0,0,0-.24-.07c0,.11,0,.22.08.33A1.22,1.22,0,0,0,15.49,48.9ZM28.78,65.74l.27-.2a1.67,1.67,0,0,0,.23-.23s-.07,0-.09,0a1.86,1.86,0,0,0-.41.17S28.78,65.6,28.78,65.74ZM11.4,7.34l0-.1c-.68,0-.74,0-.61.29Zm.48-5.29c.17.1.37-.22.44.1,0,0,.1-.07.12-.12a.38.38,0,0,0,0-.17A1.32,1.32,0,0,0,12,1.77C12,1.78,11.93,2,11.88,2.05ZM37.55,67l-.07,0a4,4,0,0,0-.17.44c0,.06.06.15.09.22s.17-.13.18-.21A1.15,1.15,0,0,0,37.55,67ZM32.05,9.52l.38-.27L32.24,9a.48.48,0,0,1-.1.17c0,.06-.13.08-.18.14a.19.19,0,0,0,0,.13Zm6,5.12.07.06.3-.45-.1-.08ZM28.64,66.43l0,0,.1.26c0-.1.07-.19.11-.29a.57.57,0,0,0,0-.18,1.38,1.38,0,0,0,0-.2c-.06,0-.14.08-.16.14A.7.7,0,0,0,28.64,66.43ZM12.75,7.25c-.39.15-.41.21-.17.63Zm14-4.72c-.06.11-.11.17-.09.19a4.34,4.34,0,0,0,.28.46s.11-.09.1-.1Zm4.95,64.81.28-.66C31.65,66.85,31.48,67,31.71,67.34ZM7.81,6.73l0,0a2.6,2.6,0,0,0-.27.38c0,.07,0,.17,0,.25s.15-.09.18-.15S7.77,6.88,7.81,6.73ZM6,5.5l-.5.34C5.8,6,5.93,5.9,6,5.5Zm16.43,3h.1c0-.09.13-.17.12-.24s-.11-.15-.17-.23-.12.12-.12.18A1,1,0,0,0,22.38,8.52ZM45.73,39c0-.07.11-.14.1-.19a.62.62,0,0,0-.14-.19l-.22.18Zm-7-34.87-.22.12c.06.07.11.19.18.2s.16-.09.24-.14Zm1.11,7.42.09.06.26-.55-.09,0Zm-8.16,59,.07.13.41-.32-.06-.07ZM33.45,2.81l-.13-.23-.17.18a1.3,1.3,0,0,0,.18.15S33.41,2.84,33.45,2.81ZM7.13,1.34l.11,0,.12-.28L7.18,1ZM48,6.84l.08-.14c-.07,0-.15-.07-.21,0a.28.28,0,0,0-.14.16s0,.11.08.16Zm-7.83,3-.22-.2c0,.05-.09.11-.08.14a.3.3,0,0,0,.14.17S40.1,9.86,40.15,9.82ZM4.54,5.74l0,.12.35-.15,0-.1ZM16.18,43.27V43.2l-.31,0-.13.05s0,.1,0,.1a.29.29,0,0,0,.16,0ZM11.36,2.2h-.12c0,.14,0,.28,0,.42h.11Zm2,44.47c-.06.09-.12.16-.12.23s.08.09.13.14.13-.12.15-.19S13.41,46.75,13.34,46.67ZM13,6.49a.93.93,0,0,0-.2.19s.07.11.12.17.12-.12.17-.19S13,6.57,13,6.49ZM31.17,57.94c.07,0,.13.1.15.09a.23.23,0,0,0,.11-.15c0-.06-.06-.12-.1-.17Zm4.06,11.5.12,0c0-.11.09-.22.13-.34l-.09,0ZM18.67,9.14l0,.08A2.52,2.52,0,0,0,19,9s0-.1,0-.16Zm2.41-7c0,.07-.1.13-.09.16a.36.36,0,0,0,.15.15s.09-.06.13-.1ZM47.55,40.07l-.1.11.26.24.07-.07Zm-11.74-7.6-.09,0,.08.3.17-.08ZM6.92,6.56l-.08.06a2.88,2.88,0,0,0,.22.27s.05,0,.08,0Zm26-5.32-.14-.15a1,1,0,0,0-.13.16s.06.11.06.11ZM8.33,4.2l0-.11L8,4.14s0,.08,0,.13ZM31,3.83c-.1,0-.15-.08-.2-.08a.65.65,0,0,0-.17.08,1.59,1.59,0,0,0,.21.15S30.94,3.91,31,3.83ZM39.67,15.9c.07.07.1.15.15.16S40,16,40,16a1,1,0,0,0-.14-.21ZM28.32,66.39l-.08-.26s-.1.08-.1.12a1.67,1.67,0,0,0,.08.2ZM13.73,43.57l.12,0-.07-.35h-.1ZM47.84,42c-.08,0-.13-.11-.17-.1s-.08.07-.12.12a.42.42,0,0,0,.14.09S47.77,42,47.84,42ZM40.1,3.66,40,3.61c-.06.08-.12.15-.17.23a.58.58,0,0,0,.11.1ZM15.59,2.26l-.1,0,.15.35.07,0ZM5,5.05l.07,0,.18-.21a.68.68,0,0,0-.17,0A.9.9,0,0,0,5,5.05ZM33.16,2.48c-.06-.06-.1-.12-.14-.12a.21.21,0,0,0-.15.08.88.88,0,0,0,.09.2ZM11,8.07l0,.1L11.33,8l0-.09ZM31,6.86l-.11-.05-.14.33.08,0Zm-19.52.95a.68.68,0,0,0,.1-.18s0-.07-.07-.11-.1.08-.12.13S11.46,7.73,11.51,7.81ZM48.16,44.43l0-.1-.29-.07,0,.08Zm-33.6-37,.11-.17s-.09-.07-.12-.06a.15.15,0,0,0-.09.11S14.51,7.35,14.56,7.41Zm.72-.77-.19-.19a2.29,2.29,0,0,0-.09.28s0,0,.06.08ZM9.21,6,9,5.88S9,6,9,6s0,.08.08.12ZM33.78,67.1l-.1-.12a.83.83,0,0,0-.09.16s0,.06,0,.09Zm2.07-6.21s-.06-.07-.09-.08-.07,0-.06,0a.33.33,0,0,0,.06.1Zm-6.7,3.91-.09-.12s-.08.06-.08.1,0,.08.05.12ZM47.27,9.64l-.15-.13a.45.45,0,0,0-.11.13s.05.09.07.08A1,1,0,0,0,47.27,9.64ZM9.05,4.31l-.14-.16-.08,0a.49.49,0,0,0,.05.16A.57.57,0,0,0,9.05,4.31Zm5.07-2.2,0-.08L13.84,2l0,.06ZM45,39.32l-.1-.12a.76.76,0,0,0-.11.14s0,.07.07.06A.53.53,0,0,0,45,39.32ZM23.43,9.2l-.06-.1-.07.06a.67.67,0,0,0,.06.12ZM4.53,4.52l0,.06a.16.16,0,0,0,.09,0,.52.52,0,0,0,.06-.13Zm34.6,8.15-.08,0-.1.27.06,0ZM21,9.09c0-.13,0-.18,0-.2a.58.58,0,0,0-.12-.1ZM37.14,5.42l-.06.07.21.17.07,0Zm1.52,10.3.08,0c0-.08.09-.16.12-.24l-.08-.06ZM27.15,3.26c0,.07-.09.1-.09.14a.34.34,0,0,0,.05.11s.09,0,.11-.09S27.19,3.34,27.15,3.26Zm1-1.82L28,1.29s0,.06,0,.07a.19.19,0,0,0,.07.12S28.06,1.46,28.11,1.44Zm9.71,14.29-.07,0-.08.21,0,0ZM11.09,6.94,11,7.05a.35.35,0,0,0,.13,0s.06-.06.09-.09Zm26.78,7.84-.06,0s-.07,0-.11.07l.07.11ZM22.31,1.45a.68.68,0,0,0-.17,0s-.05.05-.05.07a.61.61,0,0,0,.05.12Zm10.85-.06c-.07,0-.11-.07-.14-.06a.19.19,0,0,0-.1.1s.07.1.08.09A.53.53,0,0,0,33.16,1.39ZM28,3.1l.12.07s0-.07,0-.1A.9.9,0,0,0,28,3Zm.74.44c-.06,0-.1-.08-.12-.08a.87.87,0,0,0-.11.09s.05.05.07.05A.46.46,0,0,0,28.73,3.54ZM8.4,4c0-.12.08-.17.09-.23s-.05,0-.07-.07l-.11.12S8.33,3.86,8.4,4Zm38.43.06a1.46,1.46,0,0,0-.11.21.11.11,0,0,0,.09,0s.09,0,.09-.07A.62.62,0,0,0,46.83,4.06ZM30.45,46.49l-.06-.13-.13.12s0,.07.07.06A.31.31,0,0,0,30.45,46.49ZM39.68,4.28l-.16-.06-.12,0,.14.1S39.59,4.32,39.68,4.28Zm7.61.13s-.07-.07-.09-.06a.19.19,0,0,0-.1.05s0,.07.07.07S47.23,4.44,47.29,4.41ZM8.72,5.26c0-.07.09-.11.09-.15S8.76,5,8.73,5a.5.5,0,0,0-.08.12S8.68,5.18,8.72,5.26ZM14.1,8l.11-.24a.24.24,0,0,0-.08-.06.6.6,0,0,0-.11.12S14.05,7.88,14.1,8Zm12.3.52.14-.1s-.05-.08-.08-.09-.09,0-.11.06S26.38,8.43,26.4,8.49Zm8.21,58.15s0,0,0,0l-.07.06.06.07Zm6.63-56.52c-.07,0-.1-.06-.14-.06s-.07,0-.07.06a.23.23,0,0,0,.07.1S41.16,10.18,41.24,10.12ZM29.5,58.64a.92.92,0,0,0-.12-.16s-.07,0-.1,0,0,.1,0,.13S29.4,58.64,29.5,58.64Zm6-26.25-.14.13s.08.07.1.06a.74.74,0,0,0,.13-.12Zm3-18.69a1.06,1.06,0,0,0,.06-.22s0-.08-.06-.11l-.17.11Zm-7,43.77-.1-.06s0,.05,0,.06a.18.18,0,0,0,.05.07Zm-1-4.66-.14-.11s-.05.08,0,.1a.68.68,0,0,0,.12.12ZM17.38,49.43l-.08.07s.05.06.08.06.05,0,.07,0ZM7.3.78,7.2.62a.28.28,0,0,0-.08.11s0,.08.06.08A.42.42,0,0,0,7.3.78ZM31.63,56.66c0-.06.05-.1,0-.11l-.12-.08a.22.22,0,0,0-.05.08Zm6.49-41-.12-.1s0,.07,0,.1l.08.09Zm-2.25,18c0-.05.06-.08.05-.1a.27.27,0,0,0-.06-.12s-.06,0-.09,0ZM24.32,48.06c-.07-.05-.09-.08-.11-.08l-.13,0Zm4.26,14.13c0,.05,0,.09,0,.12a.76.76,0,0,0,.09.09l.06-.08S28.62,62.24,28.58,62.19ZM23.6,48s-.07,0-.09,0-.05,0-.08.06l.11.07Zm6.27,17L30,65s0,0,0,0L30,64.9ZM47.37,9.75c0-.07.08-.1.09-.14s0-.06,0-.09a.32.32,0,0,0-.1.1S47.35,9.68,47.37,9.75Zm-13,27.19.08,0,.11-.21-.06,0ZM39.28,9.43a.25.25,0,0,0-.11,0s-.07,0-.09.06.07.06.11.06S39.24,9.46,39.28,9.43ZM19.66,9.26l.06-.09s-.06-.06-.08-.05-.05.05-.07.07ZM37.12,66.43l-.07-.12s0,0,0,.07a.75.75,0,0,0,.07.12ZM36.67,8.84c0,.05-.06.08-.06.1s0,.05.08.06.05,0,.07,0Zm-5,57.72s-.05-.07-.08-.08-.06,0-.09,0a.36.36,0,0,0,.07.1S31.64,66.58,31.69,66.56Zm-7.25-18.7-.18-.11s0,0-.07.07a.71.71,0,0,0,.15.08S24.39,47.88,24.44,47.86Zm8.34,19.75a.4.4,0,0,0,0,.11s0,0,.06,0,0-.08,0-.11S32.82,67.63,32.78,67.61ZM33.37,8,33.29,8l.06.05s0,0,.08-.07ZM17.49,47.25s-.09,0-.11,0-.05,0-.07.07l.09,0S17.45,47.3,17.49,47.25ZM5.46,5.19c-.08,0-.14-.05-.15,0a.37.37,0,0,0-.07.14ZM19.12,47l.11-.12s-.07-.06-.08-.05a.29.29,0,0,0-.1.09S19.09,47,19.12,47Zm11.75-.37c0,.11-.06.15-.05.18s.05.06.08.09ZM5.58,5S5.65,5,5.66,5s0-.06,0-.09-.07,0-.09.06S5.56,5,5.58,5ZM27.81,46.93l0,0-.07,0v0Zm19.56-6.35c0-.06.08-.09.1-.13s0-.05-.06-.08-.07.06-.08.1S47.35,40.53,47.37,40.58Zm-6-36.31-.06-.11s-.08.06-.1.1,0,.08,0,.08A.34.34,0,0,0,41.37,4.27ZM5.61,4.06h-.1a.33.33,0,0,0,0,.06l.1,0A.44.44,0,0,1,5.61,4.06ZM35,71.19l-.1-.08s-.06.06,0,.08,0,.06.07.07S34.94,71.22,35,71.19ZM26.86,3.57a.29.29,0,0,0-.05.1s0,.05.06.08.06,0,.06-.08S26.89,3.61,26.86,3.57Zm18,37.12c-.06,0-.1,0-.12,0s-.06.06-.09.09.06,0,.08,0S44.81,40.73,44.87,40.69ZM20.94,2.45l-.15-.11s0,.08,0,.1.07.07.11.11Zm-9.4,0s.07-.07.06-.1,0-.05-.07-.06l-.09,0ZM34.91,73.68a.74.74,0,0,0-.08.15l.06,0a.52.52,0,0,0,.1-.11S35,73.72,34.91,73.68ZM13.22,2.05h0l-.07.17,0,0ZM44.87,2c0-.11,0-.17,0-.18a1,1,0,0,0-.18-.06ZM13.4,43l-.13-.09s0,.06,0,.08l.1.1Zm33.11.2V43.1l0,0s0,0,0,.06Z"/><path d="M30.5,73c-.22.33-.26.31-.49,0s-.29-.49-.64-.32c0,0-.17-.11-.19-.19a.55.55,0,0,0-.55-.41.5.5,0,0,0-.21.12c-.12.06-.21.28-.37,0,0,0-.16,0-.18.06a.91.91,0,0,0,.19,1.2l.14.13c-.3.19-.37.7-.9.51a3.21,3.21,0,0,0,.34-.41,1.35,1.35,0,0,0,.07-.36c-.08,0-.17.09-.24.07a.83.83,0,0,1-.25-.18s0-.06,0-.06c.31-.14,0-.36.07-.53s0-.32,0-.47.29-.28-.09-.2a.25.25,0,0,1,0-.13c.14-.12.28-.31.43-.32a.94.94,0,0,1,.64.15c.23.16.29.17.46-.23,0,.62.42.45.57.35.3-.19.34.11.34.16,0,.36.18.25.37.2a1.65,1.65,0,0,1,.32,0c0,.11,0,.22-.05.32s0,.13,0,.16a3.3,3.3,0,0,0,.28.35Z"/><path d="M49.43,42.62c.12,0,.32,0,.36-.14.14-.28.39-.26.62-.31s.35-.05.43.2.39.07.55.07c.34,0,.26.14.21.32s-.1.14-.09.21.08.14.12.21a1,1,0,0,0,.1-.18c0-.19,0-.2.47-.33L51.41,44l-.59-.55.26-.3-.1-.06-.15.37c0,.1-.1.26-.07.28.31.24.05.49,0,.71a.54.54,0,0,1-.83.29c-.08-.09,0-.3,0-.46h.28l.4.1a1.13,1.13,0,0,0,.06-.47c0-.1-.21-.15-.34-.23.45-.26-.15-.55-.06-.86-.07,0-.19,0-.22,0-.33.36-.43,0-.58-.18Zm1-.17v.12l.28,0v-.08Z"/><path d="M32.26,73.55l.12.11.23.3c0,.06.13.12.14.18s-.1.1-.16.13-.26.1-.37.18-.08.13-.12.21a1.17,1.17,0,0,0,.24.09,1.63,1.63,0,0,0,.31,0,1.08,1.08,0,0,1-.07.31c-.09.17-.34.44-.32.46.25.26-.08.27-.17.39,0-.24,0-.49-.06-.73,0-.05-.1-.11-.16-.12a3.86,3.86,0,0,0-.5,0,3.9,3.9,0,0,1,.41-.48,3,3,0,0,1,.42-.26Q31.82,73.84,32.26,73.55Z"/><path d="M30.66,74.92a.88.88,0,0,1,0,.28s-.16.12-.18.1a2.16,2.16,0,0,1-.46-.39c-.14-.15-.25-.34-.4-.54.14-.07.33-.25.5-.22a3.29,3.29,0,0,1,1.05.33c.29.15.19.31-.1.37Z"/><path d="M29.14,74.21l-.21.3c-.07-.05-.14-.12-.22-.17s0-.43-.22-.08c0,0-.26,0-.35-.08s0-.2,0-.3.17,0,.23,0c.34-.18.4.32.69.26C29.09,74.12,29.11,74.17,29.14,74.21Z"/><path d="M2.42,1.66a1.8,1.8,0,0,1-.06-.37c0-.14,0-.36.1-.38a.74.74,0,0,1,.46,0s.05.2,0,.25A6.19,6.19,0,0,1,2.42,1.66Z"/><path d="M30.76,71.52a6.21,6.21,0,0,1,.62.33.94.94,0,0,1-.14.32,2.5,2.5,0,0,1-.29.27l-.06,0C31.09,72.06,30.61,71.89,30.76,71.52Z"/><path d="M29.81,70.73a.51.51,0,0,1-.62.6.34.34,0,0,1,0-.26c.09-.35.44-.22.65-.35Z"/><path d="M31,73.48l.1,0,.45-.16c0,.13-.05.26-.09.38a1.3,1.3,0,0,1-.14.26,3.14,3.14,0,0,1-.32-.31s0-.1,0-.15Z"/><path d="M17.54,8.85h.06a4.11,4.11,0,0,1-.42.5c-.06.06-.2,0-.31,0,.05-.1.07-.23.15-.28A4.12,4.12,0,0,1,17.54,8.85Z"/><path d="M29.17,73.73l-.34-.54a.58.58,0,0,1,0-.14A1.13,1.13,0,0,1,29,73s0,.11,0,.13C29.31,73.35,29.32,73.35,29.17,73.73Z"/><path d="M21.52,48.49l.1-.08c.06.06.1.16.17.18s.18,0,.22.18h0l-.34.25C21.58,48.9,21.27,48.81,21.52,48.49Z"/><path d="M11.46,43.55l.08.55-.65,0,.58-.5Z"/><path d="M4.1,2.21a2,2,0,0,1,0-.43.35.35,0,0,1,.23-.16c.06,0,.19.07.18.1a.42.42,0,0,1-.11.22C4.33,2,4.22,2.1,4.1,2.21Z"/><path d="M31.85,72.63c-.1.05-.19.13-.22.11s-.2-.15-.2-.23.12-.2.18-.3Z"/><path d="M47,46.11l.23-.46.28.23-.39.33Z"/><path d="M31.67,76.13a1.3,1.3,0,0,1-.25.1s-.08-.07-.12-.12l0-.07c-.06-.1-.12-.2-.17-.3a1,1,0,0,0,.22.2,1.27,1.27,0,0,0,.34,0Z"/><path d="M8.18,8.05a.37.37,0,0,1-.58.33c.35.07,0-.53.43-.39H8l0,.17.14-.09Z"/><path d="M49.76,45.84a2.06,2.06,0,0,1-.29-.31s.14-.18.15-.18a4.13,4.13,0,0,1,.42.31Z"/><path d="M5.85,7.25l-.43.33c.15-.19-.28-.39.09-.54.21-.08.32,0,.33.22Z"/><path d="M30.07,70.29c-.09.14-.18.29-.26.44h0c-.07-.11-.23-.26-.2-.32a.28.28,0,0,1,.47-.11Z"/><path d="M4.41,6.56c0,.09,0,.21,0,.26A1.69,1.69,0,0,1,4.11,7L4,6.74l.44-.16Z"/><path d="M49.66,44.15c0-.07-.12-.12-.11-.15a.79.79,0,0,1,.2-.3s.17.08.26.13Z"/><path d="M14.55,41.22A2.77,2.77,0,0,1,14.3,41s0-.08,0-.13l.23.14.12.06c.08,0,0-.33.17-.07a2,2,0,0,1-.24.22Z"/><path d="M1,5.39l-.12.27L.75,5.9C.69,5.84.58,5.78.59,5.72a.42.42,0,0,1,.14-.26c.05,0,.15,0,.23-.06Z"/><path d="M26.67,72.6a3.11,3.11,0,0,1-.08-.43s0-.13,0-.13a1.24,1.24,0,0,1,.27,0s-.08.08-.09.13A4.38,4.38,0,0,0,26.67,72.6Z"/><path d="M50.3,41.59a2.17,2.17,0,0,1,.1-.51s.16,0,.25-.07,0,.15,0,.19S50.46,41.41,50.3,41.59Z"/><path d="M2,5.09c.07.14.12.21.11.26A2,2,0,0,1,2,5.64c-.05,0-.14-.11-.13-.14A2.25,2.25,0,0,1,2,5.09Z"/><path d="M12.47,8.41l-.09.42-.24-.11.23-.33Z"/><path d="M43.78,45.77a.35.35,0,0,1,0,.11l-.25.27-.1-.09c.07-.12.15-.24.23-.35h0l.16.08Z"/><path d="M46.45,45.3c0,.39,0,.39-.36.48l.37-.47Z"/><path d="M1.43,6.76l.57,0C1.84,7,1.8,7.05,1.43,6.76Z"/><path d="M0,6c.1-.08.19-.18.29-.25s.09.06.14.09l-.32.28Z"/><path d="M3.19,6.67a.59.59,0,0,0-.14.06A2.61,2.61,0,0,0,2.81,7l.06-.24c.07-.26.2-.11.32,0Z"/><path d="M51.42,42.18l.33-.43.1.07-.32.44Z"/><path d="M12.07,45.54l-.31.31-.09-.05.29-.36Z"/><path d="M12.1,44.71l-.3,0h-.22c0-.06,0-.15.06-.16a.39.39,0,0,1,.24,0,1.55,1.55,0,0,1,.22.12Z"/><path d="M27.58,70.7l-.13-.17a2,2,0,0,1,.25-.13s.08.09.12.13Z"/><path d="M3.57,1.52l-.2.18-.15-.23s.09-.07.12-.07A1.74,1.74,0,0,1,3.57,1.52Z"/><path d="M4.73,7.43l-.23.19a1.31,1.31,0,0,1,0-.28s.07-.07.1-.1l.14.2Z"/><path d="M36.15,70.22l-.18.15c0-.05-.11-.11-.11-.17s.08-.1.12-.16Z"/><path d="M11.18,45l-.4-.22,0-.07.42.16Z"/><path d="M51.11,41.78l-.22.2s-.1-.09-.09-.1a2,2,0,0,1,.19-.22Z"/><path d="M36.36,69.43l.11-.28.09,0c0,.09-.08.17-.13.26Z"/><path d="M15.36,40.75l.29.08s0,.06,0,.09l-.33,0Z"/><path d="M46.46,45.31l.42-.29h0l-.42.29Z"/><path d="M.86,3.82,1.21,4l-.06.11L.8,3.9Z"/><path d="M36.35,68.39s.1.08.09.09a1.86,1.86,0,0,1-.1.2s-.08-.05-.07-.06A1.27,1.27,0,0,1,36.35,68.39Z"/><path d="M3.42,2.77,3.19,3l0-.45.19.19Z"/><path d="M49.91,43.67c-.06-.07-.12-.11-.12-.15s.07-.1.1-.14.12.08.14.13S50,43.6,49.91,43.67Z"/><path d="M27.63,68.83l.12.4-.09,0-.11-.41Z"/><path d="M3.42,2.78l.25,0s0,0,.13.07L3.5,3l-.08-.23Z"/><path d="M30.76,73.1c.08.13.15.26.23.38h0c-.19,0-.25,0-.22-.39Z"/><path d="M1.74,5.8l-.3.2-.05-.09L1.7,5.7Z"/><path d="M36.38,69.85c-.05,0-.1.07-.13.05a.15.15,0,0,1-.06-.11s.05-.08.07-.11Z"/><path d="M9.35,8.43c.05.06.11.1.1.12a.47.47,0,0,1-.11.13s-.08,0-.12,0Z"/><path d="M26.13,9.78l.11-.27.1,0-.1.29Z"/><path d="M12.75,41.93l-.14-.22s.07-.07.08-.06a.38.38,0,0,1,.14.11S12.79,41.85,12.75,41.93Z"/><path d="M5.18,1.94h.08c0,.08,0,.17,0,.25l-.1,0Z"/><path d="M5,2.66l-.11-.1A1,1,0,0,1,5,2.42s.07.05.11.07Z"/><path d="M8.79,8.45s-.08-.08-.09-.13.08-.09.09-.08A1.07,1.07,0,0,1,9,8.38Z"/><path d="M12.51,48.29l-.18-.13.19-.1v.23Z"/><path d="M27,73.87l-.05.25s-.07,0-.07,0v-.24Z"/><path d="M46.48,38.39l-.13.29-.09,0a2.55,2.55,0,0,1,.13-.29Z"/><path d="M2.35,3.18a.82.82,0,0,1,.12.21s-.06.07-.1.1a.84.84,0,0,1-.06-.14A1.2,1.2,0,0,1,2.35,3.18Z"/><path d="M3.69,6.78c0,.07.09.11.08.14A.12.12,0,0,1,3.66,7s-.08-.06-.08-.09S3.64,6.84,3.69,6.78Z"/><path d="M13.65,49.68v-.26h.07l0,.26Z"/><path d="M2.63,2c0-.08-.09-.12-.09-.16a.17.17,0,0,1,.1-.1s.1.06.1.07A1,1,0,0,1,2.63,2Z"/><path d="M35.53,9.31V9.4a.88.88,0,0,1-.12.15s-.06,0-.09,0Z"/><path d="M20.56,9.91l.07-.28h.08l-.06.28Z"/><path d="M33.49,9.71l0-.23h.07c0,.06,0,.12,0,.19Z"/><path d="M31.23,71.19l-.06.1a.19.19,0,0,1,0-.08,1,1,0,0,0,0-.1Z"/><path d="M14.53,8.94v.21L14.47,9a.27.27,0,0,1,0-.09Z"/><path d="M49.05,45.21l-.13.25-.06,0,.1-.26Z"/><path d="M48.22,45.05c.05.05.1.09.09.12s-.06.07-.09.11a.5.5,0,0,1-.1-.11S48.17,45.1,48.22,45.05Z"/><path d="M13,48.59l-.21.18a.74.74,0,0,1,0-.14s0-.08.06-.08A1.08,1.08,0,0,1,13,48.59Z"/><path d="M2.27,6.8c.06.11.1.16.1.22s-.06.05-.09.07A.67.67,0,0,1,2.22,7,.68.68,0,0,1,2.27,6.8Z"/><path d="M34.51,32.26l-.27.09v-.12l.28,0Z"/><path d="M47.66,39l-.09-.12a.31.31,0,0,1,.12-.05s.08,0,.12,0Z"/><path d="M14.89,42a.41.41,0,0,1,0-.12s.06,0,.08-.06a.22.22,0,0,1,0,.11Z"/><path d="M30.77,73.09,30.5,73h0c.09-.1.09-.1.25.13Z"/><path d="M47.71,46.07l-.07-.22.09,0,.05.23Z"/><path d="M45.74,46.31a.62.62,0,0,1-.18.06s-.07,0-.07-.06a.31.31,0,0,1,.09-.11S45.63,46.23,45.74,46.31Z"/><path d="M16,8.84l.07-.09a2.23,2.23,0,0,1,0,.23S16,9,16,9Z"/><path d="M33.49,9.71l.06,0,.14-.09,0,.06Z"/><path d="M18.61,9.59l.15.09s-.06.09-.08.08a.16.16,0,0,1-.1-.08S18.6,9.63,18.61,9.59Z"/><path d="M12.51,48.29l.12.2-.07,0-.05-.23Z"/><path d="M13.34,49l-.12.23-.06,0,.11-.24Z"/><path d="M18,49.86l.14.23Z"/><path d="M10.75,44.19a.63.63,0,0,1,.07.12l-.07,0a.52.52,0,0,1-.1-.11Z"/><path d="M14.54,48.63l-.1.07s0-.06,0-.08,0,0,.06-.07Z"/><path d="M11.25,8.89l.12.06a.41.41,0,0,1-.11.07s0,0-.08,0Z"/><path d="M8.67,8.59l-.06.05-.1-.14s.06,0,.07,0S8.64,8.56,8.67,8.59Z"/><path d="M37.77,68s0-.05,0-.06a.15.15,0,0,1,.06,0s0,0,0,.08Z"/><path d="M2.62,6.9s0,.08,0,.1-.05,0-.07,0,0,0,0,0Z"/><path d="M48.47,45.89a.84.84,0,0,1,0,.21s0,0-.06,0a.61.61,0,0,1,0-.11S48.42,46,48.47,45.89Z"/><path d="M15.13,40.63l-.06,0-.1,0,0-.05Z"/><path d="M30.08,71.45l.06,0s0,0,0,.06-.05,0-.05,0A.25.25,0,0,1,30.08,71.45Z"/><path d="M43.87,45.62h.07l-.16.15h0Z"/><path d="M47.73,3.16a.6.6,0,0,1-.08.08l-.07,0,.08-.08Z"/><path d="M28.75,72.38l.07,0a.3.3,0,0,1,0,.1l-.07,0A.36.36,0,0,1,28.75,72.38Z"/><path d="M11.51,45.28c-.08,0-.12,0-.14,0a.9.9,0,0,1-.09-.1s.07,0,.1,0A1,1,0,0,1,11.51,45.28Z"/><path d="M30.5,76.18l-.1.07a.81.81,0,0,1-.09-.1.21.21,0,0,1,.1,0S30.46,76.15,30.5,76.18Z"/><path d="M33.28,68.09l.35-.21-.1.31-.25-.11Z"/><path d="M49.44,41.14l.05.11s-.06,0-.09,0,0,0,0-.07S49.4,41.17,49.44,41.14Z"/><path d="M7.88,2.33l-.21.14,0-.14h.24Z"/><path d="M7.8,2.88l-.17-.17Z"/><path class="cls-1" d="M5.18,1.94l-.32-.07c.07-.17.13-.32.2-.47a.49.49,0,0,1,.14-.18s.12,0,.13.07c.11.33.22,0,.25,0A1.9,1.9,0,0,0,5.7.91.66.66,0,0,1,6.44.44a5.84,5.84,0,0,0,1,0c.12,0,.26-.11.25.13l.09,0A2.91,2.91,0,0,1,9.5.31c.15,0,.33-.13.49-.12s.6.07.9.11c.06,0,.15,0,.17,0,.21-.33.43-.24.67-.05,0,0,.13.07.15.06.31-.35.59-.09.91,0s.42,0,.64-.06.52.1.71-.15c.1.49.42-.06.59.12.14-.15.21-.12.24.08,0,0,.12,0,.12,0,.14-.47.66,0,.86-.31,0,0,.25.17.38.16A2.45,2.45,0,0,1,17.5.29s.1-.1.16-.13S17.94,0,18,0a.91.91,0,0,0,1,.14c.1.32.57-.26.61.25a.88.88,0,0,1-.06-.26.12.12,0,0,1,.09-.1s.1,0,.12.07c.13.25.17.27.38.1s.24-.29.18.06a.9.9,0,0,0,.38-.05c.17-.11.23-.18.46,0s.6.09.91.08a1,1,0,0,1,.64.38,1.84,1.84,0,0,0,.25.34c.07-.14.35-.2.15-.45,0-.07,0-.22,0-.47.16.38.29.41.53.23a.52.52,0,0,1,.5.1c.29.35.39,0,.59-.14,0,.18,0,.33.07.48s.09.11.13.17S25,.82,25,.76s.08-.27.27-.15h0c.67-.41,1.37.14,2,0,.23-.07.41-.15.44.19l.3-.29.21.19L28.16.8l.05,0,.08-.21c.09-.06.12-.35.32-.09,0,0,.21,0,.29,0s.42,0,.62.05.32.16.5,0c0,0,.22.29.51.19.1,0,.28,0,.38-.12a.11.11,0,0,1,.11,0c.36.14.36.14.72-.24-.18.37.05.44.24.6l0-.43.24.29.4-.44a1.15,1.15,0,0,0-.07.32c0,.06.09.11.14.16.1-.38.41,0,.61-.19s.3.08.49.13C34,.5,34,.5,34.3.81L34.48.6s.06-.1.07-.09a.77.77,0,0,0,.58,0c.11,0,.26.34.37,0l.21.3s0,0,0,0a.62.62,0,0,1,.86-.1c.11.05.31-.08.47-.11s.11.06.17.06l.59,0a1.57,1.57,0,0,1,.23,0s0,0,0,0a2,2,0,0,1,.41,0c.08.31.15.43.3,0,.1.06.22.18.3.15s.13-.18.2-.29c.14.2.64.15.42.6a.27.27,0,0,0,.07.28L40,.94c.19.29.33,0,.5-.09s.15-.09.16-.08c.3.36.71.09,1,.19.16,0,.39-.15.47.15.09,0,.17-.11.26-.11a5.49,5.49,0,0,1,.81,0,3.14,3.14,0,0,1,.82.16c.12.05.18.27.28.44.13,0,.07-.46.44-.35s.41.29.35.49a.39.39,0,0,0,.06.3.29.29,0,0,0,.27,0,2.24,2.24,0,0,0,.3-.31h-.43V1.62c.17,0,.37-.09.49,0s.15.28.22.43l-.42.19s.15.08.15.12c0,.48.39.43.65.57,0,0,.07,0,.1,0h.3a2.37,2.37,0,0,1-.15.32c0,.07-.15.08-.22.13a.92.92,0,0,0-.22.22s.07.13.1.13a1,1,0,0,0,.34-.09c.06,0,.09-.1.13-.15s-.06.15,0,.19a.72.72,0,0,0,.19.2,2.58,2.58,0,0,0,.33-.41c0-.06,0-.19-.06-.29h.15v.7c0,.21-.23.63.31.32,0,0,.11.05.21.1a2.15,2.15,0,0,0-.38.21c-.06,0-.07.14-.1.21l.26,0c.1,0,.26,0,.3,0a.7.7,0,0,1,.18.46c0,.19-.44.36,0,.58,0,0,0,.27,0,.42,0,.45-.07.9-.09,1.35,0,.06.11.18.14.17a1.19,1.19,0,0,0,.27-.17,3.72,3.72,0,0,1,0,.89,1.34,1.34,0,0,1-.37.58c-.16.16-.37.27-.24.56,0,.05-.07.15-.13.22-.28.33-.26.77-.45,1.13A3,3,0,0,0,46.86,12a8.56,8.56,0,0,1-.51,1.5,5.12,5.12,0,0,0-.18.7,6.33,6.33,0,0,1-.39,1.54,4.74,4.74,0,0,0-.13,1.14c-.1.68-.22,1.36-.31,2-.05.35-.05.7-.09,1.05s-.15.82-.18,1.23,0,.75,0,1.12a3.11,3.11,0,0,1-.11.41c0,.22-.16.48-.09.66a1.36,1.36,0,0,1-.07,1,1.06,1.06,0,0,0,0,.31,1.3,1.3,0,0,1,0,.34c-.07.27-.24.54,0,.79-.24.25.29.66-.18.86,0,0,0,.13,0,.18-.11.24,0,.56-.28.78a.38.38,0,0,0,.09.61c.06,0,.08.17.09.25,0,.4,0,.8.05,1.19s0,.51-.38.85a.3.3,0,0,0,0,.29.75.75,0,0,1,.21.74c-.1.39-.07.8-.17,1.19s0,.88-.43,1.14c0,0,0,.13-.06.2s.19.08.26,0,.22,0,.2.17a4.93,4.93,0,0,0,.07.81l-.45-.25-.07.08a1.72,1.72,0,0,0,.27.27c.2.14.35.26.08.49-.08.07-.09.23-.1.36s.07.29,0,.38c-.27.47.11.9.07,1.35a.66.66,0,0,0,.23,0,2.62,2.62,0,0,1,.29,0c-.42.21-.35.54-.27.94.16-.25.61-.11.57-.58.39-.14.22.28.32.47a3.47,3.47,0,0,1,.26-.4c.07-.07.21-.15.28-.12s.23.2.21.24c-.14.24.15.35.14.55a.31.31,0,0,0,0,.12c.36-.24.24.19.43.33a2,2,0,0,1,0-.43,1.05,1.05,0,0,1,.17-.29c.06.1.19.23.17.3-.1.27.11.31.25.33s.34-.07.39.18a.59.59,0,0,0,.2-.06c.08-.07.15-.18.24-.25s.13,0,.2,0a1.77,1.77,0,0,1-.06.17c0,.07-.13.21-.12.22a2.64,2.64,0,0,0,.55.34c.07,0,.23-.08.29-.17s.09-.23.22-.33a2.54,2.54,0,0,0,0,.29c0,.13-.06.36,0,.39a1.69,1.69,0,0,0,.7.25.38.38,0,0,0,.39-.48.38.38,0,0,1,.06-.19c0,.06.11.11.11.17a2.22,2.22,0,0,1,0,.93,5.56,5.56,0,0,1-.7.87,1,1,0,0,0-.1.34h.25a.88.88,0,0,0,.2-.09S50,42,50,42s-.13.16-.19.15c-.39,0-.38.22-.36.48h0a.73.73,0,0,1-.26.17c-.32.08-.44.25-.33.57l-.26.27-.16.12a.78.78,0,0,0,.23.06,2.83,2.83,0,0,0,.4-.17l-.21-.28.62-.39a2.45,2.45,0,0,1-.23.68.44.44,0,0,0-.07.5c.13.26-.33,1-.6,1,0,0-.08-.09-.11-.14s-.08-.2-.15-.26c-.3-.23-.42-.18-.51.18,0,.08-.1.22-.13.21a.64.64,0,0,0-.51.17L47,45.17,46.87,45h0c-.21-.15-.69.09-.78.4a2.27,2.27,0,0,0-.06.25c-.11,0-.26-.13-.3-.09-.42.38-.49,0-.68-.29.1,0,.23,0,.26,0a1.68,1.68,0,0,0,.16-.39,1.69,1.69,0,0,0-.29.17c-.14.11-.26.24-.4.36a.69.69,0,0,1-.15.07.34.34,0,0,0,0-.14c0-.13-.06-.26-.1-.4l-.61.71h-.07l-.25.08h0l-.11-.26c-.75.24-.48,1-.66,1.46A5.71,5.71,0,0,0,42.72,48c-.1.59-.27,1.17-.34,1.77s-.25,1.26-.39,1.88-.25,1.47-.47,2.19a5.48,5.48,0,0,0-.15,1.35,3.43,3.43,0,0,1-.23,1.22c-.11.23,0,.55-.06.82s-.14.47-.18.71c-.14.75-.26,1.51-.41,2.26a5.92,5.92,0,0,1-.28.64,1.18,1.18,0,0,0,0,.27c0,.09,0,.21,0,.28s-.45.35-.17.66c-.41.25-.18.7-.33,1,0,.1-.16.17-.22.26s-.11.2-.08.24c.2.29,0,.28-.2.35a.56.56,0,0,0-.34.32l.57-.12a3.25,3.25,0,0,1-.23.37.51.51,0,0,0-.19.59c0,.18-.17.44-.27.67s-.13.31-.19.47-.13.33-.21.49a1.56,1.56,0,0,1-.2-.06l.28-.33-.11-.06-.16.4c-.25.32-.24.37,0,.46-.06.11-.11.22-.16.33s0,0,0,0a1.86,1.86,0,0,1-.47.19c-.22,0,.2.57-.22.34.09.23.2.48.29.74,0,0-.11.12-.18.14s-.12,0-.18-.07l-.09.35a1.05,1.05,0,0,0,.24.06c.29,0,.27.11.14.3s-.05.21-.09.3a2,2,0,0,1-.19.31c-.09-.1-.26-.18-.27-.29a6.14,6.14,0,0,1,0-1c0-.18.12-.35-.19-.29,0,0-.08-.13-.12-.21l-.15-.27a1.3,1.3,0,0,1-.08-.17l-.1.19.19,0a3.69,3.69,0,0,1-.4.55c-.17.17-.31.3,0,.47a1.35,1.35,0,0,1-.12.21c-.06.09-.19.18-.19.27s-.07.28-.34.2c.11.14.19.19.21.27a.71.71,0,0,1,0,.25l-.23-.07c-.06,0-.13-.06-.18,0s-.06.14,0,.16c.26.28.3.8.86.75a1.47,1.47,0,0,0-.06-.14c0-.07,0-.15,0-.22s.14.07.16.13c.11.31.22.61.3.93,0,.06-.1.17-.17.24s-.26.24-.39.35c0-.13,0-.32,0-.38s-.15-.51-.48-.55c-.07,0-.14-.06-.2-.09a2.27,2.27,0,0,0-.06.25c0,.11,0,.22,0,.34.33,0,.42.13.41.71l.36-.28c.12.29.1.51-.25.61-.06,0-.14.21-.12.22.3.24,0,.32-.12.4-.28.17-.49.3-.36.72.06.19-.17.47-.29.7,0,0-.14.06-.18,0-.22-.17-.44-.34-.65-.52s-.13-.16-.21-.21a6.5,6.5,0,0,0-.63-.37c-.22-.11-.46-.19-.69-.29l-.12-.11a3.83,3.83,0,0,1,.25-.44,1.91,1.91,0,0,1,.31-.34c-.21.33.09.54.22.82,0-.14.06-.28.11-.42a1.21,1.21,0,0,1,.14-.2,2.12,2.12,0,0,1,.11.21c.06.19.1.39.16.58l0,.06c.23.13.23.13.22.41a2,2,0,0,0,.4-.36s-.08-.28-.15-.28c-.25,0-.28-.16-.27-.37s.07-.44-.29-.33a.41.41,0,0,1-.36-.17c-.12-.25-.26-.37-.58-.2a1.9,1.9,0,0,0,.12-.37c0-.1,0-.27-.08-.31s-.4-.15-.44-.1-.12.16-.19,0a7.6,7.6,0,0,0-.42-.8.21.21,0,0,0-.14-.1c-.62-.11-.7-.34-.32-.87-.38-.21-.48-.16-.61.25a.57.57,0,0,1-.18.3c-.26.16-.3,0-.25-.21h0c0-.07,0-.18-.09-.2a3.89,3.89,0,0,0-1.07-.33c-.18,0-.39.27-.56.45s.06.21.11.3a1.14,1.14,0,0,0,.16.16l.45-.51.14.12a4.48,4.48,0,0,1-.29.58c0,.06-.14.09-.22.1s-.15,0-.23,0-.33,0-.34,0a2,2,0,0,1,0-.42.31.31,0,0,0-.1-.23,2,2,0,0,0-.38-.15l.35-.25.12.24c.05-.07.14-.14.14-.21a.35.35,0,0,0-.15-.21c-.09,0-.28,0-.29-.09s0-.38.05-.49.07-.43,0-.66a1.66,1.66,0,0,1-.09-1.46l.06.22h.07l-.13-.21c0-.12.42-.24,0-.38a.75.75,0,0,1,.06-.38c.08-.13.17-.22,0-.33a4,4,0,0,1,.36-.35c.59-.39.71-.64.51-1.23,0-.12-.22-.19-.33-.29a.75.75,0,0,1,0-.93l.07,0c-.3-.46,0-.89.08-1.31.19-1.35.45-2.7.69-4a2,2,0,0,1,.25-.91,1.17,1.17,0,0,0,.35-.64c0-.05,0-.1-.05-.24l-.19.49h-.07c.09-.51.18-1,.28-1.51.06-.32.13-.63.2-1,0-.13,0-.36.22-.16,0-.06,0-.16,0-.18s-.28-.28.08-.28a1.55,1.55,0,0,0,0-.22c0-.19-.25-.44.14-.52a.12.12,0,0,0,0-.1c-.13-.53-.13-.53.07-.86a.24.24,0,0,0,0-.12c-.08-.24-.08-.24.27-.25-.53-.18-.19-.52-.16-.73.12-.86.33-1.7.51-2.55.05-.25.12-.5.2-.81l-.3.16c-.1-.09-.17-.2-.24-.2a1.06,1.06,0,0,0-.35.09l-.36.06.16-.28-.06,0c-.31.14-.61.28-.93.4a.56.56,0,0,1-.4,0,.5.5,0,0,0-.58.09,2.43,2.43,0,0,1-.32.18L28,47.5a.29.29,0,0,0,.13-.08.46.46,0,0,0,.13-.19s-.08-.11-.09-.1a1,1,0,0,0-.16.13l-.43.36c0-.07,0-.15,0-.23l-.11.07.11.15c-.22.06-.36.42-.65.16-.22.24-.56-.07-.82.21s-.52.14-.79.19l0-.19c0-.11,0-.21,0-.28l-.33.26-.1-.17-.11.24.23-.09a2.4,2.4,0,0,1-.27.28,1.59,1.59,0,0,1-.33.25c-.06,0-.18.08-.21.05-.33-.33-.74.06-1.08-.13-.08.14-.08.14-.12,0s-.19-.12-.29-.18l-.09.17-.35.57L22,48.76h0a1.21,1.21,0,0,0,.21-.31,1.61,1.61,0,0,0,0-.49s-.13-.08-.19-.06c-.23.08-.51.14-.43.5l-.1.08c-.07,0-.16,0-.21,0-.25.22-.48.46-.74.67a4.61,4.61,0,0,0-.43.29c-.15.15-.24.29-.35,0a.39.39,0,0,0-.21.05c-.09,0-.13.16-.21.21s-.36.17-.38-.14l.39-.13a.92.92,0,0,0-.13-.12c-.09.08-.17.17-.25.25a2,2,0,0,1-.26.24c-.15.1-.32.18-.47.27,0-.36,0-.36-.26-.23s-.29.1-.43.13-.25,0-.26,0c-.15-.5-.32-.07-.47,0l-.2.11c-.12.09-.24.33-.39.08-.05-.09,0-.27.09-.41s.08-.09.09-.14,0-.12-.07-.23c-.11.16-.22.32-.34.47a.87.87,0,0,1-.09.11l-.1-.18c.21-.1.27-.29.07-.39s-.53-.13-.59,0c-.18.27-.19,0-.25-.05l-.24-.39a1.06,1.06,0,0,1-.1-.12c0-.15-.07-.31-.11-.46l-.63.2a.53.53,0,0,0-.17.08.77.77,0,0,1,0-.27c.08-.12.4-.08.24-.36a.55.55,0,0,0,.18,0,1.59,1.59,0,0,0,.2-.07s-.11-.07-.12-.12-.08-.3-.2-.61a2.06,2.06,0,0,1-.24.44c-.27.29-.33.26-.47-.1a.59.59,0,0,0-.39-.3c-.14,0-.28.16-.35.21a1.6,1.6,0,0,0-.2-.46c-.25-.31,0-.47.21-.62l-.74-.3.87-.46a3.51,3.51,0,0,0-.34-.39c-.14-.11-.4-.13-.18-.39l-.23-.1h0c-.12-.13,0-.49-.36-.41,0,0-.09-.12-.07-.14.27-.32-.08-.43-.21-.61h0a1.18,1.18,0,0,1,0-.25c0-.18,0-.48.34-.25a1.84,1.84,0,0,0,.68.1,1.23,1.23,0,0,0,0-.2c0-.12,0-.25,0-.38l.39.07.22.12,0-.1h-.25a2.39,2.39,0,0,1,.44-.18,2.81,2.81,0,0,1,.65-.06c.17,0,.41-.12.45.19.1,0,.22,0,.28,0s.24-.19.34,0c.05.08.18.13.27.19,0-.1.1-.21.08-.31s-.14-.11-.23-.14-.15,0-.22-.06c.28.11.42-.47.75-.13,0,0,.27-.18.25-.21-.09-.26.15-.31.23-.45a.5.5,0,0,0,0-.35c-.21.5-.44.16-.77.07.37-.1.55-.24.49-.55,0,0,.06-.14.12-.17s.25-.17,0-.29c-.06,0-.08-.19-.06-.28a3.07,3.07,0,0,1,.2-.45c.21.23.39.63.89.45-.17-.2-.17-.2.22-.82.13-.06,0,.58.33.1,0-.07.34,0,.59,0l.14-.23.25.4c.13-.15.26-.29.38-.45s.05-.27.28-.13.18-.25.37-.36v.3l.07,0,.07-.27c.24.35.37.05.56-.12v.31l.06,0a6.36,6.36,0,0,0,.59-.43.88.88,0,0,1,.8-.09s.1.08.12.07c.21-.13.42-.28.67-.45l.13.28c.06-.08.13-.15.18-.23a1.9,1.9,0,0,0,.1-.29l.14.4a.74.74,0,0,1,.79-.17s.09,0,.09,0c0-.34.37-.13.51-.28a.22.22,0,0,1,.13,0c.13.42.35,0,.45,0a2.36,2.36,0,0,1,1.46-.17s.07,0,.12,0c.31,0,.62-.12.94-.14a3.15,3.15,0,0,1,.59.07l.23-.13c.15-.09.45.19.47-.2.12,0,.32,0,.34.07.1.25.23.16.36,0s.51,0,.63-.29c0,0,.12,0,.14,0,.2.31.47.24.75.16.06,0,.14.06.2.09s.1.09.14.09c.2,0,.28,0,.39.08.07-.11.14-.31.22-.32s.24.15.38.19a1.93,1.93,0,0,0,.48.08c.34,0,.52-.12.55-.53.06-.64.22-1.28.33-1.91,0,0,0-.12.07-.12.27,0,.17-.13.12-.25s-.07-.12-.1-.19l.17,0a.13.13,0,0,0,0-.09c0-.25.08-.41.36-.47,0,0,.07-.09.1-.13-.28-.18,0-.33,0-.49s-.06-.47-.09-.71h0a5.67,5.67,0,0,1-.15-.69,3.85,3.85,0,0,1,.08-.47c0-.26.22,0,.3-.12a2,2,0,0,1,.19-.22c-.07,0-.14-.08-.19-.06-.29.08-.24-.13-.23-.27a3.2,3.2,0,0,1,.17-.94c.12-.25,0-.48.07-.72s.1-.61.15-.91a8.29,8.29,0,0,1,.27-1.42.78.78,0,0,0,0-.33,1.34,1.34,0,0,1,.1-.57c.18-.31,0-.66.13-1s.17-.37.24-.56a.3.3,0,0,0,0-.21c0-.14-.23-.3.1-.34a.54.54,0,0,0,0-.17c0-.3,0-.6,0-.89l.36-.07,0-.1-.32.18A4.71,4.71,0,0,1,36,21.21c.14-.33,0-.65.15-.95,0-.08.09-.15.13-.23s.1-.16.08-.19c-.28-.35-.07-.58.17-.82a2.43,2.43,0,0,0,.21-.29l-.26-.08c.07-.12.21-.26.18-.31-.17-.29-.14-.45.14-.68s.12-.5.19-.76c0-.11.14-.19.16-.3a.72.72,0,0,0,0-.46c-.29-.47.13-.62.37-.72s.16-.11.12-.23a2,2,0,0,1-.13-.46c0-.35.4-.31.45-.6-.12,0-.3-.25-.35.26l-.09-.19.5-.8.09.24.08-.07L38,13.41l.23-.65s0,0,0-.08c.17-.37.41-.73.19-1.17,0,0,0-.11.06-.14a.79.79,0,0,0,.45-.79c.43-.15,0-.52.18-.73l-.24-.21c-.23.29-.34-.08-.51-.1l-.15-.24h0l0,.24-.08.16c-.16-.3-.52.3-.65-.14a.33.33,0,0,0-.06-.12l-.31,0-.06-.14-.06,0,.07.18,0,.12c-.26-.11-.43,0-.6.19s-.1,0-.16,0c0-.18.38-.13.18-.41s-.25-.36-.47,0-.37.29-.51,0V9.31c0-.07,0-.15-.05-.22-.07-.27-.15-.41-.38-.1a1.23,1.23,0,0,1-.41.22l-.52.28C34,9.34,33.74,9,33.53,9s-.42.38-.4.8l-.46-.39-.11.27c-.05,0-.09-.12-.14-.13a.18.18,0,0,0-.17.06c-.08.21-.18.21-.31,0a.14.14,0,0,0-.11,0l-.34.05.11-.33.16-.15s0-.05-.05-.08l-.09.12c-.08,0-.17-.1-.22-.08-.32.16-.42,0-.6-.25s0-.38,0-.56,0-.28-.08-.33c-.23-.17-.5-.28-.73-.46-.08-.06-.08-.24-.14-.44l-.25.52a1.4,1.4,0,0,0-.09.17c0,.11-.14.23-.13.33s.16.35.19.53a1,1,0,0,1-.07.36c-.16-.18-.56.15-.61-.28,0-.12-.07-.3-.15-.34-.28-.11-.24-.24-.08-.42s0-.11,0-.16a.59.59,0,0,0-.14,0,1,1,0,0,0-.33.19.41.41,0,0,0-.05.31c.37.23.43.35.1.5s-.38.45-.57.69l-.32-.66-.07,0c0,.21.06.41.08.62,0,0,0,.11-.06.16s-.08-.1-.14-.12a2.27,2.27,0,0,0-.25-.06c0,.26-.12.28-.3.13,0,0-.08.06-.14.11l-.09-1c-.72-.19-.75.62-1.18.93,0-.26-.07-.51-.13-.76,0,0-.12-.09-.18-.08s-.06.1-.09.16l-.05-.17a.54.54,0,0,0-.2.1c-.09.14-.13.3-.22.44s-.29.31-.54.13c0,0-.19.05-.27.11s-.4.27-.64,0c-.05-.06-.22,0-.34,0V9.25h-.1c0,.13.06.25.1.38a0,0,0,0,0,0,0c-.1.06-.22.18-.29.16a1.64,1.64,0,0,1-.39-.29l-.42.24a.66.66,0,0,1-.14,0c0-.47-.54-.11-.6-.44a.44.44,0,0,0-.17.07c-.24.21-.31.2-.5-.07,0,0-.11-.1-.13-.09a1.39,1.39,0,0,1-1.37.06c-.07,0-.23.15-.34.23s-.07.1-.11.12-.12,0-.12-.06A.28.28,0,0,1,18,9.43c.1-.12.29-.24,0-.31,0,0,0-.15,0-.22a1.07,1.07,0,0,0-.1-.22l-.22.17h-.06l-.05-.35c-.24.17-.46.45-.7.06a.42.42,0,0,0-.32.08c-.12.12-.1.14-.22,0l-.2.11L16,8.84c-.31.08-.62.17-.93.23-.06,0-.13-.06-.19-.09l.14-.1.26-.2a5.25,5.25,0,0,0-.53-.29s-.11,0-.14,0c-.33.36-.39.07-.45-.2-.35.08-.34.28-.22.54a.75.75,0,0,1,0,.26s-.06-.14-.1-.16a3.43,3.43,0,0,0-.4-.06l.19.21a.75.75,0,0,0-.21,0,.14.14,0,0,0-.11.09c-.11.28-.31.05-.46.1a1.14,1.14,0,0,1,.06-.33c.07-.12.21-.19.3-.3a.65.65,0,0,0,.06-.21s-.09.06-.13.05a1,1,0,0,1-.42-.07c-.38-.23-.69.07-.93.2-.4.22-.36.3-.52-.07a.85.85,0,0,0-.1-.17L11,8.68c-.1-.13-.43-.07-.29-.38l-.2-.08L10.28,8l-.06.1.33.17c-.11.1-.2.21-.32.3a.92.92,0,0,1-.28.14s-.1,0-.16,0,0-.11.05-.14.16-.05.2-.11a.72.72,0,0,0,.11-.34S9.94,8,9.89,8s-.4,0-.57.23-.4-.05-.54-.25c0,0,.08,0,.12,0a1,1,0,0,0,.21-.1.64.64,0,0,1,0-.1l-.22.1a.44.44,0,0,0-.06.1c-.23-.2-.44-.28-.61.07h0L8,8H8a5.89,5.89,0,0,0-.42-.45s-.24.11-.24.18c0,.32-.23.42-.54.42a3.07,3.07,0,0,0,.25-.26c0-.06.11-.16.09-.21A.32.32,0,0,0,7,7.51c-.18,0-.45.15-.51-.2,0,0-.1,0-.12,0-.23.32-.35.07-.49-.09h0l.39-.43c-.08-.29-.4.23-.37-.22a4.09,4.09,0,0,0-.46.25c-.23.18-.45.38-.67.57h0c0-.23,0-.47.08-.71s0-.21,0-.32l-.29.13-.15,0V6.18c-.22.11-.48.2-.43.56-.49-.07-.07-.37-.22-.59l-.58.52h0c0-.26-.06-.54.17-.76,0,0,0-.16-.07-.25-.41.17-.13-.23-.31-.35-.06.18-.36.29,0,.47,0,0,0,.24-.07.26s-.17.5-.47.18c0,0-.16,0-.24,0A.3.3,0,0,1,2.06,6s.06-.12.09-.18h0c.39-.07.4-.08.59-.53a.85.85,0,0,1-.25,0,.34.34,0,0,1-.12-.14c.25-.26.14-.73.55-.9a4,4,0,0,0,.59-.42c-.31.1-.57-.1-.75.21,0,0-.12,0-.18,0l-.15,0c-.11.48-.92.44-.8,1.09,0,0-.11.13-.19.14A4.67,4.67,0,0,1,1,5.39H1c.09,0-.06-.32.22-.2a.32.32,0,0,0,.32-.1c.05-.07.08-.31-.18-.24a.67.67,0,0,1,.1-.26c.23-.22.47-.41.7-.61.06-.05.12-.14.17-.14.54,0,.87-.35,1.28-.59a.53.53,0,0,1,.18,0,.47.47,0,0,0,.73-.08l-.74.08.36-.69a.76.76,0,0,1,.53.63c0,.19.13.24.32.12a1.75,1.75,0,0,0,.81-.78c0-.11.19-.17.29-.25l.18.33a6,6,0,0,0,.4-.48.88.88,0,0,0,.06-.29.85.85,0,0,0-.33.1c-.18.15-.16.16-.3,0S6,1.89,6,1.9c-.23.22-.48,0-.71.05Zm14.14,7,0-.17-.12.07.14.09.24,0V8.86ZM14.7,2.16s-.11,0-.14,0a1,1,0,0,0-.15.14s.06.08.07.07a.38.38,0,0,0,.18-.09s0-.09.06-.13L15,2.1l.26,0-.06-.24L15,2Zm25.43,1,.26,0-.13-.15c-.08,0-.1-.33-.25,0h-.4a.26.26,0,0,0-.13-.45.6.6,0,0,0-.49.09c-.06,0,0,.31.07.43s.25,0,.38,0A.67.67,0,0,0,39.62,3c0,.11-.2.31.12.2L40,3.11ZM46,40.15l.44-.26-.11-.13-.33.39-.09.3H46Zm-.59-.1-.18.12.25.21.06-.06L45.35,40l.17-.12s0-.05,0-.07Zm2.15-31.4.06-.39h-.1l0,.39-.34.06,0,.15.27-.2ZM16,8.15l-.15-.23a1,1,0,0,0-.14.22s0,.11,0,.16L16,8.14l.08,0c.06-.09.13-.18.18-.27s-.05-.08-.07-.12-.07.19-.11.29A.42.42,0,0,1,16,8.15Zm30.9,32.21,0-.12-.12,0c0,.06-.1.14-.08.18a1,1,0,0,0,.19.23l-.54.25c0-.11,0-.16,0-.19s.13-.17.19-.25-.12-.07-.13-.05a.91.91,0,0,0-.2.24c-.12.18-.22.35.15.31a.35.35,0,0,1,.23.17c.14.26.28,0,.3,0a1.44,1.44,0,0,0,0-.46l.34.07ZM10.64,2.09l0,.19h.14l0-.19L11.24,2C10.88,1.68,10.74,1.85,10.64,2.09ZM7.49,3l.3-.17c.06-.11.09-.25.18-.32.24-.2,0-.19-.09-.22h0c.37-.4.72-.17,1.07,0l-.45.37c-.2.16-.41.31-.61.48a.22.22,0,0,0,0,.18.3.3,0,0,0,.17,0c.25,0,.49,0,.74,0,0,0,.13,0,.14,0s.1.27.15.41c.11-.09.25-.27.32-.25.51.16.51-.3.68-.54s0-.25,0-.37H10v.2s-.16-.07-.16-.1a.76.76,0,0,1,.09-.38c.26-.36.28-.62,0-.63a5.39,5.39,0,0,0-.66.06l.29.31-.46.13A.54.54,0,0,1,9.5,3a2.44,2.44,0,0,1-.1.24l-.28-.13c.05,0,.12-.08.13-.13s0-.12,0-.18-.07-.17,0-.24c.08-.24,0-.28-.21-.22l.37-.56c-.41.24-.76.34-1.09.06,0,0-.08.09-.13.12a.65.65,0,0,1-.19,0c0-.07,0-.14,0-.2L8,1.44l.24,0,0-.06-.2.1c-.13.12-.26.34-.4.35-.41,0-.59.29-.84.66.4-.07.73-.11.87.27L7.25,2.6,7.47,3l-.33.21C7.32,3.26,7.55,3.38,7.49,3ZM4,4.93l.28.23.1-.06-.17-.32L4,4.93A.34.34,0,0,0,4,5s0,.1,0,.15H4L4,5A.36.36,0,0,0,4,4.93Zm-.26-.4-.19.21c0-.07,0-.12,0-.14s-.09-.26-.17-.28-.27.06-.21.26c0,0,0,.1,0,.15S3,5,3.07,5s.26.09.3,0a3.67,3.67,0,0,0,.34-.53l.14-.22-.12,0ZM48,40.66a.35.35,0,0,0,.53,0c0-.05,0-.16,0-.25s-.14,0-.19,0c-.31-.18-.21.26-.39.26L48,40.53a4.91,4.91,0,0,0-.55.57c0,.06.09.3.2.37s.26,0,.38,0,0-.22,0-.32S47.85,40.79,48,40.66Zm1,1.16a2.78,2.78,0,0,0,.34-.26c.14-.13.26-.27.39-.41s0-.16-.24-.38a1.3,1.3,0,0,1-.15-.27,3,3,0,0,1-.16.48.83.83,0,0,1-.2.22,1.1,1.1,0,0,0-.14-.21.21.21,0,0,0-.19,0c-.41.13-.49.51-.61.86.23.11.45.28.66-.08s.24,0,.31.1a1.06,1.06,0,0,0-.23.19.45.45,0,0,0-.07.23s.09.07.1.06.14-.09.15-.15A1.27,1.27,0,0,0,49,41.82ZM33.28,68.09h0c-.05.19.27.48-.16.56a1,1,0,0,0,0,.35.2.2,0,0,0,.15.12c.32,0,.68-.69.71-1s-.06-.48.09-.75A6.38,6.38,0,0,0,34.6,66a2.85,2.85,0,0,0,0-.65c-.17.08-.41.2-.63.33,0,0,0,.16,0,.21s.14,0,.2,0a3.6,3.6,0,0,1-.41.45c-.19.16-.34.28,0,.46a.25.25,0,0,1,.05.22c-.13.2-.27.48-.46.54C33,67.67,33,67.83,33.28,68.09Zm0,2.11c0-.08-.09-.23-.13-.22a.68.68,0,0,0-.38.11c-.22.23-.5.45-.41.83-.51.33.06.4.16.5a.51.51,0,0,0,.49,0,.66.66,0,0,0,.07-.54c0-.2-.34-.39.11-.48C33.23,70.41,33.24,70.29,33.28,70.2ZM27.74,1.66l.41.49a2.26,2.26,0,0,1,.26.42c0,.06,0,.16,0,.25.54-.09.65-.19.53-.59a1.08,1.08,0,0,0-.46-.55C28.31,1.59,28.06,1.66,27.74,1.66ZM48,42.59a4.1,4.1,0,0,1-.35.5c-.3.31.13.39.19.58s.22,0,.34,0,.07,0,.08-.08a2.4,2.4,0,0,0,.13-.69C48.34,42.83,48.13,42.73,48,42.59ZM31.59,2.34a5.34,5.34,0,0,0-.72.29.63.63,0,0,0-.27.31.42.42,0,0,0,.06.28c.18,0,.43,0,.52-.08A3.72,3.72,0,0,0,31.59,2.34ZM13,45.68l-.41.3c.15.14.31.39.43.37s.38-.24.57-.37ZM27.55,2.41l-.07-.09-.35.27a3,3,0,0,0,.33.29c.24.15.31-.1.45-.21s.22-.15.17-.19a.76.76,0,0,0-.31-.11A.57.57,0,0,0,27.55,2.41Zm4,66.22a1.2,1.2,0,0,0-.27-.07c-.21,0-.51,0-.45.32,0,.15.28.25.44.38Zm-16.86-25c.21,0,.26-.44.42-.08,0,0,.08,0,.1,0a5.63,5.63,0,0,0,.38-.45s0-.1,0-.15c-.22.14-.54-.07-.72.15S14.71,43.35,14.65,43.58Zm25-33-.06,0a2.6,2.6,0,0,0,.13-.36.47.47,0,0,0,0-.17s-.09,0-.11,0a.4.4,0,0,0-.1.17c-.06.18-.11.37-.16.56s-.08.27-.13.46a.91.91,0,0,0,.6-1Zm-10.49,56,.28.09a.75.75,0,0,0,.2,0c0-.22.43-.29.18-.58a.57.57,0,0,1-.08-.23c-.07.07-.17.13-.2.22s.08.47-.3.39C29.25,66.49,29.23,66.55,29.19,66.62Zm9.44-54a.74.74,0,0,0,.22,0A.93.93,0,0,0,39,11.35s-.11,0-.11,0-.07.12,0,.17A1,1,0,0,1,38.63,12.62ZM32.13,2.4c-.33,0-.4.14-.35.38a.51.51,0,0,1,0,.24,1.8,1.8,0,0,1-.08.21c.1,0,.25,0,.3-.1a1.59,1.59,0,0,0,.21-.46A.8.8,0,0,0,32.13,2.4ZM15.08,7.33l-.16.84s0,.12.05.12.18,0,.19,0C15.25,8,15.48,7.67,15.08,7.33ZM30.52,65.25l-.2-.15-.09.13c-.09.13-.14.34-.37.15,0,0-.15.05-.16.09s0,.24.05.24a.62.62,0,0,0,.41,0A1.55,1.55,0,0,0,30.52,65.25Zm8.34-49c.51,0,.54,0,.26-.78ZM36.18,9.11c0-.29,0-.54,0-.79,0-.05-.06-.11-.11-.14s-.09,0-.12.06A.92.92,0,0,0,36.18,9.11Zm2.19,56.72-.3-.26a1.17,1.17,0,0,0,.27,0,.29.29,0,0,0,.11-.11c-.14,0-.36-.13-.4-.08a2.69,2.69,0,0,0-.26.57ZM42,3l-.08-.07a1.66,1.66,0,0,0-.46.05c-.12.06-.19.21-.28.33s.09.13.09.13C41.49,3.25,41.73,3.1,42,3Zm.36-.15L42.05,3c.12.09.22.23.34.25s.18-.15.28-.23ZM37.05,67.13c-.14.29-.25.52-.35.75,0,0,0,.11,0,.16s.1,0,.11,0C36.94,67.75,37.29,67.56,37.05,67.13Zm-5.14-.9.12-.1-.21-.52-.32.18Zm-2.86,2.28c-.13.17-.28.3-.26.34a1.41,1.41,0,0,0,.29.31,1.47,1.47,0,0,0,.15-.34C29.24,68.75,29.16,68.67,29.05,68.51ZM25,8.59a2,2,0,0,0,0-.46.42.42,0,0,0-.19-.21s-.14,0-.18.08a.27.27,0,0,0,0,.19A3.91,3.91,0,0,0,25,8.59Zm4.68-6c-.53-.36.08-.49,0-.75-.38-.1-.3.21-.35.4S29.21,2.59,29.64,2.56Zm-9.17,6-.42.66C20.65,9.22,20.61,8.94,20.47,8.54ZM6.37,3.28,6.68,3l-.49-.23ZM15.49,48.9h.08c0-.06,0-.15,0-.18s.12-.23,0-.32a1,1,0,0,0-.24-.07c0,.11,0,.22.08.33A1.22,1.22,0,0,0,15.49,48.9ZM28.78,65.74l.27-.2a1.67,1.67,0,0,0,.23-.23s-.07,0-.09,0a1.86,1.86,0,0,0-.41.17S28.78,65.6,28.78,65.74ZM11.4,7.34l0-.1c-.68,0-.74,0-.61.29Zm.48-5.29c.17.1.37-.22.44.1,0,0,.1-.07.12-.12a.38.38,0,0,0,0-.17A1.32,1.32,0,0,0,12,1.77C12,1.78,11.93,2,11.88,2.05ZM37.55,67l-.07,0a4,4,0,0,0-.17.44c0,.06.06.15.09.22s.17-.13.18-.21A1.15,1.15,0,0,0,37.55,67ZM32.05,9.52l.38-.27L32.24,9a.48.48,0,0,1-.1.17c0,.06-.13.08-.18.14a.19.19,0,0,0,0,.13Zm6,5.12.07.06.3-.45-.1-.08ZM28.64,66.43l0,0,.1.26c0-.1.07-.19.11-.29a.57.57,0,0,0,0-.18,1.38,1.38,0,0,0,0-.2c-.06,0-.14.08-.16.14A.7.7,0,0,0,28.64,66.43ZM12.75,7.25c-.39.15-.41.21-.17.63Zm14-4.72c-.06.11-.11.17-.09.19a4.34,4.34,0,0,0,.28.46s.11-.09.1-.1Zm4.95,64.81.28-.66C31.65,66.85,31.48,67,31.71,67.34ZM7.81,6.73l0,0a2.6,2.6,0,0,0-.27.38c0,.07,0,.17,0,.25s.15-.09.18-.15S7.77,6.88,7.81,6.73ZM6,5.5l-.5.34C5.8,6,5.93,5.9,6,5.5Zm16.43,3h.1c0-.09.13-.17.12-.24s-.11-.15-.17-.23-.12.12-.12.18A1,1,0,0,0,22.38,8.52ZM45.73,39c0-.07.11-.14.1-.19a.62.62,0,0,0-.14-.19l-.22.18Zm-7-34.87-.22.12c.06.07.11.19.18.2s.16-.09.24-.14Zm1.11,7.42.09.06.26-.55-.09,0Zm-8.16,59,.07.13.41-.32-.06-.07ZM33.45,2.81l-.13-.23-.17.18a1.3,1.3,0,0,0,.18.15S33.41,2.84,33.45,2.81ZM7.13,1.34l.11,0,.12-.28L7.18,1ZM48,6.84l.08-.14c-.07,0-.15-.07-.21,0a.28.28,0,0,0-.14.16s0,.11.08.16Zm-7.83,3-.22-.2c0,.05-.09.11-.08.14a.3.3,0,0,0,.14.17S40.1,9.86,40.15,9.82ZM4.54,5.74l0,.12.35-.15,0-.1ZM16.18,43.27V43.2l-.31,0-.13.05s0,.1,0,.1a.29.29,0,0,0,.16,0ZM11.36,2.2h-.12c0,.14,0,.28,0,.42h.11Zm2,44.47c-.06.09-.12.16-.12.23s.08.09.13.14.13-.12.15-.19S13.41,46.75,13.34,46.67ZM13,6.49a.93.93,0,0,0-.2.19s.07.11.12.17.12-.12.17-.19S13,6.57,13,6.49ZM31.17,57.94c.07,0,.13.1.15.09a.23.23,0,0,0,.11-.15c0-.06-.06-.12-.1-.17Zm4.06,11.5.12,0c0-.11.09-.22.13-.34l-.09,0ZM18.67,9.14l0,.08A2.52,2.52,0,0,0,19,9s0-.1,0-.16Zm2.41-7c0,.07-.1.13-.09.16a.36.36,0,0,0,.15.15s.09-.06.13-.1ZM47.55,40.07l-.1.11.26.24.07-.07Zm-11.74-7.6-.09,0,.08.3.17-.08ZM6.92,6.56l-.08.06a2.88,2.88,0,0,0,.22.27s.05,0,.08,0Zm26-5.32-.14-.15a1,1,0,0,0-.13.16s.06.11.06.11ZM8.33,4.2l0-.11L8,4.14s0,.08,0,.13ZM31,3.83c-.1,0-.15-.08-.2-.08a.65.65,0,0,0-.17.08,1.59,1.59,0,0,0,.21.15S30.94,3.91,31,3.83ZM39.67,15.9c.07.07.1.15.15.16S40,16,40,16a1,1,0,0,0-.14-.21ZM28.32,66.39l-.08-.26s-.1.08-.1.12a1.67,1.67,0,0,0,.08.2ZM13.73,43.57l.12,0-.07-.35h-.1ZM47.84,42c-.08,0-.13-.11-.17-.1s-.08.07-.12.12a.42.42,0,0,0,.14.09S47.77,42,47.84,42ZM40.1,3.66,40,3.61c-.06.08-.12.15-.17.23a.58.58,0,0,0,.11.1ZM15.59,2.26l-.1,0,.15.35.07,0ZM5,5.05l.07,0,.18-.21a.68.68,0,0,0-.17,0A.9.9,0,0,0,5,5.05ZM33.16,2.48c-.06-.06-.1-.12-.14-.12a.21.21,0,0,0-.15.08.88.88,0,0,0,.09.2ZM11,8.07l0,.1L11.33,8l0-.09ZM31,6.86l-.11-.05-.14.33.08,0Zm-19.52.95a.68.68,0,0,0,.1-.18s0-.07-.07-.11-.1.08-.12.13S11.46,7.73,11.51,7.81ZM48.16,44.43l0-.1-.29-.07,0,.08Zm-33.6-37,.11-.17s-.09-.07-.12-.06a.15.15,0,0,0-.09.11S14.51,7.35,14.56,7.41Zm.72-.77-.19-.19a2.29,2.29,0,0,0-.09.28s0,0,.06.08ZM9.21,6,9,5.88S9,6,9,6s0,.08.08.12ZM33.78,67.1l-.1-.12a.83.83,0,0,0-.09.16s0,.06,0,.09Zm2.07-6.21s-.06-.07-.09-.08-.07,0-.06,0a.33.33,0,0,0,.06.1Zm-6.7,3.91-.09-.12s-.08.06-.08.1,0,.08.05.12ZM47.27,9.64l-.15-.13a.45.45,0,0,0-.11.13s.05.09.07.08A1,1,0,0,0,47.27,9.64ZM9.05,4.31l-.14-.16-.08,0a.49.49,0,0,0,.05.16A.57.57,0,0,0,9.05,4.31Zm5.07-2.2,0-.08L13.84,2l0,.06ZM45,39.32l-.1-.12a.76.76,0,0,0-.11.14s0,.07.07.06A.53.53,0,0,0,45,39.32ZM23.43,9.2l-.06-.1-.07.06a.67.67,0,0,0,.06.12ZM4.53,4.52l0,.06a.16.16,0,0,0,.09,0,.52.52,0,0,0,.06-.13Zm34.6,8.15-.08,0-.1.27.06,0ZM21,9.09c0-.13,0-.18,0-.2a.58.58,0,0,0-.12-.1ZM37.14,5.42l-.06.07.21.17.07,0Zm1.52,10.3.08,0c0-.08.09-.16.12-.24l-.08-.06ZM27.15,3.26c0,.07-.09.1-.09.14a.34.34,0,0,0,.05.11s.09,0,.11-.09S27.19,3.34,27.15,3.26Zm1-1.82L28,1.29s0,.06,0,.07a.19.19,0,0,0,.07.12S28.06,1.46,28.11,1.44Zm9.71,14.29-.07,0-.08.21,0,0ZM11.09,6.94,11,7.05a.35.35,0,0,0,.13,0s.06-.06.09-.09Zm26.78,7.84-.06,0s-.07,0-.11.07l.07.11ZM22.31,1.45a.68.68,0,0,0-.17,0s-.05.05-.05.07a.61.61,0,0,0,.05.12Zm10.85-.06c-.07,0-.11-.07-.14-.06a.19.19,0,0,0-.1.1s.07.1.08.09A.53.53,0,0,0,33.16,1.39ZM28,3.1l.12.07s0-.07,0-.1A.9.9,0,0,0,28,3Zm.74.44c-.06,0-.1-.08-.12-.08a.87.87,0,0,0-.11.09s.05.05.07.05A.46.46,0,0,0,28.73,3.54ZM8.4,4c0-.12.08-.17.09-.23s-.05,0-.07-.07l-.11.12S8.33,3.86,8.4,4Zm38.43.06a1.46,1.46,0,0,0-.11.21.11.11,0,0,0,.09,0s.09,0,.09-.07A.62.62,0,0,0,46.83,4.06ZM30.45,46.49l-.06-.13-.13.12s0,.07.07.06A.31.31,0,0,0,30.45,46.49ZM39.68,4.28l-.16-.06-.12,0,.14.1S39.59,4.32,39.68,4.28Zm7.61.13s-.07-.07-.09-.06a.19.19,0,0,0-.1.05s0,.07.07.07S47.23,4.44,47.29,4.41ZM8.72,5.26c0-.07.09-.11.09-.15S8.76,5,8.73,5a.5.5,0,0,0-.08.12S8.68,5.18,8.72,5.26ZM14.1,8l.11-.24a.24.24,0,0,0-.08-.06.6.6,0,0,0-.11.12S14.05,7.88,14.1,8Zm12.3.52.14-.1s-.05-.08-.08-.09-.09,0-.11.06S26.38,8.43,26.4,8.49Zm8.21,58.15s0,0,0,0l-.07.06.06.07Zm6.63-56.52c-.07,0-.1-.06-.14-.06s-.07,0-.07.06a.23.23,0,0,0,.07.1S41.16,10.18,41.24,10.12ZM29.5,58.64a.92.92,0,0,0-.12-.16s-.07,0-.1,0,0,.1,0,.13S29.4,58.64,29.5,58.64Zm6-26.25-.14.13s.08.07.1.06a.74.74,0,0,0,.13-.12Zm3-18.69a1.06,1.06,0,0,0,.06-.22s0-.08-.06-.11l-.17.11Zm-7,43.77-.1-.06s0,.05,0,.06a.18.18,0,0,0,.05.07Zm-1-4.66-.14-.11s-.05.08,0,.1a.68.68,0,0,0,.12.12ZM17.38,49.43l-.08.07s.05.06.08.06.05,0,.07,0ZM7.3.78,7.2.62a.28.28,0,0,0-.08.11s0,.08.06.08A.42.42,0,0,0,7.3.78ZM31.63,56.66c0-.06.05-.1,0-.11l-.12-.08a.22.22,0,0,0-.05.08Zm6.49-41-.12-.1s0,.07,0,.1l.08.09Zm-2.25,18c0-.05.06-.08.05-.1a.27.27,0,0,0-.06-.12s-.06,0-.09,0ZM24.32,48.06c-.07-.05-.09-.08-.11-.08l-.13,0Zm4.26,14.13c0,.05,0,.09,0,.12a.76.76,0,0,0,.09.09l.06-.08S28.62,62.24,28.58,62.19ZM23.6,48s-.07,0-.09,0-.05,0-.08.06l.11.07Zm6.27,17L30,65s0,0,0,0L30,64.9ZM47.37,9.75c0-.07.08-.1.09-.14s0-.06,0-.09a.32.32,0,0,0-.1.1S47.35,9.68,47.37,9.75Zm-13,27.19.08,0,.11-.21-.06,0ZM39.28,9.43a.25.25,0,0,0-.11,0s-.07,0-.09.06.07.06.11.06S39.24,9.46,39.28,9.43ZM19.66,9.26l.06-.09s-.06-.06-.08-.05-.05.05-.07.07ZM37.12,66.43l-.07-.12s0,0,0,.07a.75.75,0,0,0,.07.12ZM36.67,8.84c0,.05-.06.08-.06.1s0,.05.08.06.05,0,.07,0Zm-5,57.72s-.05-.07-.08-.08-.06,0-.09,0a.36.36,0,0,0,.07.1S31.64,66.58,31.69,66.56Zm-7.25-18.7-.18-.11s0,0-.07.07a.71.71,0,0,0,.15.08S24.39,47.88,24.44,47.86Zm8.34,19.75a.4.4,0,0,0,0,.11s0,0,.06,0,0-.08,0-.11S32.82,67.63,32.78,67.61ZM33.37,8,33.29,8l.06.05s0,0,.08-.07ZM17.49,47.25s-.09,0-.11,0-.05,0-.07.07l.09,0S17.45,47.3,17.49,47.25ZM5.46,5.19c-.08,0-.14-.05-.15,0a.37.37,0,0,0-.07.14ZM19.12,47l.11-.12s-.07-.06-.08-.05a.29.29,0,0,0-.1.09S19.09,47,19.12,47Zm11.75-.37c0,.11-.06.15-.05.18s.05.06.08.09ZM5.58,5S5.65,5,5.66,5s0-.06,0-.09-.07,0-.09.06S5.56,5,5.58,5ZM27.81,46.93l0,0-.07,0v0Zm19.56-6.35c0-.06.08-.09.1-.13s0-.05-.06-.08-.07.06-.08.1S47.35,40.53,47.37,40.58Zm-6-36.31-.06-.11s-.08.06-.1.1,0,.08,0,.08A.34.34,0,0,0,41.37,4.27ZM5.61,4.06h-.1a.33.33,0,0,0,0,.06l.1,0A.44.44,0,0,1,5.61,4.06ZM35,71.19l-.1-.08s-.06.06,0,.08,0,.06.07.07S34.94,71.22,35,71.19ZM26.86,3.57a.29.29,0,0,0-.05.1s0,.05.06.08.06,0,.06-.08S26.89,3.61,26.86,3.57Zm18,37.12c-.06,0-.1,0-.12,0s-.06.06-.09.09.06,0,.08,0S44.81,40.73,44.87,40.69ZM20.94,2.45l-.15-.11s0,.08,0,.1.07.07.11.11Zm-9.4,0s.07-.07.06-.1,0-.05-.07-.06l-.09,0ZM34.91,73.68a.74.74,0,0,0-.08.15l.06,0a.52.52,0,0,0,.1-.11S35,73.72,34.91,73.68ZM13.22,2.05h0l-.07.17,0,0ZM44.87,2c0-.11,0-.17,0-.18a1,1,0,0,0-.18-.06ZM13.4,43l-.13-.09s0,.06,0,.08l.1.1Zm33.11.2V43.1l0,0s0,0,0,.06Z"/><path class="cls-1" d="M30.5,73c-.22.33-.26.31-.49,0s-.29-.49-.64-.32c0,0-.17-.11-.19-.19a.55.55,0,0,0-.55-.41.5.5,0,0,0-.21.12c-.12.06-.21.28-.37,0,0,0-.16,0-.18.06a.91.91,0,0,0,.19,1.2l.14.13c-.3.19-.37.7-.9.51a3.21,3.21,0,0,0,.34-.41,1.35,1.35,0,0,0,.07-.36c-.08,0-.17.09-.24.07a.83.83,0,0,1-.25-.18s0-.06,0-.06c.31-.14,0-.36.07-.53s0-.32,0-.47.29-.28-.09-.2a.25.25,0,0,1,0-.13c.14-.12.28-.31.43-.32a.94.94,0,0,1,.64.15c.23.16.29.17.46-.23,0,.62.42.45.57.35.3-.19.34.11.34.16,0,.36.18.25.37.2a1.65,1.65,0,0,1,.32,0c0,.11,0,.22-.05.32s0,.13,0,.16a3.3,3.3,0,0,0,.28.35Z"/><path class="cls-1" d="M49.43,42.62c.12,0,.32,0,.36-.14.14-.28.39-.26.62-.31s.35-.05.43.2.39.07.55.07c.34,0,.26.14.21.32s-.1.14-.09.21.08.14.12.21a1,1,0,0,0,.1-.18c0-.19,0-.2.47-.33L51.41,44l-.59-.55.26-.3-.1-.06-.15.37c0,.1-.1.26-.07.28.31.24.05.49,0,.71a.54.54,0,0,1-.83.29c-.08-.09,0-.3,0-.46h.28l.4.1a1.13,1.13,0,0,0,.06-.47c0-.1-.21-.15-.34-.23.45-.26-.15-.55-.06-.86-.07,0-.19,0-.22,0-.33.36-.43,0-.58-.18Zm1-.17v.12l.28,0v-.08Z"/><path class="cls-1" d="M32.26,73.55l.12.11.23.3c0,.06.13.12.14.18s-.1.1-.16.13-.26.1-.37.18-.08.13-.12.21a1.17,1.17,0,0,0,.24.09,1.63,1.63,0,0,0,.31,0,1.08,1.08,0,0,1-.07.31c-.09.17-.34.44-.32.46.25.26-.08.27-.17.39,0-.24,0-.49-.06-.73,0-.05-.1-.11-.16-.12a3.86,3.86,0,0,0-.5,0,3.9,3.9,0,0,1,.41-.48,3,3,0,0,1,.42-.26Q31.82,73.84,32.26,73.55Z"/><path class="cls-1" d="M30.66,74.92a.88.88,0,0,1,0,.28s-.16.12-.18.1a2.16,2.16,0,0,1-.46-.39c-.14-.15-.25-.34-.4-.54.14-.07.33-.25.5-.22a3.29,3.29,0,0,1,1.05.33c.29.15.19.31-.1.37Z"/><path class="cls-1" d="M29.14,74.21l-.21.3c-.07-.05-.14-.12-.22-.17s0-.43-.22-.08c0,0-.26,0-.35-.08s0-.2,0-.3.17,0,.23,0c.34-.18.4.32.69.26C29.09,74.12,29.11,74.17,29.14,74.21Z"/><path class="cls-1" d="M2.42,1.66a1.8,1.8,0,0,1-.06-.37c0-.14,0-.36.1-.38a.74.74,0,0,1,.46,0s.05.2,0,.25A6.19,6.19,0,0,1,2.42,1.66Z"/><path class="cls-1" d="M30.76,71.52a6.21,6.21,0,0,1,.62.33.94.94,0,0,1-.14.32,2.5,2.5,0,0,1-.29.27l-.06,0C31.09,72.06,30.61,71.89,30.76,71.52Z"/><path class="cls-1" d="M29.81,70.73a.51.51,0,0,1-.62.6.34.34,0,0,1,0-.26c.09-.35.44-.22.65-.35Z"/><path class="cls-1" d="M31,73.48l.1,0,.45-.16c0,.13-.05.26-.09.38a1.3,1.3,0,0,1-.14.26,3.14,3.14,0,0,1-.32-.31s0-.1,0-.15Z"/><path class="cls-1" d="M17.54,8.85h.06a4.11,4.11,0,0,1-.42.5c-.06.06-.2,0-.31,0,.05-.1.07-.23.15-.28A4.12,4.12,0,0,1,17.54,8.85Z"/><path class="cls-1" d="M29.17,73.73l-.34-.54a.58.58,0,0,1,0-.14A1.13,1.13,0,0,1,29,73s0,.11,0,.13C29.31,73.35,29.32,73.35,29.17,73.73Z"/><path class="cls-1" d="M21.52,48.49l.1-.08c.06.06.1.16.17.18s.18,0,.22.18h0l-.34.25C21.58,48.9,21.27,48.81,21.52,48.49Z"/><path class="cls-1" d="M11.46,43.55l.08.55-.65,0,.58-.5Z"/><path class="cls-1" d="M4.1,2.21a2,2,0,0,1,0-.43.35.35,0,0,1,.23-.16c.06,0,.19.07.18.1a.42.42,0,0,1-.11.22C4.33,2,4.22,2.1,4.1,2.21Z"/><path class="cls-1" d="M31.85,72.63c-.1.05-.19.13-.22.11s-.2-.15-.2-.23.12-.2.18-.3Z"/><path class="cls-1" d="M47,46.11l.23-.46.28.23-.39.33Z"/><path class="cls-1" d="M31.67,76.13a1.3,1.3,0,0,1-.25.1s-.08-.07-.12-.12l0-.07c-.06-.1-.12-.2-.17-.3a1,1,0,0,0,.22.2,1.27,1.27,0,0,0,.34,0Z"/><path class="cls-1" d="M8.18,8.05a.37.37,0,0,1-.58.33c.35.07,0-.53.43-.39H8l0,.17.14-.09Z"/><path class="cls-1" d="M49.76,45.84a2.06,2.06,0,0,1-.29-.31s.14-.18.15-.18a4.13,4.13,0,0,1,.42.31Z"/><path class="cls-1" d="M5.85,7.25l-.43.33c.15-.19-.28-.39.09-.54.21-.08.32,0,.33.22Z"/><path class="cls-1" d="M30.07,70.29c-.09.14-.18.29-.26.44h0c-.07-.11-.23-.26-.2-.32a.28.28,0,0,1,.47-.11Z"/><path class="cls-1" d="M4.41,6.56c0,.09,0,.21,0,.26A1.69,1.69,0,0,1,4.11,7L4,6.74l.44-.16Z"/><path class="cls-1" d="M49.66,44.15c0-.07-.12-.12-.11-.15a.79.79,0,0,1,.2-.3s.17.08.26.13Z"/><path class="cls-1" d="M14.55,41.22A2.77,2.77,0,0,1,14.3,41s0-.08,0-.13l.23.14.12.06c.08,0,0-.33.17-.07a2,2,0,0,1-.24.22Z"/><path class="cls-1" d="M1,5.39l-.12.27L.75,5.9C.69,5.84.58,5.78.59,5.72a.42.42,0,0,1,.14-.26c.05,0,.15,0,.23-.06Z"/><path class="cls-1" d="M26.67,72.6a3.11,3.11,0,0,1-.08-.43s0-.13,0-.13a1.24,1.24,0,0,1,.27,0s-.08.08-.09.13A4.38,4.38,0,0,0,26.67,72.6Z"/><path class="cls-1" d="M50.3,41.59a2.17,2.17,0,0,1,.1-.51s.16,0,.25-.07,0,.15,0,.19S50.46,41.41,50.3,41.59Z"/><path class="cls-1" d="M2,5.09c.07.14.12.21.11.26A2,2,0,0,1,2,5.64c-.05,0-.14-.11-.13-.14A2.25,2.25,0,0,1,2,5.09Z"/><path class="cls-1" d="M12.47,8.41l-.09.42-.24-.11.23-.33Z"/><path class="cls-1" d="M43.78,45.77a.35.35,0,0,1,0,.11l-.25.27-.1-.09c.07-.12.15-.24.23-.35h0l.16.08Z"/><path class="cls-1" d="M46.45,45.3c0,.39,0,.39-.36.48l.37-.47Z"/><path class="cls-1" d="M1.43,6.76l.57,0C1.84,7,1.8,7.05,1.43,6.76Z"/><path class="cls-1" d="M0,6c.1-.08.19-.18.29-.25s.09.06.14.09l-.32.28Z"/><path class="cls-1" d="M3.19,6.67a.59.59,0,0,0-.14.06A2.61,2.61,0,0,0,2.81,7l.06-.24c.07-.26.2-.11.32,0Z"/><path class="cls-1" d="M51.42,42.18l.33-.43.1.07-.32.44Z"/><path class="cls-1" d="M12.07,45.54l-.31.31-.09-.05.29-.36Z"/><path class="cls-1" d="M12.1,44.71l-.3,0h-.22c0-.06,0-.15.06-.16a.39.39,0,0,1,.24,0,1.55,1.55,0,0,1,.22.12Z"/><path class="cls-1" d="M27.58,70.7l-.13-.17a2,2,0,0,1,.25-.13s.08.09.12.13Z"/><path class="cls-1" d="M3.57,1.52l-.2.18-.15-.23s.09-.07.12-.07A1.74,1.74,0,0,1,3.57,1.52Z"/><path class="cls-1" d="M4.73,7.43l-.23.19a1.31,1.31,0,0,1,0-.28s.07-.07.1-.1l.14.2Z"/><path class="cls-1" d="M36.15,70.22l-.18.15c0-.05-.11-.11-.11-.17s.08-.1.12-.16Z"/><path class="cls-1" d="M11.18,45l-.4-.22,0-.07.42.16Z"/><path class="cls-1" d="M51.11,41.78l-.22.2s-.1-.09-.09-.1a2,2,0,0,1,.19-.22Z"/><path class="cls-1" d="M36.36,69.43l.11-.28.09,0c0,.09-.08.17-.13.26Z"/><path class="cls-1" d="M15.36,40.75l.29.08s0,.06,0,.09l-.33,0Z"/><path class="cls-1" d="M46.46,45.31l.42-.29h0l-.42.29Z"/><path class="cls-1" d="M.86,3.82,1.21,4l-.06.11L.8,3.9Z"/><path class="cls-1" d="M36.35,68.39s.1.08.09.09a1.86,1.86,0,0,1-.1.2s-.08-.05-.07-.06A1.27,1.27,0,0,1,36.35,68.39Z"/><path class="cls-1" d="M3.42,2.77,3.19,3l0-.45.19.19Z"/><path class="cls-1" d="M49.91,43.67c-.06-.07-.12-.11-.12-.15s.07-.1.1-.14.12.08.14.13S50,43.6,49.91,43.67Z"/><path class="cls-1" d="M27.63,68.83l.12.4-.09,0-.11-.41Z"/><path class="cls-1" d="M3.42,2.78l.25,0s0,0,.13.07L3.5,3l-.08-.23Z"/><path class="cls-1" d="M30.76,73.1c.08.13.15.26.23.38h0c-.19,0-.25,0-.22-.39Z"/><path class="cls-1" d="M1.74,5.8l-.3.2-.05-.09L1.7,5.7Z"/><path class="cls-1" d="M36.38,69.85c-.05,0-.1.07-.13.05a.15.15,0,0,1-.06-.11s.05-.08.07-.11Z"/><path class="cls-1" d="M9.35,8.43c.05.06.11.1.1.12a.47.47,0,0,1-.11.13s-.08,0-.12,0Z"/><path class="cls-1" d="M26.13,9.78l.11-.27.1,0-.1.29Z"/><path class="cls-1" d="M12.75,41.93l-.14-.22s.07-.07.08-.06a.38.38,0,0,1,.14.11S12.79,41.85,12.75,41.93Z"/><path class="cls-1" d="M5.18,1.94h.08c0,.08,0,.17,0,.25l-.1,0Z"/><path class="cls-1" d="M5,2.66l-.11-.1A1,1,0,0,1,5,2.42s.07.05.11.07Z"/><path class="cls-1" d="M8.79,8.45s-.08-.08-.09-.13.08-.09.09-.08A1.07,1.07,0,0,1,9,8.38Z"/><path class="cls-1" d="M12.51,48.29l-.18-.13.19-.1v.23Z"/><path class="cls-1" d="M27,73.87l-.05.25s-.07,0-.07,0v-.24Z"/><path class="cls-1" d="M46.48,38.39l-.13.29-.09,0a2.55,2.55,0,0,1,.13-.29Z"/><path class="cls-1" d="M2.35,3.18a.82.82,0,0,1,.12.21s-.06.07-.1.1a.84.84,0,0,1-.06-.14A1.2,1.2,0,0,1,2.35,3.18Z"/><path class="cls-1" d="M3.69,6.78c0,.07.09.11.08.14A.12.12,0,0,1,3.66,7s-.08-.06-.08-.09S3.64,6.84,3.69,6.78Z"/><path class="cls-1" d="M13.65,49.68v-.26h.07l0,.26Z"/><path class="cls-1" d="M2.63,2c0-.08-.09-.12-.09-.16a.17.17,0,0,1,.1-.1s.1.06.1.07A1,1,0,0,1,2.63,2Z"/><path class="cls-1" d="M35.53,9.31V9.4a.88.88,0,0,1-.12.15s-.06,0-.09,0Z"/><path class="cls-1" d="M20.56,9.91l.07-.28h.08l-.06.28Z"/><path class="cls-1" d="M33.49,9.71l0-.23h.07c0,.06,0,.12,0,.19Z"/><path class="cls-1" d="M31.23,71.19l-.06.1a.19.19,0,0,1,0-.08,1,1,0,0,0,0-.1Z"/><path class="cls-1" d="M14.53,8.94v.21L14.47,9a.27.27,0,0,1,0-.09Z"/><path class="cls-1" d="M49.05,45.21l-.13.25-.06,0,.1-.26Z"/><path class="cls-1" d="M48.22,45.05c.05.05.1.09.09.12s-.06.07-.09.11a.5.5,0,0,1-.1-.11S48.17,45.1,48.22,45.05Z"/><path class="cls-1" d="M13,48.59l-.21.18a.74.74,0,0,1,0-.14s0-.08.06-.08A1.08,1.08,0,0,1,13,48.59Z"/><path class="cls-1" d="M2.27,6.8c.06.11.1.16.1.22s-.06.05-.09.07A.67.67,0,0,1,2.22,7,.68.68,0,0,1,2.27,6.8Z"/><path class="cls-1" d="M34.51,32.26l-.27.09v-.12l.28,0Z"/><path class="cls-1" d="M47.66,39l-.09-.12a.31.31,0,0,1,.12-.05s.08,0,.12,0Z"/><path class="cls-1" d="M14.89,42a.41.41,0,0,1,0-.12s.06,0,.08-.06a.22.22,0,0,1,0,.11Z"/><path class="cls-1" d="M30.77,73.09,30.5,73h0c.09-.1.09-.1.25.13Z"/><path class="cls-1" d="M47.71,46.07l-.07-.22.09,0,.05.23Z"/><path class="cls-1" d="M45.74,46.31a.62.62,0,0,1-.18.06s-.07,0-.07-.06a.31.31,0,0,1,.09-.11S45.63,46.23,45.74,46.31Z"/><path class="cls-1" d="M16,8.84l.07-.09a2.23,2.23,0,0,1,0,.23S16,9,16,9Z"/><path class="cls-1" d="M33.49,9.71l.06,0,.14-.09,0,.06Z"/><path class="cls-1" d="M18.61,9.59l.15.09s-.06.09-.08.08a.16.16,0,0,1-.1-.08S18.6,9.63,18.61,9.59Z"/><path class="cls-1" d="M12.51,48.29l.12.2-.07,0-.05-.23Z"/><path class="cls-1" d="M13.34,49l-.12.23-.06,0,.11-.24Z"/><path class="cls-1" d="M18,49.86l.14.23Z"/><path class="cls-1" d="M10.75,44.19a.63.63,0,0,1,.07.12l-.07,0a.52.52,0,0,1-.1-.11Z"/><path class="cls-1" d="M14.54,48.63l-.1.07s0-.06,0-.08,0,0,.06-.07Z"/><path class="cls-1" d="M11.25,8.89l.12.06a.41.41,0,0,1-.11.07s0,0-.08,0Z"/><path class="cls-1" d="M8.67,8.59l-.06.05-.1-.14s.06,0,.07,0S8.64,8.56,8.67,8.59Z"/><path class="cls-1" d="M37.77,68s0-.05,0-.06a.15.15,0,0,1,.06,0s0,0,0,.08Z"/><path class="cls-1" d="M2.62,6.9s0,.08,0,.1-.05,0-.07,0,0,0,0,0Z"/><path class="cls-1" d="M48.47,45.89a.84.84,0,0,1,0,.21s0,0-.06,0a.61.61,0,0,1,0-.11S48.42,46,48.47,45.89Z"/><path class="cls-1" d="M15.13,40.63l-.06,0-.1,0,0-.05Z"/><path class="cls-1" d="M30.08,71.45l.06,0s0,0,0,.06-.05,0-.05,0A.25.25,0,0,1,30.08,71.45Z"/><path class="cls-1" d="M43.87,45.62h.07l-.16.15h0Z"/><path class="cls-1" d="M47.73,3.16a.6.6,0,0,1-.08.08l-.07,0,.08-.08Z"/><path class="cls-1" d="M28.75,72.38l.07,0a.3.3,0,0,1,0,.1l-.07,0A.36.36,0,0,1,28.75,72.38Z"/><path class="cls-1" d="M11.51,45.28c-.08,0-.12,0-.14,0a.9.9,0,0,1-.09-.1s.07,0,.1,0A1,1,0,0,1,11.51,45.28Z"/><path class="cls-1" d="M30.5,76.18l-.1.07a.81.81,0,0,1-.09-.1.21.21,0,0,1,.1,0S30.46,76.15,30.5,76.18Z"/><path class="cls-1" d="M33.28,68.09l.35-.21-.1.31-.25-.11Z"/><path class="cls-1" d="M49.44,41.14l.05.11s-.06,0-.09,0,0,0,0-.07S49.4,41.17,49.44,41.14Z"/><path class="cls-1" d="M7.88,2.33l-.21.14,0-.14h.24Z"/><path class="cls-1" d="M7.8,2.88l-.17-.17Z"/></g></g></svg>