<svg xmlns="http://www.w3.org/2000/svg" viewBox="0 0 70.32 77.26"><title>xxiv-five-normal</title><g id="Layer_2" data-name="Layer 2"><g id="Layer_3" data-name="Layer 3"><path d="M26.26,36.44c-.19-.07-.41.3-.57,0-.06,0-.17.12-.16.15.18.42-.22.53-.4.75a1.07,1.07,0,0,0-.33.63,2.11,2.11,0,0,1-.66,1c-.05.06-.35-.11-.53-.17a1.66,1.66,0,0,1,.15-.39,6.14,6.14,0,0,1,.5-.52c-.16-.15,0-.27,0-.4a3.24,3.24,0,0,1-.4.09c-.15,0-.29,0-.43,0l-.15-.3-.49.38.06.07.56-.14A8.58,8.58,0,0,0,23,38.52a.9.9,0,0,1-1.06.7h0c.41-.11.13-.5.28-.71h0c.31,0,.48-.16.44-.49l0-.63,0,0-.09.5-.26.45-.17-.29-.14.27c-.14,0-.21.38-.41.06a3.58,3.58,0,0,0-.25.42c0,.07.17.28-.11.12,0,0-.09.07-.08.08a.27.27,0,0,0,.11.16.73.73,0,0,0,.18,0l-.56.9a1.37,1.37,0,0,1-.17.17c0-.07-.16-.15-.14-.21.07-.36-.2-.73.08-1.1.09-.13,0-.43-.08-.63,0,0-.29,0-.44,0a5.71,5.71,0,0,1-.71.08c-.06,0-.17-.23-.16-.35a1.3,1.3,0,0,1,.19-.42c.08-.15.18-.27-.14-.24-.14,0-.3-.23-.47-.39a1.84,1.84,0,0,1-.19.25.72.72,0,0,1-.23.2c-.07,0-.17,0-.25,0s.09-.18.13-.28.08-.18.05-.25c-.14-.44-.18-.82.35-1,.1,0,.14-.24.19-.36a.17.17,0,0,0,0-.12.4.4,0,0,0-.15,0,2.77,2.77,0,0,0-.66.16c-.12.07-.16.27-.25.43l-.41-.18-.09.07a4,4,0,0,1,.28.43c0,.07.09.21.05.25a.91.91,0,0,1-.3.19,1.68,1.68,0,0,0-.07-.24c-.24-.52-.22-.92.4-1.14.09,0,.15-.23.16-.36a.56.56,0,0,0-.08-.33.85.85,0,0,0-.23.06l-.28.14L17,34.77c.08,0,.21,0,.23,0,.16-.29.54-.45.12-.94s-.26-1.07-.38-1.69l-.62.48a.23.23,0,0,0-.07.14c.31.3-.06.68.12,1,0,.05-.18.22-.28.33a2.82,2.82,0,0,1-.07-.31c0-.29.11-.61-.23-.85a1,1,0,0,1,.19-.62c.55-.07.43-.46.47-.82a3.45,3.45,0,0,1-.4.11,1.5,1.5,0,0,1-.3,0c.06.07.19.15.18.2a3.07,3.07,0,0,1-.22.6.34.34,0,0,1-.29,0,.47.47,0,0,1-.13-.33c-.05-.69-.07-1.38-.11-2.07,0-.05,0-.09,0-.14,0-.43.13-.86.16-1.29s0-.8,0-1.2.26-.92.11-1.26c-.24-.54.31-.9.13-1.36-.09-.22-.27-.48,0-.66s.12-.28.08-.49a3.7,3.7,0,0,1,.06-.93c0-.08.05-.18,0-.22a.63.63,0,0,1,.15-1A.33.33,0,0,0,16,21.1a3,3,0,0,0-.19-.6c-.14-.36-.11-.41.16-.43l.14-.94h0c.15-.08.35-.12.42-.24.17-.32.25-.7.43-1s.43-.23.52-.4c.22-.42.62-.6.93-.88s.15-.32,0-.48c.33,0,.8.27.8-.4.16-.14.4-.25.45-.42s-.14-.34-.23-.51c-.07,0-.2.06-.22.12-.06.22-.1.45-.14.67s0,.61-.41.39-.16.12-.25.16l-.68.26a3.32,3.32,0,0,1,.25-.71c.24-.39.53-.76.81-1.15l.28.23.05-.38h0c.06,0,.11.11.17.15s.15.11.18.09.17-.16.15-.2c-.2-.5.39-.83.27-1.31,0,0,.06-.13.1-.19s-.21-.1-.3-.07a1.74,1.74,0,0,0-.39.23h0c.06-.29.11-.57.17-.85,0,0,.1,0,.15-.07a1.21,1.21,0,0,1,0,.19l0,.23.17-.16.25-.27-.34-.28c.08-.07.2-.13.23-.22a3.93,3.93,0,0,0,.15-.68s-.12-.08-.15-.06-.12.12-.11.17c.09.37-.17.46-.41.57l-.12-.09c.35-.45.71-.89,1.06-1.33a2.19,2.19,0,0,1,.28-.42c.16-.13.19-.53.56-.31l.12-.14a3,3,0,0,0-.45-.28s-.14.11-.19.19c-.16.25-.31.51-.53.88,0-.23,0-.34-.08-.44A3.4,3.4,0,0,0,20,9.37l-.24.19c-.06,0-.15.13-.2.11a.43.43,0,0,1-.23-.19s.08-.2.13-.2c.46,0,.24-.29.2-.51-.17,0-.53.53-.42-.16,0,0,0-.12,0-.12-.74-.07,0-.56-.3-.76L19,7.65l.62.41,1.26-1.33-.1-.09a2.78,2.78,0,0,1-.27.21c-.21.12-.4.2-.4-.19,0-.07-.19-.2-.29-.2s-.24.1-.42.19c.09-.16.16-.26.21-.37A2.16,2.16,0,0,0,19.7,6l-.21.12-.4.24a.88.88,0,0,1,1.13-.88c.43.13.63-.21.9-.43s0-.66,0-1c0-.08-.05-.16-.05-.24s-.18-.58.28-.21c.08.07.56.23.38-.29,0,0-.07-.5.32-.39v.24c.07.45.43.18.65.27a.55.55,0,0,0,0-.18c-.06-.19-.13-.39-.2-.58.37.38.62,0,.92-.11-.23,0-.5-.34-.69.06,0,0-.15,0-.22,0s.11-.46-.27-.32v0c-.05-.27.37-.52,0-.8,0,0,.07-.07.1-.07a.36.36,0,0,1,.19.06,1.25,1.25,0,0,1,.16.24A1.61,1.61,0,0,0,23,1.5a1.65,1.65,0,0,1,.34-.5l.06.45c.08,0,.24-.07.25-.05s.1.31.18.46a2.92,2.92,0,0,0,.29.34c0-.17.19-.42.13-.49-.27-.28-.22-.46,0-.72s.44-.17.69-.22.8.18,1.1-.21c0,0,.14,0,.21,0s.19.14.22.12C27,.32,27.62.81,28.14.44c.15-.11.48.09.74.11a1.34,1.34,0,0,0,.6-.05A2.78,2.78,0,0,0,30,.09h.1c.22.2.43.49.69.58A.76.76,0,0,0,31.44.4c.29-.4.36-.13.51.08a.26.26,0,0,0,.2.05c.2-.28.36-.16.59,0a.62.62,0,0,0,.55,0c.26-.13.43-.26.49.15a.13.13,0,0,0,.11,0c.29-.15.29-.15.46.11a2,2,0,0,0,1.39.49s.12-.05.12-.07c0-.57.51-.45.86-.65,0,.26-.07.48-.1.69s0,.43.37.36a2.61,2.61,0,0,1,1.27-.13s.06,0,.09,0l.42-.16,0,.44.07.06a3.66,3.66,0,0,0,.26-.42c.07-.2.1-.2.3-.13s.21-.09.32-.11a.84.84,0,0,1,.27,0,.77.77,0,0,0-.16.15s0,.12,0,.12a1.46,1.46,0,0,0,.29,0,2.25,2.25,0,0,0,.7-.18c.39-.24.42.14.59.29a.26.26,0,0,0,.19.05c.45,0,.89-.11,1.34-.12.07,0,.17.23.22.37a4.51,4.51,0,0,1,.09.53l.12,0,.07-.72a2.09,2.09,0,0,0,1.67.24c.07,0,.57-.32.63.19l.15,0a2.32,2.32,0,0,1,.65.07c.19.07.35-.06.57,0a4.46,4.46,0,0,0,1,.2c.16,0,.3.25.46,0,0,0,.21,0,.32.08a.42.42,0,0,0,.15,0l.84-.09.15,0,.17,0s-.07.09-.06.12a.41.41,0,0,0,.11.23,1.28,1.28,0,0,0,.39.13.18.18,0,0,0,.13-.05l.39-.27c-.2.55.13.45.38.5.43.08.8-.3,1.24-.13a3.36,3.36,0,0,0,.63.12l.15-.35.23.56.11,0-.07-.68c.37.25.67.46,1,.64A.33.33,0,0,0,55,3c.14-.22.24-.2.48-.09a3,3,0,0,0,1,.11l0,.27c.19-.1.4-.32.55-.28.33.09.85,0,.78.63.28-.13.35-.6.82-.32.12.07.46-.13.57.22a1.06,1.06,0,0,1,.12-.1c.06,0,.15-.09.17-.08.24.19.38.12.63,0s.44.1.67.16c0,0,.1.06.14,0,.29,0,.57-.07.85-.09.08,0,.21,0,.22.08.12.43.36.27.61.15l.42-.16-.25.48c.37.11.74.31,1-.19a.76.76,0,0,0,0,.15c0,.11.07.22.1.32a2.75,2.75,0,0,1,.28-.19c.09,0,.25-.11.28-.07.27.32.49-.05.76,0,0,0,0,0,0,0s-.07.29-.11.43c.14-.08.34-.26.41-.21.37.22.57-.23.87-.19,0,0,.06.09.08.14s0,.2,0,.21c.55,0,.31.41.2.59A6.94,6.94,0,0,1,66,6s-.13,0-.19,0L66,5.86l-.17-.36.2-.32a.83.83,0,0,0-.28,0,1.93,1.93,0,0,0-.3.27h.39c0,.13.11.25.16.37-.43-.06-.43,0-.47.34,0,.1-.14.19-.22.29-.22-.16-.46-.31-.1-.59,0,0,0-.16,0-.25s-.3,0-.32,0c-.11.27-.31.19-.5.19l-.11-.49c-.18.16-.39.32-.57.51a.53.53,0,0,0-.07.31.58.58,0,0,0,.1.23,2,2,0,0,1,.19-.22,1.34,1.34,0,0,1,.27-.13c-.15.2-.31.39-.44.6a3.47,3.47,0,0,0-.17.45,3.55,3.55,0,0,0,.57-.06c.06,0,.11-.13.15-.2.16-.28.29-.59.7-.35.06,0,.15,0,.23,0-.1.21-.19.4-.51.3-.09,0-.25.15-.36.26s0,.12,0,.19l.36,0c.25,0,.5-.39.77,0,0,0,.27-.08.41-.12a2.41,2.41,0,0,1-.21-.24.6.6,0,0,1,0-.21c.32.06.35-.25.53-.55,0,.56.21.56.52.27l0,.17L66,7.16l.5.23.17.17.09-.18-.23,0a.47.47,0,0,1,.68-.08c.29.24.58,0,.87,0,0,0,.11,0,.21,0l-.58.34L68,7.59a3.62,3.62,0,0,1-.31.69c-.06.09-.11.42-.42.18a1.35,1.35,0,0,0-.65-.14s-.15.15-.14.21a.71.71,0,0,1-.06.65c-.11.19-.12.29.16.2.06,0,.24.17.23.2-.12.26-.08.62-.42.77l-.07-.74c-.11.13-.26.22-.28.34a1.88,1.88,0,0,0,.08.52l.29-.09c.3.22.2.43,0,.62s-.43.34-.63.5c0-.06-.13-.24-.26-.29s-.36,0-.36.24c-.42-.12-.65.82-1.16.2,0,0-.11,0-.12,0-.24.37-.67.21-1,.36a1.25,1.25,0,0,0-.46.36c-.15.18-.24.34-.41,0,0,0,0,0,0,0-.23.05-.54.24-.67.15s-.16-.15-.61,0-.7,0-.9.37l-.46-.34c-.12.25.18.84-.45,1a2.15,2.15,0,0,0,0-.62c0-.1-.22-.2-.34-.2s-.24.11-.36.19-.15.16-.22.16c-.3,0-.51.08-.51.45h-.13l-.22-.64-.7.88c-.25-.59-.35.25-.59,0a2,2,0,0,0,0-.22,1.67,1.67,0,0,0,0-.31,1.37,1.37,0,0,0-.3.22c0,.08,0,.22,0,.32s-.08.11-.11.17c-.31-.37-.54.07-.81.08h-.1l.12-.59a4.87,4.87,0,0,1-.57.2,1.34,1.34,0,0,0-.69.42.24.24,0,0,1-.22,0,3,3,0,0,1-.33-.27.65.65,0,0,1-.92.24.4.4,0,0,0-.3,0c-.22,0-.43.15-.64.2s-.37.27-.42-.11c0,0,0,0,0,0-.19.08-.4,0-.6.09s-.69,0-1-.4c-.13.09-.31.15-.39.27-.23.34-.38.1-.57,0s-.11,0-.17,0a1.46,1.46,0,0,0-1.21.25c-.08,0-.33-.3-.48-.44.07.26-.47.09-.45.42-.13,0-.31,0-.37-.07-.36-.42-.78-.17-1.17-.13-.12,0-.19.19-.3-.08s-.44,0-.67-.05-.21.09-.32.14l-.07-.27-.23.3s-.13-.06-.16-.12.07-.14,0-.16c-.22-.2-.44-.39-.68-.57,0,0-.11.06-.15.12a4.05,4.05,0,0,0-.21.35l-.29-.38L41,13l-.17,0,.06.27-.31.14c0-.16,0-.33,0-.49a.7.7,0,0,1,0-.14c-.33.11-.39-.26-.6-.35s-.25,0-.25.06,0,.43.06.45c.39.09.21.3.11.47a5.14,5.14,0,0,1-.35.55l-.34-.59-.37.53-.37-.32c-.17-.15-.3-.15-.45.06s-.29.17-.42.24c0-.22,0-.46-.06-.6s-.33-.23-.58-.39a1.77,1.77,0,0,1,0,.21c0,.18,0,.37,0,.55-.09-.14-.18-.28-.26-.42s-.05,0-.2,0a1,1,0,0,1-.54,0c-.07,0-.11-.13-.17-.2l-.13.4a1.26,1.26,0,0,0-.11-.32,4.58,4.58,0,0,1-.56-1.26c-.14-.37.23-.27.38-.37,0,.06-.11.12-.12.18a.4.4,0,0,0,.1.23s.14,0,.15,0a.43.43,0,0,0,0-.25s-.08-.08-.13-.12l-.16-.31c-.06-.12-.13-.24-.19-.37a1.84,1.84,0,0,1-.09-.28.85.85,0,0,1-.2.22,3.17,3.17,0,0,1-.41.21l.28-.32a5.07,5.07,0,0,0-.46-.35s-.16.08-.18.15a1.22,1.22,0,0,0,0,.34,1.75,1.75,0,0,0,.24,0c.2-.07.2-.07.17.22-.19.22-.6.22-.6.62l-.18,0c-.26.05-.61-.18-.76.23l-.11-.1s-.1-.1-.11-.09c-.21.16-.35.16-.44-.13,0-.06-.21-.06-.31-.09a1.87,1.87,0,0,0,.38-.41.61.61,0,0,0,0-.46c0-.08-.3-.15-.34-.11a1.09,1.09,0,0,0-.25.46,3.22,3.22,0,0,0-.1.54h-.21a7.14,7.14,0,0,0-.11-.79c0-.1-.12-.17-.18-.26a1.57,1.57,0,0,0-.05.3c0,.45,0,.89,0,1.34h-.2c0-.1,0-.21-.06-.31-.14-.47-.61-.66-.85-1,0,0-.19,0-.21.09a7.39,7.39,0,0,1-.35.89c0-.24,0-.48-.09-.72a3.69,3.69,0,0,0-.17-.42l-.27-.69c-.05-.14-.1-.28-.15-.45l-.53.5a.67.67,0,0,0-.08.17.6.6,0,0,1,.19,0,1,1,0,0,1,.23.11c-.35.42.2.5.29.76,0,.07.08.13.11.2s-.18,0-.23.06a1.39,1.39,0,0,0-.21.27l-.36-.06c.06.13.12.27.19.41s.18.26.16.36-.19.21-.29.31a2.26,2.26,0,0,1-.25-.29c-.1-.16-.15-.49-.36-.07a2,2,0,0,1-.3-.11c.32-.23-.2-.34-.06-.54l.35.16,0-.33.36.16,0-.06-.35-.1s0,0,0,0c-.36,0-.71-.05-1.06,0a.37.37,0,0,0-.28.19,1,1,0,0,1-1.07.46s-.07,0-.06,0c.09-.27.18-.53.28-.79,0-.08.08-.16.12-.24a.68.68,0,0,0-.25,0c-.1.05-.18.16-.29.21s-.11,0-.17-.06c.19-.43-.25-.49-.42-.69s-.17,0-.26,0a1.93,1.93,0,0,0,0,.24l.09.43a.44.44,0,0,0,.1.16c.27.23.31.27,0,.67s.05.42.16.42c.41,0,.22.13.15.33s-.46.47-.14.79c0,0-.11.14-.13.22s-.34.36.07.5c.06,0,0,.46,0,.71s0,.29,0,.43a1.25,1.25,0,0,1,0,.44c-.05.1-.21.15-.32.22,0-.1-.05-.19-.06-.29,0-.25,0-.5-.05-.76,0-.09,0-.23-.11-.25a.34.34,0,0,0-.29.08c-.19.24-.35.49-.57.8l.52-.1,0,.09c-.18.09-.36.17-.53.27s-.12.13-.18.19a1.29,1.29,0,0,1,.21.06,1.55,1.55,0,0,1,.22.12.45.45,0,0,1-.17.11.66.66,0,0,0-.51.7.81.81,0,0,0,.66.71c.07,0,.2,0,.2,0,.07-.56.59-.75.89-1.12a.85.85,0,0,1,.25-.17c.11,0,.22-.05.33-.08a1.63,1.63,0,0,1,0,.39c-.07.17-.36.35.06.44a.67.67,0,0,1,0,.24c-.07.19-.17.36-.24.55-.17.47.45.27.43.45s0,.45.34.37c0,0,0,0,0,0-.13.3-.36.59-.34.86s.3.53.44.8a.5.5,0,0,1,0,.36c-.07.18-.2.34-.29.52s0,.25,0,.26c.46.16.27.43.13.7a.87.87,0,0,0-.07.17.84.84,0,0,0-.05.17,1.23,1.23,0,0,0,0,.19.25.25,0,0,0,.12,0,.35.35,0,0,0,.06-.19.52.52,0,0,0-.11-.19c.36.12.55.3.24.67,0,0,0,.17,0,.19.24.17.18.32,0,.49a.15.15,0,0,0,0,.17c.31.29,0,.66.1.92a1.93,1.93,0,0,1,0,1.14c0,.05.11.13.17.2l.08.25.17-.18-.26-.06a3.13,3.13,0,0,0,.55-.54c.14-.23.24-.21.4-.05a.32.32,0,0,0,.19-.09,2,2,0,0,1,1.2-.93c.25,0,.44-.33.66-.51l.11.1-.23.46.05.05c.12-.11.23-.24.36-.34s.17-.41.43-.17l.41-.51.25.21c0-.12,0-.29.06-.35s.41-.36.52-.31c.56.26.35-.3.52-.45l.07.12c.12-.06.23-.13.35-.18s.19-.06.25,0c.36.19.45.18.66-.13,0,0,.12,0,.18,0A1.29,1.29,0,0,0,33.75,22c.09-.13.16-.23.16,0a.63.63,0,0,0,.25,0,2.34,2.34,0,0,0,.32-.31l.09-.1c.41.52.68-.22,1-.12a2.67,2.67,0,0,1,.33.12c.07-.11-.07-.52.34-.3.33-.4.79.05,1.22-.2a2.36,2.36,0,0,1,1.21-.25c.26,0,.35,0,.41-.21.07,0,.18,0,.2.11.13.29.33.31.59.14s.47-.34.76-.09l0-.34.33.12c0,.08-.09.16-.13.24s.13.8.33.83c0,0,.15-.12.16-.19s-.06-.38,0-.41a1.93,1.93,0,0,1,.8-.2l-.57.42a1.19,1.19,0,0,0,1.12-.8c.07-.21.25-.38.56-.16s.47,0,.69,0c.41.11.82-.17,1.14-.09.76.18,1.42-.35,2.11-.2a4.59,4.59,0,0,0,1,.12c.28,0,.56-.13.82.08.32-.44.85.07,1.2-.25,0,0,.11.12.17.13a2.81,2.81,0,0,1,.59.06c.25.1.45.18.7,0,.07-.07.32.09.48.06s.46-.23.58.17c0,.07.34.14.44.08.44-.27.71.32,1.11.19.06,0,.14,0,.21,0,.5,0,.5,0,.52.53.14-.62.38-.38.61-.22s.74.51,1.13.73c.21.12.48.28.68-.05,0,0,0-.05,0-.08a1.71,1.71,0,0,0,.11.14c.1.1.2,0,.33,0a1.78,1.78,0,0,1,.55.21l.29.17c.15.11.37.2.43.34s.09.56.21.84c0-.14,0-.29.05-.43a2.33,2.33,0,0,1,.11-.28c0,.06.12.19.14.18a4.19,4.19,0,0,0,.46-.2v.76a2.51,2.51,0,0,0,0,.27c0-.07.07-.17.14-.21s.35-.16.53-.24a1.53,1.53,0,0,1,0,.3.58.58,0,0,0,.69.67c.23,0,.18,0,.2.19a.47.47,0,0,0,.31.33c.18,0,.37-.1.36.21,0,0,.07.06.11.06.33.06.39.09.18.39s.1.75-.47.58a.66.66,0,0,0,0,.28c.08.18.23.34.29.52.15.46.24.48.6.15a1.48,1.48,0,0,0,.92.86h0c.1.72.22.87.7.83.09,0,.17-.1.26-.13s.46-.45.64,0a.17.17,0,0,0,.11,0c.49-.47.71.12,1.09.28l-.49.11-.19,0a.64.64,0,0,0,.06.22s.13,0,.19,0l.53,0-.1.19-.53.11v.14c.29.11.69.13.48.61,0,0,.18.17.28.25a1,1,0,0,1,.1-.11.38.38,0,0,1,.14,0c.3.48.56,0,.83,0,0,0,.07-.07.11-.11s0,.12,0,.15l-.67.77a1.64,1.64,0,0,0-.16.29c.11,0,.22.06.33.07a.74.74,0,0,0,.21,0c0,.07,0,.18,0,.21s-.23.26-.06.44a.22.22,0,0,1,0,.14,1.8,1.8,0,0,1-.08.21.79.79,0,0,1,.22,0,.27.27,0,0,1,.18,0s0,.15,0,.15c-.41.11-.12.24,0,.38a.64.64,0,0,1,.14.32c0,.17-.18.4.19.29l0,.52.35.06-.09.1c-.08.09-.24.23-.23.25a1.52,1.52,0,0,1,.35,1c0,.05.08.11.13.15s.13,0,.13.05a2.8,2.8,0,0,0,0,1c0,.09-.1.19-.15.29l.58,0s.1-.06.15-.07.29,0,.44,0a1.42,1.42,0,0,0-.35.17,5.12,5.12,0,0,0-.49.44c-.07.07-.07.19-.11.29a.94.94,0,0,0,.29,0l.75-.29c.27.27.22.59-.31.8-.32.12-.33.24-.21.51a6.9,6.9,0,0,1,.21.78l.13,0L70,39.28h0l.52.21-.16.4s-.05,0-.06.07-.12.25-.18.38l.39.06c-.08.23-.17.45-.25.68a.27.27,0,0,0,0,.18c.12.4.11.4-.2.9a.4.4,0,0,0,.09.35c.29.19.23.4.16.68s.11.61,0,.83c-.32.71,0,1.45-.2,2.17-.07.3.15.67.23,1,0,0,0,.12,0,.15-.33.36-.19.75-.12,1.17a2.7,2.7,0,0,1-.13.87c-.12.65-.23,1.3-.35,2s-.23,1.19-.35,1.78a.14.14,0,0,1,0,.09c-.49.43-.3,1.1-.56,1.61-.14.26-.29.51-.44.77l.1.34c-.1,0-.24,0-.28.06s-.28.34-.26.49.13.25-.09.32a.18.18,0,0,0-.09,0c.29.35-.09.52-.22.76-.22.45-.17,1-.74,1.33-.19.1-.23.45-.38.65a12.67,12.67,0,0,1-.84,1s-.2,0-.27-.06c-.29-.22-.55-.48-.86-.69s-.46.32-.74.38a3.43,3.43,0,0,0,.22.56c.14.23.34.23.57.07s.28,0,.43,0l.29.05.19,0c-.06.06-.11.14-.18.16s-.22,0-.32,0a1.67,1.67,0,0,0-.33.21,2.53,2.53,0,0,1,.18.27.51.51,0,0,1,.09.25,1.21,1.21,0,0,1-.7.85s0,.1,0,.12c.27.45-.1.28-.3.3,0,.13.12.33.06.4a2.32,2.32,0,0,1-.67.69c-.28.15-.53.23-.51.64,0,.11-.33.27-.52.36s-.29,0-.15.23c0,0-.09.2-.17.24-.44.2-.67.62-1,.92a11.89,11.89,0,0,1-1.09.77c-.07.05-.1.15-.17.2s-.38.3-.56.46a1.76,1.76,0,0,0-.24.3s0,.08,0,.12c-.43-.32-.46.39-.8.31,0,0,0,.11-.09.16a.25.25,0,0,1-.12.11c-.11,0-.22,0-.33,0s-.31.18-.41.39c-.2.48-.78.33-1.12.6a6.05,6.05,0,0,0-.51.48c0-.13-.57-.22-.61,0-.1.53-.55.4-.86.56a7.41,7.41,0,0,0-1,.62c-.06,0,0,.21,0,.38-.23.24-.39-.54-.67-.13-.14.2-.65.09-.41.6-.49-.31-.63-.23-.74.36L51,72.78l-.22-.24a1.22,1.22,0,0,0-.16.26c-.1.27-.34.39-.54.24s-.44,0-.63.12a.72.72,0,0,1-.24.11,8,8,0,0,1-1.2,0c-.18,0-.48-.12-.48.27V73c-.15.14-.25.24-.36.33s-.16.12-.18.1c-.26-.23-.38,0-.54.15s-.38.34-.22.65a1.39,1.39,0,0,1,0,.51l-.66-.45a.36.36,0,0,0-.55.07.58.58,0,0,1-.91,0s-.06-.1-.07-.1a2.71,2.71,0,0,0-.93.34c-.33.27-.65.24-.84,0a.58.58,0,0,0-.61-.26c-.35.07-.71.14-1.06.24,0-.12-.06-.42-.39-.09-.09.09-.36,0-.54-.07-.2.16-.16.64-.66.55,0,0-.07.08-.1.13-.14.2-.26.42-.57.22,0,0-.15.06-.23.08.07,0,.14.13.19.12.28-.06.39.11.4.32s-.2.39-.47.4-.34.06-.6.1l.08-1.21a1.34,1.34,0,0,0-.46,1.12,1.43,1.43,0,0,1-.17.46c-.06-.12-.11-.24-.18-.36a3.72,3.72,0,0,0-.22-.31c-.1.13-.14.48-.43.2a1,1,0,0,0-.26.22c-.11.13-.1.14-.24,0a.09.09,0,0,0-.07,0c-.37.16-.53-.09-.68-.42-.15.53-.31.92-.93.59,0,0-.37.22-.63.11a1.08,1.08,0,0,0-1.24.27s-.2,0-.29,0-.44.11-.65.15-.24,0-.28,0c-.18-.2-.56.15-.64-.25a.47.47,0,0,0-.17,0c-.14.09-.27.36-.45,0,0,0-.17,0-.26,0-.25,0-.5.07-.75.08a4.77,4.77,0,0,0-.53,0c0-.19-.07-.25-.4-.12s-.65.34-1,0c0,0-.08,0-.13.06s-.26.07-.28,0c-.33-.57-.88-.14-1.3-.28-.22-.07-.47.34-.72,0,0,0-.23.08-.36.13l0-.11.36-.13c-.06.08-.14-.55-.3,0,0,.06-.35,0-.55,0a2.65,2.65,0,0,0-1.05,0,1.83,1.83,0,0,1-.45.15c-.32.06-.18-.14-.19-.27l.39.1v-.14l-.4,0-.15,0-.19,0c-.09,0-.2-.13-.27-.1-.24.08-.46.26-.67-.08-.06-.1-.35,0-.63.28,0-.12,0-.24,0-.36l-.4.29c0-.29-.05-.49-.4-.55-.14,0-.26-.24-.39-.37a.16.16,0,0,0-.12,0c-.1.06-.24.12-.27.21s-.08.41-.4.26c0,0-.18.22-.28.34a.88.88,0,0,1-.15.12c0-.06,0-.14,0-.18.23-.25,0-.32-.15-.45a1.88,1.88,0,0,1-.12-.18.44.44,0,0,1,.15,0,1,1,0,0,0,1-.7s0-.15,0-.15a.3.3,0,0,0-.21,0c-.14,0-.26.13-.4.19l0,.32a1.1,1.1,0,0,0-.26-.15.71.71,0,0,0-.3,0c0,.25-.25.34-.4.23s-.16-.34-.24-.52c.06,0,.11.11.18.13a.74.74,0,0,0,.21,0l0-.23-.36.11-.26.11s-.05,0-.08,0c.08.74-.53,0-.67.34l.41.18c-.15,0-.26,0-.3,0-.32.33-.53.07-.63-.17s.06-.4.08-.6a1,1,0,0,0-.06-.34,1.86,1.86,0,0,0-.22-.27l-.07.3c-.3-.07.14.61-.4.4-.09,0-.35.38-.62,0-.06-.08-.39,0-.57.07s-.44-.22-.51.19c0,.09-.37.12-.57.18l0-.11.56-.14c-.14-.09-.22-.19-.28-.18-.37,0-.53-.28-.78-.43a.52.52,0,0,0-.47,0c-.23.18-.21.2-.68.15a1.18,1.18,0,0,0,.36-.11c.08-.06.11-.17.16-.25l-.24,0H10.3l.07-.41a.55.55,0,0,0,.93-.2h.25l0-.11-.22.13-.25-.08c-.1.42-.45.19-.68.26l0-.26c-.38.24-.47-.26-.74-.3h0l-.37-.08-.12-.13v.31c-.09.13-.06.33-.35.32-.1,0-.21.37-.32.57l-.14,0a4.29,4.29,0,0,0,.14-.62.5.5,0,0,0-.33-.59c-.09,0-.21.07-.31.1h0c-.3,0-.32-.17-.12-.66.06.08.09.16.14.21s.15.14.21.13c.22-.05.45-.78.27-.9a2.68,2.68,0,0,0-.65-.14A4.09,4.09,0,0,0,7,71.62a2.55,2.55,0,0,0-.6.12c0,.2.09.4.15.6a.91.91,0,0,0,.11.22,2.79,2.79,0,0,1-.4-.07c-.08,0-.13-.13-.2-.14s-.31-.06-.29-.3c0-.09-.16-.18-.25-.28,0,.07-.14.18-.13.19s-.31.32.1.29c0,0,0,.07,0,.08s-.09.09-.1.08-.26-.21-.27-.33a1.89,1.89,0,0,1,.1-.55l.19-.08.3-.21-.33-.3a1,1,0,0,0-.19.28,1.12,1.12,0,0,0,0,.31c-.09,0-.24,0-.27,0s-.18.21-.26,0a.24.24,0,0,0-.14-.1c-.31,0-.31,0-.12-.36-.24,0-.5.09-.46-.32s.37-.11.52-.22c0-.3,0-.51-.41-.55-.18,0-.33-.26-.51-.36a1.07,1.07,0,0,0-.4,0h0a5.46,5.46,0,0,0-.36-.45,1.69,1.69,0,0,1-.49-1.5h0l.24.23c0,.06.15.18.16.17.34-.19.31.11.41.27a.46.46,0,0,0,.29.16s.07-.12.12-.18L3.91,68l.35.06-.12-.18s-.08-.1-.08-.15a.56.56,0,0,1,.06-.21l-.24.08c-.08,0-.14.1-.21.14s-.1-.12-.09-.14.12-.19.18-.19c.52,0,0-.32.15-.41a1.94,1.94,0,0,0-.45-.14c-.11,0-.22.1-.33.14l-.29.1c.06-.13.09-.34.17-.37.28-.09.28-.29.12-.38a1.34,1.34,0,0,0-.64,0c-.37,0-.79.11-.89-.45a3.12,3.12,0,0,0-.15-.43c.21,0,.42,0,.63,0,0,0,.09.1.14.11a1.53,1.53,0,0,0,.3,0,2.8,2.8,0,0,1-.06-.28c0-.17,0-.35,0-.53l.15,0-.24-.19c.23,0,.46,0,.68-.06l.5-.08h.34l-.1-.16q0-.39.09-.78a.34.34,0,0,1,.09-.19c.1-.13.24-.16.05-.4s.13-.57.21-.87a1.07,1.07,0,0,1,.31.13c.37.31.58.26.73-.19a1,1,0,0,0,.06-.46c-.12-.35,0-.48.36-.5,0,0,0-.09-.06-.09-.52,0-.39-.28-.31-.63A1.67,1.67,0,0,0,5,59.07l-.29.07c-.29-.1-.35-.28-.18-.47s.08-.23.15-.31A2.12,2.12,0,0,1,5,58.15c0,.12,0,.23,0,.35l-.06.23,1.13-.55h0a.88.88,0,0,0-.1.22,3.57,3.57,0,0,0-.1.35,1.34,1.34,0,0,0,.4,0c.17-.05.32-.18.48-.23s.28,0,.32.06c.28.48.35.06.43-.11a7.87,7.87,0,0,0,.29-.81,7.51,7.51,0,0,1,.07,1c0,.12-.21.21-.3.33a.88.88,0,0,0-.07.29,1.6,1.6,0,0,1,.23-.1c.06,0,.15-.06.19,0l.78.63-.17.11c0,.05.05.09.06.09.22-.09.58.33.7-.17a1.31,1.31,0,0,1,.41.26c.09.11.08.3.11.41.13-.05.29-.14.46-.19s.19-.22.13-.38l.6,0c-.62-.32-.62-.32-.59,0-.11,0-.32,0-.32-.07a7.3,7.3,0,0,1,0-.81c.14,0,.3,0,.4.08s.2.33.43.14c0,0,.11,0,.14.08.15.22.27.45.42.67a.29.29,0,0,0,.18.1.2.2,0,0,0,.16-.09c.24-.51.32-.55.84-.32.32.15.64.3.72.71l.45-.41c.13.4.33.5.67.19l-.15.26c.29,0,.67-.08.87.07a2.09,2.09,0,0,0,1.25.31c.2,0,.47.14.17.52a1.2,1.2,0,0,0,.34-.13c.16-.12.29-.23.37.07a.6.6,0,0,0,.25,0,3.81,3.81,0,0,1,.67-.07c.07,0,.12.22.14.25.34.08.73.06.95.25s.57,0,.85,0c.11,0,.3-.15.3.14s.16.16.3.11.13.06.21.09c.37.13.82-.07,1.15.28,0,0,.13-.06.2-.06a1.33,1.33,0,0,1,.4,0c.22.07.41.27.65,0,0,0,.25,0,.33.13a.93.93,0,0,0,.74.34,7.3,7.3,0,0,1,1.4.06c.28,0,.52.31.8.33s.68.33,1.07.16c0,0,.07,0,.08,0l.28.27.19-.21a1.55,1.55,0,0,1,.24-.27.3.3,0,0,1,.26-.08c.55.2,1.07.46,1.63.61a15.89,15.89,0,0,0,1.7.3s.11-.09.16-.15.6-.18.61,0c0,.41.22.24.43.21s.56-.09.61-.42.09-.32.36-.23.63.09.93.18.28.22.44.31a1,1,0,0,0,1.12,0c.09-.06.26,0,.39,0a.4.4,0,0,0,.25-.1c.39-.69.91-.35,1.39-.17.2.08.35.2.3-.16,0-.06.18-.2.28-.21.27,0,.54,0,.8,0s.39.14.42-.18c0,0,.11-.13.17-.13l1.15.06c.09,0,.24,0,.27,0s.12-.19.2,0,.18.06.27.08c.09-.69.75-.37,1.11-.58s.66,0,1-.07c0,0,.09-.11.15-.13a.38.38,0,0,1,.21,0s.06.09.09.14c0-.54.45-.07.59-.29,0,0,.15,0,.26.09l.05-.36.38,0c.2,0,.3-.4.57-.15a.79.79,0,0,0,.16-.12c0-.05.07-.16.08-.16.32.09.55-.13.81-.21a5.69,5.69,0,0,0,.69-.25c.24-.1.52,0,.66-.33.38.4.56-.57.94-.13a2,2,0,0,0,.24-.26c.1-.16.15-.39.38-.11,0,0,.17-.07.17-.1,0-.29.07-.38.41-.38.19,0,.42-.32.58-.53s.3-.38.53,0l-.05-.58.28.3c.08-.1.15-.21.24-.31s.12,0,.17,0a.42.42,0,0,0,.14-.09c.06-.06.1-.16.17-.18.25-.06.47-.11.29-.44,0,0,.13-.13.19-.13a.53.53,0,0,0,.49-.37h0l.54-.57a4.26,4.26,0,0,1,.35-.38,2.9,2.9,0,0,0,1-1.3s.11,0,.17,0,.17,0,.22-.07,0-.18,0-.19c-.21,0-.07-.12,0-.23a1.48,1.48,0,0,1,.8-1,.13.13,0,0,0,.07-.08c-.07-.65.39-1.13.55-1.7.1-.35.4-.34.59-.47s.07-.66.5-.67v0c-.59-.28.17-.54,0-.84l-.18.2c0-.08-.07-.18,0-.23.1-.2.25-.37.35-.56s0-.21,0-.31.09-.06.14-.09l.29.07v-.12l-.3.05c.14-.18.4-.34.1-.6.29-.21-.24-.68.25-.84a.12.12,0,0,0,0-.1c-.17-.32.07-.58.12-.87,0,0,0,0,0,0-.42-.76.06-1.53,0-2.31-.08-.58.19-1.34-.1-1.74s-.08-1.25-.69-1.65a.62.62,0,0,1-.2-.82c0-.05-.14-.23-.17-.27l-.62-1.51h-.45a2.23,2.23,0,0,0,.13-.44,3.46,3.46,0,0,0,0-.56c.14.09.36.3.42.26.25-.17.39,0,.48.15s0,.3-.07.43a2.09,2.09,0,0,0,.18,1,3.27,3.27,0,0,0,.37.66,4.25,4.25,0,0,0,.36-.7s-.21-.18-.23-.2.15-.35.11-.46c-.18-.44-.43-.87-.62-1.31a1.16,1.16,0,0,1,0-.42l.29.05s0-.08,0-.08l-.31-.1c0-.09,0-.2.08-.27s.29-.2.28-.27A1.94,1.94,0,0,0,59,35c0-.05-.32,0-.39,0a2.48,2.48,0,0,0-.24.55h0a.55.55,0,0,0-.14.12c-.07.09-.13.2-.2.31,0-.15-.1-.31-.06-.44.08-.31.24-.6.33-.91s.15-.45-.19-.52c-.05,0-.15-.09-.14-.1s.12-.2.18-.3l.16.11.12.16c.06-.64.06-.64-.42-.87,0,0-.08-.07-.12-.11l.2-.16.22-.16-.28,0c-.21,0-.49.32-.6-.14a.4.4,0,0,0-.17,0,.24.24,0,0,0,0,.14c.15.49,0,.66-.61.64h0l-.14-.19v0c.35,0,.34,0,.26-.35a3.07,3.07,0,0,1-.05-.53s0-.12-.08-.12-.18,0-.22.06c-.22.25-.42.51-.63.77l-.32-.25c-.06.14-.19.34-.15.4a2.26,2.26,0,0,0,.48.35c-.28.11-.21.33,0,.45a.55.55,0,0,1,.28.78s0,.08,0,.12.16-.08.16-.12c0-.27.11-.27.31-.2a.53.53,0,0,0,.18,0c0,.05-.09.1-.13.16s-.23.21-.22.31c0,.3,0,.32-.33.31-.08,0-.17.12-.29.2a1.81,1.81,0,0,0,0-.33,1,1,0,0,0-.13-.27l-.21.35-.2-1.14-.71.62a4,4,0,0,0-.43-1c-.17-.23-.24-.37-.1-.64l-.41.38-.05-.22c-.32.28-.35-.19-.55-.22a.31.31,0,0,1-.12-.05l-.53-.52a3.44,3.44,0,0,0-.38-.22c-.06,0-.16,0-.2,0-.21.17-.15.11-.34,0s-.4,0-.63,0c0-.23,0-.58-.54-.32,0,0-.1-.06-.09-.08s.06-.25.09-.37c0,.09,0,.18,0,.27l.06-.05a2.12,2.12,0,0,0-.11-.21,1.09,1.09,0,0,1-.25,0c-.05,0-.09-.1-.13-.15s.18-.08.2-.06c.26.26.33,0,.3-.14-.09-.39.2-.42.43-.52a3.21,3.21,0,0,1,.53-.15c.44-.08.3-.42.23-.62s-.29-.16-.5,0-.46,0-.61.12c-.31.23-.56.55-.86.8a1.46,1.46,0,0,1-.46.14.91.91,0,0,0,0-.32c0-.08-.21-.2-.23-.18a4.56,4.56,0,0,0-.44.44,1.62,1.62,0,0,0-.32-.36c-.05,0-.24,0-.3.08a.59.59,0,0,1-.61.23c-.19,0-.4.15-.6.23h0a.59.59,0,0,0,0-.19c0-.06-.1-.1-.11-.15a1.36,1.36,0,0,1,.06-.29c-.11.07-.28.12-.3.21-.09.27-.26.28-.47.22h0c.06-.18-.1-.48.26-.51l-.08-.67-.49.1-.33.05a.57.57,0,0,0-.26,0,4.34,4.34,0,0,1-1,.61c-.38.08-.31.26-.32.49,0,.05-.15.13-.24.13-.25,0-.54-.42-.77.08,0,.09-.3.08-.46.12a1.76,1.76,0,0,0-.1-.35s-.13,0-.2,0a.19.19,0,0,0-.11.09,3.83,3.83,0,0,1-.17.43c0,.06-.12.1-.19.15s0-.16,0-.2,0-.36-.3-.13-.55.49-.94.15c-.12-.1-.13-.06-.28.21,0,0-.22,0-.3,0s-.22-.19-.2-.26c.09-.34-.23-.27-.36-.38s-.17.07-.26.11h0l-.3.26-.16-.5c-.2.35.09.94-.49,1.06-.43-.27.15-.5,0-.83l-.45.26L37.17,31l-.05.08.27.05c0,.16-.41.22-.09.43a.52.52,0,0,1-.17.13s-.11,0-.12-.08a1.09,1.09,0,0,1,0-.26h-.13c0,.15,0,.3,0,.45a1.46,1.46,0,0,1-.07.19.49.49,0,0,0-.06-.17c-.08-.1-.17-.19-.26-.29a1.34,1.34,0,0,1-.07.18s-.1,0-.1,0-.09-.29-.16-.55a3.27,3.27,0,0,0-.09.42c0,.29,0,.68-.47.38,0,0-.16,0-.21,0-.25-.12-.58.52-.76-.08l-.21.24c-.08.11-.43.1-.19.38l-.26.08-.06-.24-.14.16a3.8,3.8,0,0,0-.59.06c-.17.06-.46.06-.29.41,0,.06-.11.2-.17.31l-.19-.14s.1-.07.11-.12a.2.2,0,0,0,0-.16.25.25,0,0,0-.19,0c-.53.35-1.05.73-1.6,1.05-.27.16-.61.2-.9.35-.55.28-1.1.58-1.63.92-.21.13-.34.4-.54.55s-.65.45-1,.67h0a2.41,2.41,0,0,0-.08-.25,2,2,0,0,0-.14-.25c-.06.07-.15.12-.18.2a1.89,1.89,0,0,0-.08.4ZM49.38,22.66l.22,0-.11-.18-.11.22-.06.24.17,0ZM63.08,5.24l.3-.21-.09-.1-.24.29-.21.19,0,.06ZM61.14,40.62l.14.21s0-.1,0-.11l-.18-.09-.24-.45-.07-.11-.15.15.15.07C60.69,40.62,61,40.56,61.14,40.62ZM19.9,5.79l.36-.06-.1-.13-.25.2h-.2l.08.12ZM63.05,62.58c.21-.21.13-.39-.07-.54l0-.39a5.56,5.56,0,0,0-.54.42s0,.21,0,.3l.45-.32.09.53-.31-.14-.06.31Zm-46-39-.1-.27-.16.14.27.12-.25.24.26,0C17,23.74,17,23.65,17,23.56Zm5.16-13.07c-.09.12-.19.24-.28.37s.07.08.11.12,0-.21.05-.31a.72.72,0,0,1,.11-.19.84.84,0,0,0,.17-.05,1,1,0,0,0,.21-.19s-.05-.07-.08-.12a2.29,2.29,0,0,0-.23.21S22.18,10.44,22.16,10.49Zm3.56-6.84L26,3.42c-.08,0-.2-.08-.23-.06a2,2,0,0,0-.14.29L25.51,4h.23ZM22.85,9.48c-.49.28-.07.45.12.68l-.13-.69.09-.28-.16,0ZM61.91,25.37l.36.27.06-.12-.43-.14-.58-.22,0,.13C61.49,25.32,61.63,25.66,61.91,25.37ZM43,21.81l-.44-.31,0,.59.19.16.22-.46.2.25.39-.5-.09-.06Zm19.49-15-.36.1.08.14.28-.25c.16-.08.32-.15.48-.24,0,0,0-.11-.07-.17l-.29.3ZM61.11,42a1.49,1.49,0,0,0,.15.2l.09-.06L61.1,42l.21-.22s.1-.08.1-.13,0-.1-.06-.16a2.21,2.21,0,0,0-.36.23S61.07,41.86,61.11,42ZM19.25,16.63a.74.74,0,0,0,.21-.07,3.44,3.44,0,0,0,.27-.27s-.1-.1-.12-.1a3.14,3.14,0,0,0-.39.24s0,.14,0,.21a2,2,0,0,0,0,.24.37.37,0,0,0,.14,0ZM16.69,30l.14.06.07-.15-.21.1c.07-.13-.05-.49.32-.27,0,0,.13-.11.12-.17a.32.32,0,0,0-.11-.24.28.28,0,0,0-.23,0C16.74,29.53,16.72,29.74,16.69,30Zm44.79,14c.36-.2.45-.48.18-1-.07.41-.12.7-.16,1l-.17,0s0,0,0,.08l.4.09V44Zm-38.8-7.45c.16-.06.32-.1.47-.17a1.33,1.33,0,0,0,.26-.21c-.12,0-.29-.1-.37,0a2.14,2.14,0,0,0-.36.42l-.29,0v.08ZM63.82,62.32l0,.25a1.25,1.25,0,0,0,.27-.1s0-.12.06-.19l-.29,0c-.09-.24.3-.52-.07-.73-.07,0-.14-.13-.19-.12a.34.34,0,0,0-.19.16c0,.06.1.13.15.2s.11.09.1.11C63.5,62.25,63.5,62.25,63.82,62.32ZM36.25,75.49c-.38-.19-.62-.16-.57.36,0,.05-.08.11-.12.17-.27-.22-.18,0-.13.12s.08.18.13.31l.31-.68s.07,0,.1-.07,0,.1,0,.14a.14.14,0,0,0,.11,0c.43,0,.1-.27.13-.41l.24,0v-.12ZM17.75,18l-.46-.32v1.1l.15,0c.11-.28.21-.55.31-.83.08,0,.22.06.23,0a2.34,2.34,0,0,0,.19-.5s-.09-.11-.14-.16-.14.11-.17.18S17.79,17.88,17.75,18ZM4.87,65c.23.14.37-.37.62-.08,0-.06.11-.14.09-.19a3.86,3.86,0,0,0-.2-.41c-.16-.25-.33-.23-.43,0a3,3,0,0,0-.11.6l-.47-.21s-.08.08-.07.1.19.29.29.43ZM29.68,3A.74.74,0,0,1,29.47,3c-.08-.05-.2-.2-.21-.19-.21.16-.41.34-.61.52,0,0,0,.14,0,.14.3,0,.6-.1.9-.17.05,0,.06-.16.09-.24l.29.18L30,3.13l-.16-.33ZM17,27.17l0,.42.12,0L17,27.18A6.53,6.53,0,0,0,17.1,25a2.35,2.35,0,0,1,0-.53c0,.18-.06.36-.11.54a2.26,2.26,0,0,0-.22.63,4.82,4.82,0,0,0,.14,1C16.93,26.83,17,27,17,27.17Zm-6.87,45.3-.89,0-.63-.05a2.31,2.31,0,0,0-.16.27c-.05.12-.07.26-.11.39.12-.06.22-.16.34-.17a2.32,2.32,0,0,1,.63,0c.08.49.26.13.4.07l.2.51.29-.37L9.73,73c0-.5.35.05.43,0v-.44a1.67,1.67,0,0,0,.08-.2c0-.14.08-.29.12-.43l-.19,0c0,.18-.09.36-.12.54S10.12,72.42,10.16,72.47Zm33-48.93h.09s0,0,0,0c0,.38-.37.49-.59.72-.05.05-.05.15-.08.24a.61.61,0,0,0,.2-.09,5.08,5.08,0,0,0,.68-.63c.09-.09.07-.27.11-.42l-.43.16a5.87,5.87,0,0,0,.41-.46,1.3,1.3,0,0,0,.19-.37.3.3,0,0,0-.18-.1,2.31,2.31,0,0,0-.65.25c-.13.07-.2.27-.3,0a2.09,2.09,0,0,0-.41.07l.39.89a1.13,1.13,0,0,1,.18-.12ZM36.8,3.94c0-.14,0-.35-.08-.43-.29-.27-.18-.46,0-.72a1,1,0,0,0-.42.33,2.37,2.37,0,0,0-.19.35l-.38-.21a1.64,1.64,0,0,1-.16.29,1,1,0,0,1-.21.2V3.43l-.24.16.26.14c0,.07,0,.15,0,.19s-.17.06-.17.09,0,.29.06.29a6,6,0,0,0,1,0,2.62,2.62,0,0,0,.54-.12l.55-.2s0-.11,0-.11l-.44,0S36.83,3.93,36.8,3.94ZM60.06,38.29c-.11.27.08.8.29.76a2.16,2.16,0,0,0,.71-.32s0-.26-.07-.36a1.13,1.13,0,0,1-.09-1s0-.1,0-.19c-.49.26-.84.56-.83,1.13Zm.33-14.19a.38.38,0,0,0-.51-.38c-.65.16-.78-.18-.86-.69a2.74,2.74,0,0,0-.27-.6c-.18.21.21.69-.34.55a.61.61,0,0,0-.09.32c0,.06.16.11.25.14s.15-.05.16,0,.29.35.26.47c-.13.45.35.18.39.38s-.1.15-.11.24a1.08,1.08,0,0,0,0,.31c.08,0,.21,0,.24-.1s.08-.35.16-.51.19-.29.29-.3S60.26,24,60.39,24.1ZM17.13,22.85c0-.08.1-.15.1-.22.05-.57-.25-1.17.18-1.7a.19.19,0,0,0,0-.19s-.14,0-.14,0a5.08,5.08,0,0,0-.33.66,1,1,0,0,0-.05.4c0,.33,0,.66.05,1C16.91,22.79,17,22.81,17.13,22.85Zm41.7,9c0-.16,0-.29-.07-.33a3.39,3.39,0,0,0-.7-.49,1,1,0,0,0-.52,0c-.06,0-.11.08-.17.13s.12.15.17.15c.46,0,.62.32.84.61a2.83,2.83,0,0,0,.25.24Zm-4.41-.38-.13.07a3.69,3.69,0,0,0,0,1c0,.18.32.3.49.44,0-.12.19-.31.15-.36A3,3,0,0,1,54.42,31.47Zm11.8,25.67a4.17,4.17,0,0,0-.5.42,2.63,2.63,0,0,0-.31.48.25.25,0,0,0,0,.17.23.23,0,0,0,.14.08,8,8,0,0,0,.71-.72C66.3,57.5,66.23,57.32,66.22,57.14Zm-7.93-2.86-.32.43c.19,0,.4-.11.43-.23a1.07,1.07,0,0,0,0-.71c-.14-.24-.28,0-.42.11l-.38.2Zm-51.68,7c-.32-.11-.52.35-.81.06,0,0-.24.14-.24.22a1.48,1.48,0,0,0,.11.45A1,1,0,0,0,6,62C6.19,61.76,6.39,61.55,6.61,61.33Zm26.83-50c0-.3-.08-.54-.13-.77a.44.44,0,0,0-.13-.19,4.16,4.16,0,0,0-.47.24.52.52,0,0,0,.12.26C33,11,33.17,11.08,33.44,11.28ZM45,22.91l-.05-.15a2.71,2.71,0,0,0-.4,0,.55.55,0,0,0-.26.15,6.27,6.27,0,0,0,.29.58ZM55.4,32.54l.56-.62-.62-.51.12.63C55,32.08,55.39,32.34,55.4,32.54ZM24.23,3c0-.12.09-.35,0-.46a1,1,0,0,0-.51-.27s-.17.11-.19.19.07.16.14.21S24,2.88,24.23,3ZM66.1,29.76c-.09.12-.22.23-.22.32a1.22,1.22,0,0,0,.19.42l.49-.54ZM25.46,35.31a5.42,5.42,0,0,0-.49.56s.13.25.22.26c.47.06.15-.44.38-.57A1.78,1.78,0,0,0,25.46,35.31ZM22.55,15l-.12-.38a3.37,3.37,0,0,1-.19.32c0,.06-.13.1-.14.16a1.16,1.16,0,0,0,0,.37c0,.06.1.1.16.16.07-.1.16-.18.22-.28A2,2,0,0,0,22.55,15ZM62.17,5.57c-.17.2-.31.33-.42.49s0,.19,0,.28L62,6.22l.27-.14c.06,0,.18-.12.17-.14A1.44,1.44,0,0,0,62.17,5.57ZM17.26,19v1.05h.1l.39-.85Zm43.27,5.82.1.15.66-.26-.19-.37ZM62.69,5.7l.18.54.57-.32,0-.12ZM21.13,7.8l-.07-.15c-.24.23-.42,0-.62-.07l0,.07a2.93,2.93,0,0,0,0,.41.39.39,0,0,0,.26,0C20.82,8,21,7.89,21.13,7.8ZM6.36,62.59c0,.07,0,0,0,0l.12-.19c-.25.05-.41-.42-.71-.14a.22.22,0,0,0-.06.17c0,.06.07.15.12.16A4.63,4.63,0,0,0,6.36,62.59Zm-1,.31-.09-.3c-.07,0-.16-.07-.2-.05s-.33.23-.5.34c.08.1.18.28.22.27A4.17,4.17,0,0,0,5.38,62.9ZM63.74,44.35l-.19-.93C63.59,43.71,63,44.08,63.74,44.35Zm-7.89,12,.09.19c.28-.53.47-.16.72,0a1,1,0,0,0-.44-.46C56.15,56,56,56.28,55.85,56.39ZM22,34l-.22-.29a2.51,2.51,0,0,0-.33.32s.06.17.09.26Zm1.86,3.43a4,4,0,0,0,.1-.51,1,1,0,0,0-.09-.28c-.08,0-.19,0-.23.08a.44.44,0,0,0-.06.31A2,2,0,0,0,23.81,37.43ZM21.9,9.22c.49-.11.29-.47.34-.77C21.65,8.53,22.06,9,21.9,9.22ZM51.16,23.66l-.09-.09-.53.47.14.16ZM57,29.94c-.15.09-.38.18-.37.25a2.47,2.47,0,0,0,.19.64h.06ZM22.24,16.64l.3-.69L22,16Zm8.18-7.06.41-.79C30.26,9.15,30.25,9.16,30.42,9.58ZM65.31,28.75l-.12,0a1.47,1.47,0,0,0-.08.35c0,.08.11.15.17.22s.14-.11.13-.16A3.63,3.63,0,0,0,65.31,28.75ZM59.82,37.9l.32-.54s0-.09-.07-.14c-.14.16-.28.31-.41.47A1.81,1.81,0,0,0,59.82,37.9ZM41.6,23.2l.31.35a1.34,1.34,0,0,0,.14-.36c0-.05-.12-.15-.2-.16S41.72,23.12,41.6,23.2ZM21.33,8a2.71,2.71,0,0,0-.52.26c-.06,0,0,.18-.08.28s.23,0,.29,0A3.32,3.32,0,0,0,21.33,8ZM38.56,4.4a1.18,1.18,0,0,0,.36.09.39.39,0,0,0,.23-.13s0-.11,0-.17a1.45,1.45,0,0,0-.3,0A1.58,1.58,0,0,0,38.56,4.4ZM20.81,36c.08-.16.18-.26.17-.34s-.16-.19-.22-.17a.34.34,0,0,0-.19.23C20.57,35.78,20.69,35.86,20.81,36ZM56.59,12.65l-.15-.1c-.08.18-.15.36-.22.54,0,0,.06,0,.1.07Zm9.29,19.63c.06-.24.15-.4.1-.48s-.23-.09-.42-.15c.09.18.13.28.18.38ZM3.45,65.85c-.39-.36-.46-.35-.61.05ZM20.21,12a1.33,1.33,0,0,0,.3.08s.14,0,.13-.06-.07-.2-.11-.3ZM59.66,39.48c.1,0,.15,0,.16,0a1.91,1.91,0,0,0,.25-.33c0-.05,0-.15-.09-.22l-.18.32C59.77,39.33,59.72,39.38,59.66,39.48ZM67.48,7.77l0-.22a2.77,2.77,0,0,0-.41,0s0,.15,0,.23ZM67,56.05l.16,0,.13-.39-.32,0ZM36.85,4.7c-.59,0-.61.07-.53.48ZM25.91,10.13,26,10l-.25-.33-.19-.17c0,.08,0,.19,0,.25A3.85,3.85,0,0,0,25.91,10.13Zm8.15,56.33,0-.18c-.06,0-.14-.06-.18,0l-.48.34s.12.13.15.12S33.91,66.54,34.06,66.46Zm-8-55.27-.2-.15-.3.37.13.1C25.81,11.42,25.91,11.32,26.06,11.19ZM6,70.74c-.08.12-.16.19-.17.26s.08.13.12.2l.29-.2ZM19.76,18.5c-.15-.09-.22-.17-.28-.16s-.16.09-.24.14.08.12.11.12A3.29,3.29,0,0,0,19.76,18.5Zm-10,53.24-.16-.14a3,3,0,0,0-.27.33s.07.07.1.11Zm35.42-48c-.09-.08-.13-.14-.15-.14l-.5.15s0,.08,0,.12l.37-.13A2.71,2.71,0,0,1,45.19,23.69ZM5.86,61l.08.11.53-.48-.06-.07ZM21.65,5.19c-.1-.05-.2-.15-.25-.13a.53.53,0,0,0-.17.24s.12.12.15.11A1.54,1.54,0,0,0,21.65,5.19Zm10.26,5c-.08-.07-.17-.16-.19-.15a.6.6,0,0,0-.16.22s.07.09.11.14Zm-9,55.56c-.12-.07-.21-.16-.26-.14a1.13,1.13,0,0,0-.26.23c.05,0,.11.13.14.12A3.05,3.05,0,0,0,22.86,65.74ZM65.07,10.65l.05.07.44-.27-.07-.1ZM16.45,19.89V20l.49-.07v-.07Zm27.39,4.55a1.87,1.87,0,0,0-.38-.14s-.13.1-.12.12.1.18.16.18S43.66,24.53,43.84,24.44ZM63.18,61.37l.2-.15a2.18,2.18,0,0,0-.22-.21s-.14.08-.13.1A1.87,1.87,0,0,0,63.18,61.37ZM58.89,32.21v.19l.45-.06s0-.09-.05-.09ZM41.32,22.85l-.13,0,.1.34c.06,0,.18-.1.17-.12A1.65,1.65,0,0,0,41.32,22.85ZM63.68,36.08a2.45,2.45,0,0,0,.13-.38s-.1-.13-.14-.12a2.1,2.1,0,0,0-.3.15ZM8.27,71.46c.08-.1.15-.15.16-.22s-.07-.1-.12-.15a.7.7,0,0,0-.16.19S8.21,71.37,8.27,71.46ZM60.37,43h.15l0-.43h-.12ZM21.86,7.8l-.07.14c.12,0,.23.11.35.15s.06-.06.08-.1Zm35,14.69h.09l-.08-.5-.11,0ZM24.16,36.71a2,2,0,0,0,.13-.34s-.09-.08-.14-.13a1.66,1.66,0,0,0-.1.29S24.09,36.61,24.16,36.71ZM65.88,59.28l-.22-.21-.25.26s.08.09.11.08A2.2,2.2,0,0,0,65.88,59.28ZM59.39,36.75c-.07.08-.16.15-.14.18a1,1,0,0,0,.18.24c0-.07.12-.14.12-.21S59.46,36.84,59.39,36.75ZM23.55,5.44l-.16-.05c0,.15-.08.29-.11.44l.11,0Zm-3.1,32.65.18,0v-.44l-.09,0ZM53.64,33a1.33,1.33,0,0,0,.12-.3s-.06,0-.1-.08a2.2,2.2,0,0,0-.17.25ZM21,16.88l-.21-.19c0,.06-.11.12-.11.17s.08.12.13.13S20.89,16.93,21,16.88ZM23.53,3.39l.13.09.19-.3-.1-.07ZM16.25,22.18l-.08.09.27.25c0-.05.08-.12.08-.13Zm24.08,8.65c-.11,0-.17-.1-.2-.08a1.25,1.25,0,0,0-.17.16s.08.08.1.07Zm-10-4.26.09.09.3-.23a.57.57,0,0,1-.08-.08ZM24.14,3.32l-.24.18a.71.71,0,0,0,.22.13c.05,0,.11,0,.17-.08Zm6.13,6.84c0,.14,0,.19,0,.24a1,1,0,0,0,.13.17c0-.06.12-.12.1-.16S30.38,10.29,30.27,10.16Zm.61,0,.14,0-.11-.3-.11.06A2.29,2.29,0,0,0,30.88,10.2ZM19.39,17.66c.06-.08.13-.13.12-.15s-.08-.16-.12-.24-.14.09-.14.13A1,1,0,0,0,19.39,17.66ZM65.5,29.74l0,.08.24-.15,0-.1Zm-4,16.46h-.13v.31l.12,0A2.62,2.62,0,0,0,61.54,46.2ZM29.9,10h-.14v.35l.08,0ZM6,64.82l-.17-.16s-.1.08-.11.13,0,.1.07.15ZM36.2,2.43l-.08-.1-.25.2.06.09ZM35,66.84a1.85,1.85,0,0,0-.26-.12s-.08.06-.12.1.11.14.18.17S35,66.92,35,66.84ZM61,39.2l0-.06a.35.35,0,0,0-.11,0,1.48,1.48,0,0,1-.13.08s.09.08.12.07A.53.53,0,0,0,61,39.2ZM49.59,72.5c-.08,0-.12-.07-.16-.07s-.14,0-.22.07.1.17.13.17A1.37,1.37,0,0,0,49.59,72.5Zm-43.3-1-.13-.07-.22.39.11.06ZM18.81,36.6l.09,0,0-.33-.2.09ZM42.19,23.85h-.14c0,.15,0,.3,0,.45h.08C42.17,24.14,42.18,24,42.19,23.85ZM22.39,13.69l-.14.27c.05,0,.11.07.13,0a.25.25,0,0,0,.1-.15S22.44,13.77,22.39,13.69ZM6.49,68.34v0l-.31.11s0,.06,0,.09Zm5.38,6.09a1.41,1.41,0,0,0-.27-.12s-.06.07,0,.07a.69.69,0,0,0,.16.18ZM35.22,64c0-.06-.1-.14-.12-.13a.29.29,0,0,0-.16.12s.06.1.1.16ZM46.63,22.63c-.11-.12-.17-.21-.19-.2a1,1,0,0,0-.19.16.39.39,0,0,0,.11.06ZM36.33,1.06a1.56,1.56,0,0,0-.1.24s.05.07.07.1a.7.7,0,0,0,.14-.16S36.39,1.16,36.33,1.06ZM56.05,21.73l-.11.08.18.32s.11-.08.1-.09A3.07,3.07,0,0,0,56.05,21.73ZM65,9.89V9.76l-.3,0v.12ZM64.89,58.4c.07-.1.14-.15.14-.21s-.09-.09-.15-.13a.7.7,0,0,0-.08.2S64.84,58.34,64.89,58.4ZM66.17,8.63,66,8.44s-.12.1-.11.12a.4.4,0,0,0,.14.15S66.1,8.67,66.17,8.63ZM20.38,10.76l.05.11a2.24,2.24,0,0,0,.27-.13s0-.08,0-.12ZM66,7.23c0,.11-.06.16-.07.22s0,.06,0,.08a1,1,0,0,0,.12-.16S66,7.31,66,7.23ZM18.09,35.28,18,35.11c-.05.07-.12.12-.16.19s0,.08.06.11ZM58.8,30.86l-.1,0a1.52,1.52,0,0,0-.09.28s.09.05.14.07ZM39.6,23.38l.16,0,.05-.41-.1,0Zm8.79-10.14a1.23,1.23,0,0,0-.08.22s.06.08.07.08a.66.66,0,0,0,.15-.14ZM62.23,60.73c-.08.07-.14.1-.16.15s.06.11.09.11a.19.19,0,0,0,.13-.1S62.26,60.8,62.23,60.73Zm-7-47.23a.9.9,0,0,0,.08-.23s-.07-.09-.11-.14a.94.94,0,0,0-.12.22S55.13,13.43,55.21,13.5ZM25.4,4.8l.1.08c.06-.08.12-.15.18-.24l-.08-.08ZM61.9,63l-.11-.12s-.1.09-.09.12a.45.45,0,0,0,.11.17ZM33.3,3l-.21.15.14.17a1.39,1.39,0,0,0,.15-.19S33.33,3,33.3,3Zm29,59.82c-.08,0-.13-.11-.16-.1a.43.43,0,0,0-.16.14s0,.08.08.12Zm.51-1.3c-.06,0-.09-.07-.13-.07a.56.56,0,0,0-.12,0s.07.09.12.1S62.73,61.54,62.79,61.5ZM51.22,31.56c.1-.18.16-.24.14-.27a.66.66,0,0,0-.14-.15c0,.05-.11.09-.11.14S51.16,31.41,51.22,31.56ZM31.86,66.14c-.06.11-.11.17-.1.2a1,1,0,0,0,.13.16.27.27,0,0,0,.07-.14S31.91,66.25,31.86,66.14Zm3.83-53.61h.11l0-.42h-.09Zm26.14-.26a.84.84,0,0,0,.11-.19s0-.07,0-.1-.11,0-.13.07S61.8,12.14,61.83,12.27ZM25.23,24.63a2.83,2.83,0,0,0-.08.28s.07.05.11.07a1.16,1.16,0,0,0,0-.18S25.27,24.72,25.23,24.63ZM63.37,11.76c0-.09.07-.15.05-.18a.66.66,0,0,0-.14-.15s-.1.1-.09.13A1,1,0,0,0,63.37,11.76Zm-26.62-.63c-.15-.12-.19-.19-.23-.19s-.09.07-.14.11.1.11.16.13S36.65,11.16,36.75,11.13ZM22,4.65a.7.7,0,0,0,.08-.2s-.06-.09-.09-.13-.09.09-.1.14S22,4.55,22,4.65Zm3.41-.47c-.09-.07-.15-.14-.17-.13A1.94,1.94,0,0,0,25,4.2s.06.1.08.09Zm35.81,21.2c-.08.08-.14.12-.15.16a.21.21,0,0,0,.09.14.67.67,0,0,0,.18-.11Zm.36,14.92c-.09,0-.14-.12-.18-.11a.64.64,0,0,0-.17.13s.08.09.11.08S61.51,40.35,61.62,40.3ZM21.52,4.18a1,1,0,0,0-.12.24s0,.07.05.11a1.33,1.33,0,0,0,.14-.19S21.56,4.27,21.52,4.18ZM50.26,23c-.07.07-.12.1-.12.13a.48.48,0,0,0,.08.16ZM64.62,10.17l-.14.17.24.19.1-.11ZM42.06,30.58c.12.09.16.13.21.13s.09,0,.13,0a.32.32,0,0,0-.1-.1A1.1,1.1,0,0,0,42.06,30.58ZM64.31,53.05v.09h.34v-.09ZM34.46,66.64l-.07-.14-.28.15s0,.1.07.1ZM67,56.77a.82.82,0,0,0,.12-.21s0-.07-.06-.11-.09.06-.11.1S67,56.65,67,56.77Zm-10-1.18a1.67,1.67,0,0,0,.13-.2s-.07-.08-.08-.07a1.13,1.13,0,0,0-.18.12ZM58.77,5.53l0,.06L59,5.7l0-.06ZM14,74.67l-.14-.13s-.06.07-.06.11a.12.12,0,0,0,.08.09A.41.41,0,0,0,14,74.67ZM59.85,5.75c-.06,0-.11,0-.14,0a1.31,1.31,0,0,0-.11.12s.08.06.1,0A1.53,1.53,0,0,0,59.85,5.75ZM21.37,8.85c-.07,0-.11-.07-.13-.06a.31.31,0,0,0-.12.05s.05.08.06.08Zm1.23.21c-.08,0-.13-.05-.17,0s-.06.06-.09.09l.13.12Zm.93,1.73-.12,0v.33h.09Zm30.82,2.55c0-.05.1-.09.09-.11a.61.61,0,0,0-.1-.14s-.1.07-.09.1S54.3,13.28,54.35,13.34ZM21.09,36.82l0-.08s-.09,0-.13,0a1.31,1.31,0,0,0-.11.12Zm1.62-23.46h-.08c0,.05,0,.1,0,.13s.06.07.09.11ZM5.11,70.86c-.09,0-.14-.06-.18,0s-.08.08-.07.09A.21.21,0,0,0,5,71S5,70.94,5.11,70.86ZM19.68,18c-.05,0-.1-.08-.11-.07a.26.26,0,0,0-.09.12s.05.06.08.09ZM32.45,66.31a.51.51,0,0,0-.14,0s0,0-.06.07.07.06.11.07S32.41,66.36,32.45,66.31ZM17.18,22.89c-.11,0-.18,0-.18,0a.78.78,0,0,0,0,.22ZM40.6,31.16v0l-.31,0v.07ZM51,23.42s0-.06,0-.07,0,0-.08,0l0,.1Zm9.36.92a.72.72,0,0,0-.19,0s-.07.06-.06.08a.32.32,0,0,0,.08.14ZM4.5,64.37l.11-.09L4.37,64l-.1.08ZM17,28.84h0v-.31h0ZM4.78,63.73s-.1-.09-.11-.08-.09.07-.09.11,0,.07.07.11Zm-1.44.9-.06.1.33.13,0-.09Zm64-8.36-.12-.08s-.06,0-.06.05,0,.09,0,.09S67.23,56.3,67.29,56.27ZM38.81,24.49l-.11-.16s-.08.05-.07.06a.19.19,0,0,0,0,.11S38.74,24.5,38.81,24.49ZM5.09,65.62a1.09,1.09,0,0,0,.15-.18l-.1-.1a.75.75,0,0,0-.13.18S5.05,65.57,5.09,65.62Zm.77-2.4-.1-.09a.35.35,0,0,0,0,.13s0,.05.09.07Zm2-.62L8,62.49a.64.64,0,0,1,0-.07.45.45,0,0,0-.13.1S7.88,62.58,7.88,62.6ZM18.61,22.44l0-.14-.14.07a.36.36,0,0,0,.07.1S18.57,22.45,18.61,22.44Zm37.21-.32L55.73,22s-.1,0-.1.05a.41.41,0,0,0,.07.15S55.76,22.15,55.82,22.12ZM18.25,17.25c.05,0,.07.07.1.08s.06,0,.06,0a.54.54,0,0,0,0-.1ZM3.1,68.62c-.06-.06-.1-.11-.12-.1s-.09.06-.13.09,0,.06.07.06A1,1,0,0,0,3.1,68.62ZM19.86,17.23a1,1,0,0,0-.15-.1s-.06,0-.09.05.07.09.11.11S19.81,17.26,19.86,17.23ZM22,15.51l-.15-.14s-.1.07-.09.1a.14.14,0,0,0,.09.12S21.93,15.55,22,15.51Zm-1.44-1s-.09-.07-.11-.06a.2.2,0,0,0-.07.09s.05.07.07.06S20.51,14.51,20.56,14.47ZM17.9,61.63c0,.06.06.12.08.12a.46.46,0,0,0,.13-.08s0-.09-.05-.09A.71.71,0,0,0,17.9,61.63ZM21.09,36.3c0,.05-.07.09-.06.11a.35.35,0,0,0,.08.13s.08,0,.08-.07A1.19,1.19,0,0,0,21.09,36.3Zm38.67,0c-.06,0-.1-.07-.14-.07s0,.06-.07.09.07.06.11.06S59.72,36.36,59.76,36.32Zm4.21.26a.71.71,0,0,0-.09.17s0,0,.07.08a.69.69,0,0,0,.11-.13S64,36.64,64,36.58ZM23.74,12l-.14-.15-.1.09a.53.53,0,0,0,.12.1S23.68,12,23.74,12Zm-2.25-.6c.06-.06.12-.09.13-.13s0-.09-.07-.13a.86.86,0,0,0-.13.14S21.45,11.29,21.49,11.35ZM69.91,40.79c-.06,0-.09,0-.12,0s-.06,0-.05.06.05.06.07.09ZM21.34,6.48l-.08-.1-.07.07.09.07S21.32,6.5,21.34,6.48ZM12.39,73.67l0,.08a.26.26,0,0,0,.15,0s.06-.06.09-.09a1,1,0,0,0-.17,0S12.43,73.66,12.39,73.67ZM20.15,6.13A1,1,0,0,0,20,6.06l-.06.05.11.12ZM13.5,74.38c-.05,0-.1-.06-.11,0a.77.77,0,0,0-.1.18s.05,0,.07.07ZM7.27,58.92l-.06-.08L7,59l.06.07Zm6,15.77c-.07,0-.11-.1-.15-.11a.16.16,0,0,0-.08.08.42.42,0,0,0,.09.14Zm2.15.32-.05-.07-.11.12s0,0,0,.08ZM60.92,5.72l.15-.06a.31.31,0,0,0-.1-.12s-.1,0-.1,0A.43.43,0,0,0,60.92,5.72Zm-.8,35.63c-.06,0-.1,0-.13,0s0,.06-.07.09.07.06.1.05S60.07,41.4,60.12,41.35ZM64.94,5.12S64.85,5,64.83,5a1.1,1.1,0,0,0-.14.09s0,.08.07.08A1,1,0,0,0,64.94,5.12ZM59.76,48.94s-.08.08-.07.1a.19.19,0,0,0,.1.1s.05,0,.08,0ZM26.44,3.21a.48.48,0,0,0-.11-.08s-.06,0,0,.06a.3.3,0,0,0,.07.1ZM33,3.09C33,3,32.93,3,32.9,3a.24.24,0,0,0-.1,0,.73.73,0,0,0,.08.09S32.94,3.11,33,3.09ZM56.86,55.93a.35.35,0,0,0,.09-.11s0-.07,0-.07-.09,0-.09,0A.82.82,0,0,0,56.86,55.93Z" transform="translate(-0.24 -0.09)"/><path d="M18.79,14.19,18.3,15l-.13,0,0-.61-.1,0L18,15.53a2.37,2.37,0,0,1,.69-2.43v.48h.15l-.1-.51a.42.42,0,0,1,.15,0l.48.06h0c.24,0,.37.06.15.32a3.55,3.55,0,0,0-.2.39,3.15,3.15,0,0,1-.31.41Z" transform="translate(-0.24 -0.09)"/><path d="M1.86,64.72a1.73,1.73,0,0,1-.43.12A2.64,2.64,0,0,1,1,64.71a3.14,3.14,0,0,1,.25-.44c.23-.29.17-.11.1.07.08,0,.21,0,.24,0,.21-.25.4-.52.61-.77.07-.09.23-.22.29-.2a4.56,4.56,0,0,1,.59.38,1,1,0,0,1-.25.2c-.24.09-.39.44-.73.25l-.22.53Z" transform="translate(-0.24 -0.09)"/><path d="M16.36,15.82a6.89,6.89,0,0,1,0-.91.58.58,0,0,1,.4-.57c.17-.05.29-.3.42-.47s0-.11.07-.17l.26.18c-.18.23-.32.54-.55.66s-.61.67-.42.92a.23.23,0,0,0,.23,0,4.47,4.47,0,0,0,.32-.41l.22-.26c0,.11,0,.21,0,.32,0,.34-.07.58-.52.51C16.66,15.61,16.47,15.77,16.36,15.82Z" transform="translate(-0.24 -0.09)"/><path d="M64.1,27.75l.09-.25c.11-.24.11-.41-.22-.4a1.36,1.36,0,0,1-.29-.06.91.91,0,0,0,.17-.23,4,4,0,0,0,.15-.46l.54.38c.15.11.24.53.51.11a1.41,1.41,0,0,1,.15.06,3.58,3.58,0,0,0-.25.42c-.06.12,0,.4-.3.17-.08-.06-.37.16-.56.25Z" transform="translate(-0.24 -0.09)"/><path d="M67.57,5.33c-.5-.26-.48-.31,0-.67.28-.2.49-.45.76,0h.11l.23.15c-.25.17-.24.45-.28.71-.08,0-.21,0-.23-.08-.17-.37-.37-.3-.6-.08Zm.58-.58a1,1,0,0,0-.09.18s0,0,.08.06a.53.53,0,0,0,.06-.1S68.18,4.82,68.15,4.75Z" transform="translate(-0.24 -0.09)"/><path d="M67.34,11.56c.16-.54.14-.56-.45-.52l-.06,0s.11-.16.15-.15c.72.16.56-.37.6-.74,0,0,0-.12,0-.12s.16,0,.16,0a3.11,3.11,0,0,1,.17.94c0,.21-.22.42-.37.62,0,0-.16,0-.24,0Z" transform="translate(-0.24 -0.09)"/><path d="M2.37,67.7c-.14.2-.27.42-.43.61a.23.23,0,0,1-.24,0c-.08-.09-.17-.24-.14-.31.13-.3.33-.57-.08-.84,0,0,.11-.35.17-.53l.14,0a.84.84,0,0,0,0,.27c0,.23,0,.53.38.48.06,0,.14.18.21.28Z" transform="translate(-0.24 -0.09)"/><path d="M69.37,34.52c-.12-.21-.23-.42-.34-.63a1.41,1.41,0,0,1-.18-.29c0-.08-.06-.22,0-.27a2.86,2.86,0,0,1,.4-.28l.06.09c0,.1-.05.2-.08.3s0,.17,0,.28h.15l.44-.14c-.07.23-.14.46-.22.68a1.53,1.53,0,0,1-.17.27Z" transform="translate(-0.24 -0.09)"/><path d="M63.12,26.75l-.29-1.13c.26.33.47.3,1-.11Z" transform="translate(-0.24 -0.09)"/><path d="M69.36,34.52c.34-.06.48.1.48.43s0,.46,0,.69h-.14l.07-.37-.39.2c0-.17,0-.34,0-.51s0-.3,0-.45Z" transform="translate(-0.24 -0.09)"/><path d="M8.1,59.27c0-.22-.12-.52,0-.64.28-.34.56-.22.77.15-.18.2-.73-.07-.61.52Z" transform="translate(-0.24 -0.09)"/><path d="M57.41,36.83l-.08-.55a2.18,2.18,0,0,1,.47-.09,1,1,0,0,1,.35.12c-.06.07-.1.17-.18.22A5.09,5.09,0,0,1,57.41,36.83Z" transform="translate(-0.24 -0.09)"/><path d="M18.11,8c.19-.09.35-.18.52-.24s.15.06.22.1c-.1.09,0,.45-.3.28a.87.87,0,0,0-.07.3,1.14,1.14,0,0,0,.13.3c-.09-.06-.23-.09-.28-.17A3.42,3.42,0,0,1,18.11,8Z" transform="translate(-0.24 -0.09)"/><path d="M17.15,17.41c-.26.1-.5.21-.74.28-.06,0-.23-.13-.22-.15a3.11,3.11,0,0,1,.25-.38s.11.07.18.1Z" transform="translate(-0.24 -0.09)"/><path d="M3.22,69.65a2.26,2.26,0,0,0-.35.17l-.5.31c-.25-.27.13-.53.12-.82l.26.11.47.23Z" transform="translate(-0.24 -0.09)"/><path d="M46.69,30.83a1.41,1.41,0,0,0,.22.06l.42.06c0,.06-.07.15-.13.18s-.4.18-.6.27c0-.19.06-.38.1-.56Z" transform="translate(-0.24 -0.09)"/><path d="M3.46,60.53l.46-.5c0-.05.12-.05.16-.09l.19-.24c0,.13-.08.26-.14.38s-.23.38-.35.56l-.15.17Z" transform="translate(-0.24 -0.09)"/><path d="M56.65,33.31l.28.69.21-.2-.73-.14c0,.05,0,.06,0,.08s.07.29.11.44l-.19-.07c.07-.19-.34-.42,0-.6a2.75,2.75,0,0,0,.28-.19Z" transform="translate(-0.24 -0.09)"/><path d="M.75,65.69l.18-.23c.15.16.32.33.46.51,0,0-.16.15-.24.24Z" transform="translate(-0.24 -0.09)"/><path d="M17.37,37.29c.15.12.85-.26.38.45-.06.09.07.3,0,.49Z" transform="translate(-0.24 -0.09)"/><path d="M18.71,10.67c.05-.22.1-.45.16-.67a1.06,1.06,0,0,1,.19,0c0,.23-.06.45-.1.67Z" transform="translate(-0.24 -0.09)"/><path d="M16.7,13.12c.16.13.18.76,0,.84s-.16,0-.16,0a.73.73,0,0,1-.06-.38,2.86,2.86,0,0,1,.2-.48Z" transform="translate(-0.24 -0.09)"/><path d="M9.61,73.34c0,.13,0,.25,0,.38a.38.38,0,0,0,.05.22.49.49,0,0,0,.2.11l-.32.22a1.3,1.3,0,0,0-.1-.25c-.16-.28.07-.46.17-.67Z" transform="translate(-0.24 -0.09)"/><path d="M48.56,31.07l-.77.4s-.11,0-.12-.09a.54.54,0,0,1,0-.18c.31.07.55-.42.9-.12Z" transform="translate(-0.24 -0.09)"/><path d="M57.23,35.91c0-.07,0-.18,0-.21a3,3,0,0,1,.41-.29c0,.11,0,.27,0,.33s-.12.43-.39.17Z" transform="translate(-0.24 -0.09)"/><path d="M52.07,32.57l.17.84a2.12,2.12,0,0,1-.41-.45c0-.1.1-.27.16-.41Z" transform="translate(-0.24 -0.09)"/><path d="M53.12,33.52a2.57,2.57,0,0,0-.28,0c-.41.07-.11-.34-.28-.43.08,0,.19-.05.22,0S53,33.35,53.12,33.52Z" transform="translate(-0.24 -0.09)"/><path d="M21.47,76.58l.19,0-.07.53-.33,0Z" transform="translate(-0.24 -0.09)"/><path d="M67.76,8.91c0,.19.09.43,0,.55s-.38.16-.26-.19c0-.12.06-.23.1-.35Z" transform="translate(-0.24 -0.09)"/><path d="M6.06,58.18c0-.06,0-.14.05-.17a3.21,3.21,0,0,1,.3-.21c0,.1.1.23.07.3s-.18.13-.28.17-.1-.06-.15-.1Z" transform="translate(-0.24 -0.09)"/><path d="M16.81,34.53l.12.74c-.5-.14-.36-.43-.25-.72Z" transform="translate(-0.24 -0.09)"/><path d="M.61,66.06c-.12-.21-.26-.43-.37-.65,0,0,.09-.13.14-.14s.13.08.15.13.11.39.16.59Z" transform="translate(-0.24 -0.09)"/><path d="M19.73,39.17c.13.13.26.22.25.27a.39.39,0,0,1-.21.24s-.21-.11-.21-.17S19.65,39.32,19.73,39.17Z" transform="translate(-0.24 -0.09)"/><path d="M57.77,33.31c0,.16,0,.33-.05.49s-.07.1-.11.15-.13-.12-.12-.16a4.56,4.56,0,0,1,.18-.52Z" transform="translate(-0.24 -0.09)"/><path d="M67.34,11.56h0a1.51,1.51,0,0,1-.28.15.83.83,0,0,1-.22,0v-.41l.23.07C67.16,11.45,67.25,11.51,67.34,11.56Z" transform="translate(-0.24 -0.09)"/><path d="M34.13,12.54c.08.13.16.2.14.25a.39.39,0,0,1-.16.26s-.16-.09-.25-.14Z" transform="translate(-0.24 -0.09)"/><path d="M69.2,5.32l-.26-.6.18-.08.24.61Z" transform="translate(-0.24 -0.09)"/><path d="M5,60.88l-.41.3c0-.06-.11-.15-.09-.17s.21-.22.31-.33Z" transform="translate(-0.24 -0.09)"/><path d="M16.71,16.18l-.23.34c-.05-.07-.16-.16-.14-.22a1.4,1.4,0,0,1,.2-.32Z" transform="translate(-0.24 -0.09)"/><path d="M69.08,32.74c0-.46.31-.06.43-.18a.74.74,0,0,1,0,.24c0,.06-.09.11-.13.16s-.08-.11-.13-.14a2,2,0,0,0-.22-.09Z" transform="translate(-0.24 -0.09)"/><path d="M16.71,13.1c-.05-.09-.15-.18-.16-.28a1.66,1.66,0,0,1,.15-.74v1Z" transform="translate(-0.24 -0.09)"/><path d="M66.89,29.34l.1-.19c.09,0,.26,0,.26.06a1.76,1.76,0,0,1-.06.39Z" transform="translate(-0.24 -0.09)"/><path d="M3.65,71.73a1.39,1.39,0,0,1-.06-.4.72.72,0,0,1,.16-.28,1.22,1.22,0,0,0,0,.27c0,.12,0,.25,0,.37Z" transform="translate(-0.24 -0.09)"/><path d="M16.33,17.85a1.84,1.84,0,0,1,.19.22l-.32.43s-.11-.09-.11-.11S16.22,18.09,16.33,17.85Z" transform="translate(-0.24 -0.09)"/><path d="M38.73,30.86c.11.11.26.21.3.34s-.15.2-.25.31c0-.26,0-.45-.05-.65Z" transform="translate(-0.24 -0.09)"/><path d="M53.53,33.81a.74.74,0,0,1,.21.07.9.9,0,0,1,.18.16,1.7,1.7,0,0,1-.22,0l-.22,0-.14-.07.2-.11Z" transform="translate(-0.24 -0.09)"/><path d="M45.87,30.64l-.25.35-.11-.22.37-.12Z" transform="translate(-0.24 -0.09)"/><path d="M6,73.07c0-.13-.09-.26-.13-.4A.58.58,0,0,1,6,72.6l.14.42Z" transform="translate(-0.24 -0.09)"/><path d="M50.65,32.24l-.34.26s-.06-.12,0-.17a1.74,1.74,0,0,1,.15-.26Z" transform="translate(-0.24 -0.09)"/><path d="M56.52,33.11v0l-.43.2C56.23,32.94,56.23,32.94,56.52,33.11Z" transform="translate(-0.24 -0.09)"/><path d="M67.56,5.33l.31.27-.34.08c0-.12,0-.24,0-.35Z" transform="translate(-0.24 -0.09)"/><path d="M7.81,73.19l0,.51-.24-.09.21-.42Z" transform="translate(-0.24 -0.09)"/><path d="M34.31,11.77c-.1-.13-.21-.22-.2-.28s.13-.15.2-.22a1.1,1.1,0,0,1,.14.26C34.46,11.58,34.38,11.65,34.31,11.77Z" transform="translate(-0.24 -0.09)"/><path d="M6.69,72.83v.5h-.1l0-.5Z" transform="translate(-0.24 -0.09)"/><path d="M67.85,6.43c.07.11.15.19.14.25s-.11.12-.16.18a.63.63,0,0,1-.13-.24S67.78,6.52,67.85,6.43Z" transform="translate(-0.24 -0.09)"/><path d="M20.83,4.65,20.54,5s-.1-.12-.09-.14a2.52,2.52,0,0,1,.24-.33Z" transform="translate(-0.24 -0.09)"/><path d="M68.89,32.68c-.07,0-.16,0-.21-.07a.29.29,0,0,1-.09-.21s.1-.09.16-.13a.78.78,0,0,1,.11.2.79.79,0,0,1,0,.22Z" transform="translate(-0.24 -0.09)"/><path d="M63.6,24.79c-.12.07-.18.14-.25.14s-.12-.05-.18-.09.09-.16.16-.19S63.47,24.72,63.6,24.79Z" transform="translate(-0.24 -0.09)"/><path d="M2.49,67.57c.11-.08.17-.16.24-.17s.14.09.14.14a.2.2,0,0,1-.13.16C2.67,67.7,2.6,67.63,2.49,67.57Z" transform="translate(-0.24 -0.09)"/><path d="M19.22,7.23,19,7.38s-.1-.09-.09-.11A1.31,1.31,0,0,1,19.06,7Z" transform="translate(-0.24 -0.09)"/><path d="M4.67,59.14,5,59.07l-.22.52Z" transform="translate(-0.24 -0.09)"/><path d="M23.84,38.05a.76.76,0,0,1-.25.06.2.2,0,0,1-.1-.17c0-.07.05-.17.1-.18s.16,0,.24.06Z" transform="translate(-0.24 -0.09)"/><path d="M56.53,36.12l0,.6h-.12l.08-.6Z" transform="translate(-0.24 -0.09)"/><path d="M43,75l.38.16s-.07.09-.09.09L43,75.13Z" transform="translate(-0.24 -0.09)"/><path d="M39.41,75.91l.38-.33a.22.22,0,0,1,.11,0c0,.06,0,.16,0,.16A4.19,4.19,0,0,1,39.41,75.91Z" transform="translate(-0.24 -0.09)"/><path d="M36.06,63.46l-.26.22c0-.06-.09-.12-.09-.17s.06-.16.1-.16A.63.63,0,0,1,36.06,63.46Z" transform="translate(-0.24 -0.09)"/><path d="M4.44,61.3c-.11.05-.16.09-.18.08A1.28,1.28,0,0,1,4,61.24s.07-.13.08-.12Z" transform="translate(-0.24 -0.09)"/><path d="M16.87,10.93l-.19.17L16.56,11a.57.57,0,0,1,.16-.11S16.79,10.89,16.87,10.93Z" transform="translate(-0.24 -0.09)"/><path d="M15.55,33.27v.53h-.08v-.53Z" transform="translate(-0.24 -0.09)"/><path d="M49.35,31.4l.47-.24,0-.05-.37.37Z" transform="translate(-0.24 -0.09)"/><path d="M19.18,12.06l-.05.33c-.05-.05-.15-.1-.14-.14s.08-.14.13-.22Z" transform="translate(-0.24 -0.09)"/><path d="M3.31,63.11l.2-.23.08.1-.22.18Z" transform="translate(-0.24 -0.09)"/><path d="M57.33,34.52l.36-.29.07.11-.38.26Z" transform="translate(-0.24 -0.09)"/><path d="M40.22,75.79c-.07-.09-.12-.14-.11-.16a.46.46,0,0,1,.13-.18s.12.06.11.07A1.52,1.52,0,0,1,40.22,75.79Z" transform="translate(-0.24 -0.09)"/><path d="M48.57,31.08l.24-.21,0,.27-.22-.07Z" transform="translate(-0.24 -0.09)"/><path d="M18.45,11.58l-.06-.39.11,0,.1.39Z" transform="translate(-0.24 -0.09)"/><path d="M17.31,11c-.07.12-.14.24-.22.35s-.07,0-.11,0l.21-.36Z" transform="translate(-0.24 -0.09)"/><path d="M68.44,4.63h-.11l.15-.39.11,0Z" transform="translate(-0.24 -0.09)"/><path d="M6.89,58.17l.2-.4.11,0L7,58.24Z" transform="translate(-0.24 -0.09)"/><path d="M34.86,13.45l.25-.23.1.09-.2.28Z" transform="translate(-0.24 -0.09)"/><path d="M65.32,28l-.31.23-.08-.11.31-.22Z" transform="translate(-0.24 -0.09)"/><path d="M64.58,25.75c0,.11-.09.22-.14.32s-.06,0-.09,0l.1-.34Z" transform="translate(-0.24 -0.09)"/><path d="M29.36,12.2l.1-.32.12,0a2.84,2.84,0,0,1-.06.31Z" transform="translate(-0.24 -0.09)"/><path d="M60.5,12.79l-.14.37s-.11-.06-.1-.07a3.84,3.84,0,0,1,.14-.36Z" transform="translate(-0.24 -0.09)"/><path d="M26.73,36.34c-.37.29-.37.29-.47.1h0l.48-.1Z" transform="translate(-0.24 -0.09)"/><path d="M19.75,77l-.36-.14,0-.11.37.13Z" transform="translate(-0.24 -0.09)"/><path d="M57.22,35.91l-.24.31c-.06-.28-.06-.28.25-.31Z" transform="translate(-0.24 -0.09)"/><path d="M58.35,35.55l.12,0,.23,0,0,.13-.27,0s-.06-.07-.09-.1Z" transform="translate(-0.24 -0.09)"/><path d="M3.59,70.68l-.16-.35s.08,0,.09,0l.21.31Z" transform="translate(-0.24 -0.09)"/><path d="M16.4,34.71a1.22,1.22,0,0,1-.18.16s-.11-.08-.1-.1a.48.48,0,0,1,.12-.17S16.33,34.66,16.4,34.71Z" transform="translate(-0.24 -0.09)"/><path d="M20.38,4.47l-.14.15a.9.9,0,0,1-.15-.19s.05-.09.08-.13Z" transform="translate(-0.24 -0.09)"/><path d="M69.08,32.73l-.33.37h0l.18-.41h0l.21.05Z" transform="translate(-0.24 -0.09)"/><path d="M22.71,77.2l.36-.19,0,.07-.36.2Z" transform="translate(-0.24 -0.09)"/><path d="M9.34,59.19c-.11.05-.17.11-.21.09A.26.26,0,0,1,9,59.13S9.07,59,9.1,59,9.2,59.09,9.34,59.19Z" transform="translate(-0.24 -0.09)"/><path d="M2.22,70.35a1.75,1.75,0,0,1-.24.14s-.06,0-.09-.06l.18-.19Z" transform="translate(-0.24 -0.09)"/><path d="M70,39.28l.06-.4.15,0-.21.35Z" transform="translate(-0.24 -0.09)"/><path d="M21.94,38.87l-.28.06s0-.07-.05-.11l.3-.07Z" transform="translate(-0.24 -0.09)"/><path d="M22.05,3.18V2.94l.2.05Z" transform="translate(-0.24 -0.09)"/><path d="M20.83,77.16l-.11-.31.11,0,.11.31Z" transform="translate(-0.24 -0.09)"/><path d="M1.25,65.09l.15.16s-.08.06-.1,0a.44.44,0,0,1-.14-.13Z" transform="translate(-0.24 -0.09)"/><path d="M11.52,75.15l-.12.11a1.22,1.22,0,0,1-.15-.17s.07-.07.08-.06Z" transform="translate(-0.24 -0.09)"/><path d="M61.1,12.9a.89.89,0,0,1,.1.19s-.08.09-.1.08a.2.2,0,0,1-.1-.12S61.05,13,61.1,12.9Z" transform="translate(-0.24 -0.09)"/><path d="M4.18,71.45v.33H4.07l0-.32Z" transform="translate(-0.24 -0.09)"/><path d="M70.07,36.13l0,.32h0l0-.33Z" transform="translate(-0.24 -0.09)"/><path d="M68.43,8.17c-.06.07-.08.12-.11.12l-.16,0s0-.09.08-.1S68.34,8.16,68.43,8.17Z" transform="translate(-0.24 -0.09)"/><path d="M62.88,12.54l-.27.17,0,0,.23-.25Z" transform="translate(-0.24 -0.09)"/><path d="M57,13.53c0,.17,0,.17-.32.2l.33-.19Z" transform="translate(-0.24 -0.09)"/><path d="M18.79,14.19l.18,0,.18.18h0Z" transform="translate(-0.24 -0.09)"/><path d="M66.39,11.78l-.12-.07a1.54,1.54,0,0,1,.19-.17l.08.07Z" transform="translate(-0.24 -0.09)"/><path d="M19.37,10.9l-.15.17s-.07-.08-.06-.1a.57.57,0,0,1,.11-.16Z" transform="translate(-0.24 -0.09)"/><path d="M69.38,32.25c-.08,0-.12.1-.16.1s-.08-.06-.12-.09a.45.45,0,0,1,.13-.11S69.3,32.2,69.38,32.25Z" transform="translate(-0.24 -0.09)"/><path d="M53.54,33.82l-.34-.23.45.12-.12.1Z" transform="translate(-0.24 -0.09)"/><path d="M1.83,69.36l-.17.09s0-.08,0-.11.08-.1.12-.16Z" transform="translate(-0.24 -0.09)"/><path d="M7.18,73.56a1,1,0,0,1-.06-.16c0-.05,0-.09,0-.14s.12.06.14.1,0,.1,0,.14Z" transform="translate(-0.24 -0.09)"/><path d="M58.81,40.86l-.08.28-.06,0,.15-.23Z" transform="translate(-0.24 -0.09)"/><path d="M18.61,10.47l-.16.13-.06-.1c.05-.06.11-.1.16-.15Z" transform="translate(-0.24 -0.09)"/><path d="M18.41,8.92V9.2a1.19,1.19,0,0,1-.09-.15s0-.08,0-.12Z" transform="translate(-0.24 -0.09)"/><path d="M22.25,2.33,22,2.6l-.08-.14.36-.11Z" transform="translate(-0.24 -0.09)"/><path d="M69.34,5.71l-.07.12-.15-.13s.06-.08.09-.08A.44.44,0,0,1,69.34,5.71Z" transform="translate(-0.24 -0.09)"/><path d="M19.14,8.93l0,.27H19l.05-.27Z" transform="translate(-0.24 -0.09)"/><path d="M3.43,62.36c-.07-.07-.15-.11-.14-.14s.07-.09.1-.14.11.07.13.12S3.47,62.28,3.43,62.36Z" transform="translate(-0.24 -0.09)"/><path d="M15.89,21.15l-.2.12s-.07-.06-.06-.08a.38.38,0,0,1,.09-.15S15.82,21.1,15.89,21.15Z" transform="translate(-0.24 -0.09)"/><path d="M54.62,57.23l0-.39.14,0-.11.37Z" transform="translate(-0.24 -0.09)"/><path d="M22.66,76.79c0,.08.06.11.05.14a.35.35,0,0,1-.08.13s-.08-.07-.08-.09S22.61,76.88,22.66,76.79Z" transform="translate(-0.24 -0.09)"/><path d="M16.2,76.74,16,76.63h.26Z" transform="translate(-0.24 -0.09)"/><path d="M18.75,76.48l.13-.3a.39.39,0,0,1,0,.15S18.85,76.39,18.75,76.48Z" transform="translate(-0.24 -0.09)"/><path d="M22,39.22l-.17.24s0-.07,0-.08l.21-.15Z" transform="translate(-0.24 -0.09)"/><path d="M18.08,38.68l-.13.13s-.08-.08-.08-.1a.24.24,0,0,1,.1-.1S18,38.64,18.08,38.68Z" transform="translate(-0.24 -0.09)"/><path d="M62.41,13s-.07.09-.1.09-.06,0-.09-.08.05-.07.07-.07A.33.33,0,0,1,62.41,13Z" transform="translate(-0.24 -0.09)"/><path d="M3.16,71.2,3,71.41l0,0,.1-.23Z" transform="translate(-0.24 -0.09)"/><path d="M58.6,13.53a.82.82,0,0,1,0-.25s0-.06.08-.09a.77.77,0,0,1,0,.15A1,1,0,0,1,58.6,13.53Z" transform="translate(-0.24 -0.09)"/><path d="M56.45,21l0,.29H56.4l0-.29Z" transform="translate(-0.24 -0.09)"/><path d="M51.58,32.69l-.26.09,0-.09.26-.07Z" transform="translate(-0.24 -0.09)"/><path d="M49.33,31.52l-.31.12,0-.09.35,0Z" transform="translate(-0.24 -0.09)"/><path d="M49.33,31.52h0V31.4l.07.08-.13.24Z" transform="translate(-0.24 -0.09)"/><path d="M43.19,31l0,.28h-.06l0-.28Z" transform="translate(-0.24 -0.09)"/><path d="M1.85,64.74l.3.16L2.06,65l-.19-.29Z" transform="translate(-0.24 -0.09)"/><path d="M65.92,27.36l0-.27h.06l.08.26Z" transform="translate(-0.24 -0.09)"/><path d="M64.33,26.46l-.1-.16s.09-.05.12,0a.31.31,0,0,1,.1.12Z" transform="translate(-0.24 -0.09)"/><path d="M34.29,32.43l.09-.39Z" transform="translate(-0.24 -0.09)"/><path d="M51.28,33.09c-.06,0-.11.06-.13,0s-.06-.08-.1-.12l.13,0S51.23,33,51.28,33.09Z" transform="translate(-0.24 -0.09)"/><path d="M25.26,19.54l.11,0a.81.81,0,0,1-.12.14s-.05,0-.08,0Z" transform="translate(-0.24 -0.09)"/><path d="M16.14,19.13l-.1-.32h.09v.33Z" transform="translate(-0.24 -0.09)"/><path d="M56.93,34.15l.2-.12s0,.06,0,.07l-.17.11Z" transform="translate(-0.24 -0.09)"/><path d="M56,70.3l.07-.1s0,0,0,0,0,.09,0,.13Z" transform="translate(-0.24 -0.09)"/><path d="M60.05,13.49s0,0-.07,0,0,0,0-.06l.08-.05Z" transform="translate(-0.24 -0.09)"/><path d="M57,13.54l-.15-.14h.22l-.08.13Z" transform="translate(-0.24 -0.09)"/><path d="M57.56,37.25l.08-.19s.06.09.06.13-.05.07-.08.1Z" transform="translate(-0.24 -0.09)"/><path d="M18.27,12.9c.05.06.09.09.1.13a.24.24,0,0,1-.05.1s-.07-.05-.08-.08S18.26,13,18.27,12.9Z" transform="translate(-0.24 -0.09)"/><path d="M64.27,12.9c0-.07-.07-.11-.07-.14a.3.3,0,0,1,.07-.1s.08,0,.08.05A1.13,1.13,0,0,1,64.27,12.9Z" transform="translate(-0.24 -0.09)"/><path d="M28.2,12.76l-.09.07s-.05-.08,0-.09a.39.39,0,0,1,.11-.06Z" transform="translate(-0.24 -0.09)"/><path d="M16.72,11.65l0,.11,0-.12s0-.06,0-.08Z" transform="translate(-0.24 -0.09)"/><path d="M52.43,72.44l-.08,0,.07-.07s0,0,.08,0Z" transform="translate(-0.24 -0.09)"/><path d="M4.8,72.57l.11.08s-.06.06-.09.06a.6.6,0,0,1-.11-.06Z" transform="translate(-0.24 -0.09)"/><path d="M67.27,10.43c0,.06.07.1.06.13s-.06,0-.09.06a.13.13,0,0,1,0-.07A.4.4,0,0,1,67.27,10.43Z" transform="translate(-0.24 -0.09)"/><path d="M50,73.18s0,.09-.06.08a.36.36,0,0,1-.11,0s0-.06,0-.06Z" transform="translate(-0.24 -0.09)"/><path d="M67.43,6.69l-.14.11s-.05,0,0-.06a.64.64,0,0,1,.08-.14Z" transform="translate(-0.24 -0.09)"/><path d="M58.82,40.87l.21-.08,0,.12-.24,0Z" transform="translate(-0.24 -0.09)"/><path d="M66.62,5.53l.07.18s-.08,0-.09,0a.13.13,0,0,1-.06-.1S66.57,5.59,66.62,5.53Z" transform="translate(-0.24 -0.09)"/><path d="M13.55,75.53l-.07.07a.11.11,0,0,1,0-.08s0-.07,0-.11Z" transform="translate(-0.24 -0.09)"/><path d="M23.47,76.94l-.15.11s-.06-.06-.07-.09a.31.31,0,0,1,.05-.12Z" transform="translate(-0.24 -0.09)"/><path d="M21.67,2.15a1.89,1.89,0,0,1,.06.21.16.16,0,0,1-.1,0,.24.24,0,0,1-.1,0Z" transform="translate(-0.24 -0.09)"/><path d="M25.43,76.94a.6.6,0,0,1,.05.14.11.11,0,0,1-.09.07.32.32,0,0,1-.13,0Z" transform="translate(-0.24 -0.09)"/><path d="M22.19,77.29l-.11.07a.19.19,0,0,1-.08,0l.09-.08S22.14,77.27,22.19,77.29Z" transform="translate(-0.24 -0.09)"/><path d="M60.05,38.3l.23.08-.08.1-.13-.19Z" transform="translate(-0.24 -0.09)"/><path d="M36.16,3.45c.26.08.49.2.47.53a3.69,3.69,0,0,0-.42-.17c-.13,0-.27,0-.41-.06Z" transform="translate(-0.24 -0.09)"/><path d="M17,25.87l-.08.08-.1-.13.11-.07Z" transform="translate(-0.24 -0.09)"/></g></g></svg>