<svg xmlns="http://www.w3.org/2000/svg" viewBox="0 0 65.09 69.03"><title>xxiv-eight-normal</title><g id="Layer_2" data-name="Layer 2"><g id="Layer_3" data-name="Layer 3"><path d="M26.53.09h.18c.05.09.08.22.16.26.3.15.69-.12,1,.18,0,0,.09,0,.1-.05.15-.3.39-.15.59-.12L30,.65c.21,0,.6.1.61.16,0,.38.37.33.51.33.39,0,.43.26.5.52s.11.36.15.54a.39.39,0,0,0,.54.34.46.46,0,0,1,.35.11c0,.54.38.31.68.36-.06-.11-.12-.18-.11-.23,0-.24.07-.48.1-.71a2.21,2.21,0,0,1,.46.1c.31.12.59.32,1,.13.12-.06.35.1.52.18a2,2,0,0,1,.39.25c-.05.06-.17.16-.19.28a1.13,1.13,0,0,0,.12.4c.29-.25.35.09.5.23l.25-.83.28.53L36.89,3a.9.9,0,0,1,.1.49v.28a.91.91,0,0,0,.3-.13c.06-.07.06-.2.08-.27.29,0-.1.56.41.37.11,0,.3.12.48.2l-.15.71.14,0c0-.14,0-.28.09-.42s0-.18.07-.22a.3.3,0,0,1,.2,0c0,.22.43.45,0,.66,0,0,0,.1,0,.15l.13,0a1.66,1.66,0,0,1,.22,0c.11.52.29.62.81.44a1.63,1.63,0,0,0,0,.38c0,.08.1.21.15.21.31,0,.46.09.29.42a.51.51,0,0,0,.16.71,2,2,0,0,1,0-.56,3.31,3.31,0,0,1,.32-.59l.23.07s.11.06.11.09,0,.1-.06.15l-.55.74A2.49,2.49,0,0,1,41,6.77a.42.42,0,0,1,.29.2c.06.16,0,.38.08.52s.28.13.39.22.11.46.48.31c.1,0,.3.24.53,0,.06-.07.3,0,.46.05a.7.7,0,0,0-.14.21.32.32,0,0,0,0,.23c.08.12.26.22.29.35.07.37.24.53.73.37l-.41.64a2.74,2.74,0,0,0,.58-.41.25.25,0,0,1,.17-.07s.1.12.08.15c-.1.23-.21.45-.32.67v.11L44,10.22l0,.26.27,0,.07.17.14.15.14-.33h0c.18.21.24-.06.35-.1h0c0,.23.24.55-.25.62-.05,0-.07.29-.1.45.14-.06.28-.11.41-.18a1.12,1.12,0,0,0,.17-.2,1.72,1.72,0,0,0,.21.43,2.27,2.27,0,0,1,.45.75l-.09.1c-.15,0-.18.4-.44.16,0,0-.1.13-.08.14a1,1,0,0,1,.17,1c0,.05.14.15.21.24s.12.18.19.28c-.17,0,.23.4-.18.25,0,0-.12.08-.12.13s.07.12.11.18.08-.11.13-.13.29,0,.43-.06c-.08.12-.14.33-.24.35s-.23.15-.14.3.2.66.64.64c0,0,.07.09.08.15.08.28.06.6.32.81,0,0,.09.12.07.16-.09.24-.09.23.1.37a.25.25,0,0,1,.11.19c0,.22-.11.52,0,.65s.39-.12.61-.14l.22,0c0,.07,0,.18-.08.19-.46.1-.21.56-.39.81,0,.05.11.24.17.37a3.41,3.41,0,0,0,.17-.33,2.45,2.45,0,0,0,.08-.29h0c.41.37.41.5,0,.93l0-.14-.32.19c-.18.22,0,.3.16.36l.06.22.2-.13-.24-.11V19.9h.16c.11.06.33.13.32.18a1.19,1.19,0,0,1-.18.42s-.09.06-.13.09l.16,0,.22.08-.14.16-.55.52L47.39,21c0,.24-.37.62.2.66,0,0,.06.17,0,.17-.39.14-.34.27,0,.42,0,0,0,.16,0,.24s-.62.43,0,.61c-.11.32.09.33.31.34,0,0,.09.17.07.18-.23.16,0,.31,0,.46a6.07,6.07,0,0,1,.06.85c0,.19-.13.37-.14.55s.18.25.17.36a2.51,2.51,0,0,1-.18.5c0,.06,0,.13.05.21,0,.25.26.52-.08.75,0,0,0,.24.08.36s.1.16.09.18a1.55,1.55,0,0,0-.17,1.26,2.82,2.82,0,0,1-.09.64h.07L48,29.6a3.13,3.13,0,0,0,.23.56c.14.21.36.37.49.59,0,.05-.19.24-.34.41.24,0,.56.1.7,0a.71.71,0,0,1,.84-.12,13.41,13.41,0,0,1,1.32.9,1.73,1.73,0,0,1,.18-.38.7.7,0,0,1,.31-.16.26.26,0,0,1,.09.14.61.61,0,0,0,.68.64,2,2,0,0,0,.53-.17l-.17.62a2.76,2.76,0,0,1,.55-.21c.12,0,.25.1.37.16-.28.41.19.41.35.59l0-.45.11-.05c.07.14.15.28.21.43a1.74,1.74,0,0,1,.05.22.5.5,0,0,1,.17-.11,1.68,1.68,0,0,1,.24-.06s-.13,0-.15.1a2.37,2.37,0,0,0-.13.34.9.9,0,0,0,.28,0,.76.76,0,0,1,.79.52,3.32,3.32,0,0,0,.2.47,2.77,2.77,0,0,0,.45.46c.15-.14.36-.37.52.07,0,0,.13,0,.19,0s.13-.07.16,0,.14.64,0,.74S57,36,57,36s.18.33.24.32c.43-.09.19.28.3.42.13-.25.26-.5.38-.75a.64.64,0,0,0,0-.2,2.5,2.5,0,0,1,.24.22,1.27,1.27,0,0,1,.13.19c.07-.06.2-.11.2-.18s.08-.42.33-.31a.48.48,0,0,1,.12.45c-.18.33,0,.58.08.85l-.31.38.14.06L59,37a.69.69,0,0,1,.9.42.37.37,0,0,0,.59.23s.1,0,.1,0c-.08.52.28.05.38.19s0,.1-.07.13c-.24.18-.39.33,0,.56a1,1,0,0,1-.1.57c-.73,0-.55.3-.18.63,0,0,0,.05,0,.08a1,1,0,0,0,.79.58c-.11-.15-.29-.25-.34-.4s0-.45-.18-.61c0,0,0,0,.06-.07s.24-.26.21-.34c-.1-.31,0-.45.3-.45h0l-.16.82s.08,0,.09,0A3.76,3.76,0,0,0,61.7,39c0,.17,0,.33,0,.5a.29.29,0,0,0,0,.09l-.31.44.13.07.17-.52c.05,0,.12,0,.16,0s.35-.2.41-.16.11.32,0,.53,0,.42.09.63.14.38.2.56l.19.1c.17.13-.34.57.24.51A.48.48,0,0,0,63,42c0,.07,0,.16.08.19a.81.81,0,0,1,.36,1,2.33,2.33,0,0,0-.11.28l.27-.09.06,0c0,.34,0,.82.12.95s.24.41.31.64.15.36.22.54l-.29.15a.8.8,0,0,0,.15.21c.15.11.51.62.44.71-.23.26,0,.53-.06.79s0,.33.28.27.28.07.21.27c0,0,0,.11,0,.11.32.19,0,.31,0,.47l-.32-.09c-.23.32.39.63,0,1,0,0,0,0,0,0,.31.16,0,.24,0,.37a2.17,2.17,0,0,0,0,.51,2.09,2.09,0,0,1,.25,0,1.55,1.55,0,0,1,.23.07,1.32,1.32,0,0,1-.12.2c0,.09-.16.17-.15.25.06.42.14.85.2,1.27,0,0,0,.11-.09.12-.37.06-.21.33-.12.46.47.66.15,1.41.18,2.09a13.46,13.46,0,0,1-.46,2.18c0,.28-.37.39-.31.46.23.27-.06.45-.07.67,0,.38-.34.67-.33,1.1,0,.2-.42.4-.64.61l-.08-.07.11-.25a1.48,1.48,0,0,0-.27.16,2.47,2.47,0,0,0-.28.28L62.55,59a4.7,4.7,0,0,0-.47.5,1.06,1.06,0,0,0-.09.36l.07,0,.14-.22c.07.15.16.31.23.47s.1.26.07.29c-.35.27-.71.52-1.07.77.12.09.12,0,.09-.06a3.37,3.37,0,0,0-.19-.32,3.13,3.13,0,0,0-.2.3c0,.09-.12.25-.09.29.26.29,0,.41-.12.51.16.15.39.26.42.41s-.21.24-.41.24-.15.06-.23.09h0c-.09-.11-.37.19-.35-.17,0-.08-.08-.17-.12-.25-.05.09-.16.2-.15.29s.1.42.13.64-.09.21-.14.21a1.38,1.38,0,0,1-.39-.09l-.06-.84c0-.34-.17-.48-.52-.31a.29.29,0,0,1-.27-.08c-.1-.2-.09-.21-.26-.13a7.46,7.46,0,0,1,.32.94c.08.32.24.08.36.09h0l.28.69.17-.37c.26.46.25.51-.17.74-.06,0-.15,0-.18.08-.2.35-.62.36-.89.61,0,0-.16-.09-.25-.1s-.43-.12-.56,0c-.29.2-.62.41-.62.85,0,.09-.14.17-.22.26-.24-.3-.3-.07-.38.13a.6.6,0,0,1-.15.18c-.43-.33-.36.27-.56.31-.07-.11-.17-.31-.2-.3-.31.12-.61.29-.92.4s-.64.25-.8.14a.52.52,0,0,0-.61-.09c-.13.12-.48.26-.28.6l-.11.1-.91.59-.08.07-.08-.16a2.2,2.2,0,0,1-.17.25,2.78,2.78,0,0,1-.27.21c-.1-.32-.25-.1-.38,0-.22-.3-.52,0-.77-.12.45.27.46.38,0,.68.18-.38,0-.45-.29-.34a.72.72,0,0,0-.24.16,2.14,2.14,0,0,0-.2-.32s-.08,0-.12,0c0-.15,0-.29.05-.43h-.1l0,.43c0,.17,0,.43-.12.48a5.79,5.79,0,0,1-1,.37l.06-.29c-.16-.09-.45.33-.44-.16a.29.29,0,0,0-.19,0c-.08.06-.11.2-.19.24a8.79,8.79,0,0,1-.9.34,2.34,2.34,0,0,1-.13-.29c-.06-.12-.1-.25-.16-.37l-.34.22h0c-.25-.15-.27.32-.6.19a1.6,1.6,0,0,0-.85.11c-.53.26-.58-.17-.79-.39l-.29.24c0-.1.08-.21.13-.31l-.17,0,.05.32c0,.2,0,.22-.13.22-.34,0-.63-.56-1-.07-.25-.59-.25-.59-.65-.27,0,0,0,0,0,0v0c-.12,0-.28,0-.35,0a2.82,2.82,0,0,1-.36-.52c-.08-.13-.15-.4-.2-.39-.41.07-.27-.2-.3-.41s-.15-.18-.24-.25-.16.09-.15.13c0,.38-.34.82.13,1.15a.27.27,0,0,1-.06.2,2.59,2.59,0,0,1-.48.12l-.23,0c.13-.46-.34,0-.37-.26-.36.21-.39-.14-.53-.3l-.1,0-.22.8c0-.25,0-.49-.08-.5-.29-.07-.67-.2-.85-.08s-.4.07-.6,0c-.38-.07-.76-.34-1.18-.08,0,0-.07-.07-.11-.11s.13-.15.12-.22-.1-.15-.16-.22L35,68l.11.09.19-.33,0,.46-.23.12h0a1.92,1.92,0,0,0-.56-.27c-.32-.05-.46-.15-.27-.5-.18.08-.13.12-.3.29a.56.56,0,0,1-.56,0c-.24-.17-.2-.21-.37,0,0,0-.17.09-.19.07s-.24-.31-.4-.52c-.11,0-.29.39-.54.09l.53-.66-.09-.07c-.31.23-.62.46-.93.67,0,0-.15,0-.21,0s-.14-.19-.2-.19c-.28,0-.23-.14-.21-.3a1.64,1.64,0,0,0,0-.22l.24.22.06-.42-.3.22-.48.22h0a1.5,1.5,0,0,0-1.21,0s0,0,0,.07,0,.11-.05.16a1,1,0,0,0-.07-.15l-.46-.66s-.08,0-.13,0l-.18.06a1.12,1.12,0,0,0,.11-.25,3,3,0,0,0,.06-.42.3.3,0,0,0-.18,0c-.08,0-.12.12-.18.18.26.2,0,.42,0,.69l-.45-.44.17,0,.23,0s0-.11,0-.12a.32.32,0,0,0-.19,0,.75.75,0,0,0-.16.15l-.37.24a1.17,1.17,0,0,1-.2.06.71.71,0,0,1,0-.21c.06-.2.12-.38.22-.66l-.38.26a1.66,1.66,0,0,1-.18-.35s0-.13,0-.19l-.2.12-.38.3L25.83,65l-.12-.42-.16,0,.2.48-.35.47,0-.53-.48.06v.07l.32.06c-.51.27-.78-.09-1.07-.37l.07-.1.28.17c0-.12.27-.26,0-.32a.89.89,0,0,1,0-.11c0-.09.07-.17.1-.26a2.2,2.2,0,0,1-.37.07l-.63,0h0l.38-.11c-.14-.35-.33-.52-.61-.14s-.47.05-.69,0c0,0,0-.16,0-.21s.14,0,.2,0a3.45,3.45,0,0,1,.43.21c.06-.23.11-.4.16-.57.1-.33-.1-.56-.46-.56a.36.36,0,0,1-.27-.14c-.17-.6-.53-.28-.87-.19l.09-.54-.5.7c0-.36,0-.7.43-.83l.21-.07a2.78,2.78,0,0,0-.18-.48s-.17,0-.25,0a.66.66,0,0,0-.65.77l-.4-.26s-.09,0-.15,0,.05-.17.1-.19a2,2,0,0,1,.35,0c-.27-.36-.6-.12-.88-.18s-.51-.09-.77-.14a2.67,2.67,0,0,1,.63-.5c.24-.1.15-.23.13-.36l.32-.18-.06-.09-.3.23-.08-.78c-.13.24-.32.5-.28.54.32.35,0,.45-.19.61s-.19.27-.31.36a1,1,0,0,1-.38.14s-.1-.13-.1-.14c.36-.37-.12-.31-.2-.33-.3-.06-.47-.16-.4-.51a.39.39,0,0,0-.06-.29c-.26-.22-.53-.41-.8-.62l-.19,0,0,0,.19.07c-.16.32-.41.07-.62.08s-.17-.11-.18-.18,0-.45,0-.67a1.33,1.33,0,0,0-.1-.28L16,58.7l-.1.17c0-.38-.07-.57-.46-.38-.16.08-.46.15-.37-.27,0-.14,0-.38-.32-.26-.15,0-.39-.13-.58-.23s-.44-.25-.66-.38l-.11.15.39.16-.55.19c0-.26,0-.5,0-.74,0,0-.11-.1-.17-.14v-.13c-.09-.34-.22-.61-.61-.27l-.16-.27.14-.36-.15,0-.45-.34c0-.13.05-.26.08-.39.06-.28.14-.3.37-.11,0,0,.14,0,.17,0a1.85,1.85,0,0,0,.34-.44c0-.05-.14-.18-.21-.28-.21-.3-.33-.69-.81-.68,0,0-.08-.11-.12-.17l-.17-.15c-.05-.08.1-.35-.18-.19l-.3-.31,0,.22c-.05.06-.14.13-.14.19,0,.31.38.57.84.58l-.21.38H12c0,.44-.2.77-.69.8a1.54,1.54,0,0,0-.41-.36c-.28-.13-.36-.29-.2-.53,0,0,0-.11-.06-.13s-.4-.14-.5-.27A8,8,0,0,1,9.71,53a.47.47,0,0,0-.22-.2A.56.56,0,0,1,9,52.11c0-.08,0-.24,0-.24-.52-.09-.28-.62-.52-.89s-.14-.53-.18-.8c0,0,.05-.16.09-.16.24,0,.48-.06.77-.09-.09-.15-.18-.4-.23-.39-.4.06-.47-.22-.52-.49l-.24.4c-.1-.16-.27-.32-.29-.49a.5.5,0,0,1,.28-.4c.28,0,.25,0,.25-.31s0-.73.32-1,.41-.15.47.21c-.08,0-.2,0-.24,0s-.29.29-.28.42.21.24.36.06a.53.53,0,0,1,.16.13.74.74,0,0,1,0,.21c.06,0,.16-.08.18-.14s.08-.39.15-.58.25-.49.34-.76c0-.07-.06-.2-.1-.3l-.19.18c0,.05-.06.15-.09.15a.38.38,0,0,1-.19-.08c.05-.14-.28-.41.17-.45s.68-.52.49-.76-.12-.63,0-.95c0-.06.07-.18.05-.2-.44-.35,0-.41.23-.64a4.23,4.23,0,0,1-.57-.07c-.36-.1-.34.33-.57.39L9,43.86l-.09.06.2.15c0,.26-.07.27-.32.15a5.87,5.87,0,0,0-.6-.22c.43-.15.37-.43.06-.77L8,43.69c-.05-.31-.2-.64.16-.85,0,0,.24.21.34.3.32-.19.06-.74.52-.9,0,0,0-.18,0-.28l-.22,0h0l-.08-.3h0c.39-.42.71-.85.47-1.46C9.34,40,9.15,40,9,40c.06-.32.06-.32.37-.19l.29-.33-.21-.07-.17-.15c-.12.24-.39.17-.57.3A5.06,5.06,0,0,1,9,39a4.91,4.91,0,0,0,.59-1.25,2.52,2.52,0,0,1,.66-1.09,2,2,0,0,0,.28-.46c.07-.18.12-.19.34,0l.19-.07s0,0,0-.07l-.18.14a1.71,1.71,0,0,1,.86-1.77A4.15,4.15,0,0,0,12,34.1c.41-.37.61-1,1.2-.94,0-.14,0-.28,0-.34s.35-.34.51-.53,0-.2,0-.3-.19,0-.24.05-.18.23-.29.33a1.36,1.36,0,0,1-.24.13c0-.09-.11-.2-.09-.26a2.43,2.43,0,0,1,.26-.44c.08-.12.28-.22,0-.36,0,0,0-.16,0-.24,0,.33-.21.39-.5.34a1.87,1.87,0,0,0-.41,0h0c0-.15.37-.19.16-.43L12.3,31c-.06.13-.08.3-.18.39a.78.78,0,0,1-.41.09s-.07-.13-.11-.2l.16-.1,0-.09-.15.14c-.06.09-.13.17-.18.26a2.41,2.41,0,0,0-.08.25,1.36,1.36,0,0,1-.11-.28.78.78,0,0,1,0-.26c0-.12,0-.24.08-.36h-.58l-.24,0a.74.74,0,0,1,.11-.24.63.63,0,0,1,.2-.1l0-.09-.67.07V30l-.44.29.14-.5c-.24.07-.45.4-.64,0a1.51,1.51,0,0,1-.05-.48c.06,0,.12.07.18.07a.21.21,0,0,0,.17-.07c.22-.25.13-.44-.15-.59L9.18,29c-.25-.11-.45-.21-.66-.29a.59.59,0,0,0-.23,0l.09-.21c0-.16.17-.35.11-.46-.23-.5-.4-.51-.78-.1,0,0-.08.1-.12.1a1.71,1.71,0,0,1-.32,0,2,2,0,0,0,.06-.23c0-.12,0-.24,0-.35-.23.17-.62,0-.78.35a.32.32,0,0,1-.1.12,1.33,1.33,0,0,1-.19-.14s.09-.07.1-.11a1,1,0,0,0,0-.25l.21-.24-.1-.06-.1.31-.26-.2-.33-.09,0,.21,0,.08-.52-.07c0-.11.08-.23.11-.34s.07-.15,0-.21-.15-.12-.16-.11c-.19.17-.36.36-.54.54,0-.21,0-.45.15-.56a.37.37,0,0,0,0-.54A1.32,1.32,0,0,0,4.35,26c-.15,0-.38.11-.45,0s-.1-.32-.16-.57l.39.23.06-.08-1-.92a1.14,1.14,0,0,0,.38,0,.87.87,0,0,0,.32-.31c0-.08,0-.21,0-.32a3,3,0,0,0-.42,0,1.63,1.63,0,0,0-.37.13l-.3.12c0-.19,0-.52.09-.55a.47.47,0,0,0,.37-.45c0-.05.11-.09.18-.14a1.72,1.72,0,0,1,.07.21c0,.13,0,.26,0,.42a1.69,1.69,0,0,0,.34-.24.64.64,0,0,0,.11-.3s-.11-.07-.17-.09A6.09,6.09,0,0,0,3.2,23c-.05,0-.12.07-.18.11a2.1,2.1,0,0,0,.06-.24.52.52,0,0,0,0-.25c-.12-.22-.25-.42-.37-.63l.16,0,.21.07a.43.43,0,0,0,0-.15.58.58,0,0,0-.23,0,.34.34,0,0,0-.15.07l-.23.13c.1-.17.19-.34.29-.55-.13,0-.28,0-.34,0-.35-.38-.47-.3-.46.2s.16.51.53.38a1,1,0,0,0,.16.31c.23.23-.08.39-.07.59-.36-.07-.87,0-1-.25a1,1,0,0,1-.11-1c.23-.38.09-.69-.42-.95a2.34,2.34,0,0,1,.22.47,2,2,0,0,1,0,.42A1.93,1.93,0,0,1,.77,21,7.09,7.09,0,0,1,.6,20a5,5,0,0,1-.22-2,.77.77,0,0,0,0-.42,1.6,1.6,0,0,1,.06-1.43c.07-.17.44-.38,0-.54a.2.2,0,0,1,0-.08c.19-.21.16-.19,0-.41s0-.28.1-.4a1.58,1.58,0,0,1,.22-.29A1.66,1.66,0,0,0,1,14.27,1.63,1.63,0,0,0,1.06,14h0c.26.17.49,0,.57-.27a2.3,2.3,0,0,1,.24-.5l.21-.42h0c.26-.26.52-.52.77-.79a.29.29,0,0,0,.07-.16s0-.07-.07-.09-.08,0-.09,0c-.24.47-.72.48-1.13.63-.06,0-.16-.07-.24-.12s.09-.18.11-.18c.56.13,0-.28.12-.32l.29.09,0-.31.35.12a.89.89,0,0,1,.19-1.1c.12-.11.14-.31.21-.47-.38-.13,0-.22,0-.24.25-.18.51-.34.74-.49l.42.18c-.2.21-.55.4-.56.61,0,.39-.19.44-.46.43.06.16.1.29.14.43l-.27.16.08.07.18-.24s.1,0,.12,0c.18-.14.2-.51.57-.38a.51.51,0,0,0,.08-.14c.07-.17.13-.34.2-.5l.35-.22-.08-.08-.27.31-.09-.47c-.13-.27.19-.17.28-.29l-.24-.18.25-.35h.17c.24-.12.57,0,.68-.43s.36-.49.6-.79l.23.47a4.28,4.28,0,0,0,0-.64,5.94,5.94,0,0,1,.27-.57.48.48,0,0,1,.71-.27c.07,0,.22,0,.29-.08s.28-.4.47-.5S8,6.07,8.12,6s.24-.39.36-.58.23-.26.21-.3c-.25-.37.3-.34.28-.59,0,0,.18-.08.21-.14a.46.46,0,0,1,.68-.26L9.19,5a.56.56,0,0,0-.07.23,2,2,0,0,0,.26-.09,6.33,6.33,0,0,0,.54-.36.59.59,0,0,0,.17-.24c.11-.26.2-.52.31-.78l.1,0L10.34,4a.59.59,0,0,0,.22,0,1.66,1.66,0,0,0,.37-.14,2.39,2.39,0,0,0,.28-.13,1.32,1.32,0,0,1,.08.33c0,.07-.08.16-.06.23s.08.33.18.4.39.14.48.06a2.35,2.35,0,0,0,.43-.6l-.92-.43a.23.23,0,0,1,0-.15,1.46,1.46,0,0,1,.16-.19c.14-.15.26-.4.42-.44a1.27,1.27,0,0,0,.92-.68c.13-.22.3-.16.39.08l-.27-.14.09.62c.1-.12.18-.29.24-.28.37,0,.48-.17.54-.49a.54.54,0,0,1,.46-.14c.3.23.47.21.66-.12.09-.14.31-.2.47-.3l.13.32A2.62,2.62,0,0,1,17.11,1c.12,0,.31.19.43.16.37-.1.82.17,1.13-.22a.7.7,0,0,1,.19.1v.37h.08L18.87,1,19,.75c.32.29.56-.12.79-.18s.32,0,.38.2a2.74,2.74,0,0,1,.05.32c.09-.2.1-.37.19-.42A2.07,2.07,0,0,1,21.79.54c.26,0,.68,0,.79-.13s.42-.2.65-.1.18.16.27.15c.34,0,.69-.12,1-.17a.26.26,0,0,1,.21.11c.09.28.26.14.42.1.4-.11.78-.34,1.23-.17C26.4.33,26.48.17,26.53.09ZM13.17,18.39l.18-.05-.11-.11-.06.17-.25-.14,1-.42V18l-.1.17.06,0,0-.22c.38.1.76.2.58.73s-.53.55-.88.22c-.1.29-.1.51.28.48a4,4,0,0,0,.83-.17s.07-.2,0-.28-.16-.16-.24-.23a1.14,1.14,0,0,0,.15-.16l.12-.22a1.79,1.79,0,0,1,.28.2.17.17,0,0,1,0,.14l.82-.23s.11.05.14.1.2.29.3.44h0c.08,0,.2.13.23.1.28-.23.27-.24.45.11a.5.5,0,0,0,.15,0h0c.07.08.13.23.2.23s.34-.16.54.1.81.09,1,.56c0,0,.22,0,.33,0s.08-.06.09-.05a1.91,1.91,0,0,0,.33.25,4.63,4.63,0,0,0,.61.17s.09,0,.12,0l.48.33a.1.1,0,0,1,.06.05c.36-.09.52.1.54.44l.3-.49c.07.4.3.55.65.46.05,0,.11,0,.16.06a3.87,3.87,0,0,1,.43.27c.28.19.67,0,.94.27s.38.29.57,0c0,0,.08,0,.12,0,.13.43.39,0,.64.07a1.53,1.53,0,0,1-.15.23c-.11.13-.23.24-.34.36a1.55,1.55,0,0,0,.43-.07.4.4,0,0,1,.53.13s.08.07.09.06c.3-.29.32.12.47.19s.08.06.12.06l1.06.18a.11.11,0,0,1,.09.08c0,.48.21.1.33.06s.32-.19.36-.16a2,2,0,0,0,.87.57,5.35,5.35,0,0,0,1,.23c.28,0,.53.31.82.07.16.2.21.42.64.38s1,.36,1.47.48a2.43,2.43,0,0,1,.61.33.74.74,0,0,0,.13-.12c.22-.23.33.21.45.09.3-.26.41-.15.49.17,0,0,.11.08.18.09a4.87,4.87,0,0,0,.66,0c.15,0,.28.52.45,0,0,0,.05,0,.06.05.13.75.21-.17.29,0a2.34,2.34,0,0,0,.57.47,2.37,2.37,0,0,0,.21-.24c0,.05,0,.14.08.16s.37.14.55.21c0-.3.34-.52.26-.86s.27-.83.56-.74.39-.13.53-.33h-.7l.11-.28h0c0-.06.12-.13.11-.17-.09-.28.22-.62-.13-.87,0,0,.2-.34.15-.41A6.79,6.79,0,0,0,38,21.7h0a1.12,1.12,0,0,0,.07-.4,18.57,18.57,0,0,0-.28-2.1c-.11-.4-.09-.86-.58-1.06-.09,0-.2-.3-.16-.33.22-.25.15-.38-.13-.49-.06,0-.07-.15-.11-.23s-.07-.14-.1-.22-.24.08-.27.16a1,1,0,0,0,0,.84c.07.22.82.26.23.69a.29.29,0,0,1,.11.11c.08.26.14.53.2.73-.16-.11-.35-.35-.5-.33-.41.06-.44-.23-.4-.44.08-.4-.28-.25-.39-.39s-.35-.16-.54,0c0-.12.11-.21.13-.31a.91.91,0,0,0,0-.32,2.39,2.39,0,0,0-.22.12c-.11.06-.21.14-.32.21.33-.31.45-.61.2-.72a3.36,3.36,0,0,0-.79-.16.44.44,0,0,0-.16,0c0-.06,0-.14.08-.18s.16-.09.21-.15a3.93,3.93,0,0,0,.29-.42s-.07-.08-.08-.07l-.42.25L34,16.06l-.32.44.27.14-.23.27c-.09-.2-.19-.41-.27-.62,0-.06,0-.14,0-.21s-.09-.41-.14-.61c-.12-.4-.46-.25-.63-.24l.19-.55.16-.16-.1-.07-.08.22c-.18-.05-.58.07-.28-.37a.6.6,0,0,0-.18-.15c-.05,0-.16,0-.19,0-.21.25-.41.51-.62.79l-.22-.81.39.07a.33.33,0,0,0,0-.14c-.11-.07-.23-.12-.34-.18s-.27-.27-.39-.42-.28-.32-.26-.46c0-.33.08-.32-.34-.45l.12.4-.45.16c0-.4-.15-.64-.5-.63h0c-.37-.54-.94-.13-1.38-.3h-.07c-.6,0-.16-.31-.17-.49.15.4.2.41.73.08a.8.8,0,0,1-.68-.72.41.41,0,0,0-.52-.32c-.17.07-.35.36-.5.06-.27-.55-.28.27-.46.07,0,0-.06,0-.06-.05-.22-.81-.42-.17-.6,0a4.29,4.29,0,0,0-.36.48.88.88,0,0,1-.15.12.44.44,0,0,1-.07-.19c0-.35,0-.71,0-1.08l-.59.71-.09-.06a1.81,1.81,0,0,0,.26-.4,1.09,1.09,0,0,0,0-.44,1.67,1.67,0,0,0-.28.18c-.08.07-.12.23-.21.26s-.43.52-.61,0c0-.07-.28-.07-.42-.1.07.38-.34.16-.4.39l-.1-.38c-.19.19-.38.3-.48-.08h0l-.82.32c.08-.25,0-.43-.33-.38-.06,0-.15-.17-.22-.27s.13,0,.16,0a.86.86,0,0,0,.15-.22s0-.06-.06-.09a1.49,1.49,0,0,0-.2.15.42.42,0,0,0,0,.16,4.38,4.38,0,0,0-.43.63c-.15.31-.25.14-.36,0v-.16c0-.12,0-.25.05-.38s0,0-.05-.07l-.13.18c-.34-.29-.45.15-.67.22s-.2.17-.29.26l-.1-.4-.21.18-.09-.17-.11.27c-.37,0-.7.06-.82.53-.09-.26-.09-.52-.17-.75s-.12-.5-.4-.14a.62.62,0,0,1-.33.17.39.39,0,0,0-.29.55c.38.45-.06.32-.23.38a.68.68,0,0,1-.23.05c-.06,0-.12-.05-.17-.06l-.3,0c0-.35-.16-.11-.24-.09a4.39,4.39,0,0,0-1.22.53l-.79.43q-.59.33-1.14.69c-.08.05-.19.12-.21.19-.08.35-.22.49-.54.22a.2.2,0,0,0-.17,0s-.06.13,0,.15c.25.22.12.35-.08.52s-.19.41-.33.46c-.47.13-.55.56-.68.9s-.32.71.29.78h0c-.23.15-.44.28-.63.42a1.83,1.83,0,0,0,.16.26c.23-.12.45-.25.63-.36.23.06.47.12.7.2s.29.15.43.22l.08.15.25.43.12-.32h0c.26-.33.35.1.53.12v.14c-.14.09-.26.24-.4.26s-.45.47-.76,0a1.63,1.63,0,0,1,0,.36c0,.2.17.5.33.4s.25,0,.35.16a1.8,1.8,0,0,0,.41.36l.14-.21ZM15,47.89l.18-.14-.12-.09L15,47.9l-.3,0V48Zm.84,9.77-.07-.35,0-.35-.28.1.2.25,0,.39.15-.05.29-.11L16,57.41ZM13.71,6.19l-.25,0,0,.19.2-.17.22,0L13.72,6c-.08-.1-.15-.21-.24-.31a.52.52,0,0,0-.18-.1l-.12.31.15,0L13.7,6ZM10.14,38.54l-.13.15.21.12,0-.16.14-.29Zm6.39,19.39-.15-.28-.13.09.29.18.25.26.22.1,0-.15-.26.06C17,57.82,16.68,58,16.53,57.93Zm9.89,7.14-.36,0c.13,0,.25.46.4,0l.17-.15-.24-.18ZM14.16,4.9a1.33,1.33,0,0,0-.2,0L13.7,5s.07.1.1.1A.67.67,0,0,0,14,5a.75.75,0,0,0,.11-.13l.16-.13-.13-.08ZM58.24,37.1l-.33,0,0,.08.31-.12.4-.1-.1-.16ZM3.84,16.41l-.14.39.14,0v-.42l0-.47C3.63,16.3,3.63,16.3,3.84,16.41Zm49.7,28.2.05.25.14-.07-.19-.18a.43.43,0,0,0-.12,0l-.32-.1a.71.71,0,0,1,0,.12,2.25,2.25,0,0,0,.35.09S53.51,44.63,53.54,44.61ZM25,64.76l.37.06,0-.19-.36.15a2,2,0,0,0,0-.42s-.11-.08-.17-.12-.06.13,0,.16S24.66,64.79,25,64.76Zm.92-12.59,0,0,.67.13.17.47a4.1,4.1,0,0,1,.12-.45s.15,0,.16,0c.2.3.19.3.48.06a1.15,1.15,0,0,1,.06.17c.06.32.06.67.56.68.14,0,.61.18.21.56-.08.08,0,.31,0,.42l1.11-.81.05.07-.13.33c.26-.18.45-.26.68,0a1.28,1.28,0,0,0,.94.49l.66.08a.31.31,0,0,1,.18.44s0,.08,0,.13c.32-.34.37-.34.67-.09.06.06.19,0,.25.1s.43-.06.54.27.34.31.54.44a.17.17,0,0,0,.17,0c.26-.15.35-.14.5.08,0,.05.12.06.18.07a2.45,2.45,0,0,1,1,.22,1.12,1.12,0,0,0,.38.08c.39,0,.65.49,1.1.34.06.28.17.13.33.08a1,1,0,0,1,.51.08c.21.05.48.22.62.14s.33.05.38.2-.11.21-.27.24c-.45.07-.51.19-.34.55l.72-.31.3-.11.29.41c0-.35-.08-.63,0-.77a.61.61,0,0,1,.59-.09c.18.08.29.33.46.54a1.81,1.81,0,0,1,.37-.24c.1,0,.35-.23.3.18,0,.18.24.4.37.61.19-.24.66,0,.72-.51a.3.3,0,0,1,.5-.2c.22.14.58,0,.67.38h.1c.17-.06.4-.22.48-.16a.47.47,0,0,0,.63,0c.32-.33.49.38.76.06l.45.5h0c.12.06.24.17.35.17.36,0,.79.29,1-.27.13-.29.42-.27.65,0s.36.26.44-.09h0c.21.22.46.13.69,0a.75.75,0,0,0,.32-.23c.33-.46.94.23,1.23-.32l.07.05c.18.14.18.14.3,0a.51.51,0,0,1,.75-.17s.1,0,.12-.06a3.82,3.82,0,0,1,.68-.45h0a.37.37,0,0,0,.38-.05,3.31,3.31,0,0,1,.39-.44A2.68,2.68,0,0,1,54.1,56l.07.39c.22-.09.37-.18.33-.5s.21-.63.35-.64c.4,0,.38-.3.35-.5s.1-.36.32-.4l.22.12,0-.16-.22,0s0-.06,0-.09c.11-.41.23-.82.34-1.24,0-.06,0-.17,0-.2s-.15-.08-.23-.12a2.52,2.52,0,0,0,.25-.21.34.34,0,0,0,.06-.2c0-.28,0-.57,0-.86,0-.05-.08-.13-.11-.12-.34.07-.24-.12-.13-.24a.89.89,0,0,0,.14-.81,3.08,3.08,0,0,0-.65-1.75.62.62,0,0,1-.15-.34c0-.36-.16-.57-.56-.46.2-.78,0-1-.76-1h0c.25-.25.25-.25-.07-.43a.2.2,0,0,1-.08-.1c-.16-.53-1-.39-1-1.06,0,0-.08,0-.12-.05l-.5-.24a2.18,2.18,0,0,1-.31-.22l.41,0s0,0,.06-.07c-.34-.44-.6-.1-.86.13-.16-.62-.14-.59-.71-.32-.17.08-.45,0-.68-.09l0-.05.94-.49-.06-.1H49.51l.26-.21a.91.91,0,0,0,.09-.17,1,1,0,0,0-.27-.09,4.51,4.51,0,0,0-.53.08l.21.17a.13.13,0,0,1,0,.07c0,.2,0,.2.2.14-.23.35-.54.24-.82.11-.08,0-.11-.2-.16-.3.4-.06.1-.31.13-.46s.21,0,.23,0a2.54,2.54,0,0,0,.17-.46l0,0-.36.53s-.11-.06-.12-.09c0-.31,0-.67-.47-.33a.24.24,0,0,1-.23,0,3.22,3.22,0,0,1-1.1-.88l.09.43-.13.07-.38-.65-.6.33.1-.22-.14-.05-.08.39c-.29.38-.41-.28-.67-.13l.41-.32.25-.16-.05-.06-.19.23a3.39,3.39,0,0,0-.39-.18s-.13,0-.19.07c.21.45-.16.09-.23.16s-.09,0-.13,0l.06.29-.4-.1c-.29-.06-.38-.2-.16-.44a2,2,0,0,1,.38-.24c0,.05,0,.13.08.14s.24,0,.36,0L44.56,41a1.07,1.07,0,0,0-.16-.14c-.11-.1-.81.06-.86.22s-.17.3-.34.15,0-.23,0-.35l.11-.19-.1,0v.25l-.55.19-.22-1a2.23,2.23,0,0,0-.31.12,1.73,1.73,0,0,0-.24.23.66.66,0,0,1,.28,0,.44.44,0,0,1,.22.18c.07.25,0,.18-.19.12s-.14.13-.22.2a1,1,0,0,1-.17.1c0-.4-.31-.08-.44-.17s-.19-.14-.18-.19c.11-.36,0-.45-.36-.34a.44.44,0,0,1-.3,0,.23.23,0,0,1-.1-.22c.08-.2.19-.38.29-.58l-.1,0-.48.29a1,1,0,0,1,0-.17s.05-.1.05-.15a.35.35,0,0,0-.05-.13c0,.11-.06.22-.08.33a.34.34,0,0,0,0,.12l.16.18-.68.19a1.31,1.31,0,0,1-.06-.27c0-.06,0-.13.07-.19a.83.83,0,0,1-.22,0,5.71,5.71,0,0,1-.72-.13c-.08,0-.13-.15-.19-.23s-.11.13-.15.2a1.57,1.57,0,0,0-.1.27L38,39.29l-.32.7h0c-.08-.26-.22-.51,0-.78,0,0,0-.13,0-.19s-.09.09-.14.1-.27,0-.41.06a2.38,2.38,0,0,0-.37.06c-.11,0-.29.11-.31.09-.15-.24-.28-.51-.63-.41s-.39-.33-.66-.38A.23.23,0,0,1,35,38.4a4.32,4.32,0,0,1-.16-.51l.4.19s0,0,.08,0-.11-.3-.16-.45a1.58,1.58,0,0,1-.09-.31.82.82,0,0,1,0-.22,1.43,1.43,0,0,0-.22.08c-.33.25-.23.62-.22,1L34.39,38a.83.83,0,0,0-.16-.09c-.18-.09-.29.13-.19.38l0,0c-.13.07-.26.2-.39.19s-.14-.21-.23-.3a1.2,1.2,0,0,0-.37-.31c-.3-.13-.48-.56-.9-.35h-.09c-.06-.11-.13-.22-.2-.33l-.25-.38-.17.34h0a3.09,3.09,0,0,0-.26.37,3.2,3.2,0,0,0-.19.37c0-.1,0-.2,0-.21-.22-.17-.49-.29-.44-.64-.07,0-.14,0-.19,0s-.16.16-.24.23h0l-.13-.64c-.35-.06-.36.79-.79.42l-.11.52c-.06-.23-.09-.33-.12-.43S29,37,29,36.88s-.09.16-.15.17-.29,0-.3,0a2.45,2.45,0,0,1-.18-.78c0-.38-.06-.51-.46-.33a.87.87,0,0,1,.18.22,2,2,0,0,1,.11.4,1.34,1.34,0,0,1-.4,0c-.05,0-.06-.18-.09-.28l0-.17s-.1.08-.12.13-.07.38-.12.64c-.11-.15-.32-.31-.32-.47,0-.46-.11-.55-.55-.43A1.8,1.8,0,0,1,26,36c-.08,0-.21-.08-.23-.06a.65.65,0,0,0-.15.34c0,.14,0,.14-.1.18,0-.44.29-1-.49-1.16l.05.32-.37,0-.33.24c0-.25-.43-.5,0-.74,0,0,0-.09,0-.08-.23,0-.52,0-.67.18s-.08.2-.23.23,0-.22,0-.33-.07,0-.08,0c-.31.45-.27-.14-.49-.15-.13.21-.29.44-.44.67s-.66.27-.63.72c0,0-.07.08-.1.08-.31,0-.28.2-.35.39a1,1,0,0,1-.24.35c-.28.33-.57.64-.85,1s-.47.63-.71,1-.4.37-.37.5c.1.49-.33.67-.49,1-.08.17-.27.29-.33.46s.15.43-.19.55c-.06,0,0,.32-.07.47s-.26.54-.36.82,0,.33-.08.49c-.11.38-.25.74-.37,1.12,0,0,0,.08.05.08.27,0,.14.13.08.25s0,.14,0,.22,0,.31,0,.47l-.23-.56-.14.63.37-.07c.17.39-.4.26-.38.49l1.1.23,0,.08-.69.14c.25.17.5.43.62.38.29-.12.3,0,.35.22l-.25.09.1.11.14-.21.45.13v0l-.19.27.12.17h.9l-.13.24c.36.2,0,.34-.1.58a2.56,2.56,0,0,0,.84,0c.32-.13.42,0,.48.25-.36-.2-.36-.2-.37.13l.37-.13.56.64h-.35l.7.53-.26.72.14,0,.11-.77.41.19.11.05c.05-.09.1-.18.19-.37v.79h.06l.07-.27c.15.11.21.46.5.14,0,0,.35.07.44.19s0,.15.17.11a.45.45,0,0,1,.49.28l-.13.25.11,0,0-.27c.12,0,.18.42.36.06.1.08.27.16.28.25,0,.42.13.5.48.35.05,0,.19,0,.22.08a1.58,1.58,0,0,1,.11.37l0,.11C25.74,52.15,25.75,52.48,25.92,52.17Zm3.62-41.82a1.18,1.18,0,0,0-.25.3s.15.14.23.22l.19-.36.18-.12C29.78,10.27,29.68,10.12,29.54,10.35Zm25.8,36.53.25.41a1.38,1.38,0,0,0,.08.27,1.34,1.34,0,0,0,.13.23s.08,0,.09,0,.11-.27.07-.3a1.24,1.24,0,0,0-.37-.17l-.12-.55c0-.16,0-.41-.29-.31,0-.12.07-.26,0-.35s-.23-.16-.64-.07c0,0-.07.07-.1.1s.16.15.23.14a1.12,1.12,0,0,0,.32-.14l.17.31C55.13,46.61,55,46.81,55.34,46.88Zm6,8.22v.42l.15,0-.15-.4a.51.51,0,0,0,.07-.15,1.31,1.31,0,0,0,.06-.27s-.13,0-.15,0a.47.47,0,0,0-.11.21,3.57,3.57,0,0,0,0,.46l-.48.07a.86.86,0,0,1-.32,0c-.08,0-.13-.12-.19-.18,0,.11-.14.27-.09.33a1.72,1.72,0,0,0,.39.31c.06,0,.17.11.17.15a1.08,1.08,0,0,1-.11.4c0,.07-.14.1-.21.15a1.55,1.55,0,0,0,.31.36s.23-.07.28-.16c.17-.33.3-.68.46-1h-.44c.09-.15.16-.27.22-.39ZM13.09,55l0-.22-.16,0,.09.23-.29.21.33.09s0,0,0,0,.12,0,.15,0a.14.14,0,0,0,0-.14A2.18,2.18,0,0,0,13.09,55Zm44.3,9.37a.58.58,0,0,0-.28-.07,1.05,1.05,0,0,0-.31.17c0,.06.08.15.12.16a.76.76,0,0,0,.34-.06c.06,0,.09-.14.13-.21.32.16.13-.15.2-.23a.76.76,0,0,0,.78-.72c0-.08-.08-.16-.13-.23s-.21.17-.19.19c.22.36-.19.26-.29.36s-.24-.06-.36-.13a2.53,2.53,0,0,1-.35-.25c.23,0,.49-.26.65.13l.65-.82-.76-.31c.07.43.07.43-.35.62a2.43,2.43,0,0,0-.32.24,2.06,2.06,0,0,0-.42.21c-.07.06-.08.2-.12.3l.35,0c.08,0,.22,0,.23,0,.07.28.22.28.44.17,0,0,.1.1.15.15ZM5,24.51a.69.69,0,0,1,.11.13,1.21,1.21,0,0,1,.09.2s.09-.05.09-.07a.88.88,0,0,0-.1-.22.64.64,0,0,0-.2,0,1.75,1.75,0,0,0-.09-.41s-.19,0-.29,0,0,.11,0,.17C4.51,24.73,4.94,24.28,5,24.51Zm49.1,20.58.46.69a1.65,1.65,0,0,0,0-.5c0-.49-.22-.3-.44-.18l-.35.25C54.08,45.45,54.27,45.46,54.11,45.09ZM16.9,3.64a2.52,2.52,0,0,0,.42.24,1.63,1.63,0,0,0,.44,0c0-.1-.05-.29-.08-.29-.27,0-.54,0-.81,0l-.09.27h.1Zm18.35,10-.07-.37-.22.29-.58.27c.16.32.38.45.68,0ZM10.58,51l-.11-.43-.14.06.25.37-.15.45a1.6,1.6,0,0,0,.37.19.25.25,0,0,0,.23-.09C11.11,51.41,10.78,51,10.58,51Zm-7-32.88L3.57,18l-.12.11.18.06L3,18.27l.24.44a2.09,2.09,0,0,1,.29-.19,1.06,1.06,0,0,1,.25-.09ZM56.3,35.78c.13.12.19.23.32-.06.25-.59-.49-.21-.48-.53-.15.11-.31.21-.46.33s0,.12.06.12a4.4,4.4,0,0,0,.51,0s.06,0,.1-.06a.85.85,0,0,0,0,.17l-.13.14.13.09ZM32.64,27.69c-.11,0-.24,0-.31,0a2.55,2.55,0,0,0-.3.44c.49-.12,1-.17.88.6a3.59,3.59,0,0,0,.28-.37.24.24,0,0,0,0-.22c-.17-.18-.36-.34-.55-.51l.41-.45L32.45,27ZM11.5,30.32c.35.09.58.27.46.61l.48-.12c.07,0,.19.06.2,0a2.3,2.3,0,0,0,.17-.39c-.14,0-.38-.15-.41-.11-.24.32-.44,0-.47-.09-.23-.49-.33-.25-.43.06l-.1.14-.06.19.11,0a.61.61,0,0,0,.05-.18A1,1,0,0,0,11.5,30.32ZM6.33,11.88c.08,0,.16.13.23.12a5.16,5.16,0,0,0,.79-.08c.09,0,.15-.15.23-.23-.07,0-.17,0-.2,0a.7.7,0,0,1-.12-.3,1.88,1.88,0,0,1,0-.33,1.66,1.66,0,0,0,0-.22c-.1,0-.23.05-.28.12-.16.26-.29.54-.45.8a.76.76,0,0,1-.22.17l-.15.17-.25.21c.05,0,.11.11.12.1a1.29,1.29,0,0,0,.3-.27S6.34,12,6.33,11.88ZM13.65,10c.27.17.53.34.54-.21,0-.09.18-.17.24-.28a.3.3,0,0,0,.05-.25c-.06-.11-.76,0-.87.06s-.23.49-.58.38a.37.37,0,0,0-.09.2c0,.05.11.11.17.12s.37,0,.55,0c-.1.13-.31.22-.09.46.06.07.11.44-.27.35a.18.18,0,0,0-.14,0c0,.06-.11.2-.09.21s.26.22.39.22.32-.15.32-.23A9.3,9.3,0,0,0,13.65,10ZM59.16,47.31c0,.09-.06.19,0,.27s.13.52.29.59a1.49,1.49,0,0,0,.75,0c.06,0,.1-.14.14-.22l-.24-.07c-.11,0-.3-.07-.3-.11,0-.43-.51-.53-.58-.89s-.24-.24-.45-.18c0,0-.1,0-.16,0,.08.17.22.39.31.38.33-.07.23.17.28.31l-.6.1,0,.14ZM39,19.14l0,.53.12,0L39,19.14l-.3-1,.37-.29a.39.39,0,0,0-.31.05c-.23.09-.59-.09-.56-.29a5,5,0,0,1,.19-.85c.08-.22,0-.26-.16-.19a7.2,7.2,0,0,1-.7.42c-.25.1-.18.13,0,.28s.41.35.24.66c.23.11-.25.59.27.53s.54.14.63.48C38.69,19,38.91,19.07,39,19.14ZM10.39,6.22a3.65,3.65,0,0,0-.23.51,1.66,1.66,0,0,0,0,.32c.1,0,.23,0,.28,0,.35-.31.4.1.54.22a.75.75,0,0,1,.2.37c.07.25.15.15.23,0A2.75,2.75,0,0,1,11.75,7c.35-.31.13-.66.15-1l-.11.26a.61.61,0,0,1-.11-.37c0-.37-.15-.46-.46-.25,0,0-.13-.1-.12-.11.25-.4.07-.69-.22-1-.12-.11-.16-.36-.38-.16s-.35.28,0,.4c0,0,0,.08,0,.12,0,.34-.51,1-.81.88-.56-.21-.58.31-.82.52,0,0,0,.09,0,.12a.13.13,0,0,0,.11,0ZM39.73,25.08c0-.39.06-.69.08-1a9,9,0,0,0,0-1,10,10,0,0,0-.2-1.22.83.83,0,0,0-.22-.51c-.18-.12-.48.23-.45.49.05.48.11,1,.13,1.43,0,.32,0,.32.24.41,0,0,0,0,.07.05-.17.18.06.37,0,.5C39.22,24.57,39.38,24.78,39.73,25.08ZM10.94,46.17c.12-.29.27-.57.37-.86s.31-.54,0-.87c-.1-.12,0-.36-.07-.54v-.22a.79.79,0,0,1-.14.17c-.25.17.06.6-.26.66a5,5,0,0,1,.4.3,7,7,0,0,1-.62.91c-.1.11-.29.15-.39.26s0,.22,0,.34c.1,0,.25-.08.28-.15C10.73,45.69,10.84,46,10.94,46.17ZM35.41,15.64c0-.12.07-.31.1-.51s.08-.28,0-.33-.22-.3-.41-.1-.17.13-.23-.06-.28,0-.43,0a.85.85,0,0,0,0,.29c0,.07.05.15,0,.21-.1.32.13.36.34.4ZM7.84,26.25a3.21,3.21,0,0,0-.92-.49c-.14,0-.34.29-.51.46.2.13.4.36.61.37S7.49,26.41,7.84,26.25ZM41.58,67.81a5.38,5.38,0,0,1-.1-.61c0-.36-.25-.35-.43-.18a.65.65,0,0,0-.1.8c.06.12.25.29.35.27S41.52,67.87,41.58,67.81ZM35,16.59a2.37,2.37,0,0,1,.51.05.78.78,0,0,1,.3.22,1,1,0,0,1,.13.22,1,1,0,0,0,.29-.26,2.49,2.49,0,0,0,.14-.41L36,16.15c-.07,0-.17-.08-.22,0C35.54,16.22,35.35,16.37,35,16.59Zm-1.56,20.9v.13l.32-.07c.07,0,.21,0,.22,0,.14.31.21.1.26,0a2.17,2.17,0,0,0,.13-.5.24.24,0,0,0-.09-.2C34.08,36.71,33.49,37.15,33.47,37.49ZM13,7.27a5.06,5.06,0,0,0-.84-.36c-.1,0-.37.14-.08.38.12.1.45.34.07.58,0,0,0,.06,0,.09s.12,0,.15,0l.62-.53S13,7.37,13,7.27Zm-.4-.73a1.24,1.24,0,0,0,.16-.41,1.66,1.66,0,0,0-.17-.45c.47-.11-.22-.22,0-.33-.11,0-.23,0-.31.11s-.21.23-.19.32a5.16,5.16,0,0,0,.31.73Zm-.08,40.53a5.73,5.73,0,0,0,.68-.41c.06-.06,0-.23,0-.34a.84.84,0,0,0-.27,0,3.57,3.57,0,0,1-.4.12c-.18,0-.23,0-.23.36C12.38,46.86,12.47,46.94,12.56,47.07ZM18.52,5l-.12-.44a4,4,0,0,0-.33.24.75.75,0,0,0-.13.18c-.06.08-.11.16-.16.24.16.06.33.19.46.16S18.43,5.08,18.52,5ZM9.2,49.53c.32.06.45-.08.5-.35a.37.37,0,0,1,.19-.2c.1,0,.25,0,.33-.07a1.59,1.59,0,0,0,.27-.39s-.1-.1-.11-.09l-.29.22c-.08.07-.19.22-.24.2-.51-.2-.59,0-.49.46C9.37,49.37,9.26,49.44,9.2,49.53ZM31.83,4.3l-.06-.12-.35.25.35.17c.08,0,.16.12.24.12s.28,0,.34-.06a.84.84,0,0,0,.09-.4.61.61,0,0,0-.3-.06A.94.94,0,0,0,31.83,4.3ZM1.26,17c.39.1.49.26.31.57a1.21,1.21,0,0,0-.09.2,1,1,0,0,0,.41-.08c.27-.2,0-.35-.06-.53a1,1,0,0,1,0-.46L1.42,17A.9.9,0,0,1,1.26,17Zm2.43,2.83.13.05c0-.18.1-.35.13-.53s0-.13-.06-.2l.26.05a.63.63,0,0,0,.24,0c.06,0,.08-.1.12-.15s-.15-.16-.21-.14a6.59,6.59,0,0,0-.86.27s0,.17,0,.24a.23.23,0,0,0,.19.09s.09,0,.14-.08a1.33,1.33,0,0,1,0,.2C3.74,19.69,3.71,19.76,3.69,19.83ZM15.05,5.32a6.4,6.4,0,0,0,.4-.76c0-.09-.07-.23-.13-.35a.17.17,0,0,0-.14,0A.92.92,0,0,0,15.05,5.32ZM61.14,60.54l.15.05.29-.69c-.16-.06-.41-.22-.48-.16C60.75,60,61.12,60.26,61.14,60.54Zm-41.68-57s.09-.06.09-.08-.09-.3-.17-.33a4.44,4.44,0,0,0-.87-.22c-.06,0-.16.09-.2.16a.21.21,0,0,0,.07.2c.32.13.77-.2,1,.27C19.38,3.56,19.41,3.55,19.46,3.55ZM1.89,18.08c-.11.27-.66.35-.42.85a.87.87,0,0,0,.2.23,1.1,1.1,0,0,0,.17-.32A6.47,6.47,0,0,0,1.89,18.08Zm58.52,20.6c-.3,0-.3,0-.5-.38,0,0,0-.06-.07-.06l-.39.11a2.07,2.07,0,0,0,.17.24,2.15,2.15,0,0,0,.24.18c.12.09.24.18.37.26ZM9.61,42.55l0,.05a3.9,3.9,0,0,0,.48-.17.49.49,0,0,0,0-.24,3.1,3.1,0,0,0-.68,0c-.08,0-.15.14-.22.21a1.14,1.14,0,0,0,.23.15A.81.81,0,0,0,9.61,42.55ZM10.47,53c.43-.19.42-.26,0-.83-.17,0-.29.07-.41.12a1,1,0,0,0-.2.17,1.12,1.12,0,0,0,.23.06C10.58,52.49,10.61,52.53,10.47,53Zm47.1-3.36c-.51.2-.59.51-.34,1.22ZM1.2,20.74c.37-.33.27-.66.19-1C1.05,20.21,1.05,20.21,1.2,20.74ZM32.62,36.8a1.79,1.79,0,0,0-.26-.32c-.07,0-.26-.06-.28,0a.58.58,0,0,0,0,.33c0,.14.46.07.18.36.06,0,.17.06.18,0A3.1,3.1,0,0,0,32.62,36.8Zm19.3,23.68c.25.07.45.19.54.13a.87.87,0,0,0,.26-.45s-.23-.21-.26-.19S52.15,60.26,51.92,60.48ZM13.35,44a3.9,3.9,0,0,0-.39.57c0,.08.06.21.1.32a.84.84,0,0,0,.19-.09c.22-.14.51-.26.12-.54C13.34,44.22,13.36,44.14,13.35,44Zm-1.74-7.54.1.09.14-.1c0-.07-.1-.19-.12-.18a2,2,0,0,0-.56.22c-.07.05,0,.26,0,.4a3,3,0,0,0,.29-.2A.94.94,0,0,0,11.61,36.44ZM24,63.35l.18,0c.06-.23.14-.46.19-.69,0,0-.13-.13-.17-.12a4.37,4.37,0,0,0-.49.23l0,.11C24.1,62.86,24.08,63.08,24,63.35ZM10.61,17.25c.15.34.35.47.67.22.07-.06.13-.13.19-.19a1.26,1.26,0,0,0-.34-.12A2.84,2.84,0,0,0,10.61,17.25Zm-6.1,2.93,0,.06c.05,0,.11,0,.14-.08s.27-.36.4-.54a4.63,4.63,0,0,0-.49-.09,1,1,0,0,0-.28.08l.24.1.2.07a1,1,0,0,1-.09.18A1.84,1.84,0,0,1,4.51,20.18ZM12,49.75a4.34,4.34,0,0,0,.46.33.45.45,0,0,0,.28,0A.33.33,0,0,0,13,50c0-.05-.08-.2-.13-.2C12.57,49.74,12.31,49.75,12,49.75Zm49.41-9.14a1.11,1.11,0,0,0,.09.19c.21.39.36.42.62.11.05-.06,0-.28,0-.28C61.88,40.61,61.65,40.61,61.41,40.61ZM15.46,2.55l-.29-.21c-.07.19-.45-.07-.4.27,0,.11.2.29.25.27A1.62,1.62,0,0,0,15.46,2.55ZM10.31,51.69c-.15-.09-.27-.2-.33-.18a2,2,0,0,0-.39.27c.1.09.23.28.29.26S10.13,51.85,10.31,51.69Zm42.51-7.61a2.78,2.78,0,0,0-.33-.49s-.22,0-.27.07a.83.83,0,0,0,0,.33c.28-.28.28.22.48.16A.71.71,0,0,0,52.82,44.08Zm-14.46,23a2.44,2.44,0,0,0,.31-.22,2.23,2.23,0,0,0-.27-.41l-.34.27ZM32.45,12.61a3.31,3.31,0,0,0-.51-.12c-.05,0-.17.13-.16.14s.19.26.29.39ZM27.11,9.3l.24-.55-.62-.16ZM10,51c-.06,0-.09,0-.11,0s-.34.05-.4.15,0,.28.06.42l.3-.32Zm4.58,5-.34-.25a3.62,3.62,0,0,0-.27.41s.08.13.12.19Zm49.18-6.16c-.12.18-.24.29-.23.39s.13.2.2.3a1.84,1.84,0,0,0,.25-.39S63.86,50,63.74,49.84Zm-1.16-8.07-.35-.48a2,2,0,0,0-.16.13l.31.5Zm-22-33.92V8c.13,0,.27.12.39.09s.22-.16.32-.26-.11-.18-.14-.17A5.48,5.48,0,0,0,40.57,7.85ZM58,58.59c-.25.12-.64.1-.54.53a.24.24,0,0,0,.11.15.14.14,0,0,0,.15-.05C57.84,59,57.93,58.81,58,58.59Zm-21.7-32a3.89,3.89,0,0,0-.33-.38.17.17,0,0,0-.17,0,1.43,1.43,0,0,0-.23.26s0,.08.08.08ZM2.06,14.27A2.38,2.38,0,0,0,2.32,14a1.27,1.27,0,0,0,.18-.37s-.1-.13-.11-.13a.79.79,0,0,0-.27.24A2.11,2.11,0,0,0,2.06,14.27Zm9.51,33-.64.44s0,.09,0,.1a.38.38,0,0,0,.18.09C11.34,48,11.6,47.59,11.57,47.31Zm25-32.58-.08-.09a1.4,1.4,0,0,1-.29.16c-.42.12-.21.3,0,.33S36.4,14.87,36.53,14.73ZM18.25,6.45l-.17.12-.42.17c.1.07.2.19.3.18a.55.55,0,0,0,.33-.2S18.26,6.54,18.25,6.45ZM28.1,54.14V54c-.28-.12-.55-.34-.94.06ZM11,49.46a1.69,1.69,0,0,0,.25-.39.81.81,0,0,0,0-.38s-.11-.07-.17-.11-.16.19-.16.3A3.24,3.24,0,0,0,11,49.46ZM31.53,1.75c-.13-.14-.21-.31-.28-.31a.51.51,0,0,0-.32.22c0,.05.09.27.12.27A3.37,3.37,0,0,0,31.53,1.75ZM51.13,58.9c-.45-.49-.47-.49-.91-.16Zm7.61-12.61,0-.17L58.23,46l0,.29ZM41.82,60.62l.63-.42h-.74ZM10.27,43.78c.51.13.56-.12.55-.6Zm7.55,3.77c-.07.15-.15.25-.13.27a4.93,4.93,0,0,0,.4.39c0-.07.13-.18.11-.22A4.16,4.16,0,0,0,17.82,47.55Zm33-15.38-.15-.36a1.84,1.84,0,0,0-.25.39s.14.14.22.22ZM16.59,4.38l.14-.08c0-.14,0-.29-.08-.42s-.1-.11-.15-.17c0,.1-.14.21-.12.29A1.41,1.41,0,0,0,16.59,4.38ZM10.13,29.53l-.06.08a2.76,2.76,0,0,0,.28.39c.05.05.16,0,.25,0s0-.25,0-.28A2.56,2.56,0,0,0,10.13,29.53ZM11.24,51l.25-.29c-.13-.07-.25-.15-.39-.21s-.09,0-.13.08,0,.07,0,.11ZM.66,19.09H.82l-.06-.86H.66ZM17.74,58.54l-.11-.17c-.05,0-.12-.14-.17-.13a1,1,0,0,0-.3.16c.08.09.14.25.23.28S17.62,58.59,17.74,58.54ZM9,27.09c-.13.18-.24.26-.25.35s.09.18.14.27a1.6,1.6,0,0,0,.23-.3C9.11,27.36,9,27.27,9,27.09ZM15.74,5.67l-.1-.17-.31-.2c0,.08-.13.16-.12.23s.11.28.17.29S15.62,5.72,15.74,5.67ZM62.9,57.85l-.18.49.58,0ZM14.63,56l-.22.65C15,56.4,15,56.33,14.63,56ZM9.18,50.21,9,50.28l.17.55.22-.1Zm-3-24.67c.09-.12.21-.21.2-.28s-.16-.22-.21-.21-.19.15-.29.22Zm5.9,20.6h.07a3.57,3.57,0,0,0,.11-.55c0-.06-.09-.13-.14-.19s-.15.11-.15.16S12,46,12.06,46.14Zm27.46-25,0-.59-.43.15Zm21,40.07-.78.64C60.3,61.89,60.34,61.53,60.54,61.18Zm-24.11-23c-.44-.35-.52,0-.64.31Zm-23,11.21.09,0,.33-.35-.35-.1ZM17.69,59a2.51,2.51,0,0,0,.24.19s.1.07.14.06.11-.08.1-.1c-.06-.17-.15-.34-.22-.5Zm-.38-12.19a1.36,1.36,0,0,0-.28.36c0,.08,0,.21.08.31s.09,0,.14,0,.06-.06.06-.09C17.32,47.19,17.31,47,17.31,46.76ZM31.68,66.83l-.44,0,.35.5Zm18-7.64c.15-.19.25-.31.34-.45s-.08-.09-.13-.13-.19.23-.27.35S49.65,59.06,49.68,59.19ZM27.36,65.84l.13.09.29-.42-.24-.15ZM25.79,23.5l.11.14.44-.31s-.12-.14-.14-.13S25.92,23.4,25.79,23.5ZM51.54,59.24c.09-.1.18-.17.17-.2a1.44,1.44,0,0,0-.18-.25L51.3,59ZM14.75,3.35c-.13-.07-.22-.15-.26-.13a.58.58,0,0,0-.23.21s.12.17.14.16A2.21,2.21,0,0,0,14.75,3.35Zm4.13,5a1.68,1.68,0,0,0-.35-.23s-.15.12-.15.18.11.17.17.17S18.73,8.43,18.88,8.37ZM29,65.74l-.14.14.37.33s.09-.11.08-.12S29.15,65.86,29,65.74ZM42.86,28l0,.1.53-.11-.34-.28ZM34.77,13a1.94,1.94,0,0,0-.37.17c-.16.13-.2.28.07.26C34.55,13.46,34.63,13.25,34.77,13Zm25,42.76-.16-.09-.23.44.13.07Zm-35.56,8-.1-.21-.27.23c.06,0,.13.15.18.15S24.19,63.9,24.25,63.84Zm9.38-8.15h-.11l-.17.53a1.25,1.25,0,0,0,.27,0A4.13,4.13,0,0,0,33.63,55.69Zm-7.3-20.47h-.06c0,.18,0,.36,0,.55,0,0,.08.07.12.11s.11-.09.1-.12A5.6,5.6,0,0,0,26.33,35.22Zm-14.08.28.13.1.35-.51L12.59,35ZM56.11,48.14c-.41-.06-.43,0-.33.46Zm-.78,16.35c.41.2.41.2.5-.12ZM6,25l-.44-.35s-.1.14-.09.16a1.11,1.11,0,0,0,.26.27S5.87,25.07,6,25ZM38.87,5.71h-.18l-.1.41a1.29,1.29,0,0,0,.19,0C38.82,6,38.84,5.86,38.87,5.71ZM54,34.15c-.08.11-.2.22-.18.24a1.29,1.29,0,0,0,.27.25ZM36.68,26.53l0-.06a2.23,2.23,0,0,0-.16.43c0,.05,0,.12.05.19s.14-.11.15-.17A1.7,1.7,0,0,0,36.68,26.53ZM18.77,48.63l0,.15a2,2,0,0,0,.35.06s.06-.11.09-.17Zm43.57.59h.09l-.06-.65h-.12ZM20.93,50.33l.31-.21A.87.87,0,0,0,21,50c-.06,0-.18.08-.18.13S20.87,50.25,20.93,50.33ZM14.1,3l.17,0-.13-.51-.11,0ZM1.65,14.73l.16.29c.05,0,.15-.12.14-.17a1.35,1.35,0,0,0-.14-.3ZM31.34,3.43l0,.12.38,0-.11-.27Zm20,56.41.13.06c.06-.13.12-.25.17-.37l-.18-.09Zm-47-38c-.16-.14-.26-.23-.37-.31l-.1.09.27.28S4.23,21.84,4.35,21.8ZM58.41,42a2.72,2.72,0,0,0,.25-.39s-.07-.1-.11-.15a2.13,2.13,0,0,0-.26.26S58.34,41.85,58.41,42ZM10.13,38.1l.12,0-.07-.47-.15.06C10.06,37.8,10.1,38,10.13,38.1Zm49.36-.19-.06-.1-.34.14.09.22ZM56.74,48.79l.19-.24c-.06,0-.13-.1-.17-.08a.52.52,0,0,0-.17.16S56.66,48.71,56.74,48.79ZM13.41,47l.06.1.42-.15-.11-.18Zm30-18.73-.09-.11-.4.32a.69.69,0,0,0,.11.12C43.16,28.51,43.28,28.4,43.41,28.28Zm-9.27-.22h-.08c-.07.12-.14.24-.2.37l.2.13ZM4.87,20.78l0,.13.43-.14-.08-.18Zm32.3-7.72-.14.08a3.71,3.71,0,0,0,.23.32l.12-.07Q37.28,13.21,37.17,13.06ZM2.11,14.5c0,.07.06.18.1.18a.55.55,0,0,0,.23-.07ZM27,65.14l-.16.12c.1.12.19.24.29.35s.09,0,.14-.07ZM1.68,15.61l.1,0c0-.13.06-.25.08-.38l-.11,0ZM50.32,31.72l-.14-.07L50,32c.05,0,.13,0,.14,0A4.05,4.05,0,0,0,50.32,31.72ZM13.69,56a.88.88,0,0,0,.12-.24s-.08-.1-.09-.1a.65.65,0,0,0-.17.16S13.62,55.86,13.69,56ZM57.14,54,57,54a3.37,3.37,0,0,0-.09.34l.13,0ZM35.59,11l-.12-.08-.24.26.16.13Zm-19.72-.1.1.1a1.81,1.81,0,0,0,.21-.18s0-.11,0-.16Zm22.85,5.79a1.39,1.39,0,0,0-.17.25s.1.13.11.12.15-.12.23-.18Zm1,49.66a3.57,3.57,0,0,0-.22.35s.06.08.09.11a3.11,3.11,0,0,0,.23-.28S39.75,66.41,39.69,66.31ZM57.09,52.8l.11.12.29-.29-.11-.1C57.28,52.61,57.19,52.71,57.09,52.8ZM11,47.07h-.14c0,.13,0,.27,0,.4H11Zm45.18,3.37.15.06.1-.39s-.11,0-.11,0A2.13,2.13,0,0,0,56.17,50.44ZM5.34,19.89,5.18,20a3.05,3.05,0,0,0,.13.32.7.7,0,0,0,.14,0ZM37.89,68.1c.08-.13.16-.24.23-.36s0-.07-.07-.1l-.28.3A.68.68,0,0,0,37.89,68.1ZM43,60.58l.12.07.17-.35-.13-.06ZM62,49.87l0-.11a1,1,0,0,0-.26.05s0,.13-.07.2Zm-41.19-.18c-.07-.06-.14-.13-.16-.12a1.36,1.36,0,0,0-.17.17s.1.11.12.1A.76.76,0,0,0,20.82,49.69Zm39.66-.92.09-.14-.33-.16s-.06.06-.08.09ZM1.89,16l-.1,0-.16.44.16,0C1.83,16.29,1.86,16.15,1.89,16Zm17,43.7-.26-.17s-.08.09-.07.11.09.14.14.22Zm38.32-10.5.09.09.25-.29-.08-.09ZM42.27,9.38l-.14-.11c0,.05-.1.1-.11.15s.06.12.09.17ZM15.37,56.92c-.12-.09-.17-.15-.22-.16s-.11,0-.16.07a1,1,0,0,0,.16.12A.89.89,0,0,0,15.37,56.92ZM56.18,46.17l-.11,0,.11.29.13-.07A2.1,2.1,0,0,0,56.18,46.17ZM20.34,4.68l.16-.06-.16-.36-.13,0ZM51.45,67.61l.12,0,.12-.33-.16,0ZM40.34,7.77a1,1,0,0,0,.14-.22s-.08-.11-.09-.11l-.2.14ZM29.22,36l-.11-.12a3,3,0,0,0-.24.26s0,.06,0,.09Zm1.18.68.11-.06-.14-.26-.12.06Zm12.34-27-.09-.09-.27.3.08.08ZM57.06,48c-.08,0-.14-.09-.21-.09s-.1.11-.09.16.08.11.12.17Zm2.13,9.46L59,57.39a2.75,2.75,0,0,0-.22.26s.09.1.1.09S59.07,57.6,59.19,57.5Zm-40.48,3-.12-.07-.21.32.1.07ZM44.87,12.34l.09,0,.17-.31L45,12ZM58.23,42.78h.14c0-.11,0-.21,0-.32h-.11C58.21,42.57,58.22,42.67,58.23,42.78ZM1.1,15.11l.15,0-.12-.41-.07,0ZM13,8.07l-.25.21s.11.1.16.09.1-.07.12-.13S13,8.13,13,8.07ZM17.5,3.2c.06-.06.13-.1.13-.15s-.08-.12-.1-.11-.1.08-.15.12Zm8.34,7.06h-.08v.45h0Zm-14,2.09a1.46,1.46,0,0,0-.21-.11s-.08.09-.08.1a.57.57,0,0,0,.14.13S11.74,12.41,11.81,12.35ZM1.36,15.92H1.25l0,.37h.11ZM25.58,35.13l-.26-.29-.09.24ZM5.68,16.69l0-.06s-.09,0-.1.06a.52.52,0,0,0,0,.18ZM13.08,34,13,34l-.14.35.09,0ZM41.59,8.4l-.2.14a.48.48,0,0,0,.16.13s.1-.07.11-.12S41.62,8.46,41.59,8.4ZM6,21l-.06-.13L5.57,21a.27.27,0,0,1,0,.07Zm34.19-6.18-.15,0a1.83,1.83,0,0,0,.06.25s.07,0,.1,0ZM35.89,38.71c-.11-.08-.16-.14-.22-.15s-.07,0-.11.08a.72.72,0,0,0,.15.11S35.78,38.74,35.89,38.71ZM22,51l.12.05.13-.33-.1,0ZM32.67,28.2a2,2,0,0,0-.2.28s0,.08.05.12a1.19,1.19,0,0,0,.19-.2S32.7,28.32,32.67,28.2ZM16.6,59.31l.17-.16a.91.91,0,0,0-.13-.08.17.17,0,0,0-.12.08S16.56,59.24,16.6,59.31ZM33.66,2.72a.91.91,0,0,0-.18-.08s-.08.09-.07.11a.58.58,0,0,0,.14.13Zm.27,13.05c-.08,0-.16-.11-.2-.09a.18.18,0,0,0-.12.15c0,.06.08.11.12.16Zm7.7,24.12-.1,0-.13.34.07,0C41.53,40.12,41.58,40,41.63,39.89Zm-4.75-1.16.1,0c0-.06,0-.14,0-.19a1.49,1.49,0,0,0-.27-.2Zm-26.07-.45-.05-.09s-.1,0-.13,0a.27.27,0,0,0-.11.1s.08.09.11.08A.87.87,0,0,0,10.81,38.28ZM35.15,14.15l-.19.14c0,.05.09.13.13.13s.11-.08.14-.13S35.18,14.21,35.15,14.15ZM14.38,57.47l.14-.16-.06-.06-.11.12S14.36,57.42,14.38,57.47Zm5.34-51s-.11.08-.1.09a.6.6,0,0,0,.09.13s.08,0,.08-.06A.71.71,0,0,0,19.72,6.44ZM36,13.94l-.12-.14s-.07.09-.07.13.05.08.09.12ZM57.74,42.26l.1.06.15-.23L57.9,42A1.88,1.88,0,0,0,57.74,42.26Zm-39.55-32,0-.1-.28,0,0,.09ZM56.43,46.87l-.15-.1a2.29,2.29,0,0,0-.09.28s.08.09.09.09A1.84,1.84,0,0,0,56.5,47S56.46,46.9,56.43,46.87ZM.69,16.65l.09.08.2-.25-.07-.06Zm9.49,12.41.11-.11c-.07-.07-.13-.15-.2-.21s-.06,0-.09.06Zm1.59.37-.1-.07-.19.32.07.05Zm1.07,16.15-.12,0-.1.42.1,0Zm50.25-2.66.08,0,.15-.23-.07-.05ZM23.71,10l.11-.1-.24-.2s-.06,0-.08,0ZM8.44,9.78a.74.74,0,0,0-.2,0,.53.53,0,0,0-.13.13c.05,0,.1.08.13.07S8.34,9.86,8.44,9.78ZM53.77,33.86v.08l.31,0s0-.11,0-.11Zm-41.35.52-.1,0-.11.26.14,0Zm42.79,1h.1l0-.38h-.09Zm-28.29.23c0-.09.07-.14.06-.18s-.06-.07-.09-.11-.09.09-.09.13S26.86,35.49,26.92,35.57Zm12.42,3.71.13.17s.06-.08.06-.11a1.19,1.19,0,0,0-.09-.15Zm-6,28a1.56,1.56,0,0,0-.2-.06.75.75,0,0,0-.12.07s.06.12.08.11A.85.85,0,0,0,33.3,67.23ZM49.61,31.52l0,0-.1.3.06,0Zm-8.55,8.42,0,.09.26-.18,0-.07ZM40.6,67.27c.06-.08.12-.13.11-.15a.57.57,0,0,0-.13-.14s-.08,0-.08.07A1.77,1.77,0,0,0,40.6,67.27ZM11.69,18.64c-.06-.06-.12-.13-.14-.12a.29.29,0,0,0-.14.13s.07.11.09.11A1.14,1.14,0,0,0,11.69,18.64Zm31.42,10.5h.06s.08-.07.08-.1a.87.87,0,0,0-.07-.17ZM11.46,46.67l-.1-.09a.37.37,0,0,0-.09.14s.05.06.08.09Zm22.2-18,0-.09c-.09,0-.19.05-.28.09l0,.11ZM62,52l0-.1-.28.11,0,.08ZM11.28,37.12l-.12.15.17.11.07-.07C11.37,37.25,11.33,37.2,11.28,37.12ZM9,28.3l0,.11a1.59,1.59,0,0,0,.21-.15s0-.07,0-.11ZM2.21,20l.07,0,.14-.31-.08,0ZM59.1,50l-.16.15.08.09.13-.14S59.12,50,59.1,50Zm-.19-.06v-.07s-.08,0-.1,0a.88.88,0,0,0-.15.12ZM2.13,21.05C2,21,2,21,2,21s-.08.06-.12.09.08.09.12.09S2,21.1,2.13,21.05ZM9.44,6.83l.09,0-.11-.27-.11.05Zm50,41.41c-.05.06-.11.12-.1.14a.8.8,0,0,0,.13.13.5.5,0,0,0,.08-.14S59.51,48.3,59.46,48.24ZM5.28,25.88l-.15.19s.09.08.11.07A.93.93,0,0,0,5.39,26Zm34.5,33.77-.05-.07-.24.21s0,0,0,.08Zm-.06-43.3-.2-.11s-.05,0-.08.06a.86.86,0,0,0,.13.14S39.63,16.4,39.72,16.35Zm-29,21.28.07-.15s-.08-.06-.09,0a.58.58,0,0,0-.1.12Zm39.7,3.94s0,.08,0,.1,0,.07.08.1l.07-.14Zm-11-16.28v.1h.26s0-.08,0-.12Zm19,38.84a1.46,1.46,0,0,0-.11.21s0,0,.08.08a1.88,1.88,0,0,0,.12-.18S58.5,64.19,58.45,64.13ZM8.6,27.51l-.07-.12s-.11.05-.12.09,0,.08.06.12Zm30.46-21,.17-.15s-.09-.1-.13-.09-.09.06-.11.11S39,6.48,39.06,6.54Zm8.5,14.06v-.07s-.1,0-.12,0-.07.09-.1.14Zm-45-.45-.08.06.15.22.07-.05Zm45.66,48s-.09-.07-.09-.06-.09.08-.09.13.06.06.1.09ZM10.42,8l.14-.18s-.07,0-.09,0a.41.41,0,0,0-.12.11S10.38,8,10.42,8ZM34,67.45l-.05,0s0,0,0,.07,0,0,.05,0ZM61.79,51.18l.1,0-.09-.29-.07,0ZM39.5,67c0-.05-.08-.1-.11-.09a.11.11,0,0,0-.09.06s0,.07,0,.1ZM56.26,51.32l.12.09a.32.32,0,0,0,.08-.12s-.06-.08-.07-.07A.57.57,0,0,0,56.26,51.32Zm-47.14.23c.09.05.13.1.17.09a.21.21,0,0,0,.09-.11s-.06-.07-.09-.07S9.21,51.5,9.12,51.55ZM.73,19.86c0-.12.07-.17.08-.22a.7.7,0,0,0,0-.14H.73Zm4-9.66-.15-.08s0,.08,0,.1.07.06.11.1ZM31.18,36.75l-.11-.17a.64.64,0,0,0-.08.14s0,.08.05.08A.6.6,0,0,0,31.18,36.75ZM62,53.19c-.08,0-.11-.07-.13-.06a1.07,1.07,0,0,0-.19.07s.07.09.1.08A.84.84,0,0,0,62,53.19ZM2.49,15.25,2.4,15.2l-.08.08.06,0ZM19.66,4.45l-.18-.08-.1,0s0,.08.06.09S19.51,4.48,19.66,4.45Zm20.49,11a.31.31,0,0,0,0,.09s0,0,.07,0a.28.28,0,0,0,.09-.07ZM29.71,8.48l0-.09-.28.08,0,.07Zm-.27,57.94c-.05,0-.09-.09-.11-.08a.27.27,0,0,0-.13.1s0,.09.06.13ZM17.69,55.13c-.06,0-.1-.08-.13-.08a.66.66,0,0,0-.13.08s.06.08.09.08A.8.8,0,0,0,17.69,55.13ZM2,16c0,.08-.08.13-.07.15a.38.38,0,0,0,.11.11s0-.07,0-.1A1.14,1.14,0,0,0,2,16Zm47,52-.14-.16s-.09.08-.1.13.06.09.1.1S49,68.06,49.08,68ZM4.77,9.35,4.59,9.2a.28.28,0,0,0-.08.11s0,.1.06.1A.63.63,0,0,0,4.77,9.35Zm56,45.22-.11.08s0,.06.06.06a.11.11,0,0,0,.09,0S60.8,54.62,60.78,54.57ZM56.29,53c0,.08,0,.11,0,.13l.11.12s.05-.07,0-.08A.91.91,0,0,0,56.29,53Zm8,4,.1-.1s-.05-.06-.07-.06-.07.05-.11.07Zm-2.79.12-.11,0s.06.08.09.08.08-.05.13-.07ZM20,49.66l0-.08s0,0,0,.07,0,.05,0,.07ZM8.76,49.09c-.06.13-.1.18-.1.23s.06.08.09.12a.37.37,0,0,0,.07-.12A.94.94,0,0,0,8.76,49.09ZM56,49l-.09-.09s-.07.05-.08.09,0,.06.08.07S56,49.06,56,49ZM64.75,48a.78.78,0,0,0-.12.17s0,0,0,.07a.52.52,0,0,0,.11-.1S64.77,48.06,64.75,48Zm-7.83-.82c0,.06-.07.1-.06.12a1.19,1.19,0,0,0,.09.15s.09-.06.08-.07A1.44,1.44,0,0,0,56.92,47.15Zm-15.46,11,0,0s0,0,0,0a.08.08,0,0,0,0,0Zm8.48-18.81-.09,0a.69.69,0,0,0-.05.13s.06,0,.09.06a.75.75,0,0,0,.07-.12A.25.25,0,0,0,49.94,39.36Zm-11.63-.42a.79.79,0,0,0-.16-.1s0,.06-.07.09a.94.94,0,0,0,.12.09S38.26,39,38.31,38.94Zm-1.63-.16,0,.07s.06,0,.09,0a.5.5,0,0,0,.13,0Zm22.85-1.25-.13-.12s-.07.06-.07.09a.75.75,0,0,0,.07.12Zm-.89,0-.11-.16-.08.05a.54.54,0,0,0,.09.12S58.59,37.54,58.64,37.53Zm-.81-1.2,0,.07s0,0,0-.07,0,0,0-.06Zm-28.1-.27-.18-.14-.07.21ZM43.06,61.15c-.09,0-.12-.06-.16-.06s-.06,0-.09,0,0,.08.06.09A1.1,1.1,0,0,0,43.06,61.15ZM13.3,33.82s.06-.07.06-.1a.47.47,0,0,0-.06-.09s-.07,0-.07.08S13.26,33.77,13.3,33.82Zm-3.55-4.3.2.17,0-.07a1,1,0,0,0-.11-.17S9.81,29.48,9.75,29.52Zm34-1.41L43.6,28s-.06.05-.06.07a.23.23,0,0,0,.07.1S43.66,28.13,43.73,28.11Zm-10.22,0,.12-.13-.12-.09s-.08.05-.08.07A.76.76,0,0,0,33.51,28.08Zm-7.6-1.77a.76.76,0,0,0-.08.15s.06.06.09.08.07-.07.08-.11S26,26.37,25.91,26.31ZM29.61,24c-.05.06-.09.09-.09.12a.4.4,0,0,0,0,.15s.08,0,.08-.07A.83.83,0,0,0,29.61,24Zm-2.89-.51a.84.84,0,0,0-.09.22s.06,0,.09.05a.8.8,0,0,0,.08-.16S26.76,23.57,26.72,23.51Zm-6.28-2.57-.06,0s-.06.08-.05.11.06.08.08.12Zm-1.17,0-.11,0,.12.28.08,0ZM4.11,20.13c0-.12.09-.16.09-.21s0-.06,0-.1-.09.05-.1.09S4.08,20,4.11,20.13Zm37-1.77c0-.07.08-.11.07-.13a1,1,0,0,0-.12-.16s0,.09,0,.13A.5.5,0,0,0,41.12,18.36ZM5.36,17.43s-.06,0-.07,0a.08.08,0,0,0,0,.06s0,0,0,.05Zm29-3.29-.06-.06-.18.21.06.05Zm3.13-.38-.21-.06a.54.54,0,0,0-.13.07s0,.09.07.09A1.36,1.36,0,0,0,37.45,13.76Zm-3.86-.14-.07,0,.07.3.09,0ZM45.16,13,45,12.85a.53.53,0,0,0,0,.12s0,.08.07.08S45.09,13,45.16,13Zm-7.7-.35c0,.08-.06.12-.05.15a.19.19,0,0,0,.1.1s.06,0,.09-.06Zm-6.14-.33.14.07h.09s0-.08-.08-.09S31.4,12.31,31.32,12.32Zm5.28-.46-.1-.09s-.07.07-.06.08a.88.88,0,0,0,.12.15Zm8.2-.34c0,.06-.06.08-.06.11a.31.31,0,0,0,.06.13s.07,0,.1,0ZM37,67.83l.09-.11L37,67.66l-.1,0Zm-17.9-58L19,10a.25.25,0,0,0,.12,0,.14.14,0,0,0,.07-.08S19.14,9.87,19.1,9.83Zm7.56-1.14c-.07,0-.12-.07-.13-.06a.6.6,0,0,0-.09.13s.06.05.08,0A.92.92,0,0,0,26.66,8.69ZM6.09,7.75c0-.06.08-.1.08-.11a.2.2,0,0,0-.09-.07S6,7.59,6,7.6Zm38,60.79L44,68.41s0,.08,0,.11a.19.19,0,0,0,0,.1Zm2.78,0,.12-.14s-.07-.06-.1,0-.08,0-.08.07S46.82,68.5,46.85,68.56Zm-20.22-62-.05.11.15.07s0-.05,0-.06A.79.79,0,0,0,26.63,6.51ZM45,68.75c-.12-.07-.16-.11-.18-.1a.78.78,0,0,0-.15.1Zm-28.69-66-.06,0h0l0,0Zm3.46-1.09-.15-.09-.05.08.15.07S19.75,1.72,19.77,1.69Z" transform="translate(-0.26 -0.09)"/><path d="M65.35,46.25l-.18-.12.18-.15Z" transform="translate(-0.26 -0.09)"/><path d="M45.81,12.2l.31.11c.12.34.23.65.33,1,0,.09.09.23,0,.28a2.76,2.76,0,0,1-.37.31,1,1,0,0,1,0-.39c.13-.52.14-.51-.39-.54,0,0-.1-.13-.09-.2a2.23,2.23,0,0,1,.1-.43Z" transform="translate(-0.26 -0.09)"/><path d="M32.17,37.5l.06,0,.45.38-.14.07c-.12-.2-.61,0-.46-.5Z" transform="translate(-0.26 -0.09)"/><path d="M11.85,16.63l0-.43.4.7h0l-.37-.11Z" transform="translate(-0.26 -0.09)"/><path d="M28.29,12.2c0,.11.13.22.12.33s-.19.08-.29.12l.1-.45Z" transform="translate(-0.26 -0.09)"/><path d="M39.16,57.48a1.13,1.13,0,0,1,.13-.27c.05-.06.15-.07.23-.1l-.06.26Z" transform="translate(-0.26 -0.09)"/><path d="M44.23,10.22l.34.22h0l-.28.18-.07-.17v-.22Z" transform="translate(-0.26 -0.09)"/><path d="M18.92,47.15,19.1,47c0,.06,0,.14,0,.19s-.17.25-.25.37l-.12-.17.19-.27Z" transform="translate(-0.26 -0.09)"/><path d="M25.64,52l.13-.07.29-.15-.13.24a.86.86,0,0,0,0,.17l0,0-.26-.06Z" transform="translate(-0.26 -0.09)"/><path d="M4.07,8.84l.1-.51.13,0-.06.5Z" transform="translate(-0.26 -0.09)"/><path d="M24.14,64.84l-.3,0c.12-.07.17-.57.37-.06Z" transform="translate(-0.26 -0.09)"/><path d="M13.09,57l-.18.19s-.08-.12-.08-.13l.25-.19Z" transform="translate(-0.26 -0.09)"/><path d="M20.25,10.5l-.34.14-.05-.1.39-.2Z" transform="translate(-0.26 -0.09)"/><path d="M11.68,53.88c-.14-.12-.42-.19-.18-.45l.17.15Z" transform="translate(-0.26 -0.09)"/><path d="M20.82,20.8l0-.3H21c0,.11-.06.23-.08.34A.1.1,0,0,0,20.82,20.8Z" transform="translate(-0.26 -0.09)"/><path d="M12.82,17l.23-.07c0,.05,0,.13,0,.15a.9.9,0,0,1-.22.06Z" transform="translate(-0.26 -0.09)"/><path d="M47.83,19.68v.22h-.16l0-.09.17-.27Z" transform="translate(-0.26 -0.09)"/><path d="M62.59,41.2h.35l-.16.09Z" transform="translate(-0.26 -0.09)"/><path d="M9,40l.18.27c-.08.18-.27.37-.24.53.07.46-.28.4-.48.51,0-.29-.05-.56-.05-.84s-.08-.43.27-.29c0,0,.06-.13.11-.16A.49.49,0,0,1,9,40Z" transform="translate(-0.26 -0.09)"/><path d="M8.64,46.1a.6.6,0,0,1,.23-.94s.19.1.19.11a4.67,4.67,0,0,1-.23.51,3.45,3.45,0,0,1-.2.32Z" transform="translate(-0.26 -0.09)"/><path d="M64.86,43.7c0,.32,0,.63,0,.95,0,.08-.12.15-.18.23-.06-.09-.19-.2-.17-.29,0-.3.15-.6.23-.91Z" transform="translate(-0.26 -0.09)"/><path d="M47.63,16.64c.07.28.15.53.19.79,0,0-.15.09-.24.12h-.24l.13-.18a.22.22,0,0,0,0-.08A.78.78,0,0,1,47.63,16.64Z" transform="translate(-0.26 -0.09)"/><path d="M1.13,12.33c.1.19.23.36.31.55a.43.43,0,0,1,0,.29s-.13,0-.2.06L1.14,13,1,12.36Z" transform="translate(-0.26 -0.09)"/><path d="M33.1,1.86l-.19-.18.25-.26.2.24Z" transform="translate(-0.26 -0.09)"/><path d="M46.71,14.84l.32.32c-.06.05-.16.13-.17.12s-.21-.21-.31-.32Z" transform="translate(-0.26 -0.09)"/><path d="M11.49,55.53l.18-.21.19.31-.39.21Z" transform="translate(-0.26 -0.09)"/><path d="M42.79,7.36c0,.14,0,.29,0,.44s-.13,0-.2,0V7.36Z" transform="translate(-0.26 -0.09)"/><path d="M47.13,16.57c0-.33,0-.63.47-.47Z" transform="translate(-0.26 -0.09)"/><path d="M20.49,62.91a1.78,1.78,0,0,1,.31-.23c.07,0,.17,0,.26,0l-.2.11-.3.21Z" transform="translate(-0.26 -0.09)"/><path d="M8.22,29.36l-.32-.42s0-.11,0-.16.1,0,.12.06.19.33.28.49Z" transform="translate(-0.26 -0.09)"/><path d="M47.22,15.92,47,15.78a1.79,1.79,0,0,1,.28-.2s.14.09.13.1S47.27,15.84,47.22,15.92Z" transform="translate(-0.26 -0.09)"/><path d="M1.06,14,.83,14c.07-.1.13-.22.21-.32s.09,0,.14,0a1.46,1.46,0,0,1,0,.22.45.45,0,0,1-.1.14Z" transform="translate(-0.26 -0.09)"/><path d="M62.12,61.54c0-.13-.07-.25-.09-.38s.08,0,.12-.07l.11.41Z" transform="translate(-0.26 -0.09)"/><path d="M43.71,8.29v.6h-.12l0-.63Z" transform="translate(-0.26 -0.09)"/><path d="M39.53,4.87l-.63-.09C39.21,4.55,39.45,4.58,39.53,4.87Z" transform="translate(-0.26 -0.09)"/><path d="M44.92,10.34l.19-.42.09.74-.28-.33Z" transform="translate(-0.26 -0.09)"/><path d="M8.81,42H8.74a2.85,2.85,0,0,0-.23.26s-.08-.11-.07-.14.18-.3.37-.13Z" transform="translate(-0.26 -0.09)"/><path d="M15.06,58.59l.14.35s-.12.05-.13,0l-.15-.34Z" transform="translate(-0.26 -0.09)"/><path d="M23.56,64.34c.05.13.22.3-.09.3a.75.75,0,0,1-.28-.11,1.74,1.74,0,0,0,.22,0,1.92,1.92,0,0,0,.17-.13Z" transform="translate(-0.26 -0.09)"/><path d="M1.72,24.45l.2-.31s.07,0,.11,0l-.16.35Z" transform="translate(-0.26 -0.09)"/><path d="M39.71,5.22l-.19-.36C39.84,4.85,40,5,39.71,5.22Z" transform="translate(-0.26 -0.09)"/><path d="M10.72,55.54l.14-.43.13,0-.12.44Z" transform="translate(-0.26 -0.09)"/><path d="M41.63,68.72l.37.08-.22.19h0l-.15-.29Z" transform="translate(-0.26 -0.09)"/><path d="M57.55,34.81a1.18,1.18,0,0,1,.25.19s-.06.11-.1.17l-.23-.27Z" transform="translate(-0.26 -0.09)"/><path d="M61.3,61.78a3.13,3.13,0,0,1,.3-.2l.1.11-.32.21Z" transform="translate(-0.26 -0.09)"/><path d="M1.94,23.92l.28-.21.06.09L2,24Z" transform="translate(-0.26 -0.09)"/><path d="M51,68.12l.34,0-.31.4Z" transform="translate(-0.26 -0.09)"/><path d="M4.5,26.2l-.22.16s-.06-.05-.09-.08l.26-.16Z" transform="translate(-0.26 -0.09)"/><path d="M12.76,57.4l-.17.14s-.11-.1-.1-.12a.28.28,0,0,1,.14-.12S12.7,57.35,12.76,57.4Z" transform="translate(-0.26 -0.09)"/><path d="M8.49,46.2a.83.83,0,0,1-.2.11s-.08-.05-.12-.07.06-.13.09-.14S8.38,46.15,8.49,46.2Z" transform="translate(-0.26 -0.09)"/><path d="M2.07,12.86l-.36,0,0-.17.32.14Z" transform="translate(-0.26 -0.09)"/><path d="M65,45.92l0-.32.12,0,0,.32Z" transform="translate(-0.26 -0.09)"/><path d="M8.43,51.66l-.13.19s-.1-.06-.1-.09a.76.76,0,0,1,.09-.18Z" transform="translate(-0.26 -0.09)"/><path d="M60.7,62.66c0,.06.12.1.15.16s-.08.09-.12.14c0-.1,0-.2,0-.3Z" transform="translate(-0.26 -0.09)"/><path d="M9.37,45.69a2.81,2.81,0,0,1,0-.29l.11,0,0,.31Z" transform="translate(-0.26 -0.09)"/><path d="M12.07,32l.3-.06,0,.1-.3,0Z" transform="translate(-0.26 -0.09)"/><path d="M3.07,9.33l0,.29H3l0-.29Z" transform="translate(-0.26 -0.09)"/><path d="M36.23,69l.21-.19s.07.09.06.09l-.2.17Z" transform="translate(-0.26 -0.09)"/><path d="M30.35,67l.1.31H30.3c0-.11.05-.21.07-.32Z" transform="translate(-0.26 -0.09)"/><path d="M11.32,55.09l.18.46Z" transform="translate(-0.26 -0.09)"/><path d="M9.8,31l-.27.14,0-.1L9.77,31Z" transform="translate(-0.26 -0.09)"/><path d="M46.72,13l-.1-.12a.46.46,0,0,1,.13-.08s.07.06.1.08Z" transform="translate(-0.26 -0.09)"/><path d="M64.31,42.37c0,.06,0,.1,0,.13a.39.39,0,0,1-.1.08.21.21,0,0,1,0-.11S64.27,42.42,64.31,42.37Z" transform="translate(-0.26 -0.09)"/><path d="M47.85,18.74l.06-.24.08,0-.16.22Z" transform="translate(-0.26 -0.09)"/><path d="M8.63,46.1l.22-.05-.08.15-.13-.11Z" transform="translate(-0.26 -0.09)"/><path d="M15.69,59.56l-.08-.1a.37.37,0,0,1,.14-.07s0,0,.06,0Z" transform="translate(-0.26 -0.09)"/><path d="M47.29,17.79l0,0s.06-.05.08-.05.06,0,.09,0Z" transform="translate(-0.26 -0.09)"/><path d="M12.26,31.54c0,.08,0,.17-.08.26h-.12l.2-.25Z" transform="translate(-0.26 -0.09)"/><path d="M3.51,8.85s-.08-.07-.07-.1a.42.42,0,0,1,0-.15s.08.05.09.08A.7.7,0,0,1,3.51,8.85Z" transform="translate(-0.26 -0.09)"/><path d="M45.93,68.67h.25l0,.1-.2-.1Z" transform="translate(-0.26 -0.09)"/><path d="M48.22,21.55l-.15.22,0,0,.1-.24Z" transform="translate(-0.26 -0.09)"/><path d="M9.41,53.74l-.1-.19.06,0,.09.19Z" transform="translate(-0.26 -0.09)"/><path d="M11.63,56.88c0,.06,0,.1,0,.13s-.05.06-.08.09S11.49,57,11.5,57A.81.81,0,0,1,11.63,56.88Z" transform="translate(-0.26 -0.09)"/><path d="M8.18,42.36c0,.06.09.09.1.14s0,.09-.07.09a.66.66,0,0,1-.13-.08Z" transform="translate(-0.26 -0.09)"/><path d="M8.73,41.69l-.05-.33h.07l0,.35Z" transform="translate(-0.26 -0.09)"/><path d="M62.89,40.29c-.06.05-.09.1-.12.1s-.09,0-.13,0a.33.33,0,0,1,.1-.06Z" transform="translate(-0.26 -0.09)"/><path d="M61.52,38.52l.2-.1.05.12-.25,0Z" transform="translate(-0.26 -0.09)"/><path d="M62.87,60.1s0,0,0-.05,0,0,0-.06l.07.06Z" transform="translate(-0.26 -0.09)"/><path d="M60.72,37.1l-.1.06s0,0,0-.07,0,0,.08-.07Z" transform="translate(-0.26 -0.09)"/><path d="M59.24,36l-.09.11-.07,0a.24.24,0,0,1,.06-.11Z" transform="translate(-0.26 -0.09)"/><path d="M62.47,61.09c0-.06,0-.1,0-.13a.42.42,0,0,1,.08-.12s.05.06.05.08A1.47,1.47,0,0,1,62.47,61.09Z" transform="translate(-0.26 -0.09)"/><path d="M18.47,61.24v.34a.42.42,0,0,1-.08-.12S18.41,61.39,18.47,61.24Z" transform="translate(-0.26 -0.09)"/><path d="M61.94,61.85s-.06-.08-.06-.11,0-.05.07-.08.06.06.06.08S62,61.81,61.94,61.85Z" transform="translate(-0.26 -0.09)"/><path d="M52.47,31.73c0,.1.05.14,0,.17s-.07.06-.11.09,0-.08,0-.12S52.43,31.8,52.47,31.73Z" transform="translate(-0.26 -0.09)"/><path d="M50.9,31.32c0,.05.08.08.09.11s0,.07,0,.1a.16.16,0,0,1-.07-.07A.93.93,0,0,1,50.9,31.32Z" transform="translate(-0.26 -0.09)"/><path d="M8.38,28.09l-.17.14,0-.06L8.34,28Z" transform="translate(-0.26 -0.09)"/><path d="M21.12,63.41l-.1-.06s.05-.08.08-.09.06,0,.09.06Z" transform="translate(-0.26 -0.09)"/><path d="M22,63.64c-.1,0-.14,0-.16,0a.16.16,0,0,1-.07-.07s0,0,.08,0A.53.53,0,0,1,22,63.64Z" transform="translate(-0.26 -0.09)"/><path d="M4.65,27.57c-.08.05-.13.09-.14.08a.45.45,0,0,1-.13-.11s.07-.05.1-.05Z" transform="translate(-0.26 -0.09)"/><path d="M2.82,25.33a1.12,1.12,0,0,1,0-.13s0,0,0-.07a.73.73,0,0,1,.09.08S2.87,25.25,2.82,25.33Z" transform="translate(-0.26 -0.09)"/><path d="M25.14,65.7s0-.07,0-.08a.26.26,0,0,1,.1-.07l.05.09Z" transform="translate(-0.26 -0.09)"/><path d="M5.13,7.49c0,.07,0,.11,0,.12a.2.2,0,0,1-.09.07s0,0-.08-.06Z" transform="translate(-0.26 -0.09)"/><path d="M34,68.21s0,0,0,0h-.07v0Z" transform="translate(-0.26 -0.09)"/><path d="M5.47,7.3l-.06,0a.39.39,0,0,1-.08-.1l0-.07Z" transform="translate(-0.26 -0.09)"/><path d="M35.14,68.38l-.19.14,0-.08.23,0Z" transform="translate(-0.26 -0.09)"/><path d="M35,68.9c-.05,0-.09,0-.1,0s-.06-.07,0-.1,0,0,.08-.08Z" transform="translate(-0.26 -0.09)"/><path d="M41.78,69l-.26.13V69l.27-.05Z" transform="translate(-0.26 -0.09)"/><path d="M47.42,42.53l.49.2a.37.37,0,0,1,.11.09c-.06.08-.15.22-.17.21a2.22,2.22,0,0,1-.5-.28S47.42,42.56,47.42,42.53Z" transform="translate(-0.26 -0.09)"/><path d="M52.29,45.38l.15.12c-.08.17-.16.32-.25.48,0,0-.17-.11-.16-.13S52.19,45.55,52.29,45.38Z" transform="translate(-0.26 -0.09)"/><path d="M34,38.29c.08,0,.25.53.18.56s-.16,0-.16,0a4.86,4.86,0,0,1,0-.54Z" transform="translate(-0.26 -0.09)"/><path d="M46,42.35h-.44L46,42c.05.06.12.11.13.18s-.06.12-.1.18Z" transform="translate(-0.26 -0.09)"/><path d="M47.23,43h-.12l-.42-.33c.08,0,.2-.06.25,0s.08.18.13.26S47.14,42.91,47.23,43Z" transform="translate(-0.26 -0.09)"/><path d="M51.67,45l-.14.13-.3-.23c.06,0,.12-.11.16-.09A1.54,1.54,0,0,1,51.67,45Z" transform="translate(-0.26 -0.09)"/><path d="M40.33,41.16l.43-.38.06.06-.42.42Z" transform="translate(-0.26 -0.09)"/><path d="M48.66,57.83l-.28,0,.08-.27.19.32Z" transform="translate(-0.26 -0.09)"/><path d="M24.78,35.89v-.22l.41.2,0,.1Z" transform="translate(-0.26 -0.09)"/><path d="M52.91,46.94l.12-.4.1,0L53,47Z" transform="translate(-0.26 -0.09)"/><path d="M42.9,41.39l.14.26-.18.07.06-.34Z" transform="translate(-0.26 -0.09)"/><path d="M52.06,45.17a1.15,1.15,0,0,1-.19.16s-.08-.06-.12-.09.07-.11.12-.12S52,45.14,52.06,45.17Z" transform="translate(-0.26 -0.09)"/><path d="M36.16,39.41l-.12.34-.09,0,.1-.35Z" transform="translate(-0.26 -0.09)"/><path d="M37.65,40,38,39.8l0,.12-.36.06Z" transform="translate(-0.26 -0.09)"/><path d="M39.79,40.59l.21.07s0,.1,0,.15l-.2-.17Z" transform="translate(-0.26 -0.09)"/><path d="M55.09,49.39l.16.29-.08.06L55,49.47Z" transform="translate(-0.26 -0.09)"/><path d="M31.46,37.13l.26.09-.16.09c0-.06,0-.13-.08-.19Z" transform="translate(-0.26 -0.09)"/><path d="M46.17,58l.32-.2c-.05.23-.05.23-.32.2Z" transform="translate(-0.26 -0.09)"/><path d="M49.85,44.24,49.64,44l.07,0,.19.27Z" transform="translate(-0.26 -0.09)"/><path d="M53.73,46.64V47l-.16,0c.06-.1.11-.21.17-.32Z" transform="translate(-0.26 -0.09)"/><path d="M28.66,37.5c.05.11.08.16.07.18a.3.3,0,0,1-.11.07s-.06,0-.06-.06A1.88,1.88,0,0,1,28.66,37.5Z" transform="translate(-0.26 -0.09)"/><path d="M55.18,48.84l0,.08L55,48.78l.06-.05Z" transform="translate(-0.26 -0.09)"/><path d="M30.72,38c-.07,0-.1.06-.13.06s0-.06-.05-.1.05,0,.07,0A.48.48,0,0,1,30.72,38Z" transform="translate(-0.26 -0.09)"/><path d="M30.18,37.24a1.31,1.31,0,0,1-.21.08l0,0,.28,0Z" transform="translate(-0.26 -0.09)"/><path d="M31.73,38.14c.06.07.1.09.1.12a.42.42,0,0,1,0,.15s-.07,0-.08-.09A.77.77,0,0,1,31.73,38.14Z" transform="translate(-0.26 -0.09)"/><path d="M22.82,50.1a.25.25,0,0,0,0,.07s0-.06,0-.09,0,0,.05-.06Z" transform="translate(-0.26 -0.09)"/><path d="M18.84,46.45l.06,0-.09.07-.06,0Z" transform="translate(-0.26 -0.09)"/><path d="M45.58,42.84l0,0a.33.33,0,0,1-.06-.1s0-.05,0-.08Z" transform="translate(-0.26 -0.09)"/><path d="M46,42.36l.2.12-.12.06a1.46,1.46,0,0,0-.07-.19Z" transform="translate(-0.26 -0.09)"/><path d="M42.92,41.38l-.24-.06,0-.07.19.14Z" transform="translate(-0.26 -0.09)"/><path d="M40.65,41.42l.11-.29v.15Z" transform="translate(-0.26 -0.09)"/><path d="M39,40.06c-.08,0-.12,0-.15,0a.73.73,0,0,1,0-.09s.06,0,.08,0Z" transform="translate(-0.26 -0.09)"/><path d="M35.64,39.25s.07.08.07.1-.05.08-.07.08a.19.19,0,0,1-.08-.07S35.6,39.3,35.64,39.25Z" transform="translate(-0.26 -0.09)"/><path d="M34.68,38.37l-.23-.06a.35.35,0,0,0,0-.07l.23,0Z" transform="translate(-0.26 -0.09)"/><path d="M23.23,35.86c.06.06.09.09.08.09a.39.39,0,0,1-.08.1s-.05,0-.05-.07A.31.31,0,0,1,23.23,35.86Z" transform="translate(-0.26 -0.09)"/><path d="M27.26,11.52h-1C26.63,11.15,26.92,10.84,27.26,11.52Z" transform="translate(-0.26 -0.09)"/><path d="M31.49,13.88l-.09.27c-.36.2-.22-.21-.34-.31Z" transform="translate(-0.26 -0.09)"/><path d="M29.66,12.49l-.17.65h0l-.16-.56.34-.09Z" transform="translate(-0.26 -0.09)"/><path d="M21.29,10.44l-.31.22-.07-.11.29-.22Z" transform="translate(-0.26 -0.09)"/><path d="M19,10.7a1.57,1.57,0,0,1-.24.08.6.6,0,0,1-.15-.09s.1-.1.16-.11S18.86,10.63,19,10.7Z" transform="translate(-0.26 -0.09)"/><path d="M27.86,11.19a1.83,1.83,0,0,1,.24.22s-.05.08-.08.12a1.32,1.32,0,0,1-.22-.18S27.83,11.27,27.86,11.19Z" transform="translate(-0.26 -0.09)"/><path d="M29.49,13.14l.34,0,0,.17-.29-.2Z" transform="translate(-0.26 -0.09)"/><path d="M27.52,11.44l.26.35-.09.07-.25-.35Z" transform="translate(-0.26 -0.09)"/><path d="M30.42,13.83l.06-.3.1.06c0,.09-.06.17-.08.26Z" transform="translate(-0.26 -0.09)"/><path d="M30.05,12.9c-.15,0-.21.07-.25,0s-.05-.08-.07-.12h.12Z" transform="translate(-0.26 -0.09)"/><path d="M34.53,18.16l-.14.1a.7.7,0,0,1-.13-.16s.06-.06.08-.05Z" transform="translate(-0.26 -0.09)"/><path d="M16.3,19l.07-.24.11,0-.19.2Z" transform="translate(-0.26 -0.09)"/><path d="M15,11.37a1.59,1.59,0,0,1,.12.16.17.17,0,0,1-.06.08.44.44,0,0,1-.15,0Z" transform="translate(-0.26 -0.09)"/><path d="M38.53,23.82l-.14-.18.15,0c0,.07,0,.15,0,.23Z" transform="translate(-0.26 -0.09)"/><path d="M38,21.7l-.07.29-.08,0,.15-.23Z" transform="translate(-0.26 -0.09)"/><path d="M29.34,13.66l-.08.1a.56.56,0,0,1-.07-.13s0-.05.08-.07Z" transform="translate(-0.26 -0.09)"/><path d="M28.79,13c.09,0,.15-.1.19-.09s.07.08.1.12-.06.06-.08,0A1.19,1.19,0,0,1,28.79,13Z" transform="translate(-0.26 -0.09)"/><path d="M17.12,19.22l.25-.07v.12l-.24-.05Z" transform="translate(-0.26 -0.09)"/><path d="M33.82,24.65l-.11.08s0-.06,0-.09,0-.06,0-.06S33.77,24.62,33.82,24.65Z" transform="translate(-0.26 -0.09)"/><path d="M11.22,15.83l-.05.13s-.08-.05-.08-.08,0-.06.05-.1Z" transform="translate(-0.26 -0.09)"/><path d="M30.34,13.38l-.09.08a.28.28,0,0,1-.07-.09s0-.06,0-.06Z" transform="translate(-0.26 -0.09)"/><path d="M17.15,11l-.18.18-.07-.08.18-.17Z" transform="translate(-0.26 -0.09)"/><path d="M37.79,17.07l.28-.05,0,.1-.27.06Z" transform="translate(-0.26 -0.09)"/><path d="M59.26,63l0-.21.18.19h-.21Z" transform="translate(-0.26 -0.09)"/><path d="M7.12,11.52l-.21.2-.07-.1.22-.16Z" transform="translate(-0.26 -0.09)"/><path d="M11,53.14l.27.2C11.05,53.45,11,53.45,11,53.14Z" transform="translate(-0.26 -0.09)"/><path d="M29.53,10.34l.19.19C29.42,10.71,29.59,10.41,29.53,10.34Z" transform="translate(-0.26 -0.09)"/></g></g></svg>