<svg xmlns="http://www.w3.org/2000/svg" viewBox="0 0 29.81 75.6"><title>xxiv-one-black</title><g id="Layer_2" data-name="Layer 2"><g id="Layer_3" data-name="Layer 3"><path d="M29.84,8.94c-.08.17-.18.33-.24.5a1.43,1.43,0,0,0-.07.38c.15,0,.38.09.5-.2l.09,0a1.15,1.15,0,0,1,.07.36,1.86,1.86,0,0,1-.1.39.15.15,0,0,1-.07.1c-.27.11-.27.11-.17.36h0l.09.48h0c0,.05.06.11,0,.13-.1.18-.09.21.05.33a.32.32,0,0,1,.09.22,2.29,2.29,0,0,1,0,.37L30,12.27l0,.13.1-.08.25-.31c.1.13-.14.41.19.36a.8.8,0,0,1,0,.15c-.08.17-.17.33-.26.5L30,12.78c-.14.21-.15.38.14.47v.14c-.13.2,0,.2.15.2l.08.2h0l-.25.17h0c-.22.13-.23.27,0,.4h0c0,.2-.11.4-.15.6a1.93,1.93,0,0,0,0,.34l.3-.16a3.56,3.56,0,0,1,.18.35.34.34,0,0,1,0,.2c0,.06-.13.12-.12.17a3.78,3.78,0,0,0,.13.56l.36-.29c-.12.19.31.48-.2.58.47.17.23.58.33.87a3.05,3.05,0,0,1,.16.74c0,.19,0,.38,0,.58,0,.56,0,1.12,0,1.68,0,.77.13,1.54.21,2.31,0,.1.1.19.09.28s-.1.29-.09.42a7.08,7.08,0,0,0,.16.8,1.46,1.46,0,0,1,0,.29,2.9,2.9,0,0,0,0,.83,8.27,8.27,0,0,1,.05,1.72,4.31,4.31,0,0,1,0,.88c0,.12-.15.31-.25.32-.32,0-.15.27-.2.41l.26,0c.06,0,.17.05.17.07a3.9,3.9,0,0,1-.16.77c0,.09-.3.1-.07.28,0,0,0,.09,0,.09-.34.08-.07.23-.05.35s.07.47.11.7c0,0,0,.06,0,.06.7.22,0,.81.32,1.14-.05,0-.13.12-.14.11-.33-.29-.39.13-.58.21.08.14.15.28.23.41s.06.06.13.12a.9.9,0,0,1,.09-.29.43.43,0,0,1,.21-.06s.05.08,0,.12c0,.27-.06.53-.08.79a.37.37,0,0,0,.06.22c.21.43.46.85.06,1.31,0,0,0,.2.06.29.23.45.06.92.07,1.37s0,.72.09,1.07c0,.16.2.34-.07.46,0,0,0,0-.05.06.29.06.07.26.08.37,0,.48,0,1,.05,1.43a5.75,5.75,0,0,0,0,1.1c0,.26,0,.34-.22.42s-.17.15-.25.23.18-.07.22,0,.29.21.29.31c0,.26-.12.51-.14.76a3,3,0,0,0,0,1.2,1.06,1.06,0,0,1,.09.6c-.07.38-.1.76-.15,1.14l-.24,0,0,.17.19-.15c.3.51.27.72-.13,1.24-.06.08,0,.24,0,.36l.37-.18a2,2,0,0,1,0,.24c0,.07-.11.15-.09.2a.92.92,0,0,1-.22.91c-.12.16,0,.47-.05.72s.2.49,0,.74c0,0,0,.09,0,.1.55.34.28.86.29,1.31a7.36,7.36,0,0,1,0,1c0,.55-.1,1.1-.15,1.64,0,.07.05.15.05.22s0,.28,0,.42,0,.42,0,.63-.12.43-.14.65-.15.32.07.47.11.38.05.42c-.28.19-.11.36-.07.57a3.55,3.55,0,0,1,0,.92c0,.37,0,.73-.09,1.09,0,.19.1.46-.22.56,0,0,0,.22,0,.33a2.85,2.85,0,0,0,0,1c.16.44-.15.75-.18,1.13,0,.06-.06.13,0,.16A1.18,1.18,0,0,1,31.08,64c-.1.23-.47.55-.09.88-.07.06-.12.16-.19.18-.22.06-.36.1-.3.4a2,2,0,0,1-.13.7c-.08.32.14.31.28.3-.18.21-.46.41-.51.66s.16.52.26.78h0V68l-.17.08.05.07L30.4,68a.38.38,0,0,1,0,.51c-.06.06-.13.18-.11.23a.52.52,0,0,1,0,.74.22.22,0,0,0,0,.18A1.44,1.44,0,0,1,30.13,71s0,0,0,.06c-.08.48-.13,1-.24,1.44a5.64,5.64,0,0,1-.38,1.29c-.08.17-.37.2-.38.51a2.08,2.08,0,0,1-.32.69.8.8,0,0,1-.34-.11.7.7,0,0,1-.2-.32c-.08-.21.14-.09.14-.11a2.78,2.78,0,0,0,.14-.55,1.24,1.24,0,0,0-.11-.36c-.18.12-.18.12-.13.39,0,0-.06.07-.08.11a1.81,1.81,0,0,0-.29,1l-.12.11c0-.07-.05-.14-.08-.2l0-.24-.06,0,.09.22a1.5,1.5,0,0,0-.75.43l-.16-.08c-.26-.28-.54-.23-.64.11a1.4,1.4,0,0,0,0,.29,1.37,1.37,0,0,1,.17-.17l.06-.05c.15.34.21-.12.33,0l.09.1s0,.12,0,.15c.52.48-.14.38-.24.56l-.11,0,.26-.5a5,5,0,0,0-.45.3,1.1,1.1,0,0,0-.14.21c-.09-.06-.21-.1-.25-.19a.93.93,0,0,1,.24-1,.18.18,0,0,0,0-.16c-.1-.07-.21-.11-.31-.17-.12.25-.28.27-.53.18-.42-.16-.3.14-.25.42L25.1,75s.07,0,.06,0,0,.33,0,.34c-.44.09-.42.58-.74.76a.73.73,0,0,1,0-1,1,1,0,0,0,.1-.68c-.11-.39.12-.71.13-1.07s0-.43.06-.73l-.33.27s-.07-.07-.07-.1c.11-.88.23-1.75.33-2.63a2.72,2.72,0,0,0,0-.9c0-.08-.28-.11-.44-.15s-.12,0-.18.06c-.39.11-.41.19-.23.47-.19.22-.37.41-.53.62,0,0,0,.1.07.15s.26.3.24.42a3.54,3.54,0,0,1-.3.66l-.21-.11v0c-.12-.15-.22-.25.07-.36.1,0,.13-.31.19-.48l-.14,0a.75.75,0,0,0-.09.15,1.31,1.31,0,0,1-.08.21s-.15,0-.15,0a.33.33,0,0,1,0-.26,1.3,1.3,0,0,0,.18-1c0-.15-.13-.29-.17-.43s-.08-.43-.12-.64,0-.33-.05-.35a1.3,1.3,0,0,0-.67-.09c-.09,0-.38.16-.28.46s.1.53-.31.23c-.05,0-.26.14-.38.23s-.06.08-.09.13c-.14-.36-.14-.35.27-.55a1.14,1.14,0,0,0,.27-.23c-.08-.08-.18-.24-.24-.22a.71.71,0,0,0-.28.19,4.6,4.6,0,0,1-.29-.63,1.77,1.77,0,0,1,0-.52c0-.52,0-1,0-1.56s0-1.07,0-1.6,0-1.08,0-1.62.09-1.12.09-1.69-.08-.88-.11-1.32a2.74,2.74,0,0,1,0-.5c0-.1.06-.23,0-.3-.27-.51-.08-1-.1-1.54a4.27,4.27,0,0,1-.09-1.11c.12-.47-.12-.95.11-1.4,0,0,0-.14,0-.22s0-.35,0-.53,0-.07,0-.07c-.35-.21,0-.47,0-.7a1.67,1.67,0,0,1-.08-.87c.18-.43-.15-.84.06-1.28a2.25,2.25,0,0,0,0-1c0-.31,0-.63,0-.94a11.75,11.75,0,0,0,0-1.57c-.06-.46.13-.91-.09-1.39-.1-.24.12-.61.13-.93,0-.58,0-1.17,0-1.75a1,1,0,0,1,.08-.29c0-.09.09-.19.07-.26a.8.8,0,0,1,.11-.84s0-.06,0-.07c-.32-.32.11-.61,0-.9s0-.46-.06-.61a.87.87,0,0,1,0-.69,6.67,6.67,0,0,0-.07-.89.2.2,0,0,1,0-.11c0-.34,0-.68,0-1,0,0,0,0,0-.07.31-.9-.05-1.81.08-2.72s.07-1.94.13-2.91a3.63,3.63,0,0,1,.24-.75c0-.1.05-.25,0-.3A.84.84,0,0,1,21,29.77s0-.05,0-.08a3.51,3.51,0,0,1,.06-.8.5.5,0,0,0-.06-.5c-.08-.12,0-.39.09-.59s.1-.17.09-.25a3.76,3.76,0,0,1-.17-.66,5,5,0,0,1,.12-.74,3.57,3.57,0,0,0,0-.46,1,1,0,0,1,0-.46,2.16,2.16,0,0,0,0-1.6,3.36,3.36,0,0,1,0-.84c0-.52,0-1,.07-1.56,0-.27.05-.55.06-.82,0-.07-.08-.19-.11-.19a.36.36,0,0,0-.23.11c-.32.41-.45.93-.94,1.23a1.84,1.84,0,0,0-.53.66,10.2,10.2,0,0,1-1.44,1.7c-.2.22-.38.48-.59.68s-.71.62-1.06.93c-.06.06-.15.12-.16.18s-.17.26-.37.3-.71.13-.62.63a.15.15,0,0,1,0,.1c-.67.12-1,.76-1.5,1.06-.18.11-.27.37-.55.21,0,0,0,.08,0,.12s0,.1,0,.11c-.28.18-.42.57-.85.56-.06,0-.16,0-.24.2s-.5.45-.78.65a.24.24,0,0,1-.2,0c-.2-.14-.34-.17-.36.15,0,0-.08.11-.08.11s-.24-.13-.26-.22c-.06-.24-.12-.29-.3-.1a.24.24,0,0,1-.2-.07c-.15-.33-.37-.36-.66-.07a5.56,5.56,0,0,1-.5.47c-.08.06-.27.19-.21-.11,0,0-.09-.1-.14-.15l-.09.17c-.21.54-.4,1.1-1,1.34l0,0c.13-.43.25-.86.39-1.28.06-.18.17-.34.24-.52,0,0-.13-.14-.16-.12a3.55,3.55,0,0,1-.62.29L7.62,29s0-.06,0-.1H7.51a1,1,0,0,0-.68.5s0,0,0,0a6.19,6.19,0,0,0-.37-.73c0-.06-.26,0-.4,0a1.82,1.82,0,0,0,0,.33s.11,0,.16,0a1.08,1.08,0,0,0,.18-.11s0,.1,0,.13a1,1,0,0,1-.19.17c-.15.07-.31.12-.46.18l0-.43a2.32,2.32,0,0,1-.33.29,1.89,1.89,0,0,1-.25.11,2.25,2.25,0,0,1,.08-.24c0-.17.12-.34.17-.51s-.09-.09-.14-.13a.3.3,0,0,1,0,.16c-.07.14-.15.27-.22.4a1.05,1.05,0,0,0-.13-.26c-.11-.15-.25-.29-.37-.43h0l.19,0s.1-.08.11-.12,0-.08-.08-.12c-.15.13-.49-.13-.52.25v.11c-.21.27-.2.26-.51,0a2.26,2.26,0,0,0-.26-.16,2.75,2.75,0,0,0,.38-.2c.14-.09.27-.2.4-.29l-.07,0a1.39,1.39,0,0,0,.23-.31c.12-.28.42-.51.31-.87l.3-.07.16.19.14-.21-.3,0,.13-.48H5a1.09,1.09,0,0,1,.27-.21c.11-.05.27-.12.36-.07.31.14.09-.16.18-.19h0c.18.11.35.23.19.48l-.36.12s0,.12,0,.13.21.07.23,0a1,1,0,0,0,.09-.3c.08-.08.21-.15.23-.25s-.07-.35.19-.38c-.11-.49.34-.31.5-.46a4.74,4.74,0,0,0,.59-.91.34.34,0,0,1,.26-.14c.15,0,.38-.3.38-.52a1.21,1.21,0,0,1,.11-.3l.26-.57,0,0,.26-.08-.1-.17h0a1.64,1.64,0,0,1,.71-.76.56.56,0,0,0,.17-.09s.16-.52.17-.52l.16.09.09.16.32-.32s0-.07,0-.11L9.94,21s0,0,0,0a1.34,1.34,0,0,1,.05-.35.6.6,0,0,1,.18-.21,4.4,4.4,0,0,0,.46-.4,8.85,8.85,0,0,0,.64-.84c.07-.09.09-.21.16-.3a2.2,2.2,0,0,1,.23-.2c.08-.08.33-.09.13-.3,0,0,0-.14.06-.18.28-.28.58-.53.85-.82a1.88,1.88,0,0,0,.25-.49.23.23,0,0,0,0-.07c.36,0,.14-.33.27-.48s.24-.42.4-.6.42-.35.6-.55.33-.2.1-.4a1.31,1.31,0,0,1,.22-.3s.12,0,.17,0,.28-.19.42-.29l-.3-.17a8.18,8.18,0,0,0,.62-.67.65.65,0,0,0,.05-.4.48.48,0,0,1,.55-.55.81.81,0,0,0,.45-.06l-.08,0c-.55,0-.6-.09-.41-.56a4.07,4.07,0,0,1,.33-.66c.13-.2.32-.35.44-.55s.2-.47.33-.7c.24-.41.51-.8.76-1.2.07-.13.1-.29.18-.42s.33-.47.48-.72.44-.8.68-1.19c.06-.1.19-.16.28-.24s.1-.07.1-.1c-.07-.23.07-.36.22-.47s.17,0,.25,0c0-.42.17-.58.6-.71a2.08,2.08,0,0,0,.45-.3h0a.75.75,0,0,0,.26.05.53.53,0,0,0,.32-.12s-.06-.18,0-.27c.05-.25.12-.5.19-.75H22l.19.65.1-.64h0c.42-.08.58-.4.7-.75A.58.58,0,0,1,23,2.66c.44.24.28-.19.37-.34h0c.19-.15.18-.14.33,0s.18,0,.2,0c.22-.31.43-.64.62-1a.56.56,0,0,0,.1-.28c0-.19-.09-.46.26-.22.14.1.23-.5.37,0a2.1,2.1,0,0,1,0,.5.48.48,0,0,0,0,.24,2.36,2.36,0,0,0,.24.33L26,1.82c.05,0,.11-.07.11-.11,0-.23,0-.46.33-.39.07,0,.17-.14.27-.23.06.49-.38,1,.18,1.5A3.27,3.27,0,0,0,27,2.18c0-.12,0-.33,0-.37a2.82,2.82,0,0,1,.72-.35c.15-.06.3,0,.26.24s.07.22.07.33a.56.56,0,0,1-.06.24c-.11-.08-.23-.18-.36-.26a.18.18,0,0,0-.16,0c0,.05,0,.18-.09.2-.24.11-.3.31-.37.55,0,.08-.22.12-.34.18l-.22-.13,0,.1.21.08a1,1,0,0,0-.1.17,1.64,1.64,0,0,0,0,.22c.05,0,.1-.07.15-.07s.13.09.19.08a.63.63,0,0,0,.33-.12,3,3,0,0,0,.29-.41.22.22,0,0,1,.18,0c.13.11.19.11.27-.07s.36-.13.56-.09a.17.17,0,0,1,.06.14,1.33,1.33,0,0,1-.12.37s-.08,0-.13.07l.16.18c.12.12.29.21.36.35s-.12.23-.18.35L28.8,4l-.09,0,0,.28c.31.13,0,.32,0,.48a2,2,0,0,1,.06.59c0,.22-.19.39,0,.64a2.14,2.14,0,0,1,.23.8.59.59,0,0,1,0,.23c0,.13,0,.26-.08.39l.54.07a2.91,2.91,0,0,0-.15.47c0,.13,0,.32,0,.38.3.24,0,.24-.1.31l.18.1c.09.05.18.24.26,0,0,0,.1,0,.16,0v.18Zm-19,19.5-.26.35c.37,0,.3-.18.24-.37l.19-.07-.05-.07Zm3.25-2.78h-.37l.14.2.23-.2.19-.36C14,25.3,14,25.46,14.06,25.66ZM7.12,28.58c.08,0,.2,0,.22-.06a3.8,3.8,0,0,0,.18-.47c.27-.06.5-.43.82,0-.05-.11-.15-.15-.17-.21-.13-.54-.33-.16-.51,0a2.08,2.08,0,0,0-.21.21l-.39.55-.38.19.06.1ZM25.56,74c.2-.25.58-.44.23-.85a.41.41,0,0,1,.1-.24c.3,0,.26-.22.3-.36s-.12-.18-.18-.27c-.12.12-.38.07-.39.35a7.8,7.8,0,0,1-.13,1,.41.41,0,0,1-.18.21c-.06,0-.15,0-.22,0l.17-.25s-.11,0-.16,0a3.11,3.11,0,0,0-.41.11,1,1,0,0,1,.22.16s0,.12,0,.18c0,.23-.33.61.27.6-.1-.26-.15-.52.26-.56l.13.27.07,0ZM12.94,26.47l-.15,0c-.34.35-.7.69-1,1,0,.06,0,.2,0,.3a.75.75,0,0,0,.31-.15c.21-.2.38-.43.58-.64s.22-.18.3-.3S12.94,26.58,12.94,26.47Zm.43-8.39c.11-.21.24-.44.36-.68a1.55,1.55,0,0,0,0-.23s-.1,0-.14,0a.74.74,0,0,0-.43.42c-.05.09-.17.14-.26.22a1.31,1.31,0,0,0-.11.12c.05,0,.09.1.14.11Zm-.61,6.32h.18a1.57,1.57,0,0,0,.27-.4c0-.06-.13-.24-.23-.26-.33-.07-.16.32-.33.42A2.41,2.41,0,0,0,12.76,24.4Zm.11,3.26c.13-.22.25-.38.34-.55s-.08-.11-.12-.16c-.13.17-.27.33-.39.51C12.69,27.47,12.77,27.54,12.87,27.66ZM12.72,25c-.1,0-.17,0-.19.08a2,2,0,0,0-.22.34s.08.11.12.17c.08-.11.17-.21.24-.32A1.08,1.08,0,0,0,12.72,25ZM6.15,27.89,6,27.77l-.39.57.11.08Zm7-9.84-.08.58c.06,0,.13,0,.17,0S13.4,18.27,13.11,18.05Zm2.1,7-.12,0-.13.43.4.12Zm16.36,7-.27-.39-.16.38C31.4,31.61,31.37,32.14,31.57,32.08ZM19.36,20.36l-.15-.09-.28.43.15.1ZM9,22.86,9,22.81a1.16,1.16,0,0,0-.18.27c0,.05.05.12.08.18ZM25.18,72.77,25,72.71l-.11.38s.1,0,.11,0A3.54,3.54,0,0,0,25.18,72.77Zm-.63-.59.14,0,.1-.44s-.09,0-.1,0ZM13.87,17.45l.1.09.22-.27s-.08-.06-.09-.05Zm1.86-3.87.09.07.35-.41-.09-.08ZM25.16,2.66l.11.07.15-.44-.09,0ZM12.31,23.84l-.09-.06c-.08.12-.15.24-.22.36l.06.07c.07-.09.13-.19.19-.28ZM19.85,6.47l.12,0,.13-.31s-.09,0-.1,0Zm8.52.76-.11,0,.07.35.1,0Zm2.9,22h-.08l-.08.35h.09ZM28.83,68.3s-.08-.08-.12-.09-.07.05-.06.07a.35.35,0,0,0,.05.13ZM9.4,26.47l-.1-.07-.19.28.05.05Zm9.5-18.4-.07,0a1.13,1.13,0,0,0,.08.24H19Zm2.74-3.22-.11,0-.07.27s.09,0,.09,0A2.5,2.5,0,0,0,21.64,4.85Zm.66-.41c-.1-.05-.14-.09-.18-.09a1,1,0,0,0-.19.08s.07.08.11.08A2.15,2.15,0,0,0,22.3,4.44Zm-5.5,7.93c0,.05-.1.09-.1.12a.21.21,0,0,0,.1.13s.07,0,.11,0ZM12.09,28.24h0l.13.21.07,0Zm2.8-3.47h-.07v.36h.07Zm16-3.66-.11-.06c-.05.08-.1.15-.14.23l.08.07ZM21.34,39.94l.08,0-.1-.29-.07,0Zm5-35.72.18-.11c-.05,0-.1-.1-.15-.1s-.08.07-.12.11ZM11.8,19.42c0-.05.09-.09.08-.1a.74.74,0,0,0-.12-.13s-.06,0,0,.06A1.47,1.47,0,0,0,11.8,19.42Zm7,2.53,0,.11s.1,0,.11-.08,0-.07,0-.11Zm-.18-.78c0,.08-.09.12-.09.16s0,.08.05.12.08-.06.1-.1S18.61,21.27,18.58,21.17Zm-7.07,7.48-.09.08.13.12s0-.06,0-.08A.35.35,0,0,0,11.51,28.65ZM27,74.91l0-.08s-.07,0-.08.06,0,.07,0,.1ZM25.68,5l-.14-.12L25.47,5l.16.09ZM8.76,27.2s.05.08.07.08.07,0,.07-.05,0-.07,0-.08A.45.45,0,0,0,8.76,27.2Zm3.18-8.14.05.05s.08,0,.1,0a.66.66,0,0,0,0-.15ZM24.41,50.74c0-.09.05-.13,0-.16s0-.06-.06-.09-.08.07-.09.12S24.35,50.67,24.41,50.74Zm6.72-25.21L31,25.45s-.06.07-.06.1,0,.07.05.1Zm-24.25,0s-.06.05-.06.06,0,.09.08.1.07,0,.11-.06ZM31.74,43.55a.94.94,0,0,0-.19-.07s-.05.05-.07.07.07.07.11.07S31.65,43.6,31.74,43.55Zm-.14,2.23c-.07,0-.11-.05-.14,0a.36.36,0,0,0-.1.11l.06.07Zm-21.32-20c-.07,0-.12-.06-.14-.05a.24.24,0,0,0-.1.1s0,.06,0,.09Zm5.27-.31h0s0,0,0,.05h0Zm-2.47,0a.75.75,0,0,0,.08-.14s0-.06-.05-.09a.87.87,0,0,0-.09.11S13.05,25.4,13.08,25.47Zm-2.18-.22,0-.06s-.05,0-.06,0,0,0,0,.06Zm20-1.25a.39.39,0,0,0,0,.14s0,0,.06.06a.37.37,0,0,0,.07-.12S30.94,24,30.89,24ZM5.75,26.63l.06,0a.05.05,0,0,0,0,0s0,0-.06,0Zm5-5.77s-.08.05-.09.08,0,.06,0,.09.06,0,.07-.06S10.78,20.9,10.78,20.86Zm.56-.44-.06-.09s-.07,0-.07.06,0,.06,0,.1Zm4-5.19.06,0,.08-.19-.05,0ZM15.69,14l.12-.1s-.05,0-.07,0l-.13,0Zm1.08-2.14s-.06.07-.06.09a.16.16,0,0,0,.07.07s0-.05,0-.07S16.8,11.86,16.77,11.82ZM5.93,27.21,6,27.14s-.06-.05-.07,0,0,0-.07.07ZM21.06,5.36l0,0-.07.08,0,0Zm1.83,22.06-.13-.11s-.05.06,0,.08.05.07.08.1Zm8.27.18H31.1l0,.25.09,0A1.42,1.42,0,0,0,31.16,27.6ZM12.27,28l0,0s0,.05,0,.06,0,0,.05.05Zm-.81.4s0,.06,0,.06l.14,0s0,0,0,0A.85.85,0,0,0,11.46,28.37Zm19.87,3-.06-.08s-.1,0-.1.07,0,.08,0,.12ZM25.06,3.25l.15-.14s-.06,0-.08,0L25,3.14Zm6,23.74h.06l0-.24h0Z" transform="translate(-2.21 -0.62)"/><path d="M6.59,32.73c-.11-.27-.32-.5.06-.55l-.14-.37.43-.14c0,.06,0,.13,0,.18C6.86,32.13,6.74,32.4,6.59,32.73Z" transform="translate(-2.21 -0.62)"/><path d="M5.12,32.43c.15-.12.25-.26.33-.24A2.48,2.48,0,0,1,6,32.4a2.11,2.11,0,0,1-.23.39c-.06.06-.2,0-.31.06a.88.88,0,0,0,0-.15l.08-.23a1,1,0,0,1-.24,0A1.39,1.39,0,0,1,5.12,32.43Z" transform="translate(-2.21 -0.62)"/><path d="M25.88,1.18a1.6,1.6,0,0,1-.16.27.22.22,0,0,1-.16-.06.74.74,0,0,1-.08-.29,2.42,2.42,0,0,1,0-.25,2.08,2.08,0,0,0,0-.23,1.24,1.24,0,0,1,.21.18C25.76.91,25.81,1.05,25.88,1.18Z" transform="translate(-2.21 -0.62)"/><path d="M4.24,33.3l.61-1,.11.07c0,.46-.37.68-.73.88Z" transform="translate(-2.21 -0.62)"/><path d="M22.94,71.39v0a1.48,1.48,0,0,1-.21.32c-.06,0-.18,0-.28,0l.09-.45Z" transform="translate(-2.21 -0.62)"/><path d="M5.84,25.61c-.09-.21-.08-.21-.21-.07a.54.54,0,0,1-.19.07.43.43,0,0,1,0-.17A3.45,3.45,0,0,1,6,24.91l-.19.7Z" transform="translate(-2.21 -0.62)"/><path d="M21.67,69.22c-.07.24-.12.44-.19.64,0,0-.07,0-.1,0a.32.32,0,0,1-.08-.06C21.4,69.63,21.25,69.29,21.67,69.22Z" transform="translate(-2.21 -0.62)"/><path d="M6.38,30.06c0-.15-.25-.37.06-.56,0,0,.15,0,.23,0a.56.56,0,0,1,0,.23A2.33,2.33,0,0,1,6.38,30.06Z" transform="translate(-2.21 -0.62)"/><path d="M29.85,10.81l.2-.16a2.87,2.87,0,0,1,.17.57c0,.07-.13.2-.16,0l-.15.09h0c0-.09,0-.2.06-.25.23-.27,0-.23-.15-.23Z" transform="translate(-2.21 -0.62)"/><path d="M30.39,13.79l.27.35-.27.11-.24.08h0v-.4h0c.25.19.25,0,.25-.17Z" transform="translate(-2.21 -0.62)"/><path d="M21.1,4.59l-.26,0c.06-.16.1-.32.17-.47s.12-.07.19-.1c0,.2-.08.38-.12.56Z" transform="translate(-2.21 -0.62)"/><path d="M3.69,33.05l.58-.88c0,.15,0,.29,0,.3C4,32.6,4.07,33.1,3.69,33.05Z" transform="translate(-2.21 -0.62)"/><path d="M4.47,31.82l.72-.37C5.06,31.84,4.78,31.85,4.47,31.82Z" transform="translate(-2.21 -0.62)"/><path d="M21.64,3.69l-.47,0V3.58l.47-.07Z" transform="translate(-2.21 -0.62)"/><path d="M30.16,13.25l.15-.17c.55.17.09.34,0,.51l-.15-.2Z" transform="translate(-2.21 -0.62)"/><path d="M23.29,72.37l-.08.46-.12,0,.07-.47Z" transform="translate(-2.21 -0.62)"/><path d="M21.5,71.64l-.1.38a.64.64,0,0,1-.12-.06c0-.12.07-.24.1-.36Z" transform="translate(-2.21 -0.62)"/><path d="M21.52,70.23l-.23.31-.1-.08.24-.31Z" transform="translate(-2.21 -0.62)"/><path d="M21.08,70l-.28.1a.64.64,0,0,1-.06-.12l.29-.11Z" transform="translate(-2.21 -0.62)"/><path d="M22.09,70.43l.33-.16s.08.07.07.08l-.23.27Z" transform="translate(-2.21 -0.62)"/><path d="M7.88,23.25c-.09.1-.17.21-.27.31s-.07,0-.07-.06l.21-.34Z" transform="translate(-2.21 -0.62)"/><path d="M2.21,30.91a3,3,0,0,1,.25-.25l.08.07L2.3,31Z" transform="translate(-2.21 -0.62)"/><path d="M22.25,3.52,22,3.14l.15-.07.08.46Z" transform="translate(-2.21 -0.62)"/><path d="M6.36,30.77l-.17.32S6.1,31,6.11,31a1.83,1.83,0,0,1,.16-.26Z" transform="translate(-2.21 -0.62)"/><path d="M27.78,75.13,27.9,75c0,.06,0,.14,0,.17a3,3,0,0,1-.25.25.65.65,0,0,1,0-.19A.42.42,0,0,1,27.78,75.13Z" transform="translate(-2.21 -0.62)"/><path d="M3.8,27.72c0-.06-.1-.12-.09-.13a.93.93,0,0,1,.18-.16l.09.08C3.93,27.58,3.87,27.64,3.8,27.72Z" transform="translate(-2.21 -0.62)"/><path d="M4.23,33.29s0,0,0,0l-.18.26L4,33.46l.28-.16Z" transform="translate(-2.21 -0.62)"/><path d="M6,30.11l-.18.26-.09-.05L5.86,30Z" transform="translate(-2.21 -0.62)"/><path d="M23.39,2.32l-.27.05,0-.24.28.19Z" transform="translate(-2.21 -0.62)"/><path d="M30.55,14.79c-.05-.07-.1-.12-.09-.15a2.53,2.53,0,0,1,.12-.23c0,.05.1.1.1.13A1.21,1.21,0,0,1,30.55,14.79Z" transform="translate(-2.21 -0.62)"/><path d="M22.34,69.1l.05-.34h.06l0,.36Z" transform="translate(-2.21 -0.62)"/><path d="M30.4,67.92l.11-.24.09.11-.21.12Z" transform="translate(-2.21 -0.62)"/><path d="M6.4,33.42l.26-.22.1.1-.27.23Z" transform="translate(-2.21 -0.62)"/><path d="M29.84,8.94l.06-.12c.05,0,.14,0,.16.07s0,.11,0,.17Z" transform="translate(-2.21 -0.62)"/><path d="M22.34,72.36l.1-.19s0,.09,0,.14,0,0-.07.08Z" transform="translate(-2.21 -0.62)"/><path d="M30.65,65.88c0,.06,0,.1,0,.11a.63.63,0,0,1-.11.12L30.51,66Z" transform="translate(-2.21 -0.62)"/><path d="M4.39,28.44v-.11l.3,0h0Z" transform="translate(-2.21 -0.62)"/><path d="M4.36,27l-.26.07,0-.1.26-.07Z" transform="translate(-2.21 -0.62)"/><path d="M5.57,32.07l-.16-.21.07-.05.16.19Z" transform="translate(-2.21 -0.62)"/><path d="M5.89,31.93l0-.24a.31.31,0,0,1,.13,0,1.61,1.61,0,0,1,0,.22Z" transform="translate(-2.21 -0.62)"/><path d="M20.89,3.8v.25l-.09,0a.81.81,0,0,1,0-.22Z" transform="translate(-2.21 -0.62)"/><path d="M26.8,75.52l-.09-.1.08-.14.16.08Z" transform="translate(-2.21 -0.62)"/><path d="M5.54,30.69l-.16.09s0,0-.06-.06l.14-.12Z" transform="translate(-2.21 -0.62)"/><path d="M7.27,31.15l-.1.25-.1-.07.22-.16Z" transform="translate(-2.21 -0.62)"/><path d="M20.68,4.36l-.13.11s-.07-.07-.06-.1.05-.07.08-.1Z" transform="translate(-2.21 -0.62)"/><path d="M22.64,72.94l-.07.06s0,0-.06,0a.46.46,0,0,1,.07-.07Z" transform="translate(-2.21 -0.62)"/><path d="M30.18,11.63s-.08-.07-.08-.09a.12.12,0,0,1,.07-.07s.06,0,.06,0S30.2,11.58,30.18,11.63Z" transform="translate(-2.21 -0.62)"/><path d="M28.51,1l-.22.11,0-.07.22-.11Z" transform="translate(-2.21 -0.62)"/><path d="M2.39,32.9s0-.08,0-.1a.52.52,0,0,1,.1-.11s.07.09.07.1A.57.57,0,0,1,2.39,32.9Z" transform="translate(-2.21 -0.62)"/><path d="M8.55,22.55l-.13,0,.29-.18h0l-.16.25Z" transform="translate(-2.21 -0.62)"/><path d="M5.33,33.54l0,.1a.18.18,0,0,1-.1,0s0,0,0-.06Z" transform="translate(-2.21 -0.62)"/><path d="M22.7,70.16l0,0,0,0s0,0,0,0Z" transform="translate(-2.21 -0.62)"/><path d="M6.25,32.93s.08.07.08.09,0,0,0,.08-.06,0-.07-.07A.49.49,0,0,1,6.25,32.93Z" transform="translate(-2.21 -0.62)"/><path d="M20.89,70.68s0,0,0,0l-.08,0s0,0,.06,0S20.87,70.67,20.89,70.68Z" transform="translate(-2.21 -0.62)"/><path d="M20.82,71.47l-.06,0,0-.08s0,0,.06,0A.33.33,0,0,1,20.82,71.47Z" transform="translate(-2.21 -0.62)"/></g></g></svg>