<svg xmlns="http://www.w3.org/2000/svg" viewBox="0 0 49.37 76.6"><title>xxiv-nine-normal</title><g id="Layer_2" data-name="Layer 2"><g id="Layer_3" data-name="Layer 3"><path d="M9,42.46l-.43,0a.3.3,0,0,0-.1,0c-.26-.36-.25,0-.31.12-.18.31-.31-.1-.47,0l-.07-.06.25-.17c.07-.06.17-.11.2-.19a1.07,1.07,0,0,0,.06-.31l-.3.12-.24.05h0l-.29-.31h0v-.18c-.35,0-.53-.18-.69-.43,0,0-.12,0-.18,0h0a7.31,7.31,0,0,0-.64-.72c-.09-.08-.29,0-.44-.05l0-.24.2-.21A1.35,1.35,0,0,1,5.18,40c-.08,0-.12-.16-.18-.24l-.09.13c-.09-.19-.15-.5-.31-.57s-.39.15-.64.26L4.21,39l-.56.18,0-.06.21-.21a.33.33,0,0,0-.12-.5c-.22,0-.3-.13-.36-.35A2.84,2.84,0,0,0,3,37.35c-.1-.17-.17-.37-.43-.39a.55.55,0,0,1,0-.35c.13-.18.15-.3-.07-.41,0,0-.05-.1,0-.11l.29-.27a.46.46,0,0,0,0,.2c0,.07.09.15.16.16.23,0,.53-.06.37.42-.1.29.28.51.57.36l-.07.58c.13-.15.23-.21.25-.3a1.2,1.2,0,0,0,0-.38L3.8,37a5.18,5.18,0,0,0,.14-.53,1.93,1.93,0,0,0,0-.34A2.22,2.22,0,0,0,4,35.73.36.36,0,0,0,4,35.46a.29.29,0,0,0-.26,0c-.26.13-.31,0-.29-.22h0c.33-.14.37-.43.1-.75l-.2-.21c.06-.49.06-.49-.4-.45a1.11,1.11,0,0,0,0-.26c0-.11,0-.23-.05-.34a1.31,1.31,0,0,0-.39.2.49.49,0,0,0-.1.38c0,.07.23.1.35.12s.13-.07.19-.11l.3.55c.1.29-.14.42-.29.59a.51.51,0,0,1-.12-.09c-.09-.12-.16-.26-.26-.38s-.3-.35-.43-.51l-.32.48h0c0-.17.06-.55-.13-.4-.51.4-.43-.13-.61-.27s-.23.12-.42.22c0-.11.08-.22.13-.33s.13-.18.13-.27-.05-.45-.07-.68,0-.18,0-.26l.3.09c0-.07,0-.14-.06-.14-.53-.09-.49-.5-.49-.89a.37.37,0,0,0-.07-.16l-.14.12c-.06-.13-.06-.13,0-.27A.34.34,0,0,0,.4,31a6.12,6.12,0,0,1,0-1.6,6.48,6.48,0,0,0-.07-.77,2.88,2.88,0,0,1,0-.41c0-.42,0-.83,0-1.24a4.13,4.13,0,0,0,.07-.49c0-.41-.08-.83-.09-1.24a2.38,2.38,0,0,1,.08-1c.12-.25,0-.44,0-.64a2.17,2.17,0,0,1,.19-.41.3.3,0,0,0-.07-.42c-.06-.06,0-.22,0-.37l.34.14,0-.05c-.48-.34-.12-.8-.14-1.2,0-.1.14-.2.16-.31s.12-.34.37-.3c0,0,.07-.15.11-.23h-.2A2,2,0,0,1,1,20.3c.06,0,.13-.07.15-.11a1.84,1.84,0,0,0,.15-.49c0-.17-.09-.35.14-.45,0,0,0-.15,0-.23s0-.17,0-.26l.18.19.06-.06-.21-.16c.11-.25.14-.59.33-.74s.1-.5.22-.6,0-.62.44-.52c0,0,0-.07,0-.09a1.55,1.55,0,0,1,.35-1.17c.24-.36.48-.73.71-1.1,0-.07,0-.19,0-.28s0-.12,0-.13a1.16,1.16,0,0,0,.62-.87s0-.1,0-.1c.49-.13.46-.64.7-.94s.4-.91,1-.95l.06,0c-.13-.42.28-.51.45-.75,0-.06,0-.19,0-.3h0c.07,0,.17,0,.21,0,.29-.23.46-.19.65.14,0,.07.17.16.2.14a1.52,1.52,0,0,0,.4-.32c.1-.1.13-.27.22-.38s.17,0,.26,0h.28c0-.09,0-.17,0-.25a1.87,1.87,0,0,0,0-.34s-.13,0-.19-.06h0a1.58,1.58,0,0,1,.13-.26,1.26,1.26,0,0,1,.22-.24c.1-.09,0-.39.28-.3A.56.56,0,0,0,9.06,8c0-.28.06-.41.34-.5.11,0,.27,0,.18-.22,0,0,.08-.09.11-.08s.17,0,.22-.15l.12.35c.14-.19.28-.36.4-.54.22-.34.29-.38.74-.54.08,0,.19-.25.16-.31-.14-.24.1-.32.18-.42A2.17,2.17,0,0,1,12,5.12c.14-.1.3-.17.14-.37l.2-.12c.19.22.31,0,.42-.08a2.13,2.13,0,0,1,.61-.34c.07,0,.06-.33.09-.54l.19.24-.16-.16a3.58,3.58,0,0,1,.59-.29c.06,0,.17.14.3.24s-.16-.63.34-.33l-.06-.43.09,0,.07.3c.05,0,.1-.05.11-.07.11-.27.1-.27.35-.18a.11.11,0,0,0,.1,0,6.91,6.91,0,0,1,.51-.57.85.85,0,0,1,.37-.11,4.4,4.4,0,0,1,.65-.15c.14.07-.2-.31.16-.11,0,0,.24-.14.32-.26s.2,0,.21,0l.76-.31.77-.26a.17.17,0,0,1,.1,0c.48.19.61.17,1-.21l.18.27c.13-.16.43.11.52-.24,0-.1.28-.18.43-.2A18.2,18.2,0,0,0,23.17.62a5.32,5.32,0,0,1,1.38,0c.05,0,.1,0,.15-.09a.31.31,0,0,1,.39-.09c.27.08.7.4,1,0,0-.05.15-.06.23-.05.25,0,.49.2.75,0l.08.1L27.3.6c.22-.3.35-.08.5.08s.1,0,.15,0S27.86.61,27.86.6s.06-.17.08-.17a1.13,1.13,0,0,1,.41.06c.12.05.25.25.29-.07,0,0,.17,0,.17,0,.15.47.45.23.71.15l.24-.11.12.32c.14-.47.57,0,.82-.23V.8l.16,0L30.7.57c.21.09.53-.1.62.26.2-.09.44.16.63-.08.08-.09.24-.27.18.07,0,0,0,.06,0,.06a1.86,1.86,0,0,1,.49.08c.15.07.22.3.43.07s.5.05.61.15a.3.3,0,0,0,.11,0c.15-.3.35,0,.46,0s.33.29.43,0c.06,0,.18,0,.19.07.11.37.23.12.4,0l0,.41c.6-.38,1.06.12,1.58.24l-.1.17.1,0V1.83l.26.2c.09.05.19.16.26.14.39-.11.55.13.72.41,0,.08.19.19.25.17.57-.19.71.31.91.61a2.64,2.64,0,0,0,1.29,1c.06,0,.11.18.1.27a1.94,1.94,0,0,1-.12.39c0,.07,0,.22,0,.23a1.25,1.25,0,0,0,.37.09,2.19,2.19,0,0,0,.36,0v.1l-.36.17c.12.06.23.07.26.13a1.51,1.51,0,0,1,.08.38l-.35,0a1,1,0,0,0-.25,0c-.08,0-.16.29-.23,0a1,1,0,0,0-.28.08c0,.18-.37.36,0,.53,0,0,0,.07,0,.1-.09.45.23.45.59.45l-.33.54a.67.67,0,0,0-.12-.24s-.15,0-.23,0l.22.14.14,0L41,7.57l.27.32L41.06,8l0,.07.15-.13c.13-.31.26-.61.69-.47h0l.1.37.64-.37s0-.09,0-.14c-.06-.3.09-.39.41-.37s.54,0,.51.4c0,0,.09.08.12.07.19-.06.38-.15.58-.2a2,2,0,0,1,.35,0,.48.48,0,0,0,.2,0,2.78,2.78,0,0,0,.27-.21c0,.15,0,.3,0,.45s-.08,0-.07.11.28-.09.38,0,.17.2.28.33c.11,0,.41-.3.24.23,0,.1.21.25.23.4.07.36.24-.13.31.07s-.4.4.15.36c.08,0,.2.42.3.65l.1.17c.08-.05.21-.11.22-.17a1.55,1.55,0,0,0-.08-.36,1.23,1.23,0,0,1,0-.27l.18.13a.65.65,0,0,1,.25.17,1.38,1.38,0,0,1,.16.37l-.22.08c-.18.09-.46.07-.37.42l.21-.14c.25.37.36.08.5-.1a.46.46,0,0,1,.21-.17c-.05.16-.08.32-.14.47s-.08.18.13.22-.1.37.18.16c.09-.06.16-.14.25-.2s.11,0,.08,0c0,.21-.05.4-.07.59s-.05.14-.07.14c-.56-.09-.1.24-.18.34l.5-.15.1.09a.62.62,0,0,0-.32.51,1.9,1.9,0,0,1-.13.38c.39,0,.29.36.38.64a2.46,2.46,0,0,1,.09-.39,1.94,1.94,0,0,1,.22-.36c0,.44.11.79.11,1.14s.08.51-.2.67h0l-.12-.12,0,.12h0c0,.06-.06.15,0,.18a.76.76,0,0,1,.3.79c0,.07.14.16-.08.17,0,0-.08.19,0,.32l.06-.19a1.15,1.15,0,0,1,.14.17.41.41,0,0,1,.07.11,1.72,1.72,0,0,1,.11.29c0,.06,0,.15,0,.19.26.31.06.68.1,1s-.07.5-.06.76a1.76,1.76,0,0,0,.13.43L49.33,18v.12h.26a.75.75,0,0,1-.53,1,2.61,2.61,0,0,0,.14-.32.34.34,0,0,0,0-.2s-.08-.08-.12-.12-.11.12-.1.17c0,.37,0,.74,0,1.1a5.71,5.71,0,0,1-.08.71c0,.25,0,.5-.07.74-.11.59-.25,1.18-.38,1.76a11,11,0,0,1-.35,1.28,10.62,10.62,0,0,0-.21,1.15c0,.13-.18.23-.23.36-.14.38-.25.77-.37,1.15a.52.52,0,0,1-.12.17s-.13.06-.12.07c.06.29-.14.46-.28.67a2.66,2.66,0,0,0-.2.56,4.64,4.64,0,0,1-.33.67c-.06.1-.21.14-.33.21.17.15.16.27,0,.49s-.08.53-.21.74,0,.54,0,.8a7.77,7.77,0,0,1-.06,1c0,.09-.11.16-.15.24s-.17.2.07.19c0,0,.07.07.07.1,0,.79,0,1.59,0,2.38,0,.23-.2.48.11.65a.65.65,0,0,0,0,.74c0,.14-.05.33-.05.5,0,.59,0,1.18,0,1.77,0,.29-.06.58-.06.87a1.09,1.09,0,0,0,.14.38c.05.12.19.24-.08.27,0,0,0,.11,0,.16,0,.39.12.78.18,1.18a.38.38,0,0,1,0,.15,8,8,0,0,0,0,1.62,4,4,0,0,1-.1,1.47c0,.06,0,.14,0,.21l.08-.13a.85.85,0,0,1,0,.17c0,.91,0,1.83,0,2.74,0,.69,0,1.37,0,2,0,.21-.06.42-.06.63s0,.42,0,.64a2.58,2.58,0,0,1,0,.83,3.18,3.18,0,0,0,.11,1.53,3.39,3.39,0,0,1-.11,1c0,.19-.08.43,0,.57.19.33-.21.75.2,1,0,0,0,.08,0,.11-.31.36-.08.76-.07,1.14s0,.36-.23.36c0-.14.14-.3.12-.43a1.74,1.74,0,0,0-.23-.45.12.12,0,0,0-.1,0,.09.09,0,0,0,0,.09c.2.29-.08.54-.06.81a.42.42,0,0,0,.11.22s.13,0,.2,0a1,1,0,0,0-.16.19.91.91,0,0,0-.07.32c.37.19.26.54.33.83L45.61,59,45.5,59s-.07,0-.07.07c0,.2,0,.4,0,.6.13-.06.25-.13.37-.2h0c.15.17.35.32.07.56a.37.37,0,0,0,0,.31.81.81,0,0,1-.17.9.3.3,0,0,0-.05.23c.36.2.26.49.18.78a.22.22,0,0,0,0,.08c0,.41,0,.82,0,1.23,0,0-.11-.1-.15-.09s-.09.08-.11.14,0,.07.07.11l.19-.16c0,.71,0,1.42,0,2.12,0,.21.21.52-.18.63,0,0,0,.09,0,.09.3.12.15.34.13.54l-.06-.32-.14.06.21.24c0,.12-.24.2,0,.37s0,.25,0,.37c-.05.61-.1,1.22-.16,1.82a10.48,10.48,0,0,1-.25,1.77,3.59,3.59,0,0,0,0,.73c0,.28-.12.55-.16.82,0,.08,0,.17.05.26v.47c0,.3,0,.61-.09.91s-.12.62-.2.93-.24.25-.46.12a1.14,1.14,0,0,1-.59-.7s-.12-.05-.15-.09l-.34-.46a.37.37,0,0,1-.15.05c-.12,0-.28,0-.34-.12s.07-.13.16-.18.07-.08.1-.12c-.18-.09-.39-.3-.54-.26s-.08.28,0,.43v0a2.91,2.91,0,0,1-.56.11,1.12,1.12,0,0,1-.46-.12s0-.13,0-.2l.14.11.08-.11-.18,0-.27-.13-.17.52c-.1,0-.28,0-.31,0a.61.61,0,0,0,0,.38c0,.08.08.16.12.23h0L41,74.9l-.18.17-.09-.27-.29.45h0c-.15-.06-.16-.42-.45-.21,0,0-.07,0-.08-.06,0-.24-.09-.49-.14-.74l-.31,0,0-.07.23-.12-.07-.21c.23-.25-.17-.38-.18-.62a2.1,2.1,0,0,1-.18.82c-.18.27-.3.45,0,.71,0,0-.05.1-.07.15L39,74.84h0s0-.08,0-.1a3.11,3.11,0,0,0-.23-.28l-.06.4c0,.08,0,.18-.06.23a4.49,4.49,0,0,1-.46.41s-.11,0-.17,0,0-.1.05-.15a1.16,1.16,0,0,1,0-.18l0,0a.89.89,0,0,0,0-.36c0-.06-.15-.08-.24-.12s.08-.13.13-.13c.27,0,.34-.21.18-.38s-.14-.53-.17-.8-.33-.37-.12-.65c.06-.08,0-.22.07-.33a1.32,1.32,0,0,0-.28,1.11c0,.12.28.44-.18.31l0,.27h0c-.13,0-.49-.22-.31.23h0L37,73.85c0-.06-.09-.11-.11-.17a1.49,1.49,0,0,1,0-.21s-.08,0-.08,0-.08.2,0,.27.17,0,.25.07c-.07.12-.14.24-.2.37s-.12.24-.18.37l-.11,0c0-.33,0-.65-.09-1a.59.59,0,0,0-.12-.2l.12-.32-.09,0,0,.34c-.08-.08-.21-.15-.23-.24a6,6,0,0,1-.08-1c0-.22.07-.44.09-.66,0-.07-.06-.14-.09-.21a.9.9,0,0,1-.08-.8c0-.09-.14-.27-.16-.42s-.05-.54-.09-.8-.07-.29-.1-.43,0-.34-.07-.51l.15,0-.14-.26a.69.69,0,0,1,.1-.19c.17-.19.27-.35-.11-.37l-.08,0c.1-.31-.09-.6.08-1a1.58,1.58,0,0,0-.11-1.5,1.62,1.62,0,0,1-.31-1.25l.31.25a3.42,3.42,0,0,1-.06-.46c0-.05,0-.1.06-.16a.91.91,0,0,0,0-.23.59.59,0,0,1-.19,0s-.12,0-.12-.06a3.9,3.9,0,0,0,0-.77.94.94,0,0,1,0-.82c.09-.15-.12-.44-.1-.66s-.19-.73.08-1.08c0-.06-.08-.22-.08-.34,0-.62,0-1.25,0-1.87s-.11-1-.12-1.44,0-1,0-1.48a1.31,1.31,0,0,1,0-.28c0-.16.09-.32.13-.48s.08-.28,0-.33c-.26-.27-.15-.56-.12-.87s0-.89,0-1.34a3.34,3.34,0,0,1,0-1,2.54,2.54,0,0,0,0-1c0-1,0-2,0-3s0-1.78.09-2.66c0-.41.16-.81.2-1.21a10.29,10.29,0,0,0,0-1.11c0-.1,0-.21,0-.31s-.06-.2-.08-.3a4.93,4.93,0,0,0-.54.19c-.16.07-.29.19-.44.27a8.3,8.3,0,0,1-.9.44c-.28.12-.54.36-.76.42-.47.13-.76.5-1.15.65a1.26,1.26,0,0,0-.62.47l-.41-.08.14.17c-.23-.06-.42-.1-.56.2-.06.12-.31.16-.47.23l0-.33h-.1l.07.33-.12.22a.41.41,0,0,1-.12.11s0-.1-.05-.15-.05-.15-.08-.22a1.09,1.09,0,0,0-.17.13,8,8,0,0,1-.61.55c-.07,0-.22,0-.33-.07l.11-.09a.78.78,0,0,0-.25-.07s-.07.1-.11.16l-.17.42,0-.32a3.85,3.85,0,0,1-.34.26s-.12,0-.18,0a1,1,0,0,0,0-.17c0-.13,0-.26,0-.39l-.3.08c0,.11-.24.28.06.34,0,0,.07.17.06.18s-.29.16-.44.24a1.37,1.37,0,0,0,0-.29c0-.1-.06-.2-.09-.3a1.91,1.91,0,0,0-.38.18c-.06,0-.06.18-.06.28s.06.12.09.19-.22.1-.3.07a2.19,2.19,0,0,1-.41-.29.46.46,0,0,0-.14-.07s-.09,0-.13.06l.11.12.07.08c-.32,0,0,.29-.2.32l-.16-.14c-.05,0-.11-.12-.16-.12a.2.2,0,0,0-.17.11.17.17,0,0,0,0,.18,1.8,1.8,0,0,0,.35.12,3.88,3.88,0,0,1-.66.14,2.56,2.56,0,0,1-.13-.47c0,.54-.62.31-.8.65h-.09c-.25-.24-.45-.17-.63.12,0-.19-.07-.37.15-.5,0,0,0-.24-.07-.37l.26,0s-.09,0-.12,0a.33.33,0,0,0-.13.07c-.26,0-.24.26-.29.45s-.12.18-.18.28a2.35,2.35,0,0,1,0-.26c0-.16-.29-.46-.45-.44s-.09,0-.09.06a.27.27,0,0,0,.06.12c.08,0,.25.13.25.14a4,4,0,0,1-.25.51c-.11-.08-.27-.13-.32-.24a2,2,0,0,1-.1-.54,1.12,1.12,0,0,0-.11.15c-.08.21-.09.48-.24.61s-.2-.21-.38-.26-.18-.24-.29-.33-.24-.18-.27.09c0,0-.23.07-.44.12a1.52,1.52,0,0,1,.2-.24c.21-.12.3-.26.1-.46,0,0-.07-.07-.06-.09s.14-.33-.14-.28c-.05,0-.06.22-.1.35-.5-.25-.45.43-.77.54.25.18.25.18-.12.6,0-.07.05-.13.07-.21l.09-.24h-.07l0,.26-.13,0-.33,0c.17-.06-.28-.51.22-.37v-.14l0-.2-.12.06a2.14,2.14,0,0,1-.87,0,.45.45,0,0,0-.43,0,.31.31,0,0,1-.23,0,.78.78,0,0,1-.21-.16c-.07.11-.15.21-.21.31a2,2,0,0,0-.09.22c0-.08-.13-.17-.12-.25a.8.8,0,0,0-.9-.65s-.09.06-.09.09a.25.25,0,0,0,.08.14,1.94,1.94,0,0,0,.24.15h0c-.09,0-.23.09-.26.06s-.19-.31-.3-.46-.16-.09-.25-.15l-.22-.17c-.11.07-.32.4-.39-.11a.25.25,0,0,0-.18-.07c-.31.1-.34.07-.46-.25,0-.09-.18-.14-.23-.23a6.11,6.11,0,0,1-.3-.7c-.23.35-.22.87-.66,1l.12-.9-.1,0c0,.06-.08.14-.13.16-.22.05-.32.15-.27.4,0,.06-.15.16-.25.23s-.1,0-.15-.07.06-.09.07-.13.07-.29.11-.43c-.14.05-.32.06-.42.16a8.66,8.66,0,0,0-.58.67v-.44c-.36.18-.43,0-.37-.25a.17.17,0,0,0-.07-.13l-.25.11a.61.61,0,0,0,.06.13.91.91,0,0,0,.07.14s-.08.06-.12.06l-.62-.12a.16.16,0,0,1-.12-.09c0-.15,0-.15.15-.11s.31-.14.44-.22a2,2,0,0,0-.34-.27,1.29,1.29,0,0,0-.4-.08ZM27.09,7.35l.17-.18-.1,0-.06.24-.2,0,0,.06Zm-6.45.37.3.07,0-.07-.24-.19-.08.2-.16.2.1,0Zm-9.88,25-.23.22.07.07.16-.19s0,0,0-.07l.13,0,0-.07ZM10,32.2l.26.07,0-.13-.28,0A1.66,1.66,0,0,1,10,32a.65.65,0,0,1,0-.13s-.12,0-.15,0-.07.12,0,.15A1.55,1.55,0,0,0,10,32.2ZM5.4,39.05h.44c-.27-.25-.27-.25-.43,0H5.27l0,.13ZM24.86,9.39v.07l-.48.14h0c-.09-.11-.12-.28-.34-.23,0,0-.12-.15-.19-.23L24,9.07l.22-.17a3.09,3.09,0,0,0-.55,0,1.49,1.49,0,0,0-.38.17V9.5l-.22-.08.21-.12s-.1-.07-.11-.06a.93.93,0,0,0-.13.15h-.14c0-.15-.07-.29-.12-.54a2.69,2.69,0,0,0-.11.43c0,.33-.39.16-.52.34-.05-.14-.1-.28-.14-.43s0-.17,0-.25-.12,0-.19,0a1.09,1.09,0,0,0,0,.31.41.41,0,0,1-.21.57l-.06-.65-.14,0,0,.51L21,9.86c-.1-.31-.18,0-.27,0-.38.24-.84.2-1.23.42-.21.12-.53.09-.7.24a7.61,7.61,0,0,1-.92.69,6,6,0,0,0-.65.48c-.19.17-.36.3-.59.06a.19.19,0,0,0-.19,0c-.28.16-.06.66-.48.74.21.42-.21.31-.34.34s-.37.08-.34.36a.29.29,0,0,1-.09.21c-.23.24-.48.46-.7.7s-.22.34-.36.49-.54.45-.65.74a2.41,2.41,0,0,1-1,1.23c-.14.08-.28.1-.06.26a.62.62,0,0,1-.07.31c-.3,0-.27.21-.35.38s-.29.49-.39.75-.47.25-.37.61c0,.08-.37.13-.11.36l-.15.15s-.13.08-.12.11c.09.39-.19.61-.4.87-.06.07-.16.15-.17.23a1.7,1.7,0,0,1-.47,1.2.52.52,0,0,0-.17.44c.18.56-.24,1-.3,1.5s-.2,1-.25,1.53S9,26.61,9,27.28c0,.07.11.15.18.21a.91.91,0,0,0,.17.09h0l-.38.14s0,.09,0,.13.08,0,.09,0c.22-.29.17.21.33.1.05.22.1.44.14.66a2.28,2.28,0,0,0,.14.66,4.25,4.25,0,0,0,.61.67h0c-.08.12-.16.23-.23.35s-.1.2-.16.3a1.79,1.79,0,0,0,.47,0c.1,0,.17-.16.25-.25l.14,1.59h.11v-.35c.16.13.39.21.41.33,0,.36.24.3.46.23h0c-.18.27-.1.48.21.59a.46.46,0,0,1,.22.72.28.28,0,0,0,0,.22c0,.06.1.09.15.14s0-.15,0-.17.27-.14.41-.21c0,.17,0,.3.18.1,0,0,.12,0,.13,0a1.8,1.8,0,0,1,.05.46c0,.06-.15.1-.22.15l-.24.23.56.14a1.84,1.84,0,0,0,0-.33c0-.38.45-.1.48-.38.07,0,.16,0,.19,0s0,.13,0,.19,0,.23,0,.34l-.18.21.06,0,.11-.25c.19,0,.48.29.46-.24,0,.07.07.1.07.13,0,.23-.11.53.29.56a1.18,1.18,0,0,1,0,.2l.05.3.11,0L14.62,35c.54-.15.67-.06.69.51a.57.57,0,0,0,0,.22,1.45,1.45,0,0,0,.09.22l.19-.25.06.55c.16-.05.31-.09.46-.15s.34-.1.35-.17c0-.41.32-.26.55-.31-.14.13-.34.23-.36.35a2.14,2.14,0,0,0,.1.65,1.79,1.79,0,0,0,.18-.52.14.14,0,0,1,.1-.08s.06,0,.07.07a1.29,1.29,0,0,1,.09.16c.07-.05.18-.1.19-.17a1.84,1.84,0,0,0,0-.4l.3.1c.12,0,.32,0,.36.11.12.27.31.16.5.16s.48.19.69-.07a.24.24,0,0,1,0,.08c.06.35.43.29.62.34.34.09.4,0,.54.29l.12-.35c.12.07.25.2.36.19.33,0,.66-.1,1-.15.05,0,.1.05.15.07a2.11,2.11,0,0,0,.62.19c.17,0,.42.11.51-.2.1.08,0,.52.27.12,0,0,.14-.06.15,0,.18.2.29,0,.44,0a1.16,1.16,0,0,1,.55-.08c.12.35.19.08.29,0s.2-.1.21-.08c.24.29.2,0,.26-.1s.14-.12.18-.1.27.12.26-.13c0,0,.09,0,.14-.08s.18-.12.26-.11a.36.36,0,0,0,.44-.32h.07c.28.26.45-.18.7-.1,0-.27.3-.18.45-.27s.2,0,.27-.1c.45-.3.89-.62,1.34-.91a2.41,2.41,0,0,1,.59-.26c.08,0,.19,0,.29,0h0v.07s0,0,0,0c.17-.16.17-.47.46-.54.08,0,.14-.11.19-.19a1.43,1.43,0,0,0,.07-.32l.14.32a.92.92,0,0,1,.09-.13l.12-.15c.17-.21.21-.19.32.15a2.55,2.55,0,0,0,.27-.48s.11-.08.11-.08c.2.25.4-.1.59,0l.06-.29s0-.09,0-.09c.17.05.18,0,.24-.17a4.23,4.23,0,0,1,.44-.69.4.4,0,0,1,.13-.07c.21-.1.53-.15.62-.31s.45-.31.33-.63h0a1,1,0,0,0,.75-.9h.29v-.13l-.26,0c0-.07.11-.19.18-.21a.44.44,0,0,0,.42-.38s.07-.06.11-.07.15,0,.16,0c.11-.29.23-.6.32-.9.23-.8,0-1.71.48-2.45,0,0,0-.07,0-.07-.34-.23-.06-.5,0-.74,0-.52.17-1,.26-1.54l.26-.14-.12-.15c0-.32-.15-.68.17-.95,0,0,0-.12-.06-.17s-.09-.11-.08-.15c0-.23.08-.45.12-.67a6.38,6.38,0,0,1,.5-1.7c0-.07,0-.19,0-.28,0-.26,0-.72.12-.74.36-.06.12-.48.39-.53-.14-.38.29-.77,0-1.14,0,0,0-.11.09-.15a1,1,0,0,0,.38-.72A12.16,12.16,0,0,1,39.16,14c0-.17-.14-.43.15-.55,0,0,0-.11,0-.12s-.19-.07-.2,0c-.23.39-.42,0-.63,0l.14-.17-.29.1c-.18,0-.4,0-.12.28.05,0,0,.16,0,.24a1.09,1.09,0,0,1-.09.23l-.06.15A1,1,0,0,1,38,14c0-.22.18-.57-.32-.52,0-.07.07-.16.1-.16.26,0,.1-.44.41-.37L38,12.48c-.07.06-.06.1-.08.13-.08.19-.44.23-.29.55-.1.05-.22.15-.29.12s-.14-.17-.2-.27a.06.06,0,0,1,0-.07c.26-.26.23-.52-.09-.75l.12-.2-.09,0,0,.24-.1,0-.24.22c0-.13,0-.25,0-.37s.06-.08.08-.12a.73.73,0,0,0-.3.12s-.11,0-.11,0c-.16-.29-.47-.44-.61-.76s-.33-.3-.51-.43-.16,0-.16,0c-.11.34-.39.32-.58.31l.22.73a2.31,2.31,0,0,1-.35-.18,1.76,1.76,0,0,1-.19-.27c.32-.25,0-.3-.12-.42s-.16-.21-.23-.32l.13.05v-.14l-.2,0c-.08,0-.22,0-.23,0-.12-.32-.28-.1-.35-.06l-.4-.32a1.07,1.07,0,0,0-.14.36c0,.38.33,0,.41.17a.94.94,0,0,1-.91,0l.32-.16c-.15-.06-.34,0-.39,0-.25-.28-.4-.12-.57.09,0,0-.13,0-.2,0s0-.1.07-.16.07-.36.1-.55l.23,0a1.17,1.17,0,0,0-.69-.26,2.77,2.77,0,0,0-.78.31l-.08-.64-.15-.2L30,9.41l.15.16-.29.28h0c-.22-.07-.39-.16-.38-.45,0-.07-.14-.2-.24-.22s-.28.06-.28.11c0,.56-.53.59-.78.75a2.62,2.62,0,0,0-.32-.26,1,1,0,0,0-.29-.07l.26-.05V9.59l-.48-.16.23.3-.64-.24s-.1,0-.11.1c-.09.22-.33.1-.48.2s-.07,0-.06-.07c0-.41-.18-.16-.3-.15l.17.28L26,9.91l-.26-.72-.41.29c0-.27-.06-.36-.31-.2ZM5.26,14.9c.14,0,.27-.09.42-.12s.05.07.08.1l.1-.14-.25-.07-.21,0a.8.8,0,0,0-.21,0c0,.08,0,.15.08.22l-.22.19.12.05ZM44.7,7.61c0-.23-.05-.5-.43-.14l.43.14c0,.22,0,.44.09.66,0,0,.2,0,.2,0a3.15,3.15,0,0,0,.06-.61S44.82,7.63,44.7,7.61ZM4.25,14.72l-.06-.18-.09,0,.15.15s0,.09,0,.12a2.43,2.43,0,0,0-.26.3s.13.17.15.16a3.5,3.5,0,0,0,.3-.24l.25-.24c.06-.06.18-.13.17-.17a1.16,1.16,0,0,0-.18-.27,1.45,1.45,0,0,1-.18.17ZM9.41,29.61c.24-.21,0-.33-.11-.35-.35-.08.2-.3-.07-.36l0,0a2.36,2.36,0,0,1,0-.28v-.55L9,28a2.71,2.71,0,0,0-.12.55,5.32,5.32,0,0,0,.14.78c0,.06.11.11.17.16l.18.28ZM37,60.33l-.1-.23c-.1,0-.28.09-.28.14a1.07,1.07,0,0,1-.28.82.18.18,0,0,0,.06.13c.41.29.22.64.11,1,0,.16-.21.34.13.37,0,0,.09.11.07.15-.06.2-.16.39-.2.59s.1.21.18.28.3.19.14.42a.65.65,0,0,0-.13.44c0,.12.2.32.27.3.3-.06.44-.64.26-.89,0-.06-.14-.14-.14-.21,0-.45.1-.9.16-1.35,0-.05,0-.11,0-.16-.38,0-.22-.28-.23-.43C37,61.27,37,60.85,37,60.33ZM2.46,33.15a.89.89,0,0,1-.06-.31.47.47,0,0,1,.09-.22,1.31,1.31,0,0,1,.12-.11l-.14-.1c-.09,0-.23-.06-.26-.13-.15-.28-.27-.21-.44,0s-.18.05-.27.07-.18,0-.23,0-.07.13-.1.21a.9.9,0,0,0,.27.07A1.78,1.78,0,0,1,2.46,33.15Zm42,40.71a.52.52,0,0,0-.08-.11c-.07-.1-.14-.27-.23-.28a1.18,1.18,0,0,0-.55.11c-.08,0-.17.25-.13.32s.21.19.33.27.24.15.27.13A3.23,3.23,0,0,0,44.43,73.86ZM37,57.32c0-.14,0-.28-.05-.41a2.09,2.09,0,0,0-.08-.23c0,.06-.15.11-.15.17-.07.43-.12.87-.16,1.31,0,0,.06.07.09.11l.1-.09C37,58,36.87,57.6,37,57.32ZM25.61,3.1a1.06,1.06,0,0,0-1.13-.25s-.06,0-.1,0h-.31l.06.26ZM41.1,8.6c.15,0,.25.08.31.05a.51.51,0,0,0,.23-.21.16.16,0,0,0,0-.15c-.24-.26-.45,0-.64.07s-.09.29-.06.43.23.07.36.11l0-.07ZM14.65,43.32h-.08l-.2.27c-.1-.13-.44.05-.38-.29,0,0-.07-.1-.1-.14l-.11.12-.16.16a1.48,1.48,0,0,0,.26.24c.19.11.35.49.62.12A1.62,1.62,0,0,0,14.65,43.32Zm2.12.24s-.09-.1-.11-.09l-.63.38a.21.21,0,0,0,0,.17A.57.57,0,0,0,16.77,43.56ZM39.4,5.77c.11.16.17.33.29.4s.22-.11.34-.17l-.44-.38S39.49,5.7,39.4,5.77ZM37.23,67.35a3.06,3.06,0,0,0,.23-.5c0-.09-.06-.2-.09-.3l-.18.13C36.91,66.91,37,67.13,37.23,67.35Zm1.86-5.82-.16-.41a1.84,1.84,0,0,0-.17.48c0,.12.11.24.17.36ZM3.21,16.68l.07.14c.14-.07.32-.09.39-.2s0-.29,0-.43-.11-.08-.16-.12a1.42,1.42,0,0,0,0,.16C3.45,16.42,3.46,16.61,3.21,16.68ZM39.11,3.61c-.19-.11-.31-.23-.36-.21a1.64,1.64,0,0,0-.3.29c.08.07.18.21.24.2A1.57,1.57,0,0,0,39.11,3.61ZM36.86,55.77a5.2,5.2,0,0,0-.29.61s0,.13.09.2.25-.08.25-.13A3.77,3.77,0,0,0,36.86,55.77ZM3.8,15.88,4,15.63l-.23-.22-.22.34Zm.57.28.37-.2a.7.7,0,0,0-.26-.08,2.14,2.14,0,0,0-.39.16Zm6.81,17.18.28.34a1.12,1.12,0,0,0,.21.17c0-.06.07-.14.05-.19a.5.5,0,0,0-.19-.19A2.05,2.05,0,0,0,11.18,33.34ZM10,31.11l.09,0L10.4,31l-.19-.25Zm1.68-20.84,0,.14c.25-.09.44.39.77,0ZM37.05,59.5H37c-.06.1-.13.2-.2.3s0,.33.14.22S37,59.68,37.05,59.5ZM5.52,38.75l-.26-.52C5.11,38.58,5,38.8,5.52,38.75Zm9.73,4.76a.64.64,0,0,0-.21-.09s-.1.09-.09.11a1.59,1.59,0,0,0,.15.29ZM12.12,6.78,12,6.89l.31.24L12.43,7Zm-.36,3.42L12,10s-.08-.1-.1-.1l-.27.17ZM4.44,37.48v-.09a1.29,1.29,0,0,0-.25-.06s-.08.05-.12.08a1,1,0,0,0,.21.14S4.38,37.5,4.44,37.48Zm32-28.24.19-.1-.23-.28-.24.22ZM15.12,11.31l.08.12.37-.24-.08-.11C15.36,11.15,15.24,11.23,15.12,11.31ZM9.52,30.45l.15,0L9.72,30l-.14,0Zm28.16,40.9c-.06.08-.12.13-.11.17a1.72,1.72,0,0,0,.11.29.85.85,0,0,0,.11-.26S37.73,71.45,37.68,71.35Zm-1.39-9.64.15,0c0-.12.09-.24.12-.37l-.08,0C36.41,61.47,36.35,61.59,36.29,61.71Zm.38-12,.11,0v-.37l-.27.08ZM1.88,31.59l-.08-.05-.31.39C1.92,32.07,1.79,31.73,1.88,31.59ZM39.47,73.06l.14,0,0-.39h-.09Zm-.92-14.45.13.07.19-.38-.12-.06Zm-34-21c-.32.23-.32.23-.12.43ZM.8,27.79A1,1,0,0,0,1,27.54s-.06-.11-.1-.17a1.37,1.37,0,0,0-.18.24S.75,27.71.8,27.79Zm12.08-18,.11.06a2.8,2.8,0,0,0,.15-.3L13,9.46Zm25.9-5.72-.05.13.41.13,0-.08ZM20.61,9.6l-.1-.06-.2.33.1.06ZM37.29,68.9l.07.12.33-.2,0-.1ZM20.91,8.22l.11,0L21.16,8c-.06,0-.17,0-.17,0A1.38,1.38,0,0,0,20.91,8.22ZM18.7,44.12,18.55,44a.76.76,0,0,0-.12.19s.05.08.07.13ZM49.08,17.54H49L49,18h0ZM24.5,2l0,.11L24.87,2s0-.1,0-.1ZM6.17,39.43l.16-.29s-.1-.07-.11-.06a.43.43,0,0,0-.13.17S6.13,39.34,6.17,39.43Zm30,33.06.09,0c0-.08.09-.16.12-.24s-.08-.06-.13-.09ZM35.91,70l-.11.12s.09.1.13.09.09-.07.13-.11ZM24.64,7.58l-.07-.07-.25.24.07.07ZM38,20.29h.13l0-.4s-.09,0-.09,0S38,20.17,38,20.29Zm1.77-5.8h.1l-.09-.33-.09,0ZM12.18,10.73c-.07,0-.14-.06-.17,0a.67.67,0,0,0-.14.19s.06.06.09.09ZM3.32,15.28c-.1,0-.18-.1-.2-.08a.45.45,0,0,0-.14.19s0,.07.06.11Zm22.46-7-.05-.11-.29.13,0,.11ZM19.05,44.65l.12-.07-.26-.32-.07.05Zm30-31.38a1.52,1.52,0,0,0-.21-.14s-.07,0-.11.07a1.37,1.37,0,0,0,.16.18ZM38.77,60.76h.13l0-.3-.13,0Zm3.34,12.72h.11l0-.32-.08,0A2.81,2.81,0,0,0,42.11,73.48ZM1.42,29.86l.09.11.24-.21s-.1-.09-.11-.08A1.92,1.92,0,0,0,1.42,29.86ZM40,13.3l0,.11.31.1,0-.1ZM1.76,26.94l.1-.08-.13-.23s-.11.08-.1.09A1,1,0,0,0,1.76,26.94ZM39.44,72.45h.11l0-.35h-.07ZM11.17,12.38V12.3l-.21,0s0,.06,0,.09Zm24.15,52-.12-.21s-.1.08-.1.11a.7.7,0,0,0,.08.2ZM15.06,12l-.14.21s.09.07.1.06a.25.25,0,0,0,.11-.12S15.1,12.05,15.06,12ZM5.43,38l.07,0,.2-.27-.12-.06C5.52,37.76,5.48,37.86,5.43,38ZM23,8.8l.07.07.24-.26-.07-.07ZM38.86,56.31l.23.18s.09-.09.08-.11a.34.34,0,0,0-.12-.12S39,56.29,38.86,56.31ZM.77,31.16H.88a2.26,2.26,0,0,0,0-.26H.79Zm36,24.26h.08v-.34h-.08ZM22.32,9.3l.08,0L22.5,9h-.1A2.29,2.29,0,0,0,22.32,9.3Zm15.27,1.46-.05.09.33.12,0-.06ZM2.52,18.14c0,.08-.08.12-.07.14a.72.72,0,0,0,.11.19s.08-.09.08-.12A1.28,1.28,0,0,0,2.52,18.14ZM23.35,1.83l.1,0-.16-.29-.09,0ZM5.05,14.14l.08,0,.17-.3-.1-.05ZM15.8,5.27c-.06-.07-.09-.14-.11-.14l-.19.06s0,.1.06.1A1.25,1.25,0,0,0,15.8,5.27ZM14,12.8l-.09-.06-.14.25.06,0ZM11.42,32.43a1.1,1.1,0,0,0-.09.14s.05.07.07.11l.16-.15ZM26,9.33l.07-.05-.18-.21-.07,0ZM10.44,43.12h.11a1.69,1.69,0,0,0,0-.23s-.06,0-.1,0ZM32,10.3l-.08.11s.07.07.1.07.08,0,.12,0ZM12.31,34.17c0,.07-.07.11-.06.12a.69.69,0,0,0,.11.13s.06-.06.05-.08A1.19,1.19,0,0,0,12.31,34.17ZM38.63,56.75l.12,0-.06-.27-.11,0ZM6.71,40.11l.07,0,.12-.28-.07,0ZM46.15,8.79c-.07-.06-.1-.1-.13-.1s-.09,0-.14.05,0,.1.06.1S46,8.82,46.15,8.79ZM1.9,20.31c-.08-.07-.12-.12-.15-.12a.47.47,0,0,0-.15.06s0,.08.08.09A.77.77,0,0,0,1.9,20.31ZM39.35,61l-.1-.12a.64.64,0,0,0-.1.13s0,.07.06.11Zm-2,4.47a1.08,1.08,0,0,0-.21-.11s-.07,0-.11,0a.6.6,0,0,0,.12.11S37.28,65.45,37.4,65.42ZM6.25,12l-.08-.05-.11.24.07,0Zm32,6.69h-.12l0,.27h.05ZM5.84,12.88l0,0s0-.09,0-.1a.66.66,0,0,0-.15-.05ZM9.76,29.79l-.16-.14s0,.07,0,.08a.66.66,0,0,0,.14.15ZM2,18.93,2,19l.26-.18,0,0Zm37.39-3.66.14-.07-.09-.1a.76.76,0,0,0-.09.09S39.34,15.24,39.35,15.27Zm1.07-4.7s.06-.08,0-.1a1.06,1.06,0,0,0-.1-.12l-.08.08A.83.83,0,0,0,40.42,10.57ZM7.65,40.13l-.06,0-.09.24.08,0Zm5.71-5.29s-.07,0-.09,0a.45.45,0,0,0-.1.14l.08.08ZM8.52,41.23c.05,0,.09-.08.1-.12s0-.07-.06-.11-.06,0-.06.07A.47.47,0,0,0,8.52,41.23ZM28.32,9.47l.05,0s0-.08,0-.09a.47.47,0,0,0-.17,0ZM45.4,8.26l-.19-.17s-.08.07-.08.1a.17.17,0,0,0,.1.1S45.32,8.27,45.4,8.26ZM.84,28.07l-.06,0-.08.21.08,0ZM12.76,42.51h-.08l0,.3.07,0Zm-8.4-6.12.16-.13s-.06-.08-.09-.08a.18.18,0,0,0-.11.08S4.34,36.32,4.36,36.39Zm-3.06-15c-.15,0-.2,0-.22,0a.67.67,0,0,0-.06.15Zm38.94-14-.08-.07a.43.43,0,0,0-.09.1s0,0,.06.07Zm5.36,62h0v-.27h0ZM4.81,13c-.07,0-.1-.09-.14-.08s-.06,0-.09.07.06.08.09.09S4.74,13.05,4.81,13Zm24.4-4.73-.08-.08a.69.69,0,0,0-.13.11l0,.06A1,1,0,0,0,29.21,8.28ZM6.48,39.87a.55.55,0,0,0,.08-.15s0,0-.08-.08l-.11.17ZM27.29,9.15l0,.07.2-.08,0-.05ZM5.5,13.05,5.41,13l-.2.13.11.11ZM42,11.88l-.1.06s0,.09.07.1.07,0,.1,0ZM13.4,14.43l-.09.08a.39.39,0,0,0,.1.08s.05,0,.08-.05ZM36.13,64.79c-.07-.05-.1-.1-.14-.1s-.07,0-.1.06.06.09.09.1S36.05,64.82,36.13,64.79ZM23.44,45.11l-.11,0s.05.09.09.1.07,0,.11,0ZM41.3,61.44s0-.09,0-.11,0,0-.07-.06a.23.23,0,0,0,0,.09S41.26,61.41,41.3,61.44ZM40.88,7.92l-.07,0a.27.27,0,0,0-.07.08l.06,0Zm.72,3.32.14-.17s-.09-.08-.11-.07a.38.38,0,0,0-.1.12S41.56,11.19,41.6,11.24ZM36.31,59.76s.08,0,.09-.08,0-.07,0-.1-.06,0-.07.06S36.3,59.7,36.31,59.76Zm2.62-.64s0-.1-.07-.1a.57.57,0,0,0-.13,0s0,.1,0,.11A.53.53,0,0,0,38.93,59.12ZM3.41,30.27h0v.19h.06ZM13.26,15l-.11.09s0,.06.08.07.07,0,.07,0A.46.46,0,0,0,13.26,15Zm-7.7-2.34,0-.06-.16,0s0,0,0,.06ZM38.81,59.89s-.05-.06-.08-.06-.06,0-.09,0a.73.73,0,0,0,.08.09S38.77,59.92,38.81,59.89Zm.3-2,0-.05a.36.36,0,0,0,0-.1l0,0A.6.6,0,0,0,39.11,57.85ZM1.89,30.41l-.09.05s0,.05.07.06.06,0,0,0A.19.19,0,0,0,1.89,30.41ZM10.05,8.8l-.12-.08a.26.26,0,0,0-.07.1s.07.07.1.11ZM36.43,54.31a.82.82,0,0,0,0,.18l.06,0a.54.54,0,0,0,0-.1Zm-.06-1.17,0,0s.07.05.1.05a.56.56,0,0,0,.12,0Zm9.4,9.35-.05-.11s0,0,0,.07a.44.44,0,0,0,0,.1Zm-25-17.18-.07-.07s-.05.06-.05.09,0,.05,0,.08ZM46.56,10s.09-.07.09-.09a.53.53,0,0,0,0-.12s-.08,0-.09,0A.36.36,0,0,0,46.56,10ZM1.89,28.79l-.06-.09-.07,0a.28.28,0,0,0,0,.12Zm-.44-.54-.09-.08-.12.1s.06.05.08,0A.3.3,0,0,0,1.45,28.25ZM6.78,14.73s-.07-.07-.1-.06,0,0-.08.06.05.06.08.06S6.74,14.76,6.78,14.73Zm-4.84,9,.05,0-.06-.23-.06,0ZM21.15,9.2s.08-.06.09-.08,0-.06,0-.08-.06,0-.08.06S21.14,9.15,21.15,9.2ZM12.69,42.93l-.12-.1a.16.16,0,0,0-.08.08.42.42,0,0,0,.08.12ZM37.9,21.08c-.06,0-.09-.06-.12-.06l-.07.06s0,.06.09.07S37.85,21.11,37.9,21.08ZM13.56,9.17a1.91,1.91,0,0,0,.1-.23s0,0,0-.08L13.51,9S13.52,9,13.56,9.17ZM8,40.7l-.13-.09s0,0,0,.07a.14.14,0,0,0,.07.08S8,40.73,8,40.7ZM25,8.81l-.07-.06s0,.05,0,.06a.5.5,0,0,0,.08.07ZM4.82,38.29a.3.3,0,0,0-.07-.08s0,0-.08,0,0,.07,0,.07S4.78,38.31,4.82,38.29ZM7.26,10.55s-.08,0-.08.07,0,.05.05.08.06,0,.07,0A.26.26,0,0,0,7.26,10.55ZM37,2.65l.06,0a.41.41,0,0,0-.07-.11s0,0-.07,0ZM4.7,36.06h0l0-.22h0Zm.12-22.58s-.06-.08-.09-.08-.06,0-.09,0,0,.06.07.07S4.77,13.49,4.82,13.48ZM26.36.52,26.23.47l0,.05.11.08ZM3.18,17s.07-.07.06-.1,0,0-.05-.08,0,.05,0,.07S3.16,17,3.18,17Zm1.58-.59a.83.83,0,0,0-.13-.11s-.08,0-.11.06.05.07.08.08S4.68,16.43,4.76,16.41Z" transform="translate(-0.27 -0.35)"/><path d="M41.93,7.42,42,7l0-.19h-.18l-.3.08c0-.18-.09-.39,0-.54s.12-.26,0-.43-.11-.38-.16-.58l.54.24c-.09.13.52.34-.06.44-.06,0-.1.2-.13.27.27,0,.52.1.77.13a.55.55,0,0,0,.25,0s.09-.08.14-.12c.18.3.43,0,.65,0s.33-.18.51,0c0,0,.17,0,.25.06-.08.08.27.4-.16.3,0,0-.1.06-.15.09s-.23.09-.25-.14a.23.23,0,0,0-.13-.17c-.06,0-.14.06-.22.09s-.13.09-.2.08c-.34,0-.91.32-.93.67s-.13.23-.29.15Z" transform="translate(-0.27 -0.35)"/><path d="M38.1,75.17c-.37.15-.37.17-.27.48a.3.3,0,0,1-.09.26c-.1,0-.22.29-.34,0h0a1,1,0,0,0,0-.9l.09-.16.15-.16.13.07h0l.28.4Z" transform="translate(-0.27 -0.35)"/><path d="M8.3,9.05c-.16,0-.33,0-.31.29s-.19.27-.3.41c-.12-.16,0-.89.2-.9s.27.13.41.2Z" transform="translate(-0.27 -0.35)"/><path d="M37.48,74.89l-.09.16a.94.94,0,0,0-.21.18s0,.1.08.16a.6.6,0,0,1-.19-.06.21.21,0,0,1-.06-.17c0-.28.11-.55.17-.83h0c.39.3.22-.13.31-.23h.07l.09.31a2.16,2.16,0,0,0-.29.21.7.7,0,0,0-.1.23Z" transform="translate(-0.27 -0.35)"/><path d="M42.73,5.45a1.51,1.51,0,0,1,.42,0c.11,0,.18.15.27.23a1.13,1.13,0,0,1-.23.17C42.8,6,42.81,5.64,42.73,5.45Z" transform="translate(-0.27 -0.35)"/><path d="M6.47,41.64l.42.1c-.16.24-.31.5-.65.39l.24-.5Z" transform="translate(-0.27 -0.35)"/><path d="M40.46,75.25c.23.14.31.58.11.72,0,0-.17-.07-.17-.11,0-.2,0-.41.07-.62Z" transform="translate(-0.27 -0.35)"/><path d="M41.57,75l.72.06c-.18.43-.46.14-.71.07Z" transform="translate(-0.27 -0.35)"/><path d="M1.79,34.44c0,.12,0,.25-.08.36s-.12.13-.17.11c-.28-.08,0-.28-.08-.42l.33-.05Z" transform="translate(-0.27 -0.35)"/><path d="M5.68,41.21v-.49s.1,0,.12.07S6.08,41.07,5.68,41.21Z" transform="translate(-0.27 -0.35)"/><path d="M42.78,74.74c0,.21.06.42.07.63,0,0-.1,0-.13,0a.27.27,0,0,1-.08-.17c0-.14,0-.29.08-.43Z" transform="translate(-0.27 -0.35)"/><path d="M3.41,35.21l-.23.17a.32.32,0,0,1-.19,0s-.09-.08-.07-.11.07-.14.12-.14.24,0,.36,0Z" transform="translate(-0.27 -0.35)"/><path d="M41.11,74.83c0,.15.1.3.14.45s0,.11-.06.17-.15-.13-.15-.19a2.14,2.14,0,0,1,.07-.43Z" transform="translate(-0.27 -0.35)"/><path d="M3,38a1.1,1.1,0,0,1-.14.21s-.12,0-.14,0a.69.69,0,0,1-.1-.19l.16,0Z" transform="translate(-0.27 -0.35)"/><path d="M10.2,43.73,9.93,44l-.1-.13.28-.22Z" transform="translate(-0.27 -0.35)"/><path d="M7.33,41.8l0,.34a1.42,1.42,0,0,1-.29,0s-.06,0-.09,0l.35-.26Z" transform="translate(-0.27 -0.35)"/><path d="M41.31,76.91l.16-.48.09,0-.18.49Z" transform="translate(-0.27 -0.35)"/><path d="M42.46,74.41c.06.11.11.15.1.18s-.08.16-.12.24a.34.34,0,0,1,0-.11A2.78,2.78,0,0,1,42.46,74.41Z" transform="translate(-0.27 -0.35)"/><path d="M3,38l0-.07-.15-.25h.12c0,.11,0,.22.06.33Z" transform="translate(-0.27 -0.35)"/><path d="M6.46,41.24c-.13,0-.28.12-.39.08s0-.18.18-.13l.21.05Z" transform="translate(-0.27 -0.35)"/><path d="M9,42.46l.07.22-.26-.09Z" transform="translate(-0.27 -0.35)"/><path d="M8.77,43l.32.25L9,43.35,8.78,43Z" transform="translate(-0.27 -0.35)"/><path d="M14.86,45a2.06,2.06,0,0,1-.12.26l-.06,0,.09-.28Z" transform="translate(-0.27 -0.35)"/><path d="M37.4,75.94l-.06.34c0-.12-.32-.33.06-.33Z" transform="translate(-0.27 -0.35)"/><path d="M6.61,42.63l-.1.26-.06,0a2.41,2.41,0,0,1,.08-.25Z" transform="translate(-0.27 -0.35)"/><path d="M7.65,42.6l.07.06-.12.13-.08-.23Z" transform="translate(-0.27 -0.35)"/><path d="M14.06,44.6c-.11,0-.14.08-.17.07s-.1-.05-.1-.08.05-.11.07-.11S14,44.54,14.06,44.6Z" transform="translate(-0.27 -0.35)"/><path d="M41.61,74.7l-.1-.2a.51.51,0,0,1,.15.07s0,.06,0,.1Z" transform="translate(-0.27 -0.35)"/><path d="M49.38,19.59l-.12.09-.06-.08.12-.08S49.35,19.55,49.38,19.59Z" transform="translate(-0.27 -0.35)"/><path d="M49,13.84l.12.28-.07.05-.2-.33H49Z" transform="translate(-0.27 -0.35)"/><path d="M5.25,40.83l-.06-.23.07,0,.06.23Z" transform="translate(-0.27 -0.35)"/><path d="M48.87,11.25l-.1-.09.23-.11Z" transform="translate(-0.27 -0.35)"/><path d="M5.93,41.53l.08.12s-.06.06-.08.05l-.09-.09Z" transform="translate(-0.27 -0.35)"/><path d="M8.78,43l0,0-.23,0,0-.09.22.15Z" transform="translate(-0.27 -0.35)"/><path d="M7.62,42.1l-.15.3-.1-.06.25-.23Z" transform="translate(-0.27 -0.35)"/><path d="M41,6.93l-.17.13,0-.09.21,0Z" transform="translate(-0.27 -0.35)"/><path d="M41,6.93l0-.22H41l0,.22Z" transform="translate(-0.27 -0.35)"/><path d="M43.62,5.37l.11.23-.12-.08S43.61,5.45,43.62,5.37Z" transform="translate(-0.27 -0.35)"/><path d="M15.53,45l.1-.14.07.15-.18,0Z" transform="translate(-0.27 -0.35)"/><path d="M39,74.84l0,.3h-.09l.07-.29Z" transform="translate(-0.27 -0.35)"/><path d="M3.52,36.13l.2.17-.14,0S3.56,36.22,3.52,36.13Z" transform="translate(-0.27 -0.35)"/><path d="M6.33,10.16l.12-.2.06.06-.19.13Z" transform="translate(-0.27 -0.35)"/><path d="M31.38,43.21l-.16-.06a.35.35,0,0,0,0-.06l.17.07Z" transform="translate(-0.27 -0.35)"/><path d="M5.92,42.42l-.08-.06.07-.06a.18.18,0,0,1,.09,0Z" transform="translate(-0.27 -0.35)"/><path d="M2.08,34.94a.93.93,0,0,1,0-.14.18.18,0,0,1,0-.07.41.41,0,0,1,.07.11S2.14,34.89,2.08,34.94Z" transform="translate(-0.27 -0.35)"/><path d="M6.48,41.63l-.06-.23h.1a2,2,0,0,1,0,.24Z" transform="translate(-0.27 -0.35)"/><path d="M49.1,11.88,49,12s-.05,0-.06-.06,0-.07,0-.1Z" transform="translate(-0.27 -0.35)"/><path d="M43.86,75c-.08.06-.1.09-.12.09a.8.8,0,0,1-.15,0s0,0,.08,0Z" transform="translate(-0.27 -0.35)"/><path d="M2.24,37.31v0l0,0s0,0,0,0Z" transform="translate(-0.27 -0.35)"/><path d="M2.18,37.12c-.06,0-.1.06-.11.05A.28.28,0,0,1,2,37.09S2,37,2,37Z" transform="translate(-0.27 -0.35)"/><path d="M24.86,9.39l.44.1-.44,0Z" transform="translate(-0.27 -0.35)"/><path d="M9.32,27.58l.15,0v.1l-.15-.08Z" transform="translate(-0.27 -0.35)"/><path d="M37.63,74.73v-.32l.14.39Z" transform="translate(-0.27 -0.35)"/><path d="M35.66,12l.44.2-.16.31s-.12,0-.13-.07S35.73,12.23,35.66,12Z" transform="translate(-0.27 -0.35)"/><path d="M29.35,9.62l-.39.54-.12-.09.37-.52Z" transform="translate(-0.27 -0.35)"/><path d="M11.68,32.08l.18-.39.1,0-.07.41-.21,0Z" transform="translate(-0.27 -0.35)"/><path d="M36.48,12.87l.09-.42c0,.05.16.12.15.16a1,1,0,0,1-.15.31Z" transform="translate(-0.27 -0.35)"/><path d="M29.82,9.85c0,.29-.19.21-.36.17l.37-.16Z" transform="translate(-0.27 -0.35)"/><path d="M15.47,35.37l.18.21s-.08.06-.11.05a.59.59,0,0,1-.17-.1Z" transform="translate(-0.27 -0.35)"/><path d="M16.11,35.49l.23.06,0,.13-.22-.1Z" transform="translate(-0.27 -0.35)"/><path d="M14.57,34l.12.12-.14.11s-.08-.08-.07-.11S14.53,34.05,14.57,34Z" transform="translate(-0.27 -0.35)"/><path d="M34.91,11.5a1.87,1.87,0,0,1,0,.25h-.06a2.44,2.44,0,0,1-.1-.24Z" transform="translate(-0.27 -0.35)"/><path d="M30.87,10.43l.19.21-.09.07-.17-.22Z" transform="translate(-0.27 -0.35)"/><path d="M10.23,29.94l.18-.16.05.09-.23.06Z" transform="translate(-0.27 -0.35)"/><path d="M11.39,31.8a.71.71,0,0,1-.05-.18s.06,0,.06,0a.12.12,0,0,1,0,.09S11.43,31.73,11.39,31.8Z" transform="translate(-0.27 -0.35)"/><path d="M24.38,9.6l-.15.17-.06-.08.21-.08Z" transform="translate(-0.27 -0.35)"/><path d="M11.29,31.13l-.09.05a.21.21,0,0,1-.07-.12s0,0,.06-.08Z" transform="translate(-0.27 -0.35)"/><path d="M34.59,30.25l-.15-.05.08-.11.06.18Z" transform="translate(-0.27 -0.35)"/><path d="M37.4,22.56l-.14.12Z" transform="translate(-0.27 -0.35)"/><path d="M30.33,33.87l0-.3h.1l-.06.3Z" transform="translate(-0.27 -0.35)"/><path d="M37.55,74.11l.18-.14,0,.13h-.21Z" transform="translate(-0.27 -0.35)"/></g></g></svg>