<svg xmlns="http://www.w3.org/2000/svg" viewBox="0 0 73.24 77.01"><title>xxiv-two-normal</title><g id="Layer_2" data-name="Layer 2"><g id="Layer_3" data-name="Layer 3"><path d="M63.46,71.05c-.24.13-.64.13-.74,0h0c.15-.45-.34-.39-.47-.62-.08.11-.16.27-.21.26s-.3-.14-.29-.2a2.5,2.5,0,0,1,.22-.53c-.41.2-.71.21-.41-.49l-.17,0c-.05.12-.12.25-.16.38a1.75,1.75,0,0,1,0,.32s-.13,0-.2,0S61,70,61,70a.6.6,0,0,0-.3-.17,2.24,2.24,0,0,0-.58,0c-.19,0-.4.09-.27-.24-.1,0-.24-.13-.3-.09s-.13.2-.2.32c-.19-.43-.22-.43-1.07.18,0-.43-.11-.54-.54-.4-.2.06-.68.22-.5-.39,0-.13-.15-.33-.25-.49a.17.17,0,0,0-.13,0,.75.75,0,0,0-.13.25c-.12.36-.3.53-.66.27h0l-.39-.2a2.28,2.28,0,0,1-.3.38.77.77,0,0,1-.28.09l.16-.2s.06-.1,0-.1-.2-.2-.26-.18a1,1,0,0,1-1.2-.22.26.26,0,0,0-.27,0c-.45.45-1-.14-1.47.15a.57.57,0,0,1-.35.1c-.1,0-.18-.23-.26-.23a.94.94,0,0,0-.4.2.58.58,0,0,1-.82-.08c-.05,0-.1.1-.16.14s-.15.25-.27,0c0-.08-.43,0-.67,0a1.24,1.24,0,0,1-.27,0c-.06,0-.11-.11-.14-.18a.83.83,0,0,1,0-.22,1,1,0,0,0-.19.16,2,2,0,0,1-1.48.26c-.08-.06,0-.25-.06-.38,0-.35-.06-.7-.1-1.11a3,3,0,0,0-.7.52,1.45,1.45,0,0,1-1.36.44c-.34,0-.36.13-.39.37s.07.77-.47.33l-.08,0c-.21.39-.48.06-.72.08a8.66,8.66,0,0,0-.87.12c-.05,0-.08.09-.12.14h0c-.28,0-.53-.18-.84,0-.12.06-.65.24-.34-.43a2.2,2.2,0,0,1-.23.21c-.27.18-.47.77-.86.08-.08-.13-.42-.52-.79-.19,0,0-.34,0-.38-.14s-.48-.24-.43-.58c0,0-.16-.15-.2-.13a1,1,0,0,0-.28.27,2,2,0,0,0-.22.41s0,.11,0,.16a.75.75,0,0,1-.21,1l-.13-.49c0-.28,0-.28-.46-.1l-.11.3c-.11-.19-.58,0-.48-.4l-.33.16.14.24,0,0-.2.3h0c-.26-.05-.57.34-.76-.19-.13-.37-.31,0-.44.07a3,3,0,0,1-.67.45c-.1,0-.3-.2-.49-.35l-.15.25-.08-.06V70l-.1,0a1.2,1.2,0,0,1-.09.35c-.15.2-.33.37-.49.55-.08-.13-.25-.35-.22-.38.27-.28-.05-.31-.15-.31s-.38-.38-.53,0c0,.06-.11.09-.16.14l-.09-.26-.09-.25-.09.21L31.13,70,31,69.82c0,.09-.07.22,0,.26a.71.71,0,0,0,.28.1c0,.18-.39.3-.09.53-.11.13-.21.36-.34.38-.42,0-.86,0-1.28,0a4.59,4.59,0,0,0-1.76.4c-.34.21-.77.17-1,.48a.17.17,0,0,1-.12,0c-.5-.53-.89.13-1.35.12-.29,0-.62-.05-.84.26,0,0-.35-.24-.54,0a1.12,1.12,0,0,1-.22.26c-.05,0-.17,0-.23,0s-.16-.21-.22-.2-.53-.15-.5.3c0,.08-.32.16-.49.26s-.42.13-.57-.13a.61.61,0,0,0-.3-.22s-.14.13-.18.21-.07.23-.11.34a.86.86,0,0,0-.11-.19l-.52.28c0-.14,0-.33,0-.51s-.1-.09-.15-.14a1.15,1.15,0,0,0-.06.17c0,.23-.06.47-.09.7h-.13v-.72h-.17a3.17,3.17,0,0,1-.05.53.84.84,0,0,1-.34.42v-.85l-.08,0a4.81,4.81,0,0,0-.35.77c-.11.43-.48.38-.74.36s-.5-.16-.69.14c0,0-.11,0-.16,0-.25-.08-.24-.08-.31.11a1.24,1.24,0,0,1-.14.18.75.75,0,0,1,0-.26c0-.07.09-.12.12-.2a3.62,3.62,0,0,0,.13-.35l-.12,0c.15.26-.53,0-.23.35.05.07-.09.28-.13.43l-.46-.17.18-.09L16.16,74l.07.23c-.32.18-.64.38-1,.56a.88.88,0,0,1-.27.1l-.52.09.06-.35a2.74,2.74,0,0,0-.56.06c-.11,0-.19.16-.29.23s-.19.09-.28.14a2.45,2.45,0,0,0,0-.27.35.35,0,0,0-.08-.13s-.11,0-.13.08a1.45,1.45,0,0,1-1.1.71,4.45,4.45,0,0,0-1,0c-.12,0-.21.2-.31.31a2.39,2.39,0,0,0-.15-.37s-.15,0-.19,0l-.17.46L10,75.72c0,.41-.27.59-.67.37L9.18,76c-.12.47-.78.12-.9.59h0L8,76.73l.16-.24a1.72,1.72,0,0,0,.07-.21c-.07,0-.18-.06-.22,0l-.83.69a3.52,3.52,0,0,0-.79-.3c-.09,0-.24.22-.33.36a2.37,2.37,0,0,0-.15.4l-.2-.18c0-.1,0-.21,0-.31s0-.38-.08-.47-.44-.38-.71-.06a.32.32,0,0,1-.33,0,1.61,1.61,0,0,0-1.64.12,1.08,1.08,0,0,1-.36,0l.18-.24c.07-.12.13-.25.19-.37a.39.39,0,0,0,.14,0A1.29,1.29,0,0,0,3.48,76s0-.19,0-.29a2.74,2.74,0,0,0-.39.09c-.07,0-.13.12-.2.18l-.3.08-.1-.11.1-.52a1,1,0,0,0-.29,0,.38.38,0,0,0-.18.11l-.31.39c-.09-.19-.18-.37-.26-.56,0,0,0,0,0,0,0-.52-.07-.6-.5-.33s-.3-.28-.52-.21l.15-.94.21,0-.14.9c.42-.3.14-.86.55-1.07l.53-.54-.2-.12-.32.67c-.19.11-.29.08-.37-.16s.07-.22.19-.31c.28-.23.51-.52.78-.78s.72-.63,1.05-1c.09-.09.1-.26.15-.4l-.38.14s0,0-.06.08c-.23.34-.43.41-.58-.16a7.39,7.39,0,0,1-.36.74c-.09.13-.24.32-.37.32s0-.19-.06-.27A5.13,5.13,0,0,0,1,71.33c-.13-.25-.07-.37.16-.57.07-.06.06-.22.13-.29a.65.65,0,0,1,.34-.24,1.51,1.51,0,0,0,1.25-1.3c.27.16.52.3.78-.05.11-.16.31,0,.41.13s-.07.18-.08.17c-.37-.09-.15.37-.38.4.1.13.18.31.32.38a.63.63,0,0,0,.5,0c.54-.36.25.15.32.29l-.37.06.14.17.21-.25c.16-.12.32-.23.47-.36s.23-.27-.08-.32A1.6,1.6,0,0,1,4,69,1.45,1.45,0,0,0,5.2,67.91c.06-.22.32-.38.49-.57H5.4c.08-.18.14-.51.24-.52.42,0,.28-.45.46-.65s.29-.35.58-.17a.43.43,0,0,0,.41,0c.28-.32.53-.68.71-.92,0,.34.4.07.44,0A.89.89,0,0,1,9,64.7a.3.3,0,0,0,.19-.13c.13-.15.16-.46.49-.24,0,0,.2-.17.28-.28s.11-.09.31-.18a1.58,1.58,0,0,0,.48-.42,1,1,0,0,0,.15-.24c.24.32.43.28.64,0a1.61,1.61,0,0,1,.73-.45c.18-.06.34-.37.58-.11a3.78,3.78,0,0,0,.17-.35c.06-.15.06-.44.26-.07,0,0,.08,0,.12.06.11-.34.73-.07.72-.63,0-.13.42-.3.66-.41.51-.23,1-.44,1.54-.65.07,0,.19,0,.2-.08.11-.48.65-.43.86-.69A4.89,4.89,0,0,1,18.58,59a1.86,1.86,0,0,1,.25-.1c.2-.11.54-.1.45-.49,0-.06.15-.16.25-.21.33-.2.68-.39,1-.59a1.1,1.1,0,0,1,.06.16,1.77,1.77,0,0,1,.26-.35,13.4,13.4,0,0,1,1.25-1.14,6.94,6.94,0,0,1,1-.45c.23-.11.65.06.65-.41,0-.06-.06-.17-.1-.17s-.15.05-.22.08a2,2,0,0,1,.2-.28c.24-.19.32-.59.73-.55h0l.08.43a1.76,1.76,0,0,0,.33-.27,3,3,0,0,0,.46-.91l-.3.32c-.06-.26-.06-.26.6-.81l.15.44h.08l.1-.57h0c.16.2.25.48.47,0,.11-.25.45-.35.22-.73-.12-.19.26-.46.47-.37a2.21,2.21,0,0,0,.25.05c0-.09,0-.17,0-.26l.06-.35.15.33,1-1h0c.17-.26.17-.65.62-.68.09,0,.25-.3.22-.41-.13-.52.24-.75.51-1,0,.11,0,.22,0,.33.06,0,.16-.1.16-.16s-.06-.14-.1-.21.06-.43.38-.4c.06,0,.15-.09.2-.17l.77-1.21s.11,0,.16,0,.16,0,.19-.06c.26-.48.5-1,.78-1.44s.59-.9.88-1.35.58-.89.83-1.35.34-.7.5-1.06a11.83,11.83,0,0,1,.58-1.31,8.14,8.14,0,0,0,1-2.11A7.35,7.35,0,0,1,37,36.82c.13-.26.1-.6.22-.87.21-.54.39-1.08.6-1.62,0,0,.11,0,.14,0s.17-.15.16-.2a1.42,1.42,0,0,1,.32-1.24c0-.05.1-.1.09-.13-.21-.64.29-1.13.37-1.72,0-.09.16-.17.25-.26v-.18c0-.1-.09-.19-.13-.29-.08-.25.37-.27.23-.62s.06-.58.11-.88a3.64,3.64,0,0,1,.18-.87,2.27,2.27,0,0,0,.11-1.18c0-.06.12-.13.15-.2a.85.85,0,0,0,.07-.43,2.17,2.17,0,0,1,.15-1.5c0-.07-.1-.22-.1-.33,0-.79,0-1.58,0-2.38s0-1.68-.11-2.52a4.34,4.34,0,0,0-.29-.9l-.12.47-.12,0c0-.14,0-.31.09-.41.32-.45.15-.84-.07-1.26a2.68,2.68,0,0,1-.12-.59c-.11-.39-.12-1-.38-1.13-.44-.28-.5-.88-.79-1s-.49-.25-.34-.61l0,0c-.16-.1,0-.53-.43-.39a.58.58,0,0,1-.21-.35c0-.48-.22.07-.26-.08h0a4.85,4.85,0,0,0-.16-.63c0-.08-.18-.21-.21-.19-.6.32-.39-.23-.43-.33l-1-.33h-.2c-.29.07-.6,0-.86.18a.4.4,0,0,1-.33-.08c-.1-.22-.16-.15-.29,0s-.18,0-.28,0-.45-.37-.66,0c0,0-.08,0-.09,0-.24-.58-.45-.18-.67,0s-.11.1-.22,0-.34-.1-.5-.07a7.58,7.58,0,0,0-.77.24s-.07,0-.1-.05l.1-.15c0-.1,0-.21.05-.32l.12-.19-.19.12h-.28l.18.17.13.24-.51-.25-.51-.13,0,.1.43.14L29.1,12v-.23l.06-.32-.25.21a1.26,1.26,0,0,1-.75-.26c-.11-.26-.4-.35-.54-.12a.62.62,0,0,1-.88.31c-.25-.09-.58.1-.86.07s-.53-.16-.57-.3c-.13-.5-.29-.16-.44-.06s-.23.25-.51.17A5.36,5.36,0,0,0,23,11.43c-.07,0-.16.13-.19.22-.17.49-.5.6-.85.24s-.51.07-.73.22h0c-.11.05-.28.05-.32.13-.38.62-.45.67-1.08.64l.21-.5c-.41.24-.71.44-1,.61a1,1,0,0,1-.3,0h-.2c0,.43-.47.37-.64.63s-.23.43-.45.09c-.16.1-.32.22-.5.31a.44.44,0,0,1-.3,0c-.08,0-.13-.12-.19-.18l-.2.22.19.11-.94,1a2.62,2.62,0,0,1-1.18.9.17.17,0,0,0-.1.14.5.5,0,0,1-.65.49h-.22a.93.93,0,0,0,.16.18,3.33,3.33,0,0,0,.37.14,1.89,1.89,0,0,0-.9,1.34c0,.08-.27.12-.4.2s0,.13,0,.19h0l-.49.29c.11.17.19.39.46.22,0,0,.1.06.09.07a.41.41,0,0,1-.11.24c-.33.23-.45.46-.09.79.06.05,0,.3-.08.45s-.16.32-.25.51l.19,0,.25.06c0,.08-.07.2-.14.22-.3.11-.28.35-.22.57s-.23.7.22.9l-.51.1.07.18.44-.28a2.52,2.52,0,0,1,0,1.23,2.24,2.24,0,0,1-.58.06l-.09.09c-.2,0-.4.1-.34-.28,0-.22-.47-.3-.3-.65,0,0-.11,0-.12,0s-.12.13-.1.18c.09.47-.25.71-.51,1a.26.26,0,0,1-.24,0,2.11,2.11,0,0,1-.1-.38,1.89,1.89,0,0,0-.09-.21h0a.17.17,0,0,1,0-.05l.33-.61-.68-.16h0a1,1,0,0,0-.07-.91s-.09.09-.14.14h0a1.57,1.57,0,0,0-.44.18,9,9,0,0,0-1,1.13c-.18.25-.33.13-.51.12a1.11,1.11,0,0,0,.09-.31c0-.22,0-.44,0-.67a4,4,0,0,0-.08-1.49c-.08-.2.18-.53.29-.8a.71.71,0,0,0,.1-.3c0-.3-.08-.6-.08-.9,0-.09.15-.18.22-.27A2.25,2.25,0,0,0,8,19H7.83l-.33.05c0-.1.08-.2.1-.3.06-.42.13-.85.16-1.27a1.3,1.3,0,0,0,0-.59c-.07-.2-.2-.41-.48-.14s-.16.09-.2-.27c.2-.18.3-.36,0-.49a1.74,1.74,0,0,1-.05-.22l-.12.06L7,16l0,.51c-.1.19-.22.37-.31.56s-.12.33-.19.53c-.08-.28-.15-.47-.19-.67s.07-.18.08-.26a2.74,2.74,0,0,0,0-.49,3,3,0,0,0-.11-.43.57.57,0,0,1,0-.18c-.67-.08-.13-.53-.24-.78l.27-.21-.27,0c-.28-.49-.1-.83.53-1.39.44-.38,1-.68,1.16-1.32,0-.09.2-.13.28-.21s0-.13,0-.2l.29-.2c.17-.09.34-.17.49-.27a.35.35,0,0,0,.16-.22c.11-.52-.44-.63-.61-1l-.61.29a3.87,3.87,0,0,0-.34.21L7.67,10c.22-.46.66-.53,1.09-.64l.11.09c.08.07.19.22.23.2s.18-.17.27-.26H8.75c.15-.17.29-.35.45-.5s.37-.28.54-.43.07-.48.38-.18c0,0,.08-.06.09-.1.1-.43.56-.56.75-.92,0-.07.12-.1.16-.16s.16-.36.29,0A.69.69,0,0,0,11.66,7c.27-.14.65.11.87-.22a1.56,1.56,0,0,0,.1-.37c-.1,0-.21.07-.31.12l-.42.24c0-.24-.28-.52.25-.55a2.86,2.86,0,0,0,.75-.28h0c0,.26.24.38.41.23a1,1,0,0,0,.33-.65c0-.64.55-.79.9-1.1.07-.05.31.09.47.14l.22,0c.16-.49.56-.43.94-.47.08,0,.2-.23.2-.36s-.05-.52.35-.32h.08c.22-.59.61-.16.93-.15s.7,0,.55-.52c0-.1.07-.24.1-.36.06.06.13.18.17.17a1.87,1.87,0,0,0,.48-.2c.13-.08.16-.39.42-.1.07.09.42,0,.62-.11s.49-.26.74-.38a.26.26,0,0,1,.19,0c.38.28.7-.09,1.06-.1.09,0,.19-.18.29-.3.08.42.28.41.62.17.11-.08.34-.61.57-.06,0,0,.08-.08.13-.09.65-.11,1.3-.2,1.95-.32A1.81,1.81,0,0,0,26.1.82c.1,0,.25-.15.28-.12.24.23.57.11.85.2,0,0,.16-.21.18-.24s.32.13.44.09.5-.32.82,0a.73.73,0,0,0,.67,0c.32-.2.54,0,.8.06s.4-.08.6-.08c.36,0,.86.15,1.05,0s.63.1.81-.23c0,0,.12,0,.18,0,.35.05.7.27,1.06,0a.11.11,0,0,1,.11,0s.08.15.12.14c.29,0,.58-.07.87-.09a.45.45,0,0,1,.31.05c.22.2.34.17.44-.11,0,0,.16,0,.24-.06a2.62,2.62,0,0,1,0,.28,2.11,2.11,0,0,1,0,.25.78.78,0,0,0,.23-.07.47.47,0,0,1,.63.22c.09.23.14.5.5.28s.15-.31,0-.33C36.87,1,37,.73,37,.5c.71.36.71.36.79.88a2,2,0,0,1,.14-.49c.07-.1.19-.15.22-.12s.32.19.4.14c.46-.25.85,0,1.23.14.14.05.49,0,.4.36a.55.55,0,0,0,.18,0l.48-.08c0,.13-.07.26-.11.4s0,.15-.06.32l-.49-.57a8,8,0,0,0,.06.82,2.33,2.33,0,0,0,.44,0c0,.31.11.7.62.78,0,0,.09.11.08.15-.19.65.46,1.13.28,1.78l.13,0,.39-.47.78.48c.18.12.34.3.56,0,0,0,.2.08.22.14a1.77,1.77,0,0,0,.73,1.17c.11.06.1.32.13.49s0,.22,0,.33a1.39,1.39,0,0,1,.28-.12c.2,0,.41-.08.62-.12h0l.3.66c.14.27.46.48.11.87A.78.78,0,0,0,46,9.3c.39.19.32.48.39.79s.35.44.56.64c0,0,.21-.06.25-.13.19-.32.34-.66.56-1.1,0,.41,0,.7,0,1s0,.53.38.4c0,0,.18.15.16.21a1.09,1.09,0,0,0,.32,1.08,4.79,4.79,0,0,1,.48,1.3c.07.16,0,.51.4.33,0,0,.12.15.1.19a1.38,1.38,0,0,0,.21,1.58,5.61,5.61,0,0,1,.29-.54c0-.07.14-.09.21-.14s.12.18.11.25a1.21,1.21,0,0,1-.21.52c-.24.24-.22.54-.31.82s0,.37.29.36l.22-.11c.07.29.15.59.21.88a1.55,1.55,0,0,1-.31.09.58.58,0,0,0,0-.26c0-.1.46-.12,0-.26L50,17l0,.12.37.07-.62.56.87.33-.74.59s0,0-.07.21a5.65,5.65,0,0,1,.5-.34c.09-.05.19-.07.28-.11s-.1.19-.08.25c.09.23-.41.58.14.72a2.74,2.74,0,0,1-.15.51,4.36,4.36,0,0,1-.41.55l.14.14.52-.29a1.35,1.35,0,0,0,.07,1.22c.06.13-.17.42-.33.59s-.19.15,0,.34h0c.47.17.09.53.18.78l-.27-.17-.05.25.31-.09c0,.32.34.71-.21.92-.06,0,0,.35,0,.52-.06.36-.15.72-.23,1.07,0,.15-.2.35.14.35,0,0,.06.15,0,.15-.42.25,0,.41,0,.62a1.39,1.39,0,0,1,0,.73c-.12.48.09,1-.38,1.44-.16.14-.19.42-.29.63a3.07,3.07,0,0,1-.23.39l-.15,0,.26.39a1.09,1.09,0,0,0-.35.16s.07.21.11.32h0a2.71,2.71,0,0,1,.11,1.9H49.1c0,.23-.08.56,0,.65.38.3-.06.39-.1.57a2.69,2.69,0,0,1-.19.43l.16.1c.24-.3.34,0,.39.13s.33.6,0,.74c-.55.23-.43.63-.37,1a3.2,3.2,0,0,1-.13,2c-.07.15-.24.27-.27.43-.08.4-.07.81-.16,1.21a7.68,7.68,0,0,1-.36,1.12c-.07.19-.2.35-.28.54s-.1.65-.23.7c-.34.1-.19.34-.25.51s-.05.29-.13.34c-.38.21-.31.58-.41.91a5.11,5.11,0,0,1-.52,1.08c-.15.27-.34.51-.51.77a.19.19,0,0,0,0,.08,3.86,3.86,0,0,1-.92,2.25c-.1.11-.09.32-.15.47S44,50,44,50s0,.1-.07.12c-.48.2-.49.63-.61,1.06a4.63,4.63,0,0,1-.71,1.11c-.3.44-.59.9-.91,1.33s-.52.66-.77,1-.44.63-.66.94l-.61.77c-.18.23-.35.47-.54.73.2-.26.58.23.75-.21.21.24.47.06.69,0,.41,0,.82-.13,1.23-.17s.86-.07,1.29-.11c.19,0,.51,0,.55-.12.17-.35.27-.08.42,0s.23.41.33,0c0,0,.12,0,.19,0a3.34,3.34,0,0,0,1.8-.14s.12-.06.13-.05c.29.42.67.12,1,.12a.4.4,0,0,0,.28-.12c.18-.2.3-.22.4.05a.47.47,0,0,0,.14.16c.52-.39,1.22,0,1.75-.39a.35.35,0,0,1,.37,0c.25.28.42.22.63,0,0-.06.26-.06.26-.06.13.57.45.21.7.15,0,0,.06-.07.09-.11.32.47.7,0,1,.07s.3.38.4.51a3.14,3.14,0,0,1,.39-.48s.18.06.28.09l-.29.44.77-.14h0c.07.34.07.33.32.22.05,0,.15.06.23.09l.47.15a1.48,1.48,0,0,1,0-.36.41.41,0,0,1,.16-.18c.32.2.32,0,.37-.24s.12-.16.19-.23.18.2.15.26c-.15.34.2.16.21.16.17-.13.33-.28.49-.42.49.46.75.49.93.09.1.4.41.46.74.48l.07.06.75-.26,0,.29c.2-.08.37-.17.56-.23,0,0,.11.13.16.2l-.2.09,1.25.34.74-.59c.05.07.14.15.13.18-.22.39.16.69.15,1s.15.33.35.09c0-.05.16,0,.25-.06s.06,0,.07,0c.13.25.29.19.43,0s0-.17,0-.26l-.4.12a.6.6,0,0,0-.11.06c0-.21,0-.43,0-.65s.1-.16.15-.24a1.72,1.72,0,0,0,.07.21c0,.08.07.15.06.12l.52-.44s.11,0,.16,0c0,.32.28.22.43.33a.93.93,0,0,1,.21.24h.49c.07,0,.2,0,.21,0,0-.4.17-.1.31-.05a1.3,1.3,0,0,0,.41,0l.1.43.13-.06.14.12.09-.17c.06,0,.17-.14.17-.13.19.18.36.38.54.57a.34.34,0,0,0,.18.11,3.19,3.19,0,0,1,.63.12c.11,0,.19.22.23.35a.87.87,0,0,1,0,.36c0,.31.14.27.33.19h0s.1.08.09.09c-.12.34.33.38.34.65a1.06,1.06,0,0,1,.25-.09c.48,0,.37.52.6.75.05.05-.08.41.15.58l-.57.64c-.07.07-.11.16-.18.23a.91.91,0,0,1-.24.2c-.11.08-.23.14-.34.21a.74.74,0,0,0-.12.17,2.12,2.12,0,0,1-.11-.21l-.38-.57c-.25.44-.25.44-.08.9l.47-.34c-.27.43-.19.67.27.79A.15.15,0,0,0,69,63a1,1,0,0,0,0-.24l.46.1a3.37,3.37,0,0,1-.09.34c-.07.19-.26.43-.2.55a1.51,1.51,0,0,0,.57.48c.06,0,.21-.08.27-.11a5.4,5.4,0,0,1-.41-.45s.14-.18.22-.26c0,.11,0,.21,0,.32l.13,0-.13-.3a3.22,3.22,0,0,1,.37.2.75.75,0,0,1,.15.2l.21-.24c.08-.1.15-.21.23-.3s.12,0,.12,0a1.43,1.43,0,0,1-.1.42c-.09.17-.34.42-.31.46.31.38.31-.28.6-.17a1.21,1.21,0,0,0,0,.18,2.66,2.66,0,0,0,0,.28.7.7,0,0,0,.29-.08c.16-.11.28-.3.46-.38a3.3,3.3,0,0,1,.71-.13c-.06.37.74.44.34,1-.09.11,0,.35,0,.51.13.54.1.6-.45.62h0l-.59-.32c.2.58-.27.69-.5.89a2.71,2.71,0,0,0-.56,1s.17.17.27.26l.19.23.09-.09-.18-.24c.24-.42.37,0,.52.08s.32.26.1.45-.44.21-.16.48c-.08.07-.14.18-.22.19a2.17,2.17,0,0,1-.44,0c0-.09,0-.26-.07-.33s-.82-.15-1.22,0l.08-.31-.06-.09c-.27.26-.63.46-.79.78s.57.39.52.86l-.55-.13.07.1-.51.32.11-.27-.16,0,0,.29-.12.08c.18.17.07.32,0,.51a1.93,1.93,0,0,0,0,.72s.1.12.16.12c.21,0,.52-.11.34.31,0,0,.07.06.09,0l.36-.24c.52.7.52.72.07,1.15.08-.43-.16-.66-.63-.64-.65,0-1-.2-1-.77-.14,0-.45.37-.45-.13a.78.78,0,0,0-.27.09,1.5,1.5,0,0,0-.24.34c-.06-.2.27-.62-.27-.45,0,0-.1-.22-.19-.29a.37.37,0,0,0-.33-.07c-.07,0-.15.26-.12.3.34.39-.35.22-.24.46a1.87,1.87,0,0,1-.29-.34,2.07,2.07,0,0,1-.1-.43l.14.1a.69.69,0,0,0,.19.1s0-.06.08-.1a1,1,0,0,0-.19-.12.82.82,0,0,0-.22,0l-.33,0c.06.19-.48.23-.14.5-.14.14-.27.34-.44.41s-.6-.21-.57-.52l.44-.18c-.17.25-.1.42.27.5l-.21-.55-.24-.34c.06-.13.11-.27.17-.4-.09.12-.52.14-.15.39l-.38.27-.12-.24a1.63,1.63,0,0,0-.11-.23s-.12.08-.13.13a.31.31,0,0,0,.06.21A1.39,1.39,0,0,0,63.46,71.05ZM28.89,11.14l.28,0,0-.12-.26.09a.32.32,0,0,1-.08.12s-.08.06-.12.1l.06.06a.29.29,0,0,0,.11-.11A1,1,0,0,0,28.89,11.14ZM14.83,74.29h.29l-.1-.2-.18.21-.1.29h.15ZM34.38,11.2l.08.21.09-.06-.18-.14.05-.28L34.2,11ZM2.25,70.55l.44-.2-.1-.14-.35.34L2,70.46s0,.05,0,.07ZM25,71.76l-.32-.07v.13l.31-.06L25,72l.15-.15ZM9,22.21l-.26.15.08.1.26-.21,0-.46H8.94ZM3.11,70l.32.09,0-.15-.36.07,0-.47-.38.36ZM8.34,20.93l0,0c-.46.51-.44.71.1,1.05.08-.21.15-.42.25-.62A3.14,3.14,0,0,1,9,20.9a1.42,1.42,0,0,1,.22-.2,2.68,2.68,0,0,0,.07.27l.15.31c.06-.07.18-.14.17-.19,0-.33-.13-.65-.2-1,0,.52-.36.29-.57.36l-.21.12c-.41-.11-.25-.44-.12-.56.45-.41.13-.89.23-1.34-.24.43-.48.85-.68,1.29s0,.62.26.87Zm-.2-2.57c.12-.09.23-.19.34-.29s.09-.11.07-.14-.12-.11-.14-.09c-.18.13-.52.19-.26.53l-.21.31.12.06Zm37.15,26.8.34-.64c-.56.13-.3.44-.32.66l-.25.37.11.06.09-.36ZM64.63,68.93l.12.28h.08l-.06-.36-.15.1c-.06-.42-.27,0-.4-.08l-.11.32.32-.14Zm4.58-7.56c.08,0,.18,0,.23,0s.25-.2.23-.27-.17-.19-.27-.28c0,.11,0,.22-.05.33a1.19,1.19,0,0,1-.13.25l-.18,0,.18.15ZM38.91,13.86l-.06.2L39,14l-.14-.16c.36-.34-.17-.4-.18-.63C38.55,13.69,38.55,13.69,38.91,13.86ZM10.1,20.23a1.5,1.5,0,0,0,0,.51,1.42,1.42,0,0,0,.26.44.26.26,0,0,0,.12-.05,1.88,1.88,0,0,0-.1-.47,2.55,2.55,0,0,0-.23-.43c.25.32.27-.18.45-.13l0-.14-.26.2Zm.15,2c.08,0,.21,0,.24,0,.15-.24.28-.49.42-.73.13,0,.37.06.38,0a3.83,3.83,0,0,0,.1-.59l-.17-.05-.3.63c-.75.17-.82.24-.66.76l-.33.41s.11.05.12,0l.21-.37S10.25,22.25,10.25,22.22Zm29-17.84c-.06.45.23.43.46.45a.41.41,0,0,0,.21,0c.1,0,.27,0,.29-.11a.69.69,0,0,0-.05-.37c0-.11-.17-.19-.22-.31s0-.15,0-.23-.23,0-.29.08A5.56,5.56,0,0,0,39.25,4.38Zm29,63.67c-.15-.07-.24-.13-.27-.11-.41.26-.5,0-.52-.32a.29.29,0,0,0-.24-.07,1.55,1.55,0,0,0-.28.24,2.39,2.39,0,0,1-.22.23c.1.07.21.2.3.19s.32-.06.37.19c0,0,.23.07.31,0A4,4,0,0,0,68.28,68.05Zm-1.52,2.64.16.28.21-.27s.06-.13.11-.15c.32-.1.32-.25.09-.47-.07-.06-.08-.19-.12-.29a2.23,2.23,0,0,0-.38.37C66.76,70.27,66.79,70.44,66.76,70.69ZM25.08,3.17l-.16,0c-.16.19-.46.41-.43.55.08.3.44.31.67.17C25.69,3.52,24.78,3.47,25.08,3.17ZM48.35,67.91a4.79,4.79,0,0,0-.64.63c-.07.09,0,.27,0,.4s.2,0,.28,0a.51.51,0,0,0,.27-.25A5.35,5.35,0,0,0,48.35,67.91ZM8.17,23.2l.45-.86c-.11,0-.28-.12-.31-.08a2.57,2.57,0,0,0-.39.6C7.9,22.91,8,23,8.17,23.2Zm36.16,14,.24,0c0-.26.09-.52.14-.77s.07-.23.09-.34a1.31,1.31,0,0,0,0-.28c-.08.05-.22.09-.24.16C44.46,36.42,44.4,36.81,44.33,37.21ZM36.07,3.27c-.22-.1-.41-.18-.6-.28s-.16-.11-.24-.16-.13.17-.11.22a.92.92,0,0,0,.23.29,2,2,0,0,0,.33.15c.07,0,.18.11.21.09A1.69,1.69,0,0,0,36.07,3.27Zm-2.16.34c-.51.2-.59.52-.28.95C33.82,4.25,34.38,4.06,33.91,3.61ZM38.73,4l-.45.5c.14.09.34.27.4.23a1.38,1.38,0,0,0,.38-.47ZM37.4,3.54a3.74,3.74,0,0,0-.24.5s.13.15.14.15L38,3.78ZM40,10c-.28-.23-.47-.39-.67-.54,0,0-.12.08-.16.14s0,.09.07.13a1.66,1.66,0,0,0,.16.21,1.06,1.06,0,0,0,.27.25S39.79,10.07,40,10Zm7.71,58.8-.28-.51c-.07.13-.2.25-.2.37s.11.28.18.41ZM22.52,72.68l-.15-.2-.2-.44a1.3,1.3,0,0,0-.27.42c0,.07.17.21.29.26S22.41,72.7,22.52,72.68ZM70,66.28c-.15-.3-.4-.27-.64-.14-.07,0-.08.19-.12.29a.82.82,0,0,0,.27,0ZM25.56,4.56l-.68-.4,0,.53Zm18.8,33.6L44.11,38a3.54,3.54,0,0,0-.25.52s.09.11.14.17ZM48,11.77c-.19.13-.45.21-.45.3s.15.32.27.52Zm-38,3.73.26.31c.06-.07.17-.16.16-.22a2.18,2.18,0,0,0-.18-.38ZM14.1,8.92c-.13-.15-.25-.3-.27-.29a3,3,0,0,0-.33.29c.1.06.19.16.3.18S14,9,14.1,8.92ZM2.21,74.79c-.16.15-.32.28-.46.43s.08.13.13.19c.14-.16.28-.33.41-.5C2.3,74.9,2.25,74.84,2.21,74.79ZM27.1,3.67,26.68,3l-.07.6ZM2.85,75.38l.26-.51-.63,0Zm27.94-5-.18-.07-.31.45.27.12ZM37.14,2.6a2.11,2.11,0,0,0,.64.17c.09,0,.16-.27.22-.39ZM12.73,9.54l0,.14.44.08V9.39ZM17,8c.12-.08.18-.11.21-.16a3.54,3.54,0,0,0,.26-.41l-.11-.09L17,7.72A2.36,2.36,0,0,0,17,8ZM9.71,13.7l.1.09.41-.36-.16-.17ZM42.24,8.49c-.12-.11-.2-.23-.26-.23-.56.06.16.29,0,.42l.06.11ZM65.52,58.68l.18,0-.12-.7-.16,0ZM48.39,38.57l.18,0c0-.17-.06-.33-.1-.5l-.11,0A4.19,4.19,0,0,0,48.39,38.57ZM11.3,20.25c.06-.08.14-.14.13-.18a1,1,0,0,0-.14-.23c-.06.06-.17.12-.17.18S11.22,20.15,11.3,20.25ZM7.17,15.36l.09.11.41-.32L7.57,15Zm3.62,4,.11.05.21-.35L10.9,19Zm16-7.78c.42-.09.59-.22.3-.54Zm9.92-8.87c0,.12-.09.2-.07.24a2.43,2.43,0,0,0,.26.3c0-.06.14-.14.13-.16A4,4,0,0,0,36.74,2.71Zm-29,11.6-.11.13.31.28.16-.21Zm38,28.74L45.62,43l-.25.48.15.08ZM12.54,17.47l.12.07.27-.35-.13-.08C12.71,17.22,12.62,17.35,12.54,17.47ZM7.19,76.3c.27-.29.27-.29,0-.48ZM29.13,71l.08,0-.11-.35-.18.13ZM9.67,17.3l-.14.17a1.59,1.59,0,0,0,.22.13s.07-.06.1-.09Zm35.26-2.7c.07-.1.13-.15.14-.22s0-.09-.08-.14-.15.07-.16.12S44.87,14.49,44.93,14.6ZM56.34,68.77c-.07.1-.14.16-.13.18a1.31,1.31,0,0,0,.17.24s.11-.07.1-.09A1.39,1.39,0,0,0,56.34,68.77Zm7.93-2,0,.1.3,0,0-.13ZM8.68,75.63a1.31,1.31,0,0,0-.21.25s.09.12.13.12a.19.19,0,0,0,.14-.12C8.76,75.82,8.71,75.75,8.68,75.63Zm57.1-8.47L65.63,67l-.21.34s.06.06.08.09ZM67,58.88l.14-.07L67,58.46l-.15.08ZM37.35,12.14l.06-.05s0-.11,0-.13a1.15,1.15,0,0,0-.17-.06ZM33.74,3.07V2.88l-.41.06s0,.08,0,.08ZM30.86,4.72,31,4.65l-.22-.34s-.12.11-.11.12S30.78,4.62,30.86,4.72ZM19.28,6.27l-.07-.11a2,2,0,0,0-.33.16s0,.13,0,.19Zm6.88,5v.12l.33,0a.72.72,0,0,0,0-.17ZM44,46.49l.17-.06-.14-.37-.13,0Zm.85-11.63a.8.8,0,0,0-.18-.14.32.32,0,0,0-.16,0,1.06,1.06,0,0,0,.17.2S44.8,34.91,44.89,34.86ZM39.35,15.74l.12.07.18-.31-.14-.08Zm-30.6,1.6.13.07L9,17,9,17Zm28.89-13-.07-.1-.31.22.1.15ZM9.08,19.58c.05-.1.09-.14.09-.18a.94.94,0,0,0-.06-.15S9,19.3,9,19.32A1.13,1.13,0,0,0,9.08,19.58ZM16.76,6.74l0,.07.4-.15s-.06-.11-.07-.1S16.88,6.68,16.76,6.74ZM10.17,23.46a1.38,1.38,0,0,0,.07-.35s-.06-.08-.1-.13a.71.71,0,0,0-.11.21C10,23.25,10.09,23.31,10.17,23.46ZM45.3,68.26l.16-.05-.18-.34-.1,0ZM12.1,18.17,12,18.1l-.1.38.13,0Zm32.54,27h-.1l0,.45h.13ZM8.42,14.11,8.36,14,8,14.18l.06.11ZM6.32,76.29l-.05-.11-.37.14,0,.1ZM3.58,75v.1a1.77,1.77,0,0,0,.32,0s0-.09,0-.13ZM9.65,21.77l-.1-.05-.09.3.09,0ZM38.44,12.6l-.27-.22s-.08.12-.07.13a.56.56,0,0,0,.2.14S38.37,12.63,38.44,12.6Zm6.4,21.75v-.06h-.3l0,.12ZM38.09,13.12l.12,0,.1-.28-.13,0ZM65.15,58,65,57.83a1.54,1.54,0,0,0-.19.17c.05,0,.11.11.15.11S65.08,58,65.15,58ZM47.82,38.27l.12.06.14-.37-.08,0Zm-20,32.11,0,.1.35.11a1.05,1.05,0,0,0,0-.13Zm18.51-28a1.14,1.14,0,0,0-.12.19s0,.06.08.09a2.09,2.09,0,0,0,.14-.17ZM63.54,68.53l.1-.15h-.18c-.05,0-.12.06-.13.1s0,.11.06.16ZM50.33,21.05l-.11,0,.08.41h.05ZM14,15.31l.06,0-.14-.3-.11.06Zm30.81,30.8.21-.19s-.08-.12-.1-.11a.77.77,0,0,0-.21.14ZM36.67,9.87l-.13-.12c0,.05-.09.1-.09.15s0,.08.09.13Zm-24,1.29c-.1-.07-.14-.12-.19-.13s-.09,0-.14.06.07.12.11.13S12.59,11.2,12.71,11.16ZM8.14,17.38l.1,0,0-.3-.12,0ZM42.5,8.86c-.06,0-.11-.1-.12-.09a1.09,1.09,0,0,0-.17.13s.08.1.1.1A.77.77,0,0,0,42.5,8.86ZM7.57,14.2a1.22,1.22,0,0,0-.2-.07s-.09.06-.13.1.08.11.1.11A.88.88,0,0,0,7.57,14.2ZM11,20.46l-.15-.14c0,.06-.1.11-.14.17s.06.09.08.08A1.46,1.46,0,0,0,11,20.46Zm-1.2-4.3.09.07.2-.29L10,15.87ZM9,12.88c-.1-.08-.14-.14-.19-.14s-.11.06-.17.09.07.09.11.1S8.85,12.9,9,12.88ZM65.38,67c-.09-.07-.13-.12-.18-.13s-.07,0-.1.07.05.11.1.13S65.28,67,65.38,67Zm-3.71-6.41.13-.1a.35.35,0,0,0-.13-.08s-.07,0-.1.07ZM39.18,12.15c-.07.13-.11.17-.11.2s0,.07.07.1a.64.64,0,0,0,.1-.13S39.21,12.24,39.18,12.15Zm-4.24-8,0-.11a.76.76,0,0,0-.17.13s.05.1.08.15Zm15,64.8H50a.53.53,0,0,0,0-.12.85.85,0,0,0,0-.17.5.5,0,0,0-.1.14A.31.31,0,0,0,49.92,68.94ZM10.87,22.85a.6.6,0,0,0-.15-.09s-.06,0-.09,0,0,.09.06.09ZM38,12.23l-.16-.11s0,.09,0,.13.06.06.1.08Zm1.5-10c.08-.1.15-.14.14-.18S39.58,2,39.54,2s-.07.06-.08.1A1.12,1.12,0,0,0,39.51,2.27ZM36,2.13,35.88,2s-.08.08-.09.12.05.09.08.13ZM69.43,67l.07,0-.11-.24,0,0ZM33,3.15a1.1,1.1,0,0,0,.09-.21s-.05-.09-.08-.13-.09.08-.1.13S33,3,33,3.15ZM67.26,58.9c0,.1-.07.15-.05.19s.08.07.12.11a.37.37,0,0,0,.07-.14S67.33,59,67.26,58.9Zm-19-46.11-.06.09.28.19.07-.09ZM10.81,14.57a.78.78,0,0,0,.19.06s.05,0,.08-.07a.42.42,0,0,0-.12-.08S10.89,14.51,10.81,14.57Zm6.51,58.82c.1.07.14.12.19.12s.09-.05.14-.08-.07-.09-.11-.09A.63.63,0,0,0,17.32,73.39Zm32.48-4.8-.08,0-.13.25.1,0C49.73,68.77,49.76,68.68,49.8,68.59Zm18.47,3.17-.09-.07-.2.17.12.12Zm-17.38-3,0,.06.21.09,0-.06Zm13,0-.08-.09-.22.18.1.09Zm3.92,2.44h.07v-.39h-.07ZM3.33,70.42l0,.12.32.06v-.09Zm63.3-1c-.06.06-.11.09-.11.12s.06.1.08.15.1-.06.1-.08A.64.64,0,0,0,66.63,69.46ZM27.91,10.87a1,1,0,0,0-.24-.06s-.06,0-.09.07.07.09.1.09S27.78,10.93,27.91,10.87Zm16.22,35,.07.09.23-.2,0-.07Zm4.11-6.79c0-.11.09-.17.08-.21a.44.44,0,0,0-.1-.15s-.12.08-.12.12A1.14,1.14,0,0,0,48.24,39.07ZM6.65,70.18l.15-.13s-.08-.06-.1,0a.45.45,0,0,0-.13.11ZM14,9.66c-.15-.06-.2-.1-.21-.09a1,1,0,0,0-.14.15s.07.08.1.07S13.86,9.72,14,9.66Zm22.3,1.13h.06s0-.08,0-.11a.5.5,0,0,0-.1-.14ZM9.59,9.2l-.07,0,.09,0s.05,0,.07,0Zm31.68,8.46s0-.07-.05-.07a.28.28,0,0,0-.13,0s0,.09,0,.09S41.22,17.68,41.27,17.66ZM43.8,38.9l-.12-.13a.44.44,0,0,0-.06.16s.05.07.07.1ZM17.73,6.74l-.08,0a.81.81,0,0,0-.09.1s.05,0,.07,0A.39.39,0,0,0,17.73,6.74ZM44.39,46.52l.08-.11s-.08,0-.09,0a.41.41,0,0,0-.07.11ZM65.48,69.64c0-.11.06-.16,0-.22s0-.06-.08-.09-.1.09-.1.14S65.41,69.55,65.48,69.64ZM16,13.61a.33.33,0,0,0-.12-.06s-.07.08-.06.1.07,0,.11.08ZM26.79,71l-.09,0,.16.17s0-.06,0-.07A1.19,1.19,0,0,0,26.79,71ZM45,35.41c-.07.15-.1.19-.1.24a.38.38,0,0,0,0,.13s.1-.07.11-.12S45,35.57,45,35.41ZM27.24,71.67a.76.76,0,0,0,.13-.16s0-.06-.05-.1a.86.86,0,0,0-.14.13S27.21,71.6,27.24,71.67ZM8.42,13.47s-.07-.07-.1-.07a.24.24,0,0,0-.1.06.35.35,0,0,0,0,.13ZM24.19,72.19a.55.55,0,0,0,0-.17,1.33,1.33,0,0,0-.21-.09ZM34.27,3.46c-.13-.08-.17-.12-.2-.12l-.15.09Zm-28.85,72s-.06-.06-.08-.06a.65.65,0,0,0-.13,0s0,0,.07,0Zm2.72-59,.13-.09s-.08-.1-.09-.09a.64.64,0,0,0-.13.1ZM66,67.54l.08.07.2-.22-.06,0Z" transform="translate(-0.3 -0.39)"/><path d="M5.51,18.82c0,.08,0,.18,0,.17.17-.13.34-.25.5-.39s.16-.14.17-.22c.07-.55.44-.49.86-.41L6,20.75a1,1,0,0,1,.24-.13.21.21,0,0,1,.19,0,.43.43,0,0,1,0,.23c-.39,0-.14.38-.25.55s-.12.3-.23.37a.43.43,0,0,1-.35-.06.81.81,0,0,1,.07-.46c.14-.31.15-.3-.11-.58a.28.28,0,0,1,0-.27c.18-.33.39-.64.58-1a1.24,1.24,0,0,0,.09-.33c-.08.22-.32-.4-.39.08a2.1,2.1,0,0,1-.28.56c0,.07-.1.18-.16.19s-.16-.07-.24-.11a1.86,1.86,0,0,0,.1-.2C5.35,19.39,5.42,19.13,5.51,18.82Z" transform="translate(-0.3 -0.39)"/><path d="M6.94,21.7c.35.31,0,.5-.12.73a4,4,0,0,1-.33.51c0,.06-.06.17,0,.2.59.59-.19.54-.35.77,0-.24.2-.54.11-.73-.23-.48.18-.7.32-1s.27-.31.41-.46Z" transform="translate(-0.3 -0.39)"/><path d="M4.57,18.83c.36-.77-.65-1.62.24-2.42a4.48,4.48,0,0,0-.12.56c0,.17-.37.39.12.53.15,0,.21.59.19.9C5,18.55,4.72,18.69,4.57,18.83Z" transform="translate(-0.3 -0.39)"/><path d="M11.69,24.5l.09-.09a2,2,0,0,0,.3.21c.4.18.22.51.2.79,0,.05-.17.15-.22.13a2,2,0,0,1-.44-.26.32.32,0,0,1,.07-.18C12,24.89,11.85,24.7,11.69,24.5Z" transform="translate(-0.3 -0.39)"/><path d="M8,11c-.21.24-.4.49-.63.71A1.47,1.47,0,0,1,6.9,12l-.12-.12-.23-.29c.11,0,.25,0,.33,0,.27-.14.51-.31.77-.46A1.08,1.08,0,0,1,8,11.05Z" transform="translate(-0.3 -0.39)"/><path d="M8,11H8l0-.34h0l.72-.19-.22.78-.29.2Z" transform="translate(-0.3 -0.39)"/><path d="M70.83,70.76c-.21.13-.35.28-.51.3s-.26-.13-.39-.2l.4-.56Z" transform="translate(-0.3 -0.39)"/><path d="M6.78,11.86,6.9,12c-.29.33-.33.9-.89.94l.15-.64Z" transform="translate(-0.3 -0.39)"/><path d="M45.87,68.82l.22-.24a.65.65,0,0,1,.15-.11,6.26,6.26,0,0,1,.41.49,1.1,1.1,0,0,1-.18.16.18.18,0,0,1-.16,0C46.16,69,46,68.92,45.87,68.82Z" transform="translate(-0.3 -0.39)"/><path d="M2.48,75.9l.1.11-.32.23-.12.07c.39.67-.36.17-.4.4A1,1,0,0,1,2.48,75.9Z" transform="translate(-0.3 -0.39)"/><path d="M45.5,7l.38-.89.13,0a2,2,0,0,1,0,.42c0,.17-.14.33-.23.55L45.48,7Z" transform="translate(-0.3 -0.39)"/><path d="M69.73,62.49c0-.2,0-.51,0-.57s.41,0,.59,0l-.52.59Z" transform="translate(-0.3 -0.39)"/><path d="M4.86,20.86l0,.37.2-.55.19.07c-.1.21-.17.43-.29.63,0,0-.31,0-.31,0a2.94,2.94,0,0,1,0-.51Z" transform="translate(-0.3 -0.39)"/><path d="M72.4,66c.07.59.06.61-.62.63.29-.2.14-.69.64-.62Z" transform="translate(-0.3 -0.39)"/><path d="M5.41,17.06l.25-.85H5.8c0,.16.14.35.09.47s-.25.27-.38.39Z" transform="translate(-0.3 -0.39)"/><path d="M21.2,12.11l.24,0,.32.09-.19.13s0,.05-.07.06l-.41.14.12-.46Z" transform="translate(-0.3 -0.39)"/><path d="M6.77,11.26c.12-.26.24-.52.37-.78,0,0,.17,0,.19.07.09.24-.28.69-.56.71Z" transform="translate(-0.3 -0.39)"/><path d="M68.72,59.08a3.62,3.62,0,0,0,.06-.46.7.7,0,0,0-.08-.27c.07,0,.19,0,.22.07a.73.73,0,0,1,.14.43c0,.09-.23.15-.35.22Z" transform="translate(-0.3 -0.39)"/><path d="M5.33,13.08c.08.2.12.26.11.28L5,14s-.08,0-.12-.05Z" transform="translate(-0.3 -0.39)"/><path d="M9.54,23.32c-.06.23-.1.46-.18.68s-.14.1-.22.16a.68.68,0,0,0,0-.23c-.06-.31.11-.47.35-.61Z" transform="translate(-0.3 -0.39)"/><path d="M50.37,16.74l-.22.11c-.06-.31-.09-.61.22-.83Z" transform="translate(-0.3 -0.39)"/><path d="M7.26,17.71c.18-.21-.58-.43-.1-.61.06,0,.14,0,.21,0Z" transform="translate(-0.3 -0.39)"/><path d="M70.66,61s-.11.08-.12.07a3.58,3.58,0,0,1-.29-.39s.06-.12.1-.18Z" transform="translate(-0.3 -0.39)"/><path d="M6.35,25.41c-.09-.11-.22-.19-.22-.26a.76.76,0,0,1,.18-.31c.09.08.25.15.26.24S6.45,25.27,6.35,25.41Z" transform="translate(-0.3 -0.39)"/><path d="M37.88,16.24l.35-.51C38.54,16.16,38.08,16.13,37.88,16.24Z" transform="translate(-0.3 -0.39)"/><path d="M24.43,54.51l.18-.57.23.14-.42.42Z" transform="translate(-0.3 -0.39)"/><path d="M49.57,32.78s.08.08.07.11a3.06,3.06,0,0,1-.1.41l-.17,0a3.37,3.37,0,0,1,.1-.34.53.53,0,0,1,.11-.15Z" transform="translate(-0.3 -0.39)"/><path d="M71.84,69a.56.56,0,0,1,.2-.08.86.86,0,0,1,.32.05s0,.09,0,.14a2.83,2.83,0,0,1-.3,0c-.09,0-.18-.06-.27-.09Z" transform="translate(-0.3 -0.39)"/><path d="M35.38,12.18c.14.07.29.12.42.19s0,.12,0,.16-.12.05-.14,0-.22-.21-.33-.32Z" transform="translate(-0.3 -0.39)"/><path d="M5.43,18.12c0-.2.07-.42.13-.63,0,0,.13,0,.2,0s0,.11,0,.16S5.55,17.93,5.43,18.12Z" transform="translate(-0.3 -0.39)"/><path d="M69.47,70.27l0,.62h-.07l-.11-.61Z" transform="translate(-0.3 -0.39)"/><path d="M4.29,21.94c0,.16,0,.31-.08.47s-.08,0-.12,0v-.51Z" transform="translate(-0.3 -0.39)"/><path d="M73.46,66.72c0,.14.06.28.08.43l-.08,0-.12-.45Z" transform="translate(-0.3 -0.39)"/><path d="M4.88,23.78c.07-.12.14-.25.22-.36s.09,0,.14,0l-.22.4Z" transform="translate(-0.3 -0.39)"/><path d="M28.57,50.8c-.36-.06-.37-.07-.1-.5,0,.21.06.36.09.51Z" transform="translate(-0.3 -0.39)"/><path d="M34.76,11.58H35a.86.86,0,0,1,0,.27.3.3,0,0,1-.17.16s-.13,0-.2-.06a.66.66,0,0,0,.12-.17A1.36,1.36,0,0,0,34.76,11.58Z" transform="translate(-0.3 -0.39)"/><path d="M5.36,15.76l-.29.32L5,16l.24-.38Z" transform="translate(-0.3 -0.39)"/><path d="M12.55,18.77l.29-.06-.13.44-.1,0c0-.12,0-.25,0-.37Z" transform="translate(-0.3 -0.39)"/><path d="M4.83,21.72h.42v.14l-.43,0Z" transform="translate(-0.3 -0.39)"/><path d="M36.75,69.9l.11-.3.37.1Z" transform="translate(-0.3 -0.39)"/><path d="M12.08,26.59c-.09-.21-.14-.27-.12-.29a1.3,1.3,0,0,1,.19-.22c0,.06.1.12.09.17A1.18,1.18,0,0,1,12.08,26.59Z" transform="translate(-0.3 -0.39)"/><path d="M25.92,53.12A.36.36,0,0,0,26,53l.12-.28.12.13-.29.23Z" transform="translate(-0.3 -0.39)"/><path d="M4.68,15.31l.11-.37.15.18-.27.18Z" transform="translate(-0.3 -0.39)"/><path d="M43.19,4.9l.35-.22.07.1L43.25,5Z" transform="translate(-0.3 -0.39)"/><path d="M4.78,19.31l-.27.37s-.09-.09-.08-.1a3.64,3.64,0,0,1,.24-.35Z" transform="translate(-0.3 -0.39)"/><path d="M6.53,77.26l0-.34h.11c0,.11,0,.22,0,.34Z" transform="translate(-0.3 -0.39)"/><path d="M47.09,9.72l-.19.19s-.12-.09-.11-.1a1.7,1.7,0,0,1,.15-.22Z" transform="translate(-0.3 -0.39)"/><path d="M36.08,69.9c.36,0,0,.24.07.34l-.24-.06h0l.2-.3Z" transform="translate(-0.3 -0.39)"/><path d="M4.05,21.28v-.46h.08v.46Z" transform="translate(-0.3 -0.39)"/><path d="M54.66,56.51l.29-.34.12.14-.42.19Z" transform="translate(-0.3 -0.39)"/><path d="M59,56.58l-.07-.06.18-.42.07,0Z" transform="translate(-0.3 -0.39)"/><path d="M26.23,51.77l-.2.28a.8.8,0,0,1-.14-.08l.23-.28Z" transform="translate(-0.3 -0.39)"/><path d="M12.52,22.46l-.13.41-.09,0,.09-.42Z" transform="translate(-0.3 -0.39)"/><path d="M7.08,19.86l.11-.35a.82.82,0,0,1,0,.22c0,.05,0,.09-.09.14Z" transform="translate(-0.3 -0.39)"/><path d="M41.68,2.21c-.11,0-.17.11-.23.11s-.12-.1-.11-.12.09-.14.15-.15S41.59,2.13,41.68,2.21Z" transform="translate(-0.3 -0.39)"/><path d="M31.84,70.71l-.31.34-.1-.1Z" transform="translate(-0.3 -0.39)"/><path d="M4.33,19.93l-.18.17c0-.05-.11-.11-.1-.15s.08-.11.13-.14S4.26,19.87,4.33,19.93Z" transform="translate(-0.3 -0.39)"/><path d="M4,19.55v-.33h.12l0,.32Z" transform="translate(-0.3 -0.39)"/><path d="M56.06,69.26l.21.49-.13,0c0-.17,0-.34-.08-.52Z" transform="translate(-0.3 -0.39)"/><path d="M36.74,13.07c-.08.42-.17.49-.42.32h0l.43-.33Z" transform="translate(-0.3 -0.39)"/><path d="M5.73,14.13l-.29.31-.09-.09.27-.3Z" transform="translate(-0.3 -0.39)"/><path d="M7.94,26l.18.28s-.11,0-.12,0A1.75,1.75,0,0,1,7.84,26Z" transform="translate(-0.3 -0.39)"/><path d="M71.53,63.56l.1.15s-.09.06-.12,0-.07-.07-.11-.1Z" transform="translate(-0.3 -0.39)"/><path d="M72.64,67c0-.06,0-.1,0-.12a.14.14,0,0,1,.1-.07s.06,0,.1.06Z" transform="translate(-0.3 -0.39)"/><path d="M50.51,22.46l.25-.32.1.14-.35.17Z" transform="translate(-0.3 -0.39)"/><path d="M4.34,24.63l0-.38h.07v.4Z" transform="translate(-0.3 -0.39)"/><path d="M6.77,11.26l-.32,0-.08,0c.12-.38.26,0,.4,0Z" transform="translate(-0.3 -0.39)"/><path d="M38.29,69.75c0,.07-.08.15-.13.22s-.09,0-.13,0l.15-.27Z" transform="translate(-0.3 -0.39)"/><path d="M4.67,15.3l.1.28H4.64c0-.09,0-.17,0-.26Z" transform="translate(-0.3 -0.39)"/><path d="M71.83,69a1,1,0,0,1,0,.24h-.12l.13-.24Z" transform="translate(-0.3 -0.39)"/><path d="M6.44,21.41h.32v.08l-.32,0Z" transform="translate(-0.3 -0.39)"/><path d="M54.61,56.24l-.13.15s-.1-.08-.1-.11,0-.11.08-.16Z" transform="translate(-0.3 -0.39)"/><path d="M4.38,25.44c0-.06-.06-.11,0-.13a.36.36,0,0,1,.11-.1s0,.08,0,.12S4.42,25.39,4.38,25.44Z" transform="translate(-0.3 -0.39)"/><path d="M71.7,67.17a.68.68,0,0,1-.15,0l-.07-.06s.06-.08.1-.08S71.64,67.12,71.7,67.17Z" transform="translate(-0.3 -0.39)"/><path d="M69.67,58.88l.12.25-.12,0-.08-.26Z" transform="translate(-0.3 -0.39)"/><path d="M49.46,30.88l.26-.08v.08Z" transform="translate(-0.3 -0.39)"/><path d="M1,76,1.31,76l0,.11-.32,0Z" transform="translate(-0.3 -0.39)"/><path d="M10,26.13l.12-.06s0,.08,0,.11-.06.05-.08.08Z" transform="translate(-0.3 -0.39)"/><path d="M6.4,11.9c-.07,0-.1.06-.13,0a.35.35,0,0,1-.13-.08s.07-.1.09-.1A1.1,1.1,0,0,1,6.4,11.9Z" transform="translate(-0.3 -0.39)"/><path d="M39.16,30.55v.18L39,30.67Z" transform="translate(-0.3 -0.39)"/><path d="M8.52,23.85l-.09-.11c.05,0,.09-.08.15-.09s.06.05.1.08Z" transform="translate(-0.3 -0.39)"/><path d="M7,18.85a.8.8,0,0,1,.14.17s0,.07-.05.11A.38.38,0,0,1,7,19S7,18.94,7,18.85Z" transform="translate(-0.3 -0.39)"/><path d="M63.25,72.22a.62.62,0,0,1,0-.2s.06-.06.09-.08a.39.39,0,0,1,0,.14S63.31,72.14,63.25,72.22Z" transform="translate(-0.3 -0.39)"/><path d="M64.61,71.8a.94.94,0,0,1,.12.2s0,0-.08.08a.5.5,0,0,1-.1-.11S64.57,71.91,64.61,71.8Z" transform="translate(-0.3 -0.39)"/><path d="M66.41,72a1.18,1.18,0,0,1,0-.27s.06,0,.09-.07.06.09.06.14S66.47,71.86,66.41,72Z" transform="translate(-0.3 -0.39)"/><path d="M7.64,24.71l-.12-.07.14-.11s0,0,.08,0Z" transform="translate(-0.3 -0.39)"/><path d="M5.26,22.44l-.13.15c0-.05-.07-.09-.07-.14s0-.08.06-.13Z" transform="translate(-0.3 -0.39)"/><path d="M6.7,20.71l-.09-.05.09-.13s0,0,.07,0Z" transform="translate(-0.3 -0.39)"/><path d="M9.33,22.55l.14.32s-.1,0-.1,0a2.54,2.54,0,0,1,0-.29Z" transform="translate(-0.3 -0.39)"/><path d="M6.66,24.59l.11.13s-.08.06-.11.05a.42.42,0,0,1-.12-.08Z" transform="translate(-0.3 -0.39)"/><path d="M4.94,15.12l-.15-.18L5,14.85Z" transform="translate(-0.3 -0.39)"/><path d="M7.93,10.71,7.6,10.6l0-.09a2.9,2.9,0,0,0,.29.19Z" transform="translate(-0.3 -0.39)"/><path d="M60.66,70.29l-.22-.07a.65.65,0,0,1,.13,0s.07,0,.11.06Z" transform="translate(-0.3 -0.39)"/><path d="M35.38,12.18l-.05.06-.17,0s.05-.08.07-.08A.83.83,0,0,1,35.38,12.18Z" transform="translate(-0.3 -0.39)"/><path d="M42.19,69.62h.38v.08l-.36-.09Z" transform="translate(-0.3 -0.39)"/><path d="M4.86,14.1c0,.05.08.08.09.11s0,.08,0,.12-.09-.06-.11-.11S4.83,14.16,4.86,14.1Z" transform="translate(-0.3 -0.39)"/><path d="M7,21.7l.26-.12,0,.11H7Z" transform="translate(-0.3 -0.39)"/><path d="M73.21,68.51s0,0,0-.05,0,0,0-.07l.06,0A.18.18,0,0,1,73.21,68.51Z" transform="translate(-0.3 -0.39)"/><path d="M72.08,68.51l-.06,0s0,0,0-.07,0,0,.06-.06Z" transform="translate(-0.3 -0.39)"/><path d="M13.26,5.22l.06,0a.6.6,0,0,1,.06.11s0,0-.05.06Z" transform="translate(-0.3 -0.39)"/><path d="M63.68,72.86c-.07,0-.12.08-.13.07a.74.74,0,0,1-.13-.12s.09,0,.13,0S63.62,72.82,63.68,72.86Z" transform="translate(-0.3 -0.39)"/><path d="M4.67,16.21l0,.08-.13-.1s0-.05,0-.07Z" transform="translate(-0.3 -0.39)"/><path d="M5.91,18.09c0,.08.07.12.06.15s-.06.06-.1.09a.32.32,0,0,1,0-.09A.85.85,0,0,1,5.91,18.09Z" transform="translate(-0.3 -0.39)"/><path d="M.3,74.28v-.22H.36v.21Z" transform="translate(-0.3 -0.39)"/><path d="M49.9,33.88c-.06,0-.1.08-.12.07s-.05-.06-.07-.09,0-.06.07,0S49.84,33.84,49.9,33.88Z" transform="translate(-0.3 -0.39)"/><path d="M9.89,24.13l-.23.15-.05-.08.3-.06Z" transform="translate(-0.3 -0.39)"/><path d="M36.32,13.39l-.09-.21.11,0c0,.08,0,.16,0,.25Z" transform="translate(-0.3 -0.39)"/><path d="M10.13,26.82,10,26.74l.16-.07s0,0,.06,0Z" transform="translate(-0.3 -0.39)"/><path d="M6.71,20.18l.09.06s-.06.07-.09.07a.5.5,0,0,1-.14-.08Z" transform="translate(-0.3 -0.39)"/><path d="M50,14.64l-.13,0s.05-.08.09-.1.07,0,.1.05Z" transform="translate(-0.3 -0.39)"/><path d="M73.31,66s0,0,0,0,0,0,0,0l0,0Z" transform="translate(-0.3 -0.39)"/><path d="M8.28,76.61l.24,0,0,.08L8.3,76.6Z" transform="translate(-0.3 -0.39)"/><path d="M8.32,20.85l.29-.27c.25.13.22.26,0,.38l-.26,0Z" transform="translate(-0.3 -0.39)"/><path d="M8.34,20.93l.26,0-.06.2L8.32,21Z" transform="translate(-0.3 -0.39)"/></g></g></svg>