<svg xmlns="http://www.w3.org/2000/svg" viewBox="0 0 58.12 83.73"><defs><style>.cls-1{fill:#4bb9ef}</style></defs><title>xxiv-four-wispo</title><g id="Layer_2" data-name="Layer 2"><g id="Layer_3" data-name="Layer 3"><path d="M58.12,48.26l-.18-.15.18-.12Z"/><path d="M53.31,71.22c-.08.1-.3.2,0,.31,0,0,0,.12,0,.15s-.24.3-.38.48c.37.18.71.43,1-.22l.11.12q0,.81.06,1.62c0,.06-.08.13-.13.19s-.11-.13-.11-.2c0-.22,0-.44-.05-.66a1,1,0,0,0-.08-.29s-.11,0-.11,0a1.07,1.07,0,0,0-.06.3v1.11s0,0,0,0c-.77.28-.28.84-.29,1.29a8.41,8.41,0,0,0,.06,1.12,7.66,7.66,0,0,0,.18.8,11.17,11.17,0,0,1,.24,1.15c0,.31-.1.64-.07.95s.19.55,0,.85a.08.08,0,0,0,0,.07c.18.15.46.3.07.51a1.07,1.07,0,0,1-.58.12c-.15,0-.47.1-.42-.27-.16,0-.35-.46-.49,0a.94.94,0,0,1-.34.41,1,1,0,0,1-.32.14c-.05-.12-.11-.24-.15-.36-.09-.38-.17-.76-.25-1.14h-.16l-.15.87.09,0,.09-.17h.06c0,.14,0,.29,0,.43s-.22.33.1.37a2.92,2.92,0,0,1-.1.4s-.15.07-.15.12c-.05.52-.18.28-.35,0s-.21-.39-.48-.22c0,0-.1,0-.15,0a.94.94,0,0,1,.06-.15A1.59,1.59,0,0,0,50.3,81l-.45.43L49.51,81c-.13.2-.3.29-.51,0a.31.31,0,0,0-.26,0c-.19.27-.36.11-.58,0s-.56,0-.32-.42c0,0-.18-.17-.25-.15a.58.58,0,0,0-.21.93.12.12,0,0,0,.1,0,.75.75,0,0,0,.14-.17c0,.1,0,.2,0,.29a1.46,1.46,0,0,1,0,.41.58.58,0,0,1-.23.34s-.24-.08-.29-.17-.14-.59-.32-.69c-.51-.29-.49-.6-.26-1.05.05-.09-.13-.39-.38-.14l-.1-.06a1.06,1.06,0,0,1,.06-.19l.17-.38-.15,0,0,.39c-.11-.23-.21-.46-.31-.69a1.36,1.36,0,0,1-.06-.29c-.16.18-.35.31-.42.48s-.42.32-.16.68c.09.12,0,.45.33.51-.19.21-.33.46-.54.54s-.5.52-.69-.09c-.07-.24-.47-.34-.42-.74s-.13-.5-.48-.31c0-.12.06-.24.1-.36s.1-.1.1-.16-.08-.08-.12-.12-.12.14-.13.2,0,.29,0,.44v.32h0l-.17-.07a.75.75,0,0,0,0,.15,1.87,1.87,0,0,1,0,.32c0,.07-.09.13-.14.19a.62.62,0,0,1-.14-.19,1.42,1.42,0,0,0-.21-.51l-.27.51c0,.08-.12.14-.17.22a3.9,3.9,0,0,1-.43-.36c0-.06,0-.19,0-.28s.23,0,.24.06c.14.43.3.09.38,0s-.18-.59-.38-.6a3.33,3.33,0,0,1-.63,0,.8.8,0,0,1-.3-.16,1.3,1.3,0,0,0,.15-.2.53.53,0,0,0,0-.25s-.05-.06-.07-.1c.52-.31-.16-.8.16-1.15a.4.4,0,0,0-.13-.22.89.89,0,0,1-.41-1,4.93,4.93,0,0,0,.23-1,5.79,5.79,0,0,1,.18-1.12l.2.43h0s0-.08,0-.11c.15-.39.1-.59-.39-.65-.32,0-.2-.37-.16-.62s0-.52-.13-.55c-.49-.16-.27-.46-.18-.72s.07-.12-.09-.17-.16-.13-.24-.2l.19-.13.13-.12-.41-.24c.26-.1.69-.1.23-.49-.12-.11-.06-.46-.05-.69s.09-.5.1-.75,0-.39-.1-.45c-.58-.37-.32-1-.41-1.46,0-.07.19-.18.33-.3l-.24-.11c-.07,0-.21-.07-.21-.1a.62.62,0,0,1,.08-.33c.07-.09.25-.55.17-.6-.26-.15-.06-.32-.07-.49s-.08-.48-.11-.72a3.22,3.22,0,0,1-.09-1.22,1.82,1.82,0,0,0-.08-1.16c0-.05,0-.13.07-.19s.18-.44.12-.5c-.3-.28,0-.54,0-.81,0-.54,0-1.09-.06-1.64,0-1.14-.06-2.28-.11-3.42,0-.12-.12-.23-.19-.35,0,.08-.05.19-.12.24s-.25.14-.37.21-.28.08-.3.16c-.07.24-.14.15-.24,0s-.07,0-.08,0c-.19.21-.46,0-.63.11s-.39,0-.55-.16l-.06.37c-.1,0-.26,0-.28-.1a1.24,1.24,0,0,1,0-.44c-.21-.09-.22.34-.56.23s-.16-.38-.2-.46c-.27.27-.56.54-.82.83s-.31,0-.38-.14a.59.59,0,0,1,0-.13H34.9c-.09,0-.22,0-.26.07a8.44,8.44,0,0,0-.5.69l-.47-1-.19.42-.27-.24a3.19,3.19,0,0,1-.14.51c-.36-.05-.09-.32-.15-.49a2.79,2.79,0,0,1-.1-.39,1.43,1.43,0,0,0-.26.23c-.19.25-.36.3-.54-.11.23.68-.3.75-.63,1l-.05-.31c-.59,0-.59,0-.54-.22l-.11-.05-.24.54c0,.07-.07.13-.1.19a.47.47,0,0,0,0-.17c-.09-.18-.13-.51-.42-.13-.07.09-.26.08-.39.11h0a.27.27,0,0,0-.47,0,.9.9,0,0,1-.82.39c-.08,0-.2-.14-.22-.13-.19.16-.53-.31-.62.16a1.17,1.17,0,0,1-.2,0c-.24-.11-.46-.25-.64.11-.06.12-.25.19-.28-.07a1.26,1.26,0,0,0,0-.39c0-.1-.14-.17-.21-.25a2.44,2.44,0,0,0-.1.24c-.07.12.19.5-.26.33-.11.58-.42.17-.65.13l.24-.33-.08-.07-.39.49-.52-.07h0c-.1-.17-.2-.37-.43-.14,0,0,0,.16.06.24h0c-.11.29-.33.22-.55.17h0l-.14-.35c0-.15-.05-.29-.08-.44H23c0,.13.1.25.16.38s0,0,0,.07c-.34.14-.69.31-1,.43a.88.88,0,0,1-.39,0l.15-.46-.66-.08v0l-.1-.25-.09.26v.11l.07.34h0l-.39.27c0-.23,0-.43,0-.64l0-.16c-.08,0-.19,0-.22.05a4.25,4.25,0,0,0-.27.52h0c-.36.19-.41,0-.4-.3a.86.86,0,0,0-.05-.27l-.13.19c-.27.43-.47.48-.75.17.06,0,.15.06.18,0a.72.72,0,0,0,.12-.21l-.3.18-.17.46h0l-.21-.4c-.07.12-.11.22-.17.31a.44.44,0,0,1-.15.11c-.27-.26-.31.09-.45.16,0-.23-.09-.27-.28-.24l-.18.17L17,58.3l-.09-.22c-.07-.22-.14-.45-.24-.75a4.17,4.17,0,0,1-.72.49c-.11,0-.3-.08-.46-.13,0,0,0-.09,0-.13s0-.13,0-.19l-.06,0a.85.85,0,0,0,0,.17.59.59,0,0,1,0,.13c-.25.14-.5.3-.77.42-.08,0-.21-.06-.32-.09h0l0-.29c0,.05-.07.13-.12.16s-.36.17-.54.26h0l.06-.45a1.17,1.17,0,0,1-.29.22c-.08,0-.2,0-.29,0s-.08.09-.12.14v0H13c0,.42-.45.36-.63.58,0,0-.15,0-.19,0s0-.13,0-.2,0-.24-.05-.36h.31c-.25-.19-.25-.19-.29,0L12,58l-.34-.16-.16.47c-.09-.09-.11-.4-.37-.2h0c-.33,0-.61-.24-1-.11s.09.21,0,.31c-.22-.16-.62,0-.77-.37v0l-.15-.33-.23.42h0c-.22,0-.45,0-.5-.34,0,0-.17,0-.26,0a.34.34,0,0,1,.07.15c0,.14-.05.27-.07.41h-.1l-.51-.46c-.06.07-.12.16-.19.23-.33.38-.44.36-.62-.11a2,2,0,0,0-.21-.3c.23.08.42.12.43-.22a.6.6,0,0,1,.1-.25c-.06,0-.13-.06-.16,0a1,1,0,0,0-.22.24,2.44,2.44,0,0,0-.14.28.66.66,0,0,1,.05-.86c-.25,0-.38.14-.36.43s.12.55-.2.76c-.07,0,0,.28,0,.46-.14-.06-.43.07-.38-.32,0,0-.12-.13-.16-.12a.51.51,0,0,0-.19.17s.06.1.1.15l.19.21s-.12.09-.15.08-.24-.09-.26-.15a.7.7,0,0,0-.77-.64c-.1,0-.19-.15-.29-.23.24.06.39,0,.33-.28l.34,0L5.28,57l-.48-.17v.41l-.33,0c-.23-.32-.3,0-.44.11l-.42,0A1,1,0,0,0,3.77,57a3,3,0,0,0,0-.42c-.07,0-.16.13-.21.12a.85.85,0,0,0-.83.23l-.32.16a1.5,1.5,0,0,1-.1-.16l.57-.42c-.41-.24-.73-.25-1,.19-.07.12-.24.19-.35.28h0l.48-1,.3-.14c.28.3.86.1,1,.6.06,0,.18-.09.17-.11,0-.27-.13-.53-.2-.79l.14-.32-.17,0,.05.31c-.29.13-.54.4-.9.18,0,0-.08.07-.12.11l-.23-.15c0-.23-.05-.29-.25-.14l-.37.28A.88.88,0,0,1,2,55a2,2,0,0,0,.47-.4s0-.1,0-.16-.12,0-.16,0c-.38.35-.77.7-1.14,1.06a1,1,0,0,0-.12.32l.47,0a.83.83,0,0,0,0,.31c.14.36-.14.42-.35.47s-.46.12-.35-.28c0,0-.16-.13-.25-.19.07-.23.14-.44.2-.67,0,0,0-.1-.05-.15s-.15.06-.15.09c0,.24,0,.49,0,.73-.61-.2-.29-.73-.42-1.11.14.06.32.17.34.15C.64,55,1,54.9,1,54.55c0,0-.07,0-.11,0-.35.07-.54-.15-.43-.49,0-.16.12-.32.18-.48l-.16,0c0,.34-.1.69-.17,1a1.31,1.31,0,0,1-.21.33,1.41,1.41,0,0,1,0-.35,7.39,7.39,0,0,0,0-2.25c-.14-.45.33-.59.16-.91.31,0,.15-.24.21-.37s-.05-.26-.21-.28h0a2.63,2.63,0,0,1,.09-.3C.35,50.28.2,50.08.2,50a2.9,2.9,0,0,1,.17-.75c0-.07.11-.19.09-.21-.26-.24-.06-.4.09-.57s.25-.14.07-.36.08-.46.16-.69c0-.07.12-.12.18-.18s.17-.2.22-.18.27.14.26.22-.09.32-.27.1a4.51,4.51,0,0,0-.39.37s0,.2.06.2a.52.52,0,0,0,.3,0,.76.76,0,0,0,.49-1.13c-.13-.27,0-.33.23-.38a.75.75,0,0,0,.45-.2c.07-.09,0-.29,0-.44l-.25.11a2.8,2.8,0,0,1-.31.09c0-.14-.12-.35-.06-.41.24-.26.05-.34-.12-.46a.81.81,0,0,1-.16-.16l.18-.06c.08,0,.19-.06.22-.12.19-.33.39-.63.89-.55C2.46,44,2.46,44,2.14,44A.21.21,0,0,1,2,44s0-.13.05-.19,0-.11.09-.11c.36,0,.49-.2.47-.59a.16.16,0,0,1,0-.11c.21-.09.33-.19.16-.43a.27.27,0,0,1,.07-.27.49.49,0,0,1,.31,0c.08,0,.14.1.26.1l-.16-.3c.28-.16.6-.25.73-.6s.16-.39-.2-.53a2.32,2.32,0,0,1-.43-.29h0a4.87,4.87,0,0,1,.6-.31c.19-.07.41-.07.14-.33,0,0,0-.16,0-.23a.22.22,0,0,1,.18,0c.26.2.43.12.61-.12a1.23,1.23,0,0,1,.38-.3.65.65,0,0,1,.34,0,1.22,1.22,0,0,1,.24.1,2.09,2.09,0,0,0,0-.43c0-.06-.09-.14-.15-.17s-.14,0-.21,0a1.32,1.32,0,0,1,.21-.25c.2-.14.42-.25.7-.41-.26-.08-.45-.08-.53-.18s0-.28-.05-.36a4.29,4.29,0,0,1-.86-.2c-.14-.06-.2-.3-.29-.46.47-.1-.06-.37.08-.48a4,4,0,0,1,.61-.34s.05,0,.06,0,.35-.22.42-.17c.32.2.32.22,0,.55l.06.12a1.39,1.39,0,0,0,.34-.2,7,7,0,0,0,.41-.6c-.46-.48-.46-.48-1.09-.51,0-.09.16-.19.14-.24-.18-.48.3-.35.46-.51,0,0,.09.1.14.13a.81.81,0,0,0,.22.07c0-.08.07-.23,0-.24s-.18-.49-.49-.22c0,0-.06,0-.06-.05a.74.74,0,0,1,0-.16c.2,0,.47-.36.59.22l.37-1-.39.25c.14-.12-.45-.07-.06-.24.16-.07-.34-.28.07-.31a.93.93,0,0,1,.72.4,1.29,1.29,0,0,0,.41.25A2.91,2.91,0,0,0,8,33.34c0-.05,0-.13-.1-.19A.76.76,0,0,0,7.65,33c-.13-.07.13-.58-.34-.28-.08,0-.31-.7-.17-.77.33-.15.32-.48.43-.73s.1-.66.56-.69c.06,0,.13-.26.15-.4s0-.5.06-.75l.34.17c0-.12-.1-.27,0-.35s-.09-.5.3-.41h0l-.08.32.08,0L9,28.74l.08-.19c0-.06.12-.14.1-.17-.17-.32,0-.48.26-.6.12-.05.31-.08.06-.24a.18.18,0,0,1,0-.16c.17-.29.34-.57.53-.84,0,0,.16,0,.19,0a.48.48,0,0,1,.06.24.89.89,0,0,0,.48.68,2.5,2.5,0,0,0-.43.23c-.05.05,0,.2,0,.31a1.62,1.62,0,0,0,.19-.18,3.73,3.73,0,0,0,.23-.37c0-.17.39-.39-.05-.53,0,0,0-.05,0-.08,0-.2,0-.3-.16-.38l.5-.35,0,.36.5-.37-.09.34a.9.9,0,0,0-.17,0,3.25,3.25,0,0,0-.12.52.71.71,0,0,0,0,.25c.09-.07.23-.13.26-.21a2.28,2.28,0,0,0,0-.52.85.85,0,0,0,.22,0,2.11,2.11,0,0,0,.34-.16,1.16,1.16,0,0,0-.26-.28s-.14,0-.22.07a.55.55,0,0,0-.29-.83l-.51.72a1.53,1.53,0,0,1,.37-1.51c.24-.3.64-.59.69-.92a2.81,2.81,0,0,1,.2-.66c0-.09.21-.11.27-.2a1.13,1.13,0,0,0,.16-.41,1.6,1.6,0,0,0-.05-.29s.06,0,.09-.08l.14.25c0,.05,0,.13.06.17a2,2,0,0,0,.22.19,1.45,1.45,0,0,1-.07-.26,8.43,8.43,0,0,1,.06-1,.8.8,0,0,1,.21-.38.35.35,0,0,1,.23-.17c.21,0,.24,0,.08-.16s0-.28.08-.41.17,0,.18,0a1.4,1.4,0,0,1,.06.28c.06.23.11.46-.18.58a3.11,3.11,0,0,0,.23.28l-.15.27.15.07,0-.35c.36.15.7.32,1.06.44.08,0,.21-.07.31-.12-.06-.06-.1-.15-.17-.17a.57.57,0,0,1-.18-.71c.17-.3.32-.62.48-.93a.13.13,0,0,0,0-.09c-.28-.68.33-.88.68-1.19a.44.44,0,0,0,.12-.58.36.36,0,0,0-.29-.12c-.23,0-.34.17-.31.44a.62.62,0,0,1-.19.42c-.07.06-.22.05-.33.07a2,2,0,0,0,.16-.24c.09-.17.16-.34.24-.51-.1,0-.2-.07-.29,0a1.07,1.07,0,0,0-.32.2h0c.1-.21.21-.41.29-.63s.4-.45.27-.8c0-.07.15-.21.22-.32a2.18,2.18,0,0,0,.23.09l0-.1-.27,0c.16-.35.36-.4.67-.19a.24.24,0,0,0,.19-.08.28.28,0,0,0-.05-.24c-.06-.05-.17,0-.26-.06s-.11-.06-.16-.08l.15-.1a.35.35,0,0,1,.13-.05c-.2-.5.3-.59.49-.86.07-.11.31-.25-.07-.23,0,0-.05-.08,0-.1l.23-.31c.39.31.3-.09.38-.27l.16.15.55-.86,0,0,.48-.29c0,.17,0,.48,0,.48-.44,0-.27.43-.46.59a1.71,1.71,0,0,0,.23-.13c.72-.35.74-.42.33-1l0-.05A2.77,2.77,0,0,1,19,12a2.9,2.9,0,0,0,1-1.47.66.66,0,0,0-.63.56c0,.09-.26.13-.41.19l.06-.34,0,0a2,2,0,0,0,.28-.37c.09-.19.1-.42.42-.23.17.1.34,0,.48-.24.26-.46,0-.84-.07-1.25h0c.41,0,.84.12,1.15-.29,0,0,.21.07.32.08a.5.5,0,0,0,.24-.06s0-.11,0-.12l-.28,0a3.5,3.5,0,0,0,.24-.69c0-.1-.15-.24-.23-.36-.1.08-.24.13-.29.23s.05.67-.46.47c-.05,0-.07-.09-.1-.14.27-.09,0-.63.44-.57a.69.69,0,0,0,.05-.13l-.31-.13h0c0-.27.17-.31.39-.18l.52.34c.29,0,.14-.73.66-.4,0,0,0,0,0,0q.29-.58.54-1.17s0-.13-.06-.2,0,.16-.07.2a.52.52,0,0,1-.22.14l-.9.27a3,3,0,0,1,.54-.65c.36-.28-.2-.63.1-.83l.35.33a5.43,5.43,0,0,0,.17-.53s-.09-.13-.15-.15a.83.83,0,0,0-.27,0c.08-.07.15-.15.23-.21s.23-.18.35-.27.05,0,.05.06c-.12.42,0,.62.49.74.13,0,.19.29.29.44l.62-1,.09,0c0,.1,0,.22,0,.29a1.33,1.33,0,0,0,.26.27A1.31,1.31,0,0,0,25,4.36c0-.11,0-.25.07-.33s.18-.07.27-.09.07.2,0,.27c-.12.23-.39.41,0,.67.23.14,0,.42-.19.55s-.21.28.07.36c.09,0,.21.12.22.18.05.56.48.21.71.29s.22-.29.09-.42a.77.77,0,0,1-.08-.27l.24,0c.34-.08.85,0,1-.26s.58-.45.3-.91a2.47,2.47,0,0,1-.12-.93,2.9,2.9,0,0,0-.13.27,2.52,2.52,0,0,1,0,.48c0,.11-.15.2-.24.29s-.09-.06-.15-.09l.27-.29A.22.22,0,0,1,27.46,4a2.3,2.3,0,0,0-.32-.15s-.06.07-.07.11,0,.13,0,.14a.21.21,0,0,1-.17,0s-.07-.15,0-.19.24-.34.34-.52a.83.83,0,0,0,0-.32h0l0-.27h0a13.72,13.72,0,0,1,1,1c.1.11.07.36.07.55s0,.39-.08.59-.05.22-.08.33-.09.18-.08.19c.4.28-.23.82.27,1.07,0,0,0,.1,0,.12-.27.3,0,.37.32.51-.28,0-.44,0-.59.06a.74.74,0,0,0-.24.11l.2.19c.06.06.2.12.19.16,0,.22-.19.49.26.44,0,.07,0,.18-.07.23s-.3.26-.47.41a.72.72,0,0,1,0-.19c0-.11,0-.23,0-.35-.09.08-.24.14-.25.23,0,.3,0,.6-.05.9-.24,0-.25,0-.22.27,0,.07.12.14.18.2l0-.25.26.4c.09.12-.23.38.14.4l-.34.23c-.11,0-.22,0-.33.09s-.12.11-.18.16l.09.08.19-.18.23-.15c0,.11-.05.27,0,.31.33.24.13.35-.06.41.07.09.21.17.19.22-.15.6-.3,1.2-.51,1.79a2.23,2.23,0,0,1-.43.58l.15.21h-.4l-.69,0c0,.17.39.61-.26.48,0,0-.06.09-.05.11a.29.29,0,0,0,.14.13c.2.09.26.19,0,.28s-.46.11-.67.2-.16.19-.24.3c.38.18,0,.51.17.77.41-.43.71,0,1,.15-.09.27-.18.58-.29.88-.05.15-.09.39-.35.17,0,0-.16,0-.16.06a1,1,0,0,0,0,.29c-.21.15-.38.27-.54.41a1.61,1.61,0,0,0,.13.19s.07.1.1.09c.49-.08.44.17.3.48-.24.51-.47,1-.72,1.53a2.12,2.12,0,0,1-.34.4s-.09.08-.09.13a2.32,2.32,0,0,1-.49,1.32c-.11.2-.11.46-.21.66-.34.74-.7,1.47-1.06,2.19a1.09,1.09,0,0,1-.23.25c0,.05-.14.13-.13.14.29.4-.13.45-.28.65a1.77,1.77,0,0,0-.18.59c0,.15.11.42-.24.37h0c.07.31-.21.46-.32.68s0,.47-.16.54c-.4.24-.26.69-.46,1,0,.06-.1.16-.13.15-.37-.07-.31.25-.4.43l-.24.42-.11-.06.08-.33-.1-.05c-.1.16-.29.32-.3.5A3.88,3.88,0,0,1,18.58,33c-.07.09-.17.17-.25.26s-.11.17-.09.19c.23.23,0,.4-.09.56-.52,1.12-1.06,2.24-1.59,3.35-.17.35-.32.71-.48,1.07a.1.1,0,0,0,0,0,1.14,1.14,0,0,0-.39.16s.1.22.08.33a1.62,1.62,0,0,1-.19.4A7.88,7.88,0,0,1,14.8,41a4.65,4.65,0,0,0-.47,1.15c-.16.33-.4.63-.58,1-.06.13,0,.35-.1.42-.37.31-.31.77-.47,1.15s-.52,1-.76,1.53c-.09.19-.08.42-.16.61s-.32.66-.47,1-.28.7-.4,1.06c0,0,.16.18.21.16a4.69,4.69,0,0,0,.67-.27l0,.26a2.35,2.35,0,0,1,.79-.32c.33,0,.7.21.71-.23.31,0,.65.18.78.07.34-.3.65.07,1,0,0,0,.11,0,.15,0a1,1,0,0,1,.73,0,11.22,11.22,0,0,0,1.13.33c.07,0,.16,0,.25-.09a.74.74,0,0,1-.19-.16c-.15-.18-.28-.38-.42-.57a1.31,1.31,0,0,1,.39-.2c.6-.09,1.21-.19,1.67.36,0,0,.12.09.15.08L20,48l.46-.13a2.11,2.11,0,0,0,.5-.17c.15-.09.21-.41.47-.12a1.26,1.26,0,0,0,.34-.24c.42-.49,1-.29,1.5-.37.25,0,.57.16.75-.18a.21.21,0,0,1,.2,0c.33.24.64,0,1,0s.81-.22,1.23,0c.08,0,.21,0,.31,0s.51-.32.72.06c.05,0,.13-.06.14-.11.15-.4.47-.28.76-.28s.57-.09.85-.09.51-.25.68.14c0,.06.38,0,.58-.06a4,4,0,0,1,.67-.13,2,2,0,0,0,1-.2,4.55,4.55,0,0,1,1.24-.25c.36,0,.72-.06,1.09-.08.2,0,.44.08.59,0s.51,0,.76,0a4.54,4.54,0,0,1,.74.1c.09,0,.22.08.24.05.31-.38.73-.14,1.08-.21a7.22,7.22,0,0,0,.89-.31c.08,0,.23,0,.26,0,.13.25.25.2.4,0a.37.37,0,0,1,.15-.08c.28.51.49-.19.76-.05,0,0,.17-.18.25-.28-.28-.19.06-.49-.12-.71,0,0,.09-.12.11-.19a1.88,1.88,0,0,0,0-.33c0-.39,0-.78,0-1.17a4.55,4.55,0,0,1,0-.52c0-.17.14-.33.16-.51a5,5,0,0,0,0-.67c0-.06,0-.15,0-.16.59-.21.19-.53.09-.81,0,0,0-.09,0-.12.09-.48.17-1,.28-1.43,0-.15.22-.27,0-.44-.08,0,.09-.44.13-.69s0-.36,0-.54.07-.48.12-.72c0-.07.08-.19.06-.21-.26-.24.06-.45,0-.67a3.57,3.57,0,0,1,0-.46c0-.13-.1-.36.22-.32,0,0,.13-.24.16-.38a1.45,1.45,0,0,0,0-.36l.25-.29-.13-.08-.11.38-.14,0c0-.46,0-.93.05-1.39,0-.1,0-.07.12-.05s.14-.09.2-.14.19-.21.23-.2a1.14,1.14,0,0,1,.31.27s0,.15-.06.18l-.64.34a1.55,1.55,0,0,1,.18.15,3.88,3.88,0,0,1,.23.33l.28-.45.27.17c-.08.18-.15.37-.23.55s-.34.48,0,.72c0,0,0,.14,0,.18-.22.3,0,.35.22.4a3.47,3.47,0,0,0-.25.29.22.22,0,0,0,0,.21c.22.18.21.34-.08.5l.44.24-.15-1.24a.53.53,0,0,0,.47-.61c-.06-.41-.32-.78-.16-1.22,0,0-.08-.13-.12-.2l-.2.2a4,4,0,0,0,.19-.43c.05-.16.33-.33,0-.52a2.18,2.18,0,0,1,.09-.24,1,1,0,0,1,.13.18,1.41,1.41,0,0,1,0,.24c.07-.11.17-.19.16-.23-.11-.25.06-.22.21-.28a.76.76,0,0,0,.3-.29,2.5,2.5,0,0,0,.23-.39.49.49,0,0,0,.06-.17c-.47-.26-.12-.55,0-.82a2.74,2.74,0,0,0,.58-.25s0-.23,0-.43l-.54.69c-.19-.08-.32-.19-.17-.4.34-.46.68-.91,1-1.36,0-.05.15,0,.23-.07s.15-.05.15-.08c0-.23,0-.46,0-.69a1.55,1.55,0,0,1,0-.21c.06,0,.13,0,.16.05a.3.3,0,0,1,.06.21c-.09.22-.29.46.18.41,0,.32.64.26.47.72,0,.05.08.15.12.22l.19-.13c.28-.21.56-.43.85-.62,0,0,.14,0,.21,0s0,.17-.08.22-.36.38-.53.57,0,.14-.07.21c.35.11.2.36.18.59,0,0,.1.07.16.08a1,1,0,0,0,.24,0h0c0,.38,0,.76.07,1.13,0,0,.09.06.14.08l.42.15,0,.12A.21.21,0,0,1,48,31h-.36l.2.62s0,0,0,0c.38.06.38.06.36.46,0,0,0,.06,0,.1.38,0,.75-.09.76-.6a.84.84,0,0,0-.09-.23.85.85,0,0,0-.22.09,1.5,1.5,0,0,0-.2.24c0-.06-.12-.14-.1-.18s.11-.33.17-.33c.45,0,.06-.37.21-.49,0,0-.06,0-.09,0-.38,0-.35-.14-.12-.37s.58-.61.92-1c0,.59,0,1,0,1.45a5.68,5.68,0,0,1,.09,1.29,1.61,1.61,0,0,0,.51,1.58c.16.15.08.66-.05,1s-.2.25.09.35a.2.2,0,0,1,.09.17,3.59,3.59,0,0,1-.12.47l-.24.25.14.08.1-.33a.63.63,0,0,0,.19,0,.71.71,0,0,0,.18-.08c0,.06-.07.15,0,.19s-.47.35.07.33a.54.54,0,0,1,0,.22,1.38,1.38,0,0,0-.25.5c.07-.05.13-.12.2-.13a1.15,1.15,0,0,1,.31,0c0,.07-.07.18-.13.2-.39.13-.29.49-.33.75s.16.57.06.75c-.26.42.28.77,0,1.19a1.2,1.2,0,0,0,.24-.15.74.74,0,0,0,.13-.21c0,.08.11.18.09.26-.06.25-.16.5-.23.76,0,.07-.06.19,0,.22.33.29.35.39.26.84s-.16.69.23.92c-.06.12-.54.14-.09.4,0,0,0,.15-.09.16-.23.09-.23.08-.35.33l0,.51h.09l0-.43c.22-.1.33,0,.31.21s-.1.53-.14.8a.52.52,0,0,0,0,.17c0,.19,0,.38.07.57a1.41,1.41,0,0,0,.11.51c0,.07.27.06.4,0,.36,0,.71-.09,1.07-.12,0,0,.07.12.12.16s.22.19.26.17c.2-.14.27,0,.34.13s.16,0,.25,0l.43,0-.17.44c0,.24,0,.24.29.22l-.3-.22.64,0,.16.41.09-.14h0l.2-.29v0c.27-.19.49-.24.46.28.22-.48.28-.49.56-.16,0,.06.15.07.23.09s.18,0,.19,0,.08.24,0,.3a8.17,8.17,0,0,1-.64.79,1.08,1.08,0,0,1-.38.3,2.18,2.18,0,0,0-1,.48,1,1,0,0,0-.08.18.53.53,0,0,0,.18,0,1.83,1.83,0,0,1,.62-.27c-.11.13-.24.25-.34.38s0,.13,0,.2.09-.08.14-.09a4,4,0,0,1,.49,0,2.67,2.67,0,0,0,.48,0c.16,0,.29-.11.25.15l.52,0-.06.48c.12-.07.3-.23.34-.2.2.15.49.29.23.64a.47.47,0,0,0-.07.39c.06.1.24.14.37.19a1.43,1.43,0,0,0,.28.07,2.34,2.34,0,0,1-.15.27c0,.07-.12.13-.17.2s-.2.31-.3.46l.48.19c-.28,0-.56.27-.87,0s-1-.08-1.24.22a4.11,4.11,0,0,1-.39.54,4.17,4.17,0,0,1-.53.41v.15c.29.07.58.12.86.21.13,0,.32.13.33.21s0,.43-.27.49A2.17,2.17,0,0,0,55,54s0,.09,0,.13l.13,0,.47,0a.31.31,0,0,1,.12.05c-.33.57.46.24.38.6h-.89a.6.6,0,0,0-.88.18c.09.07.24.13.24.19s-.1.2-.18.29c-.37.46-.36-.16-.55-.2s-.44-.34-.67-.49c-.07,0-.19,0-.28,0s0,.1,0,.16a.65.65,0,0,1,.13,0,.2.2,0,0,1,.13.08c.18.31.46.27.74.23-.07.09-.14.23-.21.24-.36,0-.71,0-1.07,0a.14.14,0,0,0-.09.08.22.22,0,0,0,.08.13,9,9,0,0,1,.82.68c.06.07,0,.32-.08.48-.12,0-.33,0-.34-.09-.09-.37-.41-.22-.62-.31,0,.19,0,.38,0,.57s0,.11,0,.26l.1-.27s.12.08.11.11a.9.9,0,0,1-.08.23l-.13.18c.43.26-.08.22-.14.37l.48.12-.26.4.29.05a2.08,2.08,0,0,0-.16.71c0,.21.21.4.31.6a.12.12,0,0,1,0,.13c-.27.41.1.69.2,1,0,.06.08.15.06.17a.77.77,0,0,0-.05.89c.21.33,0,.58,0,.86s-.3.16-.42.28a1.13,1.13,0,0,0-.16.26.76.76,0,0,0,.25.06c.14,0,.39-.12.42-.07a1.1,1.1,0,0,1,.21.61A5.31,5.31,0,0,0,53.42,66a5.77,5.77,0,0,0,.07.79,1.77,1.77,0,0,1,0,.91l.39,0a2.39,2.39,0,0,0-.21.34.64.64,0,0,0-.08.33,4.76,4.76,0,0,0,.07.84c0,.11.19.21.2.32,0,.47,0,1,.05,1.43l-.05-.25-.13.1L54,71c-.09.32-.31.39-.61.3l.23-.17-.06,0C53.44,71.09,53.38,71.16,53.31,71.22ZM19.76,49.84l0,.23h.09l-.05-.22-.08-.21-.09.08Zm6-42.92-.39-.1V7l.39,0a2.17,2.17,0,0,0,.07-.24s-.08,0-.12-.06ZM54.58,47c-.17-.38-.3,0-.45-.06v.12l.46-.07c0,.74.25,0,.32,0ZM42.42,36.65l-.18.12.09.13.09-.17c.3-.26.32-.35.1-.45.09-.12.2-.25,0-.38,0,0-.09,0-.13,0s.05.25.08.38h0ZM22.08,7.86l.21-.48-.14,0-.06.53L22,8.23l.11,0C22.11,8.1,22.1,8,22.08,7.86ZM3.63,42.62c-.2-.07-.4-.12-.41.2l-.37.28c.26,0,.49.07.35-.3l.43-.18,0-.42H3.53ZM19.39,12.79l.13-.27h-.19l0,.24-.47.27,0,.07ZM39.73,49.38,40,49l-.2-.09c0,.16-.07.33-.1.49h-.31l0,.33.21-.27ZM3.14,54.62l-.3.28.54.07.07-.14-.33-.21.38-.21,0-.11-.45,0Zm2.7-3.09v-.36l-.13,0,.14.3a.45.45,0,0,0,.24.72C6,52,5.93,51.77,5.84,51.53ZM17,16c.42-.12.17-.48.24-.72-.05,0-.16,0-.16,0-.05.22-.09.44-.13.66,0,0,0,0,.05.07l-.35,0,.06.14Zm8.06,33.32c0,.12.09.23.12.34s0,.13,0,.2.13,0,.16,0,.08-.14.06-.18a3.42,3.42,0,0,0-.26-.4,2.18,2.18,0,0,0,.11-.44s-.21-.14-.23-.12a4.13,4.13,0,0,0-.31.42ZM51.2,48.8a1.09,1.09,0,0,0,0,.26s.09.13.13.13a.41.41,0,0,0,.18-.12s0-.1-.08-.13-.18-.08-.27-.13.1-.18.07-.25a2.81,2.81,0,0,0-.19-.39c-.13.08-.31.13-.36.25s.1.25.2.34S51.1,48.79,51.2,48.8ZM23.62,6c.21-.17.26-.36,0-.54a2.75,2.75,0,0,0-.41-.24c-.06.14-.28.38,0,.66Zm1.54,2.16.05.43.12,0c0-.15,0-.31,0-.47l0,0L25.1,7.4c-.43,0-.54.09-.54.61l.38-.21-.23.35ZM18.53,29.82c.51.32.8.32.95-.08a1.67,1.67,0,0,0-.12-1.44,2.88,2.88,0,0,0-.45.7C18.78,29.25,18.67,29.5,18.53,29.82Zm2.4,20.29-.12-.1c-.28.19-.27.19-.32-.16,0-.06-.14-.12-.22-.15a1.31,1.31,0,0,0-.27-.06,1.18,1.18,0,0,1,0,.26c0,.12,0,.3-.1.34s-.78-.14-.91-.35a1.94,1.94,0,0,0-.37-.33c0,.2,0,.54.09.58.54.23,1.12.4,1.68.59.06,0,.17,0,.19,0S20.82,50.3,20.93,50.11Zm-14-11.36a4.2,4.2,0,0,0-.44.33c-.21.21-.39.44-.59.66l.44.27a.2.2,0,0,0,.08,0l.29,0c0-.1.06-.24,0-.29s-.19,0-.29-.07l-.14-.11a1.47,1.47,0,0,1,.36-.17C7.16,39.36,7,39.05,6.93,38.75Zm37.83-3.42a.61.61,0,0,1,.07-.91A.45.45,0,0,0,45,34.1a.84.84,0,0,0-.08-.3c-.12,0-.3.05-.36.13a.47.47,0,0,0-.1.41c.13.25,0,.31-.16.42s-.22.37.12.44C44.5,35.23,44.63,35.29,44.76,35.33ZM20.31,28.59a.55.55,0,0,0,.42-.68c0-.13-.18-.23-.26-.36a1,1,0,0,1-.11-.25,1.42,1.42,0,0,0-.3.3.94.94,0,0,0-.07.34C20.39,28,20.2,28.37,20.31,28.59ZM6.4,38.52a.85.85,0,0,0,.3.17c.1,0,.25,0,.29-.12A4.85,4.85,0,0,0,7.28,38c-.12-.05-.3-.16-.33-.12C6.76,38,6.61,38.26,6.4,38.52ZM5.93,56.68c-.37.24-.63.39-.86.56s-.11.17-.16.25.2.1.27.07a2.81,2.81,0,0,0,.58-.39C5.85,57.08,5.86,56.91,5.93,56.68ZM39.57,48.4l.19.32a2.25,2.25,0,0,0,.24-.3.8.8,0,0,0,.13-.32,2,2,0,0,0-.05-.42c-.11,0-.27,0-.31.12A3.81,3.81,0,0,0,39.57,48.4ZM44,34a6.41,6.41,0,0,0,.81-.55c.1-.1.07-.34.1-.51h-.28l0,.43C44.1,33.36,44,33.5,44,34ZM45.6,77.31c0,.09,0,.13,0,.18s0,.2.05.3l-.07,0c0-.09-.05-.18-.08-.27s0-.07,0-.09-.12-.15-.18-.15-.14.08-.21.13l.15.18s.11.1.11.15c0,.34.28.1.37.22l.38-.46-.33-.15ZM24.16,48.6s0,0,0-.05-.18-.34-.24-.33-.4.13-.09.32a3.1,3.1,0,0,1-.27.34s-.15,0-.22,0c.08.08.15.22.24.24C23.89,49.22,24.16,49,24.16,48.6Zm20.93-19h0a.83.83,0,0,0,0-.27.39.39,0,0,0-.11-.22s-.11,0-.16,0a2.34,2.34,0,0,0,0,.26c0,.09.11.25.09.26-.24.16-.22.36-.12.59a.69.69,0,0,1,0,.29c.07,0,.16,0,.18-.07a.78.78,0,0,0,.09-.34A4.5,4.5,0,0,0,45.09,29.62ZM43.37,75.5h-.12c-.08.27-.18.54-.24.82,0,.05.11.16.19.19a1.14,1.14,0,0,0,.32,0ZM55.55,50.14l0-.08a1.07,1.07,0,0,0,.36.14,1.81,1.81,0,0,0,.42-.16c0-.08-.07-.2-.13-.22s-.2,0-.3,0a.86.86,0,0,1-.28,0,1.7,1.7,0,0,1-.24-.09,2,2,0,0,0-.08.33S55.48,50.12,55.55,50.14Zm-37.39,0L18.3,50a1.67,1.67,0,0,0-.36-.25.47.47,0,0,0-.28,0,2.88,2.88,0,0,0,0,.59c0,.06.16.09.24.13a.89.89,0,0,0,.07-.28,1.67,1.67,0,0,0-.08-.3l.12-.08ZM17.55,26.9l-.07-.1c-.26,0-.53.07-.79.12-.06,0-.14.16-.12.2s.19.25.21.24C17.05,27.22,17.29,27.06,17.55,26.9ZM1.42,53.56c-.19.41.27.9-.23,1.26.15,0,.29-.07.36-.16s.23-.33.2-.46A2.44,2.44,0,0,0,1.42,53.56Zm38-5.5-.3-.34a6.54,6.54,0,0,0-.41.51s.07.13.1.2Zm8.21-15.6c-.11.07-.29.12-.3.18a1.94,1.94,0,0,0,.05.59s.19,0,.29,0,0-.29,0-.43A2.4,2.4,0,0,1,47.6,32.46ZM39.24,55.91l-.12-1C38.78,55.29,38.79,55.4,39.24,55.91ZM23.14,6.2h-.08c-.06.23-.12.46-.17.69,0,.05,0,.15.07.16a.5.5,0,0,0,.21,0,.8.8,0,0,1,0-.15ZM1.6,52.63l.08.15a4.2,4.2,0,0,0-.5.17c-.06,0-.08.15-.12.24s.26,0,.3,0A3,3,0,0,0,1.6,52.63Zm21,4.3c-.12.35-.77.28-.45.87C22.3,57.52,22.75,57.47,22.59,56.93Zm15.72-8.45.16-.06-.14-.58L38,48Zm5.21,29.23.1-.06a1.71,1.71,0,0,0-.13-.23s-.09,0-.12,0-.12.1-.12.15a2.17,2.17,0,0,0,.08.43.41.41,0,0,0,.13.22s.16,0,.2-.08a.33.33,0,0,0,0-.22A1.74,1.74,0,0,0,43.52,77.71Zm9.16-12.47-.09,0c0,.23,0,.45,0,.67s.13.14.19.2.14-.18.13-.25S52.76,65.45,52.68,65.24ZM25,8.9c-.1.31-.17.53-.23.75,0,0,.09.14.12.14s.25-.08.25-.11A7.37,7.37,0,0,0,25,8.9ZM2.73,47a3.62,3.62,0,0,0-.16.51c0,.05.07.11.12.17.11-.14.22-.29.32-.44A2.76,2.76,0,0,0,2.73,47ZM20.3,20.87a3,3,0,0,0,.24-.45s-.09-.11-.14-.16a3.26,3.26,0,0,0-.29.36S20.18,20.73,20.3,20.87Zm-6.36,1.52-.13-.29c-.11.16-.22.31-.31.47s.14.12.21.17Zm41,24.85-.18.49.62-.12ZM43,70.64a1.93,1.93,0,0,0-.36-.23s-.12.09-.18.15l.35.32ZM17,14.84l.54-.3-.26-.39ZM54.77,54v-.1a2,2,0,0,0-.4-.12s-.11.13-.16.2a1.28,1.28,0,0,0,.32.09A.55.55,0,0,0,54.77,54ZM23.71,8.11a4.41,4.41,0,0,0-.29-.58s-.16-.06-.23,0-.12.13-.1.17.12.08.18.13ZM6.08,37.18C6,37.11,5.88,37,5.82,37a1.13,1.13,0,0,0-.31.19c.07.08.17.25.2.24A1.48,1.48,0,0,0,6.08,37.18ZM22.14,48.71l.08.74.15,0-.09-.65ZM17.36,25.76v-.11c-.14,0-.29-.13-.41-.09s-.14.22-.26.42ZM25.9,7.56l-.18-.17c-.11.15-.21.3-.31.46s0,.06.06.1Zm19.77,21c-.14-.08-.22-.15-.25-.13a4,4,0,0,0-.34.22c.05.05.11.13.14.12A3.26,3.26,0,0,0,45.67,28.59ZM13.24,41l.37-.25c-.09-.07-.17-.19-.26-.2a.34.34,0,0,0-.24.19C13.09,40.78,13.19,40.88,13.24,41Zm7.27,7.92.07.14a1.66,1.66,0,0,0,.39-.15s0-.2-.07-.3Zm13.72,6.19h.21a4.47,4.47,0,0,0,0-.52s-.13,0-.2,0Zm14.15,24.3c-.1.14-.2.23-.19.28s.13.17.2.25c.07-.08.19-.15.2-.23S48.48,79.53,48.38,79.39ZM31.93,55.61c.08-.09.18-.17.17-.2a1.17,1.17,0,0,0-.21-.24l-.23.25ZM19.13,49c-.12-.06-.19-.13-.24-.12a1.83,1.83,0,0,0-.26.16c.06.08.15.22.19.21S19,49.13,19.13,49ZM43,34.73l.15.13.44-.51-.13-.12Zm.46,43.74-.15,0c0,.15.06.31.1.46s.12,0,.18,0Zm-5.6-29-.32-.21a.92.92,0,0,0-.08.27c0,.06.11.16.13.15A1.1,1.1,0,0,0,37.83,49.46ZM26.75,9.06l.1.13.43-.31-.11-.15ZM51.82,47.58l-.16,0c0,.15,0,.29,0,.44s.08.06.13.09Zm2.91,3.8-.19.15a3.25,3.25,0,0,0,.23.29s.12-.07.18-.11ZM40.9,70.82h.15L41,70.2h-.1ZM27.07,12,27,12l-.12.38.11,0Zm-8.3,16.54-.15,0-.11.39.14,0C18.7,28.79,18.73,28.66,18.77,28.53ZM1.88,47.62l.16.06a3.5,3.5,0,0,0,.07-.45L2,47.2Zm9.32,3.54L11.12,51l-.37.31Zm13.38-.26c-.13-.1-.19-.19-.25-.19s-.16.09-.24.14.1.13.16.14A1,1,0,0,0,24.58,50.9Zm-1.5-2.13.14,0,.1-.33a.73.73,0,0,0-.18,0A3.23,3.23,0,0,0,23.08,48.77ZM11.77,24.13l-.14.05.14.5.16-.05Zm6.24,25,.36-.24c-.06,0-.13-.14-.18-.13a.64.64,0,0,0-.26.18S18,49.07,18,49.13ZM44.06,31.82c-.12-.07-.22-.16-.25-.14a.41.41,0,0,0-.15.23s.07.1.1.16ZM26.47,49l-.14,0-.09.46a.45.45,0,0,0,.14,0C26.42,49.23,26.44,49.09,26.47,49ZM24.39,5.13,24.32,5,24,5.25l.09.12Zm.16.32h-.11V6l.16,0C24.59,5.78,24.57,5.61,24.55,5.45Zm2.62,51.81v-.37l-.32.07ZM19.86,20.15l-.13-.09-.29.36.13.09ZM44.58,35.66l-.28-.16s-.07.12,0,.16a.29.29,0,0,0,.14.13S44.49,35.73,44.58,35.66Zm7.49,23.76L52,59.3c-.06.12-.13.24-.18.36s0,.08.08.12Zm-43.9-23,.1-.15L8,36.12c0,.05-.07.12,0,.14A1.12,1.12,0,0,0,8.17,36.44Zm-4,9.32c0-.06.09-.12.08-.15a.22.22,0,0,0-.14-.11s-.08.07-.13.12Zm38.15-7.34.14,0,.08-.38-.13,0ZM17.08,15.1a1.58,1.58,0,0,0-.24-.13.8.8,0,0,0-.15.21s.08.08.11.07A1.31,1.31,0,0,0,17.08,15.1ZM51.89,48.33l-.09,0c0,.11-.11.22-.16.34l.14.08ZM45.77,29.16c-.1-.07-.14-.11-.17-.11s-.18.08-.27.12a1.11,1.11,0,0,0,.07.13ZM18,26.48l-.27-.24s-.09.09-.08.12a.39.39,0,0,0,.11.21S17.88,26.52,18,26.48ZM41.07,69.09c-.08.09-.17.15-.17.21s.09.11.13.17a.87.87,0,0,0,.15-.2S41.13,69.17,41.07,69.09ZM53,66.52h-.14l0,.43H53ZM20.64,9.38l.06.14.39-.22L21,9.21ZM45.73,29.87c.08-.08.15-.11.16-.16s0-.08,0-.13-.1.05-.12.09S45.72,29.77,45.73,29.87ZM50.78,80.5h-.09l0,.36h.16ZM7.9,56.84v-.13H7.52v.1ZM24.79,6.75l.11.1.21-.24-.06-.06ZM1.31,51.54l.31.29,0,0Zm2.51.64-.1,0-.19.31.15.09ZM47.06,32.05a1,1,0,0,0,.24.13s.1-.08.09-.1a.75.75,0,0,0-.13-.18Zm-4.82,38v.11l.34,0,0-.15ZM3.31,53.47l-.07-.11-.31.2.07.11ZM20,55.5c-.09,0-.15-.09-.18-.07a1.14,1.14,0,0,0-.17.15,1.08,1.08,0,0,0,.11.11A2.12,2.12,0,0,0,20,55.5ZM53,71.45l-.11,0-.09.31.12,0ZM50.78,44.11,50.7,44c-.06.07-.13.13-.18.2s0,.06.07.09ZM13.32,57.76l0-.09-.48,0,0,.12ZM4.38,40.47H4.27v.36l.1,0C4.38,40.7,4.38,40.59,4.38,40.47ZM19.59,27.8c-.06.11-.12.16-.12.23s.07.07.11.11.09-.08.09-.11A.9.9,0,0,0,19.59,27.8ZM42.33,65.65c-.11-.05-.17-.1-.21-.09s-.1.09-.15.13.11.09.16.09S42.23,65.72,42.33,65.65ZM29.61,56.36c0,.07-.09.14-.07.17s.09.11.14.16.1-.12.1-.18S29.7,56.43,29.61,56.36Zm-20.12-26-.07-.13-.3.18.05.1ZM11,27.85l0,0-.27.21.14.13Zm5.77-2.08a1,1,0,0,0-.22-.12.37.37,0,0,0-.14.07c0,.05.07.13.12.14S16.6,25.82,16.72,25.77ZM42.5,37.12c-.11,0-.17-.1-.21-.08a.7.7,0,0,0-.16.14s.09.07.13.06A1.28,1.28,0,0,0,42.5,37.12Zm-.94,4.81a.86.86,0,0,0-.21-.11s-.07.06-.11.1l.2.15Zm-16.68,8.7v.13l.31-.07v-.08ZM24,6.18h-.11a2.91,2.91,0,0,0,0,.31h.12ZM51.41,47c0,.06-.1.1-.09.12a.75.75,0,0,0,.1.17l.16-.11Zm-31,4.22a.58.58,0,0,0-.06.17s.09.06.09.06a.29.29,0,0,0,.08-.14Zm-16.45,0-.17.14a.34.34,0,0,0,.15.07s.08-.06.1-.11S3.94,51.21,3.91,51.17ZM56.53,49.4l-.09-.09-.19.21.09.07ZM21.92,57.17c-.1-.06-.15-.1-.2-.1s-.07.06-.1.09.08.08.12.09S21.83,57.21,21.92,57.17ZM35.56,56c-.06.06-.11.09-.12.13s.05.09.07.14l.16-.11ZM17,49.15l-.14.15.19.24.18-.17ZM44.25,31.21a2.35,2.35,0,0,0-.15.26s.08.08.12.08.09-.06.11-.1S44.3,31.37,44.25,31.21Zm7.26,26.23.09-.06L51.47,57l-.09,0ZM43.77,33.86h-.05l0,.3h.06ZM25.39,6.39l-.12-.16s-.11.08-.1.1a2.12,2.12,0,0,0,.12.2ZM23.49,13c0,.07,0,.12-.06.17s.05.06.08.08.07-.1.1-.16ZM17.66,57.59l.14-.13a.32.32,0,0,0-.14,0s-.06.06-.09.09Zm-14-3.66-.13-.06-.07.33.08,0Zm40.45-17.2c.15.05.2.09.22.07a.53.53,0,0,0,.15-.11ZM17.61,17.51l.09.07.21-.3-.1-.06Zm8.22-8.74-.07,0s-.06.07-.06.11a1.25,1.25,0,0,0,0,.19Zm-.26,8.33.08,0,.17-.3-.11,0Zm26.1,41.3h.09l0-.39h-.07ZM2.25,44.88l.13,0s0,0,0-.06l-.12,0S2.27,44.85,2.25,44.88ZM22.11,8.64l.07,0,.15-.26-.1,0Zm28.83,73-.11-.15a.35.35,0,0,0-.08.13s.06.08.1.09S50.91,81.64,50.94,81.61ZM12.43,51.44l-.11-.14s-.1.06-.12.11.05.1.08.1A.34.34,0,0,0,12.43,51.44Zm7.09-21.25c.1-.1.16-.14.18-.2s0-.09-.06-.13a.44.44,0,0,0-.14.13S19.5,30.07,19.52,30.19ZM48,77.31v.07s.09,0,.12,0a.66.66,0,0,0,.15-.14Zm-2.08-.39,0-.06s-.09,0-.1.07a1.09,1.09,0,0,0,0,.18ZM45.36,34.1l.1.12a.3.3,0,0,0,.11-.07.37.37,0,0,0,0-.15ZM40.14,67.81l.08,0s.08-.06.08-.1a.61.61,0,0,0,0-.18ZM42.37,38.6s-.07.07-.07.1.05.06.08.1.08-.06.08-.09S42.41,38.65,42.37,38.6ZM10.69,40c0,.06-.12.11-.11.14s.07.11.1.16.11-.07.11-.09A.77.77,0,0,0,10.69,40Zm-5.77.23c0,.06-.09.11-.08.14s.06.1.1.1a.17.17,0,0,0,.11-.09S5,40.28,4.92,40.21Zm19.93,8.14a1.34,1.34,0,0,0-.11.14s.05.07.06.06a.91.91,0,0,0,.16-.11ZM5.66,40.8l.09.08.2-.27-.08-.06Zm50,6v.05l.21.09,0-.11Zm-4.87-2.09a.63.63,0,0,0-.15-.1s-.07.06-.07.09a.28.28,0,0,0,.07.13Zm1.3,1.38.12.06a.15.15,0,0,0,0-.06.33.33,0,0,0-.06-.1ZM9.69,28.26l.16-.1-.06-.09a.31.31,0,0,0-.09.07S9.7,28.21,9.69,28.26ZM26.9,5.91l0-.08s-.07,0-.09.09l.06.08ZM17.32,57.62l-.1-.14a1.21,1.21,0,0,0-.1.14s0,.08.06.08A.53.53,0,0,0,17.32,57.62ZM42.2,41.83a.37.37,0,0,0-.06.1s0,0,0,.06a.47.47,0,0,0,.06-.09S42.22,41.86,42.2,41.83ZM.78,49l.07-.1-.09-.05L.7,49Zm41.59-8.58c-.06,0-.08-.08-.11-.08a1,1,0,0,0-.17,0s0,.12.09.13S42.28,40.48,42.37,40.44ZM32.1,48.93s-.07-.11-.09-.11a1,1,0,0,0-.15.07s0,.1.07.1A.5.5,0,0,0,32.1,48.93Zm-6.31.21L25.9,49s-.06,0-.07,0a.52.52,0,0,0-.1.11ZM16.51,16.55s.07-.08.07-.11,0-.06-.08-.09-.08.06-.08.09S16.47,16.5,16.51,16.55ZM39,49s.06.09.1.1.06,0,.1-.05A.48.48,0,0,0,39.1,49S39,49,39,49ZM50.08,37.37s.06-.08.06-.11,0,0-.08-.08-.08.06-.07.08S50,37.32,50.08,37.37Zm-25.53-19a2.73,2.73,0,0,0,.11-.26s0-.07,0-.11-.1.05-.11.09S24.53,18.23,24.55,18.41ZM51.83,61c0-.06-.09-.12-.11-.12l-.15.08s0,.08.07.08A.81.81,0,0,0,51.83,61ZM20.39,11a.53.53,0,0,0-.14-.08s-.06.05-.06.07a.13.13,0,0,0,.07.09S20.32,11,20.39,11ZM43.16,35.88l-.06-.13s-.1.07-.12.11S43,36,43,36ZM42,34.81l.05,0,0,0,0-.05Zm.3,32.48s-.09.06-.1.09,0,.08,0,.11a.32.32,0,0,0,.12-.08S42.3,67.34,42.28,67.29ZM52.83,49.35a.46.46,0,0,0,.09.12s.06,0,.09-.06a.26.26,0,0,0-.07-.1S52.88,49.33,52.83,49.35Zm.43,19.43c-.07,0-.11-.09-.15-.09s-.08,0-.11,0l.14.13S53.2,68.82,53.26,68.78ZM21,18.76l.08,0,.1-.25-.08,0ZM53.79,49.44a.41.41,0,0,0-.18,0,.29.29,0,0,0-.11.11s.06.08.09.11Zm-.32,21.17s0,.07,0,.11,0,0,0,0l.07-.12ZM44.19,32.83c-.07,0-.11-.08-.14-.07s-.07.06-.09.1,0,.07.06.1ZM20.77,10.59s-.07.08-.07.11,0,.06.07.09.06-.06.07-.09S20.8,10.63,20.77,10.59Zm6,40.32,0,.05a.39.39,0,0,0,.1.08l0,0ZM54,54.82a1.14,1.14,0,0,0,.11-.11s0-.08-.06-.08l-.17.11ZM13.24,21.94l-.05,0,.14.17.05,0Zm-.57.9-.08-.06a.56.56,0,0,0,0,.12s0,.05.06.08Zm32.9,56.05c.06-.07.1-.1.1-.13a.23.23,0,0,0-.07-.1s-.09,0-.08,0A.71.71,0,0,0,45.57,78.89Zm-3.38,0a1,1,0,0,0-.15-.09s-.06,0-.1.06a.63.63,0,0,0,.12.11Zm3.93-47.55a.76.76,0,0,0,0,.16s0,.05.06.07.06-.06,0-.09S46.19,31.39,46.12,31.31ZM13.34,23.09l-.1-.07s0,.06,0,.07a.27.27,0,0,0,.08.07ZM52.51,80.18s-.1-.09-.12-.08a.41.41,0,0,0-.13.1s.08.09.1.09S52.45,80.23,52.51,80.18ZM5,56.65a.74.74,0,0,0,.15.08s.05,0,.08-.07l-.11-.12ZM44.56,80.86l.12,0s0,0,0,0a.07.07,0,0,0-.07,0S44.56,80.83,44.56,80.86ZM30.87,56.43a.87.87,0,0,0,.07-.17s-.07-.09-.08-.09-.11.07-.12.11S30.8,56.36,30.87,56.43Zm-19.4-4.81c-.05-.06-.08-.1-.11-.11s-.08,0-.12,0a.39.39,0,0,0,.1.08A.52.52,0,0,0,11.47,51.62ZM26.55,9.76l.08-.16a.15.15,0,0,0-.05-.06l-.14.08ZM5.78,53l0-.06s0-.05-.07-.07,0,0,0,.08S5.76,53,5.78,53ZM5,53.9,5.1,54l.12-.2-.07,0A1.74,1.74,0,0,0,5,53.9ZM12.4,27.5l0-.08a.39.39,0,0,0-.11.06s0,.06,0,.06ZM55.18,54.39l-.07,0s0,0,0,.06l.07,0S55.19,54.42,55.18,54.39ZM18.39,27.9c-.05,0-.09-.07-.11-.07a.14.14,0,0,0-.09.09s0,.06,0,.1ZM4.73,55.28l-.11-.09-.09.17s.07,0,.09,0A.65.65,0,0,0,4.73,55.28ZM45.59,28.21l.16.06s0,0,.06-.05l-.15-.08S45.63,28.17,45.59,28.21Z"/><path d="M27.24,3.11c-.12.13-.25.25-.37.37l-.9.86-.25-.56a1,1,0,0,1,.24,0c.34,0,.45,0,.22-.35-.06-.08,0-.23,0-.35l.13,0c-.06.34.23.13.26.17.29.28.44-.34.69-.07Z"/><path d="M25.28.7l.5-.7c.15.21.39.4.44.63s-.24.46-.37.46S25.49.86,25.28.7ZM26,.63,26,.49l-.31.22a.61.61,0,0,0,.07.1Z"/><path d="M48.22,28.4c.15.14.36.25.35.35a.9.9,0,0,1-.27.44s-.14,0-.21,0-.05,0-.08,0l-.35-.21Z"/><path d="M57.1,54.92c-.49,0-.49-.28-.5-.54,0-.07.19-.21.2-.2a3.86,3.86,0,0,1,.51.48A2.92,2.92,0,0,1,57.1,54.92Z"/><path d="M18.92,11.23c-.08.1-.16.19-.23.29l-.2.26c-.06,0-.16-.09-.17-.15a.47.47,0,0,1,.07-.28,2.89,2.89,0,0,1,.33-.5c.16-.17.26-.1.27.11l0,0C18.68,11,18.89,11.12,18.92,11.23Z"/><path d="M43.4,29.67c0,.29-.07.61-.12.93a1.12,1.12,0,0,1-.16.28,1.43,1.43,0,0,1-.09-.27c0-.08,0-.17,0-.25C43,29.84,43,29.84,43.4,29.67Z"/><path d="M42,30.93l.11-.83h0c0,.42.09.84.11,1.26a2.06,2.06,0,0,1-.39.09h0Z"/><path d="M18.42,12.7l0,.05v.07c-.29-.08-.6-.21-.54.32l0,0c-.07-.06-.21-.16-.19-.2.11-.29.24-.57.4-.91C18.39,12.28,17.94,12.65,18.42,12.7Z"/><path d="M41.87,31.46c-.28.21-.3.2-.34-.07,0-.07,0-.17,0-.22-.28-.3-.14-.48.1-.58l.33.46h-.36l.3.42Z"/><path d="M13.73,58.15c0,.11,0,.25-.1.32a.43.43,0,0,1-.32.08s-.05-.17-.09-.26-.08-.16-.12-.24v0l.64.09Z"/><path d="M25.75,2.31c-.11-.26-.18-.41-.23-.56a.18.18,0,0,1,0-.16,1,1,0,0,1,.25-.15s.11.1.1.14C25.86,1.8,25.8,2,25.75,2.31Z"/><path d="M44.81,27.44a6.74,6.74,0,0,1-.17.75s-.16,0-.25.06a.58.58,0,0,1,0-.23c.09-.21.2-.4.3-.6Z"/><path d="M11.09,58.12l-.13.6-.13,0-.27-.59.54,0Z"/><path d="M46.65,25.43c-.11-.22-.21-.33-.21-.45s.1-.19.17-.29a2,2,0,0,1,.25.35C46.88,25.11,46.77,25.23,46.65,25.43Z"/><path d="M25,2.06c.07.16.17.27.15.34a.43.43,0,0,1-.25.26c-.05,0-.16-.12-.24-.19Z"/><path d="M46.78,25.62l.29.86,0,.07c-.08-.09-.22-.17-.25-.28A3.6,3.6,0,0,1,46.78,25.62Z"/><path d="M44.22,27.23c.24-.17.09-.18-.08-.22a.62.62,0,0,1-.26-.17s0-.1,0-.16.23.06.3.14a2.1,2.1,0,0,1,.31.41h-.31Z"/><path d="M46,25.33c-.09-.13-.21-.21-.21-.29a1.36,1.36,0,0,1,.13-.42,4,4,0,0,1,.23.46C46.18,25.13,46.09,25.21,46,25.33Z"/><path d="M55.12,54.88c0,.07.09.14.08.2a.76.76,0,0,1-.14.3s-.16,0-.25,0a.83.83,0,0,1,.07-.32c0-.08.16-.11.25-.17Z"/><path d="M25.51,2.77l.3.48-.48.18Z"/><path d="M19.68,9.54a1,1,0,0,1-.22.23.78.78,0,0,1-.3.07s-.09-.06-.13-.08a1.67,1.67,0,0,0,.23-.12.65.65,0,0,0,.17-.16,3,3,0,0,0,.18-.3l.07.37Z"/><path d="M45.74,26.31c-.08-.07-.1-.08-.1-.09,0-.23.1-.46.16-.7l.1,0Z"/><path d="M46.83,27.73c.05-.17.09-.33.15-.49a.66.66,0,0,1,.17-.16c0,.06.07.13.06.19C47.18,27.53,47.12,27.77,46.83,27.73Z"/><path d="M42.82,28.05l-.44.31s-.08-.05-.12-.08.22-.28.34-.41Z"/><path d="M43.47,28.38l-.28.16c0-.08-.12-.15-.12-.24s.08-.12.13-.18Z"/><path d="M1.57,57.06c.06.2.13.39.18.59a.5.5,0,0,1-.19.08s-.09-.07-.09-.1c0-.19.07-.39.11-.58Z"/><path d="M48.51,81.61v.57s-.15,0-.15-.07a4.36,4.36,0,0,1,0-.51Z"/><path d="M20.08,8.59c0,.09,0,.19,0,.29h0L19.64,9,19.56,9,20,8.51Z"/><path d="M21.1,57.46v-.11h.19v0a.78.78,0,0,0,.11.2c.05.09.19.2.17.25s-.24.17-.37,0h0C21.55,57.6,21.08,57.58,21.1,57.46Z"/><path d="M32.19,57.07l.18-.44.16.13a2.43,2.43,0,0,1-.3.26S32.1,57,32,57Z"/><path d="M9.29,58c0,.11,0,.27-.12.31a.89.89,0,0,1-.4,0l.17-.24h0L9.3,58Z"/><path d="M43.49,29.22l-.17.24a2.55,2.55,0,0,1-.13-.39s.1-.07.15-.11Z"/><path d="M5,38.39h.45s0,.15,0,.15a2.73,2.73,0,0,1-.4.05Z"/><path d="M14,19.9l.46.15c0,.05-.07.13-.09.13L14,20.07Z"/><path d="M48.54,82.89l-.3.19a2,2,0,0,0-.21.2s-.06,0-.05-.06a1.22,1.22,0,0,1,.23-.27,1.14,1.14,0,0,1,.33-.06Z"/><path d="M14.36,19.33l.46.09-.31.37Z"/><path d="M50.32,35.12a.7.7,0,0,1,0-.25,1.34,1.34,0,0,1,.22-.31s.1,0,.1,0a1.75,1.75,0,0,1-.12.32,1,1,0,0,1-.13.23Z"/><path d="M48.69,83.46l.24-.21c0,.06.1.14.08.17a2.51,2.51,0,0,1-.26.31Z"/><path d="M56.23,52.13l-.43,0a1.7,1.7,0,0,1,.07-.23,2.32,2.32,0,0,1,.38.05Z"/><path d="M20.08,8.59,20,8.51l.23-.29.12.16Z"/><path d="M21.81,4.52l-.37.23-.06-.09.32-.27Z"/><path d="M8.08,58.24h.1l-.25.5-.14-.1Z"/><path d="M9.9,58.9c0-.17-.08-.25-.06-.29a1.21,1.21,0,0,1,.2-.19s.07.11.06.15A2.16,2.16,0,0,1,9.9,58.9Z"/><path d="M.19,50.69a.19.19,0,0,1,0,.08c0,.1,0,.2,0,.3L0,51,.2,50.7Z"/><path d="M24.86,3.22l-.33.34-.09-.07.3-.37Z"/><path d="M6.62,58.37l-.43.22-.05-.09.43-.25Z"/><path d="M14.45,20.43l-.26.24s-.09-.1-.08-.12a.91.91,0,0,1,.18-.21S14.38,20.39,14.45,20.43Z"/><path d="M41.06,29.67l.16.36s-.1,0-.11,0-.12-.22-.18-.32Z"/><path d="M57.34,47.73l-.15.41-.13,0,.15-.41Z"/><path d="M56.51,52.49l.35,0v.11l-.35,0Z"/><path d="M26.39,15.2l.2-.13c0,.06.08.16.05.19a.66.66,0,0,1-.22.12l0-.18Z"/><path d="M41.54,29.72l.29-.33.11.09-.3.33Z"/><path d="M27.42.79c-.08.09-.14.19-.22.28L27.09,1,27.3.68Z"/><path d="M15.23,58.28l-.17.19a1.06,1.06,0,0,1-.16-.21s.08-.11.11-.11A.66.66,0,0,1,15.23,58.28Z"/><path d="M24.26,57.51c-.05.06-.09.15-.15.17s-.14,0-.22-.07h0l.37-.1Z"/><path d="M48.57,29.81l-.14.32-.11-.05.12-.33Z"/><path d="M19.29,10.08l-.19.32-.1-.06.18-.33Z"/><path d="M26.69,1.86c-.12.06-.18.11-.24.1s-.1-.07-.16-.11.09-.14.13-.13S26.56,1.79,26.69,1.86Z"/><path d="M20.33,7.34v.51h-.08V7.34Z"/><path d="M54.67,46.45l-.07-.54.11,0,.15.31v0l-.2.29Z"/><path d="M20.85,7.13c-.07,0-.16,0-.2-.06a.35.35,0,0,1-.1-.2s.08-.06.12-.09l.11.19a1.11,1.11,0,0,1,.07.16Z"/><path d="M19.68,9.55l.38-.19,0,.15-.41,0Z"/><path d="M47.54,29.53a1.13,1.13,0,0,1,0-.18c0-.05,0-.13.05-.15s.11,0,.16,0l-.09.15-.1.14Z"/><path d="M26.64,15c0-.06-.08-.1-.07-.14s.06-.06.1-.1a1.09,1.09,0,0,1,.08.15A.82.82,0,0,1,26.64,15Z"/><path d="M9,58.68c-.09,0-.17.1-.19.09a1.3,1.3,0,0,1-.15-.18c.05,0,.11-.06.15-.05S8.93,58.62,9,58.68Z"/><path d="M21.4,6.85V6.53l.15,0a1.47,1.47,0,0,1-.05.29Z"/><path d="M4.51,38.18c.06.06.12.11.12.14a.56.56,0,0,1-.09.17s-.12-.06-.12-.09A.59.59,0,0,1,4.51,38.18Z"/><path d="M9.11,28.55,9,28.74h-.1L9,28.41Z"/><path d="M27.23,2.85a2.69,2.69,0,0,1,.16-.29s.07,0,.1,0l-.26.28Z"/><path d="M1.58,57.05l-.26.05,0-.2.29.07h0a.34.34,0,0,0,0,.1Z"/><path d="M57.71,54.88l.15.07s-.06.09-.07.09l-.18-.1Z"/><path d="M48,82.76l-.15-.25s.07,0,.07,0a2,2,0,0,1,.17.23Z"/><path d="M52.16,81.75c0,.07-.09.14-.15.21s-.06,0-.1-.06l.18-.21Z"/><path d="M28,2.84c-.1.06-.15.11-.19.11s-.08-.05-.13-.08.08-.08.13-.09A1.18,1.18,0,0,1,28,2.84Z"/><path d="M28.09,9.17c-.08.06-.11.11-.16.12s-.08,0-.11-.07.05-.1.09-.11S28,9.14,28.09,9.17Z"/><path d="M20.23,57.83l.35,0,0,.13-.3-.17Z"/><path d="M19,58s.09.09.08.1a.32.32,0,0,1-.1.1s-.06-.06,0-.09S19,58,19,58Z"/><path d="M3.34,40.67l-.1.3s0-.11,0-.14a.48.48,0,0,1,.13-.16Z"/><path d="M48.54,82.89v.46h-.11l.11-.45Z"/><path d="M44.22,27.23h0l-.09.19-.07-.08Z"/><path d="M26.45,1,26.37.74h0l.11.24Z"/><path d="M55.14,52.75l.18-.09s.06.07,0,.08-.06.08-.09.08S55.21,52.79,55.14,52.75Z"/><path d="M44,81.45s0-.07,0-.09.08-.06.11-.09,0,0,0,.08a1.19,1.19,0,0,1-.09.15Z"/><path d="M43.22,81.44l-.11-.09.11-.11s.06.06.07.1S43.25,81.4,43.22,81.44Z"/><path d="M23.59,3.62l-.1-.09.11-.1s0,0,.07,0Z"/><path d="M24.31,3.91l-.11.24-.06,0,.07-.25Z"/><path d="M22.44,6.61c-.1,0-.14,0-.16,0a.49.49,0,0,1-.13-.12s.08,0,.11,0S22.34,6.54,22.44,6.61Z"/><path d="M18.74,58.07l0,.24s-.07-.07-.06-.1a1.19,1.19,0,0,1,.09-.15Z"/><path d="M14.42,58l-.08.39-.11,0,.19-.35Z"/><path d="M29.51,57l-.09.29-.2-.16.3-.11Z"/><path d="M2.18,57.4l0,.08s-.09,0-.1,0,0-.07,0-.1Z"/><path d="M1.23,45.8c0,.05.07.09.06.11a.36.36,0,0,1-.11.1s0-.08,0-.11S1.19,45.84,1.23,45.8Z"/><path d="M23.34,57.78V58l-.19-.17.21,0Z"/><path d="M26.4,15.2h-.3l0-.09.27.09Z"/><path d="M17.22,13.53l-.15.11s-.05-.07,0-.1a.16.16,0,0,1,.09-.09Z"/><path d="M14.76,18.13a2.44,2.44,0,0,0-.1.24l-.08,0,.19-.2Z"/><path d="M26.65,4.05c0,.08.06.11.06.14a.6.6,0,0,1-.06.11s-.09,0-.09-.07A1.46,1.46,0,0,1,26.65,4.05Z"/><path d="M42.15,30.1,42,30v0l.16.16Z"/><path d="M43.38,80.34l.21.1-.06.09-.14-.2Z"/><path d="M46,26.91s-.08.06-.1.06-.08-.07-.07-.08a.43.43,0,0,1,.09-.1Z"/><path d="M42.81,81.7l-.05.11a.58.58,0,0,1-.12-.1s0-.07,0-.1Z"/><path d="M49.76,82.62l0,.07-.07-.09.05,0Z"/><path d="M23.27,5.87c.19-.18.26,0,.35.12Z"/><path d="M19.16,29.07l0,.39-.08,0c0-.12-.06-.23-.09-.35Z"/><path d="M58.12,48.26l-.18-.15.18-.12Z" class="cls-1"/><path d="M53.31,71.22c-.08.1-.3.2,0,.31,0,0,0,.12,0,.15s-.24.3-.38.48c.37.18.71.43,1-.22l.11.12q0,.81.06,1.62c0,.06-.08.13-.13.19s-.11-.13-.11-.2c0-.22,0-.44-.05-.66a1,1,0,0,0-.08-.29s-.11,0-.11,0a1.07,1.07,0,0,0-.06.3v1.11s0,0,0,0c-.77.28-.28.84-.29,1.29a8.41,8.41,0,0,0,.06,1.12,7.66,7.66,0,0,0,.18.8,11.17,11.17,0,0,1,.24,1.15c0,.31-.1.64-.07.95s.19.55,0,.85a.08.08,0,0,0,0,.07c.18.15.46.3.07.51a1.07,1.07,0,0,1-.58.12c-.15,0-.47.1-.42-.27-.16,0-.35-.46-.49,0a.94.94,0,0,1-.34.41,1,1,0,0,1-.32.14c-.05-.12-.11-.24-.15-.36-.09-.38-.17-.76-.25-1.14h-.16l-.15.87.09,0,.09-.17h.06c0,.14,0,.29,0,.43s-.22.33.1.37a2.92,2.92,0,0,1-.1.4s-.15.07-.15.12c-.05.52-.18.28-.35,0s-.21-.39-.48-.22c0,0-.1,0-.15,0a.94.94,0,0,1,.06-.15A1.59,1.59,0,0,0,50.3,81l-.45.43L49.51,81c-.13.2-.3.29-.51,0a.31.31,0,0,0-.26,0c-.19.27-.36.11-.58,0s-.56,0-.32-.42c0,0-.18-.17-.25-.15a.58.58,0,0,0-.21.93.12.12,0,0,0,.1,0,.75.75,0,0,0,.14-.17c0,.1,0,.2,0,.29a1.46,1.46,0,0,1,0,.41.58.58,0,0,1-.23.34s-.24-.08-.29-.17-.14-.59-.32-.69c-.51-.29-.49-.6-.26-1.05.05-.09-.13-.39-.38-.14l-.1-.06a1.06,1.06,0,0,1,.06-.19l.17-.38-.15,0,0,.39c-.11-.23-.21-.46-.31-.69a1.36,1.36,0,0,1-.06-.29c-.16.18-.35.31-.42.48s-.42.32-.16.68c.09.12,0,.45.33.51-.19.21-.33.46-.54.54s-.5.52-.69-.09c-.07-.24-.47-.34-.42-.74s-.13-.5-.48-.31c0-.12.06-.24.1-.36s.1-.1.1-.16-.08-.08-.12-.12-.12.14-.13.2,0,.29,0,.44v.32h0l-.17-.07a.75.75,0,0,0,0,.15,1.87,1.87,0,0,1,0,.32c0,.07-.09.13-.14.19a.62.62,0,0,1-.14-.19,1.42,1.42,0,0,0-.21-.51l-.27.51c0,.08-.12.14-.17.22a3.9,3.9,0,0,1-.43-.36c0-.06,0-.19,0-.28s.23,0,.24.06c.14.43.3.09.38,0s-.18-.59-.38-.6a3.33,3.33,0,0,1-.63,0,.8.8,0,0,1-.3-.16,1.3,1.3,0,0,0,.15-.2.53.53,0,0,0,0-.25s-.05-.06-.07-.1c.52-.31-.16-.8.16-1.15a.4.4,0,0,0-.13-.22.89.89,0,0,1-.41-1,4.93,4.93,0,0,0,.23-1,5.79,5.79,0,0,1,.18-1.12l.2.43h0s0-.08,0-.11c.15-.39.1-.59-.39-.65-.32,0-.2-.37-.16-.62s0-.52-.13-.55c-.49-.16-.27-.46-.18-.72s.07-.12-.09-.17-.16-.13-.24-.2l.19-.13.13-.12-.41-.24c.26-.1.69-.1.23-.49-.12-.11-.06-.46-.05-.69s.09-.5.1-.75,0-.39-.1-.45c-.58-.37-.32-1-.41-1.46,0-.07.19-.18.33-.3l-.24-.11c-.07,0-.21-.07-.21-.1a.62.62,0,0,1,.08-.33c.07-.09.25-.55.17-.6-.26-.15-.06-.32-.07-.49s-.08-.48-.11-.72a3.22,3.22,0,0,1-.09-1.22,1.82,1.82,0,0,0-.08-1.16c0-.05,0-.13.07-.19s.18-.44.12-.5c-.3-.28,0-.54,0-.81,0-.54,0-1.09-.06-1.64,0-1.14-.06-2.28-.11-3.42,0-.12-.12-.23-.19-.35,0,.08-.05.19-.12.24s-.25.14-.37.21-.28.08-.3.16c-.07.24-.14.15-.24,0s-.07,0-.08,0c-.19.21-.46,0-.63.11s-.39,0-.55-.16l-.06.37c-.1,0-.26,0-.28-.1a1.24,1.24,0,0,1,0-.44c-.21-.09-.22.34-.56.23s-.16-.38-.2-.46c-.27.27-.56.54-.82.83s-.31,0-.38-.14a.59.59,0,0,1,0-.13H34.9c-.09,0-.22,0-.26.07a8.44,8.44,0,0,0-.5.69l-.47-1-.19.42-.27-.24a3.19,3.19,0,0,1-.14.51c-.36-.05-.09-.32-.15-.49a2.79,2.79,0,0,1-.1-.39,1.43,1.43,0,0,0-.26.23c-.19.25-.36.3-.54-.11.23.68-.3.75-.63,1l-.05-.31c-.59,0-.59,0-.54-.22l-.11-.05-.24.54c0,.07-.07.13-.1.19a.47.47,0,0,0,0-.17c-.09-.18-.13-.51-.42-.13-.07.09-.26.08-.39.11h0a.27.27,0,0,0-.47,0,.9.9,0,0,1-.82.39c-.08,0-.2-.14-.22-.13-.19.16-.53-.31-.62.16a1.17,1.17,0,0,1-.2,0c-.24-.11-.46-.25-.64.11-.06.12-.25.19-.28-.07a1.26,1.26,0,0,0,0-.39c0-.1-.14-.17-.21-.25a2.44,2.44,0,0,0-.1.24c-.07.12.19.5-.26.33-.11.58-.42.17-.65.13l.24-.33-.08-.07-.39.49-.52-.07h0c-.1-.17-.2-.37-.43-.14,0,0,0,.16.06.24h0c-.11.29-.33.22-.55.17h0l-.14-.35c0-.15-.05-.29-.08-.44H23c0,.13.1.25.16.38s0,0,0,.07c-.34.14-.69.31-1,.43a.88.88,0,0,1-.39,0l.15-.46-.66-.08v0l-.1-.25-.09.26v.11l.07.34h0l-.39.27c0-.23,0-.43,0-.64l0-.16c-.08,0-.19,0-.22.05a4.25,4.25,0,0,0-.27.52h0c-.36.19-.41,0-.4-.3a.86.86,0,0,0-.05-.27l-.13.19c-.27.43-.47.48-.75.17.06,0,.15.06.18,0a.72.72,0,0,0,.12-.21l-.3.18-.17.46h0l-.21-.4c-.07.12-.11.22-.17.31a.44.44,0,0,1-.15.11c-.27-.26-.31.09-.45.16,0-.23-.09-.27-.28-.24l-.18.17L17,58.3l-.09-.22c-.07-.22-.14-.45-.24-.75a4.17,4.17,0,0,1-.72.49c-.11,0-.3-.08-.46-.13,0,0,0-.09,0-.13s0-.13,0-.19l-.06,0a.85.85,0,0,0,0,.17.59.59,0,0,1,0,.13c-.25.14-.5.3-.77.42-.08,0-.21-.06-.32-.09h0l0-.29c0,.05-.07.13-.12.16s-.36.17-.54.26h0l.06-.45a1.17,1.17,0,0,1-.29.22c-.08,0-.2,0-.29,0s-.08.09-.12.14v0H13c0,.42-.45.36-.63.58,0,0-.15,0-.19,0s0-.13,0-.2,0-.24-.05-.36h.31c-.25-.19-.25-.19-.29,0L12,58l-.34-.16-.16.47c-.09-.09-.11-.4-.37-.2h0c-.33,0-.61-.24-1-.11s.09.21,0,.31c-.22-.16-.62,0-.77-.37v0l-.15-.33-.23.42h0c-.22,0-.45,0-.5-.34,0,0-.17,0-.26,0a.34.34,0,0,1,.07.15c0,.14-.05.27-.07.41h-.1l-.51-.46c-.06.07-.12.16-.19.23-.33.38-.44.36-.62-.11a2,2,0,0,0-.21-.3c.23.08.42.12.43-.22a.6.6,0,0,1,.1-.25c-.06,0-.13-.06-.16,0a1,1,0,0,0-.22.24,2.44,2.44,0,0,0-.14.28.66.66,0,0,1,.05-.86c-.25,0-.38.14-.36.43s.12.55-.2.76c-.07,0,0,.28,0,.46-.14-.06-.43.07-.38-.32,0,0-.12-.13-.16-.12a.51.51,0,0,0-.19.17s.06.1.1.15l.19.21s-.12.09-.15.08-.24-.09-.26-.15a.7.7,0,0,0-.77-.64c-.1,0-.19-.15-.29-.23.24.06.39,0,.33-.28l.34,0L5.28,57l-.48-.17v.41l-.33,0c-.23-.32-.3,0-.44.11l-.42,0A1,1,0,0,0,3.77,57a3,3,0,0,0,0-.42c-.07,0-.16.13-.21.12a.85.85,0,0,0-.83.23l-.32.16a1.5,1.5,0,0,1-.1-.16l.57-.42c-.41-.24-.73-.25-1,.19-.07.12-.24.19-.35.28h0l.48-1,.3-.14c.28.3.86.1,1,.6.06,0,.18-.09.17-.11,0-.27-.13-.53-.2-.79l.14-.32-.17,0,.05.31c-.29.13-.54.4-.9.18,0,0-.08.07-.12.11l-.23-.15c0-.23-.05-.29-.25-.14l-.37.28A.88.88,0,0,1,2,55a2,2,0,0,0,.47-.4s0-.1,0-.16-.12,0-.16,0c-.38.35-.77.7-1.14,1.06a1,1,0,0,0-.12.32l.47,0a.83.83,0,0,0,0,.31c.14.36-.14.42-.35.47s-.46.12-.35-.28c0,0-.16-.13-.25-.19.07-.23.14-.44.2-.67,0,0,0-.1-.05-.15s-.15.06-.15.09c0,.24,0,.49,0,.73-.61-.2-.29-.73-.42-1.11.14.06.32.17.34.15C.64,55,1,54.9,1,54.55c0,0-.07,0-.11,0-.35.07-.54-.15-.43-.49,0-.16.12-.32.18-.48l-.16,0c0,.34-.1.69-.17,1a1.31,1.31,0,0,1-.21.33,1.41,1.41,0,0,1,0-.35,7.39,7.39,0,0,0,0-2.25c-.14-.45.33-.59.16-.91.31,0,.15-.24.21-.37s-.05-.26-.21-.28h0a2.63,2.63,0,0,1,.09-.3C.35,50.28.2,50.08.2,50a2.9,2.9,0,0,1,.17-.75c0-.07.11-.19.09-.21-.26-.24-.06-.4.09-.57s.25-.14.07-.36.08-.46.16-.69c0-.07.12-.12.18-.18s.17-.2.22-.18.27.14.26.22-.09.32-.27.1a4.51,4.51,0,0,0-.39.37s0,.2.06.2a.52.52,0,0,0,.3,0,.76.76,0,0,0,.49-1.13c-.13-.27,0-.33.23-.38a.75.75,0,0,0,.45-.2c.07-.09,0-.29,0-.44l-.25.11a2.8,2.8,0,0,1-.31.09c0-.14-.12-.35-.06-.41.24-.26.05-.34-.12-.46a.81.81,0,0,1-.16-.16l.18-.06c.08,0,.19-.06.22-.12.19-.33.39-.63.89-.55C2.46,44,2.46,44,2.14,44A.21.21,0,0,1,2,44s0-.13.05-.19,0-.11.09-.11c.36,0,.49-.2.47-.59a.16.16,0,0,1,0-.11c.21-.09.33-.19.16-.43a.27.27,0,0,1,.07-.27.49.49,0,0,1,.31,0c.08,0,.14.1.26.1l-.16-.3c.28-.16.6-.25.73-.6s.16-.39-.2-.53a2.32,2.32,0,0,1-.43-.29h0a4.87,4.87,0,0,1,.6-.31c.19-.07.41-.07.14-.33,0,0,0-.16,0-.23a.22.22,0,0,1,.18,0c.26.2.43.12.61-.12a1.23,1.23,0,0,1,.38-.3.65.65,0,0,1,.34,0,1.22,1.22,0,0,1,.24.1,2.09,2.09,0,0,0,0-.43c0-.06-.09-.14-.15-.17s-.14,0-.21,0a1.32,1.32,0,0,1,.21-.25c.2-.14.42-.25.7-.41-.26-.08-.45-.08-.53-.18s0-.28-.05-.36a4.29,4.29,0,0,1-.86-.2c-.14-.06-.2-.3-.29-.46.47-.1-.06-.37.08-.48a4,4,0,0,1,.61-.34s.05,0,.06,0,.35-.22.42-.17c.32.2.32.22,0,.55l.06.12a1.39,1.39,0,0,0,.34-.2,7,7,0,0,0,.41-.6c-.46-.48-.46-.48-1.09-.51,0-.09.16-.19.14-.24-.18-.48.3-.35.46-.51,0,0,.09.1.14.13a.81.81,0,0,0,.22.07c0-.08.07-.23,0-.24s-.18-.49-.49-.22c0,0-.06,0-.06-.05a.74.74,0,0,1,0-.16c.2,0,.47-.36.59.22l.37-1-.39.25c.14-.12-.45-.07-.06-.24.16-.07-.34-.28.07-.31a.93.93,0,0,1,.72.4,1.29,1.29,0,0,0,.41.25A2.91,2.91,0,0,0,8,33.34c0-.05,0-.13-.1-.19A.76.76,0,0,0,7.65,33c-.13-.07.13-.58-.34-.28-.08,0-.31-.7-.17-.77.33-.15.32-.48.43-.73s.1-.66.56-.69c.06,0,.13-.26.15-.4s0-.5.06-.75l.34.17c0-.12-.1-.27,0-.35s-.09-.5.3-.41h0l-.08.32.08,0L9,28.74l.08-.19c0-.06.12-.14.1-.17-.17-.32,0-.48.26-.6.12-.05.31-.08.06-.24a.18.18,0,0,1,0-.16c.17-.29.34-.57.53-.84,0,0,.16,0,.19,0a.48.48,0,0,1,.06.24.89.89,0,0,0,.48.68,2.5,2.5,0,0,0-.43.23c-.05.05,0,.2,0,.31a1.62,1.62,0,0,0,.19-.18,3.73,3.73,0,0,0,.23-.37c0-.17.39-.39-.05-.53,0,0,0-.05,0-.08,0-.2,0-.3-.16-.38l.5-.35,0,.36.5-.37-.09.34a.9.9,0,0,0-.17,0,3.25,3.25,0,0,0-.12.52.71.71,0,0,0,0,.25c.09-.07.23-.13.26-.21a2.28,2.28,0,0,0,0-.52.85.85,0,0,0,.22,0,2.11,2.11,0,0,0,.34-.16,1.16,1.16,0,0,0-.26-.28s-.14,0-.22.07a.55.55,0,0,0-.29-.83l-.51.72a1.53,1.53,0,0,1,.37-1.51c.24-.3.64-.59.69-.92a2.81,2.81,0,0,1,.2-.66c0-.09.21-.11.27-.2a1.13,1.13,0,0,0,.16-.41,1.6,1.6,0,0,0-.05-.29s.06,0,.09-.08l.14.25c0,.05,0,.13.06.17a2,2,0,0,0,.22.19,1.45,1.45,0,0,1-.07-.26,8.43,8.43,0,0,1,.06-1,.8.8,0,0,1,.21-.38.35.35,0,0,1,.23-.17c.21,0,.24,0,.08-.16s0-.28.08-.41.17,0,.18,0a1.4,1.4,0,0,1,.06.28c.06.23.11.46-.18.58a3.11,3.11,0,0,0,.23.28l-.15.27.15.07,0-.35c.36.15.7.32,1.06.44.08,0,.21-.07.31-.12-.06-.06-.1-.15-.17-.17a.57.57,0,0,1-.18-.71c.17-.3.32-.62.48-.93a.13.13,0,0,0,0-.09c-.28-.68.33-.88.68-1.19a.44.44,0,0,0,.12-.58.36.36,0,0,0-.29-.12c-.23,0-.34.17-.31.44a.62.62,0,0,1-.19.42c-.07.06-.22.05-.33.07a2,2,0,0,0,.16-.24c.09-.17.16-.34.24-.51-.1,0-.2-.07-.29,0a1.07,1.07,0,0,0-.32.2h0c.1-.21.21-.41.29-.63s.4-.45.27-.8c0-.07.15-.21.22-.32a2.18,2.18,0,0,0,.23.09l0-.1-.27,0c.16-.35.36-.4.67-.19a.24.24,0,0,0,.19-.08.28.28,0,0,0-.05-.24c-.06-.05-.17,0-.26-.06s-.11-.06-.16-.08l.15-.1a.35.35,0,0,1,.13-.05c-.2-.5.3-.59.49-.86.07-.11.31-.25-.07-.23,0,0-.05-.08,0-.1l.23-.31c.39.31.3-.09.38-.27l.16.15.55-.86,0,0,.48-.29c0,.17,0,.48,0,.48-.44,0-.27.43-.46.59a1.71,1.71,0,0,0,.23-.13c.72-.35.74-.42.33-1l0-.05A2.77,2.77,0,0,1,19,12a2.9,2.9,0,0,0,1-1.47.66.66,0,0,0-.63.56c0,.09-.26.13-.41.19l.06-.34,0,0a2,2,0,0,0,.28-.37c.09-.19.1-.42.42-.23.17.1.34,0,.48-.24.26-.46,0-.84-.07-1.25h0c.41,0,.84.12,1.15-.29,0,0,.21.07.32.08a.5.5,0,0,0,.24-.06s0-.11,0-.12l-.28,0a3.5,3.5,0,0,0,.24-.69c0-.1-.15-.24-.23-.36-.1.08-.24.13-.29.23s.05.67-.46.47c-.05,0-.07-.09-.1-.14.27-.09,0-.63.44-.57a.69.69,0,0,0,.05-.13l-.31-.13h0c0-.27.17-.31.39-.18l.52.34c.29,0,.14-.73.66-.4,0,0,0,0,0,0q.29-.58.54-1.17s0-.13-.06-.2,0,.16-.07.2a.52.52,0,0,1-.22.14l-.9.27a3,3,0,0,1,.54-.65c.36-.28-.2-.63.1-.83l.35.33a5.43,5.43,0,0,0,.17-.53s-.09-.13-.15-.15a.83.83,0,0,0-.27,0c.08-.07.15-.15.23-.21s.23-.18.35-.27.05,0,.05.06c-.12.42,0,.62.49.74.13,0,.19.29.29.44l.62-1,.09,0c0,.1,0,.22,0,.29a1.33,1.33,0,0,0,.26.27A1.31,1.31,0,0,0,25,4.36c0-.11,0-.25.07-.33s.18-.07.27-.09.07.2,0,.27c-.12.23-.39.41,0,.67.23.14,0,.42-.19.55s-.21.28.07.36c.09,0,.21.12.22.18.05.56.48.21.71.29s.22-.29.09-.42a.77.77,0,0,1-.08-.27l.24,0c.34-.08.85,0,1-.26s.58-.45.3-.91a2.47,2.47,0,0,1-.12-.93,2.9,2.9,0,0,0-.13.27,2.52,2.52,0,0,1,0,.48c0,.11-.15.2-.24.29s-.09-.06-.15-.09l.27-.29A.22.22,0,0,1,27.46,4a2.3,2.3,0,0,0-.32-.15s-.06.07-.07.11,0,.13,0,.14a.21.21,0,0,1-.17,0s-.07-.15,0-.19.24-.34.34-.52a.83.83,0,0,0,0-.32h0l0-.27h0a13.72,13.72,0,0,1,1,1c.1.11.07.36.07.55s0,.39-.08.59-.05.22-.08.33-.09.18-.08.19c.4.28-.23.82.27,1.07,0,0,0,.1,0,.12-.27.3,0,.37.32.51-.28,0-.44,0-.59.06a.74.74,0,0,0-.24.11l.2.19c.06.06.2.12.19.16,0,.22-.19.49.26.44,0,.07,0,.18-.07.23s-.3.26-.47.41a.72.72,0,0,1,0-.19c0-.11,0-.23,0-.35-.09.08-.24.14-.25.23,0,.3,0,.6-.05.9-.24,0-.25,0-.22.27,0,.07.12.14.18.2l0-.25.26.4c.09.12-.23.38.14.4l-.34.23c-.11,0-.22,0-.33.09s-.12.11-.18.16l.09.08.19-.18.23-.15c0,.11-.05.27,0,.31.33.24.13.35-.06.41.07.09.21.17.19.22-.15.6-.3,1.2-.51,1.79a2.23,2.23,0,0,1-.43.58l.15.21h-.4l-.69,0c0,.17.39.61-.26.48,0,0-.06.09-.05.11a.29.29,0,0,0,.14.13c.2.09.26.19,0,.28s-.46.11-.67.2-.16.19-.24.3c.38.18,0,.51.17.77.41-.43.71,0,1,.15-.09.27-.18.58-.29.88-.05.15-.09.39-.35.17,0,0-.16,0-.16.06a1,1,0,0,0,0,.29c-.21.15-.38.27-.54.41a1.61,1.61,0,0,0,.13.19s.07.1.1.09c.49-.08.44.17.3.48-.24.51-.47,1-.72,1.53a2.12,2.12,0,0,1-.34.4s-.09.08-.09.13a2.32,2.32,0,0,1-.49,1.32c-.11.2-.11.46-.21.66-.34.74-.7,1.47-1.06,2.19a1.09,1.09,0,0,1-.23.25c0,.05-.14.13-.13.14.29.4-.13.45-.28.65a1.77,1.77,0,0,0-.18.59c0,.15.11.42-.24.37h0c.07.31-.21.46-.32.68s0,.47-.16.54c-.4.24-.26.69-.46,1,0,.06-.1.16-.13.15-.37-.07-.31.25-.4.43l-.24.42-.11-.06.08-.33-.1-.05c-.1.16-.29.32-.3.5A3.88,3.88,0,0,1,18.58,33c-.07.09-.17.17-.25.26s-.11.17-.09.19c.23.23,0,.4-.09.56-.52,1.12-1.06,2.24-1.59,3.35-.17.35-.32.71-.48,1.07a.1.1,0,0,0,0,0,1.14,1.14,0,0,0-.39.16s.1.22.08.33a1.62,1.62,0,0,1-.19.4A7.88,7.88,0,0,1,14.8,41a4.65,4.65,0,0,0-.47,1.15c-.16.33-.4.63-.58,1-.06.13,0,.35-.1.42-.37.31-.31.77-.47,1.15s-.52,1-.76,1.53c-.09.19-.08.42-.16.61s-.32.66-.47,1-.28.7-.4,1.06c0,0,.16.18.21.16a4.69,4.69,0,0,0,.67-.27l0,.26a2.35,2.35,0,0,1,.79-.32c.33,0,.7.21.71-.23.31,0,.65.18.78.07.34-.3.65.07,1,0,0,0,.11,0,.15,0a1,1,0,0,1,.73,0,11.22,11.22,0,0,0,1.13.33c.07,0,.16,0,.25-.09a.74.74,0,0,1-.19-.16c-.15-.18-.28-.38-.42-.57a1.31,1.31,0,0,1,.39-.2c.6-.09,1.21-.19,1.67.36,0,0,.12.09.15.08L20,48l.46-.13a2.11,2.11,0,0,0,.5-.17c.15-.09.21-.41.47-.12a1.26,1.26,0,0,0,.34-.24c.42-.49,1-.29,1.5-.37.25,0,.57.16.75-.18a.21.21,0,0,1,.2,0c.33.24.64,0,1,0s.81-.22,1.23,0c.08,0,.21,0,.31,0s.51-.32.72.06c.05,0,.13-.06.14-.11.15-.4.47-.28.76-.28s.57-.09.85-.09.51-.25.68.14c0,.06.38,0,.58-.06a4,4,0,0,1,.67-.13,2,2,0,0,0,1-.2,4.55,4.55,0,0,1,1.24-.25c.36,0,.72-.06,1.09-.08.2,0,.44.08.59,0s.51,0,.76,0a4.54,4.54,0,0,1,.74.1c.09,0,.22.08.24.05.31-.38.73-.14,1.08-.21a7.22,7.22,0,0,0,.89-.31c.08,0,.23,0,.26,0,.13.25.25.2.4,0a.37.37,0,0,1,.15-.08c.28.51.49-.19.76-.05,0,0,.17-.18.25-.28-.28-.19.06-.49-.12-.71,0,0,.09-.12.11-.19a1.88,1.88,0,0,0,0-.33c0-.39,0-.78,0-1.17a4.55,4.55,0,0,1,0-.52c0-.17.14-.33.16-.51a5,5,0,0,0,0-.67c0-.06,0-.15,0-.16.59-.21.19-.53.09-.81,0,0,0-.09,0-.12.09-.48.17-1,.28-1.43,0-.15.22-.27,0-.44-.08,0,.09-.44.13-.69s0-.36,0-.54.07-.48.12-.72c0-.07.08-.19.06-.21-.26-.24.06-.45,0-.67a3.57,3.57,0,0,1,0-.46c0-.13-.1-.36.22-.32,0,0,.13-.24.16-.38a1.45,1.45,0,0,0,0-.36l.25-.29-.13-.08-.11.38-.14,0c0-.46,0-.93.05-1.39,0-.1,0-.07.12-.05s.14-.09.2-.14.19-.21.23-.2a1.14,1.14,0,0,1,.31.27s0,.15-.06.18l-.64.34a1.55,1.55,0,0,1,.18.15,3.88,3.88,0,0,1,.23.33l.28-.45.27.17c-.08.18-.15.37-.23.55s-.34.48,0,.72c0,0,0,.14,0,.18-.22.3,0,.35.22.4a3.47,3.47,0,0,0-.25.29.22.22,0,0,0,0,.21c.22.18.21.34-.08.5l.44.24-.15-1.24a.53.53,0,0,0,.47-.61c-.06-.41-.32-.78-.16-1.22,0,0-.08-.13-.12-.2l-.2.2a4,4,0,0,0,.19-.43c.05-.16.33-.33,0-.52a2.18,2.18,0,0,1,.09-.24,1,1,0,0,1,.13.18,1.41,1.41,0,0,1,0,.24c.07-.11.17-.19.16-.23-.11-.25.06-.22.21-.28a.76.76,0,0,0,.3-.29,2.5,2.5,0,0,0,.23-.39.49.49,0,0,0,.06-.17c-.47-.26-.12-.55,0-.82a2.74,2.74,0,0,0,.58-.25s0-.23,0-.43l-.54.69c-.19-.08-.32-.19-.17-.4.34-.46.68-.91,1-1.36,0-.05.15,0,.23-.07s.15-.05.15-.08c0-.23,0-.46,0-.69a1.55,1.55,0,0,1,0-.21c.06,0,.13,0,.16.05a.3.3,0,0,1,.06.21c-.09.22-.29.46.18.41,0,.32.64.26.47.72,0,.05.08.15.12.22l.19-.13c.28-.21.56-.43.85-.62,0,0,.14,0,.21,0s0,.17-.08.22-.36.38-.53.57,0,.14-.07.21c.35.11.2.36.18.59,0,0,.1.07.16.08a1,1,0,0,0,.24,0h0c0,.38,0,.76.07,1.13,0,0,.09.06.14.08l.42.15,0,.12A.21.21,0,0,1,48,31h-.36l.2.62s0,0,0,0c.38.06.38.06.36.46,0,0,0,.06,0,.1.38,0,.75-.09.76-.6a.84.84,0,0,0-.09-.23.85.85,0,0,0-.22.09,1.5,1.5,0,0,0-.2.24c0-.06-.12-.14-.1-.18s.11-.33.17-.33c.45,0,.06-.37.21-.49,0,0-.06,0-.09,0-.38,0-.35-.14-.12-.37s.58-.61.92-1c0,.59,0,1,0,1.45a5.68,5.68,0,0,1,.09,1.29,1.61,1.61,0,0,0,.51,1.58c.16.15.08.66-.05,1s-.2.25.09.35a.2.2,0,0,1,.09.17,3.59,3.59,0,0,1-.12.47l-.24.25.14.08.1-.33a.63.63,0,0,0,.19,0,.71.71,0,0,0,.18-.08c0,.06-.07.15,0,.19s-.47.35.07.33a.54.54,0,0,1,0,.22,1.38,1.38,0,0,0-.25.5c.07-.05.13-.12.2-.13a1.15,1.15,0,0,1,.31,0c0,.07-.07.18-.13.2-.39.13-.29.49-.33.75s.16.57.06.75c-.26.42.28.77,0,1.19a1.2,1.2,0,0,0,.24-.15.74.74,0,0,0,.13-.21c0,.08.11.18.09.26-.06.25-.16.5-.23.76,0,.07-.06.19,0,.22.33.29.35.39.26.84s-.16.69.23.92c-.06.12-.54.14-.09.4,0,0,0,.15-.09.16-.23.09-.23.08-.35.33l0,.51h.09l0-.43c.22-.1.33,0,.31.21s-.1.53-.14.8a.52.52,0,0,0,0,.17c0,.19,0,.38.07.57a1.41,1.41,0,0,0,.11.51c0,.07.27.06.4,0,.36,0,.71-.09,1.07-.12,0,0,.07.12.12.16s.22.19.26.17c.2-.14.27,0,.34.13s.16,0,.25,0l.43,0-.17.44c0,.24,0,.24.29.22l-.3-.22.64,0,.16.41.09-.14h0l.2-.29v0c.27-.19.49-.24.46.28.22-.48.28-.49.56-.16,0,.06.15.07.23.09s.18,0,.19,0,.08.24,0,.3a8.17,8.17,0,0,1-.64.79,1.08,1.08,0,0,1-.38.3,2.18,2.18,0,0,0-1,.48,1,1,0,0,0-.08.18.53.53,0,0,0,.18,0,1.83,1.83,0,0,1,.62-.27c-.11.13-.24.25-.34.38s0,.13,0,.2.09-.08.14-.09a4,4,0,0,1,.49,0,2.67,2.67,0,0,0,.48,0c.16,0,.29-.11.25.15l.52,0-.06.48c.12-.07.3-.23.34-.2.2.15.49.29.23.64a.47.47,0,0,0-.07.39c.06.1.24.14.37.19a1.43,1.43,0,0,0,.28.07,2.34,2.34,0,0,1-.15.27c0,.07-.12.13-.17.2s-.2.31-.3.46l.48.19c-.28,0-.56.27-.87,0s-1-.08-1.24.22a4.11,4.11,0,0,1-.39.54,4.17,4.17,0,0,1-.53.41v.15c.29.07.58.12.86.21.13,0,.32.13.33.21s0,.43-.27.49A2.17,2.17,0,0,0,55,54s0,.09,0,.13l.13,0,.47,0a.31.31,0,0,1,.12.05c-.33.57.46.24.38.6h-.89a.6.6,0,0,0-.88.18c.09.07.24.13.24.19s-.1.2-.18.29c-.37.46-.36-.16-.55-.2s-.44-.34-.67-.49c-.07,0-.19,0-.28,0s0,.1,0,.16a.65.65,0,0,1,.13,0,.2.2,0,0,1,.13.08c.18.31.46.27.74.23-.07.09-.14.23-.21.24-.36,0-.71,0-1.07,0a.14.14,0,0,0-.09.08.22.22,0,0,0,.08.13,9,9,0,0,1,.82.68c.06.07,0,.32-.08.48-.12,0-.33,0-.34-.09-.09-.37-.41-.22-.62-.31,0,.19,0,.38,0,.57s0,.11,0,.26l.1-.27s.12.08.11.11a.9.9,0,0,1-.08.23l-.13.18c.43.26-.08.22-.14.37l.48.12-.26.4.29.05a2.08,2.08,0,0,0-.16.71c0,.21.21.4.31.6a.12.12,0,0,1,0,.13c-.27.41.1.69.2,1,0,.06.08.15.06.17a.77.77,0,0,0-.05.89c.21.33,0,.58,0,.86s-.3.16-.42.28a1.13,1.13,0,0,0-.16.26.76.76,0,0,0,.25.06c.14,0,.39-.12.42-.07a1.1,1.1,0,0,1,.21.61A5.31,5.31,0,0,0,53.42,66a5.77,5.77,0,0,0,.07.79,1.77,1.77,0,0,1,0,.91l.39,0a2.39,2.39,0,0,0-.21.34.64.64,0,0,0-.08.33,4.76,4.76,0,0,0,.07.84c0,.11.19.21.2.32,0,.47,0,1,.05,1.43l-.05-.25-.13.1L54,71c-.09.32-.31.39-.61.3l.23-.17-.06,0C53.44,71.09,53.38,71.16,53.31,71.22ZM19.76,49.84l0,.23h.09l-.05-.22-.08-.21-.09.08Zm6-42.92-.39-.1V7l.39,0a2.17,2.17,0,0,0,.07-.24s-.08,0-.12-.06ZM54.58,47c-.17-.38-.3,0-.45-.06v.12l.46-.07c0,.74.25,0,.32,0ZM42.42,36.65l-.18.12.09.13.09-.17c.3-.26.32-.35.1-.45.09-.12.2-.25,0-.38,0,0-.09,0-.13,0s.05.25.08.38h0ZM22.08,7.86l.21-.48-.14,0-.06.53L22,8.23l.11,0C22.11,8.1,22.1,8,22.08,7.86ZM3.63,42.62c-.2-.07-.4-.12-.41.2l-.37.28c.26,0,.49.07.35-.3l.43-.18,0-.42H3.53ZM19.39,12.79l.13-.27h-.19l0,.24-.47.27,0,.07ZM39.73,49.38,40,49l-.2-.09c0,.16-.07.33-.1.49h-.31l0,.33.21-.27ZM3.14,54.62l-.3.28.54.07.07-.14-.33-.21.38-.21,0-.11-.45,0Zm2.7-3.09v-.36l-.13,0,.14.3a.45.45,0,0,0,.24.72C6,52,5.93,51.77,5.84,51.53ZM17,16c.42-.12.17-.48.24-.72-.05,0-.16,0-.16,0-.05.22-.09.44-.13.66,0,0,0,0,.05.07l-.35,0,.06.14Zm8.06,33.32c0,.12.09.23.12.34s0,.13,0,.2.13,0,.16,0,.08-.14.06-.18a3.42,3.42,0,0,0-.26-.4,2.18,2.18,0,0,0,.11-.44s-.21-.14-.23-.12a4.13,4.13,0,0,0-.31.42ZM51.2,48.8a1.09,1.09,0,0,0,0,.26s.09.13.13.13a.41.41,0,0,0,.18-.12s0-.1-.08-.13-.18-.08-.27-.13.1-.18.07-.25a2.81,2.81,0,0,0-.19-.39c-.13.08-.31.13-.36.25s.1.25.2.34S51.1,48.79,51.2,48.8ZM23.62,6c.21-.17.26-.36,0-.54a2.75,2.75,0,0,0-.41-.24c-.06.14-.28.38,0,.66Zm1.54,2.16.05.43.12,0c0-.15,0-.31,0-.47l0,0L25.1,7.4c-.43,0-.54.09-.54.61l.38-.21-.23.35ZM18.53,29.82c.51.32.8.32.95-.08a1.67,1.67,0,0,0-.12-1.44,2.88,2.88,0,0,0-.45.7C18.78,29.25,18.67,29.5,18.53,29.82Zm2.4,20.29-.12-.1c-.28.19-.27.19-.32-.16,0-.06-.14-.12-.22-.15a1.31,1.31,0,0,0-.27-.06,1.18,1.18,0,0,1,0,.26c0,.12,0,.3-.1.34s-.78-.14-.91-.35a1.94,1.94,0,0,0-.37-.33c0,.2,0,.54.09.58.54.23,1.12.4,1.68.59.06,0,.17,0,.19,0S20.82,50.3,20.93,50.11Zm-14-11.36a4.2,4.2,0,0,0-.44.33c-.21.21-.39.44-.59.66l.44.27a.2.2,0,0,0,.08,0l.29,0c0-.1.06-.24,0-.29s-.19,0-.29-.07l-.14-.11a1.47,1.47,0,0,1,.36-.17C7.16,39.36,7,39.05,6.93,38.75Zm37.83-3.42a.61.61,0,0,1,.07-.91A.45.45,0,0,0,45,34.1a.84.84,0,0,0-.08-.3c-.12,0-.3.05-.36.13a.47.47,0,0,0-.1.41c.13.25,0,.31-.16.42s-.22.37.12.44C44.5,35.23,44.63,35.29,44.76,35.33ZM20.31,28.59a.55.55,0,0,0,.42-.68c0-.13-.18-.23-.26-.36a1,1,0,0,1-.11-.25,1.42,1.42,0,0,0-.3.3.94.94,0,0,0-.07.34C20.39,28,20.2,28.37,20.31,28.59ZM6.4,38.52a.85.85,0,0,0,.3.17c.1,0,.25,0,.29-.12A4.85,4.85,0,0,0,7.28,38c-.12-.05-.3-.16-.33-.12C6.76,38,6.61,38.26,6.4,38.52ZM5.93,56.68c-.37.24-.63.39-.86.56s-.11.17-.16.25.2.1.27.07a2.81,2.81,0,0,0,.58-.39C5.85,57.08,5.86,56.91,5.93,56.68ZM39.57,48.4l.19.32a2.25,2.25,0,0,0,.24-.3.8.8,0,0,0,.13-.32,2,2,0,0,0-.05-.42c-.11,0-.27,0-.31.12A3.81,3.81,0,0,0,39.57,48.4ZM44,34a6.41,6.41,0,0,0,.81-.55c.1-.1.07-.34.1-.51h-.28l0,.43C44.1,33.36,44,33.5,44,34ZM45.6,77.31c0,.09,0,.13,0,.18s0,.2.05.3l-.07,0c0-.09-.05-.18-.08-.27s0-.07,0-.09-.12-.15-.18-.15-.14.08-.21.13l.15.18s.11.1.11.15c0,.34.28.1.37.22l.38-.46-.33-.15ZM24.16,48.6s0,0,0-.05-.18-.34-.24-.33-.4.13-.09.32a3.1,3.1,0,0,1-.27.34s-.15,0-.22,0c.08.08.15.22.24.24C23.89,49.22,24.16,49,24.16,48.6Zm20.93-19h0a.83.83,0,0,0,0-.27.39.39,0,0,0-.11-.22s-.11,0-.16,0a2.34,2.34,0,0,0,0,.26c0,.09.11.25.09.26-.24.16-.22.36-.12.59a.69.69,0,0,1,0,.29c.07,0,.16,0,.18-.07a.78.78,0,0,0,.09-.34A4.5,4.5,0,0,0,45.09,29.62ZM43.37,75.5h-.12c-.08.27-.18.54-.24.82,0,.05.11.16.19.19a1.14,1.14,0,0,0,.32,0ZM55.55,50.14l0-.08a1.07,1.07,0,0,0,.36.14,1.81,1.81,0,0,0,.42-.16c0-.08-.07-.2-.13-.22s-.2,0-.3,0a.86.86,0,0,1-.28,0,1.7,1.7,0,0,1-.24-.09,2,2,0,0,0-.08.33S55.48,50.12,55.55,50.14Zm-37.39,0L18.3,50a1.67,1.67,0,0,0-.36-.25.47.47,0,0,0-.28,0,2.88,2.88,0,0,0,0,.59c0,.06.16.09.24.13a.89.89,0,0,0,.07-.28,1.67,1.67,0,0,0-.08-.3l.12-.08ZM17.55,26.9l-.07-.1c-.26,0-.53.07-.79.12-.06,0-.14.16-.12.2s.19.25.21.24C17.05,27.22,17.29,27.06,17.55,26.9ZM1.42,53.56c-.19.41.27.9-.23,1.26.15,0,.29-.07.36-.16s.23-.33.2-.46A2.44,2.44,0,0,0,1.42,53.56Zm38-5.5-.3-.34a6.54,6.54,0,0,0-.41.51s.07.13.1.2Zm8.21-15.6c-.11.07-.29.12-.3.18a1.94,1.94,0,0,0,.05.59s.19,0,.29,0,0-.29,0-.43A2.4,2.4,0,0,1,47.6,32.46ZM39.24,55.91l-.12-1C38.78,55.29,38.79,55.4,39.24,55.91ZM23.14,6.2h-.08c-.06.23-.12.46-.17.69,0,.05,0,.15.07.16a.5.5,0,0,0,.21,0,.8.8,0,0,1,0-.15ZM1.6,52.63l.08.15a4.2,4.2,0,0,0-.5.17c-.06,0-.08.15-.12.24s.26,0,.3,0A3,3,0,0,0,1.6,52.63Zm21,4.3c-.12.35-.77.28-.45.87C22.3,57.52,22.75,57.47,22.59,56.93Zm15.72-8.45.16-.06-.14-.58L38,48Zm5.21,29.23.1-.06a1.71,1.71,0,0,0-.13-.23s-.09,0-.12,0-.12.1-.12.15a2.17,2.17,0,0,0,.08.43.41.41,0,0,0,.13.22s.16,0,.2-.08a.33.33,0,0,0,0-.22A1.74,1.74,0,0,0,43.52,77.71Zm9.16-12.47-.09,0c0,.23,0,.45,0,.67s.13.14.19.2.14-.18.13-.25S52.76,65.45,52.68,65.24ZM25,8.9c-.1.31-.17.53-.23.75,0,0,.09.14.12.14s.25-.08.25-.11A7.37,7.37,0,0,0,25,8.9ZM2.73,47a3.62,3.62,0,0,0-.16.51c0,.05.07.11.12.17.11-.14.22-.29.32-.44A2.76,2.76,0,0,0,2.73,47ZM20.3,20.87a3,3,0,0,0,.24-.45s-.09-.11-.14-.16a3.26,3.26,0,0,0-.29.36S20.18,20.73,20.3,20.87Zm-6.36,1.52-.13-.29c-.11.16-.22.31-.31.47s.14.12.21.17Zm41,24.85-.18.49.62-.12ZM43,70.64a1.93,1.93,0,0,0-.36-.23s-.12.09-.18.15l.35.32ZM17,14.84l.54-.3-.26-.39ZM54.77,54v-.1a2,2,0,0,0-.4-.12s-.11.13-.16.2a1.28,1.28,0,0,0,.32.09A.55.55,0,0,0,54.77,54ZM23.71,8.11a4.41,4.41,0,0,0-.29-.58s-.16-.06-.23,0-.12.13-.1.17.12.08.18.13ZM6.08,37.18C6,37.11,5.88,37,5.82,37a1.13,1.13,0,0,0-.31.19c.07.08.17.25.2.24A1.48,1.48,0,0,0,6.08,37.18ZM22.14,48.71l.08.74.15,0-.09-.65ZM17.36,25.76v-.11c-.14,0-.29-.13-.41-.09s-.14.22-.26.42ZM25.9,7.56l-.18-.17c-.11.15-.21.3-.31.46s0,.06.06.1Zm19.77,21c-.14-.08-.22-.15-.25-.13a4,4,0,0,0-.34.22c.05.05.11.13.14.12A3.26,3.26,0,0,0,45.67,28.59ZM13.24,41l.37-.25c-.09-.07-.17-.19-.26-.2a.34.34,0,0,0-.24.19C13.09,40.78,13.19,40.88,13.24,41Zm7.27,7.92.07.14a1.66,1.66,0,0,0,.39-.15s0-.2-.07-.3Zm13.72,6.19h.21a4.47,4.47,0,0,0,0-.52s-.13,0-.2,0Zm14.15,24.3c-.1.14-.2.23-.19.28s.13.17.2.25c.07-.08.19-.15.2-.23S48.48,79.53,48.38,79.39ZM31.93,55.61c.08-.09.18-.17.17-.2a1.17,1.17,0,0,0-.21-.24l-.23.25ZM19.13,49c-.12-.06-.19-.13-.24-.12a1.83,1.83,0,0,0-.26.16c.06.08.15.22.19.21S19,49.13,19.13,49ZM43,34.73l.15.13.44-.51-.13-.12Zm.46,43.74-.15,0c0,.15.06.31.1.46s.12,0,.18,0Zm-5.6-29-.32-.21a.92.92,0,0,0-.08.27c0,.06.11.16.13.15A1.1,1.1,0,0,0,37.83,49.46ZM26.75,9.06l.1.13.43-.31-.11-.15ZM51.82,47.58l-.16,0c0,.15,0,.29,0,.44s.08.06.13.09Zm2.91,3.8-.19.15a3.25,3.25,0,0,0,.23.29s.12-.07.18-.11ZM40.9,70.82h.15L41,70.2h-.1ZM27.07,12,27,12l-.12.38.11,0Zm-8.3,16.54-.15,0-.11.39.14,0C18.7,28.79,18.73,28.66,18.77,28.53ZM1.88,47.62l.16.06a3.5,3.5,0,0,0,.07-.45L2,47.2Zm9.32,3.54L11.12,51l-.37.31Zm13.38-.26c-.13-.1-.19-.19-.25-.19s-.16.09-.24.14.1.13.16.14A1,1,0,0,0,24.58,50.9Zm-1.5-2.13.14,0,.1-.33a.73.73,0,0,0-.18,0A3.23,3.23,0,0,0,23.08,48.77ZM11.77,24.13l-.14.05.14.5.16-.05Zm6.24,25,.36-.24c-.06,0-.13-.14-.18-.13a.64.64,0,0,0-.26.18S18,49.07,18,49.13ZM44.06,31.82c-.12-.07-.22-.16-.25-.14a.41.41,0,0,0-.15.23s.07.1.1.16ZM26.47,49l-.14,0-.09.46a.45.45,0,0,0,.14,0C26.42,49.23,26.44,49.09,26.47,49ZM24.39,5.13,24.32,5,24,5.25l.09.12Zm.16.32h-.11V6l.16,0C24.59,5.78,24.57,5.61,24.55,5.45Zm2.62,51.81v-.37l-.32.07ZM19.86,20.15l-.13-.09-.29.36.13.09ZM44.58,35.66l-.28-.16s-.07.12,0,.16a.29.29,0,0,0,.14.13S44.49,35.73,44.58,35.66Zm7.49,23.76L52,59.3c-.06.12-.13.24-.18.36s0,.08.08.12Zm-43.9-23,.1-.15L8,36.12c0,.05-.07.12,0,.14A1.12,1.12,0,0,0,8.17,36.44Zm-4,9.32c0-.06.09-.12.08-.15a.22.22,0,0,0-.14-.11s-.08.07-.13.12Zm38.15-7.34.14,0,.08-.38-.13,0ZM17.08,15.1a1.58,1.58,0,0,0-.24-.13.8.8,0,0,0-.15.21s.08.08.11.07A1.31,1.31,0,0,0,17.08,15.1ZM51.89,48.33l-.09,0c0,.11-.11.22-.16.34l.14.08ZM45.77,29.16c-.1-.07-.14-.11-.17-.11s-.18.08-.27.12a1.11,1.11,0,0,0,.07.13ZM18,26.48l-.27-.24s-.09.09-.08.12a.39.39,0,0,0,.11.21S17.88,26.52,18,26.48ZM41.07,69.09c-.08.09-.17.15-.17.21s.09.11.13.17a.87.87,0,0,0,.15-.2S41.13,69.17,41.07,69.09ZM53,66.52h-.14l0,.43H53ZM20.64,9.38l.06.14.39-.22L21,9.21ZM45.73,29.87c.08-.08.15-.11.16-.16s0-.08,0-.13-.1.05-.12.09S45.72,29.77,45.73,29.87ZM50.78,80.5h-.09l0,.36h.16ZM7.9,56.84v-.13H7.52v.1ZM24.79,6.75l.11.1.21-.24-.06-.06ZM1.31,51.54l.31.29,0,0Zm2.51.64-.1,0-.19.31.15.09ZM47.06,32.05a1,1,0,0,0,.24.13s.1-.08.09-.1a.75.75,0,0,0-.13-.18Zm-4.82,38v.11l.34,0,0-.15ZM3.31,53.47l-.07-.11-.31.2.07.11ZM20,55.5c-.09,0-.15-.09-.18-.07a1.14,1.14,0,0,0-.17.15,1.08,1.08,0,0,0,.11.11A2.12,2.12,0,0,0,20,55.5ZM53,71.45l-.11,0-.09.31.12,0ZM50.78,44.11,50.7,44c-.06.07-.13.13-.18.2s0,.06.07.09ZM13.32,57.76l0-.09-.48,0,0,.12ZM4.38,40.47H4.27v.36l.1,0C4.38,40.7,4.38,40.59,4.38,40.47ZM19.59,27.8c-.06.11-.12.16-.12.23s.07.07.11.11.09-.08.09-.11A.9.9,0,0,0,19.59,27.8ZM42.33,65.65c-.11-.05-.17-.1-.21-.09s-.1.09-.15.13.11.09.16.09S42.23,65.72,42.33,65.65ZM29.61,56.36c0,.07-.09.14-.07.17s.09.11.14.16.1-.12.1-.18S29.7,56.43,29.61,56.36Zm-20.12-26-.07-.13-.3.18.05.1ZM11,27.85l0,0-.27.21.14.13Zm5.77-2.08a1,1,0,0,0-.22-.12.37.37,0,0,0-.14.07c0,.05.07.13.12.14S16.6,25.82,16.72,25.77ZM42.5,37.12c-.11,0-.17-.1-.21-.08a.7.7,0,0,0-.16.14s.09.07.13.06A1.28,1.28,0,0,0,42.5,37.12Zm-.94,4.81a.86.86,0,0,0-.21-.11s-.07.06-.11.1l.2.15Zm-16.68,8.7v.13l.31-.07v-.08ZM24,6.18h-.11a2.91,2.91,0,0,0,0,.31h.12ZM51.41,47c0,.06-.1.1-.09.12a.75.75,0,0,0,.1.17l.16-.11Zm-31,4.22a.58.58,0,0,0-.06.17s.09.06.09.06a.29.29,0,0,0,.08-.14Zm-16.45,0-.17.14a.34.34,0,0,0,.15.07s.08-.06.1-.11S3.94,51.21,3.91,51.17ZM56.53,49.4l-.09-.09-.19.21.09.07ZM21.92,57.17c-.1-.06-.15-.1-.2-.1s-.07.06-.1.09.08.08.12.09S21.83,57.21,21.92,57.17ZM35.56,56c-.06.06-.11.09-.12.13s.05.09.07.14l.16-.11ZM17,49.15l-.14.15.19.24.18-.17ZM44.25,31.21a2.35,2.35,0,0,0-.15.26s.08.08.12.08.09-.06.11-.1S44.3,31.37,44.25,31.21Zm7.26,26.23.09-.06L51.47,57l-.09,0ZM43.77,33.86h-.05l0,.3h.06ZM25.39,6.39l-.12-.16s-.11.08-.1.1a2.12,2.12,0,0,0,.12.2ZM23.49,13c0,.07,0,.12-.06.17s.05.06.08.08.07-.1.1-.16ZM17.66,57.59l.14-.13a.32.32,0,0,0-.14,0s-.06.06-.09.09Zm-14-3.66-.13-.06-.07.33.08,0Zm40.45-17.2c.15.05.2.09.22.07a.53.53,0,0,0,.15-.11ZM17.61,17.51l.09.07.21-.3-.1-.06Zm8.22-8.74-.07,0s-.06.07-.06.11a1.25,1.25,0,0,0,0,.19Zm-.26,8.33.08,0,.17-.3-.11,0Zm26.1,41.3h.09l0-.39h-.07ZM2.25,44.88l.13,0s0,0,0-.06l-.12,0S2.27,44.85,2.25,44.88ZM22.11,8.64l.07,0,.15-.26-.1,0Zm28.83,73-.11-.15a.35.35,0,0,0-.08.13s.06.08.1.09S50.91,81.64,50.94,81.61ZM12.43,51.44l-.11-.14s-.1.06-.12.11.05.1.08.1A.34.34,0,0,0,12.43,51.44Zm7.09-21.25c.1-.1.16-.14.18-.2s0-.09-.06-.13a.44.44,0,0,0-.14.13S19.5,30.07,19.52,30.19ZM48,77.31v.07s.09,0,.12,0a.66.66,0,0,0,.15-.14Zm-2.08-.39,0-.06s-.09,0-.1.07a1.09,1.09,0,0,0,0,.18ZM45.36,34.1l.1.12a.3.3,0,0,0,.11-.07.37.37,0,0,0,0-.15ZM40.14,67.81l.08,0s.08-.06.08-.1a.61.61,0,0,0,0-.18ZM42.37,38.6s-.07.07-.07.1.05.06.08.1.08-.06.08-.09S42.41,38.65,42.37,38.6ZM10.69,40c0,.06-.12.11-.11.14s.07.11.1.16.11-.07.11-.09A.77.77,0,0,0,10.69,40Zm-5.77.23c0,.06-.09.11-.08.14s.06.1.1.1a.17.17,0,0,0,.11-.09S5,40.28,4.92,40.21Zm19.93,8.14a1.34,1.34,0,0,0-.11.14s.05.07.06.06a.91.91,0,0,0,.16-.11ZM5.66,40.8l.09.08.2-.27-.08-.06Zm50,6v.05l.21.09,0-.11Zm-4.87-2.09a.63.63,0,0,0-.15-.1s-.07.06-.07.09a.28.28,0,0,0,.07.13Zm1.3,1.38.12.06a.15.15,0,0,0,0-.06.33.33,0,0,0-.06-.1ZM9.69,28.26l.16-.1-.06-.09a.31.31,0,0,0-.09.07S9.7,28.21,9.69,28.26ZM26.9,5.91l0-.08s-.07,0-.09.09l.06.08ZM17.32,57.62l-.1-.14a1.21,1.21,0,0,0-.1.14s0,.08.06.08A.53.53,0,0,0,17.32,57.62ZM42.2,41.83a.37.37,0,0,0-.06.1s0,0,0,.06a.47.47,0,0,0,.06-.09S42.22,41.86,42.2,41.83ZM.78,49l.07-.1-.09-.05L.7,49Zm41.59-8.58c-.06,0-.08-.08-.11-.08a1,1,0,0,0-.17,0s0,.12.09.13S42.28,40.48,42.37,40.44ZM32.1,48.93s-.07-.11-.09-.11a1,1,0,0,0-.15.07s0,.1.07.1A.5.5,0,0,0,32.1,48.93Zm-6.31.21L25.9,49s-.06,0-.07,0a.52.52,0,0,0-.1.11ZM16.51,16.55s.07-.08.07-.11,0-.06-.08-.09-.08.06-.08.09S16.47,16.5,16.51,16.55ZM39,49s.06.09.1.1.06,0,.1-.05A.48.48,0,0,0,39.1,49S39,49,39,49ZM50.08,37.37s.06-.08.06-.11,0,0-.08-.08-.08.06-.07.08S50,37.32,50.08,37.37Zm-25.53-19a2.73,2.73,0,0,0,.11-.26s0-.07,0-.11-.1.05-.11.09S24.53,18.23,24.55,18.41ZM51.83,61c0-.06-.09-.12-.11-.12l-.15.08s0,.08.07.08A.81.81,0,0,0,51.83,61ZM20.39,11a.53.53,0,0,0-.14-.08s-.06.05-.06.07a.13.13,0,0,0,.07.09S20.32,11,20.39,11ZM43.16,35.88l-.06-.13s-.1.07-.12.11S43,36,43,36ZM42,34.81l.05,0,0,0,0-.05Zm.3,32.48s-.09.06-.1.09,0,.08,0,.11a.32.32,0,0,0,.12-.08S42.3,67.34,42.28,67.29ZM52.83,49.35a.46.46,0,0,0,.09.12s.06,0,.09-.06a.26.26,0,0,0-.07-.1S52.88,49.33,52.83,49.35Zm.43,19.43c-.07,0-.11-.09-.15-.09s-.08,0-.11,0l.14.13S53.2,68.82,53.26,68.78ZM21,18.76l.08,0,.1-.25-.08,0ZM53.79,49.44a.41.41,0,0,0-.18,0,.29.29,0,0,0-.11.11s.06.08.09.11Zm-.32,21.17s0,.07,0,.11,0,0,0,0l.07-.12ZM44.19,32.83c-.07,0-.11-.08-.14-.07s-.07.06-.09.1,0,.07.06.1ZM20.77,10.59s-.07.08-.07.11,0,.06.07.09.06-.06.07-.09S20.8,10.63,20.77,10.59Zm6,40.32,0,.05a.39.39,0,0,0,.1.08l0,0ZM54,54.82a1.14,1.14,0,0,0,.11-.11s0-.08-.06-.08l-.17.11ZM13.24,21.94l-.05,0,.14.17.05,0Zm-.57.9-.08-.06a.56.56,0,0,0,0,.12s0,.05.06.08Zm32.9,56.05c.06-.07.1-.1.1-.13a.23.23,0,0,0-.07-.1s-.09,0-.08,0A.71.71,0,0,0,45.57,78.89Zm-3.38,0a1,1,0,0,0-.15-.09s-.06,0-.1.06a.63.63,0,0,0,.12.11Zm3.93-47.55a.76.76,0,0,0,0,.16s0,.05.06.07.06-.06,0-.09S46.19,31.39,46.12,31.31ZM13.34,23.09l-.1-.07s0,.06,0,.07a.27.27,0,0,0,.08.07ZM52.51,80.18s-.1-.09-.12-.08a.41.41,0,0,0-.13.1s.08.09.1.09S52.45,80.23,52.51,80.18ZM5,56.65a.74.74,0,0,0,.15.08s.05,0,.08-.07l-.11-.12ZM44.56,80.86l.12,0s0,0,0,0a.07.07,0,0,0-.07,0S44.56,80.83,44.56,80.86ZM30.87,56.43a.87.87,0,0,0,.07-.17s-.07-.09-.08-.09-.11.07-.12.11S30.8,56.36,30.87,56.43Zm-19.4-4.81c-.05-.06-.08-.1-.11-.11s-.08,0-.12,0a.39.39,0,0,0,.1.08A.52.52,0,0,0,11.47,51.62ZM26.55,9.76l.08-.16a.15.15,0,0,0-.05-.06l-.14.08ZM5.78,53l0-.06s0-.05-.07-.07,0,0,0,.08S5.76,53,5.78,53ZM5,53.9,5.1,54l.12-.2-.07,0A1.74,1.74,0,0,0,5,53.9ZM12.4,27.5l0-.08a.39.39,0,0,0-.11.06s0,.06,0,.06ZM55.18,54.39l-.07,0s0,0,0,.06l.07,0S55.19,54.42,55.18,54.39ZM18.39,27.9c-.05,0-.09-.07-.11-.07a.14.14,0,0,0-.09.09s0,.06,0,.1ZM4.73,55.28l-.11-.09-.09.17s.07,0,.09,0A.65.65,0,0,0,4.73,55.28ZM45.59,28.21l.16.06s0,0,.06-.05l-.15-.08S45.63,28.17,45.59,28.21Z" class="cls-1"/><path d="M27.24,3.11c-.12.13-.25.25-.37.37l-.9.86-.25-.56a1,1,0,0,1,.24,0c.34,0,.45,0,.22-.35-.06-.08,0-.23,0-.35l.13,0c-.06.34.23.13.26.17.29.28.44-.34.69-.07Z" class="cls-1"/><path d="M25.28.7l.5-.7c.15.21.39.4.44.63s-.24.46-.37.46S25.49.86,25.28.7ZM26,.63,26,.49l-.31.22a.61.61,0,0,0,.07.1Z" class="cls-1"/><path d="M48.22,28.4c.15.14.36.25.35.35a.9.9,0,0,1-.27.44s-.14,0-.21,0-.05,0-.08,0l-.35-.21Z" class="cls-1"/><path d="M57.1,54.92c-.49,0-.49-.28-.5-.54,0-.07.19-.21.2-.2a3.86,3.86,0,0,1,.51.48A2.92,2.92,0,0,1,57.1,54.92Z" class="cls-1"/><path d="M18.92,11.23c-.08.1-.16.19-.23.29l-.2.26c-.06,0-.16-.09-.17-.15a.47.47,0,0,1,.07-.28,2.89,2.89,0,0,1,.33-.5c.16-.17.26-.1.27.11l0,0C18.68,11,18.89,11.12,18.92,11.23Z" class="cls-1"/><path d="M43.4,29.67c0,.29-.07.61-.12.93a1.12,1.12,0,0,1-.16.28,1.43,1.43,0,0,1-.09-.27c0-.08,0-.17,0-.25C43,29.84,43,29.84,43.4,29.67Z" class="cls-1"/><path d="M42,30.93l.11-.83h0c0,.42.09.84.11,1.26a2.06,2.06,0,0,1-.39.09h0Z" class="cls-1"/><path d="M18.42,12.7l0,.05v.07c-.29-.08-.6-.21-.54.32l0,0c-.07-.06-.21-.16-.19-.2.11-.29.24-.57.4-.91C18.39,12.28,17.94,12.65,18.42,12.7Z" class="cls-1"/><path d="M41.87,31.46c-.28.21-.3.2-.34-.07,0-.07,0-.17,0-.22-.28-.3-.14-.48.1-.58l.33.46h-.36l.3.42Z" class="cls-1"/><path d="M13.73,58.15c0,.11,0,.25-.1.32a.43.43,0,0,1-.32.08s-.05-.17-.09-.26-.08-.16-.12-.24v0l.64.09Z" class="cls-1"/><path d="M25.75,2.31c-.11-.26-.18-.41-.23-.56a.18.18,0,0,1,0-.16,1,1,0,0,1,.25-.15s.11.1.1.14C25.86,1.8,25.8,2,25.75,2.31Z" class="cls-1"/><path d="M44.81,27.44a6.74,6.74,0,0,1-.17.75s-.16,0-.25.06a.58.58,0,0,1,0-.23c.09-.21.2-.4.3-.6Z" class="cls-1"/><path d="M11.09,58.12l-.13.6-.13,0-.27-.59.54,0Z" class="cls-1"/><path d="M46.65,25.43c-.11-.22-.21-.33-.21-.45s.1-.19.17-.29a2,2,0,0,1,.25.35C46.88,25.11,46.77,25.23,46.65,25.43Z" class="cls-1"/><path d="M25,2.06c.07.16.17.27.15.34a.43.43,0,0,1-.25.26c-.05,0-.16-.12-.24-.19Z" class="cls-1"/><path d="M46.78,25.62l.29.86,0,.07c-.08-.09-.22-.17-.25-.28A3.6,3.6,0,0,1,46.78,25.62Z" class="cls-1"/><path d="M44.22,27.23c.24-.17.09-.18-.08-.22a.62.62,0,0,1-.26-.17s0-.1,0-.16.23.06.3.14a2.1,2.1,0,0,1,.31.41h-.31Z" class="cls-1"/><path d="M46,25.33c-.09-.13-.21-.21-.21-.29a1.36,1.36,0,0,1,.13-.42,4,4,0,0,1,.23.46C46.18,25.13,46.09,25.21,46,25.33Z" class="cls-1"/><path d="M55.12,54.88c0,.07.09.14.08.2a.76.76,0,0,1-.14.3s-.16,0-.25,0a.83.83,0,0,1,.07-.32c0-.08.16-.11.25-.17Z" class="cls-1"/><path d="M25.51,2.77l.3.48-.48.18Z" class="cls-1"/><path d="M19.68,9.54a1,1,0,0,1-.22.23.78.78,0,0,1-.3.07s-.09-.06-.13-.08a1.67,1.67,0,0,0,.23-.12.65.65,0,0,0,.17-.16,3,3,0,0,0,.18-.3l.07.37Z" class="cls-1"/><path d="M45.74,26.31c-.08-.07-.1-.08-.1-.09,0-.23.1-.46.16-.7l.1,0Z" class="cls-1"/><path d="M46.83,27.73c.05-.17.09-.33.15-.49a.66.66,0,0,1,.17-.16c0,.06.07.13.06.19C47.18,27.53,47.12,27.77,46.83,27.73Z" class="cls-1"/><path d="M42.82,28.05l-.44.31s-.08-.05-.12-.08.22-.28.34-.41Z" class="cls-1"/><path d="M43.47,28.38l-.28.16c0-.08-.12-.15-.12-.24s.08-.12.13-.18Z" class="cls-1"/><path d="M1.57,57.06c.06.2.13.39.18.59a.5.5,0,0,1-.19.08s-.09-.07-.09-.1c0-.19.07-.39.11-.58Z" class="cls-1"/><path d="M48.51,81.61v.57s-.15,0-.15-.07a4.36,4.36,0,0,1,0-.51Z" class="cls-1"/><path d="M20.08,8.59c0,.09,0,.19,0,.29h0L19.64,9,19.56,9,20,8.51Z" class="cls-1"/><path d="M21.1,57.46v-.11h.19v0a.78.78,0,0,0,.11.2c.05.09.19.2.17.25s-.24.17-.37,0h0C21.55,57.6,21.08,57.58,21.1,57.46Z" class="cls-1"/><path d="M32.19,57.07l.18-.44.16.13a2.43,2.43,0,0,1-.3.26S32.1,57,32,57Z" class="cls-1"/><path d="M9.29,58c0,.11,0,.27-.12.31a.89.89,0,0,1-.4,0l.17-.24h0L9.3,58Z" class="cls-1"/><path d="M43.49,29.22l-.17.24a2.55,2.55,0,0,1-.13-.39s.1-.07.15-.11Z" class="cls-1"/><path d="M5,38.39h.45s0,.15,0,.15a2.73,2.73,0,0,1-.4.05Z" class="cls-1"/><path d="M14,19.9l.46.15c0,.05-.07.13-.09.13L14,20.07Z" class="cls-1"/><path d="M48.54,82.89l-.3.19a2,2,0,0,0-.21.2s-.06,0-.05-.06a1.22,1.22,0,0,1,.23-.27,1.14,1.14,0,0,1,.33-.06Z" class="cls-1"/><path d="M14.36,19.33l.46.09-.31.37Z" class="cls-1"/><path d="M50.32,35.12a.7.7,0,0,1,0-.25,1.34,1.34,0,0,1,.22-.31s.1,0,.1,0a1.75,1.75,0,0,1-.12.32,1,1,0,0,1-.13.23Z" class="cls-1"/><path d="M48.69,83.46l.24-.21c0,.06.1.14.08.17a2.51,2.51,0,0,1-.26.31Z" class="cls-1"/><path d="M56.23,52.13l-.43,0a1.7,1.7,0,0,1,.07-.23,2.32,2.32,0,0,1,.38.05Z" class="cls-1"/><path d="M20.08,8.59,20,8.51l.23-.29.12.16Z" class="cls-1"/><path d="M21.81,4.52l-.37.23-.06-.09.32-.27Z" class="cls-1"/><path d="M8.08,58.24h.1l-.25.5-.14-.1Z" class="cls-1"/><path d="M9.9,58.9c0-.17-.08-.25-.06-.29a1.21,1.21,0,0,1,.2-.19s.07.11.06.15A2.16,2.16,0,0,1,9.9,58.9Z" class="cls-1"/><path d="M.19,50.69a.19.19,0,0,1,0,.08c0,.1,0,.2,0,.3L0,51,.2,50.7Z" class="cls-1"/><path d="M24.86,3.22l-.33.34-.09-.07.3-.37Z" class="cls-1"/><path d="M6.62,58.37l-.43.22-.05-.09.43-.25Z" class="cls-1"/><path d="M14.45,20.43l-.26.24s-.09-.1-.08-.12a.91.91,0,0,1,.18-.21S14.38,20.39,14.45,20.43Z" class="cls-1"/><path d="M41.06,29.67l.16.36s-.1,0-.11,0-.12-.22-.18-.32Z" class="cls-1"/><path d="M57.34,47.73l-.15.41-.13,0,.15-.41Z" class="cls-1"/><path d="M56.51,52.49l.35,0v.11l-.35,0Z" class="cls-1"/><path d="M26.39,15.2l.2-.13c0,.06.08.16.05.19a.66.66,0,0,1-.22.12l0-.18Z" class="cls-1"/><path d="M41.54,29.72l.29-.33.11.09-.3.33Z" class="cls-1"/><path d="M27.42.79c-.08.09-.14.19-.22.28L27.09,1,27.3.68Z" class="cls-1"/><path d="M15.23,58.28l-.17.19a1.06,1.06,0,0,1-.16-.21s.08-.11.11-.11A.66.66,0,0,1,15.23,58.28Z" class="cls-1"/><path d="M24.26,57.51c-.05.06-.09.15-.15.17s-.14,0-.22-.07h0l.37-.1Z" class="cls-1"/><path d="M48.57,29.81l-.14.32-.11-.05.12-.33Z" class="cls-1"/><path d="M19.29,10.08l-.19.32-.1-.06.18-.33Z" class="cls-1"/><path d="M26.69,1.86c-.12.06-.18.11-.24.1s-.1-.07-.16-.11.09-.14.13-.13S26.56,1.79,26.69,1.86Z" class="cls-1"/><path d="M20.33,7.34v.51h-.08V7.34Z" class="cls-1"/><path d="M54.67,46.45l-.07-.54.11,0,.15.31v0l-.2.29Z" class="cls-1"/><path d="M20.85,7.13c-.07,0-.16,0-.2-.06a.35.35,0,0,1-.1-.2s.08-.06.12-.09l.11.19a1.11,1.11,0,0,1,.07.16Z" class="cls-1"/><path d="M19.68,9.55l.38-.19,0,.15-.41,0Z" class="cls-1"/><path d="M47.54,29.53a1.13,1.13,0,0,1,0-.18c0-.05,0-.13.05-.15s.11,0,.16,0l-.09.15-.1.14Z" class="cls-1"/><path d="M26.64,15c0-.06-.08-.1-.07-.14s.06-.06.1-.1a1.09,1.09,0,0,1,.08.15A.82.82,0,0,1,26.64,15Z" class="cls-1"/><path d="M9,58.68c-.09,0-.17.1-.19.09a1.3,1.3,0,0,1-.15-.18c.05,0,.11-.06.15-.05S8.93,58.62,9,58.68Z" class="cls-1"/><path d="M21.4,6.85V6.53l.15,0a1.47,1.47,0,0,1-.05.29Z" class="cls-1"/><path d="M4.51,38.18c.06.06.12.11.12.14a.56.56,0,0,1-.09.17s-.12-.06-.12-.09A.59.59,0,0,1,4.51,38.18Z" class="cls-1"/><path d="M9.11,28.55,9,28.74h-.1L9,28.41Z" class="cls-1"/><path d="M27.23,2.85a2.69,2.69,0,0,1,.16-.29s.07,0,.1,0l-.26.28Z" class="cls-1"/><path d="M1.58,57.05l-.26.05,0-.2.29.07h0a.34.34,0,0,0,0,.1Z" class="cls-1"/><path d="M57.71,54.88l.15.07s-.06.09-.07.09l-.18-.1Z" class="cls-1"/><path d="M48,82.76l-.15-.25s.07,0,.07,0a2,2,0,0,1,.17.23Z" class="cls-1"/><path d="M52.16,81.75c0,.07-.09.14-.15.21s-.06,0-.1-.06l.18-.21Z" class="cls-1"/><path d="M28,2.84c-.1.06-.15.11-.19.11s-.08-.05-.13-.08.08-.08.13-.09A1.18,1.18,0,0,1,28,2.84Z" class="cls-1"/><path d="M28.09,9.17c-.08.06-.11.11-.16.12s-.08,0-.11-.07.05-.1.09-.11S28,9.14,28.09,9.17Z" class="cls-1"/><path d="M20.23,57.83l.35,0,0,.13-.3-.17Z" class="cls-1"/><path d="M19,58s.09.09.08.1a.32.32,0,0,1-.1.1s-.06-.06,0-.09S19,58,19,58Z" class="cls-1"/><path d="M3.34,40.67l-.1.3s0-.11,0-.14a.48.48,0,0,1,.13-.16Z" class="cls-1"/><path d="M48.54,82.89v.46h-.11l.11-.45Z" class="cls-1"/><path d="M44.22,27.23h0l-.09.19-.07-.08Z" class="cls-1"/><path d="M26.45,1,26.37.74h0l.11.24Z" class="cls-1"/><path d="M55.14,52.75l.18-.09s.06.07,0,.08-.06.08-.09.08S55.21,52.79,55.14,52.75Z" class="cls-1"/><path d="M44,81.45s0-.07,0-.09.08-.06.11-.09,0,0,0,.08a1.19,1.19,0,0,1-.09.15Z" class="cls-1"/><path d="M43.22,81.44l-.11-.09.11-.11s.06.06.07.1S43.25,81.4,43.22,81.44Z" class="cls-1"/><path d="M23.59,3.62l-.1-.09.11-.1s0,0,.07,0Z" class="cls-1"/><path d="M24.31,3.91l-.11.24-.06,0,.07-.25Z" class="cls-1"/><path d="M22.44,6.61c-.1,0-.14,0-.16,0a.49.49,0,0,1-.13-.12s.08,0,.11,0S22.34,6.54,22.44,6.61Z" class="cls-1"/><path d="M18.74,58.07l0,.24s-.07-.07-.06-.1a1.19,1.19,0,0,1,.09-.15Z" class="cls-1"/><path d="M14.42,58l-.08.39-.11,0,.19-.35Z" class="cls-1"/><path d="M29.51,57l-.09.29-.2-.16.3-.11Z" class="cls-1"/><path d="M2.18,57.4l0,.08s-.09,0-.1,0,0-.07,0-.1Z" class="cls-1"/><path d="M1.23,45.8c0,.05.07.09.06.11a.36.36,0,0,1-.11.1s0-.08,0-.11S1.19,45.84,1.23,45.8Z" class="cls-1"/><path d="M23.34,57.78V58l-.19-.17.21,0Z" class="cls-1"/><path d="M26.4,15.2h-.3l0-.09.27.09Z" class="cls-1"/><path d="M17.22,13.53l-.15.11s-.05-.07,0-.1a.16.16,0,0,1,.09-.09Z" class="cls-1"/><path d="M14.76,18.13a2.44,2.44,0,0,0-.1.24l-.08,0,.19-.2Z" class="cls-1"/><path d="M26.65,4.05c0,.08.06.11.06.14a.6.6,0,0,1-.06.11s-.09,0-.09-.07A1.46,1.46,0,0,1,26.65,4.05Z" class="cls-1"/><path d="M42.15,30.1,42,30v0l.16.16Z" class="cls-1"/><path d="M43.38,80.34l.21.1-.06.09-.14-.2Z" class="cls-1"/><path d="M46,26.91s-.08.06-.1.06-.08-.07-.07-.08a.43.43,0,0,1,.09-.1Z" class="cls-1"/><path d="M42.81,81.7l-.05.11a.58.58,0,0,1-.12-.1s0-.07,0-.1Z" class="cls-1"/><path d="M49.76,82.62l0,.07-.07-.09.05,0Z" class="cls-1"/><path d="M23.27,5.87c.19-.18.26,0,.35.12Z" class="cls-1"/><path d="M19.16,29.07l0,.39-.08,0c0-.12-.06-.23-.09-.35Z" class="cls-1"/></g></g></svg>