<svg xmlns="http://www.w3.org/2000/svg" viewBox="0 0 61.27 76.88"><defs><style>.cls-1{fill:#2d2c86;}</style></defs><title>xxiv-six-lustrumweek</title><g id="Layer_2" data-name="Layer 2"><g id="Layer_3" data-name="Layer 3"><path d="M27,7.73a2.14,2.14,0,0,1-.57-.45c-.07-.09,0-.36.14-.48s.22-.22,0-.48,0-.58,0-.88c0,0,.07,0,.11,0v.22h.09a1.87,1.87,0,0,1,0-.41c.05-.2,0-.49.29-.54h0l.44-.43h0l.23.38.09-.11.2-.26c.28-.47.26-.56-.13-.63.06-.15.13-.29.15-.35.31,0,.69.14.82,0a2.39,2.39,0,0,0,.35-.88c-.16,0-.16-.06-.17-.27S28.92,2,28.88,2s-.15-.23-.12-.29c.19-.33,0-.49-.25-.63h0c.56-.14.08-.46.13-.7l0,0h1.16s-.06.15-.11.16c-.46.13-.09.52-.24.74a2.47,2.47,0,0,0,.36-.11c.08,0,.16-.09.24-.13l0,.27-.13.36.13,0V1.29c.12.05.33.11.33.16a.72.72,0,0,1-.14.48c-.17.16-.18.21,0,.32a1.16,1.16,0,0,1,.28.3s.13.23.15.22c.25,0,.25,0,.24-.33l.5.17h0c.13.2.08.53.41.59h0c-.28.47.1.85.17,1.28,0,0,.13.13.16.11.34-.13.23.14.25.28s-.18.48.25.3c0,.07.07.14.06.2a2.83,2.83,0,0,1-.14.41c0,.06-.08.12-.07.17s.1.34.12.52a2.15,2.15,0,0,1-.29.1c-.37.16-.82.21-1,.66l-.14-.29c.09-.44-.11-.6-.53-.54l0-.6c-.3.35-.5.64-.75.88s-.66.59-1,.89c-.13.14-.19.35-.34.46-.39.32-.39.4,0,.62,0-.09,0-.26,0-.31.25-.2.52-.37.79-.55a3.22,3.22,0,0,1-.29.48,3.22,3.22,0,0,0-.15.63c.47-.14.15.22.18.33s-.43.34.1.45c.23.05.2.18.3,0a1.62,1.62,0,0,1,.18-.2,1.87,1.87,0,0,0,0,.25.75.75,0,0,0,.15.24s.14,0,.19,0a7.84,7.84,0,0,0,.65-.64c.06-.07,0-.21.05-.32a1.83,1.83,0,0,1-.25.06.78.78,0,0,1-.22,0,1.36,1.36,0,0,1,0-.2,2.53,2.53,0,0,1,.3-.77c.2-.26.1-.33-.11-.42h0l.6-.69v.43L31,7.7l.14.08.12-.39s0,0,0,0c.5.24.5.24,1-.36.14.08.26.16.39.22s.36.1.12.34a.93.93,0,0,0-.24.53l.34-.28.06,0L31.92,9h.89c-.24.36-.42.69-.66,1a4.13,4.13,0,0,1-.65.6c-.14.12-.18.15,0,.26a3.55,3.55,0,0,1,.78.62.44.44,0,0,1,.08.34A4.82,4.82,0,0,1,32.13,13c-.4.89-.53,1.86-.86,2.78-.18.51-.47,1-.64,1.48-.05.13-.21.62-.65.39-.05,0-.15,0-.23.06.09.1.19.3.26.29.49-.06.21.13.16.33-.12.42-.15.86-.27,1.28a3.51,3.51,0,0,1-.48,1.1c-.39.49-.41,1.1-.7,1.61-.11.22-.28.4-.38.62s-.21.61-.33.91-.21.46-.31.7-.05.27-.12.35a.85.85,0,0,1-.44.28.68.68,0,0,1-.41-.27.33.33,0,0,0-.6,0,1.73,1.73,0,0,0-.14.31,1.2,1.2,0,0,0,0,.28,1.64,1.64,0,0,0,.23,0c.18-.07.34-.12.32.17a.28.28,0,0,0,0,.11c.45-.13.24.43.4.44a4.44,4.44,0,0,1-.19.55c-.25.54-.52,1.07-.78,1.6,0,.09-.14.19-.11.25.11.34-.2.54-.24.8a2.06,2.06,0,0,1-.44.93c-.12.17.05.52-.3.62.26.4-.08.6-.29.83,0,0,0,.12,0,.12h.23c.41-.1.8-.39,1.26-.08.15.1.42,0,.64,0h.91l.13-.2c0,.09.08.18.1.27a1.83,1.83,0,0,0,.94.71c.27,0,.27,0,.53.23a.45.45,0,0,0,.62-.06l.35.32.31-.35s0,0,0,0c0,.18.06.36.09.55l.52-.39h0c.08.16.12.38.25.48s.3-.12.45-.18h0c.15.08.3.14.44.23s.45.43.82.22c.08,0,.29.15.46.24.09-.58-.48-.84-.64-1.28A2.08,2.08,0,0,1,34,34.11c.13-.36,0-.8.49-.65,0,.16,0,.31,0,.47h.1c0-.14,0-.28-.08-.41a.1.1,0,0,0,0-.07,1.35,1.35,0,0,1,1.59,0,2,2,0,0,0,.7.07c.14,0,.25.23.4.36l.13-.34c.3.36.56.65,1.08.41.2-.1.43.12.46.42l.13-.31c.08.39.31.41.59.33a.31.31,0,0,1,.19,0c.17.1.33.22.5.34.07-.24.2.49.26,0l.42.28.17.14c0-.06-.07-.13-.06-.19a1.06,1.06,0,0,1,.12-.2l.11.15a3.54,3.54,0,0,0,.18.49s.17,0,.25,0l.46-.05-.07.37,1.18.11,0-.13a3.33,3.33,0,0,0,.21.63c0,.06.23,0,.35.07-.05-.25.15-.21.24-.17s.05.2.07.29c.33-.17.44-.1.84.53v-.5a2.84,2.84,0,0,1,.28.67.65.65,0,0,0,.41.66s0,.24,0,.26c-.27.07-.49.13-.3.49,0,0-.08.15-.14.25a1.58,1.58,0,0,0,.55-.14c.13-.1.18-.31.28-.45s.18-.24.25-.23c.56.06.72.25.8.81l0-.65a1.16,1.16,0,0,0,.65.62.74.74,0,0,0,.81-.23c.17.12-.1.49.3.41v.39c0,.12,0,.25-.07.25l.4-.15c-.09.2-.14.37.18.35l-.18-.35.23-.11c.14.34.63.49.52,1,0,.06.26.2.41.28a.34.34,0,0,0,.17,0c-.09-.17-.16-.37-.26-.56s-.49-.26,0-.49a.91.91,0,0,0,.73.81h0l0,.27.13-.09h0a.78.78,0,0,1,.2.16c.11.14.21.29.3.42l-.22.14.33.13h0c.07.14.14.28.22.41s.08.07.13.1v-.2c.33,0,.67-.06.93.22-.19.26-.19.26.11.74,0-.17-.09-.24-.07-.27a1.16,1.16,0,0,1,.18-.2,1.54,1.54,0,0,1,.08.19s.06.14.05.16c-.31.3,0,.5.22.71,0-.11-.13-.24-.11-.35a1.22,1.22,0,0,1,.17-.37c.14.07.28.13.41.21s0,.16,0,.16c.67,0,.22.49.31.72l.35-.14a1,1,0,0,1,0,.34c-.05.24-.18.14-.33.08s-.21,0-.32,0,0,.17,0,.19.25.07.45.13c0,0,.11-.17.2-.29s.16-.15.22-.21c0,.38,0,.38-.37.6,0,.15,0,.29,0,.43l.14,0-.16-.4c.24.17.49.33.8.13,0,0,.13,0,.13.07a1,1,0,0,1,0,.34c0,.06-.09.11-.14.16a2,2,0,0,0,.68.3c.27,0,.46-.2.55.31A10.9,10.9,0,0,1,56.73,47s.09.1.14.11c.27,0,.31.13.18.37a.41.41,0,0,0,0,.36,1.5,1.5,0,0,0,.48.49,1.45,1.45,0,0,0,.59,0,.48.48,0,0,1,0,.12c-.06.21-.21.43-.18.62s.33.19.51.24.41.23.3.53a.45.45,0,0,0,0,.23c.08.29.11.52-.32.48-.07,0-.26.31-.23.37a4.71,4.71,0,0,0,.58.69s.13,0,.2,0a1,1,0,0,0-.07-.15c0-.05-.09-.11-.08-.14.08-.21.18-.42.28-.65.17.28-.11.89.49.68l-.51,1,.1,0,.26-.28c.12.12.35.25.34.36s-.19.34-.24.55a.91.91,0,0,1,.23-.15s.11.07.12.12,0,.33,0,.36c.28.13.18.36.19.56a1.67,1.67,0,0,0,.08.32c0,.16.11.33.15.49s0,.26,0,.28c.53.27.25.52,0,.79,0,0,.08.11.12.17s.16.13.19.22-.1.12-.14.19a1.42,1.42,0,0,0-.07.22c.3,0,.2.16.21.37s.24.33.38.5c-.16.05-.35,0-.34.31s-.44.58.13.72c0,.1-.06.2-.07.3s0,.33-.06.49l-.09.33.08,0,.18-.35.33-.09-.25.32s0,.06,0,.07c.45.55-.16,1-.1,1.6a5.46,5.46,0,0,1-.2,1.64,3.53,3.53,0,0,1-.47,1.5c-.34.4-.24,1-.74,1.33-.21.15-.27.61-.65.74-.06,0,0,.24-.08.33a13.18,13.18,0,0,1-2,2.2,20.91,20.91,0,0,1-1.64,1.31.36.36,0,0,1-.32,0c-.68-.36-1.06.15-1.52.48s-.79.54-1.18.82c-.2.14-.39.3-.58.45v0c-.1.06-.26.09-.31.19a2.68,2.68,0,0,1-1.14.86,1.61,1.61,0,0,1-.48.12,4,4,0,0,0-.36.36c-.08.09-.09.29-.17.32s-.3-.1-.42-.06a4.5,4.5,0,0,0-.53.36s-.11,0-.25-.08l.1.46-.19,0c-.08,0-.19.06-.22,0-.2-.23-.29-.22-.43,0a.55.55,0,0,1-.17.2s-.1,0-.16,0a.88.88,0,0,1,0-.16s.09-.07.12-.11.11-.18.16-.27a1.87,1.87,0,0,0-.4-.07s-.06.14-.09.21a2.75,2.75,0,0,1-.08.3l-.16-.37c-.08.22-.1.46-.22.54s-.35,0-.52,0a1.63,1.63,0,0,0-.37.13c0,.06.12.11.13.16s0,.25,0,.29-.34.16-.38.11c-.2-.21-.25-.18-.42.06s-.42.21-.64.31c.11-.21.22-.42.32-.63a.48.48,0,0,0-.11-.06h-.26v.67a.28.28,0,0,0-.16,0c-.25.22-.37.14-.42-.16,0,0-.06-.05-.06,0a6,6,0,0,1-.81.28s-.14-.28-.23-.42-.11-.08-.17-.12,0,.14,0,.21,0,.13,0,.13-.38,0-.44,0c-.42-.63-.35-.07-.43.16a2.44,2.44,0,0,1-.1.24l-.34,0c-.07,0-.17-.1-.22-.07a3.64,3.64,0,0,0-.46.3c0-.16,0-.33-.05-.49s0-.13,0-.21l-.29.21h0c0-.41-.31,0-.43-.17,0,0-.13.09-.15.16-.08.29-.09.29-.34.1,0,0-.11,0-.16,0s0,.15,0,.2c.13.3,0,.35-.26.31a3,3,0,0,0-.78.09c-.16,0-.34.1-.27-.2a.34.34,0,0,0-.15,0l-.62.16-.11,0c0-.49-.48,0-.61-.26-.06,0-.14,0-.17.09s-.13.26-.22.45l-.11-.46h0c-.17-.25-.38-.06-.48,0s-.17.25-.34.06a.21.21,0,0,0-.2,0c-.33.24-.48-.08-.44-.25.09-.44-.21-.26-.37-.27a2.57,2.57,0,0,0-.5,0l.34.12c-.24.11-.44.23-.66.31a.21.21,0,0,1-.19-.07c-.18-.33-.37-.4-.77-.23.09-.58-.35-.4-.63-.45,0,0,0,.11-.08.16s-.11.11-.17.11a.73.73,0,0,1-.25-.08c0-.06,0-.16.07-.18s.26-.19.07-.29-.45-.14-.49-.07c-.24.33-.36,0-.49-.06a2.12,2.12,0,0,1-.29-.38l-.33.36a4.54,4.54,0,0,0-.38-.38.56.56,0,0,0-.23-.07l0-.29h-.14l.12.28a2.7,2.7,0,0,1-.31.28s-.13-.12-.2-.19-.2-.12-.23-.21a2.18,2.18,0,0,1-.09-.51c-.18.08-.4.31-.47-.14,0-.06-.17-.11-.26-.15s0,0-.07,0c-.18-.45-.68-.29-1-.52s-.36-.24-.55,0c0,0-.14,0-.22,0a.74.74,0,0,0,.12-.13c0-.06.06-.17,0-.19-.18-.17-.38-.32-.57-.48.36-.23-.12-.49-.15-.79,0,0-.22-.12-.24-.1a1.45,1.45,0,0,0-.4.5,6.93,6.93,0,0,0-.17.79.35.35,0,0,1-.23.06c-.25-.41-.39,0-.56.08a1.71,1.71,0,0,0-.26.21,1.35,1.35,0,0,1-.15-.26c-.09-.2-.12-.2-.31,0h0l.19-.51a2.44,2.44,0,0,1,.1-.24.48.48,0,0,1-.16.08s-.08,0-.08,0,0-.22.05-.28.17,0,.26,0a2.1,2.1,0,0,1,.3.15c.11-.44.36-.42.68-.23,0,0,.18-.16.17-.17a1.51,1.51,0,0,0-.39-.47c-.38-.21-.92.16-1.26-.36-.09-.14-.48,0-.71-.11a6.39,6.39,0,0,1-.6-.26c-.19-.08-.43-.26-.39.18,0,.07-.09.15-.14.22S20.06,71,20,71c-.1-.27,0-.63-.46-.73-.07,0-.09-.25-.13-.38l-.06-.22c-.08.07-.22.13-.23.22s.07.4,0,.55c-.16.36-.33.68,0,1-.06,0-.15.16-.16.15s-.32-.21-.3-.27c.07-.28,0-.38-.27-.31,0,0-.1-.07-.15-.1s.08-.12.14-.14.44-.14.73-.24a4,4,0,0,0-.52-.38c-.24-.12-.41-.26-.39-.56a.7.7,0,0,0-.08-.27c-.07.06-.16.1-.2.18-.18.34-.24-.14-.38-.06s-.08-.13-.13-.19c-.09.1-.24.21-.25.32,0,.47,0,.94,0,1.5-.28-.22-.46-.44-.67-.1,0,0-.12,0-.18.06s-.05-.18,0-.24a3,3,0,0,1,.24-.37c-.19,0-.39,0-.39-.06,0-.28-.21-.31-.39-.4a.37.37,0,0,1-.13-.2c-.05-.15-.07-.09-.29-.17s-.42-.38-.66-.49-.23-.76-.76-.56c0,0-.16-.07-.16-.11,0-.44-.46-.46-.67-.7a2.45,2.45,0,0,1-.26-.37,2.49,2.49,0,0,1-.11-.29,3.08,3.08,0,0,0-.27.24c-.05,0-.05.13-.09.19a.93.93,0,0,1-.13.15,1.43,1.43,0,0,1-.08-.22L12.07,67a2.27,2.27,0,0,1-.26.28c-.06,0-.13.08-.2.13,0-.11,0-.24,0-.31s.32-.28.45-.45.05-.24.07-.36a2,2,0,0,1-.24,0c-.25,0-.21-.27-.29-.41a.64.64,0,0,1-.06-.43c.07-.28,0-.39-.28-.36a1.17,1.17,0,0,1-.08-.31c0-.12.08-.33-.19-.19,0-.1-.16-.23-.13-.28.28-.46-.3-.65-.3-1a.73.73,0,0,0-.22.09,2.83,2.83,0,0,0-.24.25,1.77,1.77,0,0,1-.26-.41c0-.06.13-.17.2-.25l.16.25,0-.35c.25-.36-.06-.66-.15-1a5.32,5.32,0,0,0-.45-.75c0-.07.05-.21.09-.31s.17-.28.24-.44,0-.12,0-.18-.1.11-.14.1a4,4,0,0,1-.43-.12v-.15l.2-.81h0a3.78,3.78,0,0,0,.21-.56.69.69,0,0,0-.05-.37c-.05-.15-.12-.28-.18-.43l-.24.24c-.12-.24-.44-.57-.38-.82s-.55-.7.05-1c0,0,0-.07,0-.07-.41-.25,0-.4.08-.61.17.26.32.51.49.73a.28.28,0,0,0,.25,0A.85.85,0,0,0,9.9,56c-.1-.4,0-.88-.42-1.16-.12-.09-.32-.06-.45-.13-.39-.2-.15-.54-.14-.82s.11-.43.45-.34a.34.34,0,0,0,.45-.37.45.45,0,0,0-.28-.32c-.11,0-.27.1-.39.15-.58-.37-.23-1-.24-1.45a6.38,6.38,0,0,1,.15-1c0-.06-.14-.14-.13-.21,0-.38.07-.76.11-1.14,0,0,.08-.1.07-.12A1.76,1.76,0,0,1,9,48c.12-1,.11-2,.27-3a.6.6,0,0,0,0-.23,1.43,1.43,0,0,0-.22.08c-.49.34-.68.27-.79-.41L6.5,45.74a.32.32,0,0,1,0-.16c.09-.52.1-.52-.42-.37.08-.16.16-.32.23-.48s.11-.26.16-.39l-.17,0,0,.42L6,44.57l.11.64.06.32c-.29.11,0-.47-.36-.22h0s0-.06,0-.08l-.23-.43-.21.34H5.26c0-.18,0-.12-.12-.13-.39,0-.53.15-.57.49,0,0-.09.08-.14.12a1.72,1.72,0,0,0-.07-.21,3.38,3.38,0,0,0-.11-.34l-.09.34a1.67,1.67,0,0,1-.21.45c-.08-.31-.27-.59.1-.87.16-.11.21-.37.31-.56l.37,0,0-.13-.34.08c-.13.08-.27.25-.36.22s-.26-.21-.39-.32a.23.23,0,0,0-.15,0c-.16.21-.29.44-.46.64s-.15.44-.5.43c-.18,0-.21.08-.24,0v-.1c0-.1.45.06.17-.27,0,0,.08-.23.13-.34V45l.11,0-.12-.22-.2-.06h0c.2-.11.41-.22.6-.34s.08-.12.12-.19H2.87a.91.91,0,0,0-.7.44l0,0a.69.69,0,0,0-.68-.48c-.06,0-.11-.1-.17-.15s-.18-.21-.28-.23S.58,43.6.48,44s-.15.43-.23.65h0a4.87,4.87,0,0,1,0-.54,1.39,1.39,0,0,1,.12-.36l.87-1.81.14,0v.31c.08-.08.15-.19.25-.23s.48-.1.1-.35a.56.56,0,0,1,.14-.32c.26-.18.12-.27-.07-.36l.89-.49c-.07-.29-.06-.28-.41-.08-.19.11-.47.31-.6.24s-.64-.16-.47-.62l.55.11a1.17,1.17,0,0,1,0-.26c.07-.25.08-.24-.21-.27,0,0-.11-.11-.1-.14a1.29,1.29,0,0,1,.19-.32,3.33,3.33,0,0,1,.62-.57c.11-.06.34.08.54.13-.23-.28-.36-.62.09-.85.07,0,.23.1.35.16.23-.29.41-.67.86-.83.22-.07.38-.32.57-.47s.17-.09.2-.06.24.22.37,0,.37-.29.07-.53.17-.72.4-.78a3.78,3.78,0,0,0,.69-.26,1.57,1.57,0,0,0,.17-.31c.09-.26.2-.3.43-.15.05,0,.15.08.18.06.19-.14.37-.3.55-.45s.3-.28.46-.41.18-.12.26-.19.13-.31.27,0c0,0,.09.05.11,0l.51-.48c.06.08.07.28.28.06a.89.89,0,0,1,.75-.26c.22,0,.46-.28.71-.45.08.2.22.25.37,0,0,0,.16,0,.16,0,.09.23.17.27.25,0,0,0,.1,0,.15,0,.78,0,.83,0,1.12-.78a1.63,1.63,0,0,1,.23-.35c0-.06.12-.14.1-.17-.16-.37.11-.61.24-.89s.18-.46.28-.68.32-.63.46-.95c.21-.48.36-1,.59-1.45a9.22,9.22,0,0,1,.62-.78,1,1,0,0,0,.1-.45c0-.43.11-.82.58-1a.16.16,0,0,0,.06-.13c-.17-.33.17-.37.28-.55s0-.31,0-.47l.23.11-.12-.34c.09-.22.18-.45.28-.66,0,0,.15,0,.22,0s0,0,.05.06l.05-.1c.17-.27.33-.54.5-.8a.88.88,0,0,1,.2-.18,1.11,1.11,0,0,1,.07.26.94.94,0,0,1-.07.37c-.11.23-.3.47.2.36-.07.33-.58.45-.29.85-.16,0-.28.39-.5.07,0,0-.1.05-.12.09a1.68,1.68,0,0,0-.09.32c-.05.27.28.56,0,.84,0,0,.06.09.11.11a.14.14,0,0,0,.14,0,2,2,0,0,0,.28-.67.79.79,0,0,1,.27-.64,1.27,1.27,0,0,0,.13-.19c0-.07,0-.16.05-.22a1.28,1.28,0,0,0,.23-1.1c0-.08.1-.26.16-.26.39,0,.4-.19.25-.49,0-.08,0-.21,0-.32v-.44l-.63.86c-.14-.18-.12-.17,0-.54a1.41,1.41,0,0,0,0-.58c.1,0,.25.06.28,0,.23-.3.24-.45.11-.57s-.05-.09-.07-.13c.31,0,.13-.31.2-.45a9.25,9.25,0,0,1,.7-1,1,1,0,0,0,.06-.18c.06-.24,0-.58.41-.57a.93.93,0,0,0,.05-.14l.08-.09s.12-.09.11-.11c-.29-.49.14-.69.37-1s.72-.78.7-1.37c0,0,.1-.08.12-.13s.08-.26.11-.39-.17-.35.16-.19c0-.1.13-.2.12-.3,0-.47,0-.48.4-.38a1.25,1.25,0,0,0,.33,0c.14,0,.35-.16.25.18l.41.15a1.14,1.14,0,0,1,.38.13c.25.18.44.19.57-.12a.77.77,0,0,1,.57-.49.65.65,0,0,0,.42-.78h0l.23-.28c-.1-.08-.19-.2-.29-.21-.29,0-.53-.05-.5-.42-.11,0-.08-.4-.3-.11-.07-.07-.16-.13-.19-.22s0-.22,0-.24a.83.83,0,0,1,.38-.1c.06,0,.13.12.19.13a2.56,2.56,0,0,0,.39,0l-.27-.21c-.05,0-.15-.06-.15-.09,0-.38-.21-.34-.46-.25,0,0-.14,0-.15,0a.57.57,0,0,1,0-.29,2.2,2.2,0,0,1,.21-.32c0-.06,0-.14,0-.21s-.11.08-.16.08a1.2,1.2,0,0,1-.27-.08c.29-.28,0-.9.58-1h0V9c.13-.08.33-.14.38-.25.16-.39.27-.8.4-1.2,0-.1,0-.19.06-.29s.06-.12.23-.06c.43.16.67.68,1.2.62a.5.5,0,0,0,.17-.1c0-.11.05-.21.07-.32l-.35-.08.16.24ZM11.24,58.58l-.09.29h.13l0-.3a.37.37,0,0,0,0-.15s-.07-.08-.1-.13A2.33,2.33,0,0,0,11.24,58.58ZM4,42.89l-.22.21.09.09L4,42.94l.24-.16-.19-.2Zm37,6.28.16-.23-.15,0v.28l-.28.14c-.26.23-.52.11-.77,0-.08,0-.12-.14-.18-.21l0,.34,0,.08-.24.37c0-.17,0-.22,0-.27s0-.27,0-.4l-.42.11a.91.91,0,0,1-.37.09,2.78,2.78,0,0,1-.54-.22,3.31,3.31,0,0,0,.36-.14,3.21,3.21,0,0,0,.3-.21l-.38-.33.38-.3s0-.12.08-.17-.13-.06-.17,0l-.65.36c.06-.36-.1-.38-.37-.23a.27.27,0,0,1-.19.05.5.5,0,0,0-.59.06,1.41,1.41,0,0,1-.24-.16.67.67,0,0,1-.12-.2l.17-.18-.05,0-.11.24c-.1,0-.25-.13-.31-.09-.22.14-.64.12-.68-.11-.07-.42-.56-.3-.71-.6a.47.47,0,0,0-.12.07c-.24.18-.24.18-.33-.14l.36-.23-.07-.09-.43.17a.93.93,0,0,1,0,.14l-.52.53a6.56,6.56,0,0,0,.14-.76c0-.06-.1-.15-.16-.2s-.1.07-.15.1l-.35.28v-.52c-.23.2-.49-.36-.74,0-.09.15-.18.09-.21-.13l-.18-.27-.09.1.29.17c-.25,0-.49-.28-.75,0,0,0,0,0-.08,0h0a.74.74,0,0,0-.08-.13s-.19.35-.13,0-.35-.31-.44-.54c0,.06-.11.11-.11.16a2.7,2.7,0,0,0,.08.39c-.15-.36-.32-.24-.5-.06l-.14.07,0-.59c-.08,0-.26-.06-.32,0-.35.37-.32,0-.42-.18a2.15,2.15,0,0,1-.14-.26l-.26.26-.23-.13-.06.09.27,0-.33.12-.37.16c.26.26-.05.1-.09.13a1.22,1.22,0,0,1-.1-.24c-.06-.25.37-.59-.15-.75a.14.14,0,0,1-.08-.09c-.14-.37-.44-.18-.66-.16s-.46,0-.38.34c0,0-.12.1-.18.15l0-.27-.24.11c-.13-.2-.21-.46-.34-.5s-.49-.15-.62.17a1.94,1.94,0,0,1-.21.29l-.17-.32.15,0s0-.13,0-.13a1.77,1.77,0,0,0-.23,0c-.11-.28-.32-.35-.53-.18s-.41,0-.55-.12l-.31.32c-.11-.11-.23-.21-.33-.33a2.11,2.11,0,0,1-.18-.33c-.11.2-.08.47-.17.52a2.31,2.31,0,0,1-.68.15c.25-.44.23-.48-.25-.49h0l0-.39c-.55.59-.86.63-1.15.17a2,2,0,0,0-.25.44,4.86,4.86,0,0,0-.33,1.55c0,.36-.24.79-.25,1.24s-.24.73-.23,1.16a15.72,15.72,0,0,1-.18,1.94c0,.06-.09.11-.12.17s-.09.21-.15.31a2,2,0,0,1-.2.3A.86.86,0,0,1,19,51l.17.21c.08.11.21.23.21.35a2.15,2.15,0,0,1-.14.54,1.29,1.29,0,0,1-.07.21,2.9,2.9,0,0,0-.37.72,8.74,8.74,0,0,1,0,1.25c-.09.36.19.84.37,1.23a2.47,2.47,0,0,1,.4,1.17c0,.33.32.67.48,1,.34-.38.53-.78.15-1.26l.29.12v0c.07.31.31.54.3.89,0,.11.33.36.42.32.35-.14.39.1.42.29s-.18.18-.27.26V58h-.1l0,.4c.34.36.31.69-.08,1.07,0,0,0,.12,0,.18s.09,0,.13,0,.12-.11.19-.14a3.9,3.9,0,0,1,.48-.17.51.51,0,0,1,.08.18c0,.18,0,.47.05.53.45.28.08.41-.07.6,0,0,0,.13,0,.2a.27.27,0,0,0,.13,0c.19-.29.35,0,.46.06s.34.15.46-.08l.05.17.16-.19-.22,0,.12-.18.23-.21c0,.11.07.21.09.32s0,.28,0,.42h.07l.09-.23.26.21-.17.18c-.07.09-.15.18-.22.28s0,.06,0,.09l.12-.09,0,.28.14-.07-.19-.21.06-.3c.26.13.31.36.37.61a.63.63,0,0,0,.24.3,1.77,1.77,0,0,0,.45.18l.36-.4a1.59,1.59,0,0,0,0,.59.4.4,0,0,0,.39.1c.47-.33.3.06.34.26a.79.79,0,0,0,.23.32s.14-.12.22-.13.27,0,.32,0c.2.24.38.5.54.72.07,0,.15-.14.24-.15a2,2,0,0,1,.48,0l-.1.28.17,0c.32,0,.49.51.91.31,0,0,.22.26.34.39a.11.11,0,0,0,.09,0c.13-.22.19-.09.36,0s.5.36.8.09a.24.24,0,0,1,.15,0c0,.27.16.29.39.23.47-.13.78.61,1.3.25a.73.73,0,0,1,.09.09c.28.3.56.46.93.09a.53.53,0,0,1,.61.08c.08.09.19.34.32,0,0,0,.08,0,.1,0,.27.41.59.29.95.11a.55.55,0,0,1,.5,0c.27.29.42.22.54-.11l.23.25c.36-.31.69.07,1,.11a1.67,1.67,0,0,0,.83-.17c.16,0,.32-.06.38.08s.1,0,.12,0c.25.23.27-.25.35-.14s.53-.18.58.23a.28.28,0,0,0,.2,0c.38-.3.86.25,1.24-.15,0,0,.08.06.13.07s.2.06.23,0c.26-.33.8-.13,1-.55a.17.17,0,0,1,.1,0c.28.51.26,0,.37-.1a2.28,2.28,0,0,0,.22.22s.09,0,.14,0a.45.45,0,0,1,0-.11,2.75,2.75,0,0,1-.05-.34,1.5,1.5,0,0,0,.38.21,1.31,1.31,0,0,0,.39,0,.33.33,0,0,0,.15-.05c.16-.14.31-.29.48-.43,0,0,.12,0,.13,0s.09.16.19,0,.08-.14.14-.16.31-.35.55-.1c0,0,.17-.06.2-.12.11-.32.27-.22.45-.07l-.23,0,.09.16.14-.13c.1-.1.19-.26.29-.27s.28-.3.5-.16c.07-.2.11-.35.43-.36s.49-.25.7-.43.25-.4.47-.07a.22.22,0,0,0,.14,0,5.92,5.92,0,0,1,.56-.56c.26-.2.58-.32.85-.51s.49-.36.46-.48c-.08-.37.16-.54.31-.79a9.18,9.18,0,0,0,.5-1,.07.07,0,0,1,0,0c.35-.06.19-.23.1-.4s-.25-.39-.19-.49c.18-.32-.05-.48-.19-.67a5.27,5.27,0,0,0-.41-.47A3.12,3.12,0,0,1,51,58l-.1.18L50.74,58s.11,0,.12,0a.7.7,0,0,0-.17-1s-.17.08-.26.14-.09.11-.14.16l-.17-.18.07-.07-.08-1-.51.26c-.06,0-.11.08-.16.11a1.49,1.49,0,0,0,0-.21,2.17,2.17,0,0,0,0-.26c-.32.07-.13-.16-.14-.26s.06-.4,0-.52a2.21,2.21,0,0,0-.74-.75.4.4,0,0,1-.29-.48c0-.25,0-.42-.33-.47a4.88,4.88,0,0,1-.82-.26l-.19-.07a3,3,0,0,1,.13-.36,2.19,2.19,0,0,1,.23.07l.17.06a.71.71,0,0,0,0-.21l-.25-.54h0a6.47,6.47,0,0,0,.78.41s.21-.23.28-.37-.1-.22-.15-.22c-.4,0-.55-.25-.65-.56a.41.41,0,0,0-.56-.29c-.11,0-.13.37-.14.58a1.2,1.2,0,0,0,0,.36c-.25-.06-.49-.2-.68-.15s-.45,0-.49-.29a.55.55,0,0,0,0-.17s-.12,0-.14.07c-.16.36-.29.19-.47,0a1,1,0,0,0-.39-.24s-.21.14-.2.16c.15.32-.07.44-.26.58l0-.44c-.19.22-.26.05-.29-.11s0-.35,0-.38c.32-.18.06-.24,0-.34-.07-.44-.36-.23-.6-.2,0-.1,0-.24-.06-.29a.84.84,0,0,0-.33-.07l0,.21c.19-.09.17.42.42.15.21,0,.28.39.57.25-.11.22,0,.58-.41.61,0,0,0,.11-.06.17a.9.9,0,0,1-.08-.28s.11,0,.17-.08a.64.64,0,0,0,.1-.18s0,0-.08-.08l-.07.21c-.24,0-.42,0-.48-.28s-.23-.19-.39-.08h0c0-.24,0-.51-.34-.58A.76.76,0,0,1,42,50c0-.12.07-.24.11-.36a1.72,1.72,0,0,0-.45,0c-.06,0-.09.16-.13.24V50a3,3,0,0,0-.14-.36c0-.06-.18-.11-.22-.08-.24.14-.47.31-.7.47l.25-.66C40.85,49.35,41,49.45,41,49.17ZM13.1,65.39l-.1-.23-.09.25-.06.29.16-.1.36.08Zm38.48-9-.34-.22c.24-.2,0-.38,0-.58l-.15,0c0,.19.09.37.14.56l.3.24.09.26.18-.22ZM25.81,8.47s-.09,0-.13,0l-.23.17s0,.09,0,.09a.84.84,0,0,0,.27-.13s0-.09,0-.15l.17,0-.13-.13ZM12.34,56.38l-.17-.4s-.12.08-.11.1.11.28.16.42l.12.24.09,0ZM23.69,70.84a1.5,1.5,0,0,0,.23.15,1.24,1.24,0,0,0,.27,0c0-.07,0-.16,0-.19a.38.38,0,0,0-.24-.14.72.72,0,0,0-.29.12c-.06,0-.14.1-.16.17a.62.62,0,0,0,0,.27c.06,0,.15,0,.18,0a.46.46,0,0,0,.08-.24S23.71,70.89,23.69,70.84ZM17.86,23c-.1,0-.23,0-.28,0a.59.59,0,0,0-.08.31s.05.06.08.09l.27-.45.11-.28h-.12Zm-5,33.5a.23.23,0,0,0-.1-.07h-.14l.24.07s-.07,0-.08.08,0,.29-.06.43l.34-.16A4,4,0,0,0,12.88,56.53ZM45,50c.06-.32-.18-.07-.27-.13l-.12.52.11,0L45,50l0,.43a.42.42,0,0,0,.18-.24l.24-.47Zm3.18-1.18L48,48.39l-.19.09.29.34a3.31,3.31,0,0,0,.33.32c.22.18.23.17.31-.17-.33,0-.32,0-.25-.26,0-.06,0-.13-.07-.19s-.1,0-.14.08A2.11,2.11,0,0,0,48.13,48.83ZM25.69,10.72c.24.26.24.26.6.06l-.62,0c.06-.09.16-.18.18-.28a.68.68,0,0,0-.06-.34.25.25,0,0,0-.19,0,1,1,0,0,0-.09.3c0,.06,0,.13,0,.19a1.17,1.17,0,0,1-.06.2Zm32,38.85c-.28.19,0,.36,0,.53s.14.1.21.15a1,1,0,0,0,0-.24c-.06-.15-.15-.3-.22-.44s0-.51,0-.75l.17-.2-.05-.06-.26.13.16.11-.3.18c-.19.25-.27,0-.39-.08,0-.22-.07-.44-.13-.66a2.21,2.21,0,0,0-.18-.42c-.13.08-.32.14-.36.25a.52.52,0,0,0,.13.41,3.6,3.6,0,0,0,.49.46c0,.39.29.17.44.25l-.1.44ZM31.4,5.14l.18.29c.57-.06.11-.49.28-.71a.27.27,0,0,0,0-.2.21.21,0,0,0-.13-.07s-.09,0-.11.09l-.26.57c-.21.12-.42.22-.62.35,0,0,0,.14,0,.2a.2.2,0,0,0,.17,0C31.16,5.59,31.41,5.47,31.4,5.14Zm-16,62.94.37-.22c-.28-.24-.54-.39-.87-.15-.09.06-.24.19-.22.22s.2.27.39.13c-.14.41-.09.72.43.77a.22.22,0,0,1,.14.06c.26.37.32-.06.33-.12C16.09,68.4,15.84,68.11,15.4,68.08ZM52.77,56.13a.47.47,0,0,0-.38.71l.34-.08a3.13,3.13,0,0,1-.15.32c-.16.21-.52.37-.15.71l.54-.66.08.08.29.21,0-.13-.34-.08c.05-.12.15-.26.12-.35a6.8,6.8,0,0,0-.38-.7l0-.35-.2,0ZM10.19,53.36c.18,0,.36,0,.45.14s.41-.22.23.16H11c.35-.09.73-1,.54-1.25,0,0-.15,0-.17,0s0,.2-.08.28S11.07,53,11,53c-.31-.15.14-.5-.16-.67a2.39,2.39,0,0,0,.22-.12,2.12,2.12,0,0,0,.34-.27s0-.15,0-.23l-.27.2A.64.64,0,0,1,11,52l-.31.1c0-.09,0-.19,0-.25a2.78,2.78,0,0,0-.26-.34l-.14.25-.29.66a1.48,1.48,0,0,0-.11.32c.25.17.11.39.11.59a2.42,2.42,0,0,0,.1.36l.1,0Zm.08,4.57a1.64,1.64,0,0,0,.09.27s.15,0,.15,0a2.56,2.56,0,0,1,0-.39,2.18,2.18,0,0,1,.21-.47c.08-.13.25-.25.26-.39a5.69,5.69,0,0,0-.11-.8c0-.46-.15-.57-.61-.55-.07,0-.14.08-.21.12a1.13,1.13,0,0,0,.12.18,3.41,3.41,0,0,1,.42.43c.05.07,0,.28,0,.31s-.22.21-.18.45A2.58,2.58,0,0,1,10.27,57.93Zm5.92,10.93-.07.06a3.14,3.14,0,0,0,.32.31s.12,0,.18,0c-.07-.32,0-.2.14,0s.06.06.09.09.08-.1.07-.13c-.09-.28-.18-.56-.28-.83l-.09-.23c-.15.07-.39.11-.43.22A1.44,1.44,0,0,0,16.19,68.86ZM29.47,10a1.49,1.49,0,0,1-.25.13,2.53,2.53,0,0,1-.27,0,.75.75,0,0,0,.1-.17s0-.11,0-.11a.22.22,0,0,0-.16,0l-.72.56.55-.06c0,.12,0,.29.1.31a3.15,3.15,0,0,0,.55.12ZM12.55,55.08l.09-.1c-.08-.17-.56-.21-.15-.52,0,0,0-.19,0-.29s0-.48,0-.72c0,0-.12-.11-.18-.11a1.42,1.42,0,0,0-.22.06,2.4,2.4,0,0,1,.14.53.46.46,0,0,0-.24.68C12.09,54.81,12.35,54.93,12.55,55.08Zm36.27-2.15a3.92,3.92,0,0,0-.37.34,4.89,4.89,0,0,0,.46.56l.53-.49ZM15.44,54l-.13-.15c-.13.12-.24.31-.39.35-.33.11-.4.35-.45.63,0,0-.06.06-.07,0-.29-.19-.15.05-.12.13s-.14.25.18.21.27-.08.27-.28a.72.72,0,0,1,.1-.4A7.84,7.84,0,0,1,15.44,54ZM13,52.9a.77.77,0,0,0,.22-.84,2.11,2.11,0,0,0-.16-.34c-.09,0-.23.07-.26.15a.77.77,0,0,0-.07.47A2.6,2.6,0,0,0,13,52.9ZM2.3,44a3.43,3.43,0,0,1,.58-.28c.44-.1.14-.42.27-.64C2.65,43.24,2.18,43.35,2.3,44ZM54.35,68.73c-.26.14-.57.44-.58-.17a2.82,2.82,0,0,0-.39.29c-.06.05-.07.14-.1.21l.19.08C53.86,69.27,54.27,69.43,54.35,68.73ZM50.09,54.81c.09-.06.26-.14.26-.17-.12-.32.12-.39.32-.5,0,0,0-.1,0-.15s-.13,0-.17,0a4.13,4.13,0,0,0-.58.33,1.41,1.41,0,0,0-.25.29Zm-1.31-2.05a2.11,2.11,0,0,0,.14-.41.9.9,0,0,0-.11-.34,1.13,1.13,0,0,0-.26.16,1.22,1.22,0,0,0-.26.3.48.48,0,0,0,0,.27s.09,0,.14,0ZM27.86,7.24c-.15-.13-.24-.24-.26-.23s-.35.19-.41.34.1.29.16.44Zm-24,30.93.38.24.06-.13c-.24,0-.13-.58-.49-.32a7.33,7.33,0,0,0-.71.76l.09.08ZM1.36,43.6h0l.52-.89s0-.07-.07-.09a.1.1,0,0,0-.09,0,4.89,4.89,0,0,0-.5.52.67.67,0,0,0,0,.35S1.32,43.57,1.36,43.6ZM12.66,63c.11.26.19.49.3.71a.28.28,0,0,0,.25.07.71.71,0,0,0,.2-.25s0-.09-.07-.11C13.13,63.28,12.92,63.16,12.66,63ZM27.83,14.26l.4-.85C27.5,13.91,27.5,13.91,27.83,14.26Zm25.81,45-.29-.36c-.05.08-.15.16-.14.24a5.66,5.66,0,0,0,.13.56Zm-41.18-8.5a3.34,3.34,0,0,0-.38.42s.08.13.13.2c.15-.12.31-.24.45-.37ZM27.54,4.91h.06l0,.19.49-.22a.56.56,0,0,0-.34-.06l-.44,0v.54h.13Zm-13.26,47-.06.83a.14.14,0,0,0,.08.09.28.28,0,0,0,.11-.08C14.77,52.45,14.42,52.19,14.28,51.91Zm-4.9,4.91-.15.07.24.62a.69.69,0,0,0,.18-.16C9.9,57,9.49,57,9.38,56.82ZM28.56,9.4c.14-.13.27-.21.26-.24a2.82,2.82,0,0,0-.24-.36c-.07.08-.2.16-.21.24S28.47,9.24,28.56,9.4ZM20.37,57.76a.39.39,0,0,0-.06.19,1.82,1.82,0,0,0,.11.3c0,.07,0,.14.07.21s.19-.14.19-.21a2.34,2.34,0,0,0-.16-.49Zm5.37-45.57-.24,0,.12.59c.05,0,.15,0,.15-.06C25.77,12.57,25.75,12.38,25.74,12.19ZM30.53,4l-.5.89C30.47,4.75,30.54,4.4,30.53,4Zm20.81,47.6c.33,0,.42-.26.41-.55,0,0-.08-.13-.12-.12a.19.19,0,0,0-.14.12C51.43,51.19,51.4,51.36,51.34,51.58Zm4.54,2.57H56a1.21,1.21,0,0,0,.07-.4c0-.07-.17-.11-.27-.17a2.11,2.11,0,0,0,0,.26Zm-51-10.06.5-.21.12,0a1.6,1.6,0,0,0-.1-.31s-.12,0-.13,0S5.06,43.87,4.91,44.09ZM10.72,55v-.13c-.06,0-.13-.13-.18-.11a1.92,1.92,0,0,0-.31.18c.07.06.13.14.2.15A1,1,0,0,0,10.72,55Zm14-45.29.13,0L25,9.05l-.16,0ZM46.1,50.53l-.26.31.38.29c0-.05.09-.12.07-.16A2.42,2.42,0,0,0,46.1,50.53ZM11.61,61.35l.09,0v-.75l-.11,0a1.17,1.17,0,0,0-.08.36A1.4,1.4,0,0,0,11.61,61.35ZM31.25,13l0,.08.19.21.22.24s.11-.1.1-.12a1.27,1.27,0,0,0-.22-.33C31.45,13,31.34,13,31.25,13ZM3.38,38.88a3.15,3.15,0,0,0,0,.46.37.37,0,0,0,.12.22s.16,0,.17-.06a.47.47,0,0,0,0-.26A4.07,4.07,0,0,0,3.38,38.88ZM27.55,5.7l-.16-.07-.32.65.11,0ZM51,71.67l-.12-.16-.43.34s.12.12.13.11S50.89,71.77,51,71.67Zm-39-18v-.11a1.31,1.31,0,0,0-.4,0s0,.17-.05.26ZM22.78,14.15l-.34.2s-.11,0-.16,0,0,.2.07.21C22.67,14.64,22.69,14.34,22.78,14.15ZM12.84,64.73v-.08c-.11,0-.27,0-.34,0s0,.21,0,.32ZM11.6,63.44c.14-.11.28-.19.27-.22a2,2,0,0,0-.2-.3,1.07,1.07,0,0,0-.16.27C11.49,63.24,11.55,63.31,11.6,63.44Zm-.81-9.34-.28-.44c-.06.06-.19.15-.18.18a.7.7,0,0,0,.22.26C10.61,54.14,10.71,54.1,10.79,54.1Zm1.16,10,.15.09c0-.09.11-.19.1-.27s-.12-.13-.19-.19-.14.11-.15.17S11.92,64.06,12,64.13Zm.41-12.22.09.07c.1-.12.2-.23.29-.35s0-.09-.05-.14l-.31.3S12.37,51.87,12.36,51.91ZM26.51,13.65l.08-.16c-.15-.05-.3-.11-.46-.15,0,0,0,.08-.07.13ZM45.76,50.08a1.44,1.44,0,0,0-.25.33c0,.05,0,.14.07.21a1.64,1.64,0,0,0,.28-.31S45.8,50.17,45.76,50.08ZM24.58,70.83c-.09.1-.18.16-.19.23s.1.2.13.19a1.17,1.17,0,0,0,.25-.16ZM10.93,58.33l-.35.29s0,.08,0,.11a1.22,1.22,0,0,0,.12.19c0-.05.09-.09.11-.15S10.89,58.5,10.93,58.33Zm2.17-7.91L12.88,50l-.15.09a2.71,2.71,0,0,0,.24.35ZM10.53,61.05l-.18,0-.07.5h.14A3.57,3.57,0,0,0,10.53,61.05Zm42-16.89.13.2a1.15,1.15,0,0,0,.17-.13,2.83,2.83,0,0,0-.2-.28ZM27.72,9.35l0-.1-.42.17.09.17ZM24.78,30.41l-.17.25a1.34,1.34,0,0,0,.24.12s.13-.1.12-.11A2.34,2.34,0,0,0,24.78,30.41Zm-.33-8.33L24.28,22l-.15.41.12.06ZM53.66,43.24v.16a2,2,0,0,0,.34,0s.07-.1.1-.15ZM19.45,20.18l-.15,0,0,.4h.11ZM13.23,63.76a4.43,4.43,0,0,0,0,.45.42.42,0,0,0,.09.14,1.94,1.94,0,0,0,.13-.3C13.43,64,13.35,63.92,13.23,63.76Zm-6-18.88c-.15-.37-.15-.37-.44,0ZM5,38.24c0,.09-.08.17-.07.22s.1.16.14.15.13-.09.19-.14Zm22.78,26.5h.17l-.08-.53h-.09Zm-13.53,0v-.11l-.41,0s0,.1,0,.15Zm.85-11.15c0-.11.09-.17.08-.22a.52.52,0,0,0-.11-.19c0,.06-.13.11-.13.17S15,53.44,15.06,53.55ZM49,49.48l0,.05.23.4.1-.1ZM14.58,52.8l.13.1.28-.41-.1-.06Zm34.15-2,0-.11-.34.06s.06.15.07.15A1.42,1.42,0,0,0,48.73,50.76ZM6.4,35.84c-.09-.07-.15-.14-.18-.13a1.77,1.77,0,0,0-.22.16c0,.05.1.14.12.13A1.73,1.73,0,0,0,6.4,35.84ZM23.34,24.32l.21-.27L23.43,24a1,1,0,0,0-.19.22S23.29,24.26,23.34,24.32ZM25.83,7.85l-.16-.16-.19.19c.06,0,.12.12.18.12S25.77,7.91,25.83,7.85ZM13.93,66.62c-.13,0-.26,0-.31,0s0,.18,0,.37ZM46.17,38.8l0,.1.28-.1a.64.64,0,0,0,0-.15ZM29.69,2.32l-.19-.13c0,.05-.07.1-.07.13a1.51,1.51,0,0,0,.1.17ZM11.32,58.17l.06-.11-.38-.2L11,58ZM54.14,45.25a.74.74,0,0,0-.07.18.61.61,0,0,0,.07.17s.15-.08.15-.11S54.22,45.37,54.14,45.25ZM29.44,70.48l-.06-.08-.33.25.08.09Zm-3.71-61-.15-.14c-.07,0-.13.12-.2.18s.09.07.13.07A2.24,2.24,0,0,0,25.73,9.52ZM10.36,60.34l.11,0c0-.09.07-.17.1-.27l-.1,0ZM24.29,71.43l0,.12.31-.13,0-.06ZM40.1,35.76l.12,0,.06-.38-.1,0Zm16.17,11.8,0-.13-.3.12s0,.07,0,.11ZM20.7,58.62a1.24,1.24,0,0,0-.05.31s.07.07.11.11a.86.86,0,0,0,0-.23S20.77,58.74,20.7,58.62Zm37.57-6.21.07-.11L58,52.14l0,.09ZM53.82,45l.07.05.16-.2s0-.06-.06-.09ZM5.26,37.88a2.38,2.38,0,0,0-.14.23s.09.08.1.08A.65.65,0,0,0,5.35,38S5.31,38,5.26,37.88ZM24.78,22.11,24.66,22a.35.35,0,0,0-.08.13s0,.07.06.1Zm4.2,52,.13-.07-.2-.27-.08,0Zm8.3-27.73c-.1-.06-.14-.1-.18-.1s-.09,0-.13.06,0,.12.07.12A.72.72,0,0,0,37.28,46.36Zm18.17.1c-.05.07-.12.11-.11.14a2.56,2.56,0,0,0,.11.24s.12-.07.12-.1A2.58,2.58,0,0,0,55.45,46.46Zm.26.79c0-.08.07-.12.06-.14a.94.94,0,0,0-.09-.12s-.07.07-.06.1S55.66,47.17,55.71,47.25ZM13.54,66c-.07.06-.13.1-.14.15s0,.09.07.14l.16-.17S13.58,66,13.54,66ZM27.76,8.44V8.37h-.29v.07Zm-1.64.82,0,0-.23.15.13.1Zm3.76-3.48c.09,0,.13.09.17.09s.09,0,.13-.06-.06-.08-.09-.09S30,5.74,29.88,5.78Zm-3,57.78c-.06,0-.09-.08-.11-.08a1.1,1.1,0,0,0-.14.09s.08.09.11.09S26.84,63.6,26.9,63.56ZM37.68,47.33v.12l.29,0v-.11Zm-4.11-.9,0-.1-.3-.08,0,.1ZM11.12,62.24c.05-.08.1-.12.1-.16a.79.79,0,0,0-.08-.16s-.08.09-.09.13S11.08,62.14,11.12,62.24ZM20.86,17c0-.15.07-.2.05-.22a.45.45,0,0,0-.13-.11ZM42.13,49.16v.1l.32,0v-.12Zm5.43,25-.1-.14s-.11.07-.11.09a.48.48,0,0,0,.08.16ZM43.3,75.28a.42.42,0,0,0,.14.08.45.45,0,0,0,.14-.1s-.06-.1-.07-.1A1,1,0,0,0,43.3,75.28ZM12.67,56.1l.09-.08-.15-.21-.09.08C12.56,56,12.62,56,12.67,56.1Zm26.38-7c-.08,0-.14-.06-.17,0s-.09.1-.13.16.09.07.13.07S38.94,49.2,39.05,49.08Zm-9.7-47a1,1,0,0,0,.09-.17s-.05,0-.08-.07a.6.6,0,0,0-.09.13S29.31,2,29.35,2.09Zm8.13,73.85-.11,0-.07.32.09,0Zm15.8-22.88.07,0s0-.09,0-.12a.68.68,0,0,0-.12-.12Zm0-8.75-.05,0s-.08,0-.08.08a1.22,1.22,0,0,0,0,.17ZM38,76.15l-.07.08.06,0a.39.39,0,0,0,.1-.08ZM54.21,43.81c0-.07.08-.11.07-.13s-.08-.11-.11-.16-.08.08-.08.1A1.14,1.14,0,0,0,54.21,43.81ZM16.64,54.1l0-.09a.76.76,0,0,0-.08.11s0,.05,0,.08Zm-2.6.18s-.06-.05-.09-.05,0,0,0,.06,0,.06.05.09ZM31.71,74.64l-.11-.13a.33.33,0,0,0-.06.1.61.61,0,0,0,0,.13ZM38,48a1.92,1.92,0,0,0,.19-.17s-.06-.1-.09-.1a.16.16,0,0,0-.12.08S38,47.85,38,48ZM1.39,42.42c-.06.1-.09.14-.09.19s.05,0,.08.07.07-.07.08-.11S1.43,42.5,1.39,42.42Zm48.92-.6-.09-.07s0,0,0,.07,0,0,.06,0Zm-19.93-39-.1-.12s-.09.06-.08.07a.34.34,0,0,0,.09.12Zm-15.86,47c.05-.08.1-.13.1-.17s-.06-.08-.1-.12-.08.09-.08.14S14.48,49.82,14.52,49.89ZM30.81,3.18c0-.05-.08-.11-.09-.1a.47.47,0,0,0-.12.09s0,.08.07.08A.9.9,0,0,0,30.81,3.18ZM50.05,47.25s-.06-.09-.09-.09a.14.14,0,0,0-.09.08.6.6,0,0,0,.09.13Zm-1.5-8.08c0,.1-.06.17-.07.23s0,.06.06.09l.15-.13S48.66,39.31,48.55,39.17Zm.09,0c-.06-.08-.09-.14-.13-.16s-.08,0-.12.08a.36.36,0,0,0,.1.11S48.57,39.21,48.64,39.19Zm-5.91,10.6c0,.06-.07.1-.07.14s.07.07.08.07l.14-.14ZM2.57,38.71l-.07,0s-.07.07-.08.11a.4.4,0,0,0,0,.15l.09-.13A.38.38,0,0,0,2.57,38.71ZM35.3,47l-.15-.1s-.08.09-.07.11a.21.21,0,0,0,.13.07S35.26,47,35.3,47Zm8.06-9.89h-.12v.28l.1,0A1.93,1.93,0,0,0,43.36,37.1Zm-2.79-.88s.07-.09.06-.1a.32.32,0,0,0-.12-.08s0,0-.07.06Zm-26.91,29a.45.45,0,0,0-.13-.06.14.14,0,0,0-.08.07s0,.06,0,.09Zm22-18.61-.06,0a2.39,2.39,0,0,0,.13.21l.1-.05Zm-7-34.89c.06,0,.09.08.11.08a.13.13,0,0,0,.09-.07s0-.07,0-.1ZM13,59.49a.49.49,0,0,0-.15-.09s-.07,0-.1,0l.17.17Zm9.27-45.24c-.06,0-.09-.08-.13-.09s-.07.06-.07.09a.67.67,0,0,0,.06.12ZM10.84,51c-.13.08-.18.1-.18.12a.29.29,0,0,0,0,.16ZM22,15.51l0-.08s-.07,0-.09,0a.71.71,0,0,0-.15.08ZM56.59,61.79c0,.06-.07.11-.06.13a.53.53,0,0,0,.13.13s.06-.07.05-.09ZM21.11,16.25s-.09,0-.1.07,0,.07,0,.11.08,0,.11-.08S21.13,16.29,21.11,16.25Zm30.14,45,0-.13-.13.06s0,.08.06.09S51.2,61.26,51.25,61.25ZM54.77,46l-.07-.1s0,0,0,.06a.18.18,0,0,0,0,.1ZM11.48,60.42l-.05-.13a.29.29,0,0,0-.11.11s0,.06.06.09Zm49.65-.56s-.08,0-.1,0-.05.06-.07.09S61,60,61,60,61.09,59.91,61.13,59.86ZM25.83,13.59c0-.05.08-.08.08-.11a.42.42,0,0,0-.08-.12l-.09.06A.71.71,0,0,0,25.83,13.59ZM46,50.35l.07,0,.07-.23-.06,0ZM19.07,23.2,19,23.11s0,0,0,.06a.18.18,0,0,0,0,.09Zm7.05,2.61.15.1a.36.36,0,0,0,0-.11.12.12,0,0,0-.08-.06S26.17,25.77,26.12,25.81Zm-1.57,5.06a1.82,1.82,0,0,0-.1.19s.06.05.09.07a1.3,1.3,0,0,0,.1-.15S24.59,30.92,24.55,30.87ZM27,9l.09-.1s-.05,0-.07,0l-.11.1ZM39.69,35.65s.06,0,.07,0a.16.16,0,0,0,.07-.07s0,0-.06,0S39.72,35.62,39.69,35.65ZM12.37,58.82l.06-.08-.12,0s-.08,0-.09.05,0,.06,0,.1ZM47.44,50c-.08-.06-.11-.09-.14-.09s-.07,0-.07.07a.18.18,0,0,0,.08.09S47.38,50,47.44,50Zm9.88,16.21.06-.1s-.06,0-.09,0,0,0-.07.07Zm-5.61-8.82h0v.3h0Zm-37.4,9.73a1.12,1.12,0,0,0-.08.18s0,0,.08,0a.52.52,0,0,0,.06-.13S14.34,67.12,14.31,67.07Zm1.91.43c-.06,0-.12.07-.11.09a.39.39,0,0,0,.05.14s.1,0,.1-.06A1,1,0,0,0,16.22,67.5ZM58.16,51.87,58,51.7s-.06.07,0,.09a.36.36,0,0,0,.11.14S58.09,51.9,58.16,51.87ZM30.08,6.22l.09-.12s-.07,0-.1,0-.07.05-.11.08Zm21.5,45.69a.28.28,0,0,0-.09-.07s-.05,0-.08.07l.11.11ZM29.45,3.35c0-.05.07-.08.07-.1s-.05-.06-.08-.09-.06,0-.06.07S29.42,3.29,29.45,3.35ZM51.26,41.06l-.09-.1-.09.15s.07.07.08.06A1.09,1.09,0,0,0,51.26,41.06ZM28.9,44.89l-.11,0a.53.53,0,0,0,.13.13S29,45,29,45ZM6,43.15l-.09.08.07.07L6,43.21Zm-4.16.4a.44.44,0,0,0,.09-.16s0,0,0-.08-.07.07-.08.12S1.78,43.49,1.8,43.55ZM40.35,49l-.07.12a.56.56,0,0,0,.13.07s.07-.06.06-.07Zm15.78,5.81.08-.14s-.05,0-.06,0a.52.52,0,0,0-.11.1ZM34,75.85l-.11-.06a.38.38,0,0,0-.09.12s.06.06.07,0A.58.58,0,0,0,34,75.85ZM52.31,43.74l.08.08.19-.18-.09-.09ZM14.86,53c-.12,0-.17-.08-.2-.07s-.08.06-.12.09.05.08.07.08ZM34.24,76.42s.08-.07.09-.1,0,0,0-.07-.07,0-.07,0A1.15,1.15,0,0,0,34.24,76.42Z"/><path d="M5.78,45.31l.06.62a1.09,1.09,0,0,0-.3.12c-.13.11-.23.25-.35.37-.05-.06-.15-.13-.14-.17a1.67,1.67,0,0,1,.25-.58,2.58,2.58,0,0,1,.49-.36Z"/><path d="M31.29,33h0L31,32.27a7.84,7.84,0,0,1,.77.56c.11.11.13.31.2.46h0c-.13-.07-.26-.14-.4-.2A1.51,1.51,0,0,0,31.29,33Z"/><path d="M40.64,76.26l.34,0,.73-.12h0c0,.07,0,.2-.06.21-.3.1-.61.18-.91.25A2.57,2.57,0,0,1,40.64,76.26Z"/><path d="M28.64.34l-.12.4c-.22-.12-.2-.12-.19-.31S28.19.31,28.05.2L29,0,29,.09l-.38.27Z"/><path d="M32.34,10.23l.2.12-.13.19c-.06.12-.1.25-.17.37s-.1.08-.15.12-.09-.11-.09-.16C32,10.63,31.83,10.28,32.34,10.23Z"/><path d="M.25,44.61l.38-.45L.82,44c.05.09.15.19.15.28a.67.67,0,0,1-.23.39l0-.34c-.2.09-.14.65-.53.3Z"/><path d="M18.14,70.16c-.21.17-.19.69-.79.43l.72-.5Z"/><path d="M24.51,8.64c.11-.24.37-.65.3-.71-.4-.38.24-.25.16-.43-.16.37.08.92-.47,1.14Z"/><path d="M28,4.27l-.2.26-.32-.27h0a1.57,1.57,0,0,1,.12-.3,1.52,1.52,0,0,1,.22-.22,2.19,2.19,0,0,0,0,.27C27.93,4.11,28,4.18,28,4.27Z"/><path d="M51.74,41.45c.13-.22.31-.31.49-.08,0,.06-.1.26-.16.4l-.34-.33Z"/><path d="M9.6,59.28a.29.29,0,0,1-.43-.14s.08-.16.14-.23.23-.09.26.09a1.37,1.37,0,0,1,0,.29Z"/><path d="M25.24,12.57c-.14.13-.26.27-.41.39s-.14,0-.21,0L25,12.4l.26.17Z"/><path d="M2.35,44.71c0,.08-.07.17-.12.25s-.13.17-.2.26a2.4,2.4,0,0,1,0-.46s.13-.08.21-.12l0,0,.19.1Z"/><path d="M23.57,13.28a.67.67,0,0,1,0-.25,1.39,1.39,0,0,1,.18-.31s.12,0,.11.07a1.26,1.26,0,0,1-.1.38c0,.05-.15.07-.22.1Z"/><path d="M39.58,76a.51.51,0,0,1,0,.2,2.43,2.43,0,0,1-.16.37s-.11,0-.11-.08a2.48,2.48,0,0,1,0-.47l.21,0Z"/><path d="M59.75,50.41a3.47,3.47,0,0,1,.13.46c0,.06-.08.14-.12.21l0-.19c0-.16-.07-.32-.11-.48Z"/><path d="M23.16,13.18l.41.1h0c-.08.09-.15.19-.22.28l-.22-.34Z"/><path d="M26.6,25.12a1.66,1.66,0,0,1-.27.23s-.15-.11-.14-.15a1.16,1.16,0,0,1,.14-.27Z"/><path d="M11.26,66c0,.12.09.2.08.27s-.08.11-.12.17-.18-.14-.17-.2S11.16,66.1,11.26,66Z"/><path d="M1.15,45.07,1,45.32a.84.84,0,0,1-.07-.26c0-.07.1-.13.16-.19Z"/><path d="M9.27,61.76l.17-.49.18.24Z"/><path d="M22.16,73.16h0l.17,0-.27.3h0C21.88,73.33,22,73.23,22.16,73.16Z"/><path d="M31.45,2.61l.09-.35.18.24-.28.1Z"/><path d="M1.07,46.07S1,46,1,46l.19-.52c0,.06.09.14.07.19A2.4,2.4,0,0,1,1.07,46.07Z"/><path d="M9.4,60.09v.15l-.23.18s-.05-.09,0-.1A3.11,3.11,0,0,1,9.4,60.09Z"/><path d="M47.75,38.22c.07.12.12.18.11.22a.67.67,0,0,1-.1.21c0-.06-.11-.11-.13-.18S47.69,38.36,47.75,38.22Z"/><path d="M2.26,45.37v.1l-.38.26,0-.06C2,45.56,2.12,45.47,2.26,45.37Z"/><path d="M9.26,61l0-.38s.15.06.14.08a2.29,2.29,0,0,1-.07.34Z"/><path d="M22.89,12.86l.27.32,0,0c-.24,0-.47-.05-.22-.36Z"/><path d="M51.56,72l.23-.06c0,.07,0,.17,0,.21s-.15,0-.22.05l0-.22Z"/><path d="M22.05,73.5c-.05.2-.08.42-.38.3h0l.38-.3Z"/><path d="M58.89,49.2l-.15.12a1.24,1.24,0,0,1-.19-.26s.06-.07.1-.11Z"/><path d="M5.26,45.13h.09l0,.33s-.15-.07-.15-.1A.75.75,0,0,1,5.26,45.13Z"/><path d="M24.23,13.51a.72.72,0,0,1-.19.11s-.11-.08-.11-.09a.79.79,0,0,1,.18-.22s.12,0,.19,0Z"/><path d="M27.42,2.26a2.16,2.16,0,0,1-.25.1s-.09-.1-.08-.1a1,1,0,0,1,.2-.16A1.18,1.18,0,0,1,27.42,2.26Z"/><path d="M1.27,45.18l.24-.28.07.06-.25.3Z"/><path d="M27.27,3.06l.47,0,0,.09-.49.06Z"/><path d="M24.93,7.37a1.63,1.63,0,0,1-.11-.23s.06,0,.09-.07l.11.26Z"/><path d="M59.68,50.07c-.13,0-.18.08-.23.07a.36.36,0,0,1-.17-.13s.06-.12.06-.12A3.13,3.13,0,0,1,59.68,50.07Z"/><path d="M32,3.66l.17.21s-.05.06-.08.08L32,3.73Z"/><path d="M28.68,2.37l-.11.17-.17-.17s.07-.07.1-.07A.71.71,0,0,1,28.68,2.37Z"/><path d="M41.71,76.12l.47,0,0,.15-.44-.19Z"/><path d="M30.29.76c.05.11.09.16.08.2a.6.6,0,0,1-.09.15S30.19,1,30.19,1,30.24.89,30.29.76Z"/><path d="M57.8,47.89a1.81,1.81,0,0,1,.18.21s0,0-.07.08l-.2-.22Z"/><path d="M16.62,71.6l.14-.31.09,0-.15.31Z"/><path d="M22.9,12.85l-.26-.14.1-.1.14.25Z"/><path d="M26.54,4.19l.31.06v.1l-.32-.06Z"/><path d="M21.67,73.8l-.14.24-.1-.12.25-.1Z"/><path d="M20.22,17.4l-.08.09L20,17.32s.08-.07.09-.06A1.85,1.85,0,0,1,20.22,17.4Z"/><path d="M.5,41.48l-.1.13s-.07-.08-.07-.11.06-.07.09-.11Z"/><path d="M3.83,44.68c-.06,0-.11.06-.12,0a.43.43,0,0,1-.11-.12l0,0Z"/><path d="M31.31.92c-.07.07-.1.12-.14.14s-.08,0-.12-.06,0-.11.08-.13S31.22.89,31.31.92Z"/><path d="M28.51,1l.14.38-.1,0c0-.14,0-.27,0-.41Z"/><path d="M31.56,1.67l-.07.11a.18.18,0,0,1-.07-.08s0-.06,0-.06Z"/><path d="M54.33,42.57l-.09.31a.43.43,0,0,1-.05-.13S54.24,42.68,54.33,42.57Z"/><path d="M31.85,3.19V3l.06,0,0,.27h-.09Z"/><path d="M27.58,3.54a.86.86,0,0,1-.2.06h-.11s.07-.09.12-.11S27.46,3.51,27.58,3.54Z"/><path d="M25,6.46V6.21h.06v.26Z"/><path d="M11.66,66.39l-.14.19s0,0,0,0a1.08,1.08,0,0,1,.08-.19Z"/><path d="M5.22,36.26,5,36.44a.76.76,0,0,1,0-.16s0-.07.06-.07A.85.85,0,0,1,5.22,36.26Z"/><path d="M22.7,11.84l.16-.21.06,0c-.05.06-.09.13-.14.2Z"/><path d="M18.74,21.86l-.1,0,.12,0h.06Z"/><path d="M9.44,62.56a.78.78,0,0,1,0-.14s0,0,0,0l.07.13Z"/><path d="M56.11,45.2a.41.41,0,0,1,0-.12s0,0,.07,0a.48.48,0,0,1,0,.12S56.15,45.18,56.11,45.2Z"/><path d="M59.76,51.77a.52.52,0,0,1-.07-.12.1.1,0,0,1,.07,0s.07,0,.1,0Z"/><path d="M60.29,51.76l0,.05a.09.09,0,0,1-.05,0l.06-.06Z"/><path d="M27.09,4.69,26.9,4.6l.05,0,.13.15Z"/><path d="M51,40.42l.11-.08.05.26h0L51,40.41Z"/><path d="M32.15,3.33l.15.15-.09.06-.05-.22Z"/><path d="M31.94,3.21c.2-.19.2,0,.21.12h0l-.22-.12Z"/><path d="M31.31,2.1l.1.07-.15,0-.07,0Z"/><path d="M28.37,1.86s.08.07.07.09,0,.05-.08.07L28.3,2Z"/><path d="M9.37,55.26l0,.07,0,0s0,0,0-.06Z"/><path d="M45.83,75.15s.06.06.05.06a.6.6,0,0,1-.09.13l-.06-.06A.64.64,0,0,1,45.83,75.15Z"/><path d="M0,44s0-.09,0-.1a.24.24,0,0,1,.1-.05s0,.06,0,.09Z"/><path d="M60.91,53.49l.07.13s-.06,0-.07,0l-.08-.13Z"/><path d="M33.39,76.5l-.09,0,.09-.13s0,0,.06,0Z"/><path d="M35.19,76.42l-.1.2L35,76.55l.18-.12Z"/><path d="M39.75,49.45a2,2,0,0,1,.33.15s.05.11.05.16,0,.07-.06.1L40,49.74l-.24-.21Z"/><path d="M30.33,46.09l-.15.35-.11,0,.12-.23Z"/><path d="M41.53,49.83c.06,0,.14,0,.18,0s0,.12,0,.18L41.52,50Z"/><path d="M50.12,57.07,49.94,57s0-.09.05-.09l.2.08Z"/><path d="M45.9,53c-.28-.23-.57-.45-.84-.69,0,0,0-.21.07-.29s.14,0,.22,0c0,.43.53.33.63.66l-.09.35Z"/><path d="M20.27,55.19c0,.22,0,.44-.08.66s-.09.12-.14.18-.16-.16-.14-.21a5.79,5.79,0,0,1,.31-.67Z"/><path d="M42.34,50.77a.41.41,0,0,1,.1.13c0,.09.07.2.11.3s-.09,0-.1,0-.38.21-.37-.14c0-.06.13-.12.19-.18a.44.44,0,0,0,.08-.1Z"/><path d="M22.75,59.8v.89c-.05-.21-.05-.39-.13-.45C22.18,59.93,22.57,59.91,22.75,59.8Z"/><path d="M27.34,44.64a1.39,1.39,0,0,1,.36.12c.05,0,0,.18,0,.27a.6.6,0,0,1-.2,0,1.61,1.61,0,0,1-.22-.23Z"/><path d="M20.49,56.51v0c.07-.16.14-.31.2-.46a2.83,2.83,0,0,1,.16.36c0,.07.13.24-.1.1-.06,0-.18,0-.27,0Z"/><path d="M24.31,44.69a3.83,3.83,0,0,1-.4.24s-.09-.08-.14-.12l.38-.23S24.22,44.63,24.31,44.69Z"/><path d="M46.07,52.78l0,0,.33.4L45.9,53h0Z"/><path d="M42,51l-.13.39a.6.6,0,0,1-.08-.21.56.56,0,0,1,.11-.2Z"/><path d="M48.79,55.33a1.8,1.8,0,0,1-.2-.24s.09-.1.1-.1a.81.81,0,0,1,.19.18S48.84,55.25,48.79,55.33Z"/><path d="M32.16,46.69c-.06,0-.12.07-.16.06s-.1-.07-.15-.11a.76.76,0,0,1,.19-.12.45.45,0,0,1,.19,0Z"/><path d="M22.27,59.12c-.13,0-.18,0-.21-.06a.76.76,0,0,1-.11-.14s.09-.05.1,0S22.15,59,22.27,59.12Z"/><path d="M32.54,46.92a.19.19,0,0,0,.08,0l.28,0,0,.12-.23-.1-.11-.08Z"/><path d="M19.82,55a1.83,1.83,0,0,1-.06.25s-.1,0-.15,0L19.7,55Z"/><path d="M29.79,45.86v.31h-.07v-.31Z"/><path d="M21,57.2l.28,0a.69.69,0,0,1-.06.14l-.27-.08Z"/><path d="M33.5,47.1l-.34.26c0-.09.05-.17.1-.21S33.38,47.13,33.5,47.1Z"/><path d="M31.5,46.3a.41.41,0,0,1,0,.19s-.08.09-.12.13l-.06,0a.64.64,0,0,1,.08-.14l.09-.13Z"/><path d="M24.24,61.71l-.07-.27.06,0,.08.27Z"/><path d="M26,45.09l-.16.2a.61.61,0,0,1,0-.19s.06,0,.1-.05Z"/><path d="M49.77,56.63l.06.13s0,0-.06,0a.58.58,0,0,1-.1-.12Z"/><path d="M47.12,52.1l-.21-.16.13-.09c0,.08,0,.17.07.26Z"/><path d="M36.77,48.89v-.26h.08l0,.27Z"/><path d="M37.33,48.69c-.07-.14-.1-.18-.1-.22s0-.09.06-.14.08,0,.08.06S37.35,48.51,37.33,48.69Z"/><path d="M36.32,48.35c-.06,0-.09.09-.11.09a.91.91,0,0,1-.14-.07s.06-.06.09-.07A.54.54,0,0,1,36.32,48.35Z"/><path d="M24.94,45.06,24.83,45a.36.36,0,0,1,.1-.11s.08,0,.12,0Z"/><path d="M38.83,49.76a.53.53,0,0,1-.14.08s-.06-.05,0-.07a.16.16,0,0,1,.07-.09S38.77,49.72,38.83,49.76Z"/><path d="M31,46.37s-.07.07-.1.07a.19.19,0,0,1-.1,0s0-.09,0-.09A.43.43,0,0,1,31,46.37Z"/><path d="M26.2,45.22l.18-.06v.05l-.16.09Z"/><path d="M46.73,52.71c0,.06.08.09.08.13s0,.06,0,.09-.07,0-.08-.07S46.71,52.79,46.73,52.71Z"/><path d="M41.3,50.41c-.1.06-.15.1-.16.09a.52.52,0,0,1-.1-.11s.06-.07.09-.07A1,1,0,0,1,41.3,50.41Z"/><path d="M40.06,50s.07.08.06.1,0,.06-.08.06-.07,0-.07-.06Z"/><path d="M32.54,46.92h-.33v-.05l.33.05Z"/><path d="M22,44c0,.07,0,.13-.05.2h-.07L22,44Z"/><path d="M24.82,44.67l-.09.2-.07,0,.1-.2Z"/><path d="M34.74,48l-.05.26a.5.5,0,0,1,0-.12S34.69,48.1,34.74,48Z"/><path d="M30.35,7.23a.83.83,0,0,1-.16.12s-.05,0-.08-.07a1.66,1.66,0,0,1,.13-.14Z"/><path d="M30.61,7.61s0,.08-.05.11l-.13.16-.05,0a.76.76,0,0,1,.12-.19s.07,0,.11,0Z"/><path d="M15.06,68.08h0Z"/><path class="cls-1" d="M27,7.73a2.14,2.14,0,0,1-.57-.45c-.07-.09,0-.36.14-.48s.22-.22,0-.48,0-.58,0-.88c0,0,.07,0,.11,0v.22h.09a1.87,1.87,0,0,1,0-.41c.05-.2,0-.49.29-.54h0l.44-.43h0l.23.38.09-.11.2-.26c.28-.47.26-.56-.13-.63.06-.15.13-.29.15-.35.31,0,.69.14.82,0a2.39,2.39,0,0,0,.35-.88c-.16,0-.16-.06-.17-.27S28.92,2,28.88,2s-.15-.23-.12-.29c.19-.33,0-.49-.25-.63h0c.56-.14.08-.46.13-.7l0,0h1.16s-.06.15-.11.16c-.46.13-.09.52-.24.74a2.47,2.47,0,0,0,.36-.11c.08,0,.16-.09.24-.13l0,.27-.13.36.13,0V1.29c.12.05.33.11.33.16a.72.72,0,0,1-.14.48c-.17.16-.18.21,0,.32a1.16,1.16,0,0,1,.28.3s.13.23.15.22c.25,0,.25,0,.24-.33l.5.17h0c.13.2.08.53.41.59h0c-.28.47.1.85.17,1.28,0,0,.13.13.16.11.34-.13.23.14.25.28s-.18.48.25.3c0,.07.07.14.06.2a2.83,2.83,0,0,1-.14.41c0,.06-.08.12-.07.17s.1.34.12.52a2.15,2.15,0,0,1-.29.1c-.37.16-.82.21-1,.66l-.14-.29c.09-.44-.11-.6-.53-.54l0-.6c-.3.35-.5.64-.75.88s-.66.59-1,.89c-.13.14-.19.35-.34.46-.39.32-.39.4,0,.62,0-.09,0-.26,0-.31.25-.2.52-.37.79-.55a3.22,3.22,0,0,1-.29.48,3.22,3.22,0,0,0-.15.63c.47-.14.15.22.18.33s-.43.34.1.45c.23.05.2.18.3,0a1.62,1.62,0,0,1,.18-.2,1.87,1.87,0,0,0,0,.25.75.75,0,0,0,.15.24s.14,0,.19,0a7.84,7.84,0,0,0,.65-.64c.06-.07,0-.21.05-.32a1.83,1.83,0,0,1-.25.06.78.78,0,0,1-.22,0,1.36,1.36,0,0,1,0-.2,2.53,2.53,0,0,1,.3-.77c.2-.26.1-.33-.11-.42h0l.6-.69v.43L31,7.7l.14.08.12-.39s0,0,0,0c.5.24.5.24,1-.36.14.08.26.16.39.22s.36.1.12.34a.93.93,0,0,0-.24.53l.34-.28.06,0L31.92,9h.89c-.24.36-.42.69-.66,1a4.13,4.13,0,0,1-.65.6c-.14.12-.18.15,0,.26a3.55,3.55,0,0,1,.78.62.44.44,0,0,1,.08.34A4.82,4.82,0,0,1,32.13,13c-.4.89-.53,1.86-.86,2.78-.18.51-.47,1-.64,1.48-.05.13-.21.62-.65.39-.05,0-.15,0-.23.06.09.1.19.3.26.29.49-.06.21.13.16.33-.12.42-.15.86-.27,1.28a3.51,3.51,0,0,1-.48,1.1c-.39.49-.41,1.1-.7,1.61-.11.22-.28.4-.38.62s-.21.61-.33.91-.21.46-.31.7-.05.27-.12.35a.85.85,0,0,1-.44.28.68.68,0,0,1-.41-.27.33.33,0,0,0-.6,0,1.73,1.73,0,0,0-.14.31,1.2,1.2,0,0,0,0,.28,1.64,1.64,0,0,0,.23,0c.18-.07.34-.12.32.17a.28.28,0,0,0,0,.11c.45-.13.24.43.4.44a4.44,4.44,0,0,1-.19.55c-.25.54-.52,1.07-.78,1.6,0,.09-.14.19-.11.25.11.34-.2.54-.24.8a2.06,2.06,0,0,1-.44.93c-.12.17.05.52-.3.62.26.4-.08.6-.29.83,0,0,0,.12,0,.12h.23c.41-.1.8-.39,1.26-.08.15.1.42,0,.64,0h.91l.13-.2c0,.09.08.18.1.27a1.83,1.83,0,0,0,.94.71c.27,0,.27,0,.53.23a.45.45,0,0,0,.62-.06l.35.32.31-.35s0,0,0,0c0,.18.06.36.09.55l.52-.39h0c.08.16.12.38.25.48s.3-.12.45-.18h0c.15.08.3.14.44.23s.45.43.82.22c.08,0,.29.15.46.24.09-.58-.48-.84-.64-1.28A2.08,2.08,0,0,1,34,34.11c.13-.36,0-.8.49-.65,0,.16,0,.31,0,.47h.1c0-.14,0-.28-.08-.41a.1.1,0,0,0,0-.07,1.35,1.35,0,0,1,1.59,0,2,2,0,0,0,.7.07c.14,0,.25.23.4.36l.13-.34c.3.36.56.65,1.08.41.2-.1.43.12.46.42l.13-.31c.08.39.31.41.59.33a.31.31,0,0,1,.19,0c.17.1.33.22.5.34.07-.24.2.49.26,0l.42.28.17.14c0-.06-.07-.13-.06-.19a1.06,1.06,0,0,1,.12-.2l.11.15a3.54,3.54,0,0,0,.18.49s.17,0,.25,0l.46-.05-.07.37,1.18.11,0-.13a3.33,3.33,0,0,0,.21.63c0,.06.23,0,.35.07-.05-.25.15-.21.24-.17s.05.2.07.29c.33-.17.44-.1.84.53v-.5a2.84,2.84,0,0,1,.28.67.65.65,0,0,0,.41.66s0,.24,0,.26c-.27.07-.49.13-.3.49,0,0-.08.15-.14.25a1.58,1.58,0,0,0,.55-.14c.13-.1.18-.31.28-.45s.18-.24.25-.23c.56.06.72.25.8.81l0-.65a1.16,1.16,0,0,0,.65.62.74.74,0,0,0,.81-.23c.17.12-.1.49.3.41v.39c0,.12,0,.25-.07.25l.4-.15c-.09.2-.14.37.18.35l-.18-.35.23-.11c.14.34.63.49.52,1,0,.06.26.2.41.28a.34.34,0,0,0,.17,0c-.09-.17-.16-.37-.26-.56s-.49-.26,0-.49a.91.91,0,0,0,.73.81h0l0,.27.13-.09h0a.78.78,0,0,1,.2.16c.11.14.21.29.3.42l-.22.14.33.13h0c.07.14.14.28.22.41s.08.07.13.1v-.2c.33,0,.67-.06.93.22-.19.26-.19.26.11.74,0-.17-.09-.24-.07-.27a1.16,1.16,0,0,1,.18-.2,1.54,1.54,0,0,1,.08.19s.06.14.05.16c-.31.3,0,.5.22.71,0-.11-.13-.24-.11-.35a1.22,1.22,0,0,1,.17-.37c.14.07.28.13.41.21s0,.16,0,.16c.67,0,.22.49.31.72l.35-.14a1,1,0,0,1,0,.34c-.05.24-.18.14-.33.08s-.21,0-.32,0,0,.17,0,.19.25.07.45.13c0,0,.11-.17.2-.29s.16-.15.22-.21c0,.38,0,.38-.37.6,0,.15,0,.29,0,.43l.14,0-.16-.4c.24.17.49.33.8.13,0,0,.13,0,.13.07a1,1,0,0,1,0,.34c0,.06-.09.11-.14.16a2,2,0,0,0,.68.3c.27,0,.46-.2.55.31A10.9,10.9,0,0,1,56.73,47s.09.1.14.11c.27,0,.31.13.18.37a.41.41,0,0,0,0,.36,1.5,1.5,0,0,0,.48.49,1.45,1.45,0,0,0,.59,0,.48.48,0,0,1,0,.12c-.06.21-.21.43-.18.62s.33.19.51.24.41.23.3.53a.45.45,0,0,0,0,.23c.08.29.11.52-.32.48-.07,0-.26.31-.23.37a4.71,4.71,0,0,0,.58.69s.13,0,.2,0a1,1,0,0,0-.07-.15c0-.05-.09-.11-.08-.14.08-.21.18-.42.28-.65.17.28-.11.89.49.68l-.51,1,.1,0,.26-.28c.12.12.35.25.34.36s-.19.34-.24.55a.91.91,0,0,1,.23-.15s.11.07.12.12,0,.33,0,.36c.28.13.18.36.19.56a1.67,1.67,0,0,0,.08.32c0,.16.11.33.15.49s0,.26,0,.28c.53.27.25.52,0,.79,0,0,.08.11.12.17s.16.13.19.22-.1.12-.14.19a1.42,1.42,0,0,0-.07.22c.3,0,.2.16.21.37s.24.33.38.5c-.16.05-.35,0-.34.31s-.44.58.13.72c0,.1-.06.2-.07.3s0,.33-.06.49l-.09.33.08,0,.18-.35.33-.09-.25.32s0,.06,0,.07c.45.55-.16,1-.1,1.6a5.46,5.46,0,0,1-.2,1.64,3.53,3.53,0,0,1-.47,1.5c-.34.4-.24,1-.74,1.33-.21.15-.27.61-.65.74-.06,0,0,.24-.08.33a13.18,13.18,0,0,1-2,2.2,20.91,20.91,0,0,1-1.64,1.31.36.36,0,0,1-.32,0c-.68-.36-1.06.15-1.52.48s-.79.54-1.18.82c-.2.14-.39.3-.58.45v0c-.1.06-.26.09-.31.19a2.68,2.68,0,0,1-1.14.86,1.61,1.61,0,0,1-.48.12,4,4,0,0,0-.36.36c-.08.09-.09.29-.17.32s-.3-.1-.42-.06a4.5,4.5,0,0,0-.53.36s-.11,0-.25-.08l.1.46-.19,0c-.08,0-.19.06-.22,0-.2-.23-.29-.22-.43,0a.55.55,0,0,1-.17.2s-.1,0-.16,0a.88.88,0,0,1,0-.16s.09-.07.12-.11.11-.18.16-.27a1.87,1.87,0,0,0-.4-.07s-.06.14-.09.21a2.75,2.75,0,0,1-.08.3l-.16-.37c-.08.22-.1.46-.22.54s-.35,0-.52,0a1.63,1.63,0,0,0-.37.13c0,.06.12.11.13.16s0,.25,0,.29-.34.16-.38.11c-.2-.21-.25-.18-.42.06s-.42.21-.64.31c.11-.21.22-.42.32-.63a.48.48,0,0,0-.11-.06h-.26v.67a.28.28,0,0,0-.16,0c-.25.22-.37.14-.42-.16,0,0-.06-.05-.06,0a6,6,0,0,1-.81.28s-.14-.28-.23-.42-.11-.08-.17-.12,0,.14,0,.21,0,.13,0,.13-.38,0-.44,0c-.42-.63-.35-.07-.43.16a2.44,2.44,0,0,1-.1.24l-.34,0c-.07,0-.17-.1-.22-.07a3.64,3.64,0,0,0-.46.3c0-.16,0-.33-.05-.49s0-.13,0-.21l-.29.21h0c0-.41-.31,0-.43-.17,0,0-.13.09-.15.16-.08.29-.09.29-.34.1,0,0-.11,0-.16,0s0,.15,0,.2c.13.3,0,.35-.26.31a3,3,0,0,0-.78.09c-.16,0-.34.1-.27-.2a.34.34,0,0,0-.15,0l-.62.16-.11,0c0-.49-.48,0-.61-.26-.06,0-.14,0-.17.09s-.13.26-.22.45l-.11-.46h0c-.17-.25-.38-.06-.48,0s-.17.25-.34.06a.21.21,0,0,0-.2,0c-.33.24-.48-.08-.44-.25.09-.44-.21-.26-.37-.27a2.57,2.57,0,0,0-.5,0l.34.12c-.24.11-.44.23-.66.31a.21.21,0,0,1-.19-.07c-.18-.33-.37-.4-.77-.23.09-.58-.35-.4-.63-.45,0,0,0,.11-.08.16s-.11.11-.17.11a.73.73,0,0,1-.25-.08c0-.06,0-.16.07-.18s.26-.19.07-.29-.45-.14-.49-.07c-.24.33-.36,0-.49-.06a2.12,2.12,0,0,1-.29-.38l-.33.36a4.54,4.54,0,0,0-.38-.38.56.56,0,0,0-.23-.07l0-.29h-.14l.12.28a2.7,2.7,0,0,1-.31.28s-.13-.12-.2-.19-.2-.12-.23-.21a2.18,2.18,0,0,1-.09-.51c-.18.08-.4.31-.47-.14,0-.06-.17-.11-.26-.15s0,0-.07,0c-.18-.45-.68-.29-1-.52s-.36-.24-.55,0c0,0-.14,0-.22,0a.74.74,0,0,0,.12-.13c0-.06.06-.17,0-.19-.18-.17-.38-.32-.57-.48.36-.23-.12-.49-.15-.79,0,0-.22-.12-.24-.1a1.45,1.45,0,0,0-.4.5,6.93,6.93,0,0,0-.17.79.35.35,0,0,1-.23.06c-.25-.41-.39,0-.56.08a1.71,1.71,0,0,0-.26.21,1.35,1.35,0,0,1-.15-.26c-.09-.2-.12-.2-.31,0h0l.19-.51a2.44,2.44,0,0,1,.1-.24.48.48,0,0,1-.16.08s-.08,0-.08,0,0-.22.05-.28.17,0,.26,0a2.1,2.1,0,0,1,.3.15c.11-.44.36-.42.68-.23,0,0,.18-.16.17-.17a1.51,1.51,0,0,0-.39-.47c-.38-.21-.92.16-1.26-.36-.09-.14-.48,0-.71-.11a6.39,6.39,0,0,1-.6-.26c-.19-.08-.43-.26-.39.18,0,.07-.09.15-.14.22S20.06,71,20,71c-.1-.27,0-.63-.46-.73-.07,0-.09-.25-.13-.38l-.06-.22c-.08.07-.22.13-.23.22s.07.4,0,.55c-.16.36-.33.68,0,1-.06,0-.15.16-.16.15s-.32-.21-.3-.27c.07-.28,0-.38-.27-.31,0,0-.1-.07-.15-.1s.08-.12.14-.14.44-.14.73-.24a4,4,0,0,0-.52-.38c-.24-.12-.41-.26-.39-.56a.7.7,0,0,0-.08-.27c-.07.06-.16.1-.2.18-.18.34-.24-.14-.38-.06s-.08-.13-.13-.19c-.09.1-.24.21-.25.32,0,.47,0,.94,0,1.5-.28-.22-.46-.44-.67-.1,0,0-.12,0-.18.06s-.05-.18,0-.24a3,3,0,0,1,.24-.37c-.19,0-.39,0-.39-.06,0-.28-.21-.31-.39-.4a.37.37,0,0,1-.13-.2c-.05-.15-.07-.09-.29-.17s-.42-.38-.66-.49-.23-.76-.76-.56c0,0-.16-.07-.16-.11,0-.44-.46-.46-.67-.7a2.45,2.45,0,0,1-.26-.37,2.49,2.49,0,0,1-.11-.29,3.08,3.08,0,0,0-.27.24c-.05,0-.05.13-.09.19a.93.93,0,0,1-.13.15,1.43,1.43,0,0,1-.08-.22L12.07,67a2.27,2.27,0,0,1-.26.28c-.06,0-.13.08-.2.13,0-.11,0-.24,0-.31s.32-.28.45-.45.05-.24.07-.36a2,2,0,0,1-.24,0c-.25,0-.21-.27-.29-.41a.64.64,0,0,1-.06-.43c.07-.28,0-.39-.28-.36a1.17,1.17,0,0,1-.08-.31c0-.12.08-.33-.19-.19,0-.1-.16-.23-.13-.28.28-.46-.3-.65-.3-1a.73.73,0,0,0-.22.09,2.83,2.83,0,0,0-.24.25,1.77,1.77,0,0,1-.26-.41c0-.06.13-.17.2-.25l.16.25,0-.35c.25-.36-.06-.66-.15-1a5.32,5.32,0,0,0-.45-.75c0-.07.05-.21.09-.31s.17-.28.24-.44,0-.12,0-.18-.1.11-.14.1a4,4,0,0,1-.43-.12v-.15l.2-.81h0a3.78,3.78,0,0,0,.21-.56.69.69,0,0,0-.05-.37c-.05-.15-.12-.28-.18-.43l-.24.24c-.12-.24-.44-.57-.38-.82s-.55-.7.05-1c0,0,0-.07,0-.07-.41-.25,0-.4.08-.61.17.26.32.51.49.73a.28.28,0,0,0,.25,0A.85.85,0,0,0,9.9,56c-.1-.4,0-.88-.42-1.16-.12-.09-.32-.06-.45-.13-.39-.2-.15-.54-.14-.82s.11-.43.45-.34a.34.34,0,0,0,.45-.37.45.45,0,0,0-.28-.32c-.11,0-.27.1-.39.15-.58-.37-.23-1-.24-1.45a6.38,6.38,0,0,1,.15-1c0-.06-.14-.14-.13-.21,0-.38.07-.76.11-1.14,0,0,.08-.1.07-.12A1.76,1.76,0,0,1,9,48c.12-1,.11-2,.27-3a.6.6,0,0,0,0-.23,1.43,1.43,0,0,0-.22.08c-.49.34-.68.27-.79-.41L6.5,45.74a.32.32,0,0,1,0-.16c.09-.52.1-.52-.42-.37.08-.16.16-.32.23-.48s.11-.26.16-.39l-.17,0,0,.42L6,44.57l.11.64.06.32c-.29.11,0-.47-.36-.22h0s0-.06,0-.08l-.23-.43-.21.34H5.26c0-.18,0-.12-.12-.13-.39,0-.53.15-.57.49,0,0-.09.08-.14.12a1.72,1.72,0,0,0-.07-.21,3.38,3.38,0,0,0-.11-.34l-.09.34a1.67,1.67,0,0,1-.21.45c-.08-.31-.27-.59.1-.87.16-.11.21-.37.31-.56l.37,0,0-.13-.34.08c-.13.08-.27.25-.36.22s-.26-.21-.39-.32a.23.23,0,0,0-.15,0c-.16.21-.29.44-.46.64s-.15.44-.5.43c-.18,0-.21.08-.24,0v-.1c0-.1.45.06.17-.27,0,0,.08-.23.13-.34V45l.11,0-.12-.22-.2-.06h0c.2-.11.41-.22.6-.34s.08-.12.12-.19H2.87a.91.91,0,0,0-.7.44l0,0a.69.69,0,0,0-.68-.48c-.06,0-.11-.1-.17-.15s-.18-.21-.28-.23S.58,43.6.48,44s-.15.43-.23.65h0a4.87,4.87,0,0,1,0-.54,1.39,1.39,0,0,1,.12-.36l.87-1.81.14,0v.31c.08-.08.15-.19.25-.23s.48-.1.1-.35a.56.56,0,0,1,.14-.32c.26-.18.12-.27-.07-.36l.89-.49c-.07-.29-.06-.28-.41-.08-.19.11-.47.31-.6.24s-.64-.16-.47-.62l.55.11a1.17,1.17,0,0,1,0-.26c.07-.25.08-.24-.21-.27,0,0-.11-.11-.1-.14a1.29,1.29,0,0,1,.19-.32,3.33,3.33,0,0,1,.62-.57c.11-.06.34.08.54.13-.23-.28-.36-.62.09-.85.07,0,.23.1.35.16.23-.29.41-.67.86-.83.22-.07.38-.32.57-.47s.17-.09.2-.06.24.22.37,0,.37-.29.07-.53.17-.72.4-.78a3.78,3.78,0,0,0,.69-.26,1.57,1.57,0,0,0,.17-.31c.09-.26.2-.3.43-.15.05,0,.15.08.18.06.19-.14.37-.3.55-.45s.3-.28.46-.41.18-.12.26-.19.13-.31.27,0c0,0,.09.05.11,0l.51-.48c.06.08.07.28.28.06a.89.89,0,0,1,.75-.26c.22,0,.46-.28.71-.45.08.2.22.25.37,0,0,0,.16,0,.16,0,.09.23.17.27.25,0,0,0,.1,0,.15,0,.78,0,.83,0,1.12-.78a1.63,1.63,0,0,1,.23-.35c0-.06.12-.14.1-.17-.16-.37.11-.61.24-.89s.18-.46.28-.68.32-.63.46-.95c.21-.48.36-1,.59-1.45a9.22,9.22,0,0,1,.62-.78,1,1,0,0,0,.1-.45c0-.43.11-.82.58-1a.16.16,0,0,0,.06-.13c-.17-.33.17-.37.28-.55s0-.31,0-.47l.23.11-.12-.34c.09-.22.18-.45.28-.66,0,0,.15,0,.22,0s0,0,.05.06l.05-.1c.17-.27.33-.54.5-.8a.88.88,0,0,1,.2-.18,1.11,1.11,0,0,1,.07.26.94.94,0,0,1-.07.37c-.11.23-.3.47.2.36-.07.33-.58.45-.29.85-.16,0-.28.39-.5.07,0,0-.1.05-.12.09a1.68,1.68,0,0,0-.09.32c-.05.27.28.56,0,.84,0,0,.06.09.11.11a.14.14,0,0,0,.14,0,2,2,0,0,0,.28-.67.79.79,0,0,1,.27-.64,1.27,1.27,0,0,0,.13-.19c0-.07,0-.16.05-.22a1.28,1.28,0,0,0,.23-1.1c0-.08.1-.26.16-.26.39,0,.4-.19.25-.49,0-.08,0-.21,0-.32v-.44l-.63.86c-.14-.18-.12-.17,0-.54a1.41,1.41,0,0,0,0-.58c.1,0,.25.06.28,0,.23-.3.24-.45.11-.57s-.05-.09-.07-.13c.31,0,.13-.31.2-.45a9.25,9.25,0,0,1,.7-1,1,1,0,0,0,.06-.18c.06-.24,0-.58.41-.57a.93.93,0,0,0,.05-.14l.08-.09s.12-.09.11-.11c-.29-.49.14-.69.37-1s.72-.78.7-1.37c0,0,.1-.08.12-.13s.08-.26.11-.39-.17-.35.16-.19c0-.1.13-.2.12-.3,0-.47,0-.48.4-.38a1.25,1.25,0,0,0,.33,0c.14,0,.35-.16.25.18l.41.15a1.14,1.14,0,0,1,.38.13c.25.18.44.19.57-.12a.77.77,0,0,1,.57-.49.65.65,0,0,0,.42-.78h0l.23-.28c-.1-.08-.19-.2-.29-.21-.29,0-.53-.05-.5-.42-.11,0-.08-.4-.3-.11-.07-.07-.16-.13-.19-.22s0-.22,0-.24a.83.83,0,0,1,.38-.1c.06,0,.13.12.19.13a2.56,2.56,0,0,0,.39,0l-.27-.21c-.05,0-.15-.06-.15-.09,0-.38-.21-.34-.46-.25,0,0-.14,0-.15,0a.57.57,0,0,1,0-.29,2.2,2.2,0,0,1,.21-.32c0-.06,0-.14,0-.21s-.11.08-.16.08a1.2,1.2,0,0,1-.27-.08c.29-.28,0-.9.58-1h0V9c.13-.08.33-.14.38-.25.16-.39.27-.8.4-1.2,0-.1,0-.19.06-.29s.06-.12.23-.06c.43.16.67.68,1.2.62a.5.5,0,0,0,.17-.1c0-.11.05-.21.07-.32l-.35-.08.16.24ZM11.24,58.58l-.09.29h.13l0-.3a.37.37,0,0,0,0-.15s-.07-.08-.1-.13A2.33,2.33,0,0,0,11.24,58.58ZM4,42.89l-.22.21.09.09L4,42.94l.24-.16-.19-.2Zm37,6.28.16-.23-.15,0v.28l-.28.14c-.26.23-.52.11-.77,0-.08,0-.12-.14-.18-.21l0,.34,0,.08-.24.37c0-.17,0-.22,0-.27s0-.27,0-.4l-.42.11a.91.91,0,0,1-.37.09,2.78,2.78,0,0,1-.54-.22,3.31,3.31,0,0,0,.36-.14,3.21,3.21,0,0,0,.3-.21l-.38-.33.38-.3s0-.12.08-.17-.13-.06-.17,0l-.65.36c.06-.36-.1-.38-.37-.23a.27.27,0,0,1-.19.05.5.5,0,0,0-.59.06,1.41,1.41,0,0,1-.24-.16.67.67,0,0,1-.12-.2l.17-.18-.05,0-.11.24c-.1,0-.25-.13-.31-.09-.22.14-.64.12-.68-.11-.07-.42-.56-.3-.71-.6a.47.47,0,0,0-.12.07c-.24.18-.24.18-.33-.14l.36-.23-.07-.09-.43.17a.93.93,0,0,1,0,.14l-.52.53a6.56,6.56,0,0,0,.14-.76c0-.06-.1-.15-.16-.2s-.1.07-.15.1l-.35.28v-.52c-.23.2-.49-.36-.74,0-.09.15-.18.09-.21-.13l-.18-.27-.09.1.29.17c-.25,0-.49-.28-.75,0,0,0,0,0-.08,0h0a.74.74,0,0,0-.08-.13s-.19.35-.13,0-.35-.31-.44-.54c0,.06-.11.11-.11.16a2.7,2.7,0,0,0,.08.39c-.15-.36-.32-.24-.5-.06l-.14.07,0-.59c-.08,0-.26-.06-.32,0-.35.37-.32,0-.42-.18a2.15,2.15,0,0,1-.14-.26l-.26.26-.23-.13-.06.09.27,0-.33.12-.37.16c.26.26-.05.1-.09.13a1.22,1.22,0,0,1-.1-.24c-.06-.25.37-.59-.15-.75a.14.14,0,0,1-.08-.09c-.14-.37-.44-.18-.66-.16s-.46,0-.38.34c0,0-.12.1-.18.15l0-.27-.24.11c-.13-.2-.21-.46-.34-.5s-.49-.15-.62.17a1.94,1.94,0,0,1-.21.29l-.17-.32.15,0s0-.13,0-.13a1.77,1.77,0,0,0-.23,0c-.11-.28-.32-.35-.53-.18s-.41,0-.55-.12l-.31.32c-.11-.11-.23-.21-.33-.33a2.11,2.11,0,0,1-.18-.33c-.11.2-.08.47-.17.52a2.31,2.31,0,0,1-.68.15c.25-.44.23-.48-.25-.49h0l0-.39c-.55.59-.86.63-1.15.17a2,2,0,0,0-.25.44,4.86,4.86,0,0,0-.33,1.55c0,.36-.24.79-.25,1.24s-.24.73-.23,1.16a15.72,15.72,0,0,1-.18,1.94c0,.06-.09.11-.12.17s-.09.21-.15.31a2,2,0,0,1-.2.3A.86.86,0,0,1,19,51l.17.21c.08.11.21.23.21.35a2.15,2.15,0,0,1-.14.54,1.29,1.29,0,0,1-.07.21,2.9,2.9,0,0,0-.37.72,8.74,8.74,0,0,1,0,1.25c-.09.36.19.84.37,1.23a2.47,2.47,0,0,1,.4,1.17c0,.33.32.67.48,1,.34-.38.53-.78.15-1.26l.29.12v0c.07.31.31.54.3.89,0,.11.33.36.42.32.35-.14.39.1.42.29s-.18.18-.27.26V58h-.1l0,.4c.34.36.31.69-.08,1.07,0,0,0,.12,0,.18s.09,0,.13,0,.12-.11.19-.14a3.9,3.9,0,0,1,.48-.17.51.51,0,0,1,.08.18c0,.18,0,.47.05.53.45.28.08.41-.07.6,0,0,0,.13,0,.2a.27.27,0,0,0,.13,0c.19-.29.35,0,.46.06s.34.15.46-.08l.05.17.16-.19-.22,0,.12-.18.23-.21c0,.11.07.21.09.32s0,.28,0,.42h.07l.09-.23.26.21-.17.18c-.07.09-.15.18-.22.28s0,.06,0,.09l.12-.09,0,.28.14-.07-.19-.21.06-.3c.26.13.31.36.37.61a.63.63,0,0,0,.24.3,1.77,1.77,0,0,0,.45.18l.36-.4a1.59,1.59,0,0,0,0,.59.4.4,0,0,0,.39.1c.47-.33.3.06.34.26a.79.79,0,0,0,.23.32s.14-.12.22-.13.27,0,.32,0c.2.24.38.5.54.72.07,0,.15-.14.24-.15a2,2,0,0,1,.48,0l-.1.28.17,0c.32,0,.49.51.91.31,0,0,.22.26.34.39a.11.11,0,0,0,.09,0c.13-.22.19-.09.36,0s.5.36.8.09a.24.24,0,0,1,.15,0c0,.27.16.29.39.23.47-.13.78.61,1.3.25a.73.73,0,0,1,.09.09c.28.3.56.46.93.09a.53.53,0,0,1,.61.08c.08.09.19.34.32,0,0,0,.08,0,.1,0,.27.41.59.29.95.11a.55.55,0,0,1,.5,0c.27.29.42.22.54-.11l.23.25c.36-.31.69.07,1,.11a1.67,1.67,0,0,0,.83-.17c.16,0,.32-.06.38.08s.1,0,.12,0c.25.23.27-.25.35-.14s.53-.18.58.23a.28.28,0,0,0,.2,0c.38-.3.86.25,1.24-.15,0,0,.08.06.13.07s.2.06.23,0c.26-.33.8-.13,1-.55a.17.17,0,0,1,.1,0c.28.51.26,0,.37-.1a2.28,2.28,0,0,0,.22.22s.09,0,.14,0a.45.45,0,0,1,0-.11,2.75,2.75,0,0,1-.05-.34,1.5,1.5,0,0,0,.38.21,1.31,1.31,0,0,0,.39,0,.33.33,0,0,0,.15-.05c.16-.14.31-.29.48-.43,0,0,.12,0,.13,0s.09.16.19,0,.08-.14.14-.16.31-.35.55-.1c0,0,.17-.06.2-.12.11-.32.27-.22.45-.07l-.23,0,.09.16.14-.13c.1-.1.19-.26.29-.27s.28-.3.5-.16c.07-.2.11-.35.43-.36s.49-.25.7-.43.25-.4.47-.07a.22.22,0,0,0,.14,0,5.92,5.92,0,0,1,.56-.56c.26-.2.58-.32.85-.51s.49-.36.46-.48c-.08-.37.16-.54.31-.79a9.18,9.18,0,0,0,.5-1,.07.07,0,0,1,0,0c.35-.06.19-.23.1-.4s-.25-.39-.19-.49c.18-.32-.05-.48-.19-.67a5.27,5.27,0,0,0-.41-.47A3.12,3.12,0,0,1,51,58l-.1.18L50.74,58s.11,0,.12,0a.7.7,0,0,0-.17-1s-.17.08-.26.14-.09.11-.14.16l-.17-.18.07-.07-.08-1-.51.26c-.06,0-.11.08-.16.11a1.49,1.49,0,0,0,0-.21,2.17,2.17,0,0,0,0-.26c-.32.07-.13-.16-.14-.26s.06-.4,0-.52a2.21,2.21,0,0,0-.74-.75.4.4,0,0,1-.29-.48c0-.25,0-.42-.33-.47a4.88,4.88,0,0,1-.82-.26l-.19-.07a3,3,0,0,1,.13-.36,2.19,2.19,0,0,1,.23.07l.17.06a.71.71,0,0,0,0-.21l-.25-.54h0a6.47,6.47,0,0,0,.78.41s.21-.23.28-.37-.1-.22-.15-.22c-.4,0-.55-.25-.65-.56a.41.41,0,0,0-.56-.29c-.11,0-.13.37-.14.58a1.2,1.2,0,0,0,0,.36c-.25-.06-.49-.2-.68-.15s-.45,0-.49-.29a.55.55,0,0,0,0-.17s-.12,0-.14.07c-.16.36-.29.19-.47,0a1,1,0,0,0-.39-.24s-.21.14-.2.16c.15.32-.07.44-.26.58l0-.44c-.19.22-.26.05-.29-.11s0-.35,0-.38c.32-.18.06-.24,0-.34-.07-.44-.36-.23-.6-.2,0-.1,0-.24-.06-.29a.84.84,0,0,0-.33-.07l0,.21c.19-.09.17.42.42.15.21,0,.28.39.57.25-.11.22,0,.58-.41.61,0,0,0,.11-.06.17a.9.9,0,0,1-.08-.28s.11,0,.17-.08a.64.64,0,0,0,.1-.18s0,0-.08-.08l-.07.21c-.24,0-.42,0-.48-.28s-.23-.19-.39-.08h0c0-.24,0-.51-.34-.58A.76.76,0,0,1,42,50c0-.12.07-.24.11-.36a1.72,1.72,0,0,0-.45,0c-.06,0-.09.16-.13.24V50a3,3,0,0,0-.14-.36c0-.06-.18-.11-.22-.08-.24.14-.47.31-.7.47l.25-.66C40.85,49.35,41,49.45,41,49.17ZM13.1,65.39l-.1-.23-.09.25-.06.29.16-.1.36.08Zm38.48-9-.34-.22c.24-.2,0-.38,0-.58l-.15,0c0,.19.09.37.14.56l.3.24.09.26.18-.22ZM25.81,8.47s-.09,0-.13,0l-.23.17s0,.09,0,.09a.84.84,0,0,0,.27-.13s0-.09,0-.15l.17,0-.13-.13ZM12.34,56.38l-.17-.4s-.12.08-.11.1.11.28.16.42l.12.24.09,0ZM23.69,70.84a1.5,1.5,0,0,0,.23.15,1.24,1.24,0,0,0,.27,0c0-.07,0-.16,0-.19a.38.38,0,0,0-.24-.14.72.72,0,0,0-.29.12c-.06,0-.14.1-.16.17a.62.62,0,0,0,0,.27c.06,0,.15,0,.18,0a.46.46,0,0,0,.08-.24S23.71,70.89,23.69,70.84ZM17.86,23c-.1,0-.23,0-.28,0a.59.59,0,0,0-.08.31s.05.06.08.09l.27-.45.11-.28h-.12Zm-5,33.5a.23.23,0,0,0-.1-.07h-.14l.24.07s-.07,0-.08.08,0,.29-.06.43l.34-.16A4,4,0,0,0,12.88,56.53ZM45,50c.06-.32-.18-.07-.27-.13l-.12.52.11,0L45,50l0,.43a.42.42,0,0,0,.18-.24l.24-.47Zm3.18-1.18L48,48.39l-.19.09.29.34a3.31,3.31,0,0,0,.33.32c.22.18.23.17.31-.17-.33,0-.32,0-.25-.26,0-.06,0-.13-.07-.19s-.1,0-.14.08A2.11,2.11,0,0,0,48.13,48.83ZM25.69,10.72c.24.26.24.26.6.06l-.62,0c.06-.09.16-.18.18-.28a.68.68,0,0,0-.06-.34.25.25,0,0,0-.19,0,1,1,0,0,0-.09.3c0,.06,0,.13,0,.19a1.17,1.17,0,0,1-.06.2Zm32,38.85c-.28.19,0,.36,0,.53s.14.1.21.15a1,1,0,0,0,0-.24c-.06-.15-.15-.3-.22-.44s0-.51,0-.75l.17-.2-.05-.06-.26.13.16.11-.3.18c-.19.25-.27,0-.39-.08,0-.22-.07-.44-.13-.66a2.21,2.21,0,0,0-.18-.42c-.13.08-.32.14-.36.25a.52.52,0,0,0,.13.41,3.6,3.6,0,0,0,.49.46c0,.39.29.17.44.25l-.1.44ZM31.4,5.14l.18.29c.57-.06.11-.49.28-.71a.27.27,0,0,0,0-.2.21.21,0,0,0-.13-.07s-.09,0-.11.09l-.26.57c-.21.12-.42.22-.62.35,0,0,0,.14,0,.2a.2.2,0,0,0,.17,0C31.16,5.59,31.41,5.47,31.4,5.14Zm-16,62.94.37-.22c-.28-.24-.54-.39-.87-.15-.09.06-.24.19-.22.22s.2.27.39.13c-.14.41-.09.72.43.77a.22.22,0,0,1,.14.06c.26.37.32-.06.33-.12C16.09,68.4,15.84,68.11,15.4,68.08ZM52.77,56.13a.47.47,0,0,0-.38.71l.34-.08a3.13,3.13,0,0,1-.15.32c-.16.21-.52.37-.15.71l.54-.66.08.08.29.21,0-.13-.34-.08c.05-.12.15-.26.12-.35a6.8,6.8,0,0,0-.38-.7l0-.35-.2,0ZM10.19,53.36c.18,0,.36,0,.45.14s.41-.22.23.16H11c.35-.09.73-1,.54-1.25,0,0-.15,0-.17,0s0,.2-.08.28S11.07,53,11,53c-.31-.15.14-.5-.16-.67a2.39,2.39,0,0,0,.22-.12,2.12,2.12,0,0,0,.34-.27s0-.15,0-.23l-.27.2A.64.64,0,0,1,11,52l-.31.1c0-.09,0-.19,0-.25a2.78,2.78,0,0,0-.26-.34l-.14.25-.29.66a1.48,1.48,0,0,0-.11.32c.25.17.11.39.11.59a2.42,2.42,0,0,0,.1.36l.1,0Zm.08,4.57a1.64,1.64,0,0,0,.09.27s.15,0,.15,0a2.56,2.56,0,0,1,0-.39,2.18,2.18,0,0,1,.21-.47c.08-.13.25-.25.26-.39a5.69,5.69,0,0,0-.11-.8c0-.46-.15-.57-.61-.55-.07,0-.14.08-.21.12a1.13,1.13,0,0,0,.12.18,3.41,3.41,0,0,1,.42.43c.05.07,0,.28,0,.31s-.22.21-.18.45A2.58,2.58,0,0,1,10.27,57.93Zm5.92,10.93-.07.06a3.14,3.14,0,0,0,.32.31s.12,0,.18,0c-.07-.32,0-.2.14,0s.06.06.09.09.08-.1.07-.13c-.09-.28-.18-.56-.28-.83l-.09-.23c-.15.07-.39.11-.43.22A1.44,1.44,0,0,0,16.19,68.86ZM29.47,10a1.49,1.49,0,0,1-.25.13,2.53,2.53,0,0,1-.27,0,.75.75,0,0,0,.1-.17s0-.11,0-.11a.22.22,0,0,0-.16,0l-.72.56.55-.06c0,.12,0,.29.1.31a3.15,3.15,0,0,0,.55.12ZM12.55,55.08l.09-.1c-.08-.17-.56-.21-.15-.52,0,0,0-.19,0-.29s0-.48,0-.72c0,0-.12-.11-.18-.11a1.42,1.42,0,0,0-.22.06,2.4,2.4,0,0,1,.14.53.46.46,0,0,0-.24.68C12.09,54.81,12.35,54.93,12.55,55.08Zm36.27-2.15a3.92,3.92,0,0,0-.37.34,4.89,4.89,0,0,0,.46.56l.53-.49ZM15.44,54l-.13-.15c-.13.12-.24.31-.39.35-.33.11-.4.35-.45.63,0,0-.06.06-.07,0-.29-.19-.15.05-.12.13s-.14.25.18.21.27-.08.27-.28a.72.72,0,0,1,.1-.4A7.84,7.84,0,0,1,15.44,54ZM13,52.9a.77.77,0,0,0,.22-.84,2.11,2.11,0,0,0-.16-.34c-.09,0-.23.07-.26.15a.77.77,0,0,0-.07.47A2.6,2.6,0,0,0,13,52.9ZM2.3,44a3.43,3.43,0,0,1,.58-.28c.44-.1.14-.42.27-.64C2.65,43.24,2.18,43.35,2.3,44ZM54.35,68.73c-.26.14-.57.44-.58-.17a2.82,2.82,0,0,0-.39.29c-.06.05-.07.14-.1.21l.19.08C53.86,69.27,54.27,69.43,54.35,68.73ZM50.09,54.81c.09-.06.26-.14.26-.17-.12-.32.12-.39.32-.5,0,0,0-.1,0-.15s-.13,0-.17,0a4.13,4.13,0,0,0-.58.33,1.41,1.41,0,0,0-.25.29Zm-1.31-2.05a2.11,2.11,0,0,0,.14-.41.9.9,0,0,0-.11-.34,1.13,1.13,0,0,0-.26.16,1.22,1.22,0,0,0-.26.3.48.48,0,0,0,0,.27s.09,0,.14,0ZM27.86,7.24c-.15-.13-.24-.24-.26-.23s-.35.19-.41.34.1.29.16.44Zm-24,30.93.38.24.06-.13c-.24,0-.13-.58-.49-.32a7.33,7.33,0,0,0-.71.76l.09.08ZM1.36,43.6h0l.52-.89s0-.07-.07-.09a.1.1,0,0,0-.09,0,4.89,4.89,0,0,0-.5.52.67.67,0,0,0,0,.35S1.32,43.57,1.36,43.6ZM12.66,63c.11.26.19.49.3.71a.28.28,0,0,0,.25.07.71.71,0,0,0,.2-.25s0-.09-.07-.11C13.13,63.28,12.92,63.16,12.66,63ZM27.83,14.26l.4-.85C27.5,13.91,27.5,13.91,27.83,14.26Zm25.81,45-.29-.36c-.05.08-.15.16-.14.24a5.66,5.66,0,0,0,.13.56Zm-41.18-8.5a3.34,3.34,0,0,0-.38.42s.08.13.13.2c.15-.12.31-.24.45-.37ZM27.54,4.91h.06l0,.19.49-.22a.56.56,0,0,0-.34-.06l-.44,0v.54h.13Zm-13.26,47-.06.83a.14.14,0,0,0,.08.09.28.28,0,0,0,.11-.08C14.77,52.45,14.42,52.19,14.28,51.91Zm-4.9,4.91-.15.07.24.62a.69.69,0,0,0,.18-.16C9.9,57,9.49,57,9.38,56.82ZM28.56,9.4c.14-.13.27-.21.26-.24a2.82,2.82,0,0,0-.24-.36c-.07.08-.2.16-.21.24S28.47,9.24,28.56,9.4ZM20.37,57.76a.39.39,0,0,0-.06.19,1.82,1.82,0,0,0,.11.3c0,.07,0,.14.07.21s.19-.14.19-.21a2.34,2.34,0,0,0-.16-.49Zm5.37-45.57-.24,0,.12.59c.05,0,.15,0,.15-.06C25.77,12.57,25.75,12.38,25.74,12.19ZM30.53,4l-.5.89C30.47,4.75,30.54,4.4,30.53,4Zm20.81,47.6c.33,0,.42-.26.41-.55,0,0-.08-.13-.12-.12a.19.19,0,0,0-.14.12C51.43,51.19,51.4,51.36,51.34,51.58Zm4.54,2.57H56a1.21,1.21,0,0,0,.07-.4c0-.07-.17-.11-.27-.17a2.11,2.11,0,0,0,0,.26Zm-51-10.06.5-.21.12,0a1.6,1.6,0,0,0-.1-.31s-.12,0-.13,0S5.06,43.87,4.91,44.09ZM10.72,55v-.13c-.06,0-.13-.13-.18-.11a1.92,1.92,0,0,0-.31.18c.07.06.13.14.2.15A1,1,0,0,0,10.72,55Zm14-45.29.13,0L25,9.05l-.16,0ZM46.1,50.53l-.26.31.38.29c0-.05.09-.12.07-.16A2.42,2.42,0,0,0,46.1,50.53ZM11.61,61.35l.09,0v-.75l-.11,0a1.17,1.17,0,0,0-.08.36A1.4,1.4,0,0,0,11.61,61.35ZM31.25,13l0,.08.19.21.22.24s.11-.1.1-.12a1.27,1.27,0,0,0-.22-.33C31.45,13,31.34,13,31.25,13ZM3.38,38.88a3.15,3.15,0,0,0,0,.46.37.37,0,0,0,.12.22s.16,0,.17-.06a.47.47,0,0,0,0-.26A4.07,4.07,0,0,0,3.38,38.88ZM27.55,5.7l-.16-.07-.32.65.11,0ZM51,71.67l-.12-.16-.43.34s.12.12.13.11S50.89,71.77,51,71.67Zm-39-18v-.11a1.31,1.31,0,0,0-.4,0s0,.17-.05.26ZM22.78,14.15l-.34.2s-.11,0-.16,0,0,.2.07.21C22.67,14.64,22.69,14.34,22.78,14.15ZM12.84,64.73v-.08c-.11,0-.27,0-.34,0s0,.21,0,.32ZM11.6,63.44c.14-.11.28-.19.27-.22a2,2,0,0,0-.2-.3,1.07,1.07,0,0,0-.16.27C11.49,63.24,11.55,63.31,11.6,63.44Zm-.81-9.34-.28-.44c-.06.06-.19.15-.18.18a.7.7,0,0,0,.22.26C10.61,54.14,10.71,54.1,10.79,54.1Zm1.16,10,.15.09c0-.09.11-.19.1-.27s-.12-.13-.19-.19-.14.11-.15.17S11.92,64.06,12,64.13Zm.41-12.22.09.07c.1-.12.2-.23.29-.35s0-.09-.05-.14l-.31.3S12.37,51.87,12.36,51.91ZM26.51,13.65l.08-.16c-.15-.05-.3-.11-.46-.15,0,0,0,.08-.07.13ZM45.76,50.08a1.44,1.44,0,0,0-.25.33c0,.05,0,.14.07.21a1.64,1.64,0,0,0,.28-.31S45.8,50.17,45.76,50.08ZM24.58,70.83c-.09.1-.18.16-.19.23s.1.2.13.19a1.17,1.17,0,0,0,.25-.16ZM10.93,58.33l-.35.29s0,.08,0,.11a1.22,1.22,0,0,0,.12.19c0-.05.09-.09.11-.15S10.89,58.5,10.93,58.33Zm2.17-7.91L12.88,50l-.15.09a2.71,2.71,0,0,0,.24.35ZM10.53,61.05l-.18,0-.07.5h.14A3.57,3.57,0,0,0,10.53,61.05Zm42-16.89.13.2a1.15,1.15,0,0,0,.17-.13,2.83,2.83,0,0,0-.2-.28ZM27.72,9.35l0-.1-.42.17.09.17ZM24.78,30.41l-.17.25a1.34,1.34,0,0,0,.24.12s.13-.1.12-.11A2.34,2.34,0,0,0,24.78,30.41Zm-.33-8.33L24.28,22l-.15.41.12.06ZM53.66,43.24v.16a2,2,0,0,0,.34,0s.07-.1.1-.15ZM19.45,20.18l-.15,0,0,.4h.11ZM13.23,63.76a4.43,4.43,0,0,0,0,.45.42.42,0,0,0,.09.14,1.94,1.94,0,0,0,.13-.3C13.43,64,13.35,63.92,13.23,63.76Zm-6-18.88c-.15-.37-.15-.37-.44,0ZM5,38.24c0,.09-.08.17-.07.22s.1.16.14.15.13-.09.19-.14Zm22.78,26.5h.17l-.08-.53h-.09Zm-13.53,0v-.11l-.41,0s0,.1,0,.15Zm.85-11.15c0-.11.09-.17.08-.22a.52.52,0,0,0-.11-.19c0,.06-.13.11-.13.17S15,53.44,15.06,53.55ZM49,49.48l0,.05.23.4.1-.1ZM14.58,52.8l.13.1.28-.41-.1-.06Zm34.15-2,0-.11-.34.06s.06.15.07.15A1.42,1.42,0,0,0,48.73,50.76ZM6.4,35.84c-.09-.07-.15-.14-.18-.13a1.77,1.77,0,0,0-.22.16c0,.05.1.14.12.13A1.73,1.73,0,0,0,6.4,35.84ZM23.34,24.32l.21-.27L23.43,24a1,1,0,0,0-.19.22S23.29,24.26,23.34,24.32ZM25.83,7.85l-.16-.16-.19.19c.06,0,.12.12.18.12S25.77,7.91,25.83,7.85ZM13.93,66.62c-.13,0-.26,0-.31,0s0,.18,0,.37ZM46.17,38.8l0,.1.28-.1a.64.64,0,0,0,0-.15ZM29.69,2.32l-.19-.13c0,.05-.07.1-.07.13a1.51,1.51,0,0,0,.1.17ZM11.32,58.17l.06-.11-.38-.2L11,58ZM54.14,45.25a.74.74,0,0,0-.07.18.61.61,0,0,0,.07.17s.15-.08.15-.11S54.22,45.37,54.14,45.25ZM29.44,70.48l-.06-.08-.33.25.08.09Zm-3.71-61-.15-.14c-.07,0-.13.12-.2.18s.09.07.13.07A2.24,2.24,0,0,0,25.73,9.52ZM10.36,60.34l.11,0c0-.09.07-.17.1-.27l-.1,0ZM24.29,71.43l0,.12.31-.13,0-.06ZM40.1,35.76l.12,0,.06-.38-.1,0Zm16.17,11.8,0-.13-.3.12s0,.07,0,.11ZM20.7,58.62a1.24,1.24,0,0,0-.05.31s.07.07.11.11a.86.86,0,0,0,0-.23S20.77,58.74,20.7,58.62Zm37.57-6.21.07-.11L58,52.14l0,.09ZM53.82,45l.07.05.16-.2s0-.06-.06-.09ZM5.26,37.88a2.38,2.38,0,0,0-.14.23s.09.08.1.08A.65.65,0,0,0,5.35,38S5.31,38,5.26,37.88ZM24.78,22.11,24.66,22a.35.35,0,0,0-.08.13s0,.07.06.1Zm4.2,52,.13-.07-.2-.27-.08,0Zm8.3-27.73c-.1-.06-.14-.1-.18-.1s-.09,0-.13.06,0,.12.07.12A.72.72,0,0,0,37.28,46.36Zm18.17.1c-.05.07-.12.11-.11.14a2.56,2.56,0,0,0,.11.24s.12-.07.12-.1A2.58,2.58,0,0,0,55.45,46.46Zm.26.79c0-.08.07-.12.06-.14a.94.94,0,0,0-.09-.12s-.07.07-.06.1S55.66,47.17,55.71,47.25ZM13.54,66c-.07.06-.13.1-.14.15s0,.09.07.14l.16-.17S13.58,66,13.54,66ZM27.76,8.44V8.37h-.29v.07Zm-1.64.82,0,0-.23.15.13.1Zm3.76-3.48c.09,0,.13.09.17.09s.09,0,.13-.06-.06-.08-.09-.09S30,5.74,29.88,5.78Zm-3,57.78c-.06,0-.09-.08-.11-.08a1.1,1.1,0,0,0-.14.09s.08.09.11.09S26.84,63.6,26.9,63.56ZM37.68,47.33v.12l.29,0v-.11Zm-4.11-.9,0-.1-.3-.08,0,.1ZM11.12,62.24c.05-.08.1-.12.1-.16a.79.79,0,0,0-.08-.16s-.08.09-.09.13S11.08,62.14,11.12,62.24ZM20.86,17c0-.15.07-.2.05-.22a.45.45,0,0,0-.13-.11ZM42.13,49.16v.1l.32,0v-.12Zm5.43,25-.1-.14s-.11.07-.11.09a.48.48,0,0,0,.08.16ZM43.3,75.28a.42.42,0,0,0,.14.08.45.45,0,0,0,.14-.1s-.06-.1-.07-.1A1,1,0,0,0,43.3,75.28ZM12.67,56.1l.09-.08-.15-.21-.09.08C12.56,56,12.62,56,12.67,56.1Zm26.38-7c-.08,0-.14-.06-.17,0s-.09.1-.13.16.09.07.13.07S38.94,49.2,39.05,49.08Zm-9.7-47a1,1,0,0,0,.09-.17s-.05,0-.08-.07a.6.6,0,0,0-.09.13S29.31,2,29.35,2.09Zm8.13,73.85-.11,0-.07.32.09,0Zm15.8-22.88.07,0s0-.09,0-.12a.68.68,0,0,0-.12-.12Zm0-8.75-.05,0s-.08,0-.08.08a1.22,1.22,0,0,0,0,.17ZM38,76.15l-.07.08.06,0a.39.39,0,0,0,.1-.08ZM54.21,43.81c0-.07.08-.11.07-.13s-.08-.11-.11-.16-.08.08-.08.1A1.14,1.14,0,0,0,54.21,43.81ZM16.64,54.1l0-.09a.76.76,0,0,0-.08.11s0,.05,0,.08Zm-2.6.18s-.06-.05-.09-.05,0,0,0,.06,0,.06.05.09ZM31.71,74.64l-.11-.13a.33.33,0,0,0-.06.1.61.61,0,0,0,0,.13ZM38,48a1.92,1.92,0,0,0,.19-.17s-.06-.1-.09-.1a.16.16,0,0,0-.12.08S38,47.85,38,48ZM1.39,42.42c-.06.1-.09.14-.09.19s.05,0,.08.07.07-.07.08-.11S1.43,42.5,1.39,42.42Zm48.92-.6-.09-.07s0,0,0,.07,0,0,.06,0Zm-19.93-39-.1-.12s-.09.06-.08.07a.34.34,0,0,0,.09.12Zm-15.86,47c.05-.08.1-.13.1-.17s-.06-.08-.1-.12-.08.09-.08.14S14.48,49.82,14.52,49.89ZM30.81,3.18c0-.05-.08-.11-.09-.1a.47.47,0,0,0-.12.09s0,.08.07.08A.9.9,0,0,0,30.81,3.18ZM50.05,47.25s-.06-.09-.09-.09a.14.14,0,0,0-.09.08.6.6,0,0,0,.09.13Zm-1.5-8.08c0,.1-.06.17-.07.23s0,.06.06.09l.15-.13S48.66,39.31,48.55,39.17Zm.09,0c-.06-.08-.09-.14-.13-.16s-.08,0-.12.08a.36.36,0,0,0,.1.11S48.57,39.21,48.64,39.19Zm-5.91,10.6c0,.06-.07.1-.07.14s.07.07.08.07l.14-.14ZM2.57,38.71l-.07,0s-.07.07-.08.11a.4.4,0,0,0,0,.15l.09-.13A.38.38,0,0,0,2.57,38.71ZM35.3,47l-.15-.1s-.08.09-.07.11a.21.21,0,0,0,.13.07S35.26,47,35.3,47Zm8.06-9.89h-.12v.28l.1,0A1.93,1.93,0,0,0,43.36,37.1Zm-2.79-.88s.07-.09.06-.1a.32.32,0,0,0-.12-.08s0,0-.07.06Zm-26.91,29a.45.45,0,0,0-.13-.06.14.14,0,0,0-.08.07s0,.06,0,.09Zm22-18.61-.06,0a2.39,2.39,0,0,0,.13.21l.1-.05Zm-7-34.89c.06,0,.09.08.11.08a.13.13,0,0,0,.09-.07s0-.07,0-.1ZM13,59.49a.49.49,0,0,0-.15-.09s-.07,0-.1,0l.17.17Zm9.27-45.24c-.06,0-.09-.08-.13-.09s-.07.06-.07.09a.67.67,0,0,0,.06.12ZM10.84,51c-.13.08-.18.1-.18.12a.29.29,0,0,0,0,.16ZM22,15.51l0-.08s-.07,0-.09,0a.71.71,0,0,0-.15.08ZM56.59,61.79c0,.06-.07.11-.06.13a.53.53,0,0,0,.13.13s.06-.07.05-.09ZM21.11,16.25s-.09,0-.1.07,0,.07,0,.11.08,0,.11-.08S21.13,16.29,21.11,16.25Zm30.14,45,0-.13-.13.06s0,.08.06.09S51.2,61.26,51.25,61.25ZM54.77,46l-.07-.1s0,0,0,.06a.18.18,0,0,0,0,.1ZM11.48,60.42l-.05-.13a.29.29,0,0,0-.11.11s0,.06.06.09Zm49.65-.56s-.08,0-.1,0-.05.06-.07.09S61,60,61,60,61.09,59.91,61.13,59.86ZM25.83,13.59c0-.05.08-.08.08-.11a.42.42,0,0,0-.08-.12l-.09.06A.71.71,0,0,0,25.83,13.59ZM46,50.35l.07,0,.07-.23-.06,0ZM19.07,23.2,19,23.11s0,0,0,.06a.18.18,0,0,0,0,.09Zm7.05,2.61.15.1a.36.36,0,0,0,0-.11.12.12,0,0,0-.08-.06S26.17,25.77,26.12,25.81Zm-1.57,5.06a1.82,1.82,0,0,0-.1.19s.06.05.09.07a1.3,1.3,0,0,0,.1-.15S24.59,30.92,24.55,30.87ZM27,9l.09-.1s-.05,0-.07,0l-.11.1ZM39.69,35.65s.06,0,.07,0a.16.16,0,0,0,.07-.07s0,0-.06,0S39.72,35.62,39.69,35.65ZM12.37,58.82l.06-.08-.12,0s-.08,0-.09.05,0,.06,0,.1ZM47.44,50c-.08-.06-.11-.09-.14-.09s-.07,0-.07.07a.18.18,0,0,0,.08.09S47.38,50,47.44,50Zm9.88,16.21.06-.1s-.06,0-.09,0,0,0-.07.07Zm-5.61-8.82h0v.3h0Zm-37.4,9.73a1.12,1.12,0,0,0-.08.18s0,0,.08,0a.52.52,0,0,0,.06-.13S14.34,67.12,14.31,67.07Zm1.91.43c-.06,0-.12.07-.11.09a.39.39,0,0,0,.05.14s.1,0,.1-.06A1,1,0,0,0,16.22,67.5ZM58.16,51.87,58,51.7s-.06.07,0,.09a.36.36,0,0,0,.11.14S58.09,51.9,58.16,51.87ZM30.08,6.22l.09-.12s-.07,0-.1,0-.07.05-.11.08Zm21.5,45.69a.28.28,0,0,0-.09-.07s-.05,0-.08.07l.11.11ZM29.45,3.35c0-.05.07-.08.07-.1s-.05-.06-.08-.09-.06,0-.06.07S29.42,3.29,29.45,3.35ZM51.26,41.06l-.09-.1-.09.15s.07.07.08.06A1.09,1.09,0,0,0,51.26,41.06ZM28.9,44.89l-.11,0a.53.53,0,0,0,.13.13S29,45,29,45ZM6,43.15l-.09.08.07.07L6,43.21Zm-4.16.4a.44.44,0,0,0,.09-.16s0,0,0-.08-.07.07-.08.12S1.78,43.49,1.8,43.55ZM40.35,49l-.07.12a.56.56,0,0,0,.13.07s.07-.06.06-.07Zm15.78,5.81.08-.14s-.05,0-.06,0a.52.52,0,0,0-.11.1ZM34,75.85l-.11-.06a.38.38,0,0,0-.09.12s.06.06.07,0A.58.58,0,0,0,34,75.85ZM52.31,43.74l.08.08.19-.18-.09-.09ZM14.86,53c-.12,0-.17-.08-.2-.07s-.08.06-.12.09.05.08.07.08ZM34.24,76.42s.08-.07.09-.1,0,0,0-.07-.07,0-.07,0A1.15,1.15,0,0,0,34.24,76.42Z"/><path class="cls-1" d="M5.78,45.31l.06.62a1.09,1.09,0,0,0-.3.12c-.13.11-.23.25-.35.37-.05-.06-.15-.13-.14-.17a1.67,1.67,0,0,1,.25-.58,2.58,2.58,0,0,1,.49-.36Z"/><path class="cls-1" d="M31.29,33h0L31,32.27a7.84,7.84,0,0,1,.77.56c.11.11.13.31.2.46h0c-.13-.07-.26-.14-.4-.2A1.51,1.51,0,0,0,31.29,33Z"/><path class="cls-1" d="M40.64,76.26l.34,0,.73-.12h0c0,.07,0,.2-.06.21-.3.1-.61.18-.91.25A2.57,2.57,0,0,1,40.64,76.26Z"/><path class="cls-1" d="M28.64.34l-.12.4c-.22-.12-.2-.12-.19-.31S28.19.31,28.05.2L29,0,29,.09l-.38.27Z"/><path class="cls-1" d="M32.34,10.23l.2.12-.13.19c-.06.12-.1.25-.17.37s-.1.08-.15.12-.09-.11-.09-.16C32,10.63,31.83,10.28,32.34,10.23Z"/><path class="cls-1" d="M.25,44.61l.38-.45L.82,44c.05.09.15.19.15.28a.67.67,0,0,1-.23.39l0-.34c-.2.09-.14.65-.53.3Z"/><path class="cls-1" d="M18.14,70.16c-.21.17-.19.69-.79.43l.72-.5Z"/><path class="cls-1" d="M24.51,8.64c.11-.24.37-.65.3-.71-.4-.38.24-.25.16-.43-.16.37.08.92-.47,1.14Z"/><path class="cls-1" d="M28,4.27l-.2.26-.32-.27h0a1.57,1.57,0,0,1,.12-.3,1.52,1.52,0,0,1,.22-.22,2.19,2.19,0,0,0,0,.27C27.93,4.11,28,4.18,28,4.27Z"/><path class="cls-1" d="M51.74,41.45c.13-.22.31-.31.49-.08,0,.06-.1.26-.16.4l-.34-.33Z"/><path class="cls-1" d="M9.6,59.28a.29.29,0,0,1-.43-.14s.08-.16.14-.23.23-.09.26.09a1.37,1.37,0,0,1,0,.29Z"/><path class="cls-1" d="M25.24,12.57c-.14.13-.26.27-.41.39s-.14,0-.21,0L25,12.4l.26.17Z"/><path class="cls-1" d="M2.35,44.71c0,.08-.07.17-.12.25s-.13.17-.2.26a2.4,2.4,0,0,1,0-.46s.13-.08.21-.12l0,0,.19.1Z"/><path class="cls-1" d="M23.57,13.28a.67.67,0,0,1,0-.25,1.39,1.39,0,0,1,.18-.31s.12,0,.11.07a1.26,1.26,0,0,1-.1.38c0,.05-.15.07-.22.1Z"/><path class="cls-1" d="M39.58,76a.51.51,0,0,1,0,.2,2.43,2.43,0,0,1-.16.37s-.11,0-.11-.08a2.48,2.48,0,0,1,0-.47l.21,0Z"/><path class="cls-1" d="M59.75,50.41a3.47,3.47,0,0,1,.13.46c0,.06-.08.14-.12.21l0-.19c0-.16-.07-.32-.11-.48Z"/><path class="cls-1" d="M23.16,13.18l.41.1h0c-.08.09-.15.19-.22.28l-.22-.34Z"/><path class="cls-1" d="M26.6,25.12a1.66,1.66,0,0,1-.27.23s-.15-.11-.14-.15a1.16,1.16,0,0,1,.14-.27Z"/><path class="cls-1" d="M11.26,66c0,.12.09.2.08.27s-.08.11-.12.17-.18-.14-.17-.2S11.16,66.1,11.26,66Z"/><path class="cls-1" d="M1.15,45.07,1,45.32a.84.84,0,0,1-.07-.26c0-.07.1-.13.16-.19Z"/><path class="cls-1" d="M9.27,61.76l.17-.49.18.24Z"/><path class="cls-1" d="M22.16,73.16h0l.17,0-.27.3h0C21.88,73.33,22,73.23,22.16,73.16Z"/><path class="cls-1" d="M31.45,2.61l.09-.35.18.24-.28.1Z"/><path class="cls-1" d="M1.07,46.07S1,46,1,46l.19-.52c0,.06.09.14.07.19A2.4,2.4,0,0,1,1.07,46.07Z"/><path class="cls-1" d="M9.4,60.09v.15l-.23.18s-.05-.09,0-.1A3.11,3.11,0,0,1,9.4,60.09Z"/><path class="cls-1" d="M47.75,38.22c.07.12.12.18.11.22a.67.67,0,0,1-.1.21c0-.06-.11-.11-.13-.18S47.69,38.36,47.75,38.22Z"/><path class="cls-1" d="M2.26,45.37v.1l-.38.26,0-.06C2,45.56,2.12,45.47,2.26,45.37Z"/><path class="cls-1" d="M9.26,61l0-.38s.15.06.14.08a2.29,2.29,0,0,1-.07.34Z"/><path class="cls-1" d="M22.89,12.86l.27.32,0,0c-.24,0-.47-.05-.22-.36Z"/><path class="cls-1" d="M51.56,72l.23-.06c0,.07,0,.17,0,.21s-.15,0-.22.05l0-.22Z"/><path class="cls-1" d="M22.05,73.5c-.05.2-.08.42-.38.3h0l.38-.3Z"/><path class="cls-1" d="M58.89,49.2l-.15.12a1.24,1.24,0,0,1-.19-.26s.06-.07.1-.11Z"/><path class="cls-1" d="M5.26,45.13h.09l0,.33s-.15-.07-.15-.1A.75.75,0,0,1,5.26,45.13Z"/><path class="cls-1" d="M24.23,13.51a.72.72,0,0,1-.19.11s-.11-.08-.11-.09a.79.79,0,0,1,.18-.22s.12,0,.19,0Z"/><path class="cls-1" d="M27.42,2.26a2.16,2.16,0,0,1-.25.1s-.09-.1-.08-.1a1,1,0,0,1,.2-.16A1.18,1.18,0,0,1,27.42,2.26Z"/><path class="cls-1" d="M1.27,45.18l.24-.28.07.06-.25.3Z"/><path class="cls-1" d="M27.27,3.06l.47,0,0,.09-.49.06Z"/><path class="cls-1" d="M24.93,7.37a1.63,1.63,0,0,1-.11-.23s.06,0,.09-.07l.11.26Z"/><path class="cls-1" d="M59.68,50.07c-.13,0-.18.08-.23.07a.36.36,0,0,1-.17-.13s.06-.12.06-.12A3.13,3.13,0,0,1,59.68,50.07Z"/><path class="cls-1" d="M32,3.66l.17.21s-.05.06-.08.08L32,3.73Z"/><path class="cls-1" d="M28.68,2.37l-.11.17-.17-.17s.07-.07.1-.07A.71.71,0,0,1,28.68,2.37Z"/><path class="cls-1" d="M41.71,76.12l.47,0,0,.15-.44-.19Z"/><path class="cls-1" d="M30.29.76c.05.11.09.16.08.2a.6.6,0,0,1-.09.15S30.19,1,30.19,1,30.24.89,30.29.76Z"/><path class="cls-1" d="M57.8,47.89a1.81,1.81,0,0,1,.18.21s0,0-.07.08l-.2-.22Z"/><path class="cls-1" d="M16.62,71.6l.14-.31.09,0-.15.31Z"/><path class="cls-1" d="M22.9,12.85l-.26-.14.1-.1.14.25Z"/><path class="cls-1" d="M26.54,4.19l.31.06v.1l-.32-.06Z"/><path class="cls-1" d="M21.67,73.8l-.14.24-.1-.12.25-.1Z"/><path class="cls-1" d="M20.22,17.4l-.08.09L20,17.32s.08-.07.09-.06A1.85,1.85,0,0,1,20.22,17.4Z"/><path class="cls-1" d="M.5,41.48l-.1.13s-.07-.08-.07-.11.06-.07.09-.11Z"/><path class="cls-1" d="M3.83,44.68c-.06,0-.11.06-.12,0a.43.43,0,0,1-.11-.12l0,0Z"/><path class="cls-1" d="M31.31.92c-.07.07-.1.12-.14.14s-.08,0-.12-.06,0-.11.08-.13S31.22.89,31.31.92Z"/><path class="cls-1" d="M28.51,1l.14.38-.1,0c0-.14,0-.27,0-.41Z"/><path class="cls-1" d="M31.56,1.67l-.07.11a.18.18,0,0,1-.07-.08s0-.06,0-.06Z"/><path class="cls-1" d="M54.33,42.57l-.09.31a.43.43,0,0,1-.05-.13S54.24,42.68,54.33,42.57Z"/><path class="cls-1" d="M31.85,3.19V3l.06,0,0,.27h-.09Z"/><path class="cls-1" d="M27.58,3.54a.86.86,0,0,1-.2.06h-.11s.07-.09.12-.11S27.46,3.51,27.58,3.54Z"/><path class="cls-1" d="M25,6.46V6.21h.06v.26Z"/><path class="cls-1" d="M11.66,66.39l-.14.19s0,0,0,0a1.08,1.08,0,0,1,.08-.19Z"/><path class="cls-1" d="M5.22,36.26,5,36.44a.76.76,0,0,1,0-.16s0-.07.06-.07A.85.85,0,0,1,5.22,36.26Z"/><path class="cls-1" d="M22.7,11.84l.16-.21.06,0c-.05.06-.09.13-.14.2Z"/><path class="cls-1" d="M18.74,21.86l-.1,0,.12,0h.06Z"/><path class="cls-1" d="M9.44,62.56a.78.78,0,0,1,0-.14s0,0,0,0l.07.13Z"/><path class="cls-1" d="M56.11,45.2a.41.41,0,0,1,0-.12s0,0,.07,0a.48.48,0,0,1,0,.12S56.15,45.18,56.11,45.2Z"/><path class="cls-1" d="M59.76,51.77a.52.52,0,0,1-.07-.12.1.1,0,0,1,.07,0s.07,0,.1,0Z"/><path class="cls-1" d="M60.29,51.76l0,.05a.09.09,0,0,1-.05,0l.06-.06Z"/><path class="cls-1" d="M27.09,4.69,26.9,4.6l.05,0,.13.15Z"/><path class="cls-1" d="M51,40.42l.11-.08.05.26h0L51,40.41Z"/><path class="cls-1" d="M32.15,3.33l.15.15-.09.06-.05-.22Z"/><path class="cls-1" d="M31.94,3.21c.2-.19.2,0,.21.12h0l-.22-.12Z"/><path class="cls-1" d="M31.31,2.1l.1.07-.15,0-.07,0Z"/><path class="cls-1" d="M28.37,1.86s.08.07.07.09,0,.05-.08.07L28.3,2Z"/><path class="cls-1" d="M9.37,55.26l0,.07,0,0s0,0,0-.06Z"/><path class="cls-1" d="M45.83,75.15s.06.06.05.06a.6.6,0,0,1-.09.13l-.06-.06A.64.64,0,0,1,45.83,75.15Z"/><path class="cls-1" d="M0,44s0-.09,0-.1a.24.24,0,0,1,.1-.05s0,.06,0,.09Z"/><path class="cls-1" d="M60.91,53.49l.07.13s-.06,0-.07,0l-.08-.13Z"/><path class="cls-1" d="M33.39,76.5l-.09,0,.09-.13s0,0,.06,0Z"/><path class="cls-1" d="M35.19,76.42l-.1.2L35,76.55l.18-.12Z"/><path class="cls-1" d="M39.75,49.45a2,2,0,0,1,.33.15s.05.11.05.16,0,.07-.06.1L40,49.74l-.24-.21Z"/><path class="cls-1" d="M30.33,46.09l-.15.35-.11,0,.12-.23Z"/><path class="cls-1" d="M41.53,49.83c.06,0,.14,0,.18,0s0,.12,0,.18L41.52,50Z"/><path class="cls-1" d="M50.12,57.07,49.94,57s0-.09.05-.09l.2.08Z"/><path class="cls-1" d="M45.9,53c-.28-.23-.57-.45-.84-.69,0,0,0-.21.07-.29s.14,0,.22,0c0,.43.53.33.63.66l-.09.35Z"/><path class="cls-1" d="M20.27,55.19c0,.22,0,.44-.08.66s-.09.12-.14.18-.16-.16-.14-.21a5.79,5.79,0,0,1,.31-.67Z"/><path class="cls-1" d="M42.34,50.77a.41.41,0,0,1,.1.13c0,.09.07.2.11.3s-.09,0-.1,0-.38.21-.37-.14c0-.06.13-.12.19-.18a.44.44,0,0,0,.08-.1Z"/><path class="cls-1" d="M22.75,59.8v.89c-.05-.21-.05-.39-.13-.45C22.18,59.93,22.57,59.91,22.75,59.8Z"/><path class="cls-1" d="M27.34,44.64a1.39,1.39,0,0,1,.36.12c.05,0,0,.18,0,.27a.6.6,0,0,1-.2,0,1.61,1.61,0,0,1-.22-.23Z"/><path class="cls-1" d="M20.49,56.51v0c.07-.16.14-.31.2-.46a2.83,2.83,0,0,1,.16.36c0,.07.13.24-.1.1-.06,0-.18,0-.27,0Z"/><path class="cls-1" d="M24.31,44.69a3.83,3.83,0,0,1-.4.24s-.09-.08-.14-.12l.38-.23S24.22,44.63,24.31,44.69Z"/><path class="cls-1" d="M46.07,52.78l0,0,.33.4L45.9,53h0Z"/><path class="cls-1" d="M42,51l-.13.39a.6.6,0,0,1-.08-.21.56.56,0,0,1,.11-.2Z"/><path class="cls-1" d="M48.79,55.33a1.8,1.8,0,0,1-.2-.24s.09-.1.1-.1a.81.81,0,0,1,.19.18S48.84,55.25,48.79,55.33Z"/><path class="cls-1" d="M32.16,46.69c-.06,0-.12.07-.16.06s-.1-.07-.15-.11a.76.76,0,0,1,.19-.12.45.45,0,0,1,.19,0Z"/><path class="cls-1" d="M22.27,59.12c-.13,0-.18,0-.21-.06a.76.76,0,0,1-.11-.14s.09-.05.1,0S22.15,59,22.27,59.12Z"/><path class="cls-1" d="M32.54,46.92a.19.19,0,0,0,.08,0l.28,0,0,.12-.23-.1-.11-.08Z"/><path class="cls-1" d="M19.82,55a1.83,1.83,0,0,1-.06.25s-.1,0-.15,0L19.7,55Z"/><path class="cls-1" d="M29.79,45.86v.31h-.07v-.31Z"/><path class="cls-1" d="M21,57.2l.28,0a.69.69,0,0,1-.06.14l-.27-.08Z"/><path class="cls-1" d="M33.5,47.1l-.34.26c0-.09.05-.17.1-.21S33.38,47.13,33.5,47.1Z"/><path class="cls-1" d="M31.5,46.3a.41.41,0,0,1,0,.19s-.08.09-.12.13l-.06,0a.64.64,0,0,1,.08-.14l.09-.13Z"/><path class="cls-1" d="M24.24,61.71l-.07-.27.06,0,.08.27Z"/><path class="cls-1" d="M26,45.09l-.16.2a.61.61,0,0,1,0-.19s.06,0,.1-.05Z"/><path class="cls-1" d="M49.77,56.63l.06.13s0,0-.06,0a.58.58,0,0,1-.1-.12Z"/><path class="cls-1" d="M47.12,52.1l-.21-.16.13-.09c0,.08,0,.17.07.26Z"/><path class="cls-1" d="M36.77,48.89v-.26h.08l0,.27Z"/><path class="cls-1" d="M37.33,48.69c-.07-.14-.1-.18-.1-.22s0-.09.06-.14.08,0,.08.06S37.35,48.51,37.33,48.69Z"/><path class="cls-1" d="M36.32,48.35c-.06,0-.09.09-.11.09a.91.91,0,0,1-.14-.07s.06-.06.09-.07A.54.54,0,0,1,36.32,48.35Z"/><path class="cls-1" d="M24.94,45.06,24.83,45a.36.36,0,0,1,.1-.11s.08,0,.12,0Z"/><path class="cls-1" d="M38.83,49.76a.53.53,0,0,1-.14.08s-.06-.05,0-.07a.16.16,0,0,1,.07-.09S38.77,49.72,38.83,49.76Z"/><path class="cls-1" d="M31,46.37s-.07.07-.1.07a.19.19,0,0,1-.1,0s0-.09,0-.09A.43.43,0,0,1,31,46.37Z"/><path class="cls-1" d="M26.2,45.22l.18-.06v.05l-.16.09Z"/><path class="cls-1" d="M46.73,52.71c0,.06.08.09.08.13s0,.06,0,.09-.07,0-.08-.07S46.71,52.79,46.73,52.71Z"/><path class="cls-1" d="M41.3,50.41c-.1.06-.15.1-.16.09a.52.52,0,0,1-.1-.11s.06-.07.09-.07A1,1,0,0,1,41.3,50.41Z"/><path class="cls-1" d="M40.06,50s.07.08.06.1,0,.06-.08.06-.07,0-.07-.06Z"/><path class="cls-1" d="M32.54,46.92h-.33v-.05l.33.05Z"/><path class="cls-1" d="M22,44c0,.07,0,.13-.05.2h-.07L22,44Z"/><path class="cls-1" d="M24.82,44.67l-.09.2-.07,0,.1-.2Z"/><path class="cls-1" d="M34.74,48l-.05.26a.5.5,0,0,1,0-.12S34.69,48.1,34.74,48Z"/><path class="cls-1" d="M30.35,7.23a.83.83,0,0,1-.16.12s-.05,0-.08-.07a1.66,1.66,0,0,1,.13-.14Z"/><path class="cls-1" d="M30.61,7.61s0,.08-.05.11l-.13.16-.05,0a.76.76,0,0,1,.12-.19s.07,0,.11,0Z"/><path class="cls-1" d="M15.06,68.08h0Z"/></g></g></svg>