<svg xmlns="http://www.w3.org/2000/svg" viewBox="0 0 512 512"><title>4d-logo</title><g id="Layer_2" data-name="Layer 2"><path d="M208.72,43.29l3.4,2c1,.58,1.55.46,2.09-.5.41-.73,1.33-1.25,1.78-2a22.92,22.92,0,0,0,1.13-2.65,3.18,3.18,0,0,1,.93-1.42c1-.65,2-1.16.37-2.08l.61-1.21-1,.08.43,1.08-3.16.86a9.38,9.38,0,0,1-.48-2.82c.07-.56.89-1.09,1.46-1.56s.88-1.06,1.83-.17c.67.63,1.92.84,3.07,1.31,0-.2,0-.07,0,0a18.76,18.76,0,0,0-.75,2,2,2,0,0,0,1,.41A9.64,9.64,0,0,0,223.3,35a3.36,3.36,0,0,0,.41-1.19l-.06,0c1-.33,2.35-.46,1.18-1.83a10.05,10.05,0,0,1,1.75-1.37c1.41-.95,2.86-1.87,4.35-2.84a1.27,1.27,0,0,0-.2-.29l-2-1.82c1-.63,2-1.27,3.06-1.85.1-.05.54.33.83.51-.16,0-.44,0-.46.07-.19.48-.63,1.08-.44,1.45.59,1.17.75.16,1.21-.19,1.1-.85,3.33-1.6,3.31-2.34-.07-1.91,1.66-2.32,2.73-3.26,2.39-2.09,4.86-4.11,7.55-6.37l-.44,3.41.77.13c.23-1,.45-2,.68-3,.09-.36,0-.9.29-1.06a4.87,4.87,0,0,1,1.78-.53c1.36-.2,2.36.6,3.53,1s1.24.1,1.25-1c0-.18.25-.53.37-.52.87,0,1.74.09,2.6.19.52,0,1,.19,1.53.29-.24.57-.49,1.13-.73,1.7l-.63,1.48,2.1.3a6.15,6.15,0,0,1,1.08.23,17.36,17.36,0,0,1-.44,1.83,3.69,3.69,0,0,0-.64-.48c-.21-.1-.6-.23-.7-.15s-.6.56-.52.72c.72,1.41,0,2.38-1.22,3.31a1.42,1.42,0,0,0-.38,1.2c.2,1.77-1,2.48-2.8,3-1,.29-1.83,1-2.82,1.37a13.5,13.5,0,0,1-3,.71c-1.54.17-1.88.55-1.18,1.63,1.24,1.91,1,2.82-1.22,4.19l1.48.66a5.58,5.58,0,0,0-1.19,1c-.38.55-1,1.36-.75,1.74.42.68,1.28.72,2.23.14,1.72-1.06,3.83-1.8,3.08-4.14a3.6,3.6,0,0,1,1.29-.5,4.75,4.75,0,0,1,1.23.12,4.1,4.1,0,0,1-.74-.53c-.2-.22-.49-.67-.41-.73a5.89,5.89,0,0,1,1.93-1.29c1.58-.45,1.61-.36,2.14-2,.25-.77,2.8-1.64,3.84-1.31.05-.11.18-.28.14-.31-1.93-1.6-.77-2.9.42-4.35.94-1.15,1.41-2.56,2.27-3.77.32-.45,1.15-.65,1.88-1l-1.51-1.12c2.14-.07,4.25.81,5.89-.8.17-.16.86-.08,1.21.06s.42.62.31.77c-1.25,1.62.45,1.22,1.3,1.3s1.52,0,.68,1c-.47.54-.4,1.37-.66,2.05a5.45,5.45,0,0,1-.7,1.21c-2.45-.82-1,.69-1,1.23-1.48.06-1.48.06-1.67-1.82a10.81,10.81,0,0,0-1.95,1.43c-.62.72-.86,1.49.79,1.6a9.08,9.08,0,0,1,1.94.55l-2.06,1.76-1.7-.8-.43.69,2,.06h.21c-.73.73-2.07,1.25-1.17,2.52.07.1-.08.31-.13.46-2-.7-1.89,1.42-3.22,1.73-.38.08-.9,1-.74,1.25.91,1.76-.43,3.52.15,5.25l-.16.62c0,.86-.21,1.84.2,2.55,1,1.72.1,2.9-1.18,4.06-.65.58-1.31,1.09-1.36-.31a2.46,2.46,0,0,0-.39-.82l-.72-1.33c-.83.55-2.67-.61-2.86,1.25-.06.58-1.07,1.09-1.28,1.94a7,7,0,0,1,1.73-.82,4.85,4.85,0,0,1,1.62.28l-1.24.65-.88.44c.18.22.33.46.53.66a5.19,5.19,0,0,0,.58.44c-.32.19-.62.55-.95.56-1.61.08-3.22.12-4.82,0a11.61,11.61,0,0,1-2.28-.54c0-.27,0-.54,0-.81l-.73.45.8.32c-.29,1.12-1.12,2.1.07,3.39.64.7.18,2.1.2,3.18,0,.09-.2.27-.24.26-.31-.11-.81-.21-.86-.38-.28-1.1-1.24-1-2-.64a2.69,2.69,0,0,0-1.13,1.47A6.93,6.93,0,0,0,244.4,57c0,1.1.2,2,2,1.93.34,0,1.12.84,1.05,1.23a15.36,15.36,0,0,1-1.41,4.21c-.21-1.4-1.1-2-2.4-1.48-1.11.43-1.23.92-.4,1.6a1.36,1.36,0,0,1-.43,2.54c-.26.09-.42.45-.56.71-.23.43-.25,1.11-.62,1.28-1,.43-1.74.8-1.32,1.86,0,.1,0,.32-.11.34-2.78.82-2.29,3.38-3.78,4.88a1.93,1.93,0,0,1-1.08.52c-.9.06-1.41.2-1.07,1.1a1.19,1.19,0,0,1-.3,1q-3.4,4.31-6.88,8.56c-.64.79-1.43,1.49-2.1,2.25-1.83,2.07-3.69,4.11-5.42,6.22-1,1.17-1.66,2.49-2.55,3.7a2.73,2.73,0,0,1-1.35,1c-.83.21-1.42.32-.94,1.17.06.09.06.3,0,.34-1.85.91-1.62,2.92-3.06,4a24.11,24.11,0,0,1-2.4,1.36c-1.28.74-2.67,1.42-2.34,3.08a2.82,2.82,0,0,1-1.74.56,10.54,10.54,0,0,1-2.21-1.24,1.11,1.11,0,0,0-.79-.12c-.15.06-.22.41-.18.61a5.85,5.85,0,0,0,.51,2c1.07,1.86-.05,2.9-1.72,4-.5.32-.32,1.3-.74,1.83a25.48,25.48,0,0,1-2.91,3.17c-1,.94-3.54,1.15-2.06,3.22.09.14-.22.56-.45.76a63.79,63.79,0,0,0-4.37,4.72,19,19,0,0,0-2.92,3.79c-.29.51-1.8.53-1.49,1.64-3.6.39-3.13,3.83-5.64,5.27-1.24.71-1.92,2.37-3.88,2.54a11.33,11.33,0,0,1-1.84-.33,1.51,1.51,0,0,0-1,.23,14.52,14.52,0,0,0-1.16,1.4l2.08.31c-.36,1.06-.37,2.42-1.19,3.1s-1,2.46-3,1.44c-.29.51-1,1.24-.8,1.5.74,1-.18,1.28-.74,1.84-2.16,2.15-4.13,4.45-6.45,6.48-1.76,1.55-4.36,2.53-5.83,4.21a43.25,43.25,0,0,1-7.55,6.33c-1.49,1.07-2.06,3-3.06,4.56-.15.22-.4.51-.64.53a1.54,1.54,0,0,1-1-.26c-.12-.1,0-.55.2-.74.92-1,1.88-1.93,2.83-2.89l-.64-.61-3,1.81-.67-.73c-.61.48-1.23,1-1.8,1.48,0,0,.55.41.67.67a1.94,1.94,0,0,1,.11,1.09,14.32,14.32,0,0,1-.6,1.79l1.93-.89.35.26-.81,1c-.35.43-1.1,1-1,1.27.61,1.67-.92,2.44-1.86,3.45-1.15,1.25-2.4,2.44-3.6,3.66-.16.17-.26.43-.46.51-2.47,1-3,3.58-5.06,4.6s-2.3,2.82-3.65,4c-1.76,1.47-2.85,3.36-4.75,4.67a18.07,18.07,0,0,1-2.86,1.21,1.14,1.14,0,0,0-.6.51c-1.52,4-1.68,3.83-4.83,6.52-2.56,2.19-4.63,4.78-7,7.14a5.51,5.51,0,0,1-1.81.71c.14.31,1.23.71-.37,1.13-1,.26-1.58,1.59-2.38,2.43a23,23,0,0,1-1.66,1.61c-.62.54-1.32,1-1.94,1.55-.17.15-.08.55-.26.63-3.18,1.47-3.94,4.77-6.91,6.38a10.5,10.5,0,0,1-2.35.87,3.42,3.42,0,0,0-2.61,3c-.38,2.44-2.7,3.38-4.52,4.71-.54.4-1.72.31-1,1.33-.78.33-1.55.67-2.35,1-.06,0-.32-.45-.54-.65s-.66-.58-.8-.52c-.32.13-.79.55-.72.71a7.11,7.11,0,0,0,1.64,2.77c.41.33,1.81-.33,2.75-.29a12.67,12.67,0,0,1,3.31.62c.87.3,1.32,1.07,2.61.27.85-.52,2.63.13,3.7-.28,2.55-1,5,.79,7.51-.15,1.88,1.73,4-.07,6,.3,3,.57,6-.07,9,1,1.75.62,4.06,0,6,.37s4.24-.45,5.46.22c2,1.11,3.9.15,5.78.77,1.43.46,3.19.23,4.79.35a8.58,8.58,0,0,1,1.4.32c.43.09.86.15,1.29.24.58.13,1.16.3,1.75.4a7.19,7.19,0,0,0,1.39.13c1.12,0,2.43-.45,3.33-.11,1.65.62,3,.94,3.91.22,1.19.39,2.34,1,2.56.81,1.51-1.26,2.81-.09,3.47.49.86.74,1.47.58,2.43.57,2.16,0,4.32.3,6.49.33,1.47,0,2.95-.2,4.49-.32-.36,1.84,1.32,1.27,2.61,1.13.59-.06.45.16.84.28a7.82,7.82,0,0,0,2.43.09c.54,0,1.41-.37,1.58-.2,1.75,1.81,4.65.86,6.66,2,.13.08.54-.21.83-.28.54-.15,1.39-.51,1.6-.34,1.53,1.26,3.65,1.38,5.49,1.9,1.33.38,3,0,4.49-.08a5.07,5.07,0,0,1,.88.06c.79.15,2,.67,2.28.44,1.27-1.2,2.49-.28,3.76-.26,1.9,0,3.29,2.15,5.42.85-.32,1.3,1.19.69,1.75,1.11,1.5,1.12,3.16,2.12,5.38,1.14.64-.29,1.35-.7,2,.17a1.69,1.69,0,0,0,1.28-.07c1.48-1.74,2.48-.53,3.53.35.13.11.09.48.17.49a24.91,24.91,0,0,0,5.54.37c1.78-.25,2,.28,2.07,1.41.83-.85,4.42-1,4.68-.16.6,1.95,1-.17,1.57,0,.21,1.53,1.24,1.55,2.9,1.23a7.34,7.34,0,0,1,3.45.7c1.29.47,2.15.18,2.42-.83a24.79,24.79,0,0,0,1.05-5.73,4.43,4.43,0,0,1,3.74-4.08,14.61,14.61,0,0,0,3.82-2.06c.1-.06.07-.47,0-.48a20.76,20.76,0,0,0-3-.54c-.39,0-.83.63-1.22.62a4.79,4.79,0,0,1-1.54-.62c1.55-.49,0-1.31.29-2,.87-2,1.73-4,2.45-6a12.53,12.53,0,0,0,.36-2.67c.2-1.54.25-3.05,2.14-4.08,1.58-.85,1.27-2.33,1.29-3.75a36.79,36.79,0,0,1,.93-5.23,3.17,3.17,0,0,0-.08-1.5c-.22-.67.82-3.91,1.5-4.22.16-.07.4,0,.61,0,1,0,2-.08,3.07-.15.11,0,.28-.4.25-.42-2-1.18.74-4-2.4-4.87-.43-.12-.63-1.5-.47-2.22a66.17,66.17,0,0,1,2.43-8.13l0,1.6c1.05-1,1.81-1.8,2.61-2.54a1,1,0,0,1,.62-.11,6.82,6.82,0,0,1,.57,1.38c.13.54.15,1.11.26,2a1.25,1.25,0,0,0-.82.31c-.3.31-.24.85-.34,1.3a5.72,5.72,0,0,0,1.1,0c.81-.17,1.6-.39,2.4-.6l-1.33,2.6-1.58.7,1.55.59a26.34,26.34,0,0,0-1.2,2.67c-.12.34.18.78.29,1.18a8,8,0,0,0,.62-.82,8.38,8.38,0,0,0,1-2c.08-.3-.44-.7-.68-1.06,0-.44,0-.89,0-1.33a7.74,7.74,0,0,0,.86,0c.2-.86.34-1.73.5-2.59.14-1.72,1.7-2.64,3-3.73.22-.19.41-.71.28-.83-1.87-1.76-1.77-2.23.29-3.82a6,6,0,0,0,1.74-2.35c.41-1,.92-1.4,1.92-.66.21.14-.25.92-.41,1.4-.07.23-.16.45-.24.68l-1,.86.58.36c.14-.41.28-.82.43-1.23l1.65.23c.13.27.22.75.38.77,1.8.21,1.4,1,.63,1.88,1.69.31,2.51-1.61,4.5-.67a2.54,2.54,0,0,0,3-2c0-.32-.25-.65-.39-1-.25.14-.49.4-.75.4-2.51.07-4.82,1.77-7.48.67.22-.15.43-.42.67-.45,1.39-.17,2.07-.43.43-1.3-.31-.16-.44-.56-.66-.86l1.53-.44c.23,1.89,4.16-2.32,3.31,1.39a3.41,3.41,0,0,0,.08,1c.35-.21.83-.35,1-.63a5.8,5.8,0,0,0,1.47-4.63c-.18-1.06.69-2.23,1.07-3.36a27.55,27.55,0,0,0,.87-2.76c.05-.21-.39-.69-.65-.72a11.44,11.44,0,0,0-1.93.12c.38,1.48-.88.66-1.49.73l.1.08c-.12-.33-.25-.66-.37-1l-1,.34c-.7.51-1.46,1-2.11,1.55-1.8,1.56-2.09.31-2.44-.87l1.33.1c-.08-.29-.15-.58-.23-.87a2.79,2.79,0,0,0,.38-.83,3,3,0,0,0-.19-.9,6.22,6.22,0,0,0-.89.46c-.4.3-.75.65-1.46,1.28.2-1.45.34-2.5.46-3.4L270.31,181l-.8.82,1.19-.4c.23.39.74,1.05.64,1.12-.93.68-2,1.22-1.91,2.46a1.68,1.68,0,0,1-.68.1,1.11,1.11,0,0,1-.24-.75c.1-.69.28-1.36.41-2,0,0-.11-.07-.17-.1-1.34,1.36-2.14,1.37-3.1.05,2.42-.2,3-1.74,3.9-3.7-1.84.74-3.23,1.28-4.57,1.89-.18.08-.11.55-.16.84l-2.84.9.84-4-.65-.32a15.75,15.75,0,0,1-2.78,2.51c-.67.39-1.84.17-2.79.23,0-.25,0-.6.14-.74s.75-.15,1-.34a14.92,14.92,0,0,0,1.42-1.56s-.34-.38-.38-.36c-.6.27-1.17.57-1.73.89a3,3,0,0,0-.51.43l-.42-.29,1.92-1.82-4.95.69-.17-.6,3.25-1.52-5.74-2.08a14.32,14.32,0,0,0,2.17-.36c.31-.13.76-.6.69-.71-.23-.36-.72-.91-1-.87a4.22,4.22,0,0,0-1.84.76c-1,.71-2,1.54-3,2.26-.11.07-.9-.25-.9-.39a1.31,1.31,0,0,1,.48-1c1.5-1,3-2,4.58-2.94l-.59-.69c-1.5.77-3,1.53-4.48,2.35a1.46,1.46,0,0,0-.74,1c0,1.35-.93,1.26-2.12.93,0-.64,2.38-1.09.33-1.92l1.56-2.21,0,0,1.06-1.62c-1.87,0,.29-2.93-2.42-2.33l-2.22-1-.1,1.4c-.6-.24-2.46.48-1.25-1.17.16-.22-.14-1-.46-1.1-2.52-1.23-.51-1.61.54-2.17a10,10,0,0,1,.94-.43l1.22-.4a8.53,8.53,0,0,1-1-.69,2.66,2.66,0,0,1-.4-.72l.14-.47a4.28,4.28,0,0,1,.1-1.24,1.06,1.06,0,0,1,.77-.49.93.93,0,0,1,.67.52,6.46,6.46,0,0,1,.32,1.94c0,1,.66,1.4,1.67,1.26s1.91-.43.92-1.51c-.11-.12.28-.55.44-.84.51.22,1.41.39,1.45.66.16,1.05.4,1.79,2,1.47.07,0,.27.53.45.8a6.94,6.94,0,0,0,.51.59c.33-.9,2.35-1.12,1.45-2.51h0c.48,0,1,0,1.44.07.73.06,1.63.45,1.6-.73,0-.36.31-.72.47-1.09a19.9,19.9,0,0,0,1.94.75,4,4,0,0,0,1.39.1c.14,0,.17-.44.34-.62.45-.5.95-1,1.44-1.47l-.07-.08c.07,1.17,1.78,2.15,3.07,2.05a10.27,10.27,0,0,1,.59-1.95,7,7,0,0,1,1.14-1.26l-.07.06c1.48-.06,3.17.48,4.07-1.08.28.27.5.63.86.78a5.63,5.63,0,0,0,2.11.54,1.48,1.48,0,0,0,1.06-1c.05-1.33-.91,0-1.32-.29a4.2,4.2,0,0,0-1.06-.62,5,5,0,0,0-2.24-.38c-1.58.41-2.11-.12-2.25-1.29l1-4.67c-.86.43-1.44.55-1.66.86-.66.89-1.28,1-2.15.2a1,1,0,0,0-.81-.06c-.59.3.84.73-.22,1.38-.67.42.58,1,1.54,1.06a7.28,7.28,0,0,1,1.71.62,32.2,32.2,0,0,0-3.72,1.72c-1.22.78-2.18,1.82-3.36,2.65a3.11,3.11,0,0,1-1.76.37c-.19,0-.59-1-.43-1.12,1.78-1.39-.07-2.39-.69-3.26-.9-1.27-1.15-1.14.47-2a4.92,4.92,0,0,1-1.64-.35c-.9-.7-1.4-.57-2,.28a6.44,6.44,0,0,1-1.52,1.12,10.29,10.29,0,0,0-.83-1.34c-.09-.11-.53,0-.81,0l0,.06c-.48-2.38,2.22-1,3.13-1.84.32-.28,1-.3,1.36-.54,1-.6,2.5-.29,2.8.59a5.4,5.4,0,0,0,.47.84,3.87,3.87,0,0,0,1.28-.56,9.9,9.9,0,0,0,1.09-1.84c.48,1.3.79,2,2,.62.57-.62,2.17-.69,3.32-.77,1.64-.12,3.37.21,5-.08,2.16-.4,4.12.39,6.22.31a30.84,30.84,0,0,1,5,.6c.7.09,1.6.43,2.07.19,2-1,3.6.09,5.41.41,2.77.49,5.64.59,8.46.9.73.08.72-1.64,2-.53.13.12,1.48-.38,1.72.71a1.91,1.91,0,0,0,1.28.08c1.31-1,2.35-.16,3.28.35,1.84,1,3.83.07,5.74.49,1.46.33,3,.3,4.18,1.31.11.09.66-.19,1-.29l1.33-.34.3,1.41c.79-.38,1.59-.79,2.42-1.14a.75.75,0,0,1,.63.23c.74,1.44.77,1.48,2.79,1.05.8-.17,1.63-.61,1.51.65,0,.19.21.4.32.6,1.93-.81,2.92,1.19,4.62,1.07l.43.25.21.85.74-.91-.08,0c2.12.77,3.77,1.76,2.84,4a1,1,0,0,0,0,.35,2.78,2.78,0,0,1,2.53,1.49c.5-.52,1-1,1.49-1.56.13-.17,0-.47,0-.71l.36,0c.28,1,1,1,2,.65a9.21,9.21,0,0,1,2.28-.44c.31,0,.92.4.93.63a2.36,2.36,0,0,0,2.89,2.34c.29,0,.94.43.91.59-.21,1-.57,1.89-1,3.09a8.4,8.4,0,0,1,1.58-.43,4.77,4.77,0,0,1,1.34.16,14.06,14.06,0,0,0,2.08.45c.15,0,.37-.76.52-1.18.26-.7.49-1.4.72-2.1.78.44,1.52.93,2.34,1.31,2.22,1.06,3.6,3.1,6.84,3.07,1.73,0,3.49,1.66,5.25,2.56a6,6,0,0,0,1.29.45,11.31,11.31,0,0,1,4.66,2.18c.13.1.52,0,.77-.05a2.79,2.79,0,0,1,3.59,2.45c.09,1.1-.38,1-1.17.78s-1.87-.47-2.9-.73l-.2,2-.95-1-.48.13,1,1.79.51-.87c1.23-.24,2.45,1.24,3.67,0l1,2,.8-3.81c1.42,1.51,2.53,2.9,4.81,1.63a1,1,0,0,1,.71.28c.95,1,1.81,2.07,2.8,3,.68.66,1.11.29,1.48-.37.13-.25.69-.34,1.06-.51a2.78,2.78,0,0,1,.31.95c0,.67,1.72,2,2.4,1.6,1.17-.65,1.12-.13,1.21.61.05.37.48.71.74,1l-.06-.08-.7,3.34h.42l1.63-3.14-.12,0a2.44,2.44,0,0,1,2.53,1.09c.65.74.44,1.46-.86,1.81-.53.14-.89.73-1.33,1.12.28.15.7.49.83.42.81-.4,1.53-.93,2.35-1.33a4.67,4.67,0,0,1,1.59-.42c.09,0,.5.67.38.83a9.68,9.68,0,0,1-1.58,1.55,2.7,2.7,0,0,1-.83.28c.27.26.48.64.83.77.91.34,2.37,0,2.29,1.46l-.09.65,1.42-.68-.89-.31c1.26-.48,2.91-.69,2.31-2.44,1.12.46.81,2.33,2.78,1.73.06,0,.38.32.44.53.43,1.42,1.53,1.51,3,1.19.51-.11,1.59.1,1.61.26a2.36,2.36,0,0,1-.32,1.72,6.82,6.82,0,0,1-1.84,1.53c-.41.26-.72,1.84-1.56.2,0-.06-.44,0-.68,0,0,.4-.1.91.14,1.18.7.81,1.42,2,2.37,2.17a15.57,15.57,0,0,0,4.89-.22c1.21-.17,2.05-1.8,3.64-.63.09.06.4-.09.61-.14l.83-.27.74-.05c.23,1.65,1.35.86,2.06.63.06,1.5.12,3,.16,4.07a9,9,0,0,1,1.93.65,11.77,11.77,0,0,1,1.52,1.39h0l-1,.89c.36.08.72.14,1.08.24s.54.14.61.28a6.29,6.29,0,0,0,3.53,3.57l-.59,1.31c.7.06,1.49,1.5,2.08-.09a29.49,29.49,0,0,1,2.88,1c.72.32,1.24,1,2,1.23,1.66.61,1.72.65.65,1.7a.75.75,0,0,0-.24.65c.28.86.28.82-.52,1.28-.33.19-.79.65-.7.8a2.19,2.19,0,0,0,1.08.92c.78.28,1.95.24,1,1.39,0,.06.26.32.4.49,2-1.27,1.46.92,1.51,1,.6,1.49,1.18,1.79,2.54.89,1-.69,1.92-1.55,2.91-2.36a13.66,13.66,0,0,0,1.95,2c1.66,1.21,1.06-1.16,2.76-.88l-2.53,3.69c2.06.72,4.42,1.55,5.7,3.59.09.15.87-.09,1.16.07a9.44,9.44,0,0,1,1.41,1.11c-.64.26-1.29.5-1.92.77a3.9,3.9,0,0,0-1.35.69,13.74,13.74,0,0,0-1.23,2.12c1.21-.28,2.79-1.83,3.59.4,0,0,.88-.35,1.09-.23,1.26.72,2.83-.64,4.05.45.12.11.94-.33,1.43-.51l-1.13-.74,0,.06,1.44-2.06c0,.81,0,1.63,0,2.44,0,1.33.65,2.71-.62,3.9-.07.06.06.33.18.45a30.38,30.38,0,0,1,2.42,2.39c.26.32,0,.92,0,1.4l.1,0-.86,1.54c.43.11,1.1.42,1.25.3a4.38,4.38,0,0,0,.82-1.28l0,0,2.71-.81-.06,0c-.11.33-.09.82-.35,1-1.73,1-1.85,2-.23,3.16.13.09-.09.66-.31.91-.46.51-1,1-1.54,1.45l.93.48,2.65-3.53,1.82,4.23-.06,0-2,1.8,1.7.46c-1.65,0-2,.69-1.76,2.19,1-.67,1.8-1.27,2.69-1.77a5,5,0,0,1,1.36-.32l.32,2.21a4.86,4.86,0,0,1-1.5.12c-.93-.21-1-.22-.95.48.09,1,.09.93-1.2,1-.21,0-.4.27-.59.42.43.28.84.73,1.3.78a4.16,4.16,0,0,0,1.56-.47l-.05-.06a23.9,23.9,0,0,0-1.06,2.31,2.29,2.29,0,0,0,.13,1.28,5.19,5.19,0,0,0,.94,0h0c-.57.28,1.58,1.84-.86,1.27a.77.77,0,0,0-.58.34c0,.24,0,.63.23.74a21.89,21.89,0,0,0,2,.9c.27.49.53,1,.87,1.62,1.11-1.85,1.11-1.85-.34-1.95l1.71-2.32a25.16,25.16,0,0,1,.18,4.25c-.06.48-.93.9-1.45,1.34-1,.84-.92,1.08.31,1.77.18.1.21.63.06.84-.8,1.15-.5,2.08.95,3l-1.77.06c.77,1.48,1.47,3,2.31,4.4.28.46,1,.72,1.38,1.17a1.13,1.13,0,0,1,.08,1.17c-1.16,1.52-.93,2,1.33,2.26a2.88,2.88,0,0,1,.59.23v0c-.93,2.29-1.86,4.5-.4,7a19.71,19.71,0,0,1,1.4,4.43l0-.05a4.13,4.13,0,0,0-.89,1c-.37.88-.61,1.8-.9,2.71l2.24-.12.93,1c-2.06,1.34-.87,3.21-1.08,4.84,0,.16.34.35.52.52.17-.21.45-.4.49-.62.17-.94.27-1.89.4-2.84h.71c1.14,1.28.35,4.09-1.15,4.75a11.52,11.52,0,0,0-2.22,1.56c.11,1.19.19,2.09.28,3,0,.37.09.74.13,1.11a4.43,4.43,0,0,0,1.14-.25,4.71,4.71,0,0,0,1.53-1.07c.52-.67,2-2-.84-1.24-.25.07-1.56.08-.56-.83.34-.31.33-.89.66-1.92.37,2.49,1.64.78,2.34,1a41.83,41.83,0,0,1-1.26,5.51,1.62,1.62,0,0,1-2.33,1.16,2.88,2.88,0,0,0-.8-.09,6.41,6.41,0,0,0,.27,1.92c.16.36.82.57,1.28.85-.23.13-.95.37-.93.54.2,1.37-.34,2.9.9,4.05.21.19,1.2-.2,2.46-.45a16.11,16.11,0,0,0-1.91,1.57,3,3,0,0,0-.33,1.18l-.22,1.06c0,.63.94,1.46-.55,1.76.09.23.2.66.26.66,1.41-.15,1,.56.45.86-1.38.76-1.19,1.65-.56,2.59-.74.54-2.65-.82-2.26,1.12.05.26.09.52.14.77a5.3,5.3,0,0,0,.81-.18c.39-.17.76-.38,1.14-.57a3.72,3.72,0,0,1,.25,1.15,21.83,21.83,0,0,1-.45,2.22l-.71-1.09-.29,1.36c-1.75-1-1.19,1.15-2.22,1.15l.18.49,1.26-1.07.74-.63,1-.24c.27,2.32-1.25,4-2.51,5.55.43.53,1.13,1.05,1.25,1.65s-.35,1.24-.58,1.87-1.54,1.2.29,1.46a2.81,2.81,0,0,1-.14.85,9.42,9.42,0,0,0-.52,1c-.61,2.44-1.18,4.89-1.85,7.76l-1.32-1.7a20.91,20.91,0,0,0-1.58,1.85c-.05.07.74.78,1,.73,2.5-.43,1.53,1,1.44,1.86a9,9,0,0,1-.59,1.87c-.35-.21-.84-.7-1.13-.63-1.22.3-.19,1-.26,1.45a35.48,35.48,0,0,1-1.12,4.46c-.08.29-.47.6-.4.83,1.05,3.31-1.35,6.21-1.51,9.36-.06,1.06.11,2.13,0,3.17a9.3,9.3,0,0,1-.76,2c-.69,1.79-1.37,3.59-2.06,5.39-.58,1.52-1.2,3-1.72,4.55-.34,1-.27,2.11-1.79,2.59-.5.16-.81.75-1.21,1.14l-1-1.67-.47,0a8.14,8.14,0,0,1,.13,2,1.33,1.33,0,0,1-1,.85c-1.11,0-2.23-.24-3.34-.22a5.32,5.32,0,0,0-2.06.6c-.23.12-.19.63-.28,1a6.15,6.15,0,0,1,.95-.11c1.63.06,3.26.14,4.67.21a5.94,5.94,0,0,0,.09,1.83c.72,1.87-.75,3-1.85,4.31-.33.39-.82,1-.68,1.3.39.9.11,1.35-.89,1.67-.22.07-.52.43-.47.59.56,1.77-.8,2.63-2.16,3.67-.81.62-1.16,1.69-2.21,2.24-.67.35-1.31.72-2,1.08l-.8-.78-.47.71,1.33,0c.68,1.16,1.47,2.36-1,2.62a5.47,5.47,0,0,1-1.2-.25c-1.75-.27-3.5-.52-4.83-.71l4.42,4.9c-1.75,0-3,0-2,1.56.17.23-.35.88-.68,1.26-1.11,1.33-2.27,2.63-3.45,3.92-.58.64-1.3,1.2-1.84,1.85a53,53,0,0,1-3.36,4.12c-.66.66-1.95.85-2.39,1.82-.08.18-.56.21-.68.4-.92,1.4-.91,1.4-2.22,0l-1.49.32.28.47,1.21-.8c0,.82-2,1.63,0,2.47-.84,1-1.43,2.39-2.59,3s-1.54,2.55-3.64,2.18c-.05,0-.22.21-.22.32,0,1.1-.79,2.22-1.76,2.24a2.94,2.94,0,0,1-2.7-1.39c-1.42-1.83-.34-2.66.74-4,.52-.66-.09-1.94-.18-2.94-.34.27-1,.62-1,.79.8,2.32-1.89,2.88-3,4.21a1.28,1.28,0,0,1-1,0c-2-.92-2.13.82-3,1.51-.07.06.37.8.64.83,1.4.17,2.61.24,2.33,1.94-.09.56.64,1.37,1.25,1.84,1.67,1.25.49,2.21-.45,3a46.53,46.53,0,0,1-4.48,3.29c-.23.16-.73,0-1.11,0,.16-2.07-3.08-2.45-3-4.77l-2.08,1.6-.3-.25c.22-.56.43-1.12.65-1.69l1.05-.92-.53-.26-.45,1.26c-.4-.4-2.15.19-1.27-1.19.06-.09-.26-.49-.42-.5s-.76.08-.85.25a40.48,40.48,0,0,0-1.86,3.88,13.78,13.78,0,0,0,1.83.75c-.07.3-.22,1-.37,1.74-.48,2.4,1.59,3.09,3.65,3.78l0,0c-2.1,1.42-4.14,2.9-6.32,4.23-1.24.75-2.71,1.22-4,1.89-.66.33-1.19.83-1.81,1.22a57.59,57.59,0,0,1-6.15,3.7,36.46,36.46,0,0,1-5.78,1.66,2,2,0,0,0-.73.24c-2.87,2.82-6.62,4.33-10.85,5.2-.63.13-.42,1.59-1.8,1-.84,1.59-3.66.24-4.46,2.1-.16.36-1.46.36-2.22.56a28.19,28.19,0,0,0-3.53,1c-2.28.93-4.49,2-6.72,3l-.48.23c-1.4-.71-2.19,0-3.09.8-.24.21-.86,1.93-1.61.15a.69.69,0,0,0-.48-.21c-3,2.34-7.1,2.13-10.69,3-2.23.57-4,1.89-6.38,2.2-2.21.3-4.38,1-6.6,1.12a8.4,8.4,0,0,0-5.49,2,1.59,1.59,0,0,1-2.43,0l-.12-1.38-.82.14c.21.46.43.92.65,1.38a18,18,0,0,1-1.93,1.56,4.92,4.92,0,0,1-1.51.34l.47-1.32a5.79,5.79,0,0,0-5.13,1.64c-.21.23-.71.27-1.08.4-.06-.23,0-.55-.19-.68A1,1,0,0,0,306,490c-1.07.63-2.08,1.35-3.16,2a1.42,1.42,0,0,1-1-.28c-.87-.69-2.21-1-2.77-.31a2.94,2.94,0,0,1-3.48.85l0,0c-.94.91-3.17.2-3.45,1.93l.06,0c-1.15-1-1.45.11-2.1.54a8.6,8.6,0,0,1-1.84.72l-.08-1.05-2.6,1.09.22-1-2.33.83.72-1.37-.74-.08.07,1.42c-.86.79-1.7,1.59-2.61,2.34a1.08,1.08,0,0,1-.83,0,1.71,1.71,0,0,1-.36-1.16c.06-.25.62-.42,1-.66-2.51-1.54-1.59.87-2.35,1.29-.19.1-.31.44-.46.44-.53,0-1.49-.06-1.52-.2-.36-1.91-1-.48-1.55-.12a21.81,21.81,0,0,1-2.67,1.62c-.27.13-.9-.29-1.37-.46l1.56-.86c-.47-.33-.92-.68-1.43-1-.15-.08-.46.05-.7.08l.6,1.21c-1.61.45-3.22,1-4.86,1.32-.24.06-.8-.39-.95-.69a5.84,5.84,0,0,1-.34-1.5c-1,.49-2-1.85-3.18,0-.29.48-1.58.72-2.41.71-.51,0-2.56.51-1.42-1.21.13-.2-.38-1-.47-.94-.62.1-1.44.2-1.74.56-.85,1-3.57.36-3.09,2.45l.06,0c-2,.18-3.94.47-5.26,1.95a17.62,17.62,0,0,1-1.41,1.31l-.43-.28.87-1.14L246,500a4.69,4.69,0,0,1-1,.7c-.3.1-1.24,1.21-1-.27a10.69,10.69,0,0,0-1.5.06c-1,.19-2.08.53-2-1.13-.79.52-1.46,1-2.16,1.41a3.16,3.16,0,0,1-1.13.43c-.14,0-.36-.31-.55-.48l1.43-.45c-1.87-.58-1.87-.58-2.64.8l-2,.15-1.73-.75,1.44-1.47a8.9,8.9,0,0,0-1.16-.63c-1.85,1.75-3.22-.21-4.8-.33a15.3,15.3,0,0,0-3.92.71,1.33,1.33,0,0,1-.54,0c-.37-1.56-1.37-.25-1.62-.1-1.08.66-1.2.21-1.2-.56,0-1.32-2-2.36-3.41-1.74a34.56,34.56,0,0,1-3.32,1.56,5.23,5.23,0,0,1-2.06-.22c-.45-.07-.87-.22-1.32-.27-.15,0-.46.32-.49.29-2.74-2-3.93,1.82-6.31,1.21-.07,0-.27.65-.56.85-.79.55-1.66,1-2.5,1.54-.11-.16-.34-.34-.31-.49a19.93,19.93,0,0,1,.53-2.41c.07-.23.38-.4.58-.6a8.51,8.51,0,0,0-1.51-.83c-.14,0-.68.33-.77.58-.29.86-.41,1.76-.71,2.62a7.16,7.16,0,0,1-.76,1.3c-1.08-.58.5-2.56-2.16-2.19-.47.07-.86-1.61-2.31-1.08,0-.16-.12-.34-.06-.47.81-1.68.73-1.88-1.11-3.17-.13-.09-.05-.54.08-.75s.55-.45.75-.71a7.71,7.71,0,0,0,.52-.93,17.51,17.51,0,0,0-2.77-.38,29.12,29.12,0,0,0-4,.45c-1.31.22-2.63.47-2.74,1.95,0,.14-.81.36-1.22.32s-.69-.37-1-.57a8.93,8.93,0,0,1,.77-.73,8.32,8.32,0,0,1,.86-.54l-.93-1.24c.56.05,1.11.11,1.67.15.24,0,.67.08.71,0,.26-.49.64-1,.56-1.5-.05-.3-.89-.77-1.29-.72-1.48.21-2.91.6-4.54,1,.06-1,.15-2.34-2.16-1.6a7.39,7.39,0,0,1,1.67-.72c1.15-.18,2.33-.18,3.49-.32a2.8,2.8,0,0,0,.89-.46,4.44,4.44,0,0,0-1.14-.51c-1-.15-2-.15-3-.31a3.3,3.3,0,0,1-1.05-.64,5,5,0,0,1,1.67-.41c1.23.11,2.43.44,3.66.61.24,0,.59-.23.8-.42a.45.45,0,0,0,0-.51,9.74,9.74,0,0,1-2-3.26,29.12,29.12,0,0,0-2.44-3.77l-.08,0a9.31,9.31,0,0,0,2.21-.22,5.83,5.83,0,0,0,1.46-1.14l-.06,0,1.5.74h0l-1.88,1,0,.46a51.86,51.86,0,0,1,5.94-.56c2.47,0,3.31-.95,3.35-2.79,0-.26.23-.73.17-.75-1.94-.74-.58-2-.65-3,0-.27.6-.56.92-.85.27.24.55.48.8.73a3.83,3.83,0,0,1,.63.72c.25.43.73,1,.6,1.31-.41,1.12-.69,2.17.78,2.8.94.4,3.77-1.3,3.91-2.23a.55.55,0,0,0-.17-.46c-1.85-1.66-2-2.94-.69-4.51-.34-.52-.73-.87-.75-1.23,0-.76.39-1.62.11-2.28-.5-1.17.34-1.78,1.08-2.37,1.09-.88,1.67-1.64,1.21-3.06a7.46,7.46,0,0,1,.16-3.77,68.36,68.36,0,0,1,1.87-6.83,20.77,20.77,0,0,1,1.66-3.25c.31-.57.47-1.37,1.65-.79.18.09.66-.27,1-.43a8.17,8.17,0,0,1-1.11-.27c-.41-.14-1.12-.31-1.14-.51a6.73,6.73,0,0,1,1-4.85c.11-.15,1,.1,1.55.17l0-.05a7,7,0,0,0-1,1.56,2.09,2.09,0,0,0,.22,1.52c.09.17.89.13,1.36.07.66-.08,1.75-.51,1.87-.35a8.26,8.26,0,0,1,1.12,2.29c.1.26-.06.58-.11.94,3.16-1.31,2.27-4.23,3.84-6.11.15-.18,0-.61.15-.7,2.67-1.5.21-2.49-.48-3.68a11.87,11.87,0,0,1-.67-1.65,3.63,3.63,0,0,1,.79-.25,6.9,6.9,0,0,1,1,.05,4.11,4.11,0,0,0,0-.48A3.29,3.29,0,0,0,213,433c-.24.09-.36.43-.53.67-1.2-.32-1.95,0-2.28,1.05-.07.24-.78.34-1.19.51a2.81,2.81,0,0,0,.47-.65c.06-.19-.07-.43-.09-.65-.13-1.15-.19-2.31-.4-3.45a5.39,5.39,0,0,0-.77-1.4c-.26.37-.55.72-.77,1.1a4.85,4.85,0,0,1-1.05,1.52,5.21,5.21,0,0,1-.22-1.48c.29-1.84.67-3.66,1-5.49,0-.12.13-.32.08-.35-1.79-1.1-.06-2.19,0-3.29,0-1.35-.55-2.71-.41-4a31,31,0,0,1,1.26-4.71c.07-.28.2-.63.07-.84-1.24-2,.46-4,.26-6-.12-1.17,1.45-2.4,1.73-3.68.36-1.61,0-3.32.26-5,.4-2.64,1.07-5.24,1.58-7.87.78-4.08,1.41-8.18,2.31-12.24.73-3.26,1.89-6.46,2.63-9.72.46-2,.31-4.18.74-6.23,1.06-5,2.32-10,3.47-15,.25-1.1.35-2.23.59-3.33q1.13-5.06,2.32-10.09c.85-3.56,1.77-7.11,2.6-10.68.76-3.28,1-6.68,2.27-9.82,1.12-2.8.54-5.79,1.95-8.49.11-.23-.56-.73-.86-1.1l.09-1.86h-.69l.09,1.8c-.92.33-1.83.67-2.76,1,0,0-.25-.44-.39-.67l1.43-.46c0-1.44-.48-1.72-2.6-1.47-.2,0-.54-.8-.82-1.23.5,0,1,.07,1.5.07a2.83,2.83,0,0,0,.08-.48l-1.37.45a.82.82,0,0,1-.21,0c-.33.39-1.05.87-.94,1.15.71,2-.32,1.64-1.7,1l-1.25-.56-.19-.2c-.54-.5-.51-1.61-2-1.19-.18,0-.77-.92-1.21-1.47a8.34,8.34,0,0,0-1.11-.35,3.78,3.78,0,0,0-1.21,0c-.33,0-.91.32-.92.29-1.23-1.93-2.59.58-3.82-.09a4.4,4.4,0,0,0-.05.51c0,1.23-.85,1.71-2.22,1.76a4.19,4.19,0,0,0-1,.2c-1.16.33-1.05.28-1.66-.6-.3-.43-.84-1.55-1.87-.32-.3.36-1.16.39-1.76.56l-.51-.68,2.63-.64-.25-.35-2.34-.6L200.3,300c-1.21-.59-2.42-1.17-3.61-1.79-.73-.37-1.41-.78-2.12-1.18l-.48.56,1.75,1.28-3.69,0c0-.61,0-1.3,0-2l-2.26,1.86-.24-.9c-1.94,1.22-2.58-.43-3.64-1.14a2.41,2.41,0,0,1-.41-.37c-.27,2.53-2.62.35-3.69,1.12a5.87,5.87,0,0,1-1.28.48c0-1,.88-2.89-1.84-1.45-.27.14-.94-.23-1.42-.37l.89-1.16c-.38-.1-.89-.39-1.12-.28a15.22,15.22,0,0,0-1.93,1.24l2.23.16c-3.24,1.7-5.25-.08-7.17-1.84-.8-.73-1.22-.68-1.74.11l.06,0a4.92,4.92,0,0,0-.32-.91,6.23,6.23,0,0,0-.66-.8l.41-.7-1-.05.1.77c-.34-.14-1-.3-1-.41.25-2.13-.1-2.51-2.54-2.77a1.11,1.11,0,0,1-.65-.34c-.71-.85-1.12-.85-1.51.21-.12.34-.76.54-1.17.8a2.42,2.42,0,0,0,0-1,14.42,14.42,0,0,0-1-1.73l-2.41,1,1.59.95a12.72,12.72,0,0,1-.54,2.37c-.18.43-.74.75-1.17,1.08-.07,0-.39-.12-.59-.19.84-.14-.88-1.38.73-1.18-.06-.17,0-.41-.19-.49-1.08-.66-2.11-1.28-.59-2.41.17-.13-.06-.62-.11-.95a14.82,14.82,0,0,0-2.73.46c-.39.14-.82.94-.67,1.25.81,1.65-.22,2.37-1.84,2.86a1.69,1.69,0,0,1-.92,0c-.56-.17-1.08-.4-1.94-.73,0-.16.16-.78.3-1.4.54.22,1.07.45,1.61.65,0,0,.12-.19.19-.29l-1.79-.33a2,2,0,0,1-.5-.16c-.17-.1-.34-.4-.44-.38-3.64.8-3.64.8-7.74-.77-.74,1.6-1.16,1.47-3.05,1a6.25,6.25,0,0,1-3.7-1.89c-1.33-1.51-2.15,0-2.54,1.19-2-1.73-4.34-1-6.72-.73l.38-2.75c-2.36,1.39-4.07,1.21-6.61-.57l0,.05.88-1.65a4.62,4.62,0,0,0,1.06-.56c.38-.33.92-.78.86-1.13s-.73-.66-1.14-1a9.31,9.31,0,0,0-.74,1.29,5.05,5.05,0,0,0-.15,1.23,22.12,22.12,0,0,1-1-2,8,8,0,0,1-.3-1.53,10.8,10.8,0,0,0-1.7,1.41,4.71,4.71,0,0,0-.56,1.51l-.64,0c-.07-.63.09-1.41-.3-1.84s-1.32-.33-2-.47c-.27,1.09-2.19,1.5-1.67,3.05.15.45-1,1.2-1.38,1.56l-2.28-1.76a14.4,14.4,0,0,0,2.23-1.51c.1-.1-.78-1.05-1.35-1.48-.19-.14-.86,0-1.19.17s-.63.82-.82.79c-1.75-.32-1.94.68-2,2.07l-1.13-1.94c-1.66.65-1.3,1.28.53,2l-4.85.06c-.23-.78,2.88-1.41.48-2.57l.7-1.37-.9,0,.24,1.44-1.89.53-.92-.2-1.53,1.06a13.2,13.2,0,0,1,.25-2.53c.33-1.09-.16-1.39-1.16-.85a11.93,11.93,0,0,0-2.23,1.91c-.44.41-.85.85-1.27,1.27l-1.11-1.57a.62.62,0,0,0-.35.09c-.46.31-.89.66-1.33,1,.13-.58,0-1.36.42-1.71a12.84,12.84,0,0,1,2.59-1.32l.53.52.33-.62-.91.15a1.67,1.67,0,0,1,.27-.49c.37-.33.78-.64,1.17-.95-1.1-.1-.83-2.55-2.89-1.12a6.79,6.79,0,0,1-2.24.61l.87,2.4c-1.12-.15-1.82,1-3.36.35-1.12-.47-3,.3-4.53.62-.33.07-.54.56-.8.86-.19-.24-.59-.55-.52-.71a5.35,5.35,0,0,1,1-1.4c.17-.17.56-.19.76-.48-1.54,0-3.27-.62-4.14,1.3-.17.38-1.66.33-2.55.48-.09-.51-.19-1-.28-1.52,1.05.14,2.19.37,1.77-1.13l-1.77,1.14,0-1.2a8.79,8.79,0,0,0-1.11.54c-1.27.82-2.42,2.25-4.14.52,2.66.51,1.79-1.09,2-2.65l-2,2.69c-.32-.38-.62-1.08-1-1.09a13.79,13.79,0,0,0-4.13.29c-1.28.37-1.81.48-1.68-.83.08-.77-1.19-1.62.19-2.33-.68-.23-1.43-.75-2-.64a13.87,13.87,0,0,0-2.9,1.17l-2.82,1.29-.29-.47c.86-.35,1.75-.68,2.6-1.06,1.86-.82,1-2.66,1.88-3.7,1.34-1.57,2.64-2.91,1.73-5-.13-.31.85-.95,1.45-1.57a18.31,18.31,0,0,0-2.26-.06,4.64,4.64,0,0,0-1.21.44c.21.23.45.45.64.7a5,5,0,0,1,.36.64,3.74,3.74,0,0,1-.8.14c-.87-1.43-1.36-.24-1.94.19a10,10,0,0,0-1.24,1c-1.72,1.7-1.91,2.88-.24,4.38,1.34,1.2-.11,2.25-.54,2.47a9.47,9.47,0,0,1-4.33.64,6.84,6.84,0,0,1,.72-.47,8.57,8.57,0,0,1,.89-.33l-1-.44a.19.19,0,0,1-.09-.16c0-.05.09-.09.13-.13l.94-.73-.54-.2-.38.93-3,.73-.77-1.54,0,0-.2-.77.32-.07a6.79,6.79,0,0,0,1.14-1.21,3.41,3.41,0,0,0,.17-1.33c-.5.11-1.15.08-1.47.34-1,.86-1.94,1.82-2.92,2.73-.56.51-1.16,1-2,1.66.42-2.85.25-3.15-1.11-2.43-.85.44-1.66.93-2.26,1.27-.13-.86.07-1.94-.47-2.56a1.48,1.48,0,0,0-2.56.37l.07,0a2.27,2.27,0,0,0-.64,0c-.57.15-1.11.34-1.67.51a7.4,7.4,0,0,1,1-1.38c.87-.79,1-1.38-.49-1.53a5.49,5.49,0,0,0-2.73.15c-.68.33-1,1.24-1.41,1.9-1.6-.71-1-1.46-.12-2.27a3.65,3.65,0,0,0,.81-1.08c.07-.15-.18-.56-.35-.59-1-.19-1-.16-.36-1.46a9.84,9.84,0,0,1-1.34.85c-.61.24-1.26.39-1.89.58.15-.58.06-1.41.48-1.67.87-.53,1-.77.07-1.3-.17-.09-.09-.71.1-1,1.17-1.74,2.41-3.45,3.61-5.15l-8.66,2.61-.24-.36,7.07-4.91a17.25,17.25,0,0,0-1.91-2.3,5.64,5.64,0,0,0-1.79-.64L25.34,250c-.33-.2-.69-.62-1-.59-2.12.25-3.49-.83-4.73-1.93-.26-.24.33-1.73.69-1.78,2.09-.29,1.69-1.41,1.5-2.52.71,0,1.61.24,1-.82a19.66,19.66,0,0,1,1.45-1.58c.68-.61,2.73-.75.92-2.11-.06-.05.2-.39.31-.6.28.12.71.18.78.35a1.62,1.62,0,0,1,0,.78c1.08,0,2,0,2.93,0a1.7,1.7,0,0,0,1-.43,12.66,12.66,0,0,0,1.36-1.84,4.11,4.11,0,0,0,.31-1.05,8,8,0,0,0-1.28-.14c-.68,0-1.36.13-2,.21h0c.82-1.69-.94-1.42-1.72-1.31a2,2,0,0,1-2.5-1.26c-.15-.37-.11-1.08.16-1.23,2.37-1.3,2.86-3.56,3.81-5.45s2.86-3.14,4.39-4.64c.43-.42,1.18-1,1.05-1.37-.6-1.6.78-2.3,1.79-3.15a19,19,0,0,0,3-3.93,5,5,0,0,1,1.79-1.77c1.28-.55,2.44-.92,1.3-2.32.63-.3,1.25-.61,1.9-.89a6,6,0,0,1,.88-.24c-1.22-1.91.91-2.69,1.83-3.89.54-.7.85-1.52,1.38-2.22.12-.16.73-.06,1.11-.08.08.25.15.5.22.76l.55-.45-.84-.27c.8-.63,1.25-1.69,2-3.41.23-.55,1.32-.82,1.91-1.31,1.09-.92,1.1-2.58,2.85-3,2.88-.76,4.33-2.83,6.11-4.68l-2.06.47-.44-.47c1.37-.87,2.75-1.73,4.1-2.62.54-.36,1-.84,1.53-1.16a8.19,8.19,0,0,1,1.63-.53,1.23,1.23,0,0,1,.42,0l-.47-1.33-.08,0c.82-4.09,4.64-6.56,7.43-9.59.93-1,1.72-2.11,2.69-3.09,1.3-1.32,2.72-2.55,4.07-3.84a19.8,19.8,0,0,0,2-2.07c.89-1.15,1.62-2.38,2.46-3.56.71-1,1.6-1.56,3.18-.35-1.63-1.34-.76-1.94.3-2.74a24.3,24.3,0,0,0,3.66-3.42c.5-.57,2.13-.73,1.29-1.94,2.22.35,1.42-1.7,2.61-2.3s2.86-1.53,3.29-2.6c.54-1.32,1.73-2,2.62-2.91,1.32-1.4,2.72-2.75,4.08-4.12a15.89,15.89,0,0,0,1.33-1.4,7.17,7.17,0,0,1,3.58-2.82l.77.4,0-1.1a12.23,12.23,0,0,0,1.51-.17c.12,0,.24-.52.14-.6-.73-.57-.79-.74,0-.85a2,2,0,0,0,1.78-1.36c.14-.34.62-.6,1-.84.81-.53,1.7-1,2.46-1.56A14.79,14.79,0,0,0,121.1,129a5.35,5.35,0,0,0,.6-2.32,4.57,4.57,0,0,0,0-.83,8,8,0,0,0,.82.44,9.21,9.21,0,0,0,.93.31c.8-1.93,2.82-2.36,5.32-2.68-3.7-1.29-.18-2,0-3s1.46-1.56,2.25-2.32c.5-.49,2.08-.92.11-1.54a.56.56,0,0,1,.11-.42c1.57-1.29,3.46-2.4,3.37-4.54,1.94-.19,2-1.84,3-2.73,2.18-1.87,4.25-3.83,6.33-5.78,1.16-1.07,2.32-2.15,3.38-3.28,1.75-1.87,3.4-3.81,5.17-5.67.48-.49,1.35-.71,1.87-1.19.24-.22-.12-.9.12-1.11,1.09-1,2.31-1.82,3.45-2.73.32-.25.53-.6.84-.86.5-.41,1-.8,1.57-1.19.09-.07.26,0,.39-.07-1.18-2.12,1.66-2.4,2.54-3.47a105.4,105.4,0,0,1,8.11-8.13c1.2-1.17,2.36-2.38,3.66-3.48.66-.55,1.68-.8,2.34-1.36a5.1,5.1,0,0,0,.94-1.62,2.21,2.21,0,0,1,.42-.75c2.06-1.87,4.65-3.49,6.07-5.65A40.54,40.54,0,0,1,189.32,58a59.92,59.92,0,0,1,7-6c.6-.47,1.41-.46,1.38.59a5.8,5.8,0,0,0,.41,1.35c.29-.72.54-1,.52-1.33-.11-2,1.23-3.28,2.93-4.54,1.23-.91,1.92.09,2,.38.24,1,.76,1.1,1.67.73a2.91,2.91,0,0,1,3.23.31c1,.76,2.48.07,2.11-.95-.31-.85,1.47-3.06-1.81-2.59-.13,0-.49-1.09-.75-1.68ZM126.48,285.55l1.35,0-.43-.55-.88.63-.5.89.78.13ZM263,213.86a1.68,1.68,0,0,0-.18.5,3.87,3.87,0,0,0,.12.68l0-1.16.08-1.06-.79.33Zm-7.07,17.44-1.55.29.19.43c.44-.26.88-.51,1.31-.78l.86-.42-.43-.31Zm163.48,26.34-.3-.88-.39.35.77.48-.93,1,.55.23C419.2,258.44,419.3,258,419.39,257.64ZM123.64,132.48c.89.37,2,1.12,1.91-.65l-1.84.67.08,1.34.62,0ZM287.81,157l1.37.26.13-.66-1.53.46-.4-1.18-1.06.55c.43.11.87.2,1.3.33C287.7,156.81,287.74,157,287.81,157ZM81.14,208l-1.64.18a4,4,0,0,0,.29.48c.49-.15,1-.34,1.44-.52l1-.34-.87-.76Zm376.61,31.68a2.37,2.37,0,0,0,.47-.8,2.24,2.24,0,0,0-.24-.86c-.22.25-.58.49-.61.75s.25.61.39.91l1.79,1.18C459.19,239.28,459.19,239.28,457.75,239.72ZM384,181l-.6.72,1.32,0-.54-.78c-.18-.64-.35-1.28-.53-1.92l-.72.17ZM278.42,154.44l-2,1.29.53.45,1.46-1.74,2.79.63-.56,1.79.58.21a6.4,6.4,0,0,0,.82-1.32c.25-.75.15-1.43-1.11-1.43Zm158.34,142.7c-2.38.2-.87,1.59-1,2.48l1.2-2.23,1.28-.4-.18-.4Zm.16-3c-1.07-.51-1.43-.35-2.06,1.07l2.25-.77.81-.23-.21-.45Zm-20.18-39.43c1.59.38,1.6-.44,1.53-1.37l-1.79.65-1.06.36ZM62.46,245.58a19,19,0,0,0,2-.47c.15-.05.11-.53.09-.81a.71.71,0,0,0-.46-.12c-.56.46-1.08.95-1.61,1.44-.37.16-.75.31-1.11.48a2.86,2.86,0,0,0,.16.28Zm378.35,147-.46-1.15-.49.2,1,.92-1.7.63,0,.42,2.45,0ZM412.2,250.74a8,8,0,0,0,1,1.22c.12.1.62-.1.94-.16-.33-.42-.65-.84-1-1.25a1.17,1.17,0,0,0-.37-.19l-1.65-.36-.1.42ZM187.78,482.22a20,20,0,0,0-.46-2.43c-.06-.17-.71-.23-1.09-.3,0,0-.28.34-.22.42.6.77,1.23,1.51,1.86,2.27a13.35,13.35,0,0,0,.51,1.85,1.25,1.25,0,0,0,.78.58c.14,0,.57-.33.63-.55a1,1,0,0,0-.19-.88A15.63,15.63,0,0,0,187.78,482.22ZM201.94,50.41l-.07-1.23-.57,0,.36,1.32c-.35.17-.66,1.26-1.07,0,0-.14-.57-.17-.87-.25,0,.25-.15.58,0,.75.47.62,1,1.18,1.57,1.77l.52-.14C201.84,51.93,201.89,51.17,201.94,50.41ZM461.06,243.46l-.18-1.57-.8.24,1.05,1.29c.84,2.42.84,2.42,3.37,1.19ZM284.55,155.25a1.79,1.79,0,0,0-1.83,1.85c0,.16.76.55,1.09.5,1.37-.25,1.14-1,.71-1.84-.07-.14,0-.34,0-.52l1.25.47.16-.47ZM235.93,425.16c-.39.85-.77,1.69-1.16,2.53l.67.19c.62-.7,3.15-1.06.49-2.37-.06,0,0-.23,0-.35a10.23,10.23,0,0,0,1-2c.09-.31-.32-.72-.5-1.08A8.94,8.94,0,0,0,235,424C234.85,424.26,235.59,424.76,235.93,425.16ZM434.05,214.25l.77-1.15-.64-.14-.12,1.29,1.4,1.25,2.32-1.93-.35-.48ZM439,316.93l-.71.94.31.36,2.29-1-1.25-1c.36-.75.73-1.49,1.06-2.26,0-.08-.27-.36-.36-.35a1.2,1.2,0,0,0-.69.31,18,18,0,0,0-1.43,2.31C438.11,316.38,438.67,316.7,439,316.93ZM424.9,263.85l.56-.74-.59-.13.09.86c.11.74.11.72-.62.66a.76.76,0,0,0-.52.23c-.65.86-1.13,1.7.67,2l1.21,1.21c.21-.21.64-.55.59-.61a9.62,9.62,0,0,0-1.13-1.07C426.39,265.34,426.71,264.51,424.9,263.85Zm-27.07-18.92c-.58.39-2.48-1.38-1.94.83l-1.08-1.69c1.92-.91,2-1.32.33-3.15-.21.42-.67,1-.53,1.13,1,.93-.16.79-.62,1.06-.18.1-.1.51-.13.78a2.16,2.16,0,0,0-.84-.12c-.61.19-1.5.8-1.73.66-1.3-.85.48-.72.6-1.14.05-.18-.17-.46-.36-.63-.7-.62-.43-.91.43-1.16.34-.09.56-.47.84-.72l1.69.09,0-.5-1.63.45c-.18-1.06,0-2.22-1.65-2.71a18.82,18.82,0,0,1-2.27-1.06c-.06.26-.46,1.24-.25,1.34,1.61.79.32,1.47,0,2.18s-.49,1.14-.73,1.72a3.26,3.26,0,0,1-.33-2.45c.36-1.21.47-1.87-1.53-1.59-.64.08-1.47-.77-2.21-1.19a9.3,9.3,0,0,0,1.66-.6,1.48,1.48,0,0,1,1.91.13c.06,0,.47-.21.72-.34l1.23-1.43-.53-.24-.7,1.69c-.8-.67-1.57-1.37-2.41-2a1.59,1.59,0,0,0-1-.3c-.6.07-.5.5-.73.82a20.93,20.93,0,0,1-2.26,2.48s-.39,0-.39-.06c-.05-.87-.07-1.74-.09-2.61l1.88-.34-.12-.49-1.29.52c.32-.43.66-.86,1-1.3s.48-.87.72-1.3a14.14,14.14,0,0,0-1.92-.29,13.94,13.94,0,0,0-1.41.26c-.09,0-.34-.58-.31-.6.47-.22,1-.41,1.47-.59.32-.12.65-.22,1-.33-.31-.27-.57-.68-.94-.76-1-.24-2.13-.34-2.61-.42.21-.73.78-1.58.49-1.94a1.76,1.76,0,0,0-2.55-.1c-.28.22-.91.14-1.74.23a9.29,9.29,0,0,0,1.67-1.51c.12-.18-.36-.62-.57-.94-.59.37-1.17.76-1.78,1.1a5.31,5.31,0,0,1-1.86.89c-1,.12-1.69.22-1.48,1.27,0,.09-.67.29-1,.44.09-1.6-1.46-.62-2.49-.89,1-.77,1.9-2,2.55-1.87,1.51.21,1.64-.26,1.66-1.2a5.19,5.19,0,0,1,.21-.93,3.39,3.39,0,0,0-1.28-.1c-.83.3-1.6.75-2.77,1.32l.71-2c-.86.44-2.2.78-2.22,1.19-.17,2.53-2.27,1.13-3.47,1.18-.43,0-1.22-.94-1.3-1.51s.52-1.2.82-1.8c1.68,1.19,1.68,1.19,2.06-.2l-2,.27-2.87-1.21c.52.82.79,1.23,1,1.65a1.1,1.1,0,0,1,.07.41c-.32,0-.74.15-.94,0a21.1,21.1,0,0,1-1.86-1.39l4.88-1.49c-1.76-.21-3.26-.43-4.6.71-.34.29-1.1.24-1.66.34a12.83,12.83,0,0,1,.29-1.37,8,8,0,0,0,.52-1.4c0-.22-.53-.71-.65-.68a16,16,0,0,0-1.87.78,2.59,2.59,0,0,0,.39.53,6.3,6.3,0,0,0,.84.48l-.48.54c-.33-.21-.66-.4-1-.63-.63-.45-1.68-1.39-1.8-1.31-1.58,1-1.89-.29-2-.89-.45-1.72-1.22-1.6-2.4-.51h0a14.51,14.51,0,0,0-2-.42,6.83,6.83,0,0,0-1.59.25l-.12-.47,1.47-.26c-.29-.33-.49-.83-.87-1-1.39-.5-1.44-.56-.47-1.55.18-.19.43-.56.35-.66s-.67-.48-.86-.41c-1.46.56-2.89,1.2-4.32,1.81.32-.44.74-1,1.1-1.57a5.5,5.5,0,0,0,.4-1,13.3,13.3,0,0,0-1.86-.37,7.27,7.27,0,0,0-1.52.19l0,0c-.34-1.58-2.43-2.71-4.25-2.37a5.1,5.1,0,0,1-1.32-.15c.33-.17.69-.32,1-.52s.45-.46.72-.65c.66-.46,1.62-1.65,1.32.4,0,.26.92.62,1.88,1.24-1-1.68-1.61-2.85-2.35-4a1.5,1.5,0,0,0-1.07.06c-.28.18-.36.58-.52.89.15-1.34-1.87-3.83,2-3.32,0,0,.14-.18.51-.66-1.08-.21-2.18-.74-2.75-.47a5.06,5.06,0,0,0-3.1,3.65l.06,0c-.25-.14-.51-.43-.76-.42-1.39,0-2.79.14-4.18.22h0c.61-.87.26-1.17-.88-1.13a3.49,3.49,0,0,1-1.1-.37c.29-.25.52-.61.87-.72,1.48-.47,1.65-1.14.5-2.26l-.59-.67-.4.58.79.26c-2,2-3.41,2-5.3.14-.17-.17-.46-.27-.65-.44s-.58-.56-.87-.85c.68-.25,1.34-.54,2-.74a5.21,5.21,0,0,1,1.2-.07l.34,1.82c.5-.22,1.21-.34,1.43-.68a1.13,1.13,0,0,0-.37-1.21c-.27-.18-1,.07-1.47.13a30.69,30.69,0,0,0-3.49-2.21c-1-.47-1.05-.8-.39-1.48.23-.23.23-.63.33-1a8.29,8.29,0,0,0-1.53.29c-.64.27-1.48,1.07-1.75.94-1.36-.65-1.29.2-1.48.81a6.55,6.55,0,0,1-.41,1.39c-.08.15-.66.1-1,.14,0-.27-.22-.63-.07-.79,1.29-1.41,1.06-2.29-.71-3.16-.28-.13-.2-.84-.17-1.28,0-.16.33-.31.51-.46a2.86,2.86,0,0,0-.86-.42c-.92-.13-2,1.1-1.89,1.56-.93-.14-2-.33-3.13-.45-.93-.1-1.32-.26-.68-1.1.19-.24-.28-1.2-.49-1.21-1.47-.07-3.06-.25-3.95,1.15a4.67,4.67,0,0,1-.65.69c-.17-.32-.5-.65-.47-.95.09-.87.32-1.73.49-2.6l1-.79-.5-.25-.43,1.11a13.31,13.31,0,0,0-1.2-.74,2.22,2.22,0,0,0-.75-.08c0,1.19-.28.67-.89.2a1.82,1.82,0,0,0-1.53,0,23.44,23.44,0,0,0-2.44,2.42c-.07-1-.07-1.71-.17-2.36a4.77,4.77,0,0,0-.38-1.26c-1.94.3-1.24-.85-1.07-1.72-1.75,1.13-1.19,1.91.09,2.46-.52.48-1,.9-1.44,1.33-2.19,2.09-2.18,2.08.52,3.5.35.19.53.61.79.92-2.29.57-.69,2.24-1.34,3.27h0q-.9,2.12-1.78,4.24c1.92-.54,3.46-1.59,5.22-2.2a6.78,6.78,0,0,1,3.5.17c.36.09.37,1.15.56,1.82,2.69-.15,2.67-.15,2,2.56a13.54,13.54,0,0,0-.11,1.81c-.09.75-.23,1.5-.39,2.25,0,.19-.28.35-.42.52a8.19,8.19,0,0,0,1,0c.48,0,.95-.07,1.43-.11l0,0c.1.35.44.86.28,1-1.54,1.5-.53,3.27-.79,4.89-.35,2.15.86,4.6-2.38,6.39a6.23,6.23,0,0,1,1.58-.07,4.72,4.72,0,0,1,1.37.72c.07,0-.26.55-.5.77-1.68,1.5-1.28,3.62-2,5.39-.92,2.21,0,4.95.1,7.39l3.25-.7c-.68.63-1.35,1-1.35,1.3,0,1.91-1.06,1.33-2.34.59l-.1,3.83a6.84,6.84,0,0,1,.59-.89,7.25,7.25,0,0,1,.87-.68c.08-.06.26,0,.39,0a2.68,2.68,0,0,0-.35.78c-.06,1.36.05,2.73-.13,4.07a39.16,39.16,0,0,1-.93,4.07l.09,0c-2.21.29-.24-1.78-1.91-2.07,1.69,4.36-2.58,8.21-1.19,12.84.78-1,1.28-1.71,1.84-2.38a2.94,2.94,0,0,1,.74-.43c.11.26.38.55.31.77-.7,2.29-2,4.54-2.06,6.84s-.78,1.46-2,.67c-.14,1.9-.07,1.86,1,3,.7.74.32,1.23-.81,1.27l-.88,2.29.81.11c0-.81,0-1.62.05-2.42.25.34.43.89.77,1a1.69,1.69,0,0,1,1.15,2.55,8.11,8.11,0,0,0-.8,2.19c-.5,1.59-.91,3.19-1.46,4.76a1.83,1.83,0,0,1-1.05,1c-1.56.52-1.23,1.59-1.11,2.53,0,.22.89.5,1.38.51.33,0,.69-.39,1-.6a4.16,4.16,0,0,1-.5,1.37c-1,1.16-2.09,2.26-3.13,3.39-.67.73-1,1.3.62,1.43s1.91,1.27,1.06,2.39a6.13,6.13,0,0,0-.78,2.27c-.48,1.84-.38,4-1.52,5.43s-2.16,2.38-1.18,3.89l1.58-.32a3.34,3.34,0,0,1,.23,1.33c-.22.85-.94,1.69-.88,2.51a22.44,22.44,0,0,1-1.5,9.9c-.76-.08-1.94-1.08-2,.57l1.93-.62c-.27,1.41-.54,2.82-.8,4.24L285,317.53l-.51,1.83c.56-.21,1.12-.43,1.69-.63a1.77,1.77,0,0,1,.41-.05.8.8,0,0,1,.21-.05c.06,0,.18.05.17.06-.41,1.53-.84,3.06-1.24,4.59a5.22,5.22,0,0,0-.3,1.68c.12,1.34.22,2.62-1.18,3.64-.71.52-.88,1,.49.93.2,0,.65.64.63.66-1,.73-1.32,1.41-.43,2.46.26.32-.85.83-.72,1.85.23,2-.53,4-1,6-.9,3.73-1.9,7.43-2.88,11.2l-2.05-1.08a15.62,15.62,0,0,0-.83,1.76c-.23.71-.32,1.46-.59,2.71l1.47-1.23v0c-.33.88.3,2.16-1.45,2.49a.5.5,0,0,0-.26.43,7.69,7.69,0,0,1-.23,4.31c-.29,1.33.16,2.78.32,4.17a21.15,21.15,0,0,0,.51,3.17c.53,1.86-.67,1.89-2.29,1.7-.26,0-.6.42-.9.65a2.69,2.69,0,0,0,.33.26l2.1,1.32a15.08,15.08,0,0,0-1.44,1,6,6,0,0,0-.79,1,3.91,3.91,0,0,1,1,.45c.29.28.7.74.61,1-.64,1.84-1.4,3.66-2.12,5.47l-1-.23.18,1,.78-.85.57-.26c.09.14.24.28.25.42.25,3.6-1.7,6.73-3.13,10-.17.39-.79.64-1,1a.76.76,0,0,0,.25.8c1.37.56,1.33.7.28,1.66a3.56,3.56,0,0,0-1.07,2c-.15,1.14,2,2.51-.56,3.41,0,0,0,.22,0,.33l-.57,5-.6-1.67c-.72.87-1.39,1.59.62,1.64-.88.8-1.82,1.55-2.61,2.4-.23.24-.19,1,0,1.1,2.33.88,1.57,2.12.67,3.41-.57.82-1.7,1.76-1.53,2.46.45,1.82-1.39,3.09-1.22,4.79,0,.25-1.16.69-1.09.84,1,2.37-1.58,4.85.33,7.16-1.11,1.21-1.09,2.67-1.51,4.06s-1.4,2.46-1.71,4a57.74,57.74,0,0,1-3,9.12c-1.38,3.53-3,7-4.43,10.51-.26.63-.71,1.68.61,1.68,2.57,0,4.94-1.44,7.63-.89,1.07-1.46,2.39-1.09,3.75-.35l.9.11a11.81,11.81,0,0,0,1.4-.79,5.65,5.65,0,0,0,.81-.95,6.83,6.83,0,0,0,.59,1,3.15,3.15,0,0,0,.71.48c.11-.21.34-.42.33-.62-.06-1,.54-.84,1.46-.92,2.29-.19,4.69,0,6.8-1.16.71-.38,2.17-.82,2.47-.56,1.69,1.41,2-.05,2.46-.6a7.86,7.86,0,0,0,1.42.71c1.58-1.36,3.9-.22,5.58-1.18a2,2,0,0,1,1.4-.17c1.58.56,2.77.57,3.17-1.11l-.06,0a5.13,5.13,0,0,1,1.57-.91c.84-.14,2.36-.25,2.53.05.62,1.09,1.12,1.15,1.91.25a20.86,20.86,0,0,0,1.35-1.82c1.94,1.31,3.11,1.1,4.48-.93a2,2,0,0,1,.43-.37c.16.21.33.42.47.63s.18.37.27.55c.18-.08.51-.17.51-.25,0-1.43.38-2.42,2.36-1.23.12-.2.27-.6.34-.59,1.44.18,2.19-.32,2.3-1.51.13,0,.35,0,.39,0,.41.64,2.1-.28,1.89,1.09.32-.07.75,0,.92-.21.58-.57,1.06-1.2,1.52-1.74l-.32,2.33,3.27-3.6c.46.69.8,1.22,1.14,1.74.28-.49.57-1,.84-1.46.06-.11,0-.29.08-.36.26-.22.56-.4.85-.6a4,4,0,0,1,.48,1.06,2.58,2.58,0,0,1-.27,1c.55-.23,1.46-.37,1.58-.7.47-1.33,2.5-2.13,2.92-1.82,1.36,1,1.86-.22,2.71-.35,1.38-.21,2.76-.45,4.14-.69s2-1.33,2.88-1.91c1.39-.95,3.66-.62,4.4-2.24,0-.05.34,0,.52,0s.57.2.76.13c.71-.28,1.38-.63,2.06-.94l-1.48,1.26c1.46.42,1.46.42,1.44-1.23,2.78,0,4.25-1.8,6.2-3.38l-.1,1.51c1.14.08,2.16.16,3.17.21.14,0,.3-.18.43-.28.94-.67,1.89-1.34,2.8-2,1.59-1.22,1.89.16,2.51.86.09.1-.12.4,0,.51a5.59,5.59,0,0,0,1.2,1c.11.05.85-.36.84-.54a2.44,2.44,0,0,0-.55-1.19c-.12-.17-.64-.14-.73-.3-.19-.35-.41-.8-.28-1.12s.66-.75,1-1.11c1,1.17,2.37,1.14,3.84.95,0,0,.06.74.3,1a2.61,2.61,0,0,0,1.26.57.89.89,0,0,0,.64-.54,1.67,1.67,0,0,0-.28-1.07c-.16-.25-.56-.38-.84-.57-.48-.33-1.41-.88-1.35-1a13.78,13.78,0,0,1,1.69-1.81c0,1.08,0,1.75,0,2.42.77-.2,2.12-.31,2.2-.63.26-1.08,1.24-.89,2-1.22s2.75-.52,1.18-2c-.13-.12.2-.83.31-.83,2.45.06,2.55-1.4,2.41-3.18-.58.2-.9.71-1.39,1.05-.25.18-.81,0-1.23.06a3.25,3.25,0,0,1,.56-.76,4.69,4.69,0,0,1,1.2-.67c1.45-.56,3-1,3.35-2.52.17-.76,0-1.53,1.34-1.46-.19-1.66.65-1.3,1.67-.59a7.33,7.33,0,0,1,.45-.64c.57-.65,1.16-1.29,1.74-1.93l.56.71.59-.75-.8-.21c.73-1.59,1.5-3.14,4.13-2.69l-1.49-.64.13-.31,2.6.56-1-1.28,1.83,0a.76.76,0,0,1,.41.11c1.34,1.12,2.27,0,3.35-.39,1.39.32,5.32-.92,5.91-1.88a.81.81,0,0,0,.09-.5,3,3,0,0,0-.94-.15c-1.24,0-2.49,0-3.72.14a1.32,1.32,0,0,0-.91.64,8.48,8.48,0,0,0-.38,1.8c-.65-2.21-2.16,0-3.79-.65a37.16,37.16,0,0,1,2.67-3.38c.55-.56,2.22-1,2.15-1.25-.73-2.26,2.48-2.54,2.93-4.24.23-.87,1.37-1.62,2.19-2.35,1-.93,2.83-1.65,3.13-2.7.85-2.93,3.41-4.53,5.84-6.32a2,2,0,0,0,.58-1,7.94,7.94,0,0,1,.51-1.84c1.33-2.11,2.53-4.33,5.24-5.53l.68-.75c.61-1.14,4-1.37,1.65-3.49-.05-.05,0-.23.08-.33.77-1.53,1.52-3.06,2.34-4.57.31-.59,1.26-1.31,1.08-1.65-.71-1.31.44-2.17.71-3.23s1.85-1.46,1.2-2.66c2.12,0,1-1,.8-1.75a1.25,1.25,0,0,1,.08-.87c.59-1.09,2.74-1.89.93-3.45,0,0,.39-.3.36-.41-.44-1.75,2.65-3,1.08-4.9-.08-.11.13-.5.33-.63,1.85-1.27,0-3.8,2.4-4.89.05,0-.07-.33-.14-.5-.82-1.93,0-3.68.67-5.52s2.54-4,.31-6.09a.91.91,0,0,1,0-1c3.05-3.32,3.06-3.31.53-6-.12-.13.14-.5.22-.76,2.09.58,1.35-.84,1.61-1.57.33-1,1.24-2.06.95-2.85-.7-1.85-1-3.53.3-5.24.14-.19.09-.47.13-.7l1.09.15-.17-1.08-.89,1c-.35-.11-1-.24-1-.34a8.33,8.33,0,0,1,.42-2.32,13.66,13.66,0,0,1,1.16-2c0-.12,0-.24.07-.35l.48-1.34h-.58c0,.44,0,.89,0,1.33a2,2,0,0,0,.07.35c-1-.61-1.64-1.19-1.24-2.49a9.76,9.76,0,0,0,.11-4.24c-.2-1.43-.93-2.81-1.15-4.25-.38-2.5-.48-5-.85-7.53-.09-.65-.91-1.21-1.11-1.87s.32-1.4,0-1.85c-1.08-1.52-.61-2.92,0-4.61.38.35.55.65.75.66a20.12,20.12,0,0,0,2.69,0c.17,0,.45-.51.4-.73-.74-3.12-1.5-6.23-2.31-9.33-.09-.3-.58-.54-.89-.8-.47.5-1.46,1.15-1.33,1.49.69,1.81,1.7,3.53,2.52,5.31a2,2,0,0,1,0,1.27c0,.12-.57.3-.79.24-1.1-.31-2.18-.69-3.09-1l2.24-3.32-4.53-.67c.75-1.63,1.45-3.16,2.16-4.69-1.58.79-2.79,1.37-3.47-.59-.06-.17-.64-.19-1-.31a3.6,3.6,0,0,1-1.06-.41c-1.21-1,0-3.4-2.88-3.5,0,0,0-.29-.06-.43-.22-.67-.46-1.34-.67-2l1.68.1c-.86-2.19-3.32.31-4-.85.47-1,1.38-2.13,1.07-2.46-.87-.91-1.47-2.28-3.27-2.35h0l-1-.53c1.06-1.27-.58-.78-1-1.08l-.51-.49.6-1.12c-.39.09-.78.19-1.18.27-.64.14-1.29.26-1.94.39.14-.54.07-1.27.46-1.58,1.37-1.09.07-1.14-.67-1.44-.23-.7.58-1.77-1-2-.21-.21-.65-.46-.61-.64.21-1.15.25-1.14-1.32-.77-.17,0-.4-.09-.61-.15l0,.06L403.15,246,402,248.32a13,13,0,0,1-1.62-.47,6.89,6.89,0,0,1-1.11-.77c.47-.5,1.44-1.37,1.34-1.45a29.76,29.76,0,0,0-3.09-2.33C397.65,244,397.74,244.48,397.83,244.93ZM110.61,255.29l-3.42.45,2.15,2c1.18-.4,2-1.14,1.22-2.49l2.31,0c-.43-.48-.85-1-1.3-1.45-.25-.27-.54-.51-.81-.77a8.57,8.57,0,0,0-.25,1.18A5.51,5.51,0,0,0,110.61,255.29ZM392.1,433.61c-2.82-2,1.08-2.29,1.27-3.95l-2.15.24c.51,1.75-.78.87-2.28.33.89,1.58,1.42,2.62,2.05,3.62,1,1.57.74-.08,1-.3l2.77-1.7-.52-.5C393.17,431.82,391.84,432.12,392.1,433.61ZM50.33,245.12c.19-.25.41-.49.57-.74s.4-.71.59-1.07c-.47.2-1.12.3-1.37.63s.13.76.23,1.16l-3.15.57.12.42,1.59.4c-.59,1.31.7.82,1.32.95a2.61,2.61,0,0,0,2.91-.86,1.36,1.36,0,0,0,0-1.12C52.22,245.28,51.27,245.22,50.33,245.12Zm383.05,26.24c-.31,0-.62-.1-.94-.12a1.85,1.85,0,0,0-.1.38l1-.21c-.09,1,.3,2.49-.37,3-1.37,1-.3,1.21.4,1.62.33.2.75.3,1.1.48s.62.37.92.55c.3-.41.93-.9.82-1.23a28.64,28.64,0,0,0-1.72-4C434.36,271.58,433.76,271.51,433.38,271.36ZM243.28,32l-2-.29c.14.63.45,1.47.31,1.53a24.1,24.1,0,0,1-2.86.8l-.32-.55a20.06,20.06,0,0,0,1.87-1.38c.2-.19.12-.6.16-.91-1.05.17-2.13.29-3.15.56-.16,0-.09.79,0,1.21a6.07,6.07,0,0,0,.25,1l-.77.06-1.15.09a4.87,4.87,0,0,0,1.09,1c.42.21,1.2,0,1.49.27a3.22,3.22,0,0,0,2.65.85c1.75-.06,1.69-.76,1.83-1.71s.41-1.76.62-2.64l1.35.09a6.5,6.5,0,0,0-.89-1.64c-.21-.23-.87-.17-1.33-.24a4.16,4.16,0,0,1,.75.84A3,3,0,0,1,243.28,32ZM393.63,451.81a7.61,7.61,0,0,1-1,1.55c-.86.78-1.85,1.47-2.78,2.2l.61.5c.75-.59,1.46-1.63,2.25-1.68,2.59-.14,3.45-2.09,5.18-3.08.38-.22.3-1.39,0-1.94s-1.22-1-1.87-1.54a15.93,15.93,0,0,1-1,1.33,3.28,3.28,0,0,1-.92.71c-1,.54-1.15,1.19-.43,2-1.29-.66-2-.37-2.39.88Zm-140.13-212,0,0,3.18-2.42c.19-.15.37-.31.55-.47.94,1.14.89.11.94-.33.07-.74,0-1.49,0-2.6-1.24,1.1-2.18,2-3.18,2.78a3.17,3.17,0,0,1-1,.29c-.84.26-2.09.33-2.43.83a30.19,30.19,0,0,0-2.81,5.17c-.2.49.27,1.22.59,1.77a2.34,2.34,0,0,0,1.33-.16c1.29-.64,2.51-1.36,3.89-2.13l-1.52-.82,1.91-.39ZM73.05,244l-.48-.35c-.58.2-1.34.71-1.68.56-1.53-.69-2.19.37-2.75,1-1.25,1.36-2.66,2.79-3.15,4.38-.35,1.14.12,2.27-2.17,2.19.68.48,1.53,1.09,1.71,1a32.27,32.27,0,0,0,3-2.36l.89.75c.73-1.22,1.57-.47,2.5-.19a2.1,2.1,0,0,0,1.63-.31,4.85,4.85,0,0,0,.75-1.72,4.84,4.84,0,0,0-1.22.3c-1.41.86-2.12-.38-3.12-.71-.08,0-.06-.57.1-.75.56-.6,1.2-1.14,1.81-1.71Zm352.4,184.47-.34-.33c-.8.49-1.95.86-2.32,1.52-.5.88.18,1.57,1.43,1.95a3.42,3.42,0,0,1,2,1.48c.55,1.43,1.78.86,2.8.91.28,0,.59-.27.89-.42a4.57,4.57,0,0,0-.64-.68c-1.26-.92-1.67-1.6.21-2.52,1-.48,1.46-1.68,2.17-2.55-.72,0-1.62.15-2.11-.15-1.85-1.11-2.45,0-3.21,1a5.5,5.5,0,0,1-1.28,1l-.31-.31ZM124.85,129a14.09,14.09,0,0,0,3.06.39,3.6,3.6,0,0,0,1.72-1.14c.37-.34.48-1.13.82-1.18,3-.49,2.09-3,3.68-4.25C130,123.92,126.66,125.78,124.85,129ZM72.68,238.28l-6.35,5.27c1.63-.05,2.71,0,3.76-.15a4.26,4.26,0,0,0,1.46-.66c.39-.2.74-.47,1.1-.7l.92,1.17.8-1.9C72.37,240.86,72.25,239.76,72.68,238.28Zm1-56.32a11.3,11.3,0,0,0-1.84,1c-.84.7-1.54,1.5-2.35,2.21-1.11,1-.74,1.64.64,1.87a9.66,9.66,0,0,0,2.72-.15c.18,0,.46-.53.41-.57-1.39-1.15.24-1.31.82-1.81.4-.33,1.23-.77,1.15-.94C75,183.08,74.46,182.69,73.72,182ZM193.6,495.85c3.54,1.62,3.54,1.62,4.94-.41a2.47,2.47,0,0,0-1.34-3.27c-.23-.05-.89.35-.86.45C196.92,494.72,193.87,494.4,193.6,495.85ZM45.69,237.56c-.5-.21-.85-.49-1.11-.44-1,.19-2,.47-3,.74-.6.15-1.18.34-1.79.47-.06,0-.22-.41-.32-.41a3.32,3.32,0,0,0-1.33.25c-.51.29.93,2.75,1.55,2.67a1.59,1.59,0,0,0,.38-.17c1.33-.59,2.68-1.13,4-1.78A11.64,11.64,0,0,0,45.69,237.56Zm241.86-17.48c0,1.38-.53,2-2.17,1.62-.25-.06-.92.46-1,.79-.31,1-.71,1.5-2.12.53.47.84.91,1.68,1.57,1.84.93.21,2.15.15,2.25-1.18a1.36,1.36,0,0,1,.89-.93C289.17,222.29,288.36,221.25,287.55,220.08ZM42.37,241c1.08,1.71,2,2.19,3.69.51.53-.53,1.36-2.06,3-1.22.32-.53.63-1.05.91-1.59,0,0-.51-.32-.68-.26-1.46.49-3.66.73-4.15,1.62C44.45,241.43,43.59,241,42.37,241Zm228-39.43c2.71-.52,3.83-2.53,2.4-3.91-.36-.35-1.42-.19-2.17-.27.89,1.59-1.28,1.15-1.71,1.7C269,200.24,273.06,198.9,270.39,201.58ZM388,455.68l-.63.69,3.22,1.86a7.34,7.34,0,0,0-1.43.5,2.47,2.47,0,0,0-.89.9c-.06.11.48.63.64.6a4.61,4.61,0,0,0,1.46-.61,5.55,5.55,0,0,0,1.12-1,15.73,15.73,0,0,0,1-1.29c-.36.11-.71.24-1.08.32-.09,0-.22-.14-.34-.2ZM139.49,256.8a5.32,5.32,0,0,1,1.58-.5c1.31,0,1.74-.57,1.41-1.42-.1-.26-1.18-.26-1.82-.36a2,2,0,0,0-.84-.05c-.89.33-1.75.71-2.62,1.08Zm-70.58-5.07-.8-.63c-.18.36-.24.82-.56,1-.85.58-1.8,1.05-2.71,1.58a6.56,6.56,0,0,0-1.25.75,21.35,21.35,0,0,0,1.49,2.25,3.69,3.69,0,0,0,.29-.4,4.37,4.37,0,0,1,.55-1c.91-1,1.9-1.9,2.82-2.87C68.9,252.26,68.86,252,68.91,251.73Zm170-222.49c.31-.08,1.14-.07,1.5-.42a6.29,6.29,0,0,0,1.18-2c0-.09-.32-.47-.48-.46-1.34.05-2.67.16-4,.26ZM286,186.14a3.64,3.64,0,0,0-.64.22c-.84,1-2.15,2-2.37,3.11-.15.76,1.18,1.75,2,2.56.12.13.87-.17,1.32-.27a4.31,4.31,0,0,0-.66-.69c-1.17-.75-2.65-1.43-.45-2.59a2.46,2.46,0,0,0,.93-.73,1.89,1.89,0,0,0,0-1A5.09,5.09,0,0,0,286,186.14ZM263,216.32l-.53-.15c-.34.55-1,1.16-.94,1.65.36,1.78-.94,3-2.18,4.86,1.12-.28,2.27-.34,2.35-.63C262.24,220.17,262.57,218.24,263,216.32Zm163.66,52.35c.31,1.45.56,2.81.91,4.15.07.25.61.65.79.6a8.34,8.34,0,0,0,1.65-.72,3.77,3.77,0,0,1-.78-.76c-.57-1-1.09-2.08-1.6-3.13a3.4,3.4,0,0,1-.18-.78C427.17,268.23,426.92,268.44,426.64,268.67Zm-395.13-26c1.58.43,2.55-1.89,3.46.28.49-.19,1.23-.29,1.42-.61a2.68,2.68,0,0,0,.14-1.62c0-.12-.65-.34-.9-.27a15.4,15.4,0,0,0-2.72,1A7.24,7.24,0,0,0,31.51,242.67Zm99.12,13c1,0,2.1-.26,2.37,0,1.66,1.81,2.36.17,3.17-.23l-3-1.71Zm150.73-55.07c-.28-.74-.54-1.44-.8-2.15l-2.49.94,2.24,2.15ZM87.72,249.09c-2.38-.23-2.71,1.16-3.2,2.36,0,.12.54.61.81.6C87.72,251.94,87.07,250.18,87.72,249.09Zm-10.39-63.6L80.52,183s-.06-.14-.11-.15c-.36-.06-.83-.25-1-.13a30.56,30.56,0,0,0-2.86,1.87s.3.47.48.72C77,185.34,77.09,185.36,77.33,185.49Zm18.78,89.22A11.15,11.15,0,0,0,94.37,276a3.86,3.86,0,0,0-.57,1.42,15.86,15.86,0,0,0,2.5-.13c.36-.07.64-.55.84-.9a.6.6,0,0,0-.2-.62A3.42,3.42,0,0,1,96.11,274.71Zm251.6-61.21,1.07.83a6.79,6.79,0,0,0,.91-1.44c0-.11-.81-.53-1.29-.62a14.49,14.49,0,0,0-2.06-.17l.92,2.36ZM84.79,275.81c-.94-.49-1.73-1.12-2-1a14.57,14.57,0,0,0-2.6,1.85c-.09.08.09.4.15.61Zm304.82-93.93-1.83-1.81a25.63,25.63,0,0,0-1.69,2c0,.06.61.71.82.67A25.13,25.13,0,0,0,389.61,181.88ZM239.5,47.53,238,46a18.26,18.26,0,0,0-2,1.44c-.09.09.56,1,.74,1A21,21,0,0,0,239.5,47.53Zm-37.09,58.3a6.38,6.38,0,0,0-2.15.67,3.44,3.44,0,0,0-.74,1.79,7.2,7.2,0,0,0-.12,1.32c.58-.25,1.41-.38,1.66-.77A19.48,19.48,0,0,0,202.41,105.83Zm13.67,320.26-1.33-2.22c-.37.36-1.1.74-1.06,1.07a6,6,0,0,0,.9,1.82ZM431.77,286.94a13.88,13.88,0,0,0,1.62-.47.9.9,0,0,0-.17-.78c-.94-.62-2.61,0-2.68,1.05a10.09,10.09,0,0,0,.37,2.34l.53,0C431.55,288.32,431.67,287.58,431.77,286.94ZM242.5,38.27c-3.82,1-3.82,1-2.53,3.5ZM200.32,483c2.4-.81,3-2.18,1.65-3.65a1.81,1.81,0,0,0-1-.28c-.14,0-.32.2-.47.31C202.74,480.63,200.52,481.8,200.32,483ZM262.8,27.39a34.17,34.17,0,0,0-3.07,1.72c-.12.08.41.81.65,1.24,1-.61,2-1.21,2.91-1.87C263.38,28.41,263.06,28,262.8,27.39Zm93.69,137.34-.84.19a24.24,24.24,0,0,0,1,2.68c.14.27.76.38,1.15.56.07-.37.32-.81.17-1.11A24.2,24.2,0,0,0,356.49,164.73Zm-1.88,49.76-1.33-1.87a23.62,23.62,0,0,0-1.65,1.84c-.1.14.33.75.41.74C352.73,215.07,353.39,214.84,354.61,214.49ZM396.83,433c.53.37,1,.94,1.51,1a3.26,3.26,0,0,0,1.86-.59c.26-.18.15-.75.21-1.14a12.32,12.32,0,0,0-1.83.13A11,11,0,0,0,396.83,433Zm-6.34-4.19.93.86c.46-.54.89-1.1,1.4-1.61a7.51,7.51,0,0,1,1.08-.72c-.23-.22-.47-.64-.7-.64a2.58,2.58,0,0,0-1.48.42A8.61,8.61,0,0,0,390.49,428.78Zm68.15-193.34a7.61,7.61,0,0,0-1.42-.55,4.68,4.68,0,0,0-2.12-.08c-.45.2-.51,1-.74,1.52.75-.08,1.5-.12,2.24-.26A18.8,18.8,0,0,0,458.64,235.44ZM241.17,21.2a6.56,6.56,0,0,0-.6-1,1.49,1.49,0,0,0-.72.26c-.87.71-1.73,1.43-2.54,2.19-.11.11.12.46.19.7ZM460.1,294.52c-.52-.42-.75-.68-.83-.66-1,.37-2.06.78-3.09,1.18.37.32.92,1,1.09.93A24,24,0,0,0,460.1,294.52ZM32.68,253.27,31.76,251c-.89.87-1.57,1.48-2.15,2.16-.2.23-.13.61-.18.93.39-.14,1.08-.24,1.12-.43C30.89,252.08,31.61,252.5,32.68,253.27ZM434.6,341c.15.16.37.65.64.67.87.06,2.45-2.46,1.93-3a1.14,1.14,0,0,0-.88-.07C435.75,339.3,435.29,340,434.6,341ZM48.93,242.67l-.07-.35a8.55,8.55,0,0,0-2.25,0c-.48.12-.86.7-1.15,1.13-.11.16.15.5.24.76.4-.21.78-.44,1.19-.63C47.56,243.23,48.25,243,48.93,242.67ZM54.78,256c-.92.86-1.73,1.59-2.46,2.36a.74.74,0,0,0,0,.76,1,1,0,0,0,.76.08C54,258.35,55.32,257.6,54.78,256ZM396.66,432.19l.89.16c.37-.61.75-1.22,1.13-1.83-.74-.17-1.77-.68-2.15-.44C395.32,430.8,397.68,431.29,396.66,432.19ZM338.5,210.06c.73-.48,1.45-.72,1.52-1.05s-.38-.92-.61-1.38l-2,1.06C337.7,209,338,209.38,338.5,210.06ZM222.66,37.76c-.76.5-1.54,1-2.25,1.51-.2.16-.16.54-.23.82a5.89,5.89,0,0,1,1-.11C223.15,40.11,222.58,38.81,222.66,37.76ZM180.36,71.5l.67,1.27,2.5-2.3c-.23-.17-.59-.52-.66-.48C182,70.44,181.26,70.94,180.36,71.5Zm59,361c-.4.57-.82.9-.78,1.17a4.34,4.34,0,0,0,.69,1.28c.4-.27,1.14-.56,1.12-.79C240.32,433.68,239.84,433.25,239.33,432.49Zm14.1-411.06a13,13,0,0,1,1.65-1.19,5.59,5.59,0,0,1,1.34-.32l-.7-2ZM57.14,255.64l.6,1.53c.67-.64,1.35-1.27,2-1.93,0,0-.31-.44-.36-.42C58.64,255.05,57.94,255.34,57.14,255.64Zm162,139.72c.9-.74,1.59-1.27,2.21-1.86.05-.05-.4-.46-.61-.7-.65.5-1.32,1-1.91,1.51C218.68,394.42,218.92,394.79,219.1,395.36Zm213.61-126.5c-.8-1.11-1.41-2-2.06-2.8,0-.05-.38.06-.58.09a12.93,12.93,0,0,0,.88,2.1,2.63,2.63,0,0,0,1.15.68C432.25,269,432.5,268.89,432.71,268.86Zm-146.27,36h-.2a3.63,3.63,0,0,0,0,.87,8.13,8.13,0,0,0,.4,1.14c.35-.4.91-.75,1-1.19a3.07,3.07,0,0,0-.2-1.68c-.08-.22-.53-.37-.81-.55a3.35,3.35,0,0,0-.2.61A5.36,5.36,0,0,0,286.44,304.88ZM344.12,173l2-.88c-.39-.39-.86-1.15-1.15-1.1a2.86,2.86,0,0,0-1.5,1C343.34,172.16,343.86,172.67,344.12,173ZM28.72,264l.69.65a12,12,0,0,0,1.78-1.3c.15-.16-.23-.67-.37-1ZM265,177.52l.62.72c.72-.42,1.47-.83,2.14-1.31.07-.05-.35-.58-.54-.88ZM61.65,250.24c.62-.65,1.13-1.16,1.58-1.71.05-.05-.23-.31-.36-.47l-2.13,1.23Zm378.12,55.1a6.41,6.41,0,0,0,1.87-.61c.26-.2.11-.82,0-1.24a1.13,1.13,0,0,0-.75-.15C440.24,304,438.83,304.63,439.77,305.34Zm8.43-82.86-.62-1-.69-.68c-.56.42-1.15.82-1.65,1.28-.06.06.4.72.61.72A18.62,18.62,0,0,0,448.2,222.48ZM295.12,183.63v-.53c-.34-.12-.71-.39-1-.34a14.43,14.43,0,0,0-1.9.6c.31.3.65.86.93.84A8.54,8.54,0,0,0,295.12,183.63ZM254.94,24l-.88-1.33a12.61,12.61,0,0,0-1.48.89c-.06.05.32.7.54.72A7.67,7.67,0,0,0,254.94,24ZM297,156.63l-.22-.57-2.36.3.64,1.16ZM458.08,293.09c-.73-.44-1.14-.87-1.43-.82a3.52,3.52,0,0,0-1.39.76c-.05,0,.42.73.55.71A16.83,16.83,0,0,0,458.08,293.09ZM275.9,201.92l.67.07a6.21,6.21,0,0,0,.76-1.23,4.54,4.54,0,0,0,.07-1.33c-.34.06-.93.07-1,.21A19.83,19.83,0,0,0,275.9,201.92Zm133.47,43.85c-.34-.23-.58-.47-.67-.44-.6.22-1.16.49-1.74.75l.79.86Zm8.2,188.67-.73-.48-1.34,1.57a3.52,3.52,0,0,0,.64.33C416.64,435.41,417.1,434.92,417.57,434.44ZM37.29,267.82l-.61-.25a4.89,4.89,0,0,1-.78.86,6.87,6.87,0,0,1-1.15.58c.55.09,1.3.41,1.6.22C36.82,268.94,37,268.31,37.29,267.82ZM303.06,157.67c-.4-.57-.67-1.08-.77-1.06a18.85,18.85,0,0,0-1.88.63c.18.25.35.7.53.7A14.41,14.41,0,0,0,303.06,157.67Zm137,168.14-1.77-1.34c-.21.22-.61.46-.58.65a6.2,6.2,0,0,0,.6,1.32ZM242.4,163.58l-1-1.35c-.33.26-.95.55-.93.78s.49.72.85,1C241.45,164.06,241.9,163.78,242.4,163.58ZM132.52,121.37l.68.45c.66-.61,1.33-1.22,2-1.86,0,0-.44-.35-.68-.53Zm-93,126.06a7.25,7.25,0,0,0-1.43,1.08c-.07.09.44.73.73.75a1.44,1.44,0,0,0,1.13-.51C40.11,248.47,39.78,248,39.56,247.43ZM48,208.18a5.79,5.79,0,0,0-.8.65,10.69,10.69,0,0,0,1.34,1.44c.06,0,.54-.24.83-.37ZM33.75,224.91a9,9,0,0,0-1.89-.9c-.22,0-.59.42-.88.65.3.21.58.57.91.6A7.81,7.81,0,0,0,33.75,224.91Zm26.72,37.73c-1.12-1.37-1.12-1.37-2.54.42Zm307.73-91.9c-.39-.36-.76-.85-.9-.8a11.91,11.91,0,0,0-2,.89s.27.5.34.49C366.45,171.17,367.22,171,368.2,170.74Zm56.3,91.51-.66-1-1.95.91c.12.17.27.5.37.49C423,262.55,423.65,262.4,424.5,262.25Zm45.23-14.74a5.75,5.75,0,0,0-1.13-1.13c-.18-.11-.69.16-1.05.26l1,1.65ZM260,152.69l-1.63.5c.22.24.47.69.66.67a1.68,1.68,0,0,0,1.1-.52C260.26,153.15,260,152.74,260,152.69Zm21.67,79.56-1.22,1.08c.25.17.56.52.74.47a7.43,7.43,0,0,0,1.4-.59ZM94.9,257.91l.19.62a15.38,15.38,0,0,0,2.08-.49c.17-.06.11-.57.16-.87Zm219.9-91.76c.37-.79.7-1.16.65-1.48s-.45-.71-.7-1.06c-.23.3-.63.6-.64.89S314.42,165.3,314.8,166.15ZM64.89,276l.26.66,2.24-.46c-.12-.27-.31-.78-.33-.78C66.32,275.55,65.61,275.76,64.89,276Zm81.36-109.11c-.44-.31-.68-.61-.87-.59a12.76,12.76,0,0,0-1.71.38c.15.29.37.84.44.82A18.83,18.83,0,0,0,146.25,166.86Zm94.42-104.8a19.28,19.28,0,0,0,1.41-1.53c.06-.07-.33-.37-.51-.56a16.3,16.3,0,0,0-1.31,1.32C240.19,61.37,240.44,61.64,240.67,62.06ZM32.92,254.92l-.49-.43-1.74,1.3.47.41ZM286,185l-1.08-1c-.22.24-.62.47-.62.71a1.11,1.11,0,0,0,.57.8C285,185.56,285.47,185.24,286,185Zm173.61,48.13,0,.24a9.86,9.86,0,0,1,1.11.44c.84.44,1.57.51,1.31-.53A9.49,9.49,0,0,0,459.63,233.12ZM380.32,420l1.91-.94c-.25-.18-.57-.55-.73-.51a14.13,14.13,0,0,0-1.76.72ZM258.54,208.15l.31.84a9.52,9.52,0,0,0,1.1-1.4c.1-.18-.23-.53-.37-.8Zm151.13-16.51-.41-.28-1.95,1.38c.36.14.94.46,1,.38A14.24,14.24,0,0,0,409.67,191.64ZM248.09,491.33c3,.21,3.27.11,3.64-1.2ZM470.8,258.85c-.32-.52-.64-1-1-1.52-.25.16-.75.38-.72.46a19.89,19.89,0,0,0,.92,1.77ZM200,54.37l.66.85,1.95-1c-.19-.18-.44-.52-.55-.49C201.35,53.86,200.68,54.13,200,54.37Zm43-36.16h2.07L245,16.78ZM231.09,54.28l.68-.05-.4-2.46-.78.07ZM41.82,270.42l.45.05c.14-.68.3-1.35.4-2,0-.05-.43-.15-.65-.22-.13.58-.27,1.16-.37,1.75C41.63,270.1,41.76,270.27,41.82,270.42ZM401.63,429.6l-.05-.74c-.83.08-1.66.15-2.48.26a2.57,2.57,0,0,0,0,.48C400,429.62,400.79,429.61,401.63,429.6ZM201.52,491.88l-1.63.65a5.24,5.24,0,0,0,1.23.71c.25.08.64-.19,1-.3Zm68.07-332.94.58.58c.46-.36.93-.71,1.36-1.08a2.68,2.68,0,0,0-.45-.44C270.57,158.29,270.08,158.62,269.59,158.94ZM252.76,46c-.43-.27-.72-.59-.93-.56a4.89,4.89,0,0,0-1.24.5c.24.25.52.74.72.72A5.34,5.34,0,0,0,252.76,46Zm29.86,148.27.35.38,2-1.19-.36-.41ZM223.12,42.63l.6-.5c-.6-.4-1.19-.82-1.82-1.18-.08,0-.43.25-.65.39ZM294.66,258.5h-.43l-.39,1.81h.76C294.65,259.7,294.65,259.1,294.66,258.5ZM217.29,45.6l-.8-.88a3.9,3.9,0,0,0-1.07.74c-.09.12.41.76.54.74A5.52,5.52,0,0,0,217.29,45.6ZM252.1,298.85c1.08,1.51,1.15,1.52,2.35.35ZM203.91,493l-.65-.44-1.71,2.11.48.3Zm10,2.63.59.41,1.54-1.56-.45-.32ZM245,499c-.81-.76-1.06-1.14-1.45-1.29-.17-.06-.9.45-.86.52a2.19,2.19,0,0,0,.87,1C243.78,499.35,244.3,499.12,245,499ZM92.36,262.57l.21.49c.6-.19,1.22-.36,1.8-.59,0,0-.1-.4-.15-.61ZM263.1,19.48c1,.2,1.84.37,2.68.51.05,0,.17-.3.26-.45L263.56,19A6,6,0,0,0,263.1,19.48ZM454.53,232l-.52.12.43,1.59.79-.19C455,233,454.77,232.5,454.53,232ZM202.05,486.69l.3.57,1.69-.87-.12-.2Zm54.34-471.9c.86-.89,1.2-1.24,1.5-1.6,0,0-.46-.41-.54-.37a3.87,3.87,0,0,0-1.21.75C256,13.72,256.24,14.1,256.39,14.79ZM202,483.18c-.44.34-.9.57-.86.68a4.73,4.73,0,0,0,.65,1.06c.27-.15.78-.32.76-.45A4.53,4.53,0,0,0,202,483.18ZM34.79,227.24c-.43-.33-.66-.65-.88-.65a2.92,2.92,0,0,0-1,.38c.22.27.38.64.68.76S34.21,227.5,34.79,227.24Zm237.72-24.48a3.2,3.2,0,0,0-.64.76c0,.11.3.48.47.48a5.65,5.65,0,0,0,1.2-.23ZM434.89,212l-1.58-1.45C432.63,212.09,433.59,212.18,434.89,212ZM290.43,155.46l0-.53c-.59,0-1.18,0-1.77,0a3.32,3.32,0,0,0,0,.6Zm39.12,44.71-.79.18a13.74,13.74,0,0,0,.43,1.38,4.86,4.86,0,0,0,.71-.08ZM439.49,286.3l-.76.11.39,1.46a3.68,3.68,0,0,0,.72-.19A11.63,11.63,0,0,0,439.49,286.3ZM50.83,268.54c.29-.36.57-.55.52-.66a7.19,7.19,0,0,0-.64-1.05c-.25.16-.73.38-.7.47A7,7,0,0,0,50.83,268.54Zm183.77,1.93a10.18,10.18,0,0,0,1-1s-.39-.41-.58-.4a4.84,4.84,0,0,0-1.09.32Zm198.62,19.09.58,0c.05-.66.1-1.32.1-2a4.73,4.73,0,0,0-.75-.08C433.17,288.2,433.19,288.88,433.22,289.56ZM313.83,161.38h-.48l-.28,1.34,1.24.07ZM198.72,292.91c-.28-.25-.44-.52-.6-.51a3.83,3.83,0,0,0-1,.24,3.83,3.83,0,0,0,.25.6A12,12,0,0,0,198.72,292.91ZM28,232.59l-.57-1a6.35,6.35,0,0,0-.79.76c-.08.1.06.33.1.5Zm262.79,34.23.59.43,1.07-1.36-.47-.29Zm-39-98.15.19.64,2.16-.49-.14-.5Zm154.45,22.86.55.24.93-1.6-.39-.16ZM30.57,242.66l-.53-.27-1,1.61.48.21Zm207.69,257c.29-.51.51-.72.46-.85a7,7,0,0,0-.64-1c-.18.16-.55.35-.52.48A8,8,0,0,0,238.26,499.67ZM474.69,282.82l-.56.11.3,1.61a6.34,6.34,0,0,0,.76-.21C475.06,283.82,474.87,283.32,474.69,282.82ZM58.51,252.91l-.61-.23L57,254.33l.68.25Zm381,70,.26-.55-1.88-.88-.32.47ZM386.89,457.68l-.5-.58c-.42.34-.85.68-1.25,1a2.11,2.11,0,0,0,.35.38C386,458.25,386.43,458,386.89,457.68Zm-126-417-.64-.27-.68,1.43.47.18Zm-21.47,4.06c-.78-.41-1-.65-1.25-.64s-.77.25-.78.4.29.67.48.69A5.83,5.83,0,0,0,239.43,44.77ZM37,245.91l.62-.14c-.19-.59-.38-1.18-.6-1.77l-.57.11ZM436.54,280.6l-.45-.16-1.56,1.74.42.25Zm-43.12-43.75c-.27.28-.57.46-.63.68s.23.38.37.57l.91-.69ZM387.71,435.2l.44.3,1.54-1.41-.44-.31ZM252.25,22.89c-.4-.25-.59-.47-.78-.47a6.86,6.86,0,0,0-1.19.19c.16.22.32.64.5.65A6.08,6.08,0,0,0,252.25,22.89Zm181.4,296.49c.53-.9.81-1.37,1.09-1.83l-1.14-.08C433.62,318,433.63,318.61,433.65,319.38ZM31.08,229.72l-.42-.26-1.31,1.67.53.27Zm266.34-71.67.42.33,1.22-.8-.65-.65Zm-87.6,270.73c.36-.37.68-.55.66-.71a.89.89,0,0,0-.45-.69c-.19-.06-.79.22-.79.34C209.25,428,209.52,428.27,209.82,428.78ZM479.7,321.41l.39,0,.37-1.78-.38,0ZM122.35,281l-1.26.94c.2.12.49.38.58.33a4.61,4.61,0,0,0,1.1-.71S122.52,281.2,122.35,281ZM456,298.8l.69.06c.09-.43.19-.85.25-1.28a2.44,2.44,0,0,0-.54-.09C456.26,297.92,456.14,298.36,456,298.8ZM214.66,440.09l-.77-.18-.45,1.5.62.17ZM35.73,236.16c-.5-.45-.72-.77-1-.88s-.54.25-.81.39c.21.22.38.51.66.62A4.18,4.18,0,0,0,35.73,236.16Zm397,60.4c.38-.24.73-.39.7-.46a5.12,5.12,0,0,0-.45-.91c-.23.11-.64.23-.64.33A4.08,4.08,0,0,0,432.75,296.56ZM282.49,229.85l.05.46,1.73-.14,0-.35Zm-64.64,227.2-.49-.06-.33,1.53.63.08C217.72,458.08,217.79,457.56,217.85,457.05Zm223-235.58.26-.56-1.74-.38c0,.11-.08.31,0,.33C439.78,221.08,440.29,221.27,440.8,221.47ZM286.4,228c-.44-.25-.73-.52-.92-.48a1.19,1.19,0,0,0-.66.55c-.07.11.12.33.2.5ZM185.51,488l-.25-.45-1.54.54.16.33ZM283,235.51c-.55-.2-.79-.36-1-.34a2.32,2.32,0,0,0-.67.33,2,2,0,0,0,.67.36C282.15,235.89,282.4,235.72,283,235.51ZM25.88,257.1l.45.37,1.3-1.09a2.87,2.87,0,0,0-.45-.32C26.73,256.39,26.31,256.75,25.88,257.1Zm376.71-55.87-.33.56,1.61.52c.06-.15.19-.4.15-.42C403.56,201.65,403.07,201.44,402.59,201.23Zm3.33,43.13a4.41,4.41,0,0,0,.66-.46,3,3,0,0,0-.69-.77c-.09,0-.42.13-.64.21ZM312.5,164.25a4.8,4.8,0,0,0-.69-.52,6.41,6.41,0,0,0-.79.58c.18.12.37.35.55.34A3.34,3.34,0,0,0,312.5,164.25ZM32,265.64l-.18-.43a9.56,9.56,0,0,0-1.21.41c-.09.05,0,.33,0,.51Zm417.94-37.27,1-.68c-.33-.3-.65-.61-1-.88-.07,0-.52.16-.52.18C449.52,227.46,449.72,227.91,449.91,228.37Zm-28.23,30c-.27.33-.52.52-.57.74s.25.47.37.46a3.18,3.18,0,0,0,.81-.3Zm-22.82-69.81c-.34-.3-.53-.62-.73-.62a2.36,2.36,0,0,0-.91.34,6.44,6.44,0,0,0,.92.62C398.24,188.9,398.5,188.7,398.86,188.52Zm54.37,39.42-.62-.65-.66.55c.18.15.34.38.55.42S452.91,228.09,453.23,227.94ZM477,289.56l-.78-.72c-.2.2-.58.41-.56.6s.39.42.66.52C476.46,290,476.72,289.74,477,289.56ZM67.77,255.91l-1.21.64c.17.18.4.53.49.5a2.32,2.32,0,0,0,.92-.48C68.05,256.51,67.87,256.23,67.77,255.91Zm238.59-64.1,1.23-.49c-.24-.18-.54-.55-.7-.51a1.7,1.7,0,0,0-.75.61C306.09,191.48,306.29,191.69,306.36,191.81Zm76-13.13-.88-1.13c-.16.18-.42.36-.43.54a.82.82,0,0,0,.32.71C381.55,178.9,381.94,178.74,382.33,178.68ZM37.91,220.46l-.4-.13L36.7,222l.54.18Zm-.68,40.83-.5-.45c-.42.34-.85.67-1.25,1,0,0,.2.26.21.26C36.21,261.85,36.72,261.57,37.23,261.29Zm54.53-71.13-.39-.51c-.47.34-.94.67-1.4,1,0,0,.14.19.21.29Zm194.16,29.22.75.15c.05-.41.11-.81.13-1.22,0,0-.25-.07-.38-.11Zm155.6,194.9c-.47-.28-.74-.56-1-.58a.92.92,0,0,0-.67.49c-.08.22.1.51.16.76ZM344,211.05l-.32-.44c-.45.21-.91.42-1.34.66a3.61,3.61,0,0,0,.26.43ZM44.11,215.32l.34-.34-1.31-.84-.27.27Zm33.58-38.55-.32.39,1.83,1,.28-.35ZM53.05,263.15c.33-.34.57-.48.57-.62a1.81,1.81,0,0,0-.3-.63c-.22.09-.63.18-.64.27S52.85,262.66,53.05,263.15ZM235.73,429.87a6.35,6.35,0,0,0,1-.71c.07-.1-.17-.37-.27-.56a6.91,6.91,0,0,0-1.05.54C235.35,429.18,235.55,429.48,235.73,429.87Zm-30.25,44.5c-.32.28-.61.42-.63.57s.2.39.31.59a2.81,2.81,0,0,0,.68-.51C205.9,474.93,205.66,474.69,205.48,474.37ZM436.27,285.93l.35-.5-1.38-.5c0,.1-.06.26,0,.3C435.57,285.48,435.92,285.7,436.27,285.93ZM265.47,156.54l0,.39c.48,0,1,0,1.44-.08a3.45,3.45,0,0,0,0-.47ZM48,268.12l-.65,0a6.1,6.1,0,0,0,.76.58c.07,0,.31-.13.47-.19Zm19.48,3.76c-.26-.25-.47-.56-.59-.54a3.51,3.51,0,0,0-.88.41l.64.69Zm370,16.28-1-.78c-.14.15-.45.36-.41.43a1.64,1.64,0,0,0,.64.64C436.86,288.51,437.18,288.3,437.52,288.16ZM271.67,157c-.26-.33-.48-.69-.54-.67a6.7,6.7,0,0,0-1,.47c.17.15.32.42.5.44A4.35,4.35,0,0,0,271.67,157ZM61.06,250.53l-.49-.46c-.35.29-.71.57-1,.89,0,0,.18.25.27.39ZM253.68,45.25l-.35,0v1.57l.48,0ZM438.2,336.13l-.77-.64-.67.56a3.4,3.4,0,0,0,.76.49C437.63,336.57,437.88,336.33,438.2,336.13Zm-359-86-.16-.37a3.5,3.5,0,0,0-.9-.33c-.13,0-.31.26-.47.4a8,8,0,0,0,.93.34A2.07,2.07,0,0,0,79.16,250.13Zm230.22-88.94.14-.44-1.69-.36-.1.32Zm82.48,300.39c.24-.42.49-.65.46-.85s-.29-.5-.44-.76a3.72,3.72,0,0,0-.69.6C391.13,460.66,391.39,460.89,391.86,461.58ZM92.5,251.17l0,.41c.44,0,.89,0,1.33,0a2.2,2.2,0,0,0,.06-.46ZM447,328.1c-.29-.29-.46-.6-.71-.66s-.7.21-.71.35.23.5.37.76ZM126.71,131.31c.37-.28.7-.43.83-.67s-.28-.36-.44-.55a2.64,2.64,0,0,0-.73.55C126.29,130.75,126.55,131,126.71,131.31ZM58.79,271l-.85.55a3,3,0,0,0,.76.49c.15,0,.6-.22.58-.31S59,271.3,58.79,271ZM434.37,349.3l.49.17c.19-.38.4-.75.55-1.13,0,0-.29-.17-.45-.26Zm-137-164.76a5.17,5.17,0,0,0-.39-.42,7.47,7.47,0,0,0-1.09.69s.22.29.34.44Zm9.91-25.09.21.17,1-.74-.32-.29ZM86.16,245.77c.3-.19.6-.32.59-.37a2.31,2.31,0,0,0-.43-.67s-.42.11-.41.15A7.5,7.5,0,0,0,86.16,245.77ZM193,491.21l.3.28,1.42-1-.37-.35Zm86-311c-.27-.25-.4-.47-.6-.52a.7.7,0,0,0-.55.23c-.06.14.1.49.19.5A4.21,4.21,0,0,0,279,180.17ZM413.68,388.72c-.48-.28-.68-.48-.91-.51s-.4.19-.59.3c.16.11.3.29.48.32A4.37,4.37,0,0,0,413.68,388.72ZM284,180.44c-.49-.24-.73-.46-.95-.45a2.35,2.35,0,0,0-.78.35c.15.17.27.43.47.49S283.21,180.71,284,180.44ZM429,208l-.44.21.79,1.14.42-.19Zm23.47,87.4.49.08c.08-.38.16-.75.22-1.13,0,0-.24-.08-.37-.12C452.65,294.58,452.54,295,452.42,295.36ZM295.1,177.75l.07.56,1.62-.25,0-.28ZM234,47.63l-.43-.28-.88.91.27.2ZM76.89,236.39a5,5,0,0,0,.81.56c.1,0,.47-.15.46-.17a8.17,8.17,0,0,0-.38-.79ZM58.53,248.07a3,3,0,0,0-.32.73c0,.11.2.23.3.34a2.06,2.06,0,0,0,.39-.53C58.93,248.5,58.73,248.35,58.53,248.07Zm215.12-91.89-.41.19a10.43,10.43,0,0,0,.64,1s.37-.09.57-.14Zm3.59,79.2-.47-.77c-.13.09-.38.19-.37.27a4.36,4.36,0,0,0,.26.77ZM162.57,286.16c-.33-.32-.49-.58-.74-.68s-.42.16-.64.25a4.45,4.45,0,0,0,.59.71C161.83,286.49,162.16,286.31,162.57,286.16ZM71.44,253.44l.73-.51c-.18-.13-.38-.4-.51-.37a.87.87,0,0,0-.52.42C71.09,253.06,71.3,253.24,71.44,253.44Zm262.9-55.38-.14-.55a2.23,2.23,0,0,0-.65.27c-.08.07,0,.29,0,.44ZM223.18,383.53l-.67.46c.17.12.34.34.51.34s.45-.17.67-.26ZM342.84,201.84l.51.22L344,201l-.53-.22ZM273,157.08a5.24,5.24,0,0,0-.62.84c0,.05.38.36.57.35a3.34,3.34,0,0,0,.87-.34ZM463.5,236.73l-.28-.07-.28,1.33.39,0ZM74.61,209c-.27-.21-.49-.43-.53-.41a2.9,2.9,0,0,0-.73.51s.25.34.3.32A9.46,9.46,0,0,0,74.61,209Zm221.93,34,.19.38,1.32-.45-.18-.33ZM84.42,180.1l.38.39,1.25-.84-.36-.37ZM36.91,256.69a8.66,8.66,0,0,0-1.15-.34c-.1,0-.25.19-.38.29a6.07,6.07,0,0,0,.83.35C36.33,257,36.5,256.87,36.91,256.69Zm14.75,3.13c-.26-.27-.44-.56-.55-.54a3.59,3.59,0,0,0-.93.34c.15.18.29.51.47.53S51.2,260,51.66,259.82Zm199.85-94.27.57-.18-.65-1.17-.4.13Zm-4.36-2.26a5.09,5.09,0,0,0-.7.7c0,.06.2.25.31.38a5.78,5.78,0,0,0,.7-.57C247.51,163.75,247.31,163.54,247.15,163.29Zm56,326.31c-.36.44-.64.65-.69.9s.3.34.47.51a2.85,2.85,0,0,0,.56-.66C303.52,490.22,303.32,490,303.12,489.6ZM401.21,437l.4.5c.19,0,.46,0,.55-.13a2.74,2.74,0,0,0,.34-.66ZM262.51,21.17a2.49,2.49,0,0,0,.45.39c.07,0,.37-.17.35-.2a2.23,2.23,0,0,0-.32-.5ZM243.83,40.68c.45-.19.78-.24.91-.41s-.1-.38-.16-.57a1.93,1.93,0,0,0-.7.27C243.76,40.09,243.84,40.34,243.83,40.68Zm-205,213.56c-.26-.19-.44-.38-.5-.35a.71.71,0,0,0-.4.33c0,.11.13.26.21.4ZM210.32,496.06l.75-.55c-.14-.11-.28-.31-.41-.3a.9.9,0,0,0-.6.23C210,495.52,210.18,495.75,210.32,496.06Zm230-184.86-.25-.35-1.25.6.26.37ZM73.51,256l-.38-.29-.87.91.37.22ZM169.68,80.85l-.32.12c0,.17-.17.39-.09.51a2.39,2.39,0,0,0,.61.44Zm-32.43,34.41-.74-.74c-.13.19-.33.38-.35.58s.17.36.28.55Zm209.07,46.55-.56.31c.15.19.26.43.48.54s.38-.18.58-.29Zm87.4,144.48a4.34,4.34,0,0,0,.64-.75c.06-.13-.06-.32-.09-.48a3,3,0,0,0-.84.43C433.34,305.59,433.57,305.89,433.72,306.29ZM75,250.53l.69-.43-1-.91-.21.15Zm7.82.18,0-.48-1.39.31.1.36ZM164,286.1l0,.31a1.37,1.37,0,0,0,.55.07,3.19,3.19,0,0,0,.6-.38Zm279.79,16.53c-.37.31-.7.47-.71.63s.31.33.48.5c.15-.16.37-.3.43-.48S443.93,303,443.82,302.63ZM344.43,170c.17-.15.37-.26.38-.39s-.17-.25-.26-.37l-.54.3Zm92.62,156.76-.44.3a3.36,3.36,0,0,0,.6.41c.11,0,.31-.1.48-.15Zm23.4-33.13.14-.28c-.16-.09-.32-.28-.46-.26a3.78,3.78,0,0,0-.79.24ZM393.94,182c-.36-.23-.52-.4-.63-.38a2.61,2.61,0,0,0-.71.3s.14.32.18.31C393.09,182.17,393.4,182.08,393.94,182ZM214.15,296.59c-.25-.19-.37-.35-.53-.38s-.28.15-.43.23c.13.12.24.28.4.33S213.89,296.68,214.15,296.59ZM81.94,278.27l.88-.33c-.12-.12-.25-.36-.35-.35a3.71,3.71,0,0,0-.76.24ZM248.56,162.85l.3-.29c-.32-.26-.63-.53-1-.77,0,0-.24.19-.38.29Zm-5.09,1a4.39,4.39,0,0,0,.74-.64c0-.07-.12-.27-.19-.41a7,7,0,0,0-.78.51C243.19,163.35,243.34,163.55,243.47,163.85Zm-25.14,93.59.39.25,1.06-1.1-.4-.25Zm220.81,27a3.1,3.1,0,0,0-.46-.06c-.16.35-.29.7-.43,1.05l.29.08ZM247.68,166.63a4.28,4.28,0,0,0,.72-.37s-.18-.39-.22-.38a5.31,5.31,0,0,0-.8.25ZM107.83,146.52l.65-.59c-.19-.13-.37-.34-.59-.37s-.51.22-.49.31A2.59,2.59,0,0,0,107.83,146.52Zm369,141.22,0-.5-1.51.06,0,.34ZM208.5,456.31l-.3-.26-.72,1.12.19.09Zm68.25-278.62a3.29,3.29,0,0,0-.69-.33c-.13,0-.31.13-.47.21l.62.62ZM258.67,176l1.08-.42c-.14-.19-.34-.55-.42-.53a2,2,0,0,0-.85.41C258.41,175.52,258.59,175.79,258.67,176Zm22.12,3.12c-.28-.31-.37-.5-.5-.52a1.8,1.8,0,0,0-.59.09c0,.11,0,.3.12.32A7.32,7.32,0,0,0,280.79,179.13Zm-204,29a10.15,10.15,0,0,0-.79.66,4.37,4.37,0,0,0,.43.38,7.46,7.46,0,0,0,.72-.64S76.92,208.28,76.76,208.1ZM233.81,435.55l-.64.47c.19.11.39.31.55.29s.36-.24.54-.38ZM56.92,203.29l.43-.33a8.64,8.64,0,0,0-.89-.49c-.13-.05-.35.06-.53.09.07.25.07.55.25.72S56.66,203.3,56.92,203.29ZM280,231.21c-.16-.3-.23-.56-.32-.57a3.14,3.14,0,0,0-.73.14c.06.14.09.35.2.39A4.09,4.09,0,0,0,280,231.21Zm48.73-28.34a6.74,6.74,0,0,0-.64-.66s-.3.11-.46.17l.57.87ZM436.89,344c-.27-.2-.46-.45-.65-.45s-.47.22-.71.34c.15.18.3.49.46.5S436.49,344.21,436.89,344Zm-25.25-96.28-.23-.51a6.54,6.54,0,0,0-.68.59,1.2,1.2,0,0,0,.35.32A3.17,3.17,0,0,0,411.64,247.75Zm-69.42-38.64a11.77,11.77,0,0,0-1.1-.49c-.1,0-.41.14-.4.2a4.46,4.46,0,0,0,.2.86Zm1.67,1.74.76-.77c-.18-.08-.37-.22-.53-.2a2.57,2.57,0,0,0-.69.28ZM238.15,420a4.07,4.07,0,0,0-.85-.44c-.13,0-.32.14-.48.21.12.18.21.47.37.49S237.68,420.13,238.15,420ZM467.62,251.28l-.26.43,1.36.25.11-.3ZM397.47,438.09l.55-.5c-.13-.06-.32-.21-.36-.19a4.69,4.69,0,0,0-.54.46ZM278.32,205.9,278,206l.12,1c.12-.06.35-.12.35-.17C278.42,206.5,278.36,206.2,278.32,205.9ZM381.15,222a3.35,3.35,0,0,0-.42-.69,1,1,0,0,0-.46.14.87.87,0,0,0,.22.53C380.56,222,380.82,222,381.15,222Zm37.66,211.33c-.39-.26-.58-.48-.77-.49s-.38.23-.57.35c.16.15.3.38.49.42S418.38,433.47,418.81,433.32ZM382.75,225l-.37-.48c-.13.08-.36.16-.36.24a.61.61,0,0,0,.24.41C382.32,225.19,382.55,225.05,382.75,225ZM76.91,178c-.22.27-.45.42-.47.59s.29.39.38.37a2.67,2.67,0,0,0,.66-.36Zm380,55.67-.52-.66c-.11.15-.3.3-.31.45s.19.3.35.37S456.75,233.71,457,233.64Zm-72.6-1.86a3.19,3.19,0,0,0,.24-.5c0-.05-.15-.14-.23-.2a2.88,2.88,0,0,0-.24.46C384.11,231.59,384.25,231.68,384.35,231.78ZM292.63,220.5c-.2.12-.43.18-.53.32s0,.26.07.4c.17-.08.4-.13.49-.25S292.65,220.67,292.63,220.5Zm68.2-2.13-.43-.65c-.11.1-.32.21-.31.31a1.79,1.79,0,0,0,.23.54Zm-90.3-14c.18-.15.4-.25.41-.37s-.16-.27-.26-.41l-.61.39ZM395.59,433.48l.91-.61c-.13-.09-.3-.27-.39-.24a2.4,2.4,0,0,0-.74.35S395.48,433.23,395.59,433.48Zm-1.92,1.39c.36-.29.6-.47.8-.67,0,0-.24-.29-.27-.28a2.16,2.16,0,0,0-.65.37C393.48,434.36,393.6,434.56,393.67,434.87Zm2.24.72c-.31.17-.56.23-.58.33a2,2,0,0,0,.11.62c.18-.07.48-.09.52-.19S395.94,435.94,395.91,435.59ZM451.45,229l-.34.1.34.11a.75.75,0,0,0,.2,0Zm-94.28-13.21c.19-.16.43-.27.44-.4s-.2-.31-.36-.36-.41.17-.4.24S357,215.57,357.17,215.78Zm95,187.92c-.53-.14-.78-.28-.9-.22a2.31,2.31,0,0,0-.52.47Zm-39.83,38.79c.21-.16.44-.26.45-.37s-.12-.32-.2-.48c-.18.11-.43.19-.53.34S412.21,442.26,412.35,442.49Zm-119.71-220c-.22-.12-.4-.28-.54-.27a.7.7,0,0,0-.47.3c-.05.08.14.25.22.38ZM93.33,196.89c-.16-.2-.23-.41-.38-.46s-.37.07-.56.11c.1.16.15.38.31.47S93.05,197,93.33,196.89ZM446.89,382.68c-.4-.24-.59-.43-.68-.4a2.21,2.21,0,0,0-.55.37,1.39,1.39,0,0,0,.5.22A2.58,2.58,0,0,0,446.89,382.68Zm3.21-157.42c-.13-.1-.26-.28-.34-.27s-.4.16-.42.27.13.31.2.47Zm-165,.39a7.11,7.11,0,0,0-.64.8s.26.19.4.29a5.7,5.7,0,0,0,.58-.63C285.47,226.06,285.27,225.89,285.09,225.65Zm68.41-18.74a3.36,3.36,0,0,0-.81-.34c-.12,0-.28.15-.42.23a2.64,2.64,0,0,0,.58.43C352.94,207.26,353.16,207.08,353.5,206.91Zm-114.81,220a3.19,3.19,0,0,0-.54.37s0,.18.08.28a1.39,1.39,0,0,0,.51-.16C238.81,427.35,238.72,427.16,238.69,426.92ZM429.5,363.29l.32.26.66-1.1-.37-.13ZM259.62,226.69c.7-.52,1-.66,1-.76a2.44,2.44,0,0,0-.38-.68C260.1,225.57,260,225.88,259.62,226.69Zm159.29,29,.3.21.51-.84-.19-.08Zm-203,172.65-.51-.57c-.17.12-.44.22-.49.37s.06.43.1.65Zm26.34,5.92c-.36-.34-.47-.52-.62-.54s-.37.17-.37.26a.49.49,0,0,0,.29.4C241.71,434.45,241.94,434.35,242.26,434.28Zm71.84,11.81c.12,0,.28-.08.33-.15s0-.21,0-.32l-.49.19Zm106.73-189c0-.12-.07-.3-.09-.29-.27,0-.53.05-.8.08,0,.11.06.32.07.32C420.29,257.18,420.56,257.13,420.83,257.09Zm-97.42-61.74-.35-.56-.63.35.48.56ZM65.24,263.73c-.21.23-.43.39-.39.45a1.31,1.31,0,0,0,.47.43s.38-.2.36-.25A3.05,3.05,0,0,0,65.24,263.73ZM97.85,158.15c.2-.27.37-.4.35-.51a.64.64,0,0,0-.31-.4.68.68,0,0,0-.39.18A4.47,4.47,0,0,0,97.85,158.15Zm203.9,28.3a5.15,5.15,0,0,0-.61-.62c-.06,0-.27.06-.42.09a3.92,3.92,0,0,0,.34.64A3,3,0,0,0,301.75,186.45Zm118.4,15c-.33-.17-.5-.32-.63-.3a.66.66,0,0,0-.44.31c0,.09.15.25.24.38ZM51.84,207.64a2.58,2.58,0,0,0-.36-.58s-.32.1-.5.16l.39.78Zm128.45,87c.17-.17.42-.34.39-.4a1.8,1.8,0,0,0-.5-.49s-.37.21-.35.25A3.78,3.78,0,0,0,180.29,294.61ZM302.17,459.82c-.17.54-.25.66-.21.71a3.06,3.06,0,0,0,.5.52,1,1,0,0,0,.31-.12C302.65,460.68,302.52,460.44,302.17,459.82ZM258.57,458l-.37-.61c-.16.07-.47.15-.46.21a.76.76,0,0,0,.27.51C258.09,458.15,258.37,458,258.57,458Zm55.71,24.21a3.23,3.23,0,0,0,.68-.5c0-.05-.24-.27-.38-.41a3.4,3.4,0,0,0-.58.47C314,481.8,314.15,482,314.28,482.19Zm-5.12,2.12c-.22-.18-.35-.37-.47-.37a1.93,1.93,0,0,0-.56.24c.15.11.28.27.45.31S308.89,484.4,309.16,484.31Zm-92.9-13.38c-.24-.16-.38-.33-.5-.33a.78.78,0,0,0-.51.23c-.06.09.07.28.12.43Zm7.46-171.61a9,9,0,0,0-1.23-.51c-.09,0-.33.17-.35.28a.54.54,0,0,0,.21.45C222.43,299.6,222.68,299.5,223.72,299.32Zm-22.23-2.62.54-.59c-.15,0-.32-.14-.44-.11a1,1,0,0,0-.46.3S201.31,296.51,201.49,296.7Zm7.23-.18h-.37l-.1,1,.26,0ZM100.66,281c0-.14,0-.31,0-.31a3.8,3.8,0,0,0-.58-.06c0,.1,0,.29,0,.3A3.55,3.55,0,0,0,100.66,281Zm333.52,48.43c-.31-.26-.47-.49-.7-.56s-.37.17-.57.26a3.56,3.56,0,0,0,.62.42C433.64,329.58,433.84,329.48,434.18,329.41ZM36.7,234.68l-.16-.64c-.26.17-.54.33-.78.52,0,0,.22.38.31.37A2.13,2.13,0,0,0,36.7,234.68ZM265.94,158c-.19-.13-.33-.3-.47-.31s-.39.21-.37.27.23.29.36.43Zm63.75,9.79c.16-.11.29-.17.33-.25a2,2,0,0,0,.12-.42c-.13,0-.34,0-.36.07A2.24,2.24,0,0,0,329.69,167.76Zm33.72.47c-.24.28-.46.43-.43.54s.25.34.39.52c.15-.09.42-.18.43-.28S363.65,168.67,363.41,168.23Zm-3.67-.33c-.3.23-.55.35-.53.43a3.7,3.7,0,0,0,.34.73c.12-.14.33-.26.35-.41S359.83,168.26,359.74,167.9Zm-44.26-6.74c-.24.32-.46.49-.43.6a1.12,1.12,0,0,0,.44.51c.05,0,.44-.15.43-.21A4.32,4.32,0,0,0,315.48,161.16Zm-24.38-3.65.53-.36a1.54,1.54,0,0,0-.43-.34c-.13,0-.32.06-.49.09Zm15.68.63a7.34,7.34,0,0,0-.92-.29c-.07,0-.18.21-.28.32a2,2,0,0,0,.56.18A2.22,2.22,0,0,0,306.78,158.14ZM106.54,252.21c-.27-.06-.47-.16-.61-.12a1.75,1.75,0,0,0-.47.35c.17.06.37.2.52.18S106.29,252.4,106.54,252.21ZM190.86,488a3,3,0,0,0,.31-.72c0-.11-.13-.24-.2-.36a2.77,2.77,0,0,0-.46.52C190.47,487.52,190.65,487.68,190.86,488Zm69.52-336.76c0-.17,0-.35-.05-.36a2.72,2.72,0,0,0-.58-.06c0,.09,0,.24.07.27A2.67,2.67,0,0,0,260.38,151.24Zm187,158.3.3,0,.13-1.08-.2,0Zm-412-60.11c.13.19.19.39.32.43a.5.5,0,0,0,.44-.18c0-.13-.07-.3-.12-.46ZM246.07,498.94l-.58-.58c-.08.14-.25.29-.23.42a.64.64,0,0,0,.34.37C245.66,499.19,245.86,499,246.07,498.94Zm81.43-345-.36.37c.1.06.21.17.3.16a3.35,3.35,0,0,0,.54-.16ZM131.67,120.63c-.19-.15-.31-.3-.45-.32a2.46,2.46,0,0,0-.59.06,1.91,1.91,0,0,0,.42.51C131.11,120.92,131.38,120.75,131.67,120.63ZM439.3,308.87c-.29.24-.47.33-.52.45a1.49,1.49,0,0,0,0,.51c.15-.1.36-.17.44-.3S439.28,309.23,439.3,308.87ZM137.9,113.29c-.29.25-.54.4-.52.46a5.4,5.4,0,0,0,.5.71c.1-.15.27-.3.27-.46A2.32,2.32,0,0,0,137.9,113.29ZM59.41,269.36c-.3.22-.66.35-.68.51s.28.38.43.56c.21-.13.54-.24.58-.39S59.56,269.64,59.41,269.36ZM185.17,66l-.21-.63c-.18.06-.51.14-.5.18a4.61,4.61,0,0,0,.27.79ZM62.69,269.33c-.06-.06-.19-.24-.25-.23-.24,0-.61.15-.64.27s.16.41.26.62Zm132.54,224.2c.19-.28.42-.47.37-.57s-.34-.32-.53-.48c-.17.14-.49.3-.47.42S194.9,493.22,195.23,493.53ZM191.07,62.15l-.32-.25-.91.82.28.22Zm-150.49,204-.4.13a2,2,0,0,0,.26.42s.23-.06.35-.1ZM215.78,47.53l-.26-.46c-.18.08-.42.14-.51.27s0,.33,0,.5Zm5.21-.68a3.73,3.73,0,0,0-.44-.63,1.17,1.17,0,0,0-.42.15,2.31,2.31,0,0,0,.29.59A2.53,2.53,0,0,0,221,46.85ZM63.53,262.3a2.53,2.53,0,0,0-.66-.27,1.32,1.32,0,0,0-.5.18c.16.11.3.28.47.3S63.21,262.41,63.53,262.3Zm192.94-222-1.1.7c.12.1.29.31.36.29a2.46,2.46,0,0,0,.81-.4C256.63,40.79,256.51,40.56,256.47,40.27Z"/><path d="M238.55,170.78l.15-.8a11.32,11.32,0,0,0-2.7.18c-.61.2-1,.89-1.51,1.31a7.9,7.9,0,0,1-1.15.63,4.62,4.62,0,0,1-.68-1.69c0-.37.72-.71,1.06-1.09.19-.22.46-.62.36-.73-2.15-2.41,1-2.51,2.25-3.43-.48.83-1,1.66-1.42,2.52-.14.3.05.7.09,1.06.35-.08.7-.17,1.05-.22,1.69-.22,3.25-1.84,5.15-.29.23.19,1.21-.37,1.63-.2,2.38.93-.38,2.16.18,3.24a20.12,20.12,0,0,1-2.86.67c-.37,0-.83-.43-1.25-.67Z"/><path d="M184.44,496.18c1.92,1.34,3.1-.73,4.73-.71.38,0,.75,0,1.13,0,0,.27,0,.6-.13.82-.78,1.18-.82,3.14-3.7,2-.89-.36-2.47.47-3.81.78l.28-1.29a24.61,24.61,0,0,0-4.41,1.18c-1,.47-.94.6-.61-.34.05-.12-.69-.4-1-.66s-.72-.71-1.08-1.06a13.57,13.57,0,0,1,2-1,1.35,1.35,0,0,1,1,.58c.28.74,1,1.24,1.33.45.73-1.87,2-.84,3.11-.67a2.89,2.89,0,0,0,.65-.05Z"/><path d="M260.11,5.45l1-.25-.48,1.5a5.54,5.54,0,0,1,1.13-.11,16.48,16.48,0,0,1,1.67.34c-.33.34-.68.68-1,1-.77.89-1.52,1.73-3.12,1.27-.23-.06-.67.41-1,.63-.83-.42-.18-2.48-2.28-1.37-.12-.34-.47-.82-.31-1,.76-1,1.34-2.23,3.26-1.88a4,4,0,0,0,1.2-.2Zm0,2.36c-.54-.27-.84-.55-1.07-.51s-.46.37-.68.57c.22.12.43.33.65.33A4.59,4.59,0,0,0,260.12,7.81Z"/><path d="M249.82,149.53c0,.53.17,1.34-.14,1.52a4.64,4.64,0,0,1-2.08.2,2.72,2.72,0,0,1-1.19-.33c-.69-.37-1.31-.82-2-1.23l1.49-1.49a.6.6,0,0,1,.18-.09l3-1,.72,2.49S249.82,149.53,249.82,149.53Zm-2-.27-.83.67.54.47a4.88,4.88,0,0,0,.62-.57C248.17,149.76,248,149.56,247.79,149.26Z"/><path d="M17.3,254.23a5.31,5.31,0,0,1,1-.39c.19,0,.43.18.65.28-.19.13-.35.35-.56.38-1.25.16-1,.12-.9,1.1.08.59-.55,1.29-1,1.87a1.45,1.45,0,0,1-1,.15A4.3,4.3,0,0,1,15,256.4c-.06-.24-.11-.47-.18-.8l-1.47.9a5.12,5.12,0,0,1,3.45-3.78c.31-.05.73.41,1.1.63l-.83.62Z"/><path d="M24.22,263.71a11.88,11.88,0,0,1-2.2,1.37c-.31.11-1-.31-1.35-.62-.15-.14,0-.81.25-.91,1.62-.65.61-1.15-.08-1.68a11.74,11.74,0,0,1-1.29-1c-.22-.22-.22-.6-.32-.9a2.82,2.82,0,0,1,1,0,19.87,19.87,0,0,1,3.21,1.68C23.86,262,23.88,262.79,24.22,263.71Z"/><path d="M477.13,261.35c1.57.79,2.25,3.7,1.56,4.74-.2.3-.83.74-.92.69a2.49,2.49,0,0,1-1.1-1c-.1-.25.39-.65.55-1a2.68,2.68,0,0,0,.36-1.18A19.14,19.14,0,0,0,477.13,261.35Z"/><path d="M184.44,496.18l-.44,0c.9-2.44,2.42-3.44,5-3.22a4.83,4.83,0,0,1,1.26.51,7.12,7.12,0,0,1-1,.63C187.66,494.82,186.05,495.5,184.44,496.18Z"/><path d="M234.79,163.07c1.16-1,2.28-2.12,3.51-3.09a5.48,5.48,0,0,1,1.7-.48l-.06-.07c-.88.94-1.84,1.84-2.61,2.83a8.69,8.69,0,0,0-.9,2l-1.75-.77Z"/><path d="M266.9,193.91c-.4-1.78-.17-3.34,2-4.26a5.48,5.48,0,0,1,1.6-.15c-.09.43,0,1-.3,1.29C269.16,191.86,268,192.85,266.9,193.91Z"/><path d="M480.94,289.71l0,.05c.3-.62.61-1.24.92-1.87l1.35-.18-.38-.61-.94.85c.15-.66.3-1.31.46-2l.32-.18a16.85,16.85,0,0,1,1.59,3.1c.09.29-1,.83-1.62,1.26h.08Z"/><path d="M482.32,294.26l-.93-1,1.29-3.15h-.08c2.14,1,.62,2.85,1.26,4.2l-1.22,0A1,1,0,0,0,482.32,294.26Z"/><path d="M279.08,183.77c.39.37,1,.68,1.14,1.1a1.86,1.86,0,0,1-.23,1.34c-.37.76-2.59,1.64.31,2.07.1,0,.12.42.18.65l-1.73-.14,0,.05a9.76,9.76,0,0,1-.82-1.28c2-1.18,0-2.56.34-3.8l.87.09Z"/><path d="M265.08,153.75l.39,1.63.07-.06c-.54.15-1.08.33-1.63.46-1.05.25-2.11.47-3.17.7l.07.08A4.86,4.86,0,0,1,265.08,153.75Z"/><path d="M117.22,284.94c-.58.2-1.48.7-1.7.54-1.1-.79-1-.8-2.6-.35-.32.1-.86-.37-1.3-.57.66-.54,1.27-1.46,2-1.51s1.58.72,2.36,1.15c.45.25.87.52,1.3.79Z"/><path d="M179.13,478c0-.95-2.11-1.52-.71-2.72l-1.87-.83c.3-.21.75-.74,1.21-.75s.81.58,1.17.95c.16.18.11.57.3.65,2.26,1,1.07,1.86-.17,2.72Z"/><path d="M251.37,175.05c-.69,1.55-1.35,3.06-2.16,4.89-.38-.64-1-1.26-.83-1.5C249.22,177.26,248.23,175,251.37,175.05Z"/><path d="M206.22,439.8a34,34,0,0,1,2.2-2.6c.22-.22.89-.12,1.34-.17,0,.43.22,1,0,1.26a3.18,3.18,0,0,1-3.57,1.45Z"/><path d="M182.72,476.66c.19-.6-2.09-1.05-.15-1.75a8.37,8.37,0,0,0-.62-.57c-.37-.26-.77-.48-1.15-.72l-.08,0c.46-.13,1.8.91,1.21-.63-.06-.16.22-.56.25-.55a3.21,3.21,0,0,1,1.34.41,1.3,1.3,0,0,1,.43,1.17,22.17,22.17,0,0,1-1.29,2.64Z"/><path d="M271.1,188c-.68.17-1.44.57-2,.43s-1-1.07-.82-1.35a6.9,6.9,0,0,1,1.83-1.42l.62,1.69Z"/><path d="M278.75,188.79c1.14,1.53.75,2-2.47,3.12l-.5-.37,3-2.69Z"/><path d="M175.59,483l3.74-.57c-1.78,2.22-2.33,2.3-3.87.95Z"/><path d="M262.33,195.3c.18-.87.35-1.75.57-2.62.06-.24.27-.65.42-.65a3,3,0,0,1,1.21.32c.07,0-.1.51-.25.74-.52.79-1.09,1.56-1.61,2.35a4.19,4.19,0,0,0-.33.71l-.4-.84Z"/><path d="M208.72,43.29l-.72,1c-.21,0-.54,0-.61-.1a18.48,18.48,0,0,1-1.11-1.85A1.54,1.54,0,0,1,207,42C208,42,208.87,42.18,208.72,43.29Z"/><path d="M20.92,241.52a29.62,29.62,0,0,1,.27-3.12c0-.33.52-.62.8-.92.08.32.19.63.25,1,.22,1.22.83,2.57-1.39,3Z"/><path d="M408.18,452.81c-.23-.93,1.62-3.39,2.61-3.42.15,0,.47.18.46.23-.1.39-.13.87-.43,1.12-.83.73-1.79,1.35-2.69,2Z"/><path d="M238.62,155.75l-3.09.32a4.27,4.27,0,0,1,1.08-1.46c.47-.3,1.35-.15,2-.21l-.1,1.39Z"/><path d="M19.34,243.18l1.43-.32a3,3,0,0,1-.33,1.08c-.54.71-1.2,1.37-1.81,2.05l-.56-.26,1.32-2.58Z"/><path d="M25.65,236.43c-1,.29-2.12.8-2.26.65A6.25,6.25,0,0,1,22.33,235c0-.08.45-.4.5-.38C23.72,235.18,24.58,235.74,25.65,236.43Z"/><path d="M226.45,28.21c-.28-.44-.84-1-.7-1.19a6.57,6.57,0,0,1,1.59-1.1l1.18,1.3Z"/><path d="M264,498.09a7.11,7.11,0,0,1-1.89.93c-.29.05-.73-.52-1.1-.81.7-.33,1.38-.69,2.11-1C263.22,497.21,263.57,497.66,264,498.09Z"/><path d="M480.3,267.49c.07,1.14.18,2.27.18,3.41,0,.18-.46.35-.7.53-.18-.27-.54-.56-.5-.81.14-1,.39-2,.61-3Z"/><path d="M249.69,29.84l.4-.74a10.77,10.77,0,0,1,1.45,1.68c.1.19-.49.65-.77,1a8.07,8.07,0,0,1-.59-.85c-.2-.37-.34-.75-.5-1.13Z"/><path d="M252.42,498.38a13.2,13.2,0,0,1,.09,1.77c0,.11-.64.33-.81.25-.34-.16-.81-.68-.76-.74a15.09,15.09,0,0,1,1.54-1.3Z"/><path d="M223.36,28.1c1.92-.8,1.61.08,1.12,1-.29.58-.63,1.15-1,1.72a1.18,1.18,0,0,1-.36-.12c.11-.69.25-1.38.35-2.07a1.56,1.56,0,0,0-.15-.58Z"/><path d="M233.37,501.2l2-.15-.51,1.42a6.13,6.13,0,0,1-1.37-.47C233.34,501.88,233.42,501.47,233.37,501.2Z"/><path d="M260.25,196.93c-.18.85-.34,1.71-.57,2.55,0,.16-.38.25-.58.37-.11-.2-.36-.42-.32-.6.2-.81.47-1.61.72-2.41Z"/><path d="M274,189.07c-3.48-.89-.32-1.61.15-2.27l-.2,2.31Z"/><path d="M480.25,275.37c-.44-.8-.86-1.34-.76-1.43a13.31,13.31,0,0,1,1.84-1.09c.1.25.36.56.26.73A15.9,15.9,0,0,1,480.25,275.37Z"/><path d="M175.59,483l-.13.38h-2.79l.12-.93Z"/><path d="M265.7,34.66c.09-.37.13-1,.3-1.06a7,7,0,0,1,2.85.15l-3.16.91Z"/><path d="M415.83,194.28l-.46,2.21-1.49-1.75Z"/><path d="M260.18,188.92l2.92-2.35.41.39-3,2.27Z"/><path d="M262,38.37l.16-.62a1.43,1.43,0,0,1,.42,0c.73.38,1.45.78,2.17,1.17a5.59,5.59,0,0,1-.42.5C263.56,39.1,262.79,38.74,262,38.37Z"/><path d="M483,312.65c1.24,1.11,1.13,1.68-.26,2.07C482.86,314.06,483,313.35,483,312.65Z"/><path d="M273.78,190.08a1.81,1.81,0,0,1-2.26,1.52l-.34-.53,2.65-.92Z"/><path d="M472.93,253.77c0-.06,0-.13.05-.17.44-.47.89-.93,1.34-1.4l.46,1.26-1.9.25Z"/><path d="M223.71,33.84c-.6-.14-1.55,1.37-1.8-.22-.06-.35.5-.77.77-1.16l1,1.43Z"/><path d="M220.29,300.73l.19.2-2.12.33a5.43,5.43,0,0,1,.06-.59C219,300.67,219.66,300.7,220.29,300.73Z"/><path d="M238,175.46l-2.38,1.14-.34-.51,2.41-1.09Z"/><path d="M234.79,163.07l-.11.41-2.54.74A1.86,1.86,0,0,1,234.79,163.07Z"/><path d="M260.19,5.4c-1.78-.34-1.21-1-.3-1.67.17-.13.65,0,1,.08-.11.28-.21.56-.34.83s-.29.54-.43.81Z"/><path d="M19.39,243.15,18.77,242l2.15-.52-.07-.06a3.31,3.31,0,0,1-.45,1,6.1,6.1,0,0,1-1,.74Z"/><path d="M255.27,215l1.06-1c.11.35.36.73.28,1.05s-.47.58-.73.86Z"/><path d="M241.74,166l2,.29c-1,.37-2.07.74-3.11,1.09-.06,0-.32-.24-.34-.38s.25-.21.39-.3Z"/><path d="M248.44,158.1l-2.32-.34c.12-.2.24-.57.36-.56.7,0,1.41.11,2.11.17Z"/><path d="M427.43,203.16c.08-.91.16-1.82.23-2.73l1,.16c-.41.86-.83,1.71-1.24,2.57Z"/><path d="M228.33,501.33l3-.07C230.29,503.12,229.38,501.82,228.33,501.33Z"/><path d="M227.59,23.8c.4-.46.78-.94,1.22-1.36.13-.12.46-.08.69-.11,0,.22.06.52-.09.64a17.84,17.84,0,0,1-1.49,1Z"/><path d="M421,196.47l-.83.27a5.81,5.81,0,0,1-.32-.78,1.69,1.69,0,0,1-.09-.88,1,1,0,0,1,.75-.19c.21.12.27.44.34.68S421,196.17,421,196.47Z"/><path d="M188.9,470.48,190,472a3.38,3.38,0,0,1-.48.24c-.43-.45-.82-.92-1.22-1.39Z"/><path d="M32,272.44l-2.24-.55a3.56,3.56,0,0,1,.2-.46c.77.15,1.53.33,2.3.5Z"/><path d="M244.45,151.64c-.47-.34-.94-.67-1.38-1,0,0,.19-.27.3-.41l1.57,1Z"/><path d="M238.55,155.79l1.36,1-.73.42-.56-1.46Z"/><path d="M254.42,157.16c-.09.17-.12.39-.27.49a11.24,11.24,0,0,1-1.15.58,3.21,3.21,0,0,1,.22-1.09c.14-.22.59-.31.9-.46Z"/><path d="M482.36,283.88l-.83.41c-.17-.28-.48-.57-.45-.83s.46-.38.72-.56Z"/><path d="M43.84,275.48l-2.06-.61.78-.77Z"/><path d="M249.68,29.78l-1.22.64L248.05,29l.35-.21,1.29,1A.43.43,0,0,1,249.68,29.78Z"/><path d="M254.42,157.16l-.3-.48,0-1,1.3.4Z"/><path d="M206,435.6l.21-1.53.37,0-.1,1.55Z"/><path d="M273.83,190.15l.21-1.08-.05,0,1.14-.11c0,.39-.07.78-.1,1.17l-1.25-.09Z"/><path d="M229.63,169.74c-.65.28-1.1.5-1.58.65-.06,0-.42-.45-.41-.46a9.87,9.87,0,0,1,1.32-.8S229.28,169.41,229.63,169.74Z"/><path d="M263,197.62l-1.64.78-.37-.53,1.63-.8Z"/><path d="M464.69,233.66c-.14-.46-.36-.81-.25-.92a3.48,3.48,0,0,1,1-.51c0,.27.19.56.11.79S465.13,233.35,464.69,233.66Z"/><path d="M173.79,494.8l-.15-1.23,1.06.16-.34,1.18Z"/><path d="M263.46,189.6l.4-.89,1,.78-1.46.06Z"/><path d="M480.72,277.48c.27-.43.53-.87.83-1.29a4.82,4.82,0,0,1,.5.16l-.88,1.32Z"/><path d="M185.35,477l1.25.73-.1.29-2.36-.61h0l1.24-.35Z"/><path d="M252.19,159.54l-.21,0-1.74.09a5.37,5.37,0,0,1,.24-.55c.58.12,1.14.29,1.71.44Z"/><path d="M262.32,3.3l1.22,1.36-.46.29-1.19-1.34Z"/><path d="M180.8,473.62l-1.2-.48,1.16-1.07c0,.76,0,1.18,0,1.6Z"/><path d="M263.42,189.55c.92,1.74-.75,1.12-1.67,1.19.58-.38,1.15-.75,1.72-1.14Z"/><path d="M227.61,167.1l1.68-.29c0,.16.07.44,0,.47-.49.18-1,.31-1.54.46Z"/><path d="M186.68,469.11a6.49,6.49,0,0,1-1.25.24c-.14,0-.28-.35-.42-.54.31-.16.64-.45.92-.42S186.38,468.8,186.68,469.11Z"/><path d="M188.22,500.63c-.26-.3-.57-.53-.52-.61a2.92,2.92,0,0,1,.66-.59c.15.2.39.39.41.6S188.49,500.35,188.22,500.63Z"/><path d="M19.15,265.07c-.15-.42-.37-.71-.29-.93s.46-.36.71-.53c.13.24.39.5.34.71S19.51,264.73,19.15,265.07Z"/><path d="M176,498.59l-1.79-.7.19-.34,1.81.77Z"/><path d="M482.65,296.16l-.06-1.55.77,1.55Z"/><path d="M266.64,8.45l.49-1.13a3.1,3.1,0,0,1,.49.19,9.23,9.23,0,0,1-.38,1.12Z"/><path d="M331,154.32l-.43-.25,1.3-.49v.72l.08,0Z"/><path d="M230.93,163.09l-.86.62c-.15-.23-.46-.51-.4-.7s.47-.36.77-.45C230.51,162.54,230.73,162.87,230.93,163.09Z"/><path d="M403.51,185.89l-1,.45c-.1-.18-.33-.4-.27-.53a.78.78,0,0,1,.6-.25C403,185.57,403.23,185.75,403.51,185.89Z"/><path d="M483,278l-1.29.82c0-.17-.08-.47,0-.48.44-.13.9-.21,1.35-.3Z"/><path d="M472,246.89l.65-1.44c1.63,1.12-.11,1.06-.7,1.39Z"/><path d="M95.24,281l.92.2-.62.89Z"/><path d="M34.54,272.17l-1,.37-.26-.55a6.49,6.49,0,0,1,1-.26C34.26,271.72,34.39,272,34.54,272.17Z"/><path d="M395,182.23l1-.46c0,.21.09.42.13.63l.12,0-1.35-.21Z"/><path d="M461.68,230.93l-1.19-.21.3-.63c.3.29.61.59.91.9Z"/><path d="M482.63,285.8l-.32.18-.86-.59.83-.43Z"/><path d="M264.38,196.16a2.86,2.86,0,0,1,.23,1c0,.16-.37.28-.56.41a2.32,2.32,0,0,1-.36-.81C263.68,196.59,264,196.43,264.38,196.16Z"/><path d="M20.22,254.81l-1.34,1.13-.27-.22,1.21-1.28Z"/><path d="M292.18,494.09l1.8.59-.34.39-1.4-1Z"/><path d="M234.71,19.45c-.17-.49-.36-.72-.29-.87s.38-.3.58-.44c.09.18.27.37.25.54S235,19,234.71,19.45Z"/><path d="M45.55,272.48l-.38,1.8-.57-.13,1-1.63Z"/><path d="M224.86,502c-.39-.81-.49-1-.59-1.21a3.72,3.72,0,0,1,.84-.22c.08,0,.27.35.25.52S225.14,501.47,224.86,502Z"/><path d="M482.67,311.08l-1.06-.64.89-.43c.09.32.19.64.28.95Z"/><path d="M221.91,500.76a3.27,3.27,0,0,1-.79.06c-.12,0-.21-.2-.31-.31l.85-.34Z"/><path d="M246.81,152.21l-1,.46c-.11-.18-.33-.37-.31-.53s.27-.39.42-.58Z"/><path d="M170,489.48c-.16-.32-.39-.55-.33-.69s.37-.33.58-.48c.14.18.41.37.39.54S170.28,489.19,170,489.48Z"/><path d="M472.89,257.28l.94-1.07c.32,1.25.32,1.25-.95,1.06Z"/><path d="M233.89,176.93a3.7,3.7,0,0,1-.07-.94c0-.09.37-.14.56-.2a2.82,2.82,0,0,1,.11.81C234.48,176.7,234.2,176.77,233.89,176.93Z"/><path d="M475.44,255.22a4.19,4.19,0,0,1,.54.77c0,.07-.3.24-.47.36a4.86,4.86,0,0,1-.59-.7S475.2,255.42,475.44,255.22Z"/><path d="M339.15,157.94l-.36,0,.14-.72c.17.07.5.16.49.21A1.65,1.65,0,0,1,339.15,157.94Z"/><path d="M358.59,478.21l-1.26-.34.09-.28,1.28.33Z"/><path d="M164.06,489.69c-.24-.34-.46-.51-.45-.67s.27-.27.42-.41c.18.16.43.31.52.5S164.32,489.39,164.06,489.69Z"/><path d="M204.3,45.4l-.43.83-.37-1.11.82.3Z"/><path d="M204.32,45.42l.58-1.28.6.3-1.2,1Z"/><path d="M259,47.59a5.62,5.62,0,0,1-1,.25c-.11,0-.36-.29-.34-.31a2.27,2.27,0,0,1,.61-.49A4.51,4.51,0,0,1,259,47.59Z"/><path d="M482.78,311l.78-.09-.32,1-.57-.78Z"/><path d="M265.69,34.66a.82.82,0,0,0-.22,0L264,35l0-.32,1.77,0Z"/><path d="M211.23,254.33l-1.4.25a2,2,0,0,1-.1-.63c0-.07.33-.2.45-.17A7.38,7.38,0,0,1,211.23,254.33Z"/><path d="M166.87,495.86a5.57,5.57,0,0,1-1.42.33c-.2,0-.34-.31-.52-.47.2-.12.38-.31.59-.33S166,495.52,166.87,495.86Z"/><path d="M465.12,239.51l1.28.56,0,0c-.43-.15-1.86,1.19-1.21-.56Z"/><path d="M481.55,266.81l-.31-1.23.48,0v1.25Z"/><path d="M233,20.66c-.21-.45-.35-.6-.33-.74s.19-.29.3-.43c.11.09.32.19.31.28A4.14,4.14,0,0,1,233,20.66Z"/><path d="M214,299.49l-.62.42c-.07-.18-.24-.4-.17-.53s.35-.3.55-.44Z"/><path d="M260.59,195.37a2.84,2.84,0,0,1-.79.47c-.11,0-.46-.31-.42-.41a1.05,1.05,0,0,1,.56-.47C260.05,194.92,260.29,195.17,260.59,195.37Z"/><path d="M263.46,12.83l.92.82-.16.17-1.14-.68Z"/><path d="M57.92,267.32a9.12,9.12,0,0,1-1.21.34c-.16,0-.34-.1-.5-.15a3.1,3.1,0,0,1,.7-.61C57,266.84,57.35,267.07,57.92,267.32Z"/><path d="M233.26,161.4l-1.29.51-.15-.26,1.29-.48Z"/><path d="M17.91,258.42a6.79,6.79,0,0,1-1,.45c-.09,0-.28-.18-.42-.29a6.4,6.4,0,0,1,.83-.41C17.4,258.14,17.59,258.29,17.91,258.42Z"/><path d="M193.8,502.19c0-.4,0-.61,0-.78s.32-.19.49-.28a2.09,2.09,0,0,1,0,.61C194.32,501.86,194.11,502,193.8,502.19Z"/><path d="M268.85,14.52a2.59,2.59,0,0,1-.41-.66c0-.08.29-.2.45-.31a2.43,2.43,0,0,1,.4.54C269.32,14.17,269.08,14.31,268.85,14.52Z"/><path d="M168,489.12l-.82.31a2.21,2.21,0,0,1-.26-.62c0-.08.36-.28.42-.25A4.81,4.81,0,0,1,168,489.12Z"/><path d="M17.42,262.92l.47.83-.31.11-.43-.84Z"/><path d="M481.8,319.54l.22-1.06.73.54Z"/><path d="M337.81,157.8c-.22,0-.44,0-.66,0a1.78,1.78,0,0,1-.43-.18,3.28,3.28,0,0,1,.67-.22c.14,0,.31.11.47.17Z"/><path d="M28.6,236l-.35,1.29-.32-.09.66-1.19Z"/><path d="M241.47,158.89l-.14.47-1.39.07.06.07Z"/><path d="M45.71,271.68l-.32.07-1,.13v-.32Z"/><path d="M238.55,170.78l.35.49-1.28.2Z"/><path d="M192.25,465.14l-.31,1c-.16-.11-.45-.25-.43-.31A4.81,4.81,0,0,1,192,465Z"/><path d="M353.26,478.8l.48-.23.6.39c-.11.07-.25.22-.31.2A5.4,5.4,0,0,1,353.26,478.8Z"/><path d="M224.94,169.92l-.78.35a1.51,1.51,0,0,1-.21-.58c0-.11.26-.22.4-.32Z"/><path d="M205.36,437.81c-.21-.28-.42-.47-.38-.52a2.73,2.73,0,0,1,.56-.42c.07.08.21.18.19.24A4.5,4.5,0,0,1,205.36,437.81Z"/><path d="M168.51,294.37l.06.78-.81-.18.81-.62Z"/><path d="M260.92,192.21l-.56,1a3.68,3.68,0,0,1-.08-.8c0-.12.24-.22.37-.32Z"/><path d="M453.55,221.8c-.2-.24-.47-.43-.44-.59s.35-.27.54-.41a2.32,2.32,0,0,1,.38.6C454.05,221.48,453.79,221.61,453.55,221.8Z"/><path d="M460.1,227.66l-.13.85c-.15-.16-.36-.3-.41-.47s.11-.32.18-.48Z"/><path d="M66.19,184.2l-1.33-.58.42-.35.83,1Z"/><path d="M466.53,237.07a4.59,4.59,0,0,1,.25.81.8.8,0,0,1-.4.14.87.87,0,0,1-.26-.45C466.11,237.47,466.28,237.36,466.53,237.07Z"/><path d="M469.11,239.26l.54-.56.32.6-.91-.08Z"/><path d="M217.07,301.73c-.07-.16-.18-.31-.14-.34a5.72,5.72,0,0,1,.57-.39c0,.12.06.26,0,.34A2.79,2.79,0,0,1,217.07,301.73Z"/><path d="M369.34,474.3c-.15,0-.33.1-.39.05a2.22,2.22,0,0,1-.36-.39c.11,0,.28-.12.32-.09A2.91,2.91,0,0,1,369.34,474.3Z"/><path d="M362,477.32a4.13,4.13,0,0,1-1,0c-.11-.07-.09-.29-.13-.44a1.06,1.06,0,0,1,.39,0A6.74,6.74,0,0,1,362,477.32Z"/><path d="M483,278c.25-.38.51-.75.76-1.12l.3.21L483,278Z"/><path d="M479.91,278.39l.18-1.33.47.13-.66,1.18Z"/><path d="M340.63,483.53c-.11,0-.25.11-.32.08a3.3,3.3,0,0,1-.43-.3c.11-.06.28-.19.32-.16A2.55,2.55,0,0,1,340.63,483.53Z"/><path d="M245.5,169.53l-1-.59.47-.19.46.81Z"/><path d="M34.26,270.52l.85.59-.15.12-.63-.75Z"/><path d="M236.63,159.48a2.19,2.19,0,0,1-.61.31c-.12,0-.28-.13-.43-.21a1.54,1.54,0,0,1,.46-.27A1.7,1.7,0,0,1,236.63,159.48Z"/><path d="M185.4,477.09l0-.74.76.22-.78.45Z"/><path d="M295.59,492.18l-.18,1.45-.35-.07c.18-.46.36-.92.56-1.39Z"/><path d="M247.41,152.63l-.3-.46a3.67,3.67,0,0,1,.72-.1c.08,0,.14.26.2.39Z"/><path d="M266.5,152.23l-1.06,1.23Z"/><path d="M240,501.65l.46.34a1.77,1.77,0,0,1-.51,0c-.13,0-.22-.17-.33-.26Z"/><path d="M251.13,56.24l-.61.23c0-.08-.11-.22-.07-.25a6.27,6.27,0,0,1,.59-.42Z"/><path d="M223.36,28.1l-.54-.94.44-.1c0,.35.07.7.1,1Z"/><path d="M237.1,18.73l-.27-.45.5-.15a1.93,1.93,0,0,1,.16.46S237.27,18.67,237.1,18.73Z"/><path d="M14.33,261.31c-.08-.25-.21-.44-.15-.54s.32-.18.49-.27c.06.15.21.31.17.43S14.58,261.14,14.33,261.31Z"/><path d="M411.29,258.11c-.17.58-.35,1.16-.52,1.74l-.51-.06c.17-.73.34-1.45.52-2.17Z"/><path d="M414.52,379.37c0-.46-.1-.92-.16-1.38l.84.63Z"/><path d="M264.57,455.76l.73-.69.17.8Z"/><path d="M298.39,192.94c-1.15.45-2,.81-2.82,1.09a3,3,0,0,1-1.23.11c-.1,0-.23-.56-.13-.78s.55-.88.81-.87A33.24,33.24,0,0,1,298.39,192.94Z"/><path d="M278.37,353.86c.51.32,1.49.67,1.46.95a27.25,27.25,0,0,1-.95,3.83c-.2-1.87-.36-3.34-.52-4.82Z"/><path d="M298.19,250.85a28.34,28.34,0,0,1-1.14,2.65c-.07.13-.67.07-1,.1l0-1.15c1.48.28,1-.72,1.27-1.29C297.28,251.06,297.6,251,298.19,250.85Z"/><path d="M395.81,245.69l1.63.61,1.05.64a15.52,15.52,0,0,1-2.18.93,1.82,1.82,0,0,1-1.24-.4c-.14-.11.05-.58.17-.86A7.37,7.37,0,0,1,395.81,245.69Z"/><path d="M289,196.71c.41.41,1.94-1.49,1.55.52a10.3,10.3,0,0,1-.56,1.55,9.8,9.8,0,0,0-.33-1.54c-.08-.22-.43-.36-.66-.54Z"/><path d="M300.28,228.73c-.36.71-.65,1.32-1,1.92a1,1,0,0,1-.44.34.6.6,0,0,1-.35-.13,7.45,7.45,0,0,1,.73-2C299.38,228.68,300.15,228.75,300.28,228.73Z"/><path d="M404.5,250.59c.43,1.79-1,1.43-2.4.84l2.44-.78Z"/><path d="M348.11,219.12a10.47,10.47,0,0,1-.73-1.47c0-.12.31-.32.48-.49l1.29,1.31Z"/><path d="M413.27,259.71a1.8,1.8,0,0,0,.14.53c.72,1.06.08,1.3-1.39,1.16.45-.59.86-1.14,1.26-1.68Z"/><path d="M406.44,252.51l-.19,1.07-1.49-.86Z"/><path d="M430.67,300.53a3.57,3.57,0,0,1-1.23.05.9.9,0,0,1-.54-.67c0-.22.33-.45.52-.68Z"/><path d="M416.52,268.53c-.22-.37-.53-.71-.45-.79a5,5,0,0,1,1-.58c.16.21.5.49.43.6A4.74,4.74,0,0,1,416.52,268.53Z"/><path d="M297.56,246.6c.32.51.64,1,.93,1.52,0,0-.3.27-.46.28s-.44-.17-.44-.27c0-.53,0-1.06.06-1.58Z"/><path d="M330,205.21l2.12-.05-.08.54-2-.52Z"/><path d="M348.12,216.47a3.22,3.22,0,0,1,1,.17c.22.12.27.46.39.71a4.62,4.62,0,0,1-.93-.31,2.05,2.05,0,0,1-.48-.57Z"/><path d="M314.48,197.24l-.07,1.34-.55,0c0-.44.09-.88.13-1.33Z"/><path d="M392.69,248.58a7.94,7.94,0,0,1,1.25-.26c.12,0,.26.34.39.53l-1.22.38Z"/><path d="M294.07,450l-1.17-.52.52-.51.59,1.07Z"/><path d="M406.27,253.73l.6.38.28.48c-.22-.06-.53-.06-.64-.19A1.68,1.68,0,0,1,406.27,253.73Z"/><path d="M301.11,215.86c-.15.06-.37.19-.44.15s-.4-.28-.4-.44.25-.28.39-.42Z"/><path d="M355.44,221.05l.5.64c-.16,0-.36.15-.46.11a2,2,0,0,1-.48-.39Z"/><path d="M325.07,205a2,2,0,0,1,.23.49,5.26,5.26,0,0,1,.05.89,1.33,1.33,0,0,1-.34,0,2.37,2.37,0,0,1-.23-.79,1.93,1.93,0,0,1,.29-.64Z"/><path d="M305.74,193.34l.53.37-.65.53c-.09-.14-.28-.29-.26-.42S305.59,193.53,305.74,193.34Z"/><path d="M292.53,192.66,292,193c-.08-.13-.21-.25-.23-.38s.18-.26.23-.25A1.61,1.61,0,0,1,292.53,192.66Z"/><path d="M365.37,229.6l-.07-1c.13,0,.35,0,.37.08.09.31.13.63.2.94Z"/><path d="M302.1,212.25a5.37,5.37,0,0,1-.52-.84c0-.06.14-.18.22-.27a2.45,2.45,0,0,1,.31.43A2.52,2.52,0,0,1,302.1,212.25Z"/><path d="M300,207.8l1-.36.16.62-1.15-.3Z"/><path d="M337.82,211.08a4.34,4.34,0,0,1-.3.7,3,3,0,0,1-.53-.1l.85-.58Z"/><path d="M410.26,259.79l.51.06-.42.86Z"/><path d="M430.39,316.73c-.07-.25-.17-.42-.13-.56s.23-.17.35-.26c.1.15.29.3.28.44S430.62,316.56,430.39,316.73Z"/><path d="M253.5,239.85l.35.9-.78-.11c.15-.25.31-.5.46-.77Z"/><path d="M66.76,247.7c.19.29.41.48.42.68s-.25.31-.4.46a2.22,2.22,0,0,1-.36-.6C66.4,248.12,66.59,248,66.76,247.7Z"/><path d="M398.51,245.71l-1,.66c-1.33-.68.14-1,.27-1.51Z"/></g></svg>