<svg xmlns="http://www.w3.org/2000/svg" viewBox="0 0 572.88 195.31"><title>de-vierde-dimensie-text</title><g id="Layer_4" data-name="Layer 4"><path d="M0,87.63V0H31.12C50.93,0,64.77,10.16,64.77,38.1V49.53c0,27.82-13.84,38.1-33.65,38.1Zm47-38.1V38.1c0-15.11-4.06-23-15.87-23H17.78V72.65H31.12C42.93,72.65,47,64.65,47,49.53Z"/><path d="M134,0V15.11H97.15V34.8h33v15h-33V72.65H134v15H79.37V0Z"/><path d="M189.22,0,208.4,58.93,227.58,0H247L216.53,87.63H200.4L169.79,0Z"/><path d="M275.07,87.63H257.29V0h17.78Z"/><path d="M348.22,0V15.11H311.39V34.8h33v15h-33V72.65h36.83v15H293.61V0Z"/><path d="M408.29,87.63,392.54,53.22H378.32V87.63H360.54V0h31.37c20.19,0,32.77,9,32.77,26.8,0,11.81-5.47,19.56-15,23.49l18.16,37.34Zm-18-49.4c10.54,0,16.63-2.29,16.63-11.43s-6.09-11.69-16.63-11.69H378.32V38.23Z"/><path d="M438.89,87.63V0H470c19.81,0,33.65,10.16,33.65,38.1V49.53c0,27.82-13.84,38.1-33.65,38.1Zm47-38.1V38.1c0-15.11-4.06-23-15.87-23H456.67V72.65H470C481.82,72.65,485.88,64.65,485.88,49.53Z"/><path d="M572.88,0V15.11H536V34.8h33v15H536V72.65h36.84v15H518.26V0Z"/><path d="M0,194.17V106.54H31.12c19.81,0,33.65,10.16,33.65,38.1v11.43c0,27.81-13.84,38.1-33.65,38.1Zm47-38.1V144.64c0-15.12-4.06-23-15.87-23H17.78v57.53H31.12C42.93,179.18,47,171.18,47,156.07Z"/><path d="M98.42,194.17H80.64V106.54H98.42Z"/><path d="M158.24,154.29l24.38-47.75h16.9v87.63h-17V139.81l-19.05,38.61h-10.8l-18.8-38.23v54H117V106.54H133.6Z"/><path d="M271.39,106.54v15.11H234.56v19.69h33v15h-33v22.86h36.83v15H216.78V106.54Z"/><path d="M349.62,106.54v87.63H334.76L300.6,139.94v54.23H283.71V106.54h14.73l34.29,55v-55Z"/><path d="M412.61,129.27c-3.81-6-8.38-8.89-17.27-8.89-8,0-12.32,3.68-12.32,9.65,0,6.86,5.58,9.91,17.27,12.83,18.29,4.57,26.54,11.43,26.54,26.93,0,14.35-9.65,25.52-30.22,25.52-15.37,0-26-4.19-33.79-14.35l13.59-9.4c4.7,5.85,10,8.77,19,8.77,10.16,0,13.59-4.45,13.59-9.78,0-6.1-3.68-9.53-17.91-13.21-17.27-4.57-25.9-12.83-25.9-27.31,0-13.84,9.14-24.64,30-24.64,14,0,24.51,4.7,30.73,14.36Z"/><path d="M459.09,194.17H441.3V106.54h17.79Z"/><path d="M532.24,106.54v15.11H495.41v19.69h33v15h-33v22.86h36.83v15H477.62V106.54Z"/></g></svg>