<svg xmlns="http://www.w3.org/2000/svg" viewBox="0 0 36.14 236.48"><title>xxiv-memories-text</title><g id="Layer_2" data-name="Layer 2"><g id="Layer_1-2" data-name="Layer 1"><path d="M19.6,220,.53,210.23v-6.75h35v7H14.82l14.71,7.44v4.22L15,229.48H35.53v7H.53v-6.65Z"/><path d="M.53,174.48h6v15h8v-13h6v13h9v-15h6v22H.53Z"/><path d="M19.6,153,.51,143.27l0-6.75,35-.08,0,7-20.71.05,14.73,7.41v4.21L15,162.49l20.56-.05,0,7-35,.08,0-6.65Z"/><path d="M36.14,117c0,7.91-4.8,13.47-15.57,13.47h-5C4.7,130.48,0,124.92,0,117s4.7-13.53,15.57-13.53h5C31.34,103.48,36.14,109,36.14,117Zm-15.51,6.47c6.89,0,9.76-2.24,9.76-6.47s-2.87-6.53-9.76-6.53H15.51c-6.89,0-9.76,2.3-9.76,6.53s2.87,6.47,9.76,6.47Z"/><path d="M35.53,78.29l-14,6.4v5.79h14v7H.53V85.13c0-7.95,3.6-12.9,10.7-12.9,4.72,0,7.81,2.15,9.39,5.9L35.53,71Zm-20,7.54c0-4.1-.89-6.48-4.45-6.48s-4.55,2.38-4.55,6.48v4.65h9Z"/><path d="M35.53,58.48v7H.53v-7Z"/><path d="M.53,28.48h6v15h8v-13h6v13h9v-15h6v22H.53Z"/><path d="M9.65,5.68C7.26,7.21,6.09,9,6.09,12.58c0,3.2,1.48,4.93,3.86,4.93,2.74,0,4-2.24,5.12-6.91C16.9,3.3,19.64,0,25.83,0,31.57,0,36,3.86,36,12.08c0,6.14-1.67,10.4-5.73,13.49l-3.76-5.43A8.71,8.71,0,0,0,30,12.53c0-4.06-1.77-5.43-3.9-5.43-2.44,0-3.81,1.48-5.28,7.16C19,21.16,15.73,24.61,10,24.61c-5.53,0-9.84-3.65-9.84-12C.11,7.05,2,2.84,5.84.35Z"/></g></g></svg>